<svg width="192" height="192" viewBox="0 0 192 192" fill="none" xmlns="http://www.w3.org/2000/svg">
<path d="M167.898 113.349V161.428L130.177 113.349H114.617V190.268H132.378V142.198L170.095 190.268H185.659V113.349H167.898Z" fill="white"/>
<path d="M71.7306 122.806C78.9956 129.841 83.724 139.987 83.724 151.866C83.724 162.127 80.0295 172.622 71.7306 180.696C64.5805 187.616 54.8939 191.995 41.9769 191.995C27.5618 191.995 17.7603 186.228 11.9934 180.696C4.61355 173.776 0 163.4 0 152.1C0 140.801 4.95819 129.841 11.8785 122.925C17.0665 117.733 26.6428 111.621 41.9769 111.621C53.9703 111.621 64.0061 115.311 71.7306 122.811V122.806ZM25.0253 134.574C21.68 137.805 18.6058 143.282 18.6058 151.815C18.6058 158.85 20.5266 164.673 25.2596 169.286C30.2178 174.015 35.755 175.627 41.7471 175.627C49.5911 175.627 55.1237 172.746 58.8136 169.056C61.8096 166.175 65.1182 160.698 65.1182 151.815C65.1182 143.856 62.2737 138.034 58.8136 134.574C55.0088 130.884 48.8972 128.003 41.862 128.003C34.8268 128.003 29.1793 130.425 25.0253 134.574Z" fill="white"/>
<path d="M180.006 11.1892C187.271 18.2244 192 28.3706 192 40.2491C192 50.5101 188.31 61.0055 180.006 69.0792C172.856 75.9995 163.17 80.3787 150.253 80.3787C135.838 80.3787 126.036 74.6118 120.269 69.0792C112.889 62.1589 108.276 51.7784 108.276 40.4789C108.276 29.1793 113.234 18.2199 120.154 11.3041C125.342 6.11158 134.914 0 150.253 0C162.246 0 172.282 3.68992 180.006 11.1892ZM133.297 22.9529C129.951 26.1833 126.882 31.6607 126.882 40.194C126.882 47.2292 128.802 53.0512 133.531 57.6648C138.489 62.3932 144.026 64.0061 150.023 64.0061C157.867 64.0061 163.4 61.125 167.089 57.435C170.09 54.5539 173.394 49.0764 173.394 40.194C173.394 32.2351 170.55 26.413 167.089 22.9529C163.285 19.263 157.173 16.3818 150.138 16.3818C143.103 16.3818 137.455 18.8034 133.301 22.9529" fill="white"/>
<path d="M83.4299 35.3828H41.862V49.8071H63.542C62.3013 53.2764 60.5184 55.79 58.8136 57.4304C55.1237 61.1204 49.5865 64.0015 41.7471 64.0015C35.7504 64.0015 30.2178 62.3886 25.2596 57.6602C20.5312 53.0466 18.6104 47.2246 18.6104 40.1894C18.6104 31.6561 21.6846 26.1787 25.0299 22.9483C29.1793 18.7988 35.176 16.3726 41.8666 16.3726C48.9018 16.3726 55.0134 19.2584 58.8182 22.9483C59.774 23.9041 60.6746 25.0529 61.4834 26.3671L77.8146 18.8632C76.0914 16.0188 74.0558 13.4317 71.7306 11.1846C64.0015 3.68992 53.9703 0 41.9769 0C26.6382 0 17.0665 6.11158 11.8785 11.3041C4.95819 18.2199 0 29.4091 0 40.4789C0 51.5486 4.61355 62.1589 11.9934 69.0746C17.7603 74.6118 27.5618 80.3787 41.9769 80.3787C54.8939 80.3787 64.5805 75.9949 71.7306 69.0746C80.0341 61.0009 83.724 50.5101 83.724 40.2445C83.724 38.5856 83.6091 36.9681 83.4299 35.3782" fill="white"/>
<path fill-rule="evenodd" clip-rule="evenodd" d="M92.3951 99.6049V192H99.6003V99.6049H192V92.3997H99.6003V0H92.3951V92.3997H0V99.6049H92.3951Z" fill="white"/>
</svg>
