<svg width="209" height="203" viewBox="0 0 209 203" fill="none" xmlns="http://www.w3.org/2000/svg">
<path d="M204.095 172.181C197.573 183.437 185.911 190.158 172.895 190.158H147.75L155.006 197.874L150.595 202.005L135.469 185.931L141.067 179.994L150.591 169.83L155.006 173.955L147.713 181.727H172.886C182.848 181.727 191.777 176.583 196.769 167.963C201.767 159.334 201.781 149.032 196.802 140.402L152.545 63.9576L159.861 59.7399L204.123 136.189C210.626 147.464 210.612 160.915 204.086 172.181H204.095ZM12.2213 167.958C7.2238 159.329 7.20994 149.027 12.1844 140.402L21.7914 123.799L24.6551 133.216L30.4424 131.465L26.401 118.184L24.0362 110.357L2.5034 115.363L3.87518 121.241L15.0111 118.65L4.8636 136.189C-1.63503 147.46 -1.62117 160.91 4.90517 172.176C11.4269 183.433 23.0893 190.153 36.1051 190.153H118.735V181.723H36.1051C26.1423 181.723 17.2142 176.578 12.2213 167.958ZM80.607 22.2042C85.6046 13.5798 94.5373 8.43088 104.5 8.43088C114.463 8.43088 123.395 13.5798 128.393 22.1996L138.328 39.3794L127.192 36.7658L125.806 42.643L139.353 45.8282L147.344 47.6813L153.718 26.5695L147.926 24.8271L145.095 34.2121L135.705 17.9819C129.183 6.72073 117.516 0 104.5 0C91.4889 0 79.8172 6.72073 73.2909 17.9819L29.3062 94.0211L36.6224 98.2389L80.607 22.2042ZM77.6187 81.9303V81.3356C76.4917 82.3589 74.986 82.9858 73.3417 82.9858C71.5866 82.9858 69.9931 82.276 68.843 81.1282C67.6929 79.9804 66.9816 78.3901 66.9816 76.6385C66.9816 74.8869 67.6975 73.2966 68.843 72.1488C69.9931 71.001 71.5912 70.2911 73.3417 70.2911C75.0922 70.2911 76.6903 71.0056 77.8404 72.1488C78.9905 73.2966 79.7064 74.8869 79.7064 76.6385C79.7064 76.809 79.6833 81.9303 79.6833 81.9303C79.6833 83.6819 78.972 85.2722 77.8219 86.42C76.6718 87.5677 75.0737 88.2776 73.3232 88.2776C71.5727 88.2776 70.0855 87.6138 68.9492 86.5352C68.903 86.4661 68.88 86.3785 68.9585 86.2863L70.1686 85.0786C70.261 85.0141 70.3533 85.0417 70.418 85.0924C71.1847 85.7931 72.2009 86.2218 73.3232 86.2218C74.5149 86.2218 75.5818 85.7424 76.367 84.9634C77.1476 84.1843 77.6279 83.1195 77.6279 81.9303H77.6187ZM77.6187 77.0764L77.6418 76.6385C77.6418 75.4492 77.1614 74.3844 76.3809 73.6054C75.6003 72.8264 74.5287 72.347 73.3371 72.347C72.1454 72.347 71.0785 72.8264 70.2979 73.6054C69.5173 74.3844 69.037 75.4492 69.037 76.6385C69.037 77.8278 69.5173 78.8926 70.2979 79.6716C71.0785 80.4506 72.1501 80.93 73.3371 80.93C74.5287 80.93 75.5957 80.4506 76.3809 79.6716C77.0644 78.9894 77.5171 78.0859 77.6187 77.0764ZM108.398 81.9303C108.398 83.6819 107.687 85.2722 106.537 86.42C105.387 87.5677 103.789 88.2776 102.038 88.2776C100.288 88.2776 98.8004 87.6138 97.6642 86.5352C97.618 86.4661 97.5949 86.3785 97.6735 86.2863L98.8882 85.0786C98.9806 85.0141 99.0683 85.0417 99.133 85.0924C99.8997 85.7931 100.916 86.2218 102.043 86.2218C103.234 86.2218 104.301 85.7424 105.087 84.9634C105.867 84.1843 106.348 83.1195 106.348 81.9303V81.3356C105.221 82.3589 103.71 82.9858 102.066 82.9858C100.311 82.9858 98.7127 82.276 97.5672 81.1282C96.4172 79.9804 95.7059 78.3901 95.7059 76.6385C95.7059 74.8869 96.4172 73.2966 97.5672 72.1488C98.7173 71.001 100.315 70.2911 102.066 70.2911C103.816 70.2911 105.415 71.0056 106.565 72.1488C107.715 73.2966 108.426 74.8869 108.426 76.6385C108.426 76.809 108.403 81.9303 108.403 81.9303H108.398ZM106.361 76.6385C106.361 75.4492 105.881 74.3844 105.1 73.6054C104.32 72.8264 103.248 72.347 102.057 72.347C100.865 72.347 99.7935 72.8264 99.0129 73.6054C98.2323 74.3844 97.752 75.4492 97.752 76.6385C97.752 77.8278 98.2323 78.8926 99.0129 79.6716C99.7935 80.4506 100.865 80.93 102.057 80.93C103.248 80.93 104.315 80.4506 105.1 79.6716C105.784 78.9894 106.237 78.0859 106.338 77.0764L106.357 76.6385H106.361ZM116.481 82.9858C114.726 82.9858 113.133 82.2714 111.982 81.1282C110.832 79.9804 110.121 78.3901 110.121 76.6385C110.121 74.8869 110.837 73.2966 111.982 72.1488C113.133 71.001 114.726 70.2911 116.481 70.2911C118.236 70.2911 119.83 71.0056 120.98 72.1488C122.13 73.2966 122.846 74.8869 122.846 76.6385C122.846 78.3901 122.13 79.9804 120.98 81.1282C119.83 82.276 118.236 82.9858 116.481 82.9858ZM113.437 79.6716C114.218 80.4506 115.29 80.93 116.481 80.93C117.673 80.93 118.74 80.4506 119.525 79.6716C120.306 78.8926 120.786 77.8278 120.786 76.6385C120.786 75.4492 120.306 74.3844 119.525 73.6054C118.74 72.8264 117.673 72.3516 116.481 72.347C115.29 72.347 114.223 72.8264 113.437 73.6054C112.657 74.3844 112.176 75.4538 112.176 76.6385C112.176 77.8231 112.657 78.8926 113.437 79.6716ZM87.683 82.9858C85.9279 82.9858 84.3344 82.2714 83.1843 81.1282C82.0343 79.9804 81.3183 78.3901 81.323 76.6385C81.323 74.8915 82.0343 73.2966 83.1843 72.1488C84.3344 71.001 85.9279 70.2911 87.683 70.2911C89.4382 70.2911 91.0363 71.0056 92.1817 72.1488C93.3318 73.2966 94.0477 74.8869 94.0477 76.6385C94.0477 78.3901 93.3318 79.9804 92.1817 81.1282C91.0316 82.276 89.4382 82.9858 87.683 82.9858ZM84.6392 79.6716C85.4198 80.4506 86.4914 80.93 87.683 80.93C88.8747 80.93 89.9416 80.4506 90.7268 79.6716C91.5074 78.8926 91.9877 77.8278 91.9877 76.6385C91.9877 75.4492 91.512 74.3844 90.7268 73.6054C89.9462 72.8264 88.8747 72.3516 87.683 72.347C86.4914 72.347 85.4244 72.8264 84.6392 73.6054C83.8587 74.3844 83.3783 75.4538 83.3783 76.6385C83.3783 77.8278 83.8587 78.8926 84.6392 79.6716ZM126.305 82.6632C126.448 82.6632 126.499 82.5664 126.509 82.4742V76.6385C126.509 74.4213 127.405 72.4207 128.864 70.9641C129.308 70.5216 129.797 70.1344 130.328 69.8071C130.338 69.8025 130.342 69.7933 130.351 69.7887C130.476 69.7057 130.467 69.5997 130.425 69.5167L129.589 68.0693C129.515 67.9495 129.405 67.9725 129.331 68.0094C128.629 68.4335 127.977 68.9405 127.4 69.5121C125.576 71.3329 124.439 73.8589 124.439 76.6385V82.4696C124.453 82.5618 124.499 82.6586 124.643 82.6632H126.296H126.305ZM130.12 81.1236C128.97 79.9758 128.254 78.3855 128.254 76.6339C128.254 74.8822 128.97 73.292 130.12 72.1442C131.266 70.9964 132.864 70.2865 134.619 70.2865C136.374 70.2865 137.968 71.001 139.118 72.1442C140.268 73.292 140.979 74.8822 140.979 76.6339C140.979 78.3809 140.268 79.9758 139.118 81.1236C137.968 82.2714 136.374 82.9812 134.619 82.9812C132.864 82.9812 131.266 82.2668 130.12 81.1236ZM130.319 76.6339C130.319 77.8232 130.799 78.888 131.58 79.667C132.361 80.446 133.432 80.9254 134.624 80.9254C135.815 80.9254 136.882 80.446 137.663 79.667C138.443 78.888 138.924 77.8232 138.924 76.6339C138.924 75.4446 138.443 74.3798 137.663 73.6008C136.882 72.8218 135.811 72.347 134.624 72.3424C133.432 72.3424 132.361 72.8218 131.58 73.6008C130.799 74.3798 130.319 75.4492 130.319 76.6339ZM92.5235 118.655H84.279L80.7964 135.774L77.2122 118.641H69.2864L69.2726 146.404H74.7689V126.873L78.6579 146.538H83.0134L87.0364 126.943V146.473H92.5327V118.65L92.5235 118.655ZM138.693 118.645H132.425L132.453 146.482L138.698 146.547V118.65L138.693 118.645ZM128.49 142.772C128.841 141.928 129.072 140.946 129.072 139.863C129.072 139.812 129.072 139.739 129.072 139.688V139.444L129.077 118.475H122.629V140.038C122.647 140.135 122.62 140.578 122.601 140.67C122.462 141.301 121.931 141.739 121.257 141.739C120.532 141.739 119.996 141.26 119.881 140.467L119.857 140.107L119.876 136.309L114.038 136.323L114.047 140.495H114.056C114.366 144.427 117.617 146.865 121.599 146.865C124.767 146.865 127.409 145.418 128.499 142.772H128.49ZM112.865 139.803C112.865 139.513 112.902 138.964 112.865 138.683L112.818 118.475H106.384L106.398 130.114V130.238L106.389 134.926L106.375 139.416L106.366 139.361L106.38 139.494C106.38 140.504 105.378 141.32 104.14 141.32C102.902 141.32 101.747 140.421 101.747 139.411V131.087H101.775V118.466H95.341V139.43H95.3502C95.4287 143.509 99.387 147.04 104.181 147.04C108.976 147.04 112.865 143.933 112.865 139.794V139.803ZM81.0043 163.303C81.0043 163.303 82.0296 163.022 82.8887 162.906C82.8887 162.906 82.6901 160.998 81.9742 159.919C81.9742 159.919 80.5793 160.376 80.2653 160.403C80.2653 160.403 80.7502 161.938 81.0043 163.307V163.303ZM82.9164 160.542C82.9164 160.542 83.6277 161.823 84.0019 163.33C84.0019 163.33 85.3413 162.934 85.9417 162.819C85.9417 162.819 85.4568 160.8 84.8286 159.97L82.9164 160.537V160.542ZM87.5075 163.33C87.1934 162.621 85.7108 160.482 85.7108 160.482C85.8124 160.482 86.5514 159.97 86.9763 159.67H78.2746C78.6764 159.882 79.3831 160.256 79.7757 160.454C79.7757 160.454 78.7503 162.418 77.7249 163.441L76.0991 162.275C76.0991 162.275 77.5032 160.818 77.9282 159.67H76.6303V157.91H77.9004V156.471H76.0437V154.794H77.9004V153.885C77.6926 154.074 77.4894 154.25 77.3 154.393C77.3 154.393 75.9883 153.48 75.6742 153.309C75.6742 153.309 77.9282 151.318 78.6995 149.894C78.6995 149.894 80.1544 150.631 80.5793 150.834C80.5793 150.834 80.3992 151.074 80.1128 151.433H88.4821V153.171H87.2258V154.794H89.1379V156.471H87.2258V157.91H88.6668V159.67H87.4844C88.0525 160.394 89.2534 162.501 89.2534 162.501C89.1102 162.501 87.5121 163.326 87.5121 163.326L87.5075 163.33ZM80.4639 156.471H79.8911V157.91H80.4639V156.471ZM80.4639 153.171H79.8911V154.794H80.4639V153.171ZM82.8425 156.471H82.2606V157.91H82.8425V156.471ZM82.8425 153.171H82.2606V154.794H82.8425V153.171ZM85.2258 156.471H84.6392V157.91H85.2258V156.471ZM85.2258 153.171H84.6392V154.794H85.2258V153.171ZM102.195 162.22C103.678 162.164 103.733 160.284 103.733 160.284V151.659H97.5718V152.046C96.9853 151.677 96.2324 150.806 96.2324 150.806C94.6666 151.747 91.706 152.203 91.706 152.203V162.846H93.7891V162.049H97.1192V160.03H93.7891V157.527H97.1469V155.536H93.7891V153.761C95.3317 153.489 96.9021 152.738 97.5765 152.387V163.473H99.715V153.715H101.599V159.491L101.59 160.085H100.084C100.454 160.574 100.823 162.224 100.823 162.224C100.823 162.224 100.708 162.279 102.191 162.224L102.195 162.22ZM105.89 163.672C105.89 163.533 105.415 161.487 105.415 161.487C105.923 161.371 106.389 161.265 106.819 161.164V151.774H110.56V150.35H112.832V151.774H116.463V157.61L117.109 158.154C117.109 158.154 115.534 159.97 115.031 160.39C116.671 161.491 118.343 161.961 118.343 161.961L117.192 163.81C114.578 162.842 112.902 161.565 111.839 160.431V161.906C111.668 162.021 105.895 163.672 105.895 163.672H105.89ZM114.578 157.85H112.555C112.823 158.329 113.16 158.762 113.534 159.15C113.678 159.007 114.19 158.477 114.578 157.85ZM109.031 154.102H114.246V153.517H109.031V154.102ZM109.031 156.116H114.246V155.499H109.031V156.116ZM109.031 160.615C110.278 160.284 110.976 160.048 111.368 159.896C110.564 158.905 110.241 158.103 110.153 157.85H109.031V160.615ZM129.663 156.467H122.176V151.083H129.663V156.467ZM127.599 152.885H124.264V154.66H127.599V152.885ZM119.77 157.227H125.562V163.575H123.442V163.155H121.89V163.575H119.77V157.227ZM121.89 161.376H123.442V159.007H121.89V161.376ZM126.199 157.227H132.162V163.575H130.042V163.211H128.319V163.575H126.199V157.227ZM128.319 161.431H130.042V159.007H128.319V161.431ZM107.645 98.6583L103.983 102.314L100.32 98.6583L99.8905 99.0824L103.553 102.738L99.8905 106.393L100.32 106.817L103.983 103.162L107.645 106.817L108.075 106.393L104.412 102.738L108.075 99.0824L107.645 98.6583Z" fill="#323237"/>
</svg>
