<svg width="280" height="60" viewBox="0 0 280 60" fill="none" xmlns="http://www.w3.org/2000/svg">
<g clip-path="url(#clip0_520_1182)">
<path d="M250.306 0H29.6942C13.2945 0 0 13.3536 0 29.8261C0 46.2986 13.2945 59.6522 29.6942 59.6522H250.306C266.705 59.6522 280 46.2986 280 29.8261C280 13.3536 266.705 0 250.306 0Z" fill="#323237"/>
<path d="M29.6727 4.57446C15.7895 4.57446 4.53271 15.8812 4.53271 29.8261H29.6727V4.57446Z" fill="#DACE56"/>
<path d="M4.53271 29.8262C4.53271 43.7711 15.7895 55.0778 29.6727 55.0778V29.8262H4.53271Z" fill="#9DAE9F"/>
<path d="M29.6727 55.0778C43.556 55.0778 54.8127 43.7711 54.8127 29.8262H29.6727V55.0778Z" fill="#485F6D"/>
<path d="M54.8158 29.8261C54.8158 15.8812 43.559 4.57446 29.6758 4.57446V29.8261H54.8158Z" fill="#E47F58"/>
<path d="M11.4099 29.8259C11.4099 39.9568 19.5866 48.1698 29.6726 48.1698V29.8259H11.4099Z" fill="#808A87"/>
<path d="M47.9384 29.826C47.9384 19.6952 39.7617 11.4822 29.6757 11.4822V29.826H47.9384Z" fill="#AB4340"/>
<path d="M43.4855 21.1113L33.5312 28.4101C32.6976 29.0227 31.7077 29.3459 30.6749 29.3459H28.6767C27.6439 29.3459 26.657 29.0227 25.8204 28.4101L15.8661 21.1113H18.7562C19.3415 21.1113 19.9116 21.2991 20.3835 21.6439L27.1382 26.5969C27.5887 26.9263 28.1189 27.1018 28.6767 27.1018H30.6749C31.2327 27.1018 31.7629 26.9263 32.2134 26.5969L38.9681 21.6439C39.44 21.296 40.0101 21.1113 40.5954 21.1113H43.4855ZM18.7654 38.6086C19.3507 38.6086 19.9208 38.4209 20.3927 38.0761L27.1474 33.123C27.5979 32.7936 28.1281 32.6182 28.6859 32.6182H30.6841C31.2419 32.6182 31.7721 32.7936 32.2226 33.123L38.9773 38.0761C39.4492 38.4239 40.0193 38.6086 40.6046 38.6086H43.4947L33.5404 31.3099C32.7099 30.7004 31.7108 30.3741 30.6841 30.3741H28.6859C27.6531 30.3741 26.6662 30.6973 25.8296 31.3099L15.8753 38.6086H18.7654ZM48.4258 21.1113H44.6378L32.7283 29.8446L44.6807 38.6086H48.4687L36.5163 29.8446L48.4258 21.1113ZM22.9365 29.8446L10.984 38.6086H14.772L26.7245 29.8446L14.8149 21.1113H11.0269L22.9365 29.8446Z" fill="white"/>
<path d="M69.0331 20.6897H76.8757C80.4124 20.6897 82.5148 22.2597 82.5148 25.4273C82.5148 27.0742 81.7977 28.441 79.9251 29.3152V29.3398C82.0275 29.9063 83.0787 31.7071 83.0787 33.7696C83.0787 37.2204 80.3358 39.0459 77.3109 39.0459H69.0331V20.6897ZM76.4651 28.2316C78.1813 28.2316 79.1835 27.3574 79.1835 25.8644C79.1835 24.2667 78.0311 23.5987 76.3118 23.5987H72.4411V28.2316H76.4651ZM76.7225 36.1368C78.5429 36.1368 79.6953 35.2349 79.6953 33.5633C79.6953 31.8918 78.6441 31.1161 76.747 31.1161H72.4411V36.1368H76.7225Z" fill="white"/>
<path d="M86.2568 20.6897H98.9448V23.7034H89.6679V28.1824H97.8967V31.1961H89.6679V36.0352H99.049V39.049H86.2599V20.6928L86.2568 20.6897Z" fill="white"/>
<path d="M100.765 34.8008L103.842 33.591C104.535 35.3672 106.199 36.3708 108.249 36.3708C110.094 36.3708 111.838 35.6504 111.838 33.9512C111.838 32.5875 110.735 31.9687 109.325 31.5562L106.248 30.8082C103.815 30.1894 101.866 29.0843 101.866 25.8397C101.866 22.3889 104.866 20.3818 108.403 20.3818C111.452 20.3818 113.659 21.3854 114.835 24.1405L112.04 25.3749C111.247 23.8296 109.886 23.2632 108.118 23.2632C106.631 23.2632 105.197 23.9312 105.197 25.5812C105.197 26.8679 106.426 27.462 107.863 27.8468L110.989 28.6195C113.168 29.1336 115.166 30.448 115.166 33.7172C115.166 36.9864 112.166 39.3291 108.142 39.3291C104.783 39.3291 101.709 37.913 100.759 34.7977L100.765 34.8008Z" fill="white"/>
<path d="M118.351 20.6897H125.783C129.319 20.6897 131.986 22.6968 131.986 26.4554C131.986 29.2629 130.113 32.1719 125.964 32.1719H121.759V39.0459H118.351V20.6897ZM125.375 29.2875C127.349 29.2875 128.657 28.3363 128.657 26.4308C128.657 24.2667 127.223 23.5741 125.326 23.5741H121.765V29.2906H125.378L125.375 29.2875Z" fill="white"/>
<path d="M134.293 33.0246V27.1542C134.293 22.8045 137.983 20.3818 141.6 20.3818C145.572 20.3818 149.032 22.983 149.032 27.0742V32.5844C149.032 36.9341 145.342 39.3568 141.725 39.3568C137.754 39.3568 134.293 37.1157 134.293 33.0246ZM145.648 32.766V26.8956C145.648 24.6823 143.751 23.4202 141.6 23.4202C139.856 23.4202 137.677 24.3467 137.677 26.9726V32.843C137.677 35.0563 139.574 36.3184 141.725 36.3184C143.469 36.3184 145.648 35.3918 145.648 32.766Z" fill="white"/>
<path d="M152.519 20.6896H155.927V29.2105L163.283 20.6896H167.435L160.926 27.9237L168.076 39.0458H164.104L158.67 30.4203L155.927 33.277V39.0427H152.519V20.6865V20.6896Z" fill="white"/>
<path d="M170.359 20.6897H183.047V23.7034H173.77V28.1824H181.999V31.1961H173.77V36.0352H183.151V39.049H170.362V20.6928L170.359 20.6897Z" fill="white"/>
<path d="M192.839 33.0246V27.1542C192.839 22.8045 196.146 20.3818 200.145 20.3818C203.63 20.3818 207.118 22.3397 207.118 26.4308V26.9972H203.887V26.7386C203.887 24.3437 201.813 23.4171 200.145 23.4171C198.478 23.4171 196.222 24.3437 196.222 26.9695V32.8399C196.222 35.0532 198.12 36.3154 200.271 36.3154C201.938 36.3154 203.884 35.3888 203.884 32.9938V32.7352H207.115V33.3017C207.115 37.3959 203.756 39.3506 200.271 39.3506C196.299 39.3506 192.839 37.1096 192.839 33.0184V33.0246Z" fill="white"/>
<path d="M210.474 20.6897H213.881V36.0352H222.775V39.049H210.474V20.6928V20.6897Z" fill="white"/>
<path d="M225.163 32.7137V20.6897H228.571V32.3012C228.571 34.5669 229.647 36.2415 232.313 36.2415C234.798 36.2415 236.055 34.927 236.055 32.3012V20.6897H239.463V32.4551C239.463 36.8325 236.567 39.3291 232.313 39.3291C228.059 39.3291 225.163 37.1157 225.163 32.7137Z" fill="white"/>
<path d="M243.284 20.6897H251.127C254.664 20.6897 256.766 22.2597 256.766 25.4273C256.766 27.0742 256.049 28.441 254.176 29.3152V29.3398C256.279 29.9063 257.33 31.7071 257.33 33.7696C257.33 37.2204 254.587 39.0459 251.562 39.0459H243.284V20.6897ZM250.716 28.2316C252.433 28.2316 253.435 27.3574 253.435 25.8644C253.435 24.2667 252.282 23.5987 250.563 23.5987H246.692V28.2316H250.716ZM250.974 36.1368C252.794 36.1368 253.947 35.2349 253.947 33.5633C253.947 31.8918 252.895 31.1161 250.998 31.1161H246.692V36.1368H250.974Z" fill="white"/>
</g>
<defs>
<clipPath id="clip0_520_1182">
<rect width="280" height="59.6522" fill="white"/>
</clipPath>
</defs>
</svg>
