<svg xmlns="http://www.w3.org/2000/svg" viewBox="0 0 382.8 57.53"><rect y="14.35" width="382.8" height="43.17" style="fill:#ff0"/><path d="M22.67,3a1.3,1.3,0,0,1,1.47-1.47H40.06A1.32,1.32,0,0,1,41.57,3V32.77c0,1-.49,1.52-1.46,1.52H38.54c-.81,0-.89.5-.24,1.51a18,18,0,0,0,2.49,2.93c1,.91,1.19,1.84.44,2.78l-1.56,2a1.5,1.5,0,0,1-2.59.14,26.1,26.1,0,0,1-3.71-5.27,1.74,1.74,0,0,1,.73-2.49l.93-.59c.78-.65.68-1-.3-1H29.66c-1.05,0-1,.31.14.92a1.66,1.66,0,0,1,.83,2.49,34.89,34.89,0,0,1-3.51,5.86q-1.56,1.81-3.08.54l-1.56-1.37c-.88-.81-.86-1.74.05-2.78a24.25,24.25,0,0,0,3-4.49c.39-.78.19-1.17-.59-1.17h-.73a1.32,1.32,0,0,1-1.52-1.47ZM36.1,8c0-.85-.37-1.27-1.12-1.27H29.27c-.82,0-1.22.39-1.22,1.17v2c0,.82.39,1.22,1.17,1.22h5.66c.81,0,1.22-.39,1.22-1.17Zm0,9.27c0-.87-.36-1.31-1.07-1.31H29.27c-.82,0-1.22.39-1.22,1.17v1.56c0,.81.39,1.22,1.17,1.22h5.66c.81,0,1.22-.39,1.22-1.17Zm0,8.79c0-.88-.36-1.31-1.07-1.31H29.27c-.82,0-1.22.39-1.22,1.17v1.95c0,.81.39,1.22,1.17,1.22h5.66c.81,0,1.22-.39,1.22-1.17ZM50.6,1.67c0-1,.46-1.56,1.37-1.56h2.74a1.31,1.31,0,0,1,1.51,1.46V6.7c0,.81.39,1.22,1.17,1.22h7.86c1,0,1.52.49,1.52,1.46v2.49a1.32,1.32,0,0,1-1.47,1.52H57.44c-.81,0-1.22.39-1.22,1.17v5.86c0,.81.39,1.22,1.17,1.22h6.84a1.31,1.31,0,0,1,1.51,1.46V43.51c0,1-.49,1.52-1.46,1.52H61.69c-1,0-1.52-.28-1.52-.83s-.39-.93-1.17-.93H50.36c-.81,0-1.22.28-1.22.83s-.49.93-1.47.93H45.09a1.32,1.32,0,0,1-1.52-1.47V23.15A1.32,1.32,0,0,1,45,21.64h4.34c.82,0,1.22-.39,1.22-1.17Zm9.57,26.61c0-.85-.37-1.27-1.12-1.27H50.36c-.81,0-1.22.39-1.22,1.17v8.6c0,.81.39,1.22,1.17,1.22H59c.82,0,1.22-.39,1.22-1.18Z" style="fill:#00d7fe"/><path d="M90.79,1.67c0-1,.46-1.56,1.37-1.56h2.68c1,0,1.52.48,1.52,1.46V14.75c0,.82.39,1.22,1.17,1.22h7.27c.82,0,1.22-.39,1.22-1.17V5a1.32,1.32,0,0,1,1.47-1.52h2.68a1.32,1.32,0,0,1,1.52,1.47v14.7a1.32,1.32,0,0,1-1.47,1.51H97.58c-.82,0-1.22.39-1.22,1.17V36c0,.82.39,1.22,1.17,1.22h9.62c.81,0,1.22-.39,1.22-1.17V26.28c0-1,.49-1.52,1.46-1.52h2.64A1.32,1.32,0,0,1,114,26.23V43.51c0,1-.49,1.52-1.46,1.52h-2.64c-1,0-1.51-.38-1.51-1.13s-.39-1.22-1.17-1.22H80.05a1.08,1.08,0,0,0-1.22,1.22q0,1.32-1.47,1.32H74.68c-1,0-1.52-.49-1.52-1.46V26.28a1.32,1.32,0,0,1,1.47-1.52h2.68a1.32,1.32,0,0,1,1.52,1.47V36c0,.82.39,1.22,1.17,1.22h9.57c.81,0,1.22-.39,1.22-1.17V22.37c0-.81-.39-1.22-1.17-1.22H77a1.31,1.31,0,0,1-1.51-1.46V4.79c0-1,.48-1.51,1.46-1.51h2.69a1.31,1.31,0,0,1,1.51,1.46v10c0,.82.39,1.22,1.17,1.22h7.23c.81,0,1.22-.39,1.22-1.17Z" style="fill:#00d7fe"/><path d="M122.67,3a1.3,1.3,0,0,1,1.47-1.47h15.92A1.32,1.32,0,0,1,141.57,3V32.77c0,1-.49,1.52-1.46,1.52h-1.57c-.81,0-.89.5-.24,1.51a18,18,0,0,0,2.49,2.93c1,.91,1.19,1.84.44,2.78l-1.56,2a1.5,1.5,0,0,1-2.59.14,26.1,26.1,0,0,1-3.71-5.27,1.74,1.74,0,0,1,.73-2.49l.93-.59c.78-.65.68-1-.3-1h-5.07c-1,0-1,.31.14.92a1.66,1.66,0,0,1,.83,2.49,34.89,34.89,0,0,1-3.51,5.86q-1.56,1.81-3.08.54l-1.56-1.37c-.88-.81-.86-1.74,0-2.78a24.25,24.25,0,0,0,3-4.49c.39-.78.19-1.17-.59-1.17h-.73a1.32,1.32,0,0,1-1.52-1.47ZM136.1,8c0-.85-.37-1.27-1.12-1.27h-5.71c-.82,0-1.22.39-1.22,1.17v2c0,.82.39,1.22,1.17,1.22h5.66c.81,0,1.22-.39,1.22-1.17Zm0,9.27c0-.87-.36-1.31-1.07-1.31h-5.76c-.82,0-1.22.39-1.22,1.17v1.56c0,.81.39,1.22,1.17,1.22h5.66c.81,0,1.22-.39,1.22-1.17Zm0,8.79c0-.88-.36-1.31-1.07-1.31h-5.76c-.82,0-1.22.39-1.22,1.17v1.95c0,.81.39,1.22,1.17,1.22h5.66c.81,0,1.22-.39,1.22-1.17ZM150.6,1.67c0-1,.46-1.56,1.37-1.56h2.74a1.31,1.31,0,0,1,1.51,1.46V6.7c0,.81.39,1.22,1.17,1.22h7.86c1,0,1.52.49,1.52,1.46v2.49a1.32,1.32,0,0,1-1.47,1.52h-7.86c-.81,0-1.22.39-1.22,1.17v5.86c0,.81.39,1.22,1.17,1.22h6.84a1.31,1.31,0,0,1,1.51,1.46V43.51c0,1-.49,1.52-1.46,1.52h-2.59c-1,0-1.52-.28-1.52-.83s-.39-.93-1.17-.93h-8.64c-.81,0-1.22.28-1.22.83s-.49.93-1.47.93h-2.58a1.32,1.32,0,0,1-1.52-1.47V23.15A1.32,1.32,0,0,1,145,21.64h4.34c.82,0,1.22-.39,1.22-1.17Zm9.57,26.61c0-.85-.37-1.27-1.12-1.27h-8.69c-.81,0-1.22.39-1.22,1.17v8.6c0,.81.39,1.22,1.17,1.22H159c.82,0,1.22-.39,1.22-1.18Z" style="fill:#00d7fe"/><path d="M175,16.46q.24-1.52,1.71-1l2.49.83a1.82,1.82,0,0,1,1.46,2.15,153.6,153.6,0,0,1-3.95,18.21c-.29,1-1,1.22-2,.73l-2.54-1.27c-1.08-.52-1.49-1.22-1.22-2.1A172,172,0,0,0,175,16.46Zm8.64-2.83c0-1,.46-1.56,1.37-1.56h3a1.31,1.31,0,0,1,1.51,1.46V35q-.54,2.49,2.49,2.83a29.69,29.69,0,0,0,5.91,0,19.88,19.88,0,0,1,2.44,0,2.24,2.24,0,0,0,2.1-2.15,15.8,15.8,0,0,0,.44-4.39c.06-1,.59-1.21,1.56-.69s2,1.09,2.93,1.71a2.35,2.35,0,0,1,1.32,2.35,19.54,19.54,0,0,1-1.22,5.86A3.61,3.61,0,0,1,205,42.83a21.57,21.57,0,0,1-5.71.83h-6.11l-3.9-.29c-3.13,0-5-1.63-5.67-4.79Zm5.08-11.42c1-1,2-1.24,2.93-.69a57.92,57.92,0,0,1,8.25,6c1,.91,1.14,1.84.39,2.78l-2,2.49c-.88,1-1.77,1.11-2.68.2a64.93,64.93,0,0,0-8.21-7c-.91-.62-.88-1.42.1-2.4Zm20.8,12.89a1.32,1.32,0,0,1,2,.78,124.8,124.8,0,0,1,4.93,15.52,1.68,1.68,0,0,1-1.07,2.15l-3,1.22c-1,.43-1.66.17-1.85-.78a120.12,120.12,0,0,0-4.25-15.62,1.58,1.58,0,0,1,.88-2.2Z" style="fill:#00d7fe"/><path d="M231.12,1.67c0-1,.46-1.56,1.37-1.56H235c1,0,1.51.48,1.51,1.46v2c0,.82.39,1.22,1.17,1.22h2.25a1.32,1.32,0,0,1,1.51,1.47V8.55c0,1-.48,1.52-1.46,1.52h-2.25c-.81,0-1.22.39-1.22,1.17v2.1c0,.81.39,1.22,1.17,1.22h2.88c1,0,1.52.49,1.52,1.46v2.3a1.32,1.32,0,0,1-1.47,1.51H238.2c-.81,0-1.22.39-1.22,1.17v2.89c0,.81.39,1.22,1.17,1.22H241c1,0,1.52.48,1.52,1.46v2.49a1.32,1.32,0,0,1-1.47,1.51H238.2A1.07,1.07,0,0,0,237,31.75V36c0,.78.49,1.34,1.47,1.66a77.2,77.2,0,0,0,13.47,1.13h6.64q3-.11,6.2-.44c1.27-.13,1.76.27,1.47,1.22l-.88,3.17c-.29,1.08-.9,1.61-1.81,1.61H251q-11.19.06-17-2.24A14.81,14.81,0,0,1,230,39.9c-.95-.75-1.53-.63-1.76.34l-1,3.47c-.39,1-1.07,1.19-2.05.63L223.06,43a2,2,0,0,1-.83-2.74q2.21-6,2.45-16.36a1.31,1.31,0,0,1,1.46-1.51h2.25a1.3,1.3,0,0,1,1.46,1.47l-.19,6.39a3.21,3.21,0,0,0,.78,2.3c.71.71,1.07.68,1.07-.1V21.05c0-.81-.39-1.22-1.17-1.22h-5.91a1.31,1.31,0,0,1-1.51-1.46v-2.3a1.31,1.31,0,0,1,1.46-1.51h5.52c.81,0,1.22-.39,1.22-1.17v-2.1c0-.82-.39-1.22-1.17-1.22h-4a1.32,1.32,0,0,1-1.51-1.47V6.31A1.32,1.32,0,0,1,226,4.79h4c.81,0,1.22-.39,1.22-1.17ZM244,2.89c0-1,.46-1.56,1.37-1.56h18c1,0,1.51.48,1.51,1.46A70.94,70.94,0,0,1,264.08,15a4.24,4.24,0,0,1-3.47,3.86,14.35,14.35,0,0,1-4.83,0A2.08,2.08,0,0,1,254,17.05a23,23,0,0,1-.54-2.54c-.22-1,.15-1.38,1.13-1.22a9.29,9.29,0,0,0,3.71.19,2.19,2.19,0,0,0,.63-1.61c.13-1.36.2-2.75.2-4.15,0-.81-.34-1.22-1.12-1.22h-3.62c-.78,0-1.24.49-1.37,1.47a16.77,16.77,0,0,1-2.49,7.32,10.5,10.5,0,0,1-3.27,3.47,1.88,1.88,0,0,1-2.68-.69l-1.13-1.61c-.71-1-.48-1.88.69-2.54a8.43,8.43,0,0,0,3.42-6.25A1,1,0,0,0,246.5,6.5h-1C244.52,6.5,244,6,244,5Zm.34,19.33c0-1,.48-1.56,1.42-1.56h16.65a1.32,1.32,0,0,1,1.51,1.47V34.92c0,1-.48,1.51-1.46,1.51H245.82A1.29,1.29,0,0,1,244.35,35Zm14.11,4.89c0-.82-.39-1.22-1.17-1.22H251c-.81,0-1.22.39-1.22,1.17V30c0,.81.39,1.22,1.17,1.22h6.25c.82,0,1.22-.39,1.22-1.17Z" style="fill:#00d7fe"/><path d="M307.63.4a2.19,2.19,0,0,1,3.08.58l.73,1a2.94,2.94,0,0,0,2.44,1.51,1.32,1.32,0,0,1,1.52,1.47v2.2a1.32,1.32,0,0,1-1.47,1.51h-9c-.78,0-1.14.49-1.07,1.47a37.36,37.36,0,0,0,1.07,5.56c.26.75.68.6,1.27-.44l1.66-3.56a1.68,1.68,0,0,1,2.34-1.08l2,.69c1.2.39,1.58,1.09,1.12,2.1A72.62,72.62,0,0,1,308.81,22c-.49.78-.31,1.69.53,2.73a2.06,2.06,0,0,0,1.22.83c.17,0,.35-.44.54-1.41a13.06,13.06,0,0,0,0-2c0-1,.49-1.31,1.47-1A21.82,21.82,0,0,1,315,22a1.92,1.92,0,0,1,1.37,2,20.43,20.43,0,0,1-.93,4q-1.12,2.64-3.22,2.93-2.16.93-5.47-2.05c-1-1-1.84-1-2.59-.09l-1.61,1.85a1.9,1.9,0,0,1-2.83.29l-1.52-1.07c-.94-.75-1.37-1.19-1.27-1.32s-.34-.19-1.12-.19h-8.59c-.79,0-1.19.11-1.22.34s-.54.39-1.52.39h-2a1.32,1.32,0,0,1-1.51-1.47V18c0-1,.48-1.52,1.46-1.52h13.14A1.32,1.32,0,0,1,297,18v9.13c0,.84.45.78,1.37-.2s1.88-2.23,2.73-3.37a2.48,2.48,0,0,0,.15-2.63,47,47,0,0,1-3.18-11,1.27,1.27,0,0,0-1.36-1.22H280.93c-.82,0-1.22.39-1.22,1.17v8.84A27.55,27.55,0,0,1,277.26,29c-.55,1-1.3,1.29-2.24.73l-2.25-1.31A1.7,1.7,0,0,1,272,26a27.89,27.89,0,0,0,2.25-10.15V5c0-1,.48-1.52,1.46-1.52h20.41c.78,0,1.14-.48,1.07-1.46V1.57A1.21,1.21,0,0,1,298.6.11h2.78A1.45,1.45,0,0,1,303,1.57a1.77,1.77,0,0,1,0,.73c.1.78.66,1.17,1.67,1.17s1.36-.24,1-.73-.06-1,1-1.71A5.33,5.33,0,0,0,307.63.4ZM273.75,33.65c.19-1,.79-1.28,1.8-.93l2.35.78c1.2.43,1.67,1.14,1.41,2.15q-1,4.05-1.8,6.16c-.43,1.07-1.21,1.35-2.35.83a16.68,16.68,0,0,0-2-1,1.81,1.81,0,0,1-1.12-2.44A39.21,39.21,0,0,0,273.75,33.65Zm7.18-21.87c0-1,.47-1.52,1.41-1.52h13.48a1.32,1.32,0,0,1,1.51,1.47v1.85c0,1-.49,1.52-1.46,1.52H282.44a1.32,1.32,0,0,1-1.51-1.47Zm.58,21.48c0-1,.47-1.51,1.42-1.51h2.73c1,0,1.52.48,1.52,1.46,0,1.56,0,3.13.09,4.69.52.94,1.76,1.37,3.71,1.27h6.16l2.29-.1a2.68,2.68,0,0,0,2-2.39c.13-1.17.72-1.45,1.76-.83l2.59,1.46A2.2,2.2,0,0,1,307,39.66a5.42,5.42,0,0,1-2.15,3.81,20.67,20.67,0,0,1-6.49.92h-7.67a20.47,20.47,0,0,1-5.86-.68,4.48,4.48,0,0,1-3.27-4Zm10.55-10.74c0-.91-.38-1.37-1.12-1.37h-3.76c-.82,0-1.22.42-1.22,1.27s.39,1.37,1.17,1.37h3.71A1.1,1.1,0,0,0,292.06,22.52Zm1.12,7.66a2,2,0,0,1,2.78.35,16.82,16.82,0,0,1,2.15,2.83,1.48,1.48,0,0,1-.53,2.34l-2.1,1.17c-1,.62-1.88.31-2.59-.92a19.25,19.25,0,0,0-1.47-2c-1-1.07-1-1.93,0-2.59ZM309.78,33a2,2,0,0,1,2.79.24,53.2,53.2,0,0,1,3.32,5.37,1.72,1.72,0,0,1-.78,2.44l-2,1.18c-1.2.74-2,.58-2.49-.49a40.28,40.28,0,0,0-3-5.08c-.78-1-.71-1.86.2-2.44Z" style="fill:#00d7fe"/><path d="M325,16.46q.24-1.52,1.71-1l2.49.83a1.83,1.83,0,0,1,1.46,2.15,153.6,153.6,0,0,1-3.95,18.21c-.3,1-.95,1.22-2,.73l-2.53-1.27q-1.62-.78-1.23-2.1A169.41,169.41,0,0,0,325,16.46Zm8.64-2.83c0-1,.46-1.56,1.37-1.56h3a1.31,1.31,0,0,1,1.51,1.46V35q-.54,2.49,2.49,2.83a29.69,29.69,0,0,0,5.91,0,19.88,19.88,0,0,1,2.44,0,2.24,2.24,0,0,0,2.1-2.15,15.8,15.8,0,0,0,.44-4.39c.06-1,.59-1.21,1.56-.69s2,1.09,2.93,1.71a2.35,2.35,0,0,1,1.32,2.35,19.54,19.54,0,0,1-1.22,5.86A3.61,3.61,0,0,1,355,42.83a21.57,21.57,0,0,1-5.71.83h-6.11l-3.9-.29c-3.13,0-5-1.63-5.67-4.79Zm5.08-11.42c1-1,2-1.24,2.93-.69a57.92,57.92,0,0,1,8.25,6c1,.91,1.14,1.84.39,2.78l-2.05,2.49c-.88,1-1.77,1.11-2.68.2a64.93,64.93,0,0,0-8.21-7c-.91-.62-.88-1.42.1-2.4Zm20.8,12.89a1.32,1.32,0,0,1,2.05.78,124.8,124.8,0,0,1,4.93,15.52,1.68,1.68,0,0,1-1.07,2.15l-3,1.22c-1,.43-1.66.17-1.85-.78a120.12,120.12,0,0,0-4.25-15.62,1.58,1.58,0,0,1,.88-2.2Z" style="fill:#00d7fe"/></svg>