<svg xmlns="http://www.w3.org/2000/svg" viewBox="0 0 394.06 45.32"><path d="M12.6,1a2.3,2.3,0,0,1,3.07.64L16.8,3.22c.62,1,.45,1.78-.49,2.2q-1.66.78,0,.78H24.9a2.29,2.29,0,0,0,2-1.47,28.85,28.85,0,0,0,1.26-3c.36-1,1-1.43,2-1.17l3.32.87c1.07.33,1.35,1,.83,2.1L33.4,5c-.52.81-.38,1.22.44,1.22h8.1c1,0,1.52.49,1.52,1.46V10A1.32,1.32,0,0,1,42,11.47H1.51A1.31,1.31,0,0,1,0,10V7.71A1.31,1.31,0,0,1,1.46,6.2h8.7q2.19.59.14-1.95c-.71-1-.6-1.78.34-2.3A18.24,18.24,0,0,1,12.6,1ZM1.71,15a1.31,1.31,0,0,1,1.46-1.51h17c1,0,1.51.48,1.51,1.46v24.8q-.89,6.36-8.15,5.47a2,2,0,0,1-2-1.85L11,40.92c-.17-1,.24-1.37,1.22-1.18L14.7,40c.75-.1,1.17-.64,1.27-1.61V36.33c0-.82-.39-1.22-1.18-1.22H8.59c-.81,0-1.22.39-1.22,1.17v7.47a1.31,1.31,0,0,1-1.46,1.51H3.17A1.29,1.29,0,0,1,1.71,43.8ZM16,20.36q0-1.71-1.08-1.71H8.59c-.81,0-1.22.52-1.22,1.56s.39,1.66,1.17,1.66h6.21C15.56,21.87,16,21.37,16,20.36Zm0,8.15c0-1.07-.39-1.61-1.18-1.61H8.59c-.81,0-1.22.52-1.22,1.57s.39,1.61,1.17,1.61h6.21C15.56,30.08,16,29.56,16,28.51Zm9.81-12A1.32,1.32,0,0,1,27.25,15h2.68c1,0,1.52.49,1.52,1.46v18.7A1.32,1.32,0,0,1,30,36.67H27.25a1.3,1.3,0,0,1-1.47-1.47Zm10.55-2.1c0-1,.45-1.56,1.37-1.56h2.78A1.32,1.32,0,0,1,42,14.31V38.57a13,13,0,0,1-.53,3.91A4.52,4.52,0,0,1,37,45.26,36.65,36.65,0,0,1,32.18,45a2.07,2.07,0,0,1-1.81-1.71l-.44-2.54c-.16-1.11.29-1.55,1.37-1.32a28.42,28.42,0,0,0,3.42.39c.84,0,1.38-.55,1.61-1.66Z" style="fill:#01ffda"/><path d="M56,1.22c.49-1.07,1.15-1.42,2-1s1.61.66,2.49,1.08,1.2,1.15.68,2.2q-1.65,3.08-3.56,6.29c-.52.79-.54,1.37,0,1.76s1.07.38,1.46-.34q1.23-2.25,2.25-4.54C61.82,5.4,62.61,5,63.62,5.47a25.29,25.29,0,0,1,2.44,1.12c1,.42,1.19,1.16.64,2.2l-3.27,5.56q-.69,1.13.93.69a1.16,1.16,0,0,0,.53-.15A1.58,1.58,0,0,1,67,16a57.77,57.77,0,0,1,2.1,7.42,1.54,1.54,0,0,1-1.12,2l-2.25.68c-1,.26-1.49.12-1.56-.44s-.44-1-1-.92Q62,24.85,62,25.88V43.36a1.31,1.31,0,0,1-1.46,1.51H58.15a1.32,1.32,0,0,1-1.51-1.46V26.61c0-.78-.49-1.14-1.46-1.07s-2,.11-3,.24a1.49,1.49,0,0,1-1.81-1.32,20.12,20.12,0,0,1-.44-2.24q-.28-1.47,1.17-1.62l1-.09a2.82,2.82,0,0,0,2.2-1.42l.29-.39A1.84,1.84,0,0,0,54.1,16c-1.3-1.07-2.6-2.1-3.9-3.07-.85-.72-.85-1.61,0-2.69L51.76,8.3c.26-.29.47-.41.63-.34A42.68,42.68,0,0,0,56,1.22ZM51,29.83c.13-1,.66-1.41,1.61-1.22l2,.44a1.57,1.57,0,0,1,1.41,1.81c-.39,3-.84,6.1-1.36,9.23-.2,1-.78,1.3-1.76,1L51,40.43a1.72,1.72,0,0,1-1.27-2.15C50.24,35.48,50.67,32.66,51,29.83ZM62.45,18c-.26-.88-.63-1-1.12-.25L60.5,19c-.52.78-.25,1.11.83,1h.44c.84-.07,1.12-.57.83-1.52A1.44,1.44,0,0,0,62.45,18ZM76.66,1.27A1.33,1.33,0,0,1,78.42.05c.75.13,1.54.31,2.39.53,1.2.27,1.64.85,1.32,1.76s-.15,1.37.63,1.37h9.13c1,0,1.52.49,1.52,1.46V21.43A1.32,1.32,0,0,1,91.94,23H85.79c-.81,0-1.22.39-1.22,1.17V26a2.9,2.9,0,0,0,.39,1.7c.33.49.85.57,1.56.25a27.5,27.5,0,0,0,3.57-2.1,1.8,1.8,0,0,1,2.88.34l1,1.27a1.74,1.74,0,0,1-.49,2.73L90.09,32c-.78.36-.75,1,.1,1.81a28.52,28.52,0,0,0,3.9,2.78c1.17.62,1.47,1.45.88,2.49L93.8,41.31c-.55,1.07-1.4,1.27-2.54.58A24.23,24.23,0,0,1,85.6,37c-.69-.88-1-.91-1-.1A15,15,0,0,1,84,42.43a3.23,3.23,0,0,1-2.39,2.25c-2.54.55-4.47.53-5.81,0A2.83,2.83,0,0,1,74,42.53a2.14,2.14,0,0,0-.14-.78c-.16-.85-.72-.87-1.66,0l-.93.73A1.63,1.63,0,0,1,68.7,42l-1.07-1.46c-.72-1.05-1.44-1.45-2.15-1.22s-1.08-.2-1.17-1.27a64.85,64.85,0,0,0-1.22-7.18,1.56,1.56,0,0,1,1.27-2.1l1.56-.44a1.35,1.35,0,0,1,1.9,1.07c.52,2,1,4.12,1.37,6.5.19.78.73.8,1.61,0a18.9,18.9,0,0,0,3.37-4.11q.78-1.41-.39-1.41H70.46A1.32,1.32,0,0,1,69,29v-1.9c0-1,.48-1.51,1.46-1.51h7.47a1.1,1.1,0,0,0,1.22-1.27Q79.1,23,77.93,23H71.29a1.32,1.32,0,0,1-1.51-1.47V5.22c0-1,.48-1.51,1.46-1.51h3.52c.78,0,1.33-.49,1.66-1.47ZM87.89,9.76c0-.84-.37-1.27-1.12-1.27H76.37a1.06,1.06,0,0,0-1.22,1.18c0,.81.39,1.22,1.17,1.22H86.67C87.48,10.89,87.89,10.51,87.89,9.76Zm0,7.18c0-.91-.37-1.37-1.12-1.37H76.37c-.82,0-1.22.43-1.22,1.27s.39,1.32,1.17,1.32H86.67A1.08,1.08,0,0,0,87.89,16.94ZM79.1,35.06c0-1-.28-1.13-.83-.34a18.23,18.23,0,0,1-2.44,3.36c-.68.79-.54,1.31.44,1.57a4.21,4.21,0,0,0,2.1.05c.32-.17.57-.79.73-1.86Z" style="fill:#01ffda"/><path d="M99.17,8.89a1.3,1.3,0,0,1,1.46-1.47h15.78a1.32,1.32,0,0,1,1.51,1.47v2.58c0,1-.49,1.52-1.46,1.52H100.68a1.32,1.32,0,0,1-1.51-1.47Zm1.61,20.94c0-1,.47-1.51,1.42-1.51h12.4a1.31,1.31,0,0,1,1.51,1.46v14a1.31,1.31,0,0,1-1.46,1.51h-2.39c-1,0-1.52-.31-1.52-.93s-.39-1-1.17-1h-2.1c-.81,0-1.22.31-1.22.93s-.49,1-1.46,1h-2.5a1.32,1.32,0,0,1-1.51-1.46Zm.54-7.27c0-1,.47-1.52,1.41-1.52h11.53a1.32,1.32,0,0,1,1.51,1.47V25a1.31,1.31,0,0,1-1.46,1.51H102.83a1.31,1.31,0,0,1-1.51-1.46Zm.19-20.32c0-1,.48-1.56,1.42-1.56h11.33a1.32,1.32,0,0,1,1.51,1.47V4.64a1.31,1.31,0,0,1-1.46,1.51H103a1.3,1.3,0,0,1-1.47-1.46Zm0,13.48A1.32,1.32,0,0,1,103,14.21h11.28a1.31,1.31,0,0,1,1.51,1.46v2.49c0,1-.49,1.52-1.46,1.52H103a1.3,1.3,0,0,1-1.47-1.47Zm9.23,19q0-1.23-1.17-1.23h-2.1a1.07,1.07,0,0,0-1.22,1.18V37c0,.82.39,1.22,1.17,1.22h2.1c.81,0,1.22-.39,1.22-1.17ZM128.27,1.46c0-.88.46-1.31,1.37-1.31h2.78c1,0,1.52.4,1.52,1.22s.39,1.31,1.17,1.31h7.32A1.32,1.32,0,0,1,144,4.15v2.1a1.32,1.32,0,0,1-1.47,1.51h-7.32c-.82,0-1.22.23-1.22.69s.39.73,1.17.73h5.17c1,0,1.52.49,1.52,1.46V12.3a1.32,1.32,0,0,1-1.47,1.52h-5.17c-.82,0-1.22.21-1.22.63s.39.73,1.17.73h7.66a1.32,1.32,0,0,1,1.52,1.47v2.1a1.32,1.32,0,0,1-1.47,1.51H118.9c-1,0-1.52-.49-1.52-1.46V16.7a1.32,1.32,0,0,1,1.47-1.52h8.2c.81,0,1.22-.21,1.22-.63s-.39-.73-1.17-.73h-5.32a1.32,1.32,0,0,1-1.52-1.47V10.69a1.32,1.32,0,0,1,1.47-1.51h5.32c.81,0,1.22-.23,1.22-.69s-.39-.73-1.17-.73H120a1.31,1.31,0,0,1-1.51-1.46V4.2c0-1,.48-1.52,1.46-1.52h7.08A1.08,1.08,0,0,0,128.27,1.46Zm-8.2,21.78c0-1,.45-1.56,1.37-1.56h19.38a1.31,1.31,0,0,1,1.51,1.46v17a5,5,0,0,1-3.85,4.78,9.93,9.93,0,0,1-4,.29,1.83,1.83,0,0,1-1.76-1.61,13.25,13.25,0,0,1-.34-1.9c-.22-1.27.15-1.78,1.13-1.52a6.72,6.72,0,0,0,2.68.15,2.09,2.09,0,0,0,.64-1.95c0-.13-.44-.2-1.22-.2h-8.84c-.82,0-1.22.39-1.22,1.17v4.4a1.32,1.32,0,0,1-1.47,1.51h-2.49a1.31,1.31,0,0,1-1.51-1.46Zm16.8,4.05c0-.52-.38-.78-1.13-.78h-9c-.82,0-1.22.23-1.22.69s.39.73,1.17.73h8.93C136.46,27.93,136.87,27.72,136.87,27.29Zm0,5.81c0-.48-.38-.73-1.13-.73h-9c-.82,0-1.22.21-1.22.64s.39.73,1.17.73h8.93C136.46,33.74,136.87,33.53,136.87,33.1Z" style="fill:#01ffda"/><path d="M181.93,1.41a2.06,2.06,0,0,1,2.64-.78l2.88,1.66c1,.65,1.06,1.47.15,2.44a1.5,1.5,0,0,1-.39.44q-1.12,1.23,0,1.23h4.68c1,0,1.52.48,1.52,1.46v2.69a1.32,1.32,0,0,1-1.47,1.51H175.88c-.82,0-1.22.39-1.22,1.17V15c-.23.78.19,1.82,1.27,3.12a17.77,17.77,0,0,0,1.36,2q1.13,1.51,2.4.09a50,50,0,0,0,3.42-4.88c.68-1.24,1.53-1.59,2.53-1.07l3,1.56a1.47,1.47,0,0,1,.64,2.25,38.58,38.58,0,0,1-5.47,7.42q-1.08,1.17.24,2.49a38.7,38.7,0,0,0,9.28,6.44,1.45,1.45,0,0,1,.68,2.2c-.45.81-.86,1.63-1.22,2.44a1.65,1.65,0,0,1-2.49.88,47.33,47.33,0,0,1-14.74-13.09q-.93-1.26-.93-.09v12.4a9.48,9.48,0,0,1-.93,3.91A3.4,3.4,0,0,1,172,44.53c-1.95.85-4.75,1-8.4.44a2.07,2.07,0,0,1-2-1.81l-.39-2.63c-.23-1.24.16-1.76,1.17-1.57a17,17,0,0,0,5.52.39,2.69,2.69,0,0,0,1-2.49v-6.2c0-.81-.51-.86-1.52-.14a98.86,98.86,0,0,1-14,8.15c-1,.49-1.66.2-2.05-.88l-1.12-3.37a1.47,1.47,0,0,1,1-2.05,131,131,0,0,0,16.16-8.25A2.69,2.69,0,0,0,168.85,22V13.28c0-.81-.39-1.22-1.17-1.22h-14.9a1.32,1.32,0,0,1-1.51-1.47V7.91a1.31,1.31,0,0,1,1.46-1.51h14.9a1.07,1.07,0,0,0,1.22-1.18V1.61A1.29,1.29,0,0,1,170.31.15h2.83c1,0,1.52.48,1.52,1.46V5.17q0,1.23,1.17,1.23h4.69c1,0,1.1-.35.19-1-.84-.52-.86-1.3-.05-2.34ZM157.18,14.79c1.27-.88,2.31-.84,3.12.1,1.24,1.56,2.41,3.18,3.52,4.84.62.94.42,1.84-.59,2.68l-2,1.61c-1,.85-1.87.82-2.49-.1-1.37-2.11-2.6-3.89-3.71-5.32a1.52,1.52,0,0,1,.24-2.49C155.88,15.62,156.53,15.18,157.18,14.79Z" style="fill:#01ffda"/><path d="M199.22,22.26q0-1.56,1.41-1.56h8.45a1.32,1.32,0,0,1,1.52,1.47V34.52a2.8,2.8,0,0,0,1.46,2.2,15.65,15.65,0,0,0,7.32,2q4.26.39,10.06.39h5.28a52.26,52.26,0,0,0,7.71-.73q1.51-.3.78,1.17a27.89,27.89,0,0,0-1.36,3.37,2,2,0,0,1-2,1.56H224.27a52.48,52.48,0,0,1-8-.83,15.62,15.62,0,0,1-6.64-3.17,1.6,1.6,0,0,0-2.35.24c-1,1-2,2.09-3,3.13s-1.63.91-2.25-.1l-1.71-2.54c-.78-1-.67-1.76.34-2.25s2.07-1,3.18-1.56a2,2,0,0,0,1.27-1.76V27.34c0-.81-.39-1.22-1.17-1.22h-3.28a1.29,1.29,0,0,1-1.46-1.46Zm2.64-12.4c1-1,1.93-1.17,2.88-.58a26.34,26.34,0,0,1,2.93,2.29,1.94,1.94,0,0,1,.39,2.83l-1.62,2c-.78,1-1.61,1-2.48.05a31.37,31.37,0,0,0-3-2.83q-1.52-1.17-.15-2.64Zm3.66-8.15c1-1,2-1.32,2.88-.83s1.95,1.23,2.93,2,1.19,1.69.44,2.64l-1.57,1.9a1.61,1.61,0,0,1-2.68.15c-.94-.82-1.91-1.58-2.88-2.3s-1-1.54.05-2.58Zm19.09.1A1.3,1.3,0,0,1,226.07.34H229a1.32,1.32,0,0,1,1.52,1.47V13.57c0,.82.39,1.22,1.17,1.22h9.67a1.32,1.32,0,0,1,1.51,1.47v2.49a1.31,1.31,0,0,1-1.46,1.51h-6.55c-.81,0-.87.51-.19,1.52a26.06,26.06,0,0,0,7.37,7,1.55,1.55,0,0,1,.78,2.29,28.67,28.67,0,0,0-1.51,3c-.55,1.08-1.29,1.29-2.2.64a35.36,35.36,0,0,1-7.62-8.21c-.65-.91-1-.86-1,.15v9.47A1.32,1.32,0,0,1,229,37.6h-2.88a1.32,1.32,0,0,1-1.51-1.47V27c0-1-.33-1.12-1-.24q-1.84,3.12-7.37,7.86c-1.17.81-2.07.7-2.69-.34l-.92-1.62a1.74,1.74,0,0,1,.44-2.58,36.37,36.37,0,0,0,7.66-8.65q.65-1.17-.54-1.17h-6.15a1.31,1.31,0,0,1-1.51-1.46V16.31c0-1,.49-1.52,1.46-1.52h9.38c.81,0,1.22-.39,1.22-1.17ZM216.5,4.54a2.34,2.34,0,0,1,3.37.44,22.19,22.19,0,0,1,2.44,3.81,1.72,1.72,0,0,1-.83,2.44l-1.95,1.12c-1.17.72-2,.56-2.49-.49a28.51,28.51,0,0,0-2.44-4A1.48,1.48,0,0,1,215,5.42ZM236,4.3c.61-1.08,1.38-1.34,2.29-.79L240.77,5a1.54,1.54,0,0,1,.59,2.34q-1.28,2-2.79,3.91-1.65,1.75-3.12.44L234,10.4q-1.65-1.56-.24-3A17.72,17.72,0,0,0,236,4.3Z" style="fill:#01ffda"/><path d="M250.39,2.93c0-1,.46-1.56,1.37-1.56h39.06c1,0,1.51.48,1.51,1.46V43.55c0,1-.48,1.52-1.46,1.52h-2.69c-1,0-1.51-.41-1.51-1.22s-.39-1.32-1.17-1.32H257.18A1.07,1.07,0,0,0,256,43.75q0,1.32-1.47,1.32H251.9a1.32,1.32,0,0,1-1.51-1.47ZM286.67,8c0-.85-.38-1.27-1.12-1.27H257.18c-.82,0-1.22.39-1.22,1.17v28c0,.81.39,1.22,1.17,1.22h28.32c.81,0,1.22-.39,1.22-1.17ZM268.11,9.62a1.3,1.3,0,0,1,1.47-1.47h2.73a1.32,1.32,0,0,1,1.52,1.47v3.22c0,.81.39,1.22,1.17,1.22h7.86a1.32,1.32,0,0,1,1.51,1.47v2.39c0,1-.48,1.51-1.46,1.51h-6.69q-1.17,0-.63,1.47a17.88,17.88,0,0,0,8.25,9,1.4,1.4,0,0,1,.73,2.15l-1.27,2.44c-.59,1.21-1.4,1.5-2.44.88a23.31,23.31,0,0,1-8.74-9.72c-.39-.81-.85-.71-1.37.3a29.83,29.83,0,0,1-9.18,9.37,1.5,1.5,0,0,1-2.39-.49l-1.12-2c-.69-1.08-.59-1.94.29-2.59A20.23,20.23,0,0,0,267,20.6c.23-.78-.05-1.17-.83-1.17H260.3A1.31,1.31,0,0,1,258.79,18v-2.4a1.32,1.32,0,0,1,1.46-1.51h6.64c.82,0,1.22-.39,1.22-1.17Z" style="fill:#01ffda"/><path d="M319,1.71c0-1,.46-1.56,1.37-1.56h2.93c1,0,1.51.48,1.51,1.46v3c0,.81.39,1.22,1.17,1.22h16.07a1.31,1.31,0,0,1,1.51,1.46V9.76c0,1-.49,1.52-1.46,1.52H326.07c-.81,0-1.22.39-1.22,1.17v3.47c0,.81.39,1.22,1.17,1.22h13c1,0,1.52.49,1.52,1.46.19,1.73,0,2.93-.59,3.62a41.38,41.38,0,0,1-9.47,11.13c-.78.65-.69,1.17.29,1.56a68.61,68.61,0,0,0,12.84,3.76c1.08.23,1.32.91.74,2l-1.47,2.88a1.89,1.89,0,0,1-2.25,1.13,62.54,62.54,0,0,1-15.67-6,2.85,2.85,0,0,0-2.93-.05,67.32,67.32,0,0,1-17.63,6.05,2,2,0,0,1-2.29-1.12,28.37,28.37,0,0,0-1.37-2.59c-.55-1.07-.26-1.71.88-1.9a83.72,83.72,0,0,0,14.65-4c1-.46,1.11-1.08.19-1.86A44.92,44.92,0,0,1,308,23.78a2.54,2.54,0,0,0-2.25-1.17q-1.56,0-1.56-1.47V18.65a1.31,1.31,0,0,1,1.46-1.51h12.16c.82,0,1.22-.39,1.22-1.17V12.5c0-.81-.39-1.22-1.17-1.22H302.25a1.32,1.32,0,0,1-1.52-1.47V7.37a1.32,1.32,0,0,1,1.47-1.51h15.62c.82,0,1.22-.39,1.22-1.17Zm13.19,22.17c.65-.85.6-1.27-.15-1.27h-17c-.82,0-.83.5,0,1.51a31.15,31.15,0,0,0,7.32,6.4,2.27,2.27,0,0,0,2.64-.05A31.6,31.6,0,0,0,332.23,23.88Z" style="fill:#01ffda"/><path d="M354.54,1.71c0-1,.46-1.56,1.37-1.56h2.68c1,0,1.52.48,1.52,1.46V6.4c0,.81.39,1.22,1.17,1.22h1.9c1,0,1.52.48,1.52,1.46v2.39A1.32,1.32,0,0,1,363.23,13h-1.9c-.82,0-1.22.39-1.22,1.17v5c0,.78.49,1,1.46.73,1.17-.39,1.84,0,2,1.12l.25,1.57a2.08,2.08,0,0,1-1.32,2.24,6.11,6.11,0,0,0-1.17.54,1.93,1.93,0,0,0-1.22,1.76V39.55a6.35,6.35,0,0,1-1.91,4.78,10,10,0,0,1-6.3.83,2,2,0,0,1-1.71-1.8,19,19,0,0,1-.43-2.35c-.23-1.17.17-1.64,1.22-1.41a4.57,4.57,0,0,0,3.07-.1,3.43,3.43,0,0,0,.49-1.71V29.44c0-.78-.49-1-1.46-.78a1.61,1.61,0,0,1-2.3-1.22A25.06,25.06,0,0,1,350,24.9c-.36-1-.05-1.66.93-1.85l2.29-.59c.91-.23,1.37-.68,1.37-1.37V14.21c0-.82-.39-1.22-1.17-1.22h-2.05a1.32,1.32,0,0,1-1.52-1.47V9.13a1.32,1.32,0,0,1,1.47-1.51h2.05a1.06,1.06,0,0,0,1.22-1.18ZM388.62.39a2.45,2.45,0,0,1,2.64,1.22,13.84,13.84,0,0,0,.93,1.66c.55,1,.29,1.58-.78,1.81l-.83.09c-.92.2-.82.49.29.88s1.5,1,1.17,1.86a42.11,42.11,0,0,1-2.25,4.25c-.55.88-.34,1.32.64,1.32S392,14,392,14.94V16.8a1.31,1.31,0,0,1-1.46,1.51H379.25c-.78,0-1.26.29-1.42.88s.2.93,1,.93h13.67c1,0,1.51.48,1.51,1.46v2c0,1-.48,1.52-1.46,1.52H377.25a1.69,1.69,0,0,0-1.66,1c-.33.78-.14,1.17.58,1.17h13.38a1.32,1.32,0,0,1,1.51,1.47,3.7,3.7,0,0,1-.58,3,24.23,24.23,0,0,1-3.71,4.68c-.78.78-.69,1.35.29,1.71a44.66,44.66,0,0,0,6,1.66c1,.2,1.28.78.83,1.76l-1,2.2a1.86,1.86,0,0,1-2.29,1.12,53.28,53.28,0,0,1-9.53-3.12,3.06,3.06,0,0,0-2.63.24,42.36,42.36,0,0,1-8.35,2.83,2.16,2.16,0,0,1-2.69-1.07l-.78-1.57c-.65-1.2-.44-1.9.64-2.09a47.42,47.42,0,0,0,6.1-1.57c.75-.26.59-.81-.49-1.66a3.91,3.91,0,0,1-.68-.63c-1.08-1-2-1.11-2.83-.2l-1.18,1.37q-1.76,1.75-3.12.49l-1.27-1.17a1.77,1.77,0,0,1,0-2.84,36.71,36.71,0,0,0,5.91-7.61c.45-.82.27-1.22-.54-1.22H366.8a1.32,1.32,0,0,1-1.52-1.47v-2a1.32,1.32,0,0,1,1.47-1.51h4.34a1.37,1.37,0,0,0,1.47-.88c.1-.62-.25-.93-1-.93h-3.17a1.32,1.32,0,0,1-1.51-1.47V15c0-1,.43-1.51,1.31-1.51s1.13-.51.54-1.52a12.22,12.22,0,0,0-1.07-1.41c-.78-.92-.65-1.73.39-2.45l.53-.34c.92-.58.88-.88-.09-.88h-.78a1.77,1.77,0,0,1-1.91-1.46,14.06,14.06,0,0,1-.63-2c-.33-1,0-1.52,1-1.52A198.4,198.4,0,0,0,388.62.39Zm-2.83,5.37-.39,0q-5.56.63-12.84.93c-.78,0-.8.49-.05,1.36l1.12,1.57c.62,1.07.49,1.89-.39,2.44l-.39.24c-1,.75-1,1.13-.1,1.13h13.48c1.76.06,1.64-.31-.34-1.13a1.42,1.42,0,0,1-.69-2.29A33.24,33.24,0,0,0,387,6.64C387.27,5.92,386.86,5.63,385.79,5.76Zm-3.22,27.83c1.1-1.1,1.27-1.66.49-1.66h-6.45c-.78,0-.72.41.2,1.22a22.24,22.24,0,0,0,2.24,1.57C379.83,35.76,381,35.38,382.57,33.59ZM377.25,8.1l1.41-.68a2.14,2.14,0,0,1,2.69.93l.68,1c.65,1.14.42,2-.68,2.45l-1.27.53c-1,.46-1.86.1-2.44-1.07a6.07,6.07,0,0,0-.64-1C376.22,9.28,376.3,8.56,377.25,8.1Z" style="fill:#01ffda"/></svg>