<?xml version="1.0" encoding="UTF-8"?>
<svg width="191px" height="11px" viewBox="0 0 191 11" version="1.1" xmlns="http://www.w3.org/2000/svg" xmlns:xlink="http://www.w3.org/1999/xlink">
    <title>img-slider-content-divider</title>
    <g id="Page-1" stroke="none" stroke-width="1" fill="none" fill-rule="evenodd">
        <path d="M1,5.35175726 C4.22,-0.225242736 12.264,-0.240242736 15.505,5.32375726 L15.538,5.38075726 C18.78,10.9447573 26.823,10.9287573 30.043,5.35175726 C33.263,-0.225242736 41.307,-0.240242736 44.548,5.32375726 L44.581,5.38075726 C47.823,10.9447573 55.866,10.9287573 59.086,5.35175726 C62.306,-0.225242736 70.35,-0.240242736 73.591,5.32375726 L73.624,5.38075726 C76.866,10.9447573 84.909,10.9287573 88.129,5.35175726 C91.349,-0.225242736 99.393,-0.240242736 102.634,5.32375726 L102.667,5.38075726 C105.909,10.9447573 113.952,10.9287573 117.172,5.35175726 C120.392,-0.225242736 128.436,-0.240242736 131.677,5.32375726 L131.71,5.38075726 C134.952,10.9447573 142.995,10.9287573 146.215,5.35175726 C149.435,-0.225242736 157.479,-0.240242736 160.72,5.32375726 L160.753,5.38075726 C163.995,10.9447573 172.039,10.9287573 175.258,5.35175726 L175.35,5.19275726 C178.557,-0.361242736 186.562,-0.407242736 189.826,5.11375726" id="Stroke-1" stroke="#25EDF1" stroke-width="2.008"></path>
    </g>
</svg>