<?xml version="1.0" encoding="UTF-8"?>
<svg width="216px" height="140px" viewBox="0 0 216 140" version="1.1" xmlns="http://www.w3.org/2000/svg" xmlns:xlink="http://www.w3.org/1999/xlink">
    <title>img-sign-12</title>
    <g id="img-sign-12" stroke="none" stroke-width="1" fill="none" fill-rule="evenodd">
        <g id="Group-13" transform="translate(5.576522, 28.752503)" fill="#56D250">
            <path d="M55.3977415,72.8707607 C53.8774688,72.8707607 53.8278324,68.9405788 53.7877415,65.7816697 C53.7521051,62.9931243 53.5045597,55.3624879 48.9520142,59.5446697 C48.2615597,60.1784879 43.4990142,65.4692152 42.6386506,62.9791243 C42.4509233,62.4363061 42.7086506,61.8489425 42.9784688,61.3417607 C44.2970142,58.8593061 45.9375597,56.4691243 47.8962869,54.447397 C49.6418324,52.6445788 51.8996506,51.682397 53.0342869,49.3297607 C54.1447415,47.0280334 54.653196,43.6444879 54.0849233,41.1397607 C53.5242869,38.6700334 51.3110142,38.1017607 49.2129233,39.3884879 C43.6154688,42.8223061 37.9193778,46.2344879 31.8707415,48.8225788 C26.9007415,50.9486697 26.0181051,54.2291243 26.086196,59.3881243 C26.1129233,61.4232152 26.1402869,63.5276697 25.4905597,65.2598516 C24.8529233,66.1507607 24.1376506,66.6394879 23.4713778,66.6394879 C22.467196,66.6394879 21.6914688,65.4571243 21.6157415,63.8197607 C22.2107415,59.1800334 22.0013778,56.5690334 20.9373778,55.3580334 C20.500196,54.8610334 19.9077415,54.5975788 19.2249233,54.5975788 C13.9991051,54.5956697 11.589196,62.1862152 6.09101421,61.4149425 C5.8619233,61.3831243 5.63346876,61.2991243 5.45210512,61.1559425 C2.3918324,58.7466697 10.3279233,53.5520334 11.8322869,52.7584879 C14.5896506,51.3031243 19.8231051,51.5023061 19.8345597,47.7751243 C19.835196,47.5428516 18.6973778,35.1891243 18.6973778,35.1891243 C18.6973778,35.1891243 14.5521051,35.4042152 12.7982869,36.5191243 C10.1860142,38.1800334 6.93419603,40.2463061 3.03519603,40.2469425 C2.02719603,40.2469425 1.01155967,40.1037607 0.0118323953,39.8218516 C-0.247803968,36.828397 3.79246876,35.6053061 9.4669233,34.2307607 C12.5214688,33.4913061 17.2700142,31.4746697 17.2700142,31.4746697 L18.7998324,30.6951243 C18.7998324,30.6951243 19.6710142,24.0470334 19.5501051,20.2072152 C19.4635597,17.4606697 18.9595597,10.8183061 22.4633778,9.62194247 C24.6270142,8.88376066 25.3696506,11.9370334 24.1847415,13.2536697 C22.040196,15.6374879 22.6453778,23.8682152 22.9196506,27.3987607 C22.992196,28.3405788 28.7589233,25.9300334 30.6508324,24.2404879 C32.5077415,22.5795788 34.4295597,20.8620334 36.1922869,20.8620334 C36.3055597,20.8620334 36.5696506,21.4258516 36.8216506,21.9559425 C37.1818324,22.7144879 37.1360142,23.6162152 36.6581051,24.3066697 C33.7766506,28.4659425 23.5375597,32.9605788 23.5375597,32.9605788 C23.5375597,32.9605788 25.0024688,47.363397 25.1851051,47.3799425 C28.6221051,47.6968516 47.9370142,37.6155788 53.5109233,32.3719425 L53.6782869,32.2141243 L53.7272869,31.9882152 C54.1192869,30.1771243 53.9875597,28.2082152 53.8475597,26.1222152 C53.7304688,24.3601243 52.9821051,15.7730334 56.9549233,17.263397 C60.4014688,18.5558516 56.6876506,23.0224879 57.4213778,25.6443061 C57.8655597,27.2333061 58.8506506,28.1821243 60.0559233,28.1821243 C60.4708324,28.1821243 60.897196,28.0675788 61.3229233,27.8410334 C62.4321051,27.1601243 70.0194688,22.8602152 70.6679233,25.0162152 C70.8333778,25.5673061 70.5667415,26.146397 70.3077415,26.6605788 C69.2348324,28.7841243 67.5732869,29.324397 65.4306506,30.1141243 C63.1282869,30.9630334 60.7463778,31.8399425 59.4392869,34.0430334 C57.9330142,36.9111243 57.5174688,38.6121243 58.0310142,39.7645788 C58.4936506,40.8031243 59.5481051,41.0716697 60.4791051,41.3077607 C61.7715597,41.6367607 62.479196,41.8817607 62.5161051,43.2066697 C62.2647415,43.4930334 61.9834688,43.7984879 61.6888324,44.1185788 C59.8077415,46.1638516 57.4678324,48.7099425 57.649196,51.3833061 C57.7325597,52.6108516 58.3479233,53.7162152 59.4787415,54.6682152 C60.5497415,55.8493061 63.8537415,57.0940334 67.6706506,58.5328516 C70.6596506,59.6585788 76.2252869,61.7560334 76.416196,62.756397 C76.4009233,62.756397 76.0089233,63.4245788 72.0335597,63.9858516 C68.1332869,63.6237607 65.3377415,62.7169425 63.2931051,62.0538516 C61.9249233,61.6096697 60.9366506,61.2889425 60.1144688,61.2889425 C59.4749233,61.2889425 58.9562869,61.4938516 58.5712869,61.8966697 C57.5671051,62.9517607 57.4869233,65.1809425 57.7917415,71.7043061 C56.536196,72.661397 55.801196,72.8707607 55.3977415,72.8707607" id="Fill-294"></path>
            <path d="M180.174969,34.2989152 C177.073969,33.5480061 176.842969,38.9418243 177.521969,39.0939152 C178.201605,39.2460061 178.91306,39.1340061 179.584423,38.9475516 C180.967878,38.5638243 182.308696,37.8224607 183.106696,36.6280061 C183.214878,36.465097 183.316696,36.2805516 183.297605,36.0858243 C183.281696,35.9159152 183.176696,35.7689152 183.066605,35.6384607 C182.324605,34.757097 181.235787,34.5560061 180.174969,34.2989152 M173.20806,82.1152788 C170.637787,82.6460061 171.746969,74.0417334 171.918151,72.8962788 C172.358514,69.9454607 172.814151,66.8953697 172.064514,63.8548243 L172.025696,63.6970061 L171.924514,63.5703697 C171.412878,62.9289152 170.798151,62.6037334 170.096241,62.6037334 C168.412423,62.6037334 166.784605,64.4988243 164.899696,66.6936425 C163.207605,68.665097 161.289605,70.9000061 159.807514,70.9000061 C159.333423,70.9000061 158.891151,70.6511879 158.455878,70.1408243 C157.038696,67.7143697 159.032423,66.1215516 162.473878,63.7962788 C164.092151,62.7023697 165.763878,61.5721879 166.671332,60.2409152 C169.155696,58.1428243 176.350423,48.1869152 171.059696,45.5771879 C170.118514,45.1132788 168.989605,45.1629152 167.991151,45.4836425 C166.009514,46.1206425 164.340969,47.5683697 162.467514,48.4510061 C160.990514,49.1459152 160.366241,49.6206425 160.88806,51.2497334 C161.710241,53.8168243 160.275241,58.655097 156.484423,59.2163697 C152.778241,59.7655516 149.483787,56.6085516 149.483787,56.6085516 C149.483787,56.6085516 149.751696,63.2114607 149.332332,65.1536425 C148.754514,67.825097 148.312241,69.3517334 146.023878,69.4382788 C145.063605,69.2384607 144.992969,68.2431879 145.070605,66.2157334 C145.141241,64.3696425 146.160696,57.0667334 143.718332,57.0202788 C142.098787,56.989097 139.518969,62.7030061 137.865696,62.7030061 C136.169151,62.7030061 135.10006,62.0857334 134.85506,60.9644607 C134.471332,59.2093697 134.567423,58.3948243 137.567878,56.8573697 C138.265332,56.4997334 138.879423,55.9970061 139.404423,55.4147334 C140.920878,53.7321879 142.294787,52.9411879 142.273151,52.3239152 C142.247696,51.6194607 141.663514,50.9067334 140.596332,50.9067334 C140.389514,50.9067334 140.171878,50.9347334 139.949787,50.9913697 C139.891241,50.9894607 139.830787,50.9888243 139.770969,50.9888243 C138.358241,50.9888243 136.746969,51.5876425 135.189151,52.1673697 C133.817787,52.677097 132.399332,53.2052788 131.359514,53.2052788 C130.835787,53.2052788 130.464787,53.076097 130.192423,52.7992788 C129.713878,52.3124607 129.47206,51.3254607 129.473327,49.8637334 C129.474605,48.5706425 133.048423,48.5706425 133.750332,48.5070061 C136.029151,48.2989152 138.757241,47.8280061 140.812696,46.7735516 C142.737696,45.7852788 143.398878,43.7120061 143.965241,41.7660061 C144.690696,39.272097 145.245605,37.7429152 147.422605,37.7429152 L147.571514,37.7454607 L147.703241,37.7416425 C147.847696,37.7416425 148.149969,37.7416425 148.170969,38.474097 C148.368241,41.029097 149.218423,42.3069152 150.702423,42.3069152 C152.003787,42.3069152 153.454696,41.2416425 154.990878,40.1133697 C156.143969,39.2663697 157.443423,38.3111879 158.27006,38.2157334 C159.118969,38.8565516 159.472151,39.5597334 159.34806,40.3583697 C159.043878,42.324097 156.16306,44.3509152 154.232332,44.9376425 C152.10306,45.7445516 151.602878,48.4503697 152.031151,50.7820061 C152.262151,52.0432788 153.042969,54.4003697 154.771969,53.9078243 C157.480969,53.1359152 155.185605,49.8656425 156.383241,48.2976425 C157.704969,46.5673697 160.591514,46.5718243 162.324969,45.4161879 C166.493151,43.8908243 171.053332,42.380097 172.635969,37.9745516 C173.589241,35.3215516 174.152423,31.054097 177.787969,31.054097 C178.972241,31.054097 180.493151,31.4397334 182.310605,32.2008243 C182.736332,32.5603697 183.248605,32.7430061 183.83406,32.7430061 C185.105514,32.7430061 186.150423,31.6949152 187.422514,32.2192788 C189.168696,32.9390061 189.409878,35.7345516 188.547605,37.186097 C187.398332,39.1193697 184.616787,40.0643697 182.680332,40.9107334 C179.445696,42.3247334 176.09906,43.7864607 176.167151,46.853097 L176.170969,46.9924607 L176.224423,47.1222788 C176.810514,48.5241879 177.749151,48.8188243 178.433878,48.8188243 C179.32606,48.8188243 182.428969,46.8715516 182.600787,49.0797334 C182.640241,49.555097 181.613787,50.3193697 180.788423,50.9334607 C178.729787,52.4658243 176.317332,55.1226425 179.882241,56.5786425 C184.127423,58.3127334 188.585787,59.4441879 193.063878,60.3917334 C195.167696,60.8371879 197.301423,61.1572788 199.335878,61.8203697 C202.443241,62.8328243 205.259151,63.3839152 206.444696,66.8043697 C206.515969,67.0111879 206.579605,67.2288243 206.54906,67.4458243 C206.496241,67.825097 206.157696,68.1140061 205.791787,68.2266425 C202.415878,69.2677334 197.677514,67.0920061 194.387514,66.3996425 C188.996878,65.2650061 183.61706,64.0775516 178.237878,62.8869152 C177.144605,64.0228243 177.126151,67.1995516 176.895787,68.721097 C176.312241,72.5800061 176.679423,76.4433697 175.127969,80.1387334 C174.887423,80.7114607 174.592151,81.2905516 174.096423,81.664097 C173.760423,81.9173697 173.465787,82.0618243 173.20806,82.1152788" id="Fill-296"></path>
            <path d="M87.1837869,65.8315607 C86.8089688,65.8315607 86.3304233,65.776197 86.1713324,65.5108334 C85.5095142,64.4048334 87.6699688,60.3817425 89.0998778,57.7198334 C91.3799688,53.4759243 92.7188778,50.8006516 91.5727869,49.3662879 L91.5053324,49.2816516 L91.420696,49.2167425 C91.1566051,49.018197 90.8804233,48.8177425 90.5997869,48.6153788 C86.4271506,45.6117425 87.5840597,42.1645607 90.4661506,41.9672879 C92.6775142,41.8158334 96.4206051,44.6342879 96.4206051,44.6342879 L97.2720597,43.7421061 C104.451514,36.2164697 104.609332,34.5511061 104.193787,33.5806516 C104.054423,33.2529243 103.667514,32.7056516 102.648696,32.7050152 C97.1346051,32.7037425 93.5843324,37.7450152 88.4959688,39.0425607 C84.8273324,39.9780152 80.0972415,37.9925607 84.5562415,34.9806516 C86.8929688,33.4024697 90.1963324,32.9754697 92.3332415,31.1917425 C94.4854233,29.3940152 93.9063324,27.4009243 94.6279688,25.0126516 C95.697696,21.4725607 94.0565142,18.4371061 92.6100597,15.7592879 C90.9122415,12.6188334 90.097696,10.847197 92.1105142,9.08510611 C94.8207869,9.24419702 97.5374233,11.5408334 99.1060597,15.0268334 C100.812151,18.820197 100.616787,22.7351061 98.6077869,25.001197 C97.3738778,26.2866516 97.216696,27.8438334 98.2399688,28.8499243 L98.5454233,29.1502879 L98.9692415,29.0879243 C99.9237869,28.949197 101.265878,28.4324697 102.820514,27.8336516 C105.001969,26.9949243 107.716696,25.9500152 109.578696,25.9500152 C110.377332,25.9500152 110.919514,26.135197 111.233878,26.5163788 C111.700332,27.0795607 111.788787,28.2027425 111.490969,29.7631061 C111.152423,31.8650152 109.25606,34.3150152 107.42206,36.6835607 C104.198241,40.8498334 100.543605,45.5716516 104.994332,49.3204697 C107.780332,51.412197 111.386605,52.8949243 114.873878,54.3292879 C117.626787,55.4613788 120.42806,56.5769243 122.967787,58.1468334 C124.498878,59.0937425 126.334787,60.428197 127.359969,61.9491061 C129.078787,64.5015607 126.407332,64.9578334 124.150787,64.9578334 C120.22506,64.9578334 116.78806,62.9851061 113.438878,61.1835607 C108.222605,58.3791061 102.924241,55.2418334 97.4922415,52.9197425 C96.2596051,54.7340152 95.0727869,56.5832879 93.9254233,58.4522879 C92.1168778,61.3986516 91.3729688,65.8315607 87.1837869,65.8315607" id="Fill-298"></path>
            <path d="M149.621114,33.2732879 C148.994296,33.3483788 147.449205,32.5363788 146.952841,32.1634697 C145.699205,31.2216516 146.540478,27.1438334 146.612387,25.7145607 C146.691296,24.161197 146.778478,22.6084697 146.875841,21.0563788 C146.875841,21.0563788 145.228296,27.0961061 139.947751,29.8229243 C138.517205,30.5611061 137.334841,29.523197 137.04466,28.956197 C136.346569,27.5886516 139.600296,27.6452879 142.757932,21.7430152 C144.177023,19.0887425 145.207296,14.2810152 145.777478,12.4088334 C145.777478,12.4088334 143.390478,12.9726516 142.262841,12.9726516 C140.842478,12.9732879 139.038387,14.3357425 137.721751,13.9545607 C136.090751,13.4823788 137.853478,11.8443788 138.512114,11.3098334 C139.205751,10.7466516 148.074114,7.62719702 148.111023,7.74174247 C148.111023,7.74174247 144.954023,-2.1409848 151.656841,0.425469747 C151.686751,0.460469747 151.71666,0.495469747 151.745932,0.530469747 C152.235932,1.10574247 152.466932,1.40928793 152.359387,2.02210611 C152.092114,3.34319702 152.209205,4.2990152 152.720205,4.92392429 C153.131296,5.4260152 153.768932,5.67992429 154.617205,5.67992429 C156.344932,5.68056066 160.817296,3.5850152 160.581205,6.56192429 C159.627932,7.64756066 158.39466,8.10319702 157.200205,8.54356066 C155.917296,9.01765156 154.496932,9.39374247 154.177478,10.6683788 C153.052387,15.1541061 152.915569,19.9586516 162.660841,25.3117425 C164.012478,26.0543788 165.12166,28.2593788 161.013932,28.8811061 C160.233114,28.7411061 159.50066,28.6698334 158.834387,28.6698334 C154.776932,28.6698334 153.127478,23.1264697 152.091478,25.1749243 C151.194841,26.9503788 153.052387,32.8615607 149.621114,33.2732879" id="Fill-300"></path>
        </g>
    </g>
</svg>