<?xml version="1.0" encoding="UTF-8"?>
<svg width="216px" height="140px" viewBox="0 0 216 140" version="1.1" xmlns="http://www.w3.org/2000/svg" xmlns:xlink="http://www.w3.org/1999/xlink">
    <title>img-sign-7</title>
    <g id="img-sign-7" stroke="none" stroke-width="1" fill="none" fill-rule="evenodd">
        <g id="Group-8" transform="translate(13.065874, 23.684670)" fill="#56D250">
            <path d="M13.8337892,39.3430115 C13.7332438,38.5469206 13.2998801,37.8698297 12.8003347,38.204557 C11.4315165,39.1202842 10.1753347,40.313466 9.68533468,41.9158297 C9.43015286,42.7507388 10.5017892,43.3018297 11.1585165,43.076557 C12.9320619,42.467557 12.8868801,40.458557 13.8337892,39.3430115 M36.6957892,42.0831933 C33.8531529,41.7001024 31.6704256,42.6896479 29.4272438,43.3622842 C27.353971,43.9833751 16.8533347,46.1451024 15.4520619,46.723557 C12.2632438,48.0408297 10.4298801,50.505466 8.85106195,53.375466 C7.45106195,55.9209206 5.79651649,58.3257388 4.35451649,60.8501933 C3.5266074,62.2991933 2.1616074,62.5002842 1.10397104,61.8257388 C0.131607404,61.2046479 0.647698313,59.9370115 1.10206195,58.854557 C1.99424377,56.7297388 3.68697104,55.1636479 4.77642559,53.1902842 C5.06406195,52.6691024 5.97597104,52.2821933 5.40578922,51.5891933 C4.95397104,51.0406479 4.15024377,51.3709206 3.59278922,51.6031933 C2.89533468,51.8933751 2.24306195,52.3871933 1.6086074,51.6451933 C0.978607404,50.909557 -0.362210778,50.398557 0.0921528584,49.2276479 C0.477789222,48.2336479 1.52015286,47.5858297 2.70569831,47.6341933 C4.2476074,47.6978297 5.58906195,47.3681933 6.69569831,46.1126479 C5.45033468,45.8199206 4.25588013,45.696466 3.1976074,45.2503751 C1.83324377,44.674466 1.33178922,43.4049206 1.72506195,42.026557 C2.01651649,41.004557 2.53706195,40.4356479 4.06051649,40.6042842 C7.27224377,40.9587388 8.57233468,38.057557 10.147971,35.9123751 C11.4983347,34.0739206 15.2961529,26.0162842 17.4483347,26.3147388 C19.0112438,26.5311024 19.142971,27.5766479 19.0895165,28.880557 C19.0246074,30.4581024 18.1362438,31.6328297 17.2860619,32.779557 C16.7006074,33.5699206 16.4956983,34.3691933 16.9691529,35.0602842 C18.5447892,37.3569206 17.8212438,39.5542842 16.7572438,42.0291024 C18.8896983,41.4767388 34.3717892,38.071557 35.732971,38.0492842 C35.7870619,36.7281933 34.2292438,35.7978297 33.7341529,34.6288297 C33.6380619,34.4029206 33.5546983,34.153466 33.6151529,33.9161024 C33.6660619,33.7156479 33.8117892,33.5552842 33.9524256,33.4038297 C34.8452438,32.4429206 34.9527892,32.1731024 36.1733347,32.1731024 C39.4480619,33.2937388 41.8624256,31.0518297 44.4053347,29.5958297 C45.567971,28.929557 45.0175165,28.2480115 43.9897892,28.0049206 C42.7087892,27.7026479 41.4233347,27.7051933 40.1926074,28.3116479 C39.4327892,28.686466 38.3796074,28.9613751 38.0926074,28.0558297 C37.7521529,26.9803751 38.420971,25.5301024 39.4518801,25.422557 C41.7173347,25.1858297 44.0973347,24.7422842 46.3112438,25.548557 C47.2721529,25.898557 49.0692438,26.1893751 48.9578801,27.1751024 C48.7618801,28.9060115 47.9651529,30.6763751 46.4760619,31.8708297 C45.5584256,32.606466 44.6083347,33.3516479 43.5608801,33.8658297 C41.1955165,35.0278297 42.599971,35.8761024 43.8567892,36.2541024 C45.1167892,36.6333751 45.7442438,37.1068297 45.847971,38.4508297 C45.9586983,39.8928297 47.4961529,40.2886479 48.3915165,40.6882842 C50.3171529,41.5467388 51.6038801,43.1223751 53.2157892,44.2932842 C54.6024256,45.3006479 55.0606074,46.9386479 53.4996074,48.4652842 C52.4445165,49.4968297 49.4968801,49.649557 48.8076983,48.4118297 C48.0147892,46.9876479 41.9877892,41.7732842 40.8811529,41.9921933 C39.6631529,42.2340115 40.2136074,43.230557 40.1996074,43.979557 C40.1525165,46.4581933 38.1441529,46.9882842 36.390971,47.4038297 C34.4424256,47.8658297 33.6584256,48.676557 33.3364256,50.7752842 C32.5263347,56.0571024 31.8874256,61.3153751 31.6036074,66.6671933 C31.4820619,68.9542842 31.6844256,71.5621024 30.2920619,73.8740115 C29.5214256,75.1543751 28.6616983,75.5069206 27.5168801,75.4140115 C26.1168801,75.3013751 26.219971,74.1361933 26.2861529,73.0842842 C26.6571529,67.2233751 27.3724256,61.4057388 28.4313347,55.629466 C28.4962438,55.2737388 28.452971,54.8970115 28.452971,54.5298297 C28.4510619,50.4991024 28.4784256,50.5996479 24.5476074,51.6891024 C22.6353347,52.2191933 20.6015165,52.3502842 18.6116074,52.5526479 C17.0665165,52.7091933 16.4683347,51.4453751 16.2806074,50.3221933 C16.0190619,48.7611933 17.5380619,49.2499206 18.260971,49.1818297 C23.6376074,48.6740115 28.4306983,46.2182842 33.5044256,44.714557 C34.7071529,44.357557 35.7736983,43.6518297 36.6957892,42.0831933" id="Fill-38"></path>
            <path d="M153.48048,51.428957 C153.920844,50.1613206 153.888389,49.2016842 152.382753,49.7814115 C150.157389,50.637957 147.675571,52.4675024 146.638298,52.5483206 C146.06048,52.592866 145.165753,52.7042297 145.19948,51.7274115 C145.224298,51.0356842 144.836753,50.3433206 145.987298,49.7285933 C149.576389,47.8125024 151.935389,46.6867751 155.74848,45.0665933 C157.116662,44.4855933 158.644571,41.2585933 158.575207,39.5200479 C158.508389,37.8540479 159.046753,36.3185024 160.433389,35.4396842 C162.074571,34.3992297 163.309753,36.0353206 164.523935,36.6952297 C166.125662,37.5670479 164.660116,38.2931388 163.946753,38.8461388 C163.316753,39.334866 162.009662,39.7071388 162.665753,40.573866 C163.419207,41.5685024 164.453298,40.790866 165.264662,40.048866 C167.259026,38.2250479 167.878207,35.589866 169.231753,33.389957 C169.778389,32.5015933 169.183389,31.8092297 168.030935,31.940957 C167.041389,32.0535933 149.13348,36.3967751 145.709844,38.7296842 C144.752753,39.381957 144.529389,41.0524115 143.842753,42.1781388 C143.222935,43.1931388 142.351116,44.605866 141.096207,43.8816842 C140.176662,43.3515933 139.734389,42.0597751 140.648844,40.5445933 C141.957844,38.3733206 144.143116,32.1935933 143.439935,31.5693206 C142.804844,31.004866 141.915844,30.4855933 142.866571,29.322957 C143.655662,28.3582297 144.588571,28.0082297 145.674844,28.1520479 C146.689207,28.2863206 147.25748,29.1142297 147.388571,30.094866 C147.540026,31.226957 147.548298,32.3781388 147.626571,33.6432297 C151.637571,32.278866 155.502207,30.7770479 159.476298,29.6634115 C163.496207,28.5370479 167.612207,27.7390479 171.710389,26.9181388 C172.993935,26.6604115 174.432116,26.9633206 175.05448,28.2385933 C175.573753,29.3025933 175.480844,30.3850479 174.271116,31.3841388 C172.514753,32.8344115 172.960207,35.5287751 171.466662,37.2857751 C171.048571,37.7776842 171.840207,38.347866 172.495026,38.6304115 C173.562207,39.0905024 174.491298,39.7835024 174.178844,41.126866 C173.868298,42.4613206 172.647116,41.7345933 171.85548,42.0044115 C168.64948,43.0964115 164.943935,43.5915024 162.435389,45.5820479 C160.446116,47.1615024 159.163844,50.133957 157.961753,52.7545024 C155.413753,58.309957 141.973116,75.9652297 140.49548,76.4870479 C139.380571,76.880957 139.168026,75.2346842 138.443207,74.6186842 C137.606389,73.9072297 138.037844,73.4325024 138.599753,72.8114115 C141.428389,69.6855933 144.299662,66.3084115 146.820298,62.8255933 C148.581753,60.3902297 150.095026,57.7900479 151.589207,55.1854115 C151.761662,54.8850479 152.956116,52.9390479 153.48048,51.428957" id="Fill-40"></path>
            <path d="M87.7731983,48.3760024 C84.4373801,48.0298206 84.2121074,51.007366 83.1913801,53.0290933 C83.0755619,53.2575479 83.2505619,53.875457 83.4580165,53.9791842 C84.0555619,54.2776388 84.7345619,54.1930024 85.296471,53.805457 C87.9507438,51.973366 90.6005619,50.1355479 93.2293801,48.2671842 C94.0999256,47.6486388 94.8941074,46.5712751 95.9657438,47.8700933 C96.839471,48.9296388 96.2253801,49.4960024 95.4362892,50.5199115 C92.2913801,54.6009115 87.7108347,56.2840933 83.4427438,58.621457 C79.8867438,60.5680933 76.5521983,63.0066388 73.5727438,65.805366 C72.3560165,66.9482751 67.6851074,68.024366 66.3799256,66.7510024 C65.500471,65.8919115 66.3487438,63.3350024 67.3847438,62.900366 C72.3089256,60.8372751 72.2650165,60.7609115 68.8318347,56.6760933 C68.3087438,56.0537297 67.8588347,55.3696388 67.5107438,54.6352751 C66.9882892,53.5311842 66.0585619,52.2151842 68.0147438,51.5641842 C69.5388347,51.0570024 70.8930165,51.3885479 71.3868347,53.1118206 C71.5853801,53.8060933 75.034471,59.6122751 75.034471,59.6122751 L76.5311983,58.5260024 C78.3308347,57.2195479 79.3859256,55.1220933 79.3623801,52.8980024 L79.1593801,33.9878206 C79.1593801,33.9878206 73.6923801,34.7088206 72.6557438,35.2465479 C71.5802892,35.8052751 70.7065619,35.7079115 70.4411983,34.6337297 C70.1713801,33.5430024 70.0313801,32.1270933 71.6432892,31.701366 C75.6256529,30.649457 79.5411983,29.4219115 83.3950165,27.947457 C84.5761074,27.4950024 85.7171074,28.4221842 86.0028347,29.795457 C86.2796529,31.1260933 85.5351074,32.1468206 84.344471,32.3300933 C82.1731983,32.6648206 82.1789256,33.4787297 82.4245619,35.5481842 C82.7255619,38.0770933 82.9921983,46.1799115 82.9921983,46.1799115 C82.9921983,46.1799115 83.4879256,45.5830024 85.3053801,44.602366 C86.787471,43.802457 88.0035619,43.8075479 89.9629256,44.882366 C91.3279256,45.631366 89.6262892,48.5681842 87.7731983,48.3760024" id="Fill-42"></path>
            <path d="M195.22428,78.2423933 C193.448826,78.3855751 192.351735,78.2493933 191.995371,76.113757 C191.807007,74.986757 184.756735,69.0463024 182.706371,66.903666 C180.150735,64.2315751 178.658462,63.6149388 175.829826,66.0210297 C172.088007,69.2028479 167.74228,71.4784842 162.70228,70.9732115 C159.855189,70.6881206 158.801371,68.5181206 159.549735,65.690757 C160.268189,62.976666 161.934189,60.776757 163.122916,58.3305751 C163.649189,57.2468479 163.44428,56.116666 164.038644,55.0463024 C164.741189,53.7818479 165.497826,53.4343933 166.655371,53.965757 C167.872735,54.5244842 167.79828,55.5445751 167.167644,56.529666 C166.537007,57.5153933 165.850371,59.3054842 165.258553,61.0771206 C164.574462,63.1249388 162.327462,66.8292115 164.486007,66.7655751 C169.437553,66.6198479 173.904189,62.150666 175.587371,61.4729388 C176.893189,60.946666 176.389826,59.581666 176.407007,58.5373933 C176.447735,56.0479388 177.776462,55.0533024 179.962371,56.0943933 C181.006007,56.5920297 182.09928,57.2964842 182.774462,58.2020297 C185.775553,62.2308479 189.207462,65.7435751 193.308826,68.7013933 C195.232553,70.088666 196.536462,72.2898479 198.717916,73.5084842 C199.699189,74.0570297 199.446553,75.1929388 199.227007,76.0539388 C198.945735,77.1580297 198.172553,77.9942115 196.994007,78.220757 C196.367189,78.341666 195.698371,78.2423933 195.22428,78.2423933" id="Fill-44"></path>
            <path d="M109.975798,38.900866 C109.564707,40.9385024 109.178435,43.0951388 108.688435,45.2275933 C107.689344,49.5745933 108.077526,51.5377751 112.042707,53.3087751 C117.754071,55.8605933 122.201616,60.2795024 127.724616,63.0655024 C129.389344,63.904866 131.539616,65.064957 129.883798,67.9674115 C128.693162,70.055957 127.488526,70.1781388 125.776071,69.0320479 C119.501526,64.8314115 113.212344,60.6511388 107.017344,56.3346842 C105.548616,55.3107751 104.845435,55.4157751 103.661162,56.7591388 C102.194344,58.421957 100.802616,60.0733206 99.7933438,62.054957 C99.1124347,63.391957 97.8982529,63.6694115 96.495071,63.5185933 C95.8847983,63.4530479 95.3992529,63.3830479 95.4024191,62.6181388 C95.4068892,61.3473206 95.3432529,60.313866 96.7865256,59.3784115 C98.2743438,58.4143206 99.4713438,56.7565933 100.345071,55.1561388 C101.349253,53.3151388 102.118616,51.2202297 99.3542529,49.8316842 C97.9937074,49.1482297 97.7697074,47.7081388 98.4175256,46.4761388 C99.0424347,45.2874115 100.134435,45.6526842 101.305344,46.0332297 C103.626798,46.787957 105.231707,44.981957 105.46398,41.4641388 C105.55498,40.0832297 105.577253,38.7366842 106.552798,37.6135024 C107.198707,36.868957 108.074344,36.301957 108.946798,36.4756842 C110.071889,36.7003206 109.914707,37.8725024 109.975798,38.900866" id="Fill-46"></path>
            <path d="M28.0563256,18.1937842 C26.1943256,17.6624206 25.2849619,17.9424206 25.5967801,19.9036933 C25.769871,20.996966 25.6387801,22.1354206 25.734871,23.2458751 C25.8341438,24.3957842 25.2747801,24.9532388 24.2470529,25.2166933 C22.9176892,25.5571479 22.6185983,24.4167842 22.3952347,23.6716024 C20.8845074,18.6424206 20.9265074,18.6697842 15.6669619,19.4327842 C14.3115074,19.6294206 12.8835074,19.6726933 11.5395074,19.462057 C10.7586892,19.3392388 9.76278013,19.0006933 9.50823468,17.8921479 C9.25496195,16.7912388 9.96578013,16.1975115 10.586871,15.5197842 C11.3205983,14.7192388 11.8551438,14.7816024 12.8803256,15.3575115 C14.443871,16.236966 16.2937801,15.9996024 17.7835074,14.8891479 C19.2496892,13.7965115 18.4924165,12.127966 18.4077801,10.7521479 C18.3555983,9.90514786 17.8541438,9.05242059 17.8681438,8.10423877 C17.8821438,7.13632968 17.7650529,6.21742059 19.1892347,6.22505695 C20.2277801,6.23014786 21.5940529,6.05832968 21.6462347,7.35269332 C21.7213256,9.20260241 23.0131438,13.743057 23.0131438,13.743057 L32.1971438,12.021057 C32.1971438,12.021057 34.9837801,3.87369332 35.7054165,1.57132968 C36.2959619,-0.312943046 37.5775983,-0.150033955 38.7160529,0.270602409 C39.8545074,0.690602409 39.9073256,1.95887514 39.209871,2.86632968 C37.872871,4.60742059 36.0255074,10.5606024 36.0255074,10.5606024 C36.0255074,10.5606024 37.1569619,10.4982388 37.739871,10.1584206 C38.8051438,9.53732968 39.9582347,9.02632968 41.1304165,8.63942059 C42.3153256,8.24869332 43.3850529,8.55796605 43.8095074,9.87523877 C44.1887801,11.0506024 43.5460529,11.8288751 42.5533256,12.3513297 C40.1351438,13.6234206 37.5604165,14.5226024 34.9169619,15.1341479 C32.3186892,15.7348751 30.585871,17.1316933 30.2409619,19.7821479 C30.0271438,21.4195115 28.6837801,21.8694206 27.7642347,22.7692388 C27.540871,22.9887842 27.0114165,22.8494206 26.8917801,22.4052388 C26.5576892,21.1617842 26.9605074,20.0774206 27.6757801,19.0662388 C27.8202347,18.8626024 27.8832347,18.6004206 28.0563256,18.1937842" id="Fill-48"></path>
            <path d="M101.610289,28.3785933 C101.749653,29.259957 101.41238,31.541957 101.41238,31.541957 C103.315107,30.7496842 105.208289,29.9294115 107.084926,29.0766842 C108.624926,28.3760479 116.93838,23.6096842 117.349471,27.2267751 C117.461471,28.2131388 116.709926,28.5752297 115.927835,28.972957 C111.568107,31.1881388 107.300016,33.5955024 102.872835,35.6617751 C99.9417438,37.0293206 97.9919256,39.080957 97.0978347,42.0941388 C96.7166529,43.3783206 95.3567438,43.5641388 94.7878347,44.6491388 C94.5676529,45.0685024 93.367471,45.3224115 92.6961074,44.4003206 C92.1641074,43.6697751 91.9299256,43.1625933 92.5166529,42.2417751 C95.0792892,38.2225024 95.8791983,33.5426842 97.2626529,29.079866 C97.6661074,27.7797751 96.7535619,26.8144115 96.4703801,25.7485024 C96.1515619,24.5534115 96.0166529,23.5250479 96.9966529,22.9962297 C98.1408347,22.3795933 99.5001074,22.828866 100.151744,23.967957 C100.858107,25.2044115 101.497016,26.5484115 101.610289,28.3785933" id="Fill-50"></path>
            <path d="M37.4707529,56.007657 C39.5771165,56.3398388 41.394571,57.5597479 42.2352074,59.0844751 C43.8229347,61.9652933 46.5548438,63.3831115 48.7967529,65.4220206 C49.6329347,66.1818388 51.1462074,66.684566 50.3342074,68.1762024 C49.4617529,69.7779297 48.0642983,69.3159297 46.7731165,68.6222933 C43.6231165,66.9289297 40.6926619,64.8543842 37.411571,63.3729297 C36.5410256,62.9802933 35.9148438,62.0041115 35.2320256,61.245566 C34.3296619,60.242657 33.8313892,59.003657 34.3150256,57.7277479 C34.8400256,56.3423842 36.4532074,56.6249297 37.4707529,56.007657" id="Fill-52"></path>
            <path d="M155.098307,28.0668388 C155.217307,27.4094751 155.525307,26.7120206 155.797671,26.3842933 C157.146762,24.7628388 158.672126,20.9421115 155.916035,19.6312024 C154.960853,19.1762024 153.918489,18.5582933 153.844671,17.4001115 C153.779126,16.373657 154.733035,14.6682024 155.877853,15.0334751 C158.420126,15.8442024 163.665671,18.1688388 162.286671,21.7642933 C161.085216,24.8971115 160.178398,28.5231115 156.192853,29.5031115 C155.119307,29.7672024 154.937307,28.9532933 155.098307,28.0668388" id="Fill-54"></path>
            <path d="M25.1203347,57.9122297 C25.2176983,59.2555933 18.1203347,67.9635933 16.7585165,68.1965024 C15.4724256,68.4166842 15.054971,67.248957 14.3511529,66.5966842 C13.5607892,65.8635933 13.8961529,65.0420479 14.5942438,64.476957 C17.3070619,62.2795933 19.7723347,59.8824115 21.410971,56.7394115 C21.9493347,55.707866 22.9350619,55.8357751 23.8437892,56.0037751 C24.8944256,56.1985024 24.3961529,57.4941388 25.1203347,57.9122297" id="Fill-56"></path>
        </g>
    </g>
</svg>