<?xml version="1.0" encoding="UTF-8"?>
<svg width="216px" height="140px" viewBox="0 0 216 140" version="1.1" xmlns="http://www.w3.org/2000/svg" xmlns:xlink="http://www.w3.org/1999/xlink">
    <title>img-sign-14</title>
    <g id="img-sign-14" stroke="none" stroke-width="1" fill="none" fill-rule="evenodd">
        <g id="Group-15" transform="translate(3.618496, 32.446965)" fill="#56D250">
            <path d="M48.4989863,58.6915717 C48.4283499,58.1646626 48.7446226,56.8053899 47.5851681,56.9517535 C45.9859863,57.1528444 46.2666226,58.9486626 45.9159863,60.1055717 C45.7314408,60.713299 45.5780772,61.9491172 46.7038045,61.7512081 C48.0236226,61.5189353 48.4277135,60.2538444 48.4989863,58.6915717 M10.4590772,55.4162081 C8.53853172,55.6853899 6.83244082,56.107299 4.33789536,55.2100263 C0.0424408158,53.6655717 -0.978922821,50.311299 1.39662263,46.5357535 C2.29134991,45.1141172 8.663259,35.7850263 7.54262263,35.1117535 C6.913259,34.7337535 6.11653172,34.8922081 5.38344082,34.8451172 C3.64680445,34.7331172 2.24298627,33.448299 0.994440816,32.2347535 C0.589713543,31.8414808 0.166531725,31.4163899 0.0398953613,30.8665717 C-0.11601373,30.1926626 0.211713543,29.5079353 0.561077179,28.9097535 C2.72216809,25.2080263 10.6703499,19.5717535 3.44762263,16.5795717 C1.67789536,15.8464808 0.253713543,15.0185717 1.06062263,13.2233899 C1.83380445,11.5026626 4.13298627,11.5306626 5.39680445,12.3528444 C7.35807718,13.6274808 9.552259,14.576299 11.253259,16.3523899 C13.4067135,18.6044808 12.0818045,21.6539353 10.6678045,23.893299 C9.19780445,26.2230263 5.11744082,28.6132081 9.10234991,29.7153899 C9.92834991,29.9438444 10.7938045,30.0749353 11.5778045,30.4020263 C14.2053499,31.4991172 14.7659863,33.9179353 13.2457135,36.3768444 C10.9223499,40.133299 8.66707718,43.9381172 6.56007718,47.8186626 C5.59598627,49.5947535 5.99944082,50.9177535 8.47871354,50.6479353 C12.7321681,50.1859353 16.9843499,49.0264808 21.2556226,50.6154808 C21.7010772,50.7809353 22.4468954,50.794299 22.3240772,49.9250263 C21.7958954,46.1774808 25.4136226,44.998299 27.0045317,42.2969353 C25.7178045,41.6669353 24.525259,42.1944808 23.3766226,42.4999353 C21.760259,42.9307535 20.5098045,42.4063899 19.8906226,40.9675717 C19.3121681,39.6242081 19.9517135,38.3323899 21.193259,37.7195717 C25.2838045,35.7016626 26.4801681,32.2519353 26.4515317,28.0118444 C26.4419863,26.602299 27.4493499,25.3321172 28.5298954,24.7415717 C29.7765317,24.0606626 29.6371681,23.1621172 29.446259,22.3240263 C29.2127135,21.2969353 28.1633499,21.9651172 27.4938954,21.7977535 C27.1878045,21.7213899 26.8244408,21.8715717 26.520259,21.7920263 C25.1858045,21.443299 22.9534408,23.7679353 22.6384408,21.0983899 C22.4570772,19.5622081 24.5710772,17.8414808 26.1021681,17.4475717 C31.2236226,16.1290263 36.1885317,14.6011172 40.6927135,11.7292081 C41.3583499,11.3053899 42.4974408,11.0075717 43.3228045,11.9048444 C44.3333499,13.0025717 43.684259,14.1435717 42.9880772,14.8041172 C41.612259,16.1105717 40.1034408,17.7014808 38.3871681,18.1335717 C35.0430772,18.9748444 34.6084408,22.4061172 32.2825317,24.0511172 C32.022259,24.2350263 32.0114408,25.1373899 32.2195317,25.5287535 C32.5160772,26.0868444 33.2345317,25.8399353 33.6978045,25.6649353 C35.4630772,24.9961172 37.1927135,24.2337535 38.9420772,23.5229353 C40.3318954,22.9584808 41.8337135,23.4090263 42.207259,24.5614808 C42.4478045,25.3022081 41.8521681,26.7467535 40.1899863,27.2469353 C37.3365317,28.1066626 35.116259,30.1035717 33.1180772,32.8437535 C35.7214408,33.1199353 37.6604408,32.6102081 39.4257135,31.2776626 C40.6997135,30.3167535 42.1474408,29.6383899 43.2171681,31.3966626 C44.1806226,32.9805717 43.9578954,33.8676626 41.8763499,34.9997535 C37.9277135,37.1474808 35.0150772,40.7480263 31.9726226,44.0558444 C32.1208954,44.3784808 32.2698045,44.7011172 32.4187135,45.0237535 C38.1943499,42.6036626 43.9699863,40.1835717 49.7449863,37.7634808 C51.2448954,38.5538444 52.5978045,39.4282081 51.8946226,41.4893899 C49.8639863,44.3282081 49.8824408,46.8959353 51.7584408,50.0822081 C53.1049863,52.3686626 53.2869863,55.2622081 56.0799863,56.7010263 C59.7708954,58.6024808 63.6126226,60.0304808 67.603259,61.1562081 C69.983259,61.8282081 73.6009863,62.0961172 72.9748045,65.473299 C72.4288045,68.4209353 69.1598045,66.8236626 67.1571681,66.7670263 C64.5735317,66.6938444 62.3233499,65.109299 59.9369863,64.1604808 C58.9639863,63.7735717 58.1087135,63.0150263 57.1153499,62.7687535 C52.2299863,61.5583899 53.0674408,59.8631172 50.2865317,65.613299 C49.3778045,67.4931172 47.8448045,69.3258444 46.1247135,70.4738444 C38.8860772,75.3019353 42.9486226,53.0222081 43.8185317,50.129299 C44.2124408,48.8190263 44.2945317,47.427299 45.7269863,45.8892081 C42.0411681,46.0845717 39.2653499,46.9283899 36.7447135,48.7897535 C33.688259,51.046299 30.2207135,51.7583899 26.4648954,51.3084808 C25.4040772,51.1812081 24.3146226,51.2887535 23.0043499,51.2887535 C25.2965317,51.2887535 22.5684408,57.3723899 22.0599863,57.9922081 C19.5075317,61.1040263 14.9136226,65.9798444 11.4524408,67.9754808 C9.71898627,68.9752081 2.32571354,69.491299 4.995259,65.8003899 C5.94089536,64.4920263 5.48780445,61.8708444 7.76980445,61.8536626 C12.3770772,61.8186626 14.1754408,58.3842081 16.685259,55.253299 L12.5030772,55.253299 C11.7725317,55.253299 11.1037135,55.3264808 10.4590772,55.4162081" id="Fill-10"></path>
            <path d="M159.336923,54.7580808 C159.541195,55.0896263 159.745468,55.4211717 159.949741,55.7527172 C162.064377,54.2731717 164.541104,53.6635353 166.735286,52.430899 C167.794195,51.835899 167.164832,50.7661717 166.856832,49.9376263 C166.534832,49.0715353 165.790286,49.2070808 165.272286,49.6372626 C163.262014,51.3058081 161.310286,53.0449899 159.336923,54.7580808 M164.530286,66.0560808 C167.773832,66.1617172 170.687104,65.0620808 173.505559,63.5850808 C174.491923,63.0689899 174.981923,62.5408081 174.239923,61.4297172 C173.233832,59.9234444 172.295195,58.3707172 171.365468,56.8148081 C170.814377,55.8927172 169.997286,55.6687172 169.285832,56.3419899 C166.698377,58.7900808 164.21465,61.3476263 161.664104,63.8351717 C161.198286,64.2895353 161.097104,64.8024444 161.22565,65.3427172 C161.387923,66.0236263 162.024923,66.0274444 162.578559,66.0497172 C163.228286,66.0758081 163.879923,66.0560808 164.530286,66.0560808 M154.916104,67.9880808 C154.846741,67.5979899 154.882377,67.0812626 155.044014,66.3939899 C155.454468,64.6446263 157.248377,62.9423535 158.355014,61.5843535 C159.046741,60.7354444 159.885468,60.0061717 160.927195,58.9485353 C159.077923,58.4693535 157.845286,59.0274444 156.71065,60.0055353 C154.75765,61.6893535 152.492195,62.8844444 150.282104,64.1743535 C149.358104,64.7133535 148.67465,64.4957172 147.961286,63.8568081 C147.214195,63.1873535 147.284832,62.4816263 147.638014,61.6225353 C148.248286,60.1366263 149.411559,59.0745353 150.586923,58.1861717 C155.74465,54.2852626 159.660832,48.874899 165.567559,45.885899 C169.236195,44.0289899 159.287286,43.9558081 159.11165,42.0645353 C158.988832,40.7415353 159.533559,40.2782626 160.852741,39.7914444 C166.165741,37.8301717 171.510559,35.8332626 176.264832,31.3774444 C175.294377,32.2868081 171.12365,32.3669899 169.717286,32.7551717 C167.513559,33.362899 165.345468,34.1150808 163.279195,35.0995353 C160.206832,36.5631717 155.318923,42.2815353 151.927104,41.7234444 C145.452104,40.6588081 148.595104,32.3243535 152.527195,30.380899 C153.619832,29.8406263 154.949195,29.5148081 155.995377,28.9923535 C157.931195,28.0257172 160.191559,27.5191717 160.517377,24.1642626 C160.702559,22.2602626 161.408923,19.488899 163.151286,17.6606263 C163.475195,17.3214444 164.407468,16.9345353 163.577014,16.1677172 C162.565832,15.2545353 158.363286,16.9160808 157.226104,17.1426263 C155.89165,17.4086263 150.941377,17.2921717 154.210377,15.3582626 C156.771104,13.8430808 159.580014,12.9407172 162.395923,12.0249899 C168.931377,9.89762625 160.759195,4.67371716 163.287468,0.997444435 C165.887014,-2.78319193 168.731559,5.29544443 168.963195,6.78771716 C169.272468,8.78462625 170.071741,8.75471716 171.455195,8.52753534 C172.689741,8.32517171 175.467468,7.26498989 176.124832,9.04744443 C176.85665,11.0309899 169.647923,15.1170808 168.247286,16.2256263 C167.821559,16.5622626 167.292741,16.9784444 167.481104,17.6008081 C167.705104,18.340899 168.378377,18.0704444 168.87665,17.9711717 C170.487923,17.6504444 172.246195,17.9024444 172.851377,19.3100808 C173.511286,20.8437172 172.141195,22.2367172 171.153559,23.4884444 C166.738468,29.085899 158.869832,30.905899 152.840923,34.1838081 C152.417741,34.4141717 151.95765,34.6941717 151.832923,35.1593535 C151.639468,35.8752626 152.427286,36.5459899 153.16865,36.5396263 C153.910014,36.5332626 154.565468,36.0871717 155.178286,35.6703535 C162.91265,30.4108081 172.246832,26.663899 181.651014,26.1929899 C185.984014,25.9772626 183.019832,29.7394444 181.720377,31.0242626 C179.154559,33.5614444 176.465923,36.015899 173.350286,37.8683535 C171.833832,38.7700808 171.686832,40.3177172 171.039014,41.7921717 C168.858195,46.7545353 171.669014,50.2150808 173.864468,53.8499899 C175.306468,56.2363535 176.698195,58.6723535 178.258559,60.9747172 C182.945377,67.8951717 166.338832,70.595899 162.330377,69.811899 C161.242195,69.5987172 160.167377,69.2843535 159.060104,69.2283535 C156.916195,69.1195353 155.177014,69.4498081 154.916104,67.9880808" id="Fill-12"></path>
            <path d="M107.292368,28.1921263 C107.466732,28.1749444 107.637914,28.1577626 107.805277,28.1412172 C108.771277,28.0432172 109.940914,28.4396717 110.157914,29.3859444 C110.24255,29.7550353 110.163641,30.1413081 110.057368,30.5046717 C108.805641,34.7950353 100.175914,39.3914899 107.621368,42.4403081 C109.684459,43.285399 111.302732,44.3602172 112.637823,45.9835808 C113.962095,47.5929444 115.070004,47.3161263 116.306459,45.8970353 C118.272186,43.6404899 120.316823,41.451399 122.30355,39.2126717 C123.404459,37.9717626 124.681641,37.3926717 126.331732,37.9284899 C126.626368,38.2403081 126.920368,38.5527626 127.215004,38.8645808 C125.885641,42.7680353 122.413641,44.9991263 119.963641,48.0180353 C117.057368,51.5988535 117.133732,53.127399 121.396732,54.8812172 C125.423004,56.5370353 129.131732,58.4174899 131.649823,62.2006717 C132.552823,63.5580353 132.855732,64.5991263 131.665732,65.7687626 C129.613459,67.7815808 127.220732,63.6025808 125.829004,62.6486717 C123.422914,60.9992172 120.121459,60.1942172 117.498368,58.7961263 C116.054459,58.0267626 115.08655,58.5097626 114.47055,59.686399 C111.475823,65.4022172 106.519823,66.539399 100.692641,65.7630353 C100.496004,65.7369444 100.280277,65.7878535 100.098277,65.727399 C98.6473681,65.2418535 97.7698226,62.0301263 95.5800954,64.9809444 C94.4887317,66.4515808 93.0696408,67.6275808 92.0648226,69.2687626 C91.162459,70.7432172 90.7806408,72.9825808 88.4572772,73.2784899 C88.1327317,72.6790353 87.5530045,72.4868535 86.948459,72.3347626 C86.0989135,69.3514899 88.1212772,67.4131263 89.6275499,65.3837626 C93.1059135,60.6982172 96.6816408,56.0801263 101.230368,52.3370353 C101.675186,51.9704899 102.039186,51.4467626 102.541914,51.2221263 C103.395277,50.8403081 104.325641,49.4689444 105.235641,50.7397626 C106.054004,51.8826717 105.917186,53.0675808 104.365732,53.9400353 C102.141004,55.1898535 101.192186,57.7174899 99.3970045,59.4445808 C98.6492772,60.1643081 98.5939135,61.275399 99.9480954,61.443399 C102.046823,61.7036717 104.323095,62.2057626 106.246186,61.2855808 C108.42955,60.2413081 110.138823,58.8196717 110.232368,55.6970353 C110.357732,51.5231263 109.779914,48.1586717 105.772732,46.0663081 C104.136004,45.2116717 102.739186,44.3290353 101.117095,46.2247626 C97.0927317,50.9281263 90.9200045,55.6174899 88.6500954,61.4472172 C87.9010954,63.3696717 85.7393681,63.8157626 84.6810954,61.9588535 C84.1860045,61.0902172 84.1153681,60.0274899 84.8688226,59.1283081 C87.6319135,55.829399 90.3160954,52.4604899 93.1829135,49.2544899 C94.8756408,47.3613081 96.2393681,45.1359444 98.4341863,43.7085808 C98.6798226,43.5488535 99.0680045,43.1345808 99.0317317,43.0811263 C96.1916408,38.8932172 101.274277,37.7598535 102.139732,35.0158535 C102.249823,34.6664899 102.546368,34.3756717 102.757004,34.0581263 C101.524368,32.8547626 100.592095,34.0797626 99.7247317,34.3661263 C98.3711863,34.8122172 97.5050954,34.5360353 96.9991863,33.3644899 C96.5295499,32.2782172 96.7121863,31.3688535 97.8818226,30.5434899 C100.264368,28.8634899 104.295095,28.487399 107.292368,28.1921263" id="Fill-14"></path>
            <path d="M123.918768,11.7184535 C124.585677,12.1785444 125.111314,12.8460899 125.367132,13.6154535 C126.470586,16.9309081 121.097768,20.6377263 118.932223,22.5716353 C117.507404,23.8437263 115.613586,23.6617263 114.314768,22.6460899 C113.348768,21.8907263 112.490314,20.2794535 114.963223,19.6080899 C116.352404,19.2313626 117.645495,18.3932717 118.88195,17.6060899 C120.706404,16.4440899 120.325859,14.9257263 118.012041,15.4399081 C116.647041,15.7434535 115.282041,16.0463626 113.917041,16.3499081 C112.176586,16.7368172 110.380768,21.541999 108.779041,19.7022717 C106.95395,17.6060899 105.203314,17.9618172 103.412586,19.4948172 C101.070768,21.4993626 97.8342226,21.3052717 95.2919499,23.0279081 C93.8334045,24.0161808 93.7812226,24.6977263 94.5703135,25.6891808 C95.4090408,26.7423626 95.8201317,27.533999 94.3361317,28.1811808 C93.2727681,28.6450899 92.4983135,29.9916353 91.079859,27.9011808 C90.0852226,26.4356353 85.9615863,18.2093626 86.9447681,16.8596353 C87.4850408,16.1182717 88.4796772,15.8700899 89.3960408,15.8319081 C90.008859,15.8064535 90.6700408,15.8688172 91.1415863,16.2608172 C92.0515863,17.0168172 91.9109499,18.6885444 92.9717681,19.2173626 C94.6651317,20.0560899 98.5342226,17.2217263 100.032859,16.5618172 C102.887586,15.3056353 105.168314,14.6361808 103.709132,10.9605444 C103.08995,9.40081716 102.980495,7.59227171 104.939223,7.0411808 C106.586768,6.57727171 108.071404,7.49363534 108.579223,9.27290807 C110.121768,14.6807263 115.744677,11.6923626 120.457586,11.1489081 C121.077404,11.0776353 121.704223,11.0063626 122.322132,11.0903626 C122.895495,11.167999 123.442768,11.3907263 123.918768,11.7184535" id="Fill-16"></path>
            <path d="M211.278641,61.6421353 C210.835732,61.9558626 210.228004,62.1505899 209.528641,62.1410444 C202.517823,62.0398626 179.030277,63.2807717 180.329732,51.2751353 C180.609732,48.6870444 182.462823,46.6793172 184.462277,45.2850444 C187.280732,43.3199535 189.651186,40.7286808 192.830459,39.2733172 C194.087914,38.6974081 195.486004,38.0266808 196.401732,39.4960444 C197.408459,41.1092263 196.084186,41.4891353 194.833732,42.3068626 C192.085914,44.1039535 188.952459,45.4409535 186.830823,48.1206808 C186.022004,49.1420444 184.25355,49.7936808 184.782368,51.3578626 C185.427641,53.2631353 186.785004,54.7159535 188.820732,55.4897717 C194.834368,57.777499 201.812732,57.5401353 208.141368,58.0180444 C209.037368,58.0861353 209.965823,58.1631353 210.751732,58.5996808 C212.44255,59.5389535 212.307641,60.9122263 211.278641,61.6421353" id="Fill-18"></path>
        </g>
    </g>
</svg>