<?xml version="1.0" encoding="UTF-8"?>
<svg width="216px" height="140px" viewBox="0 0 216 140" version="1.1" xmlns="http://www.w3.org/2000/svg" xmlns:xlink="http://www.w3.org/1999/xlink">
    <title>img-sign-9</title>
    <g id="img-sign-9" stroke="none" stroke-width="1" fill="none" fill-rule="evenodd">
        <g id="Group-10" transform="translate(8.535879, 27.200722)" fill="#56D250">
            <path d="M163.19843,50.0588504 C159.357976,50.5195776 155.697612,49.7903049 152.011158,49.3461231 C151.884521,52.0239413 154.164612,53.7465776 154.120067,56.2723049 C154.10543,57.0900322 154.993158,56.9595776 155.537249,56.3588504 C157.765794,53.8980322 160.432794,51.9673049 163.19843,50.0588504 M166.175976,23.5390322 C168.243521,23.7401231 169.924794,22.3980322 171.973249,22.779214 C173.010521,22.9726685 174.353249,24.5540322 175.585249,22.6385776 C176.362885,21.4294867 177.80043,20.6575776 178.657612,19.482214 C179.303521,18.5970322 179.377339,17.1244867 178.762612,16.3379413 C177.622885,14.8813049 173.281612,17.6119413 172.20043,18.1840322 C171.161885,18.733214 170.094703,19.2779413 169.091794,19.8894867 C168.734794,20.1071231 165.524976,23.4747595 166.175976,23.5390322 M181.143249,52.2237595 C181.143249,53.4271231 181.172521,54.6311231 181.136249,55.8325776 C181.092976,57.2656685 181.632612,57.9338504 183.129976,57.5074867 C188.089158,56.0960322 192.468612,53.7974867 195.449339,49.3906685 C196.715067,47.5203958 195.751612,46.7287595 193.938612,46.3456685 C191.194612,45.7659413 188.568976,46.2871231 185.870158,46.8623958 C181.388249,47.8175776 181.358339,47.6801231 181.143249,52.2237595 M169.290976,28.0483049 C166.210976,27.8370322 164.105249,27.8026685 162.826158,30.7000322 C161.832794,32.9508504 159.490339,33.1220322 157.814158,31.3357595 C156.886976,30.3468504 156.566249,31.0029413 156.214976,31.5444867 C155.242612,33.0418504 153.805067,33.3994867 152.434976,32.6415776 C151.061703,31.8830322 151.31943,30.5390322 152.132703,29.2993958 C152.625249,28.5484867 151.891521,27.9286685 151.635703,27.3203049 C150.36043,24.2873958 151.192158,21.3028504 151.740703,18.3176685 C151.85143,17.7150322 152.329339,17.1893958 152.56543,16.5988504 C152.926885,15.6964867 153.679703,15.6080322 154.384158,15.8536685 C155.201249,16.1387595 154.95243,16.9443958 154.780612,17.529214 C154.051976,20.007214 154.242885,22.3916685 155.278249,24.7487595 C155.675339,25.6523958 155.922885,26.1939413 156.923249,25.2056685 C158.680249,23.4690322 160.619885,21.918214 162.39343,20.1974867 C164.921703,17.7449413 164.576794,14.2328504 165.52943,11.1993049 C165.713976,10.6125776 165.657339,10.0093049 165.97743,9.37866855 C166.48843,8.37257764 167.281976,8.48775946 168.052612,8.46485037 C169.33043,8.42730491 168.906612,9.47730491 168.887521,10.0907595 C168.830249,11.8923049 169.278885,13.735214 167.975612,15.9465776 C171.270067,14.9080322 173.566703,13.1943049 176.297976,12.5019413 C179.873067,11.5963958 181.95843,12.258214 182.713794,14.9474867 C183.649885,18.2794867 179.841249,24.3987595 176.385158,25.0179413 C175.738612,25.1343958 175.253703,25.4105776 175.137249,25.9393958 C174.310612,29.6945776 171.201976,31.5457595 168.63743,33.8519413 C168.314794,34.1421231 167.719794,34.2025776 167.794885,34.8141231 C167.897976,35.652214 168.626612,35.2773958 169.075249,35.4663958 C171.442521,36.4623049 174.220249,35.0425776 176.497794,36.9408504 C178.436794,38.557214 178.856794,40.5655776 177.386794,43.0836685 C176.985249,43.772214 176.053612,44.1266685 176.097521,45.102214 C176.888521,45.6596685 177.344794,45.0888504 177.701158,44.5753049 C178.604158,43.2758504 179.358885,42.4530322 180.916703,44.0229413 C181.670158,44.7821231 183.033249,44.2323049 184.125885,43.9720322 C188.015976,43.0461231 191.925794,42.7896685 195.880158,43.6124867 C199.467339,44.3583049 200.647794,46.9470322 198.521067,49.8793958 C195.719794,53.7408504 192.541158,57.0563049 187.807249,58.8247595 C185.777885,59.5833049 184.036794,61.2378504 181.68543,61.447214 C180.823794,61.5235776 181.204339,62.259214 181.06243,62.7218504 C180.041067,66.0481231 180.629703,69.5220322 180.116158,72.9036685 C179.744521,75.3504867 179.748339,77.8513958 179.50143,80.3198504 C179.345521,81.8865776 178.78043,83.3387595 176.846521,83.1230322 C173.121885,82.6934867 176.567158,65.0057595 176.286521,62.5003958 C176.122339,61.0380322 176.322158,59.9345776 174.490067,59.7519413 C173.934521,59.6965776 173.312158,59.200214 173.466158,58.6663049 C173.637976,58.073214 174.051612,57.0957595 174.767521,57.2440322 C176.742158,57.6519413 176.511158,56.3053958 176.763794,55.1554867 C177.096612,53.6396685 176.640976,52.1607595 176.732612,50.6703958 C176.779703,49.9035776 176.431612,49.6293049 175.783158,49.7056685 C173.090067,50.0225776 170.286249,50.1523958 168.09843,51.9895776 C165.647158,54.048214 165.152703,60.3399413 167.148976,62.8535776 C168.074249,64.0181231 168.900885,65.0916685 167.183976,66.2294867 C164.057521,68.3021231 162.800703,62.2229413 162.702703,60.3698504 C162.667067,59.7080322 162.355885,52.7583049 160.738249,55.994214 C159.445794,58.4588504 156.73743,59.6933958 155.61743,62.4545776 C154.788885,64.4979413 152.499885,64.0760322 151.659885,61.9041231 C149.928976,57.4304867 148.087976,53.0007595 146.488158,48.4711231 C145.93643,46.9101231 146.567067,46.5104867 147.176703,45.4884867 C148.135703,43.8823049 149.02343,45.1391231 149.725339,45.3745776 C154.346612,46.9253958 158.992703,48.4590322 163.892703,47.083214 C167.206249,46.1528504 173.779249,44.6669413 174.25143,40.4809413 C173.476976,40.1449413 172.67643,39.7300322 171.812885,39.7300322 C168.142976,39.9177595 164.470521,40.1824867 160.820339,40.6031231 C159.434339,40.7628504 158.104976,41.4208504 157.369339,39.6065776 C156.676339,37.8973049 158.122794,36.9663049 159.077339,36.6093049 C163.355612,35.0107595 165.532612,31.1168504 169.290976,28.0483049" id="Fill-82"></path>
            <path d="M19.9613758,34.1944322 C21.9691031,31.6069776 20.1421031,28.9819776 20.5665576,26.3722504 C18.0974667,28.9011595 18.3730122,31.5312504 19.9613758,34.1944322 M15.5946485,17.1207958 C17.3344667,17.6120685 16.9507394,18.664614 16.9882849,19.5167049 C17.0417394,20.708614 17.1575576,21.8572504 17.5018304,23.0319776 C17.9288304,24.4917958 18.1375576,24.6527958 19.636194,23.830614 C22.807194,22.0901595 21.3817394,18.846614 22.4323758,16.445614 C22.884194,15.4147049 21.1526485,15.8270685 20.8459213,15.9734322 C19.3358304,16.6944322 17.6851031,16.634614 15.5946485,17.1207958 M25.4506485,30.7663413 C28.1456485,29.0125231 30.0604667,27.0684322 31.7920122,24.9747958 C32.8598304,23.683614 34.7765576,22.0055231 33.7806485,20.5807049 C32.950194,19.3919776 30.7999213,20.6965231 29.2949213,21.3010685 C25.5626485,22.8003413 25.0440122,23.3813413 25.4932849,27.0773413 C25.6269213,28.1737958 25.3825576,29.2015231 25.4506485,30.7663413 M20.4882849,39.4947049 C19.4306485,39.041614 18.2686485,38.9257958 17.6787394,39.4622504 C16.3328304,40.686614 15.4228304,39.874614 14.456194,39.1383413 C13.2350122,38.2079776 13.0269213,37.0249776 13.3101031,35.4722504 C13.8102849,32.7257049 15.5806485,30.1420685 14.2977394,27.1212504 C13.5493758,25.3572504 13.2063758,17.6909776 11.8649213,16.2311595 C10.8919213,15.171614 11.6453758,14.2087958 12.8920122,14.1457958 C15.7537394,14.0007049 18.215194,12.5001595 20.9528304,11.9802504 C25.2559213,11.1618867 22.8905576,3.48097764 26.2295576,1.28297764 C26.6349213,1.41534127 26.8341031,1.70870491 26.9836485,2.10515946 C27.0905576,2.38706855 27.0854667,2.69697764 27.0784667,2.998614 C27.021194,5.56379582 25.3602849,10.187614 28.3970122,10.187614 C29.884194,9.85734127 31.8772849,8.59415946 32.5187394,10.7717958 C33.2601031,13.288614 30.5256485,13.582614 29.121194,13.6888867 C25.9909213,13.9262504 25.5308304,15.4452504 26.1932849,18.0950685 C28.2710122,17.5477958 30.3309213,16.9031595 32.4347394,16.480614 C34.2273758,16.1210685 35.8291031,16.4163413 37.0076485,18.1714322 C38.0735576,19.7572504 37.8164667,21.0617958 36.8415576,22.4967958 C34.0135576,26.6598867 31.214194,30.8083413 26.8360122,33.6140685 C25.3163758,34.5883413 23.5663758,35.9304322 25.9756485,37.9120685 C26.6043758,38.4287958 26.5191031,39.0403413 25.9107394,39.5500685 C22.9923758,41.9949776 24.5062849,44.3775231 25.9546485,46.8141595 C27.6709213,49.7013413 29.296194,52.6419776 30.9978304,55.5380685 C31.3179213,56.0821595 31.7162849,56.7185231 32.2425576,56.9737049 C33.3670122,57.5177958 34.3610122,58.0453413 33.3574667,59.3963413 C32.4544667,60.6124322 31.3211031,60.7269776 30.0140122,59.7915231 C28.0272849,58.3679776 27.2929213,56.0115231 25.7223758,54.2888867 C25.3895576,53.923614 25.5282849,53.1001595 24.4254667,53.2732504 C23.7973758,56.8973413 24.102194,60.6117958 24.1187394,64.3313413 C24.1397394,68.9812504 23.9151031,73.635614 23.6701031,78.2817049 C23.5899213,79.8057958 24.4884667,81.2223413 23.7636485,82.8552504 C21.9131031,87.0247049 20.1478304,84.7388867 19.3205576,81.5303413 C18.313194,77.6249776 19.2079213,74.1510685 19.3733758,70.2469776 C19.650194,63.6981595 19.6330122,57.1302504 19.6813758,50.5795231 C19.6871031,49.9667049 20.371194,49.0274322 19.2690122,48.7009776 C18.432194,48.4534322 17.8912849,49.1101595 17.4464667,49.6981595 C13.0899213,55.4502504 5.46437581,62.659614 3.43246672,69.6424322 C3.24537581,70.2851595 2.4002849,71.7837958 1.17910308,70.5352504 C0.499466719,69.8403413 -0.614806008,69.4534322 0.423103082,67.6862504 C2.47664854,64.1881595 4.46910308,60.6493413 6.90701217,57.4204322 C8.95546672,54.7082504 11.7586485,52.5045231 13.4857394,49.6300685 C14.8730122,47.3207049 17.7398304,45.5904322 17.1531031,42.2170685 C17.018194,41.4432504 17.5941031,40.8024322 18.544194,40.9309776 C19.5343758,41.0652504 20.1013758,40.6337958 20.4882849,39.4947049" id="Fill-84"></path>
            <path d="M84.2372849,41.1698049 C86.6974667,38.021714 89.2543758,34.9429867 91.5949213,31.7083504 C94.9027394,27.1386231 99.4928304,23.8899867 103.367012,19.9095322 C104.174558,19.079714 105.258285,19.0701685 105.795376,19.6772595 C106.525921,20.5026231 107.035012,21.6251685 105.983103,22.866714 C103.843649,25.3924413 101.745558,27.9716231 100.19983,30.9281685 C98.6407394,33.9095322 97.1217394,36.9118958 95.5874667,39.9053504 C95.2998304,40.4666231 95.3176485,41.0253504 95.8623758,41.3810776 C96.4230122,41.7469867 96.9868304,41.7800776 97.6289213,41.3288958 C101.440103,38.6472595 105.256376,35.9700776 109.13883,33.3934413 C110.172285,32.7080776 111.121103,32.3956231 109.910739,30.9822595 C108.593467,29.4435322 109.581103,27.815714 110.630467,26.8338049 C111.719285,25.8149867 112.906739,27.1093504 113.668467,27.8901685 C117.29383,31.6078049 119.24683,36.1571685 119.990103,41.2678049 C120.117376,42.1459867 120.204558,42.9694413 119.173649,43.2634413 C118.268739,43.5218049 117.549649,43.0954413 117.073012,42.305714 C116.186558,40.8369867 115.244103,39.3956231 114.462649,37.8721685 C113.86383,36.7050776 113.33183,36.9144413 112.643921,37.7035322 C109.516194,41.2951685 106.404376,44.8995322 103.247376,48.4650776 C102.280739,49.5570776 102.560103,49.8968958 103.885012,50.2144413 C106.482649,50.8355322 108.324285,54.1808958 107.24883,56.585714 C106.123103,59.1044413 104.557649,61.3940776 102.42583,63.2452595 C101.710558,63.8663504 100.855921,64.2208049 100.229103,63.6009867 C99.1873758,62.5713504 98.869194,61.0848049 98.7864667,59.6580776 C98.7381031,58.8218958 99.4489213,58.3159867 100.303558,58.4133504 C101.720103,58.573714 102.596376,57.9761685 102.968012,56.6614413 C103.425558,55.0425322 103.766649,53.4891685 101.09583,53.8468049 C100.008921,53.9925322 98.8819213,53.8219867 97.7733758,53.8372595 C96.8328304,53.8499867 95.8598304,53.9492595 95.4538304,52.8228958 C95.047194,51.6958958 95.7287394,50.8813504 96.4223758,50.1756231 C98.4536485,48.108714 100.460103,46.0029867 102.652376,44.1168049 C103.323103,43.5396231 103.260103,42.9064413 103.725285,42.3973504 C102.935558,41.9563504 102.086012,41.9461685 101.734103,42.3795322 C100.024194,44.4865322 97.5525576,44.7544413 95.1961031,45.371714 C92.9141031,45.9692595 91.6528304,45.0516231 91.5981031,42.6264413 C91.5357394,39.8385322 92.8975576,37.5348958 94.3204667,35.3114413 C93.3792849,34.4962595 93.0108304,35.2586231 92.6385576,35.6970776 C89.5502849,39.3370776 86.4671031,43.1495322 84.8278304,47.5518958 C83.7721031,50.3862595 82.8277394,53.5445322 83.3107394,57.0426231 C83.6620122,59.5855322 83.4736485,62.5185322 82.9524667,65.2039867 C82.7303758,66.3462595 82.1652849,67.8340776 80.4795576,67.6978958 C78.8307394,67.5655322 79.2093758,66.210714 79.1953758,65.1600776 C79.1552849,62.1729867 78.9993758,59.1858958 78.9580122,56.1994413 C78.9001031,52.0019867 79.4804667,47.7179867 79.6147394,43.5071685 C79.8247394,36.936714 80.6303758,30.1969867 80.4394667,23.6462595 C80.3694667,21.256714 81.2794667,18.827714 81.8331031,16.4356231 C82.0660122,15.4276231 82.9925576,15.1788049 83.7975576,15.4944413 C84.6617394,15.8323504 85.3553758,16.5450776 85.1765576,17.6555322 C84.0998304,24.336714 84.197194,31.0764413 84.1392849,37.8104413 C84.1303758,38.8833504 83.8879213,39.9543504 83.7536485,41.0266231 C83.9146485,41.0743504 84.0762849,41.1220776 84.2372849,41.1698049" id="Fill-86"></path>
            <path d="M52.7201031,35.2884685 C51.0445576,36.3486504 49.3607394,37.3954685 47.6998304,38.4779231 C47.3040122,38.7356504 47.0513758,39.1861958 47.244194,39.6596504 C47.4160122,40.0828322 47.8436485,40.0064685 48.1739213,39.8346504 C50.1326485,38.8132867 52.1518304,37.8536504 52.7201031,35.2884685 M45.6748357,36.2996504 C45.9313758,36.1501049 46.1763758,36.0336504 46.3927394,35.8764685 C49.1590122,33.870014 51.5345576,31.1622867 55.602194,31.8578322 C56.7171031,32.0481049 57.2707394,30.650014 56.9875576,29.3607413 C56.7565576,28.3094685 56.6362849,27.4841049 55.0587394,27.7952867 C53.670194,28.0695595 52.5565576,28.8592867 51.2233758,29.2334685 C48.2292849,30.0734685 45.6577394,33.6205595 45.6748357,36.2996504 M50.3642849,42.8039231 C53.0300122,45.0572867 53.0300122,45.0572867 50.0804667,51.3133776 C52.9078304,51.9459231 53.4054667,52.7063776 52.5253758,55.5776504 C52.3153758,56.2636504 52.3911031,56.5767413 52.8607394,56.9445595 C56.0056485,59.4009231 58.3290122,62.4891958 59.9714667,66.1151958 C60.4201031,67.1047413 62.0371031,68.0955595 60.4519213,69.1245595 C59.2167394,69.9257413 57.6404667,69.5884685 56.8679213,68.1483776 C55.5659213,65.7231958 50.6073758,59.0337413 48.0593758,62.451014 C46.0230122,65.1816504 43.4966485,67.5489231 41.161194,70.0542867 C40.1805576,71.1055595 38.6602849,71.9442867 37.6643758,70.9343776 C36.4947394,69.7494685 37.3761031,68.6358322 38.6488304,67.3681958 C41.9006485,64.1271958 44.7089213,60.4407413 47.8748304,56.7205595 C45.844194,56.060014 44.5676485,57.1545595 43.2643758,57.9455595 C42.3295576,58.5138322 41.5156485,59.2793776 40.6374667,59.9424685 C39.5333758,60.7761049 38.3522849,60.8066504 37.4454667,59.7859231 C36.4158304,58.6264685 37.6211031,57.8418322 38.3249213,57.3053776 C41.6282849,54.7853776 44.3614667,51.7333776 46.9368304,48.5063776 C45.5126485,48.2594685 44.3385576,48.325014 43.100194,49.2248322 C42.0177394,50.0113776 40.7475576,50.1647413 40.1118304,49.3457413 C39.3469213,48.360014 39.8445576,47.1057413 40.9562849,46.2275595 C41.6702849,45.6631049 42.3639213,45.1011958 43.1231031,44.5908322 C43.555194,44.300014 44.7725576,44.531014 44.3761031,43.5662867 C44.1667394,43.0559231 43.3235576,42.6276504 42.6967394,42.4971958 C40.0870122,41.9524685 38.5909213,39.3624685 40.195194,37.1765595 C43.1924667,33.0917413 41.6238304,28.9528322 40.7297394,24.9017413 C40.4319213,23.5551958 40.8761031,22.8411958 41.3342849,21.9757413 C41.889194,20.9295595 43.1969213,21.1236504 43.8320122,21.4889231 C45.6927394,22.5592867 46.7020122,21.5627413 47.8633758,20.3841958 C49.5306485,18.6921049 51.4174667,16.769014 52.4305576,14.5945595 C54.7093758,9.70537764 46.5995576,9.19755946 44.0515576,11.0735595 C43.5036485,11.477014 42.7139213,11.5202867 42.2926485,10.9602867 C41.9152849,10.4594685 41.980194,9.76774127 42.4714667,9.19374127 C44.6618304,6.63746855 51.0197394,5.81528673 53.8897394,7.73774127 C61.5076485,12.8496504 51.4136485,23.958014 45.9816485,25.6736504 C44.8272849,26.0376504 44.773194,27.3097413 45.5024667,28.2407413 C46.2743758,29.2251958 46.7586485,28.158014 47.2047394,27.7475595 C49.6948304,25.456014 52.8531031,24.4384685 55.9814667,23.8765595 C58.8126485,23.3674685 60.5607394,24.6815595 60.6008304,27.7781049 C60.6396485,30.7289231 59.4273758,33.0809231 57.5768304,35.1656504 C55.308194,37.720014 53.2635576,40.4843776 50.3642849,42.8039231" id="Fill-88"></path>
            <path d="M149.290767,14.591314 C148.404312,16.439314 146.464676,16.4202231 145.127039,17.3658595 C141.246494,20.1111322 139.048494,24.2054958 136.289221,27.8569504 C135.772494,28.5410413 136.133949,28.9546776 136.50813,29.5541322 C138.762767,33.1654958 138.827039,37.2439504 138.765949,41.3007685 C138.718221,44.5054958 138.937767,47.6987685 138.74813,50.9194049 C138.493585,55.2441322 138.346585,59.566314 137.780858,63.8706776 C137.671403,64.7049504 138.023312,65.6944958 138.422949,66.4797685 C139.142676,67.8956776 138.202767,68.7165867 137.52313,69.6475867 C136.957403,70.423314 136.012403,70.6536776 135.273585,70.297314 C134.242039,69.800314 133.892039,68.7904049 133.819494,67.5590413 C133.586585,63.6084958 134.230585,59.7082231 134.323494,55.7914049 C134.481949,49.1229504 135.406585,42.4697685 134.827494,35.7866776 C134.777221,35.2101322 135.204221,34.4394958 134.309494,34.1187685 C133.229585,33.7312231 133.14813,34.7296776 132.752949,35.2699504 C132.268676,35.9330413 131.870312,36.6674049 131.334494,37.2827685 C130.646585,38.0731322 129.884221,38.3639504 128.998403,37.4208595 C128.288221,36.6654958 128.11513,36.1621322 128.670039,35.0542231 C131.18813,30.026314 134.327312,25.4425867 137.784676,21.0274958 C139.675312,18.6131322 141.808403,16.5665867 144.297221,14.7841322 C145.972767,13.5839504 147.452312,13.2091322 149.290767,14.591314" id="Fill-90"></path>
            <path d="M177.927067,0.0906230927 C178.854885,0.0906230927 179.785885,0.0467140018 180.709885,0.10589582 C181.358339,0.147259456 182.274067,-0.175376907 182.260848,1.068714 C182.250521,2.04107764 181.920885,2.81425946 180.909067,2.80598673 C177.132885,2.77544127 173.47443,3.56516855 170.092158,5.04598673 C165.374794,7.11162309 159.779249,7.00344127 155.770158,10.8680776 C155.368612,11.2543504 154.309703,12.0485322 153.670794,11.4382595 C152.987339,10.784714 153.633249,9.77798673 154.095885,9.19698673 C156.516612,6.15707764 160.107612,4.94225946 163.514703,3.52698673 C166.832067,2.14862309 170.480976,1.79480491 173.804703,0.305714002 C174.980703,-0.221831453 176.54043,0.107168547 177.925794,0.0454412746 C177.925794,0.0607140018 177.92643,0.0753503655 177.927067,0.0906230927" id="Fill-92"></path>
            <path d="M71.4780667,39.2305504 C71.8637031,37.2368231 71.5588849,34.9554595 72.4854304,32.8650049 C73.0021576,31.7010958 73.7530667,30.5091867 75.1460667,31.1455504 C76.3042485,31.6750049 76.4913394,32.740914 76.2546122,34.2936413 C75.8976122,36.6341867 74.3130667,38.9950958 76.2533394,41.6258231 C77.3383394,43.0977322 75.0035213,43.7111867 74.0960667,44.5327322 C73.1981576,45.3460049 72.6025213,44.1795504 72.1882485,43.6405504 C71.2381576,42.4060049 71.4647031,40.8685504 71.4780667,39.2305504" id="Fill-94"></path>
        </g>
    </g>
</svg>