<?xml version="1.0" encoding="UTF-8"?>
<svg width="216px" height="140px" viewBox="0 0 216 140" version="1.1" xmlns="http://www.w3.org/2000/svg" xmlns:xlink="http://www.w3.org/1999/xlink">
    <title>img-sign-8</title>
    <g id="img-sign-8" stroke="none" stroke-width="1" fill="none" fill-rule="evenodd">
        <g id="Group-9" transform="translate(13.651825, 31.230953)" fill="#56D250">
            <path d="M44.1991023,42.8373838 C44.1991023,42.8373838 34.4143751,45.137202 31.2567387,47.7946565 C30.4250114,48.4952929 29.0848296,48.140202 28.8671933,46.8840201 C28.7189205,46.026202 27.6950114,44.8826565 29.6505569,44.1177474 C34.2921933,42.3015656 38.7219205,39.9444747 43.3527387,38.095202 C44.8348296,37.5033838 45.4177387,36.5730201 44.9080114,35.5370201 C44.0762842,33.846202 40.8639205,36.8205656 39.5848296,36.4031111 C38.2745569,35.9748383 35.1907387,34.5621111 37.156466,32.9960201 C38.2319205,32.7872929 39.3061023,32.5741111 40.3828296,32.3717474 C41.7968296,32.1051111 43.2343751,32.0433838 44.4911933,31.0175656 C45.0677387,30.5472929 45.2853751,29.7289292 44.9862842,29.0473838 C43.7377387,26.2009292 34.7077387,34.3635656 33.061466,32.0942929 C32.1750114,30.8718383 32.6261933,29.4317474 33.8276478,28.4243838 C35.3313751,27.1643838 37.3632842,27.2515656 39.1018296,26.5350201 C40.3058296,26.0386565 41.5002842,25.3844747 42.8118296,25.0408383 C44.8456478,24.508202 44.4180114,22.6754747 44.3976478,21.211202 C44.387466,20.4564747 44.0858296,20.3533838 42.5299205,21.1431111 C38.878466,22.9974747 34.9247387,23.1285656 30.9799205,23.3716565 C30.1621933,23.4219292 29.0250114,23.4461111 28.7055569,22.5310201 C28.2378296,21.1921111 30.5223751,19.8162929 31.5691933,19.6546565 C37.0635569,18.8082929 43.1796478,16.3328383 43.1796478,16.3328383 C43.1796478,16.3328383 44.835466,11.061202 42.7201933,8.28092923 C42.5031933,7.99520196 42.2473751,7.69547469 42.2492842,7.3365656 C42.252466,6.56592923 44.2652842,3.76465651 44.7540114,3.10665651 C45.4648296,2.14892923 47.6526478,3.33574742 47.6329205,4.77329287 C47.5953751,7.46383833 47.4273751,14.6948383 47.4273751,14.6973838 C47.4203751,15.0117474 51.9290114,14.1157474 52.3719205,13.9502929 C53.0821023,13.686202 53.697466,13.0307474 54.4999205,13.4004747 C55.2260114,13.7345656 55.5308296,14.6394747 55.0720114,15.3159292 C54.3198296,16.4244747 52.8313751,17.0990201 51.4536478,17.7939292 C50.652466,18.1986565 49.8150114,18.5187474 48.9801023,18.8477474 C47.3051933,19.5089292 47.4871933,20.9121111 47.656466,22.1931111 C47.8982842,24.0201111 52.4107387,22.639202 53.5581023,22.499202 C54.9110114,22.3343838 56.8067387,22.6188383 57.2038296,24.1518383 C57.6130114,25.7306565 56.0621933,26.4198383 55.2953751,27.5099292 C54.8238296,28.1806565 54.0716478,27.8395656 53.2698296,27.1643838 C52.0091933,26.1029292 50.2891023,26.5210201 48.860466,27.1452929 C48.153466,27.4539292 47.4789205,28.1863838 47.8047387,29.1835656 C48.6631933,31.8002929 54.222466,28.5872929 54.7888296,31.4019292 C55.1725569,33.3116565 55.9571933,36.9217474 54.3930114,37.8858383 C53.6090114,38.3694747 48.1311933,41.9636565 48.1311933,41.9636565 C49.1302842,52.704202 50.1141023,63.449202 51.2875569,74.1738383 C51.3906478,75.1131111 52.4266478,77.9220201 50.8325569,78.149202 C50.4698296,78.2007474 50.106466,78.0766565 49.770466,77.9302929 C48.3952842,77.3308383 47.2027387,76.2935656 46.3271023,75.0800201 C45.8651023,74.4398383 43.5099205,69.4723838 44.5631023,68.9282929 C46.5721023,67.8897474 46.5078296,70.204202 47.6246478,70.9016565 C48.1388296,69.546202 44.1991023,42.8373838 44.1991023,42.8373838" id="Fill-198"></path>
            <path d="M8.62109325,19.3815929 C8.50018416,19.4356838 8.37227507,19.467502 8.23291144,19.4668656 C7.90009325,19.4649565 7.60291144,19.2676838 7.34200234,19.061502 C6.41227507,18.3258656 5.6295478,17.3146838 5.47491144,16.1393201 C5.1115478,13.3736838 7.27263871,13.1407747 9.15818416,13.8789565 C10.3640933,14.350502 11.7131842,14.1831383 12.9954569,14.0081383 C15.8686387,13.6167747 18.7577296,13.2215929 21.5246387,12.3561383 C22.8540023,11.9405929 24.5416387,11.508502 25.4452751,12.5680474 C26.1885478,13.4392292 25.8309114,14.8494111 25.0297296,15.6671383 C24.2285478,16.4848656 23.1110933,16.8902292 22.083366,17.3942292 C19.4360933,18.6911383 17.2419114,20.7364111 15.0910023,22.7511383 C14.7187296,23.0998656 14.3210023,23.5026838 14.3012751,24.0117747 C14.2777296,24.6201383 14.7950933,25.0942292 15.2577296,25.4900474 C17.8680933,27.7230474 20.1660023,30.5071383 21.0295478,33.831502 C21.2312751,34.6091383 21.3470933,35.4593201 21.0270023,36.1962292 C20.6852751,36.9840474 19.9012751,37.4988656 19.0886387,37.7756838 C16.1842751,38.766502 12.9859114,37.170502 10.8000023,35.0170474 C8.61345689,32.8635929 7.03145689,30.1488656 4.78000234,28.063502 C5.00591144,36.5494111 4.56172962,45.0531383 3.45318416,53.4690474 C2.9275478,57.4596838 2.36118416,61.9129565 4.7405478,65.1590474 C5.09372962,65.6414111 5.5105478,66.0906838 5.73709325,66.6443201 C5.96427507,67.1973201 5.95218416,67.9062292 5.51691144,68.3160474 C4.89263871,68.9027747 3.85791144,68.5470474 3.17891144,68.0245929 C1.53263871,66.7575929 0.599729617,64.7377747 0.233184162,62.692502 C-0.133361292,60.6478656 0.00727507151,58.5497747 0.149820526,56.4771383 C0.68245689,48.706502 1.21572962,40.9358656 1.74836598,33.1645929 C1.86800234,31.4177747 1.98509325,29.6359565 1.55745689,27.937502 C1.31563871,26.9797747 0.900093253,26.033502 0.973911435,25.0484111 C1.04836598,24.0633201 1.87563871,23.0311383 2.84800234,23.2086838 C3.27372962,23.2863201 3.62627507,23.5739565 3.9565478,23.8533201 C5.65436598,25.291502 7.31527507,26.7990474 8.65100234,28.5783201 C9.49863871,29.7072292 10.2196387,30.9500474 11.2581842,31.9058656 C12.4857296,33.0366838 14.0690023,33.6864111 15.615366,34.3138656 C16.2587296,34.5747747 17.2240933,34.7007747 17.4372751,34.0402292 C17.582366,33.5915929 17.2120023,33.1556838 16.8798205,32.8209565 C14.9580023,30.8832292 13.3110933,28.6744111 12.0027296,26.2797747 C11.5547296,25.459502 11.1366387,24.5749565 11.1608205,23.6407747 C11.2244569,21.2276838 13.949366,19.9466838 15.531366,18.123502 C13.5427296,17.5615929 11.1366387,17.0913201 9.63227507,18.5078656 C9.30963871,18.8114111 9.00482053,19.2097747 8.62109325,19.3815929" id="Fill-200"></path>
            <path d="M179.280393,42.4038929 C178.582939,43.1121656 177.807211,43.7300747 177.210939,44.1825292 C176.413575,44.7889838 169.953211,46.1062565 169.97103,46.5587111 C169.97103,46.5599838 170.190575,57.5086201 170.343302,62.4124383 C170.380848,63.6011656 171.28003,64.5798929 172.461757,64.7160747 C176.547848,65.1863474 185.484939,66.1116201 187.603393,65.477802 C188.932121,65.0800747 190.852666,68.7811656 187.651121,69.1006201 C182.399211,69.6256201 177.117393,68.2415292 171.848302,68.5482565 C167.284939,68.8142565 162.897211,70.3364383 158.396211,71.1395292 C156.584484,71.462802 153.008121,72.2016201 152.702666,69.8292565 C152.444939,67.8291656 154.221666,66.3858929 156.088121,66.5965292 C158.258121,66.8415292 161.933757,65.8755292 164.355757,65.1271656 C165.77803,64.6880747 166.719211,63.342802 166.65303,61.8562565 C166.49203,58.218802 166.224121,51.5560747 166.290939,48.8254383 C166.343121,46.7114383 165.407666,46.5854383 163.76903,47.3318929 C162.104939,48.0904383 160.291302,48.4436201 158.56803,49.0099838 C156.498575,49.6902565 155.887666,48.3163474 155.34803,47.1250747 C154.634666,45.548802 156.200121,45.6518929 157.099939,45.107802 C158.72903,44.1214383 165.893211,42.9180747 165.893211,42.9180747 C165.893211,42.9180747 166.082848,42.3797111 165.748121,39.8603474 C165.461121,37.7005292 165.265121,37.4033474 166.330393,35.7831656 C166.943848,34.8496201 169.840575,35.9021656 169.993302,36.3978929 C170.262484,37.2690747 170.584484,40.2033474 170.261848,41.8992565 C173.009666,41.6205292 176.004393,40.333802 178.383121,38.2210747 C178.749666,37.8958929 179.114939,37.5541656 179.563575,37.3549838 C180.922848,36.7523474 181.080666,38.1905292 181.03803,39.2780747 C180.994757,40.3624383 180.206939,41.4633474 179.280393,42.4038929" id="Fill-202"></path>
            <path d="M100.715321,13.8905383 C106.466139,13.1141747 111.645502,10.7068111 116.797502,8.23199287 C117.281139,7.99972014 117.65723,7.47662923 118.151048,7.34935651 C119.189593,7.08144742 120.587048,6.87590196 121.108866,7.81453833 C122.253684,9.87381105 118.844048,11.6301747 119.031775,11.8376292 C119.461957,12.3129929 117.823321,18.4869929 121.897321,21.4766292 C122.13723,21.652902 122.328139,21.9278111 122.349139,22.2243565 C122.375866,22.5985383 122.065321,22.9014474 121.778321,23.1426292 C121.366593,23.4894474 120.787502,23.8445383 120.334411,23.5549929 C119.685321,23.1400838 119.633139,20.9013565 118.299957,22.1549929 C117.739321,22.6825383 117.808048,23.5276292 117.81823,24.2263565 C117.826502,24.8194474 117.76223,25.4736292 117.337139,25.887902 C116.814684,26.3969929 115.921866,26.3238111 115.314775,25.9190838 C114.257139,25.2133565 113.930048,23.7579929 114.163593,22.5088111 C114.397775,21.2589929 115.569321,20.2955383 115.683866,19.0298111 C115.986139,15.688902 115.895775,13.0880838 115.359321,13.3604474 C112.186411,14.9723565 110.810593,15.5921747 107.334139,16.472902 C105.400866,16.962902 103.337775,17.074902 101.384775,17.9963565 C100.591866,18.3711747 99.6055023,18.6938111 99.205866,19.5478111 C98.6967751,20.6372656 98.3671387,23.5085383 99.6424114,24.1830838 C101.160775,24.9868111 102.881502,24.3084474 104.210866,23.3227201 C105.01523,22.7264474 105.766775,21.9278111 106.858775,22.2332656 C106.993684,22.2771747 107.487502,23.9959929 107.430866,24.2123565 C106.770957,26.7075383 100.723593,28.2074474 98.7005933,27.595902 C96.7806842,27.0168111 95.2629569,24.3510838 95.7440478,22.2587201 C95.9012296,21.5733565 96.5006842,20.9847201 96.0985023,20.1536292 C94.6940478,20.5055383 94.2702296,21.9029929 93.6943205,22.8925383 C92.7219569,24.5655383 91.7254114,26.6470838 95.2126842,26.8780838 C95.9451387,26.9264474 96.9480478,27.9732656 96.4943205,28.7127201 C95.3380478,30.5944474 91.386866,29.7417201 90.2337751,28.1100838 C88.8121387,26.097902 88.7395933,23.9380838 90.8103205,22.1263565 C91.9137751,21.1616292 92.5857751,20.245902 91.5262296,18.6842656 C90.7040478,17.4719929 91.253866,16.122902 92.6265023,15.6933565 C94.6940478,15.0455383 96.8634114,14.7248111 98.9895023,14.2647201 C99.5647751,14.1399929 100.140048,14.0152656 100.715321,13.8905383" id="Fill-204"></path>
            <path d="M87.0418387,47.5215929 C87.2136569,47.2918656 87.4669296,47.0952292 87.8341114,46.9030474 C89.2029296,46.1871383 90.6029296,45.5208656 91.9819296,44.8246838 C94.684566,43.4596838 97.4311114,42.1411383 100.359021,41.3310474 C102.094384,40.8505929 102.387111,39.4614111 102.426566,37.7553201 C102.459021,36.3489565 102.624475,34.8649565 103.225839,33.5769565 C103.652202,32.6618656 105.189657,30.576502 106.353566,31.4667747 C107.561384,32.3901383 107.126111,32.8158656 106.692111,33.9982292 C106.402566,34.7860474 106.117475,35.5757747 105.861657,36.3750474 C105.735021,36.771502 105.690475,37.3906838 105.910657,37.6566838 C106.295021,38.1205929 106.945384,37.954502 107.425839,37.6738656 C110.186384,36.0594111 113.186202,34.8197747 115.636839,32.7242292 C116.488293,31.9968656 117.395111,31.2548656 118.229384,32.0993201 C119.129839,33.0112292 118.152384,33.8843201 117.513475,34.7071383 C114.701384,38.3267747 110.428839,39.7274111 106.654566,41.853502 C105.02993,42.7692292 104.347748,43.7804111 103.722839,45.640502 C102.542384,49.1564111 101.631111,52.7645929 100.269293,56.2187747 C98.4881114,60.7375929 95.8440205,64.8376838 94.0278387,69.3584111 C93.5092023,70.6489565 92.9479296,71.8529565 91.5383842,72.4142292 C90.8581114,72.6853201 90.218566,73.1695929 89.5153842,72.4804111 C88.8879296,71.8656838 88.9356569,71.1777747 89.280566,70.4574111 C90.1250205,68.6902292 90.8848387,66.8753201 91.8381114,65.1685929 C95.1707478,59.2007747 97.8084751,52.9618656 99.5979296,46.1457747 C96.9213842,46.5880474 94.2282933,47.6819565 91.8858387,49.0265929 C91.1234751,49.4637747 90.3452023,49.9054111 89.4873842,50.0956838 C88.7192933,50.2655929 86.7230205,50.2299565 86.7039296,49.0978656 C86.6918387,48.3883201 86.7522933,47.9078656 87.0418387,47.5215929" id="Fill-206"></path>
            <path d="M171.395466,14.1248474 C169.970648,14.3692111 168.55983,14.6791201 167.274375,15.2251201 C165.851466,15.8290292 164.315921,15.165302 163.729193,13.737302 C163.012648,11.9930292 162.535375,12.8234838 161.919375,13.4706656 C159.126375,16.4062111 156.544648,19.533302 153.771375,22.4860292 C151.183284,25.2414838 148.256011,27.5890292 145.567375,30.2331201 C144.888375,30.9006656 144.570193,30.614302 144.079557,29.9900292 C143.360466,29.0755747 143.198193,28.3513929 144.154648,27.4802111 C147.694739,24.2532111 151.375466,21.1636656 154.65083,17.6592111 C158.145739,13.919302 161.322466,9.79757469 164.58383,5.85021105 C165.272375,5.01721105 166.298193,4.54184742 166.912921,5.28130196 C169.07083,7.87639287 163.080102,9.27448378 164.658284,11.0015747 C164.880375,11.245302 165.533921,11.2503929 165.938011,11.1466656 C168.908557,10.384302 172.048375,10.6961201 174.983284,9.63084742 C176.138921,9.21148378 176.921011,10.0279383 177.272284,11.119302 C177.822739,12.8336656 176.396011,13.2721201 174.99983,13.5355747 C173.833375,13.7551201 172.609648,13.9161201 171.395466,14.1248474" id="Fill-208"></path>
            <path d="M26.3291842,65.6093383 C23.3809114,68.1102474 20.4631842,70.6448838 17.3437296,72.9599747 C17.1101842,73.1330656 16.8690023,73.3093383 16.588366,73.3869747 C15.6790023,73.6383383 14.7861842,72.6602474 14.8192751,71.7171565 C14.8517296,70.7734292 15.5230933,69.9703383 16.2695478,69.3925201 C19.4456387,66.9348838 22.4664569,64.2837929 25.6285478,61.7987929 C29.9551842,58.3974292 33.9350023,54.6600656 37.7939114,50.7769747 C39.0316387,49.5316111 41.543366,46.8181565 42.8784569,49.1147929 C43.426366,50.0566111 43.4982751,50.8749747 42.5144569,51.9338838 C38.9018205,55.8214292 34.6712751,58.8307929 30.5476387,62.1169747 C29.118366,63.2560656 27.7202751,64.4288838 26.3291842,65.6093383" id="Fill-210"></path>
            <path d="M179.727693,21.6574201 C180.311875,22.3052383 180.32333,23.3787838 179.428602,24.3263292 C176.602511,27.3191474 172.909693,28.9087838 169.326966,30.5773292 C165.861966,32.1911474 162.162148,33.301602 158.560966,34.6214201 C157.002511,35.1928747 155.505148,35.7185111 154.087966,34.1390565 C153.405148,33.3773292 153.461784,32.5710565 153.61833,31.8506929 C153.802239,30.9998747 154.703966,31.5032383 155.28433,31.4345111 C158.353511,31.0692383 160.979784,29.3987838 163.85233,28.4518747 C167.405148,27.2809656 170.949693,25.9547838 174.199602,24.0813292 C174.571875,23.8662383 178.196602,19.959602 179.727693,21.6574201" id="Fill-212"></path>
            <path d="M132.407248,69.5409201 C131.601611,70.083102 130.263975,69.7388292 129.299248,69.4308292 C128.004248,69.0171929 126.842248,68.263102 125.720339,67.5134656 C122.448793,65.3269201 119.325521,63.0430111 115.985884,60.9722838 C113.882702,59.6677383 112.030884,58.0106474 109.501975,57.7013747 C109.250611,57.6701929 108.980157,57.6377383 108.791157,57.469102 C108.360975,57.0860111 108.412521,55.7394656 108.597066,55.229102 C108.847157,54.5348292 109.459975,54.2293747 110.145339,54.0632838 C111.251339,53.7947383 112.583884,53.9932838 113.423884,54.8065565 C117.112248,58.3797383 122.122975,60.4472838 126.153702,63.629102 C127.186521,64.4449201 128.207884,65.3383747 129.41443,65.8932838 C131.112884,66.6747383 133.731521,65.6342838 133.02643,68.5768292 C132.915702,69.040102 132.695521,69.3468292 132.407248,69.5409201" id="Fill-214"></path>
            <path d="M54.8175933,55.4541201 C55.588866,55.5031201 56.0317751,55.149302 56.5631387,55.7309383 C58.3844114,57.7233929 60.3603205,59.6343929 62.6881387,61.0299383 C65.2883205,62.5896656 68.5083205,62.4267565 70.9519569,63.9381201 C71.7970478,64.4605747 74.0173205,65.5252111 72.0999569,66.5866656 C71.4591387,66.9411201 70.6757751,66.8583929 69.9496842,66.7654838 C67.3469569,66.4320292 64.6417751,66.4549383 62.2305933,65.2833929 C58.7375933,63.5855747 56.2551387,61.2399383 53.7313205,58.4424838 C53.1433205,57.7908474 52.5992296,57.1175747 52.9543205,56.2362111 C53.3412296,55.2733929 54.2467751,55.3605747 54.8175933,55.4541201" id="Fill-216"></path>
            <path d="M32.6684478,37.5496474 C32.7199933,38.4507383 31.9665387,39.0221929 30.7440842,38.3285565 C29.1347205,37.4147383 27.3478114,36.7026474 26.6389023,34.6039201 C26.2761751,33.529102 26.3449023,32.7190111 26.9189023,31.9439201 C27.485266,31.1790111 28.3278114,29.9336474 28.9107205,30.0068292 C30.1847205,30.1659201 29.7914478,31.5792838 29.8309023,32.5446474 C29.8811751,33.7861929 30.7173569,34.5358292 31.5548114,35.2001929 C32.182266,35.6978292 32.6340842,36.1763747 32.6684478,37.5496474" id="Fill-218"></path>
            <path d="M112.59343,4.21660196 C113.138157,4.89751105 113.07643,5.87051105 112.463611,6.49160196 C112.385975,6.56987469 112.307066,6.64814742 112.226248,6.72451105 C111.737521,7.18651105 111.262157,7.0159656 110.751793,6.66851105 C109.022793,5.49314742 108.02243,3.70114742 107.043702,1.98105651 C106.441702,0.92278378 107.190066,0.0535110525 108.485702,0 C108.814066,-0.013943493 111.280611,2.57669287 112.59343,4.21660196" id="Fill-220"></path>
        </g>
    </g>
</svg>