<?xml version="1.0" encoding="UTF-8"?>
<svg width="216px" height="140px" viewBox="0 0 216 140" version="1.1" xmlns="http://www.w3.org/2000/svg" xmlns:xlink="http://www.w3.org/1999/xlink">
    <title>img-sign-10</title>
    <g id="img-sign-10" stroke="none" stroke-width="1" fill="none" fill-rule="evenodd">
        <g id="Group-11" transform="translate(6.581217, 38.162352)" fill="#56D250">
            <path d="M165.451419,15.1507934 C159.508419,14.9490661 159.508419,14.9490661 160.126964,23.8995207 C161.701328,20.4377025 164.866601,18.6654298 165.451419,15.1507934 M160.083692,30.541248 C162.898328,29.6579752 164.096601,27.2658843 165.614328,25.2727934 C166.137419,24.586157 166.420601,23.6755207 167.398692,24.0484298 C168.432783,24.4423389 167.984146,25.5356116 167.853692,26.229248 C167.380873,28.7320661 165.597146,30.6456116 163.638419,31.7369752 C159.805601,33.8713389 160.386601,37.226248 160.771601,40.3577934 C161.120328,43.1915207 161.820964,46.0137934 162.748146,48.8029752 C163.857328,52.138157 167.896964,54.0510661 171.410964,53.5139752 C181.847328,51.9205207 190.71951,47.056157 198.359055,40.0256116 C201.837419,36.8240661 205.18151,33.1745207 205.81851,28.1007934 C206.286873,24.3704298 204.076783,21.9108843 200.242055,21.6773389 C196.558146,21.4533389 192.934055,22.2277934 189.293419,22.5956116 C187.636964,22.7629752 185.996419,22.8590661 184.343783,22.8635207 C183.748146,22.8654298 182.964146,22.9895207 182.974964,21.966248 C182.981964,21.3139752 183.360601,20.7927934 183.89451,20.7208843 C190.400692,19.8420661 196.871237,17.7637025 203.497055,19.5639752 C208.094783,20.8137934 210.491964,25.8429752 208.645237,30.212248 C205.58751,37.4470661 200.084873,42.667157 193.992964,47.3030661 C186.727601,52.8324298 178.529964,56.0594298 169.351055,56.3387934 C164.248692,56.4934298 160.977146,53.5133389 159.531328,48.6095207 C158.326692,44.5227934 157.16151,40.4850661 157.265873,36.1807025 C157.274146,35.8434298 157.192692,35.3349752 156.967419,35.1867025 C153.774783,33.077157 155.116237,30.6277934 156.176419,27.9824298 C157.326964,25.1105207 156.973783,22.0349752 156.464692,19.0478843 C155.851237,15.4568843 151.765146,22.2118843 150.955055,21.6410661 C150.314873,21.189248 150.036146,20.083248 150.545873,19.0466116 C151.36551,17.3793389 152.525601,15.836157 154.163601,15.2570661 C157.276692,14.156157 157.09851,11.7150661 156.611692,9.51961159 C156.028146,6.89079341 157.23151,4.80288432 157.778146,2.49479341 C158.084873,1.20233887 159.097328,1.61597523 159.740055,1.80497523 C160.657692,2.07415705 161.056692,2.92561159 160.422237,3.78533887 C158.572328,6.29452068 160.210964,8.97233887 159.965328,11.5534298 C159.883237,12.4137934 160.669146,12.224157 161.157237,12.2496116 C163.063783,12.3488843 167.027692,11.9148843 167.779873,14.4533389 C168.246964,16.0308843 167.50751,17.6065207 166.398964,18.9963389 C164.382964,21.525248 162.541328,24.1935207 160.627783,26.8038843 C159.843783,27.8729752 160.190601,29.1087934 160.083692,30.541248" id="Fill-96"></path>
            <path d="M42.3757007,32.7489843 C42.1097007,33.5966207 41.2385189,34.0325298 40.7790644,34.7554389 C40.5073371,35.1824389 39.8703371,35.564257 40.4449735,36.0924389 C40.8172462,36.4341661 41.4039735,36.7459843 41.8812462,36.7268934 C42.7097916,36.6950752 42.3356098,35.9244389 42.3610644,35.4630752 C42.4107007,34.5607116 42.3757007,33.6538934 42.3757007,32.7489843 M49.1822462,20.9177116 C45.7923371,20.967348 45.7108825,21.0309843 45.2145189,24.0855298 C46.4866098,23.2455298 47.694428,22.4704389 48.8697916,21.648257 C49.0486098,21.5228934 49.0759735,21.1811661 49.1822462,20.9177116 M48.2900644,13.1241661 C46.1245189,12.2631661 44.9058825,13.6701661 43.4817007,14.3020752 C42.6607916,14.6660752 41.926428,15.2464389 41.0877007,15.544257 C40.4793371,15.7599843 39.7952462,15.5926207 39.3663371,14.9581661 C38.9482462,14.3408934 39.1086098,13.8381661 39.4535189,13.1935298 C40.7459735,10.7715298 41.9347007,8.29352977 43.5478825,5.06398432 C40.3533371,6.35262068 38.4168825,8.00971159 36.4212462,9.60252977 C35.1351553,10.628348 34.0552462,13.2985298 32.3160644,11.9997116 C30.4897007,10.635348 33.204428,9.30534796 33.7243371,7.89643887 C34.338428,6.23107523 35.3846098,4.73052977 36.1431553,3.11162068 C37.005428,1.26934796 38.3640644,1.03516614 39.539428,2.43134796 C40.4736098,3.5418025 41.1258825,3.13198432 42.0155189,2.76162068 C43.1367916,2.29389341 44.2357916,1.79625705 45.279428,2.99898432 C46.2231553,4.08716614 45.8909735,5.21989341 45.5556098,6.37234796 C45.4531553,6.72362068 45.1947916,7.03416614 45.1152462,7.38734796 C44.8899735,8.39216614 43.4715189,9.37216614 44.425428,10.3127116 C45.2457007,11.1215298 46.2282462,9.94043887 47.1318825,9.59425705 C48.3689735,9.12016614 49.7059735,9.31234796 50.4626098,10.250348 C51.2020644,11.1679843 51.1377916,12.4031661 50.2907916,13.5460752 C49.2166098,14.9950752 48.464428,16.6699843 47.1420644,17.9624389 C46.819428,18.2780752 46.5400644,18.9424389 46.6495189,19.3318934 C46.8798825,20.1521661 47.5047916,19.469348 47.9667916,19.499257 C49.0912462,19.5711661 50.592428,18.8807116 51.1747007,20.3729843 C51.7130644,21.753257 50.6783371,22.7428025 49.752428,23.6407116 C49.2872462,24.0918934 48.8532462,24.593348 48.3282462,24.9630752 C44.8193371,27.437257 44.5119735,32.6458934 45.1521553,36.5945298 C45.8986098,41.2011661 50.9977916,42.2155298 54.4729735,44.1297116 C51.159428,45.3540752 48.2658825,44.536348 45.5288825,42.4070752 C44.5253371,47.5278934 44.7308825,52.5761661 44.6933371,57.614257 C44.6812462,59.2178934 44.7143371,61.5024389 43.7935189,62.8547116 C42.4603371,64.8128025 40.3495189,63.814348 39.7596098,61.9249843 C38.8012462,58.8558025 38.9107007,55.7064389 38.7796098,52.5379843 C38.7452462,51.7049843 38.2787916,50.3476207 38.4849735,49.543257 C38.6237007,48.9998025 39.9842462,47.233257 39.9651553,47.0436207 C40.2992462,50.4494389 40.596428,53.4868025 40.9069735,56.6546207 C41.989428,55.2940752 41.884428,53.8094389 41.8837916,52.3381661 C41.8818825,48.6128934 41.7151553,44.8736207 41.9881553,41.1674389 C42.1275189,39.281257 39.9823371,39.9328934 39.7392462,38.5328934 C39.6857916,38.2217116 38.4308825,38.7677116 37.922428,39.6159843 C36.4059735,42.144257 34.646428,44.4949843 32.4929735,46.5606207 C31.4385189,47.5730752 30.3248825,47.6271661 29.2195189,47.196348 C28.7887007,47.0277116 27.5827916,46.554257 28.3909735,45.3846207 C29.5657007,43.6836207 31.629428,44.7590752 32.8410644,42.3771661 C34.2487007,39.6089843 35.7377916,36.6568934 38.0687916,34.5206207 C37.5737007,33.8594389 37.208428,34.0401661 36.7737916,34.283257 C36.0909735,34.6650752 35.1867007,34.8820752 34.8131553,34.1057116 C34.4847916,33.422257 33.9661553,32.6134389 34.660428,31.6627116 C38.2196098,26.7881661 41.6960644,21.8538025 45.2323371,16.9620752 C46.1245189,15.7275298 47.1293371,14.5744389 48.2900644,13.1241661" id="Fill-98"></path>
            <path d="M143.35821,20.8820752 C141.269028,21.1964389 139.563573,22.0536207 138.098664,23.4058934 C137.417119,24.0346207 136.801119,24.770257 136.027937,25.253257 C135.247755,25.7400752 134.535028,26.7098934 133.330392,25.8845298 C131.980664,24.959257 133.059301,24.098257 133.296664,23.2525298 C133.927301,21.0061661 139.034119,11.4810752 141.581483,12.3166207 C142.572937,12.6411661 143.455573,13.1814389 142.228028,14.1970752 C140.611028,15.5340752 140.018573,17.5080752 138.673301,19.2389843 C140.09621,19.6615298 140.728119,18.6579843 141.62221,18.2348025 C143.156483,17.5080752 145.015301,17.292348 146.309028,18.4505298 C147.504755,19.5215298 146.261937,20.8120752 145.712755,21.9066207 C144.466119,24.3916207 142.634028,26.5641661 141.694119,29.2139843 C141.911119,29.3698934 142.046028,29.5506207 142.183483,29.5525298 C146.638028,29.6301661 146.645028,29.628257 146.236483,34.2399843 C146.191937,34.7465298 146.170937,35.1448934 146.801573,35.2308025 C148.999573,35.5279843 148.850664,37.410348 148.878028,38.8027116 C148.918755,40.8944389 149.690028,40.6564389 150.895937,39.6490752 C151.627755,41.1865298 150.461937,42.604348 151.124392,44.020257 C151.361119,44.5261661 150.684028,45.0078934 150.162846,45.1898934 C149.320301,45.4845298 148.656573,44.881257 148.278573,44.3428934 C147.512392,43.2521661 146.96321,42.009348 146.329392,40.8378025 C145.586755,41.6599843 145.518028,42.6698934 145.603301,43.703348 C145.684119,44.6871661 145.189028,46.0820752 144.749937,46.146348 C143.759119,46.2914389 142.220392,46.120257 141.836664,45.0365298 C140.451937,41.129257 138.016573,42.5025298 135.571028,43.5557116 C135.402392,43.628257 135.221664,43.6708934 134.774937,43.8140752 C135.932483,44.3855298 136.550392,46.5720752 137.975846,44.2359843 C138.041392,44.1290752 138.614119,44.1488025 138.663119,44.249348 C138.812664,44.5567116 138.931664,44.9538025 138.868028,45.2777116 C138.468392,47.3064389 136.56821,48.374257 134.696028,47.3541661 C132.807937,46.3245298 131.26921,44.753348 128.771483,45.131348 C127.865937,45.2681661 127.69221,44.046348 127.845573,43.1726207 C128.109664,41.6746207 129.304755,40.9809843 130.499846,41.3857116 C137.051846,43.600257 139.912301,38.8001661 143.302846,34.9049843 C143.901664,34.2170752 144.369392,33.2898934 143.899755,32.7038025 C143.173028,31.7957116 142.220392,32.6668934 141.43321,33.0359843 C141.032937,33.2230752 140.703937,33.604257 140.401028,33.9485298 C139.574392,34.8884389 138.46521,34.9240752 137.685028,34.2546207 C137.021937,33.686348 137.093846,32.7018934 137.549483,31.7231661 C139.273392,28.0176207 140.457664,24.0378025 143.35821,20.8820752" id="Fill-100"></path>
            <path d="M100.564155,31.2833116 C103.520064,29.904948 104.242973,28.1212207 102.984246,25.8971298 C101.292792,27.2697661 101.941883,29.6911298 100.564155,31.2833116 M102.912337,38.362857 C101.391428,39.4421298 99.9997007,40.574857 99.0209735,42.1384025 C98.5220644,42.9351298 97.9321553,43.7070389 96.785428,43.022948 C95.8086098,42.4394025 96.0160644,41.6140389 96.365428,40.8364025 C97.0157916,39.3874025 98.1777916,38.4112207 96.8885189,36.3004025 C95.6927916,34.3416752 97.3447916,31.6810389 98.0066098,29.512948 C99.0012462,26.2554025 99.7031553,22.7414025 102.274701,20.0877661 C102.813701,19.5315843 102.966428,18.3740389 103.94961,18.8315843 C104.977337,19.3101298 104.689064,20.720948 104.281155,21.2344934 C103.461519,22.2647661 103.336792,22.6860389 104.666792,23.2097661 C105.375701,23.4891298 105.549428,24.229857 105.602246,25.0526752 C105.72061,26.8815843 104.679519,29.150857 107.40061,30.1295843 C108.004519,30.3465843 107.398701,30.9091298 107.296883,31.3074934 C106.942428,32.692857 105.987246,33.6550389 105.050519,34.6662207 C104.461246,35.3025843 103.127428,35.8040389 105.143428,36.9043116 C106.416155,37.5992207 105.870155,39.9054025 104.944246,41.3537661 C103.87261,43.0305843 102.650792,44.6113116 101.553064,46.272857 C101.179519,46.8385843 100.109155,47.3744025 100.721973,48.078857 C101.26161,48.6986752 102.294428,49.2014025 103.223519,48.8265843 C104.913701,48.1437661 106.274246,46.0036752 108.161701,45.7701298 C108.595701,45.7160389 106.617883,49.7111298 106.138064,50.0923116 C104.353064,51.5114025 102.261973,51.5044025 100.683155,50.2857661 C99.2246098,49.1587661 100.310246,48.239857 98.1701553,50.0121298 C95.7328825,52.0306752 94.3411553,55.0470389 91.479428,56.6417661 C90.5815189,57.1425843 89.8547916,57.682857 89.1153371,56.7340389 C88.504428,55.9500389 88.504428,55.0082207 89.3037007,54.2477661 C90.4147916,53.1907661 91.6722462,52.2572207 92.8361553,51.3504025 C97.1946098,47.9560389 101.13561,43.9284934 102.912337,38.362857" id="Fill-102"></path>
            <path d="M102.114783,7.17639341 C99.5636007,8.68457523 97.6615098,11.0060298 94.7966007,11.872757 C93.5766916,12.241848 93.0198735,11.877848 92.7946007,10.7750298 C92.5616916,9.63848432 92.7061462,8.63112068 94.2257825,8.79275705 C96.293328,9.0123025 97.3172371,7.73002977 98.2151462,6.20402977 C98.5937825,5.56066614 97.602328,2.83893887 96.8705098,2.43166614 C96.3728735,2.15421159 95.9656007,1.78384796 96.0540553,1.11821159 C96.1310553,0.535938866 96.5618735,0.491393411 97.0289644,0.358393411 C100.094964,-0.512152043 101.582146,0.130575229 103.276146,3.08966614 C103.976783,4.31402977 103.913146,2.2433025 104.56351,2.78675705 C105.503419,3.57139341 105.694964,4.58766614 105.519964,5.87566614 C105.658692,4.85493887 108.44851,3.64457523 109.140237,4.62202977 C109.520146,5.15912068 105.967964,9.97957523 105.712783,11.0900298 C107.392783,10.2182116 108.986237,9.52839341 110.42951,8.60375705 C111.816146,7.71539341 112.28451,8.90221159 112.68351,9.58693887 C113.168419,10.4199389 112.630692,11.2421207 111.680601,11.4731207 C106.528601,12.726757 102.992328,16.5303025 98.9686007,19.5390298 C97.0569644,20.9683025 95.3782371,22.7081207 93.5881462,24.3009389 C92.7971462,25.004757 92.0131462,26.271757 90.8766007,24.9513025 C89.8794189,23.791848 90.441328,22.5496661 91.561328,21.8821207 C93.8961462,20.4903934 95.6200553,18.4603934 97.4165098,16.5322116 C98.939328,14.8980298 100.218419,13.0245752 101.50451,11.186757 C102.313328,10.0311207 102.47751,8.68139341 102.114783,7.17639341" id="Fill-104"></path>
            <path d="M73.6914735,34.4319116 C72.0992916,37.4909116 70.559928,40.3189116 69.1522916,43.2111843 C68.5343825,44.4813661 67.5391098,44.5010934 66.4280189,44.4406389 C66.0054735,44.4183661 65.4448371,44.582548 65.3595644,43.8990934 C65.3022916,43.4351843 65.316928,42.9948207 65.7216553,42.6320934 C68.9804735,39.7156389 69.9903825,35.601548 71.4864735,31.7490025 C72.5383825,29.0400025 73.5272916,26.3061843 74.4054735,23.535457 C74.9317462,21.8758207 76.0892916,15.0043661 78.8205644,16.0028207 C79.778928,16.353457 79.3748371,17.247548 79.1132916,17.8800934 C77.8666553,20.8869116 77.6025644,24.2430934 75.9683825,27.0901843 C74.5435644,29.5732752 76.3202916,31.6930025 76.656928,33.9120025 C77.1354735,37.0658207 77.0126553,40.165548 77.0012007,43.296457 C76.9897462,46.4127298 76.1522916,49.5220025 77.0603825,52.6548207 C77.356928,53.6768207 77.0928371,54.8006389 75.7596553,54.9826389 C74.2463825,55.189457 74.1592007,53.864548 74.1261098,52.9507298 C73.9396553,47.8070025 73.7442916,42.6562752 73.8601098,37.514457 C73.8830189,36.5121843 73.6431098,35.6187298 73.6914735,34.4319116" id="Fill-106"></path>
            <path d="M9.92083709,41.4032752 C7.49883709,43.8322752 5.81501891,46.831457 3.19574618,49.0326389 C2.498928,49.6180934 0.677018909,51.1708207 0.114473455,49.4341843 C-0.529526545,47.445548 1.68883709,45.114548 3.14610982,44.1829116 C6.58947345,41.9836389 7.96274618,38.9017298 9.96856436,35.496548 C11.5333825,32.8390934 12.8162916,30.0053661 13.5061098,26.9896389 C13.7275644,26.0198207 14.2983825,25.1448207 14.0680189,24.0553661 C13.8287462,22.9239116 14.0228371,22.1380025 15.560928,22.2041843 C17.3503825,22.2818207 17.6297462,23.4018207 17.3058371,24.646548 C16.7572916,26.7541843 15.9427462,28.7930934 15.2166553,30.8530025 C14.5917462,32.6227298 14.006928,34.3733661 12.9632916,36.0069116 C11.9234735,37.6353661 12.6883825,41.4860025 12.564928,43.4237298 C12.4382916,45.410457 12.823928,56.0326389 10.4668371,55.8188207 C9.45629164,55.726548 8.98029164,55.5070025 8.973928,54.3901843 C8.94910982,50.0629116 9.42129164,45.7840025 9.92083709,41.4032752" id="Fill-108"></path>
            <path d="M16.8964007,13.0952116 C17.4602189,13.6342116 8.90176436,27.9466661 7.73976436,29.1493934 C6.75021891,30.1739389 5.44630982,31.325757 3.728128,31.1100298 C3.39340073,31.0686661 2.81430982,30.4119389 2.87603709,30.1809389 C3.26103709,28.7421207 4.24103709,27.8569389 5.50294618,26.9666661 C9.29503709,24.2901207 10.8394916,19.9552116 12.8593098,16.0180298 C13.6840371,14.4105752 14.991128,12.9615752 16.8588553,13.0799389 C16.874128,13.0805752 16.8868553,13.0856661 16.8964007,13.0952116" id="Fill-110"></path>
            <path d="M113.700801,40.7972661 C113.375619,44.0509934 113.747892,47.3168116 113.455164,50.5775389 C113.241983,52.9499025 112.387346,54.9277207 111.30871,56.9558116 C110.57371,58.3386298 109.736892,58.0427207 108.903255,57.4006298 C108.140892,56.8132661 108.222346,56.3239025 109.064892,55.4699025 C110.704164,53.8102661 111.219619,51.496448 111.071346,49.1832661 C110.896346,46.4596298 111.535892,43.7175389 110.640528,40.9856298 C110.328073,40.0317207 111.061801,38.5229025 112.114983,38.4338116 C113.306255,38.3332661 113.892346,39.5328116 113.700801,40.7972661" id="Fill-112"></path>
        </g>
    </g>
</svg>