<?xml version="1.0" encoding="UTF-8"?>
<svg width="216px" height="140px" viewBox="0 0 216 140" version="1.1" xmlns="http://www.w3.org/2000/svg" xmlns:xlink="http://www.w3.org/1999/xlink">
    <title>img-sign-1</title>
    <defs>
        <polygon id="path-1" points="0 0 64.6430777 0 64.6430777 77.833732 0 77.833732"></polygon>
    </defs>
    <g id="img-sign-1" stroke="none" stroke-width="1" fill="none" fill-rule="evenodd">
        <g id="Group" transform="translate(18.668281, 20.363636)">
            <g id="Group-149" transform="translate(0.000000, 0.000000)">
                <mask id="mask-2" fill="white">
                    <use xlink:href="#path-1"></use>
                </mask>
                <g id="Clip-148"></g>
                <path d="M38.5702098,35.7263455 C36.250028,37.6685273 33.7293916,39.2537091 32.1881189,42.2802545 C34.5611189,41.5751636 37.1167553,43.3219818 38.5123007,42.1599818 C40.0796644,40.8554364 38.7184826,38.1362545 38.9443916,36.0458 C38.9494826,35.9999818 38.8253916,35.9401636 38.5702098,35.7263455 M58.8409371,8.15525455 C58.4527553,6.41670909 59.1145735,4.07743636 56.7135735,3.26989091 C54.5843007,2.55334545 53.1429371,3.78852727 51.7607553,5.33807273 C47.9438462,9.61570909 46.4229371,14.8631636 45.1705735,20.2455273 C44.8842098,21.4749818 45.1514826,21.7269818 46.5139371,21.2885273 C49.0485735,20.4720727 51.2325735,19.0523455 53.1925735,17.4328 C56.0638462,15.0591636 59.2749371,12.6963455 58.8409371,8.15525455 M46.8645735,25.3472545 C47.8802098,26.5868909 49.1841189,27.0851636 48.9512098,28.6983455 C48.8194826,29.6115273 48.4389371,29.8788 47.6352098,29.7808 C44.4572098,29.3932545 42.3266644,30.6176182 42.7224826,33.4901636 C43.0909371,36.1584364 42.158028,38.5772545 42.3807553,41.1348 C42.4978462,42.4781636 42.7632098,43.1107091 44.314028,43.3983455 C49.7511189,44.4069818 55.136028,45.6937091 60.5502098,46.8328 C61.6498462,47.0644364 62.8404826,47.1121636 63.5112098,48.1379818 C64.1743007,49.1523455 65.3401189,50.5841636 64.0883916,51.4534364 C62.486028,52.5664364 60.9231189,54.5188 58.4584826,53.4948909 C58.0066644,53.3078 57.7336644,53.0710727 57.7635735,52.4296182 C57.873028,50.0839818 56.0746644,48.7775273 53.3917553,49.1561636 C51.9949371,49.3534364 43.9137553,48.0240727 42.6461189,47.2820727 C42.5035735,49.8478909 41.8443007,52.2552545 43.7871189,54.4335273 C44.5463007,55.2843455 44.4451189,56.4278909 43.7712098,57.4180727 C43.3823916,57.9901636 42.7269371,58.1365273 42.2293007,57.8412545 C37.0722098,54.7886182 42.8198462,46.7125273 35.6823916,46.2199818 C33.8643007,46.0946182 32.0633916,45.6122545 30.2491189,45.5778909 C27.1137553,45.5187091 25.9123007,48.3893455 24.3576644,50.2507091 C18.946028,56.7327091 13.4433916,63.1300727 7.81220983,69.4198909 C6.07302801,71.3627091 4.22120983,73.1788909 4.30584619,76.1316182 C4.35102801,77.6868909 3.15339165,77.9904364 1.8259371,77.7696182 C-0.346608351,77.4075273 0.0371189215,75.4418 0.0110280124,74.1773455 C-0.00742653303,73.2858 0.660118922,72.1486182 1.50711892,71.2418 C5.54420983,66.9183455 9.62584619,62.6088909 13.3084826,57.9895273 C15.9233007,54.7090727 39.5864826,31.2616182 38.6115735,29.1628909 C37.734028,27.2728909 36.2971189,29.3569818 35.0358462,29.2233455 C32.1034826,28.9115273 28.9477553,29.7381636 26.5734826,27.1290727 C25.9078462,26.3972545 25.0137553,25.6921636 25.5769371,24.6498 C26.2082098,23.4801636 27.6158462,23.7372545 28.4488462,24.0732545 C31.7522098,25.4077091 34.8672098,24.9228 38.2424826,24.1827091 C40.5251189,23.6818909 40.8611189,22.5943455 41.2919371,20.8150727 C42.900028,14.1663455 44.9408462,7.66525455 49.7078462,2.48398182 C52.1635735,-0.184927273 55.6113916,-0.696563636 58.2885735,0.915981818 C61.3628462,2.76716364 62.8264826,9.2708 60.7799371,12.7822545 C58.3095735,17.0223455 54.9043916,20.4491636 50.6687553,22.9214364 C49.3769371,23.6755273 48.829028,25.4649818 46.8645735,25.3472545" id="Fill-147" fill="#56D250" mask="url(#mask-2)"></path>
            </g>
            <path d="M95.6412735,50.8780364 C93.0353644,50.6610364 90.8889098,51.8834909 88.6056371,52.7629455 C87.2794553,53.2739455 85.5103644,55.1168545 84.4094553,52.2112182 C83.4663644,49.7230364 85.1692735,49.3100364 86.825728,48.7048545 C90.248728,47.4537636 93.0684553,45.3435818 94.4544553,41.9460364 C96.1459098,37.7982182 95.7042735,33.6968545 93.2911826,29.8188545 C92.6860007,28.8464909 91.0499098,27.5884 92.9698189,26.4881273 C94.7796371,25.4502182 95.7806371,26.8419455 96.3800916,28.3259455 C97.3670916,30.7676727 98.6888189,32.3910364 99.3563644,35.0166727 C99.4346371,35.3246727 99.5205462,35.6466727 99.7388189,35.8776727 C100.011183,36.1665818 100.429273,36.2518545 100.819364,36.3231273 C102.143001,36.5643091 109.105455,36.9054 109.105455,38.8246727 C109.126455,40.1050364 108.185273,40.2068545 107.094546,40.2412182 C104.969092,40.3074 102.85191,40.6134909 100.725819,40.7261273 C97.9773644,40.8718545 98.3865462,43.7374 96.9496371,45.0018545 C96.9050916,45.0406727 96.9184553,45.2455818 96.9680916,45.2780364 C103.735819,49.7955818 96.737728,54.1604 96.6225462,58.5863091 C96.5818189,60.1721273 94.8865462,62.3491273 96.1879098,63.5734909 C97.8195462,65.1090364 100.114273,66.2716727 102.664183,66.1049455 C102.851273,66.0928545 103.039001,66.0247636 103.218455,65.9611273 C104.31491,65.5723091 105.458455,65.1554909 106.432092,66.1195818 C107.392364,67.0703091 106.567637,68.0464909 106.047092,68.7134 C105.223001,69.7691273 104.493728,71.1952182 102.544546,70.3533091 C101.225364,69.7831273 99.7362735,69.6138545 98.3598189,69.0538545 C95.8270916,68.0229455 94.1642735,69.0048545 94.1019098,71.8525818 C94.0535462,74.0671273 93.0939098,75.9679455 92.733728,78.0533091 C92.4740916,79.5519455 91.4966371,80.4282182 89.779728,80.0960364 C87.8350007,79.7199455 88.673728,78.1583091 88.799728,77.2845818 C89.1840916,74.6163091 89.9006371,71.9964 90.6610916,68.5765818 C88.4618189,70.2069455 86.6539098,71.3657636 85.0680916,72.7746727 C83.6203644,74.0601273 82.3240916,75.5473091 81.1290007,77.0764909 C80.2635462,78.1824909 79.0353644,78.2009455 78.1870916,77.8134 C76.9080007,77.2292182 77.9414553,76.2326727 78.2742735,75.3780364 C79.7016371,71.7151273 82.7886371,69.3071273 85.8209098,67.5475818 C89.9674553,65.1414909 92.4136371,61.9393091 93.4439098,57.5426727 C93.9759098,55.2708545 95.0061826,53.2134909 95.6412735,50.8780364" id="Fill-150" fill="#56D250"></path>
            <path d="M136.187755,23.4322455 C137.356755,23.4322455 138.567119,23.6244273 139.685846,23.3857909 C141.261483,23.0491545 142.545028,22.9282455 142.242755,20.1950636 C141.913755,17.2130636 140.956664,13.7156091 143.605846,10.8182455 C144.552755,9.78288182 145.469755,9.72433636 146.305937,10.0291545 C147.086119,10.3136091 146.646392,11.3082455 146.487301,12.0871545 C145.993483,14.4951545 144.881755,16.8910636 146.064755,19.4066091 C146.320573,19.9494273 145.789846,20.8556091 146.851937,21.0287 C147.809028,21.1839727 148.632483,20.8657909 149.16321,20.1352455 C149.655119,19.4587909 149.861301,18.5799727 150.316937,17.8697909 C150.784664,17.1398818 151.344664,16.3787909 152.378119,16.4780636 C153.618392,16.5970636 153.227028,17.5331545 153.188846,18.2598818 C153.104846,19.8692455 154.361028,19.4008818 154.990392,19.2061545 C157.393937,18.4654273 159.847755,18.2013364 162.331483,18.1033364 C163.053119,18.0753364 163.992392,17.7826091 164.224664,18.9070636 C164.40921,19.8005182 163.825664,20.0054273 163.139664,20.5202455 C160.728483,22.3287909 158.026483,22.9963364 155.159028,23.3603364 C153.872937,23.5238818 153.113119,24.0177 153.122664,25.5812455 C153.137301,28.0166091 152.97821,30.4188818 154.455846,32.5685182 C155.482937,34.0620636 154.963664,35.0134273 153.372119,35.7331545 C147.764483,38.2690636 142.87721,41.8963364 138.744664,46.3928818 C135.959937,49.4238818 132.362573,51.8617909 131.094937,56.1744273 C130.717573,57.4598818 129.288301,58.7090636 127.961483,57.7061545 C127.031119,57.0023364 126.44821,55.4922455 127.046392,53.8676091 C128.694573,49.3907909 132.253119,46.5481545 135.665937,43.6495182 C140.045392,39.9299727 144.405755,36.1518818 149.480755,33.3353364 C150.441028,32.8027 149.817392,26.6477909 148.771846,26.3105182 C147.941392,26.0426091 146.743755,25.8033364 146.67121,27.3719727 C146.653392,27.7614273 146.652119,28.1527909 146.661028,28.5428818 C146.693483,29.9479727 146.434483,31.7049727 145.101301,31.8748818 C143.935483,32.0231545 143.411755,30.4055182 143.294028,29.0545182 C143.146392,27.3675182 141.817028,27.2459727 140.494028,27.2561545 C138.165573,27.2733364 135.834573,27.2345182 133.510573,27.3490636 C131.831846,27.4324273 130.268301,27.0881545 130.332573,25.2172455 C130.393664,23.4405182 132.090846,23.3107 133.562755,23.3654273 C134.437755,23.3978818 135.311483,23.4755182 136.186483,23.5321545 C136.186483,23.4990636 136.187119,23.4653364 136.187755,23.4322455" id="Fill-152" fill="#56D250"></path>
            <path d="M46.8401371,90.5470364 C46.8566826,88.4718545 45.718228,86.9687636 44.5466826,87.7654909 C42.1189553,89.4162182 39.7376826,91.1401273 37.4028644,92.9200364 C36.8734098,93.3234909 36.0149553,94.1654 37.0910462,94.7667636 C38.4496826,95.5265818 39.9635916,96.6001273 41.5755007,95.8772182 C43.8944098,94.8374 46.5715916,93.9904 46.8401371,90.5470364 M33.2416826,60.2274909 C34.4539553,59.3410364 37.4760462,59.0215818 38.704228,58.0403091 C39.2279553,57.6222182 40.0297735,57.9594909 40.4516826,58.6334 C40.8933189,59.3384909 40.3256826,59.7336727 39.9018644,60.0614 C39.047228,60.7206727 38.6647735,61.2545818 39.8764098,61.9552182 C43.5507735,64.0813091 45.9097735,69.1709455 44.5059553,72.9025818 C43.3375916,76.0099455 45.2606826,78.2524909 45.9657735,80.8329455 C46.2616826,81.9166727 47.1055007,81.4343091 47.8449553,81.0302182 C50.7213189,79.4603091 53.6645007,78.0081273 56.5039553,76.3764909 C57.4839553,75.8133091 58.4117735,75.0318545 59.2091371,76.2345818 C59.9594098,77.3666727 59.4445916,78.4987636 58.311228,79.2102182 C55.6015916,80.9124909 52.8754098,82.5886727 50.1371371,84.2444909 C49.3671371,84.7103091 48.7670462,84.9324 49.211228,86.1968545 C50.7728644,90.6412182 49.6541371,95.4012182 46.6256826,97.3052182 C41.700228,100.4024 37.0827735,100.327945 32.8738644,97.5171273 C30.8018644,96.1336727 30.9189553,93.8402182 32.6123189,91.7987636 C35.0457735,88.8644909 38.1817735,86.7644909 41.2789553,84.7911273 C43.3095916,83.4980364 43.072228,82.2927636 42.2500462,81.0085818 C39.5187735,76.7417636 42.6865916,69.5699455 39.7758644,66.6725818 C38.4923189,65.3947636 36.6977735,64.7921273 35.1991371,63.7745818 C32.4436826,61.9043091 32.3195916,60.9020364 33.2416826,60.2274909" id="Fill-154" fill="#56D250"></path>
            <path d="M149.659573,62.6172273 C148.58921,62.6172273 147.51821,62.6197727 146.447846,62.6159545 C146.07621,62.6146818 145.658755,62.5255909 145.573483,63.0620455 C144.346573,70.7887727 138.508573,75.6213182 134.097937,81.3485909 C131.858573,84.2567727 129.044573,86.6985 127.137392,89.8733182 C126.530937,90.8832273 125.862119,91.4502273 124.557573,91.1886818 C123.751301,91.0276818 122.902392,91.0677727 122.894755,90.0292273 C122.886483,88.9009545 122.526301,87.6097727 123.633573,86.7519545 C128.243392,83.1800455 131.672119,78.4830455 135.417119,74.1233182 C138.089846,71.0115 140.114755,67.3447727 142.435573,63.9300455 C142.964392,63.1511364 142.853664,62.6363182 141.850755,62.5873182 C140.551301,62.5243182 140.107119,61.7492273 140.318392,60.6419545 C140.520119,59.5862273 141.479755,59.0815909 142.415846,59.1375909 C145.88021,59.3456818 149.242119,58.3535909 152.727483,58.5171364 C157.098028,58.7220455 159.420755,61.4539545 158.261301,65.7506818 C157.369119,69.0572273 155.460664,71.8196818 153.347937,74.4504091 C152.863664,75.0530455 152.36221,75.6429545 151.856937,76.2277727 C150.436573,77.8702273 148.030483,77.6933182 147.037755,75.7937727 C146.518483,74.7997727 146.155119,73.5283182 148.068028,73.7955909 C149.825664,74.0412273 150.57721,72.9384091 151.430573,71.7834091 C152.55121,70.2663182 153.206028,68.4883182 154.146573,66.8732273 C155.747028,64.1279545 154.592664,62.6146818 151.411483,62.5879545 C150.827301,62.5828636 150.243755,62.5866818 149.659573,62.5866818 L149.659573,62.6172273 Z" id="Fill-156" fill="#56D250"></path>
            <path d="M121.946255,45.8032909 C120.233801,46.3671091 118.66071,46.8329273 117.125164,47.4005636 C113.28471,48.8196545 113.27071,48.8635636 116.435346,51.3994727 C116.988983,51.8436545 117.434437,53.2525636 118.484437,52.1866545 C119.977983,50.6708364 121.336619,49.0220182 122.742346,47.4209273 C123.080255,47.0365636 123.313801,46.5573818 122.861983,46.1469273 C122.615073,45.9222909 122.193801,45.8892 121.946255,45.8032909 M126.739983,66.1052 C122.787528,66.1128364 120.498528,63.4630182 118.648619,60.5669273 C117.366346,58.5592 116.435346,58.5070182 114.961528,60.1087455 C114.17371,60.9652909 113.263073,61.7104727 112.497528,62.5848364 C111.056801,64.2311091 109.301073,63.6800182 108.133346,62.6885636 C106.946528,61.6812 106.406892,59.8815636 107.059801,58.2442 C107.509073,57.1172 108.709255,56.9307455 109.35071,57.9699273 C110.971528,60.5949273 111.615528,57.8254727 112.489255,57.3876545 C113.76771,56.7462 114.39071,55.5135636 113.316528,54.0989273 C112.967801,53.6394727 112.493073,53.2767455 112.086437,52.8586545 C109.036346,49.7213818 109.343073,47.8708364 113.357892,45.6639273 C116.061164,44.1786545 118.958528,43.0694727 121.928437,42.3491091 C123.619892,41.9386545 125.532164,42.2186545 126.768619,43.9355636 C128.218255,45.9477455 126.554801,47.5450182 125.731346,48.8801091 C124.469437,50.9260182 122.520255,52.5481091 120.860619,54.3490182 C120.128801,55.1425636 120.218528,55.6134727 121.132983,56.3790182 C123.726164,58.5502909 124.726528,62.3786545 128.500164,63.3917455 C129.273346,63.5992 129.094528,64.5722 128.920164,65.1862909 C128.603255,66.3012 127.600983,66.0937455 126.739983,66.1052" id="Fill-158" fill="#56D250"></path>
            <path d="M152.604092,40.5265636 C154.860637,40.6544727 158.045637,40.8288364 161.229364,41.0165636 C163.242183,41.1355636 164.096819,42.7850182 165.167819,44.0991091 C165.701728,44.7539273 165.281728,45.6302 164.756092,45.8682 C164.100001,46.1666545 163.578183,46.9035636 162.468364,46.3677455 C158.266455,44.3377455 153.778183,44.1188364 149.214819,44.7889273 C148.448637,44.9015636 147.674183,45.0116545 146.902273,45.0205636 C146.005637,45.0301091 145.504183,44.2442 145.192364,43.6402909 C145.009728,43.2864727 145.930546,42.9740182 146.347364,42.6418364 C147.936364,41.3742 149.447092,40.0766545 152.604092,40.5265636" id="Fill-160" fill="#56D250"></path>
            <path d="M70.791528,72.9785 C69.1338007,73.4958636 69.0708007,72.6125909 68.6011644,71.6873182 C67.963528,70.4311364 68.7927098,70.4368636 69.4112553,70.1422273 C73.3427098,68.2719545 76.4456189,65.4255 79.1603462,62.0725 C79.8278916,61.2477727 80.6876189,59.7415 81.837528,60.7221364 C82.3167098,61.1306818 81.9998007,63.3789545 81.3157098,64.0859545 C78.428528,67.0743182 76.0313462,70.5864091 72.3779826,72.8085909 C71.7066189,73.2165 71.0562553,72.8525 70.791528,72.9785" id="Fill-162" fill="#56D250"></path>
            <path d="M79.9965916,46.2071273 C77.4155007,46.0747636 75.1175916,44.9554 73.0653189,43.4784 C72.4225916,43.0157636 71.1816826,42.0058545 72.4143189,40.6478545 C73.3281371,39.6424 74.1414098,39.0524909 75.5458644,39.6882182 C77.5695007,40.6045818 79.3284098,41.9326727 81.2177735,43.0539455 C82.2964098,43.6934909 82.4485007,44.5284 82.2213189,45.4931273 C81.9139553,46.7995818 80.7761371,45.9080364 79.9965916,46.2071273" id="Fill-164" fill="#56D250"></path>
            <path d="M72.2999007,53.8412636 C74.2529007,54.0996273 75.9481735,54.2809909 77.6262644,54.5629 C78.5439007,54.7169 79.1993553,55.3844455 79.2935371,56.2823545 C79.4080826,57.3724455 78.5789007,57.7606273 77.632628,57.8560818 C75.6929916,58.0508091 73.8793553,58.1093545 71.8888098,57.3629 C70.3647189,56.7914455 69.7964462,56.2747182 69.9937189,54.8448091 C70.2444462,53.0337182 71.8067189,54.4712636 72.2999007,53.8412636" id="Fill-166" fill="#56D250"></path>
        </g>
    </g>
</svg>