<?xml version="1.0" encoding="UTF-8"?>
<svg width="216px" height="140px" viewBox="0 0 216 140" version="1.1" xmlns="http://www.w3.org/2000/svg" xmlns:xlink="http://www.w3.org/1999/xlink">
    <title>img-sign-2</title>
    <g id="img-sign-2" stroke="none" stroke-width="1" fill="none" fill-rule="evenodd">
        <g id="Group-2" transform="translate(19.940873, 32.978370)" fill="#56D250">
            <path d="M44.4820361,25.0830031 C43.0979452,28.5028213 42.6703088,32.1466395 41.8907633,35.714094 C41.4236724,37.8516395 42.0893088,38.1596395 43.8087633,37.4914576 C48.5719452,35.6402758 53.3542179,33.8260031 58.039127,31.7902758 C59.6230361,31.1017304 61.2355815,30.9744576 62.841127,30.604094 C63.6983088,30.4061849 64.1965815,30.6715486 64.2716724,31.4447304 C64.3289452,32.039094 63.842127,32.3547304 63.2248542,32.5481849 C57.6178542,34.3083667 52.3213997,36.8601849 46.8823997,39.0480031 C46.2320361,39.3095486 45.3493997,39.3929122 45.9723997,40.7916395 C46.9619452,43.0131849 44.4903088,44.618094 44.3522179,46.8453667 C44.1816724,49.5823667 43.2945815,52.2697304 42.8274906,54.9978213 C42.7065815,55.7022758 42.7212179,57.2893667 43.990127,56.2495486 C45.9590361,54.6357304 47.420127,52.4250031 50.0826724,51.5805486 C49.1147633,50.4090031 48.5286724,50.8570031 47.994127,50.8156395 C47.0090361,50.7380031 46.3198542,50.2333667 46.3968542,49.231094 C46.4643088,48.3471849 47.1929452,48.0423667 48.0520361,48.1021849 C52.306127,48.3987304 55.3008542,45.8488213 58.3916724,43.5184576 C60.7404906,41.7468213 63.0956724,39.9828213 65.4304906,38.1927304 C66.3748542,37.4685486 67.6119452,37.3317304 68.2374906,38.0998213 C69.1729452,39.2471849 68.1337633,40.1291849 67.1709452,40.8546395 C62.988127,44.0071849 58.1593997,46.2529122 54.5633088,49.9470031 C55.0513997,49.4455486 66.1502179,58.5181849 67.1709452,59.5465486 C67.2963088,59.6725486 67.4254906,59.8017304 67.5903088,59.8685486 C69.190127,60.5182758 71.5847633,57.2906395 72.3706724,56.2508213 C71.0457633,54.5727304 69.5884906,53.0804576 70.7733997,50.8767304 C71.6719452,49.2050031 73.4830361,48.1970031 74.7016724,46.7893667 C78.4708542,42.4296395 82.917127,38.696094 87.3525815,34.9752758 C88.9994906,33.5943667 90.8952179,33.1635486 92.6496724,32.242094 C92.990127,32.0696395 93.3783088,32.3197304 93.5354906,32.5997304 C94.3525815,34.0512758 85.7979452,39.6105486 84.9375815,40.3519122 C81.5005815,43.3122758 78.3970361,46.6315486 75.1662179,49.8095486 C73.9456724,51.0103667 73.159127,51.9000031 73.2463088,53.662094 C73.2965815,54.6675486 73.8922179,55.2358213 73.8603997,56.3246395 C73.7407633,60.3197304 68.4907633,64.7106395 64.8399452,61.4149122 C62.5165815,59.3174576 60.0264906,57.4554576 57.5745815,55.5349122 C52.8896724,51.8637304 51.8224906,51.9350031 47.5963997,56.0096395 C46.9307633,56.651094 46.2473088,57.2588213 45.4556724,57.8003667 C44.1994906,58.6594576 42.8472179,59.2983667 41.7036724,58.4475486 C40.3494906,57.4414576 39.7640361,55.748094 40.1433088,53.9452758 C40.7293997,51.1650031 41.1220361,48.3459122 42.3597633,45.7190031 C42.9083088,44.5557304 43.143127,43.1926395 42.5894906,41.7487304 C39.7563997,41.7436395 37.5609452,43.6050031 35.1052179,44.6696395 C33.6059452,45.3193667 32.2422179,46.319094 30.5685815,46.4820031 C28.1223997,46.7206395 28.1593088,48.8804576 27.5604906,50.4166395 C25.2918542,56.2330031 18.4293088,61.9730031 12.6479452,60.396094 C7.9063997,59.1023667 3.56258152,57.3708213 1.22712697,51.9992758 C0.0632178808,49.3233667 1.50903606,46.7906395 0.0931269717,44.4819122 C-0.145509392,44.093094 0.0753087899,43.5299122 0.746036063,43.5432758 C1.27103606,43.554094 1.45749061,43.5413667 1.68276334,44.3476395 C2.37130879,46.8192758 2.40885424,49.4041849 3.39967243,51.8389122 C5.00076334,55.7735486 11.2294906,58.8319122 15.4326724,58.0981849 C21.1173088,57.1054576 23.3534906,52.6840031 25.8480361,48.5164576 C26.4169452,47.5676395 24.551127,46.3490031 24.8018542,44.8879122 C26.7313088,45.2990031 27.841127,45.2875486 28.1739452,42.5556395 C28.5506724,39.4635486 30.053127,36.4885486 30.9809452,33.4314576 C31.2984906,32.3852758 31.7808542,31.2181849 31.2195815,30.5792758 C30.4419452,29.6953667 29.0890361,30.1058213 28.1357633,30.7320031 C24.7954906,32.9268213 21.4933997,35.182094 18.1976724,37.4443667 C16.284127,38.7578213 14.2445815,38.5764576 12.4258542,37.569094 C10.8973088,36.722094 11.0544906,35.1210031 12.1452179,33.9526395 C14.2840361,31.6623667 16.3827633,29.3269122 18.6119452,27.1130031 C22.4033997,23.3489122 26.5365815,20.1295486 30.6926724,16.8567304 C32.0996724,15.7488213 31.6828542,13.2689122 34.0055815,12.3181849 C28.1472179,9.85036673 23.7289452,13.9600031 18.6774906,14.4837304 C18.9422179,10.8997304 22.0572179,11.4584576 23.9484906,10.6394576 C26.3100361,9.61682128 28.8815815,8.96073037 31.5708542,9.121094 C35.0740361,9.32982128 36.3944906,11.6239122 34.708127,14.5467304 C31.9927633,19.2513667 27.1742179,21.7879122 23.4909452,25.4960031 C20.6947633,28.3100031 17.5453997,30.7708213 15.2430361,34.0601849 C14.8593088,34.6093667 13.736127,35.0261849 14.5500361,35.8598213 C15.1443997,36.4688213 15.8883088,35.8280031 16.6093088,35.6186395 C21.9477633,34.0710031 25.7850361,30.0180031 30.4833088,27.4114576 C31.7165815,26.7267304 32.7697633,26.5975486 33.8884906,27.3764576 C35.1287633,28.2393667 35.0625815,29.6081849 34.6883997,30.7504576 C33.3660361,34.7843667 31.8763088,38.7635486 30.4572179,42.7656395 C30.3407633,43.0940031 30.2796724,43.4414576 30.0773088,44.2292758 C33.2215815,42.9024576 35.8325815,41.3503667 38.6459452,40.2526395 C40.0020361,39.7231849 40.2756724,38.0724576 39.9415815,36.5706395 C39.3694906,33.9984576 40.5117633,31.6235486 40.7834906,29.148094 C41.2416724,24.9716395 42.0568542,20.8244576 43.486127,16.905094 C44.4113997,14.3679122 44.4813997,11.5704576 45.9685815,9.22736673 C46.7818542,7.94636673 47.6689452,7.31254855 48.5140361,9.0600031 C49.4685815,11.0346395 50.2767633,10.0151849 51.2039452,9.12173037 C54.3857633,6.05573037 56.0453997,5.78591219 58.5984906,7.89482128 C60.4846724,9.45263946 60.3624906,12.7661849 58.3865815,14.2088213 C58.0900361,14.4258213 57.8813088,14.8280031 57.4644906,14.5047304 C57.1424906,14.2546395 57.0304906,13.9148213 57.2513088,13.5088213 C58.0569452,12.0280031 57.7253997,10.4536395 56.443127,9.77782128 C54.8967633,8.96263946 53.6386724,10.3174576 52.5549452,11.3922758 C50.0845815,13.8448213 47.8223088,15.1258213 48.3886724,12.7712758 C45.7592179,16.4742758 45.3233088,20.8435486 44.4820361,25.0830031" id="Fill-248"></path>
            <path d="M154.181391,38.8361576 C157.496845,37.3101576 160.980936,35.8248849 164.239118,33.8260667 C165.042845,33.3335213 165.186663,33.068794 165.148482,32.1810667 C164.975391,28.1592486 165.845936,24.2227031 166.230936,20.2498849 C166.682754,15.5872486 166.263391,10.8406122 166.218845,6.13024855 C166.204845,4.66024855 165.396663,5.07006673 164.5083,5.34115764 C161.000663,6.40961219 158.6143,8.86088491 156.581118,11.7245213 C156.142027,12.3424304 155.887482,13.2269758 154.974936,12.7777031 C153.944027,12.2692486 154.819663,11.368794 154.969209,10.8113395 C155.810482,7.66897582 162.812391,2.76197582 166.085845,2.84088491 C167.576845,2.87652128 168.1693,3.75215764 168.576572,5.06561219 C169.621482,8.43261219 169.258754,11.9116122 168.980663,15.2474304 C168.281936,23.6277031 167.085572,31.9812486 167.454663,40.4073395 C167.714936,46.3579758 168.002572,52.3041576 167.892482,58.2567031 C167.818027,62.2702486 167.398027,66.2634304 166.272936,70.147794 C165.387754,73.2055213 162.572482,74.8677031 159.767391,73.4988849 C155.724572,71.526794 152.612754,68.5091576 151.259209,64.0011576 C151.164391,63.686794 151.140845,63.5321576 151.310118,63.308794 C151.645482,62.8646122 151.9013,63.1579758 152.207391,63.3768849 C154.780845,65.2159758 154.888391,68.768794 157.789572,70.0618849 C161.944391,71.9143395 163.636482,70.8560667 164.593572,66.9112486 C165.517572,63.1019758 165.471118,59.0750667 165.417027,55.2817031 C165.3693,51.9312486 165.322845,48.4115213 164.904118,44.9745213 C164.612663,42.5856122 163.652391,39.9014304 165.725027,36.6916122 C161.882663,38.3461576 158.905118,39.9154304 155.746845,40.9043395 C152.832936,41.8175213 152.066754,43.680794 151.907663,46.3815213 C151.770845,48.7080667 150.376572,50.5611576 148.977845,52.339794 C148.562936,52.8679758 148.068482,53.4432486 147.320754,52.9583395 C146.660845,52.5300667 146.657027,51.5360667 146.932572,51.1682486 C150.955027,45.8024304 150.749482,38.9927031 149.254027,32.8142486 C148.1633,28.3081576 148.227572,23.884794 149.460209,19.3729758 C150.230845,16.5526122 149.9203,13.4840667 150.902845,10.6662486 C152.006936,7.4997031 153.111663,4.32933946 154.388845,1.23152128 C154.625572,0.656884914 155.370754,-0.185660541 156.350118,0.0364303683 C157.270936,0.243884914 158.187936,0.621884914 158.6773,1.47143037 C158.979572,1.99706673 158.825572,2.73206673 158.044118,2.67415764 C156.157936,2.53543037 156.029391,4.01306673 155.508845,5.187794 C152.978663,10.8978849 152.7133,17.1247031 151.441209,23.1192486 C151.119845,24.633794 152.070572,26.2145213 151.438663,27.7997031 C151.258572,28.2508849 151.583118,28.8719758 152.0483,28.9286122 C152.402754,28.9712486 152.932209,28.6110667 153.186118,28.2788849 C154.5823,26.4499758 156.563936,25.4827031 158.539209,24.4944304 C159.849482,23.8396122 161.336027,23.387794 162.424209,24.5421576 C163.578572,25.767794 161.924663,26.6186122 161.581027,27.6698849 C160.851118,29.9041576 160.002845,30.1345213 158.879027,28.0332486 C158.172663,26.7115213 157.743118,27.7424304 157.251209,28.1032486 C153.504936,30.8485213 151.7333,34.2066122 154.181391,38.8361576" id="Fill-250"></path>
            <path d="M138.902745,36.6368213 C136.835836,37.6626395 135.286291,38.3429122 133.827109,39.1822758 C132.517472,39.935094 131.314109,41.5667304 131.999472,42.6103667 C132.848382,43.9021849 133.588472,45.3104576 134.551291,46.529094 C134.872654,46.9363667 135.195291,46.1351849 135.528109,45.8761849 C138.405745,43.6374576 138.3052,40.362094 138.902745,36.6368213 M131.418472,37.5277304 C133.582745,36.596094 135.6242,35.6873667 137.693654,34.8505486 C138.1372,34.671094 138.664745,34.6411849 138.744927,34.0888213 C139.126109,31.479094 139.581745,28.8719122 139.778382,26.2462758 C139.8662,25.0721849 139.310654,24.2232758 137.835563,25.1727304 C133.3492,28.0605486 131.358018,32.1892758 131.418472,37.5277304 M130.083382,42.8324576 C127.774654,44.0027304 127.547472,46.6111849 126.346018,48.5190031 C125.751018,49.4646395 125.119109,50.183094 124.3682,49.8044576 C123.480472,49.3577304 123.407927,48.5584576 124.194472,47.3436395 C126.933382,43.1175486 128.763563,38.5039122 128.541472,33.2952758 C128.367109,29.2130031 127.395382,27.9460031 123.314382,27.2727304 C122.361745,27.1155486 121.883836,26.8546395 121.908018,25.9879122 C121.941745,24.794094 122.943382,25.1205486 123.628745,25.0970031 C126.407109,25.0028213 128.381109,26.586094 130.105654,28.4697304 C130.665654,29.0812758 131.135927,30.2159122 131.855654,30.0472758 C132.794291,29.827094 132.469745,28.6275486 132.507291,27.7990031 C132.656836,24.5128213 136.612472,21.490094 139.785382,22.2868213 C141.375654,22.6864576 141.974472,24.0323667 142.1692,25.4438213 C142.333382,26.6331849 142.166654,27.8556395 141.996745,29.0876395 C141.654382,31.5790031 139.971836,34.1639122 142.901654,36.575094 C144.047109,37.5181849 142.259563,39.361094 141.667745,40.6993667 C140.921927,42.3857304 139.831836,43.8099122 139.716018,45.8526395 C139.597654,47.9297304 134.899382,51.7167304 132.654291,51.8408213 C131.018836,51.9318213 131.134654,50.0189122 131.561654,49.6784576 C133.673109,47.9933667 132.459563,46.6913667 131.430563,45.2175486 C131.020109,44.6301849 130.828563,43.8920031 130.508472,43.2365486 C130.430836,43.0774576 130.238018,42.9750031 130.083382,42.8324576" id="Fill-252"></path>
            <path d="M79.4029361,33.3416031 C78.7792997,32.4036031 79.2202997,31.6565122 80.2047542,31.6068758 C82.1252997,31.5095122 83.7149361,30.364694 85.666027,30.2908758 C88.1726633,30.1960576 90.5412088,29.1772395 92.6622088,27.8784213 C95.1395724,26.3581486 96.1978452,23.1750576 96.3639361,20.4145122 C96.5516633,17.2925122 96.2423906,15.4960576 93.0923906,16.644694 C88.158027,18.4443304 83.2739361,20.3776031 78.253027,21.9475122 C77.4893906,22.1861486 76.7785724,22.2326031 76.0302088,22.2014213 C74.9502997,22.1556031 73.6514815,21.8463304 73.6508449,20.7314213 C73.6502088,19.8462395 75.0031179,20.0696031 75.8278452,19.9334213 C78.4821179,19.4956031 81.1281179,18.9731486 83.5157542,17.6514213 C86.7319361,15.8708758 90.237027,15.2733304 93.8133906,14.0165122 C94.9429361,13.6200576 95.8936633,12.4644213 94.7469361,11.0765122 C94.1735724,10.3828758 94.0806633,9.66951219 94.3243906,8.96823946 C94.549027,8.32105764 95.3005724,8.49733037 95.8287542,8.56287582 C96.747027,8.67551219 97.0359361,9.38187582 97.0734815,10.2002395 C97.1606633,12.1080576 98.1521179,12.8449667 100.0103,12.5668758 C100.646663,12.4714213 108.132845,11.1745122 108.600572,11.2171486 C109.991663,11.3437849 107.275663,14.2538758 106.630391,14.173694 C105.069391,13.9808758 98.6682088,15.0665122 98.8502088,15.9835122 C99.4942088,19.2194213 98.8782088,22.1193304 97.3108452,24.8143304 C96.7769361,25.7326031 97.6627542,26.8163304 98.6618452,26.4555122 C99.0627542,26.3110576 99.4553906,26.1564213 99.855027,26.0501486 C100.749754,25.8108758 107.272482,23.9959667 107.588754,25.2540576 C107.828663,26.2079667 106.850572,27.1217849 105.956482,27.2013304 C101.130936,27.6302395 91.7719361,30.4168758 87.4815724,32.3361486 C85.2689361,33.325694 82.6712997,33.6903304 80.3702088,33.7902395 C80.0272088,33.6311486 79.7459361,33.500694 79.4029361,33.3416031" id="Fill-254"></path>
            <path d="M88.5287724,46.3188395 C88.526227,46.2450213 88.5243179,46.1712031 88.5230452,46.0980213 C88.449227,42.8843849 89.9230452,41.0847486 91.5381361,38.4432031 C92.0504088,37.6057486 92.8929542,37.3168395 93.6890452,38.0639304 C94.4323179,38.7620213 94.3381361,39.2367486 93.4300452,40.0570213 C89.8059542,43.3298395 90.7961361,53.1253849 94.8904997,55.6447486 C95.2570452,55.8700213 95.7750452,55.9540213 96.2160452,55.9381122 C99.2126815,55.8267486 103.135863,50.3234758 102.124682,47.5572031 C101.1765,44.9614758 102.085863,42.3218395 101.755591,39.7133849 C101.622591,38.6614758 102.9335,38.259294 103.473136,38.3592031 C104.596954,38.5660213 105.898954,39.043294 106.616772,39.8597486 C107.298954,40.6342031 106.255954,40.8925667 105.506954,41.2139304 C104.651682,41.5804758 104.070045,46.6090213 104.703227,47.247294 C105.055136,47.6030213 105.375227,47.4980213 105.826409,47.0633849 C109.068045,43.9407486 112.939045,44.3104758 115.5825,47.807294 C116.433954,48.9336576 117.630318,49.7933849 118.533318,50.8866576 C119.174772,51.6623849 119.2995,52.8218395 118.507227,53.4448395 C117.706682,54.0748395 116.553591,53.7566576 116.097954,52.7970213 C115.583772,51.7139304 114.724045,50.992294 113.957863,50.1771122 C111.652954,47.7245667 109.185772,47.2008395 106.172591,48.437294 C105.552136,48.6918395 105.0335,49.0475667 104.971136,49.8156576 C104.684772,53.3080213 102.043227,55.7026576 99.5881361,56.8780213 C95.1157724,59.0193849 91.3548633,57.1554758 89.6729542,52.6481122 C88.9226815,50.6372031 88.5955906,48.4602031 88.5287724,46.3188395" id="Fill-256"></path>
            <path d="M48.5620179,21.333994 C50.1656542,19.9072667 52.5176542,20.3196304 54.2052906,19.0348122 C54.5750179,18.7535395 55.3838361,18.6561758 55.6180179,19.3708122 C55.7688361,19.828994 55.3863815,20.2375395 54.9256542,20.4628122 C53.8622906,20.9820849 52.8504724,21.7030849 51.727927,21.9824486 C49.522927,22.5322667 48.0058361,24.3325395 45.875927,24.9612667 C45.3687452,22.712994 47.5890179,22.4851758 48.5620179,21.333994" id="Fill-258"></path>
            <path d="M47.5430724,31.7884304 C46.6260724,31.8711576 46.4383452,31.5039758 46.3988906,30.9611576 C46.3543452,30.3419758 46.4701633,29.9149758 47.1701633,29.6731576 C48.919527,29.0667031 50.5008906,28.147794 51.8200724,26.8209758 C52.5073452,26.1305213 53.2557088,26.3322486 53.8157088,26.8820667 C54.5844361,27.6380667 53.7463452,28.0485213 53.2582542,28.3940667 C51.369527,29.7323395 49.5266179,31.1635213 47.5430724,31.7884304" id="Fill-260"></path>
        </g>
    </g>
</svg>