<?xml version="1.0" encoding="UTF-8"?>
<svg width="216px" height="140px" viewBox="0 0 216 140" version="1.1" xmlns="http://www.w3.org/2000/svg" xmlns:xlink="http://www.w3.org/1999/xlink">
    <title>img-sign-13</title>
    <g id="img-sign-13" stroke="none" stroke-width="1" fill="none" fill-rule="evenodd">
        <g id="Group-14" transform="translate(5.684106, 42.253894)" fill="#56D250">
            <path d="M196.77804,33.0990055 C198.38804,33.0856419 199.768949,32.8100964 199.920403,31.778551 C200.13613,30.3117328 199.14404,29.6123692 197.400403,29.2941874 C196.035403,29.0447328 194.758858,28.8977328 193.31113,28.9817328 C188.369767,29.2700055 183.740221,31.0040964 178.726949,30.8742783 C177.896494,30.8526419 177.464403,31.2312783 177.449767,31.9051874 C177.408403,33.7207328 178.17713,34.5193692 180.753767,34.1668237 C184.465676,33.6590055 188.170585,33.0258237 191.93913,32.8508237 C192.918494,32.8056419 194.989221,33.1142783 196.77804,33.0990055 M199.167585,35.8754601 C196.910403,35.082551 192.439949,35.7819146 189.961949,35.9161874 C185.999949,36.1306419 182.146767,36.9680964 178.229312,37.4313692 C177.409676,37.5287328 177.443403,37.8908237 177.350494,38.3477328 C176.666403,41.7306419 177.379767,42.2791874 181.482403,41.6682783 C186.718403,40.8880964 200.807494,40.9848237 200.807494,40.9848237 C200.807494,40.9848237 200.728585,36.4246419 199.167585,35.8754601 M197.761858,26.2218237 C206.201312,27.0726419 203.986767,35.3924601 204.39213,40.2790964 C204.793676,45.1167328 204.028767,50.7733692 196.611949,50.8051874 C193.323221,50.8191874 193.861585,48.1540964 192.316494,46.9373692 C191.673767,46.4308237 192.514403,45.6970964 193.29713,45.4317328 C194.380858,45.0651874 195.302949,45.5717328 195.462676,46.3270964 C195.795494,47.9071874 196.845494,48.7643692 198.335221,47.5380964 C199.610494,46.4887328 200.813221,44.9907328 200.420585,43.2910055 C200.374767,43.0930964 198.972858,42.9944601 198.206676,43.0160964 C192.862494,43.1643692 187.631585,43.4437328 182.354858,44.0457328 C178.542403,44.4797328 176.675312,45.7823692 177.315494,49.1659146 C177.627949,50.8198237 175.87604,50.965551 174.18713,50.8783692 C171.50804,50.7409146 172.37413,48.8273692 172.323221,47.9587328 C172.108767,44.308551 172.432676,40.6392783 172.503312,36.9750964 C172.55804,34.1362783 172.713312,30.9932783 175.812403,29.1274601 C177.659767,28.0150964 180.107221,28.0189146 182.33704,27.7090055 C185.201949,27.3106419 188.066858,26.9110055 190.932403,26.5126419 C193.17113,26.2008237 195.606494,26.0041874 197.761858,26.2218237" id="Fill-168"></path>
            <path d="M47.0817668,9.44753281 C50.1044941,9.21589644 53.1304032,9.18598735 56.1582213,8.51207826 C57.7567668,8.16080553 60.9506759,10.1717146 60.5701304,12.4829874 C60.4638577,13.1276237 58.2321304,14.7427146 57.7453123,15.478351 C55.6224032,18.6862601 56.2434941,24.1628055 55.7923123,27.9937146 C54.8511304,35.9737146 54.5851304,43.8767146 53.2214032,51.7555328 C52.7256759,54.6185328 50.1471304,56.4308964 47.4324032,54.5752601 C46.1743123,53.7148964 44.9480395,52.9811692 43.508585,52.5166237 C41.0624032,51.7275328 40.9204941,47.2615328 43.9686759,48.3108964 C45.9248577,48.9841692 50.0408577,53.0390783 50.144585,48.7888055 C50.2629486,43.954351 55.2628577,13.7970783 51.1468577,14.0637146 C43.6886759,14.5467146 33.498585,16.0249874 26.043585,16.0249874 C24.5882213,16.0300783 23.2957668,15.653351 24.4004941,13.5158055 C25.1781304,12.0101692 30.0934032,11.9420783 31.4806759,11.7269874 C35.6552213,11.0810783 39.8291304,10.4307146 44.0036759,9.78671462 C45.0288577,9.62826008 46.0553123,9.5264419 47.0817668,9.44753281" id="Fill-170"></path>
            <path d="M187.64514,7.23101462 C187.589776,7.77637826 187.61014,8.52792371 187.651503,9.20310553 C187.683321,9.72237826 187.788321,10.3332874 187.872958,10.7602874 C187.932776,11.0625601 188.271321,11.2757419 188.653776,11.2477419 C190.68123,11.0988328 196.67514,10.6641964 197.247867,10.6750146 C198.73123,10.7030146 198.428321,11.5920146 198.36914,12.2964692 C198.25523,13.6487419 191.85023,13.4737419 190.103412,13.4311055 C188.913412,13.4024692 188.480685,13.9344692 188.656958,14.8788328 C188.75814,15.4191055 188.570412,19.9557419 188.570412,19.9557419 C188.570412,19.9557419 199.041776,19.3041055 200.911412,19.8793783 C200.603412,21.4798328 199.375867,21.735651 197.69014,21.8947419 C191.098049,22.5171055 184.535867,23.3341964 177.945049,23.9648328 C176.439412,24.108651 174.224867,24.8347419 174.102049,22.4521964 C174.047958,21.3990146 174.012958,20.8148328 175.924594,21.0101964 C177.317594,21.1521055 180.170412,20.8854692 182.110049,20.6652874 C183.262503,20.5348328 184.123503,19.7610146 184.153412,18.8351055 L184.274321,15.0850146 C184.286412,14.7108328 183.898867,14.4085601 183.42923,14.4295601 C181.957321,14.4957419 179.022412,14.6172874 177.917685,14.5867419 C177.06623,14.5638328 175.973594,14.7534692 175.94814,13.5647419 C175.930321,12.7151964 176.24723,12.0807419 177.28514,11.8484692 C178.043685,11.6791964 181.32223,11.473651 183.184867,11.3673783 C183.888685,11.3272874 184.414321,10.8423783 184.360867,10.2823783 C184.29914,9.62565099 184.258412,8.75701462 184.362776,8.01246917 C184.597594,6.34265099 182.167321,6.72510553 180.88123,6.72128735 C179.113412,6.71619644 177.41623,6.8237419 176.043594,5.78646917 C175.241776,5.18001462 174.50614,4.46346917 176.355412,4.11856008 C177.565776,3.89265099 184.879503,6.03910553 184.064958,1.44901462 C183.922412,0.646560078 186.02814,0.735014624 186.584321,0.883287351 C188.878412,1.49356008 187.120776,2.8267419 188.536049,3.70110553 C189.729867,4.43546917 197.113594,4.11601462 199.238412,3.60501462 C199.746867,3.48283281 200.264867,3.32628735 200.793049,3.37528735 C202.90514,3.57319644 201.338412,5.13228735 200.681049,5.70246917 C198.399685,7.67901462 195.206412,7.39010553 192.399412,7.48937826 C190.902049,7.54283281 189.228412,7.66565099 187.64514,7.23101462" id="Fill-172"></path>
            <path d="M160.593003,14.7000146 C160.20864,13.8421964 159.679185,13.1523783 159.116003,12.9411055 C156.690185,12.0317419 153.125912,13.2147419 150.692458,13.6162874 C147.898185,14.0763783 149.366912,16.2457419 149.208458,17.8595601 C148.944367,20.8835601 157.803185,19.4918328 159.629549,19.4918328 C161.59273,19.4899237 161.470549,16.6581055 160.593003,14.7000146 M145.382003,14.5911964 C145.227367,12.922651 146.589821,11.3705601 149.485912,11.1885601 C152.152276,11.0211964 154.496003,9.74401462 157.306821,9.4907419 C162.211912,9.04846917 165.531821,11.7269237 164.853458,15.6399237 C164.33673,18.620651 164.515549,21.6930146 164.617367,24.7195601 C164.659367,25.9751055 163.620185,30.2877419 163.124458,31.3981964 C161.389094,35.280651 155.437821,33.4021055 151.478367,30.6854692 C150.352003,29.9129237 150.850276,29.0379237 151.356821,28.182651 C151.917458,27.2370146 152.69064,27.4921964 153.668094,27.7811055 C155.050912,28.189651 156.082458,29.0213783 157.49073,29.4744692 C159.249003,30.0414692 159.736458,30.0312874 159.923549,28.5600146 C160.016458,27.8237419 160.27673,27.1021055 160.405912,26.3671055 C160.836094,23.9285601 161.169549,22.7939237 157.340549,22.2358328 C155.589912,21.980651 153.377912,21.8775601 151.754549,21.8368328 C150.528276,21.8062874 149.508185,22.5762874 149.478912,23.5531055 C149.413367,25.7873783 149.292458,29.4031964 149.191276,29.610651 C148.914458,30.1801964 146.029821,29.3172874 145.642276,28.3054692 C145.133185,26.9748328 145.837003,19.4918328 145.382003,14.5911964" id="Fill-174"></path>
            <path d="M118.489721,24.5245783 C118.485267,24.7600328 118.478903,24.9916692 118.469994,25.2175783 C118.231994,31.6365783 118.342721,38.6181237 116.26754,44.6654874 C115.367721,47.2879419 113.83154,49.2899419 111.677449,50.4462146 C109.243994,51.7526692 107.770812,49.7423964 106.02463,48.7560328 C105.318267,48.3570328 105.222176,46.8984874 105.766267,46.0680328 C106.296358,45.2585783 106.92254,45.6919419 107.647994,46.274851 C110.188358,48.3163055 111.772267,46.932851 112.876358,43.7739419 C114.110903,40.2414874 114.259176,36.4220328 114.754267,32.6923055 C115.129721,29.8643055 116.495358,22.3704874 114.803267,19.9109419 C113.522903,18.0502146 106.659085,20.6039419 104.742358,21.0684874 C103.895358,21.2740328 103.074449,21.3930328 102.28854,21.2033964 C101.479085,21.0073964 100.457085,20.8743964 100.485721,19.3133964 C100.518176,17.5283964 101.654085,18.2303055 102.30763,18.1730328 C106.039267,17.8433964 109.632812,16.6330328 113.275994,15.7631237 C117.913176,14.6564874 118.569267,20.2723964 118.489721,24.5245783" id="Fill-176"></path>
            <path d="M77.6961395,41.9742419 C77.5847759,43.3373328 77.3429577,44.4204237 78.8613213,44.251151 C82.2474123,43.8750601 87.5483213,43.6135146 88.6307759,42.5310601 C89.4535941,41.7082419 88.8643213,38.8942419 88.3195941,37.7640601 C87.7462304,36.5759692 86.9094123,36.3417874 85.8721395,36.5549692 C84.3467759,36.8680601 82.8691395,37.4089692 81.3475941,37.7468783 C78.818685,38.3087874 77.4651395,39.7374237 77.6961395,41.9742419 M91.7228668,34.7998783 C92.195685,37.160151 92.2325941,43.9266055 91.2589577,45.4685146 C90.6894123,46.3708783 80.9205941,47.1886055 79.4785941,47.4310601 C77.7845941,47.716151 71.8861395,47.9617874 74.0892304,44.5674237 C75.0475941,43.0910601 74.4914123,40.8962419 74.6772304,39.0660601 C74.9177759,36.7038783 76.1548668,35.907151 77.796685,35.3350601 C80.2492304,34.4816964 91.208685,32.2327874 91.7228668,34.7998783" id="Fill-178"></path>
            <path d="M29.5105577,33.1067055 C34.689285,32.8101601 37.3060123,31.3465237 38.5201941,28.1787055 C39.3913759,25.9056146 38.6869213,24.7270692 36.5646486,24.9065237 C31.2077395,25.360251 29.9649213,26.7697964 29.5105577,33.1067055 M27.2221941,37.8304328 C26.1060123,36.8956146 25.5631941,36.1943419 25.9761941,34.124251 C26.5807395,31.0977055 26.1963759,27.7618874 25.9195577,24.5927964 C25.813285,23.3805237 26.1779213,22.3973419 26.7264668,21.9588874 C27.3316486,21.475251 28.4179213,21.2887964 29.0421941,22.6467964 C29.5913759,23.8418874 30.3747395,23.7718874 31.4705577,22.9764328 C34.9330123,20.4647055 43.9948304,21.5547964 42.1411032,28.1589783 C40.7869213,32.969251 33.4566486,39.3513419 29.4577395,34.6314328 C29.2789213,35.3416146 28.9416486,39.2705237 27.2221941,37.8304328" id="Fill-180"></path>
            <path d="M3.55481225,26.3110419 C2.99417589,26.4987692 2.66708498,27.3597692 2.36544862,28.0126783 C2.03008498,28.7362237 1.27472134,29.5711328 0.513630434,29.0983146 C-0.334005929,28.5714055 0.117812253,27.3330419 0.14008498,26.4962237 C0.151539525,26.0310419 0.397812253,25.4780419 0.691812253,25.1324964 C4.45972134,20.7078601 8.19708498,16.2456783 12.0999032,11.9775874 C12.7776304,11.2362237 14.1738123,11.1904055 15.2549941,11.1095874 C16.3807213,11.024951 17.2321759,11.857951 17.3677213,13.1077692 C17.6133577,16.2698601 7.02681225,19.0316783 6.83208498,24.1104964 C6.66790316,28.3932237 6.37899407,46.4627692 7.26672134,47.6775874 C8.05135771,48.7511328 5.39644862,50.7524964 4.53672134,49.3696783 C2.60281225,46.2597692 2.79181225,36.6328601 3.23917589,33.2251328 C3.54144862,30.9221328 3.64963043,28.6337692 4.20135771,26.3797692 C3.95444862,26.2607692 3.74190316,26.2486783 3.55481225,26.3110419" id="Fill-182"></path>
            <path d="M138.056249,45.1441601 C137.684612,45.016251 137.323158,44.8304328 136.970612,44.6357055 C134.516794,43.2808874 132.39134,41.3679783 130.080067,39.7287055 C128.153794,38.3630692 126.142885,37.330251 124.618158,35.2703419 C120.387612,29.5564328 130.00434,21.9620692 133.291794,19.5095237 C133.860067,19.0863419 134.54734,18.0547964 135.307158,19.3555237 C135.942885,20.4424328 135.418521,21.1023419 134.897976,21.9735237 C133.664067,24.0378874 131.94334,25.4557055 130.463794,27.1917055 C129.507976,28.3136146 128.251158,29.5939783 127.882703,31.1867964 C127.359612,33.4458874 129.153521,34.5168874 130.510885,35.3925237 C133.384703,37.246251 135.645703,39.7764328 138.851067,40.970251 C139.631249,41.2610692 140.891249,41.460251 141.157249,42.573251 C141.519976,44.0897055 139.92843,45.3547964 138.877158,45.3096146 C138.597794,45.2975237 138.324158,45.2364328 138.056249,45.1441601" id="Fill-184"></path>
            <path d="M109.618303,29.8175328 C109.566758,30.5060783 109.365667,31.2162601 109.034758,31.8322601 C107.79703,34.1346237 101.718485,46.5290783 98.6582123,42.2336237 C97.7513941,40.9602601 99.2163032,40.4568964 99.6471213,39.5736237 C100.708576,37.395351 103.01603,35.8158964 104.393121,33.8832601 C105.150394,32.8218055 105.35594,31.4714419 104.050758,31.067351 C102.445212,30.5697146 100.835849,30.2311692 99.2283941,29.7048964 C97.9378486,29.2810783 98.3527577,27.8059874 99.5338486,27.6570783 C102.097758,27.3331692 104.66803,27.070351 107.240212,26.8495328 C109.032849,26.6948964 109.740485,28.1948055 109.618303,29.8175328" id="Fill-186"></path>
            <path d="M73.4866577,16.2229601 C72.5079304,16.2229601 72.3882941,15.2792328 72.2126577,14.6925055 C72.0720213,14.2241419 72.7370213,13.8836874 73.2887486,13.6609601 C78.3211123,11.6335055 83.4381123,9.92677826 88.8662941,9.32859644 C88.9547486,9.31905099 89.0432032,9.21977826 89.1227486,9.22996008 C90.4890213,9.40877826 92.5508395,7.87768735 93.0637486,10.0992328 C93.6339304,12.5715055 91.132385,11.8505055 89.8736577,12.3455964 C87.4701123,13.2912328 74.6652032,16.2229601 73.4866577,16.2229601" id="Fill-188"></path>
            <path d="M89.8319759,26.3358601 C90.5459759,26.5102237 90.9220668,27.0498601 90.8654304,27.7695874 C90.8075213,28.5084055 90.1711577,28.4498601 89.6251577,28.5644055 C85.1534304,29.5004964 80.9737941,31.4961328 76.4174304,32.1674964 C75.406885,32.3164055 74.4027032,33.0062237 73.4577032,32.2915874 C72.8194304,31.8085874 72.9810668,30.9036783 73.2152486,30.2386783 C73.6607032,28.9710419 74.9194304,29.4763146 75.8275213,29.1753146 C78.633885,28.244951 88.9607941,26.1233146 89.8319759,26.3358601" id="Fill-190"></path>
            <path d="M87.6684032,19.0853874 C88.602585,18.9402964 89.1969486,19.1910237 89.5221304,20.1913874 C89.9319486,21.450751 89.0270395,21.6893874 88.2754941,21.8281146 C84.9002213,22.4542964 74.3143123,25.0875692 73.8771304,23.9923874 C73.5379486,23.1428419 73.5474941,22.129751 74.7368577,21.3858419 C76.6593123,20.183751 87.3031304,19.1420237 87.6684032,19.0853874" id="Fill-192"></path>
            <path d="M112.564412,7.87476008 C112.762958,10.3807601 112.515412,12.9465783 110.716412,14.6023964 C110.258867,15.0236692 109.738958,15.5041237 109.21014,15.194851 C108.472594,14.7640328 108.69023,13.7649419 108.869685,13.1164874 C109.759958,9.89585099 110.305958,6.85339644 108.057049,3.95730553 C107.45823,3.18539644 108.257503,1.93366917 108.960685,1.45830553 C111.228049,-0.0734217398 112.048958,4.01139644 112.327685,5.87785099 C112.424412,6.52630553 112.510958,7.19830553 112.564412,7.87476008" id="Fill-194"></path>
            <path d="M85.705285,8.15106917 C85.4978304,8.33879644 85.2178304,8.77216008 84.8366486,8.89625099 C84.1188304,9.13106917 83.4073759,9.08779644 82.8403759,8.38525099 C81.3417395,6.5283419 81.0948304,3.97716008 79.3505577,2.23097826 C78.9719213,1.8523419 79.1590123,0.955705533 79.7699213,0.496887351 C80.4075577,0.0170691693 81.3353759,-0.230476285 81.8158304,0.291341897 C83.8114668,2.45816008 84.3135577,5.43825099 85.705285,8.15106917" id="Fill-196"></path>
        </g>
    </g>
</svg>