<?xml version="1.0" encoding="UTF-8"?>
<svg width="216px" height="140px" viewBox="0 0 216 140" version="1.1" xmlns="http://www.w3.org/2000/svg" xmlns:xlink="http://www.w3.org/1999/xlink">
    <title>img-sign-15</title>
    <g id="img-sign-15" stroke="none" stroke-width="1" fill="none" fill-rule="evenodd">
        <g id="Group-16" transform="translate(12.699049, 33.378933)" fill="#56D250">
            <path d="M16.9124145,27.6470031 C12.9574145,22.8488213 7.82195991,19.0783667 5.68759628,12.9858213 C5.34459628,12.0064576 4.72732355,11.258094 3.36677809,11.9765485 C2.02405082,12.686094 2.08514173,13.4522758 2.74695991,14.5576394 C5.18359628,18.6252758 8.57159628,21.8446394 11.9500508,25.0913667 C13.3602326,26.4468213 14.5909599,27.9791849 16.9124145,27.6470031 M48.3672326,66.1788213 C49.0169599,66.1336394 49.8416872,65.3095485 49.8639599,66.733094 C49.8785963,67.6322758 49.5941417,68.4099122 48.5021417,68.4582758 C44.7463235,68.6269122 32.3824145,71.5720031 29.7777781,71.8933667 C27.7541417,72.1434576 26.3515963,72.1199122 27.0611417,69.2308213 C28.1225963,64.9111849 28.6463235,60.4795485 28.3287781,55.9970031 C28.2715054,55.1907303 28.3669599,54.1362758 27.5193235,53.8817303 C26.3967781,53.545094 26.4604145,54.7376394 26.0302326,55.3988213 C25.1145054,56.8058213 23.5102326,56.9082758 22.1694145,56.2865485 C21.0729599,55.778094 21.7354145,54.9482758 22.4646872,54.4003667 C23.776869,53.4140031 24.4876872,52.1501849 24.3521417,50.2983667 C21.5553235,50.9455485 20.2755963,52.922094 18.6274145,54.9648213 C16.3167781,57.8297303 17.7097781,60.4286394 17.9522326,63.1541849 C18.0056872,63.7498213 18.7546872,64.6795485 19.3897781,63.3069122 C19.5940508,62.8659122 19.5641417,62.0889122 20.3952326,62.6113667 C20.8235054,62.8799122 21.0430508,63.3654576 21.0016872,63.8688213 C20.8432326,65.8040031 19.3407781,66.5097303 17.9407781,66.7852758 C16.8659599,66.9971849 16.5503235,65.6850031 16.2983235,64.7355485 C16.1411417,64.143094 15.9725054,63.5531849 15.7052326,62.5865485 C15.2222326,63.8821849 14.7729599,64.8182758 14.5241417,65.8046394 C13.8833235,68.3424576 12.3363235,68.5257303 10.3915963,67.391094 C10.0002326,67.1626394 9.60441446,66.7000031 9.25950537,66.9545485 C8.45132355,67.5508213 7.22823264,68.5537303 6.76941446,67.5972758 C6.01595991,66.0273667 4.225869,65.1701849 4.06232355,63.2165485 C4.00377809,62.5184576 3.35723264,61.7064576 4.22077809,61.3303667 C4.80305082,61.0758213 5.61568719,61.3539122 6.20623264,61.9966394 C7.04432355,62.9085485 7.55214173,65.8339122 9.32568719,62.4503667 C9.99005082,61.1833667 11.7635963,62.603094 12.0499599,64.9582758 C14.2575054,64.5681849 13.213869,62.0863667 14.2874145,61.2635485 C16.1055054,59.8686394 15.3291417,58.8409122 14.3911417,57.6063667 C14.0290508,57.129094 14.2333235,56.849094 14.6145054,56.4672758 C16.6107781,54.4684576 16.7883235,51.4711849 18.4791417,49.289094 C18.5860508,49.1516394 18.4314145,48.8111849 18.3544145,48.2384576 C16.1977781,49.5633667 14.214869,50.7832758 12.2300508,52.0012758 C11.6923235,52.3309122 11.1635054,52.6777303 10.6079599,52.9736394 C9.29195991,53.6749122 7.60241446,54.1916394 6.60459628,53.1849122 C5.646869,52.2182758 6.612869,50.7361849 7.38859628,49.6893667 C10.7651417,45.1298213 14.1709599,40.5925485 17.5901417,36.0654576 C17.9725963,35.5589122 18.4804145,35.1319122 18.9831417,34.736094 C19.6195054,34.2333667 20.3475054,34.0418213 20.9724145,34.7297303 C21.5807781,35.3985485 21.4140508,35.9865485 20.7751417,36.647094 C17.3425963,40.1922758 14.4770508,44.1975485 11.5975054,48.1869122 C11.2704145,48.6406394 10.4825963,49.1637303 10.9235963,49.7014576 C11.3715963,50.2487303 11.9144145,49.5194576 12.4235054,49.3527303 C15.0790508,48.484094 16.5624145,45.9761849 19.0620508,44.9191849 C20.0725963,44.4921849 21.0169599,44.0817303 21.9403235,44.6722758 C22.8732326,45.2698213 22.3119599,46.1900031 21.9810508,46.9180031 C21.2511417,48.5229122 22.2305054,48.2053667 23.0997781,47.9336394 C25.267869,47.2559122 26.660869,47.861094 27.0102326,50.6101849 C30.3886872,44.7728213 35.1206872,40.2960031 37.8761417,34.4446394 C38.4367781,33.2552758 37.6279599,32.0213667 38.574869,30.7556394 C39.2634145,29.8348213 39.7324145,29.3721849 40.6812326,29.7342758 C41.8483235,30.179094 42.0704145,31.0655485 41.4715963,32.2141849 C40.0677781,34.9060031 38.7186872,37.6264576 37.2079599,40.6097303 C40.1263235,41.0055485 42.8372326,39.9829122 45.5882326,39.8359122 C46.7585054,39.7735485 46.337869,38.488094 45.7765963,37.8593667 C44.5694145,36.507094 44.3205963,34.6858213 43.3399599,33.2393667 C42.6329599,32.1963667 42.9269599,31.1571849 43.7141417,30.4641849 C47.9924145,26.6969122 51.3422326,22.1017303 54.9281417,17.7464576 C57.6715054,14.4144576 59.7193235,10.5129122 62.1489599,6.92000307 C62.416869,6.52291216 62.3716872,5.96609398 61.9905054,5.67591216 C61.177869,5.05863943 59.9757781,5.07836671 59.1192326,5.33736671 C53.547869,7.02436671 47.6010508,7.19173034 41.8585054,7.95091216 C35.6883235,8.76609398 29.502869,9.4832758 23.2995963,9.99682125 C20.7522326,10.208094 9.03614173,9.3642758 7.88241446,11.3535485 C6.976869,12.9151849 8.89423264,13.666094 9.45232355,14.8236394 C11.1444145,18.3376394 13.4932326,21.3209122 16.461869,23.9128213 C19.3382326,26.4251849 21.8964145,29.2881849 25.2099599,31.3073667 C25.7521417,31.6376394 26.1816872,32.741094 25.1705054,33.4137303 C24.4832326,33.8706394 23.7125963,34.4790031 23.1284145,33.3354576 C22.3145054,31.7407303 21.1079599,31.5415485 19.3802326,31.5377303 C17.4526872,31.5326394 15.7644145,29.9563667 14.2199599,28.9903667 C10.6900508,26.7821849 7.34405082,24.0229122 4.61595991,20.8850031 C2.94932355,18.9689122 0.804778094,17.1393667 0.187505367,14.2725485 C-0.488949178,11.1340031 0.660323549,9.65573034 3.70977809,8.78391216 C11.2411417,6.63109398 20.3086872,8.14945761 28.1550508,7.31263943 C33.9033235,6.69982125 39.6445963,6.01763943 45.3769599,5.26673034 C50.0599599,4.65263943 64.3902326,2.16763943 65.3263235,3.66118489 C66.2286872,5.1012758 65.2315054,7.28145761 64.2355963,8.71836671 C58.8926872,16.4336394 53.8221417,24.3500031 46.6216872,30.5513667 C45.7110508,31.3360031 45.3565963,32.0926394 45.7982326,33.1871849 C46.3741417,34.6139122 46.9207781,36.0565485 47.5775054,37.4457303 C48.1114145,38.5752758 49.0296872,38.9615485 50.3157781,38.6891849 C51.8220508,38.3703667 53.3620508,38.1298213 54.9135054,38.397094 C55.3290508,38.4690031 55.9202326,38.3869122 55.9399599,39.0493667 C55.9596872,39.7035485 55.5473235,39.8263667 54.9523235,40.0662758 C53.6815054,40.5785485 52.3279599,40.5091849 51.0221417,40.9285485 C48.1744145,41.841094 49.2365054,44.0626394 49.0156872,45.7617303 C48.9075054,46.5960031 50.033869,46.4579122 50.4576872,45.9959122 C50.9985963,45.4072758 53.0591417,45.1190031 53.2793235,46.3026394 C53.505869,47.5193667 50.5423235,48.2276394 49.7780508,48.6094576 C48.7776872,49.1090031 48.0764145,50.052094 47.8861417,51.1536394 C47.6933235,52.2653667 47.4145963,53.664094 47.0983235,54.5779122 C47.905869,55.2072758 48.8279599,55.1232758 49.7284145,54.9183667 C50.5887781,54.7230031 51.3435054,54.4436394 51.4395963,55.8054576 C51.5223235,56.9725485 50.824869,56.7873667 50.0650508,56.9299122 C46.5574145,57.5879122 44.4287781,60.0996394 44.5821417,63.2420031 C43.922869,63.450094 43.2591417,63.6849122 42.7665963,62.9295485 C43.0135054,59.5886394 43.0154145,59.607094 39.596869,59.9679122 C38.7855054,60.0531849 37.9537781,59.9246394 37.1373235,59.9819122 C36.0714145,60.0570031 34.9227781,60.1511849 34.913869,58.6939122 C34.9036872,57.0966394 36.1407781,57.612094 37.1354145,57.5153667 C39.3505963,57.2990031 41.563869,56.9521849 43.7402326,56.4844576 C45.567869,56.0918213 46.4581417,50.3340031 42.7290508,50.9557303 C40.6500508,51.3019122 38.6035054,51.8479122 36.5200508,52.1508213 C35.5826872,52.2870031 34.780869,51.9739122 34.6593235,50.6801849 C34.5473235,49.4870031 35.1149599,49.4373667 36.0135054,49.2999122 C38.3107781,48.9492758 40.5762326,48.3740031 42.8779599,48.064094 C45.5055054,47.7102758 46.7025054,46.6450031 46.5020508,43.7075485 C46.3945054,42.1306394 46.0731417,42.1363667 44.8494145,42.1643667 C42.0195054,42.2280031 39.4314145,43.7552758 36.4939599,43.3753667 C35.795869,43.2850031 34.7515963,43.9913667 34.052869,44.8759122 C32.5485054,46.7818213 31.2923235,48.9098213 29.2165054,50.3690031 C28.5241417,50.8558213 27.5269599,51.8956394 29.5645963,52.5918213 C30.6445054,52.9609122 31.259869,54.3730031 31.1065054,55.8875485 C30.762869,59.2838213 29.4245963,68.2508213 29.7675963,69.0736394 C30.503869,70.8312758 47.0315054,66.2717303 48.3672326,66.1788213" id="Fill-222"></path>
            <path d="M115.682033,47.1210031 C113.131487,48.5038213 111.042942,49.4182758 108.819487,49.9789122 C108.12776,50.1532758 107.209487,50.3791849 107.033214,49.3221849 C106.874124,48.3701849 107.269942,47.1063667 108.239124,47.2094576 C110.464487,47.4461849 112.887124,45.5727303 114.838851,45.257094 C117.140578,44.8841849 116.672851,42.436094 116.672851,40.1789122 C116.672851,38.6020031 110.005033,43.0489122 108.895851,41.6769122 C108.501305,41.1894576 108.548396,40.5505485 108.927033,40.1388213 C109.676033,39.3242758 110.538305,38.6599122 111.755669,38.6026394 C113.354851,38.5281849 114.689305,37.655094 116.08676,36.9964576 C117.582214,36.2913667 116.767669,34.8614576 117.03176,33.7758213 C117.194033,33.1076394 116.659487,33.1375485 116.159305,33.154094 C112.708942,33.2686394 109.480033,34.6024576 106.471305,35.8923667 C104.471214,36.7495485 106.573124,39.6004576 106.323669,41.5534576 C106.312214,41.645094 106.316033,41.7386394 106.312851,41.8315485 C106.140396,47.7573667 105.60076,53.6367303 103.997124,59.3716394 C103.803033,60.0646394 103.207396,60.7748213 103.914396,61.4105485 C104.560305,61.9902758 105.466487,61.6402758 106.000396,61.3125485 C107.655578,60.2975485 111.753124,60.230094 113.428669,59.9259122 C114.980124,59.6433667 114.34376,50.3658213 115.682033,47.1210031 M95.8968508,35.8726394 C96.2493963,34.8652758 96.3327599,33.3564576 95.5029417,32.7169122 C94.5420326,31.9768213 93.4748508,32.9358213 92.6030326,33.6472758 C89.9710326,35.7950031 87.5420326,38.1629122 84.4104872,39.7099122 C82.6967599,40.5569122 81.3343054,40.7223667 79.8681235,39.6240031 C78.2562145,38.4174576 78.5909417,36.850094 79.3494872,35.3622758 C82.4021235,29.3721849 87.5013054,24.2170031 92.1855781,19.5060031 C90.0111235,18.6520031 86.7822145,20.603094 84.5625781,21.1936394 C83.7613963,21.4074576 81.179669,22.5096394 80.4033054,22.0355485 C78.5285781,20.8913667 80.8627599,20.0100031 81.8459417,19.8305485 C87.4433963,18.8085485 92.1155781,15.6203667 97.1963054,13.4160031 C98.5479417,12.8299122 99.8022145,11.6488213 100.670851,10.4333667 C101.401396,9.41136671 102.264942,9.62709398 102.700214,10.0146394 C103.365214,10.6083667 103.100487,11.4649122 102.376305,12.1515485 C100.746578,13.6972758 98.8177599,14.821094 97.2745781,16.5590031 C92.5820326,21.8465485 87.9047599,27.1226394 84.0445781,33.0681849 C83.1689417,34.4166394 81.8720326,35.5538213 81.8682145,37.5125485 C84.4792145,37.5481849 86.6371235,36.2608213 88.2394872,34.6151849 C90.3967599,32.3987303 93.296669,31.2163667 95.3508508,28.9184576 C95.8523054,28.3571849 96.4835781,27.7984576 96.4854872,27.1417303 C96.4950326,24.397094 99.1671235,22.745094 99.2613054,20.0755485 C99.281669,19.5002758 99.5833054,19.2648213 100.12676,19.2546394 C100.600214,19.2463667 101.027851,19.2953667 101.37976,19.6911849 C101.751396,20.1105485 101.648942,20.4459122 101.424942,20.911094 C99.8881235,24.0999122 99.575669,26.5709122 99.1244872,29.5230031 C99.0411235,30.0696394 99.0952145,30.6538213 98.9233963,31.1667303 C98.6974872,31.8425485 98.0203963,32.7181849 98.966669,33.0319122 C99.6819417,33.2692758 100.821669,32.9606394 101.336487,32.1830031 C103.273578,29.2557303 104.532305,25.9969122 105.882669,22.7705485 C106.887487,20.3701849 107.034487,14.1172758 109.58376,15.5885485 C110.889578,16.3420031 108.844305,22.4746394 108.738033,22.7947303 C107.724942,25.8505485 106.229487,28.7797303 104.459124,31.4645485 C104.118033,31.9819122 104.014305,32.5298213 104.175942,33.0179122 C104.233851,33.1922758 104.996214,33.210094 105.42576,33.1725485 C108.732305,32.881094 111.544396,30.9809122 114.790487,30.3426394 C117.944305,29.7215485 120.917396,28.324094 123.764487,26.7261849 C124.191487,26.4862758 125.00476,25.496094 125.617578,26.3475485 C126.267942,27.2524576 125.789396,28.2770031 124.91376,28.7135485 C123.821124,29.2576394 122.867214,30.0123667 121.668942,30.4482758 C120.202124,30.9821849 119.070669,32.1397303 119.493851,35.2426394 C119.493851,35.2426394 121.951487,34.3714576 122.47776,34.3250031 C123.775942,34.2098213 125.554578,32.4725485 126.260942,34.3345485 C127.060214,36.4434576 124.14376,36.5828213 123.358487,36.6948213 C119.073851,37.3063667 118.47376,40.2196394 118.185487,44.0187303 C120.031578,42.6594576 121.894214,41.9861849 123.843396,41.6304576 C124.587305,41.4949122 125.742305,41.2072758 125.964396,42.2992758 C126.112669,43.0291849 125.140305,43.2932758 124.543396,43.7234576 C122.766033,45.0044576 120.417851,44.8561849 118.701578,46.363094 C117.900396,47.0662758 117.597487,47.6402758 117.51476,48.6247303 C117.289487,51.2866394 116.470487,59.068094 116.813487,59.2201849 C117.17176,59.3792758 123.639124,59.0216394 125.234487,57.780094 C126.280669,56.9668213 127.48976,56.2948213 128.802578,56.6817303 C128.208851,59.4295485 126.40476,60.2078213 120.622124,60.6310031 C119.483669,60.7143667 117.014578,60.6297303 116.896214,62.1041849 C116.84276,62.7679122 116.30376,62.8461849 115.898396,62.736094 C111.57176,61.560094 107.680396,64.4205485 103.38176,64.0654576 C102.089942,63.9585485 101.748214,63.8147303 101.291305,62.7450031 C100.708396,61.3812758 100.649214,59.8902758 101.073033,58.7301849 C102.504851,54.8108213 107.765033,35.4329122 100.314487,35.2528213 C99.3707599,35.2299122 99.4293054,34.204094 98.7763963,33.9196394 C97.2713963,39.0875485 97.9803054,44.4094576 97.3891235,49.6079122 C96.8132145,54.6733667 97.0168508,59.7324576 96.8793963,64.7947303 C96.7521235,69.4809122 94.3498508,64.318094 94.2461235,61.9005485 C94.1112145,58.760094 94.8188508,38.9551849 95.8968508,35.8726394" id="Fill-224"></path>
            <path d="M169.878196,60.148194 C169.822196,60.6235576 170.218651,61.0308303 170.69656,61.0060122 C173.46156,60.8641031 180.833833,60.4103758 181.432014,60.1914667 C182.118014,59.9407394 182.289833,54.1402849 180.63656,53.2996485 C179.330742,52.6359213 177.953651,53.6967394 176.698742,53.9831031 C174.97356,54.3770122 173.282105,53.708194 173.130651,51.7838303 C173.040287,50.6377394 173.985287,48.4715576 172.556014,47.7811031 C170.961287,47.0111031 170.002924,48.6586485 168.790014,49.3917394 C166.516287,50.7662849 165.016378,53.3607394 162.887105,55.0706485 C159.91656,57.4570122 158.209196,55.6573758 160.872378,53.0559213 C163.613833,50.3781031 166.536651,47.8600122 169.585469,45.5372849 C170.624651,44.7456485 171.266742,43.8044667 171.946378,42.6615576 C170.195742,43.1681031 168.454651,43.7109213 166.690651,44.1659213 C165.893924,44.3714667 165.029742,44.4694667 164.479287,43.5881031 C164.139469,43.0440122 164.286469,42.4922849 164.600833,42.025194 C165.085105,41.3061031 165.654651,41.1412849 166.65756,41.1591031 C168.699651,41.1947394 171.332924,41.6554667 171.434105,38.2216485 C171.455105,37.524194 172.505742,36.8922849 172.78956,37.2111031 C174.345469,38.9611031 175.094469,37.146194 176.20556,36.6873758 C176.764287,36.4563758 177.496105,35.368194 178.233014,36.607194 C179.011924,37.9174667 176.558105,39.2977394 175.707924,39.8361031 C174.36456,40.6862849 174.584742,40.9898303 174.470196,42.900194 C174.241742,46.7120122 174.927742,46.1023758 182.262469,45.8662849 C182.833924,45.8478303 187.424651,44.9982849 186.031651,47.0626485 C185.288378,48.1648303 184.023287,47.5545576 182.963742,47.6773758 C180.952833,47.9096485 178.871287,47.8161031 176.929742,48.3003758 C175.298742,48.7070122 175.618196,50.9107394 175.948469,52.1452849 C176.512287,52.0173758 177.076742,51.8525576 177.635469,51.6635576 C187.96556,48.1610122 184.229469,58.5305576 182.494105,69.2774667 C182.321651,70.3459213 181.177469,71.5346485 180.722469,70.8817394 C178.924105,68.3038303 171.819742,70.2810122 170.048105,70.6532849 C169.266651,70.8174667 167.424378,70.9962849 167.379833,69.8909213 C167.346105,69.0674667 167.993924,68.2726485 169.057287,68.1371031 C172.178651,67.7406485 175.704105,67.120194 178.930469,67.1825576 C181.030469,67.2239213 181.400196,64.6797394 181.436469,63.1804667 C181.450469,62.6058303 180.95856,62.1482849 180.385196,62.1890122 C179.111196,62.2800122 170.676833,62.4060122 170.242833,63.130194 C168.758833,65.6031031 171.401014,70.6571031 167.379833,69.8909213 C165.899014,69.6083758 168.362378,58.1347394 168.094469,56.5387394 C168.000924,55.9812849 168.734014,56.0411031 169.183287,56.0557394 C169.834924,56.0780122 170.232651,56.4140122 170.244105,57.0777394 C170.260651,58.0698303 169.998469,59.1236485 169.878196,60.148194" id="Fill-226"></path>
            <path d="M154.994096,30.1805576 C154.67846,32.9169213 151.961187,34.766194 152.481733,37.923194 C155.396914,36.4353758 160.363096,33.7658303 158.368096,29.6549213 C157.915005,28.7226485 157.269096,25.3378303 159.005096,25.1914667 C160.408914,25.0731031 160.842914,26.177194 161.23746,27.2653758 C161.478642,27.9297394 161.180824,28.8034667 162.253096,29.4092849 C164.481005,26.1873758 165.531005,22.5779213 165.597187,18.7368303 C165.624551,17.1650122 166.488733,16.8971031 167.447096,17.0657394 C168.446824,17.2413758 169.547096,18.2703758 168.941914,19.268194 C167.767187,21.2040122 167.914187,23.4713758 166.918914,25.4294667 C165.709187,27.808194 165.055642,30.5891031 161.708369,30.9842849 C161.558187,31.0014667 159.656096,38.6779213 151.982187,40.3541031 C151.154914,40.5348303 150.978005,41.2526485 150.859005,41.7617394 C149.901914,45.8465576 145.681551,51.0303758 150.243642,65.0462849 C150.510914,65.867194 150.834187,66.2210122 150.509642,66.7218303 C150.047642,67.4358303 149.402369,67.1004667 148.848096,66.665194 C148.639369,66.5010122 148.261369,66.4469213 148.17546,66.2490122 C145.873096,60.967194 144.730824,56.8957394 145.681551,51.0303758 C146.394914,46.6254667 147.604642,42.3020122 149.27446,38.1637394 C150.087733,36.1477394 150.93346,33.9637394 152.108187,32.1259213 C152.486187,31.5341031 152.308005,30.6145576 153.030914,30.2403758 C153.223096,30.1411031 155.022096,29.9387394 154.994096,30.1805576" id="Fill-228"></path>
            <path d="M176.698678,20.7516849 C176.355042,20.8185031 173.203769,21.1608667 173.224133,20.5251394 C173.275678,18.9234122 174.953133,18.8890485 175.611769,18.8591394 C177.829496,18.7579576 179.671769,17.5234122 181.780042,17.2345031 C182.674769,17.1123213 183.652224,16.7025031 184.380224,17.5838667 C185.233587,18.6160485 184.189314,19.241594 183.769314,19.9880485 C183.377314,20.6855031 182.965587,21.3715031 182.452678,22.2509576 C182.408133,22.3273213 184.477587,22.8033213 184.639224,22.8555031 C184.647496,22.8580485 184.655133,22.860594 184.662769,22.8631394 C185.311224,23.077594 185.214496,24.0276849 184.542496,24.1549576 C183.837405,24.288594 183.126587,24.5285031 182.635951,24.7009576 C181.506405,25.0980485 180.494587,25.7528667 179.590314,26.5292303 C177.734042,28.1220485 176.327678,30.1590485 174.678224,31.9497758 C176.453042,32.296594 182.763224,30.6382303 184.53486,31.3108667 C187.889769,33.5222303 182.39986,33.7506849 177.347769,34.1662303 C172.668587,34.5512303 168.253496,36.5061394 163.68886,37.602594 C162.809405,37.8145031 161.585042,37.7947758 161.444405,36.6531394 C161.335587,35.7673213 162.47086,35.6317758 163.221133,35.4122303 C165.148678,34.8477758 167.061587,34.2228667 169.010133,33.7424122 C170.287314,33.4274122 171.315678,33.0990485 170.929405,31.4375031 C170.825678,30.9895031 170.960587,30.5275031 171.57086,30.4225031 C174.204133,29.9681394 175.241405,27.4290485 177.188678,26.0678667 C177.793224,25.6453213 178.243133,24.946594 176.983769,24.4063213 C176.566951,24.2275031 175.69386,23.5516849 176.203587,22.5895031 C176.618496,21.8074122 177.277769,22.0918667 177.895678,22.0785031 C178.631314,22.0619576 179.42486,22.244594 179.939678,21.586594 C180.146496,21.3225031 181.039314,20.5270485 181.179951,20.3005031 C181.377224,19.9823213 181.212405,19.5247758 180.889133,19.3351394 C180.566496,19.1461394 177.281587,20.6390485 176.698678,20.7516849" id="Fill-230"></path>
            <path d="M182.512178,10.2604031 C181.333633,9.33513034 179.597633,9.98931216 179.343724,11.4656758 C179.255905,11.9798576 179.181451,12.3973122 179.110178,12.5640394 C178.713724,13.4937667 177.91636,13.933494 177.062996,13.5866758 C175.06036,12.7734031 177.666269,6.9156758 178.302633,4.33840307 C178.842269,2.1556758 180.762814,2.48213034 181.929905,5.02376671 C182.757178,6.82531216 183.695178,10.2171303 186.644724,10.2260394 C188.133814,10.2311303 187.706178,9.90531216 188.886633,9.03094852 C189.414814,8.64022125 190.53736,7.32994852 191.336633,8.61985761 C191.880724,9.4986758 191.451178,10.5467667 190.480724,11.2785849 C187.782542,13.3136758 185.001633,12.2153122 182.512178,10.2604031" id="Fill-232"></path>
            <path d="M92.5185872,53.6778394 C90.904769,52.6825667 92.1685872,48.1109303 89.063769,49.1068394 C87.6834963,49.5497485 86.4406781,51.4664758 85.5236781,52.5654758 C82.5703145,56.104294 80.8368599,59.3166576 77.1370417,62.215294 C76.4192235,62.7778394 75.5486781,63.1303849 74.9180417,62.4526576 C74.3154054,61.8054758 74.622769,60.8700213 75.1821326,60.1833849 C75.9973145,59.1830213 76.498769,58.1005667 78.0374963,57.5622031 C80.2634963,56.7839303 84.8160417,48.3113849 87.0668599,47.2594758 C89.7714054,45.9950213 92.3544054,47.3670213 92.9926781,50.3102031 C93.2052235,51.2914758 93.424769,52.2714758 93.641769,53.2521122 C93.3974054,53.7357485 93.0779508,54.0221122 92.5185872,53.6778394" id="Fill-234"></path>
            <path d="M162.271233,4.32020307 C163.328233,4.21456671 164.520142,3.86202125 165.693596,3.90338489 C166.617596,3.93520307 167.16996,4.96102125 166.657051,5.73038489 C166.187414,6.4354758 165.515414,6.94902125 164.939505,7.06483943 C160.517414,6.60729398 161.508869,7.44602125 161.356142,10.4961122 C161.253687,11.9253849 160.278142,12.0144758 158.772505,12.0762031 C158.901687,6.60920307 158.280596,7.79920307 154.277233,8.68056671 C153.557505,8.83902125 152.931324,8.11483943 153.228505,7.44029398 C153.560051,6.68874852 154.071051,6.2814758 155.112142,5.98174852 C157.51696,5.28811216 158.862233,4.63520307 158.862233,4.63520307 C158.862233,4.63520307 158.648414,2.7604758 158.978687,1.22302125 C159.263142,-0.099978749 161.027778,-0.450615113 161.781233,0.673839433 C162.072687,1.1084758 162.254051,1.54120307 162.182142,1.83393034 C162.103233,2.15656671 161.699778,3.61320307 162.271233,4.32020307" id="Fill-236"></path>
            <path d="M31.2874872,23.9800213 C32.0447599,20.0103849 34.1460326,15.497294 36.1715781,16.4454758 C37.1643054,16.9100213 36.421669,17.8155667 36.2733963,18.4054758 C35.6688508,20.8128394 34.3802145,22.987294 33.9093054,25.4799303 C33.7661235,26.2391122 33.2462145,26.8213849 33.663669,27.7180213 C34.1199417,28.6967485 33.5491235,29.2701122 32.5513054,29.448294 C30.9164872,29.7410213 30.7077599,27.0199303 31.2874872,23.9800213" id="Fill-238"></path>
            <path d="M150.750824,26.0652576 C150.736187,26.0639849 150.720914,26.0627122 150.706278,26.0601667 C149.866914,25.9367122 150.167914,24.4005303 150.70946,24.1020758 C151.655096,23.5821667 152.568914,22.8917122 153.58646,22.635894 C157.253824,21.7157122 160.631005,20.2355303 163.623824,17.9185303 C163.964278,17.6550758 164.244278,17.6041667 164.589187,17.8020758 C164.993914,18.0337122 164.934096,18.435894 164.864096,18.7833485 C164.694187,19.6335303 164.180005,20.3729849 163.478096,20.7446213 C161.452551,21.8162576 159.577824,23.1615303 157.49946,24.1345303 C155.495551,25.0731667 153.281005,25.4906213 151.14346,26.0118031 C151.014278,26.0429849 150.881914,26.0748031 150.750824,26.0652576" id="Fill-240"></path>
            <path d="M161.877451,13.3146303 C162.714269,13.2478122 163.165451,14.3296303 162.497269,14.8374485 C161.705633,15.4388122 160.683633,15.6259031 159.726542,15.7786303 C157.196996,16.1833576 154.589814,15.9339031 152.20536,17.3167213 C151.07836,17.9709031 150.679996,16.5747213 150.321724,15.8530849 C149.859724,14.9233576 150.760814,14.9577213 151.347542,14.7916303 C152.832814,14.3722667 158.572814,13.5793576 161.877451,13.3146303" id="Fill-242"></path>
            <path d="M39.4647599,27.6860122 C39.1262145,28.1569213 38.7393054,28.6297394 38.1392145,28.3516485 C37.6517599,28.1257394 37.8293054,27.5326485 37.9063054,27.1145576 C38.3065781,24.945194 39.6728508,23.0386485 39.5347599,20.6847394 C39.5048508,20.1661031 40.4835781,20.0566485 41.1867599,20.2634667 C42.7114872,20.7108303 40.6681235,26.0117394 39.4647599,27.6860122" id="Fill-244"></path>
            <path d="M119.938669,22.8896758 C119.890305,23.2040394 119.718487,23.6062213 119.158487,23.6253122 C118.719396,23.6405849 118.352214,23.6768576 118.135851,23.0494031 C117.518578,21.2580394 116.697033,19.6601303 114.343124,19.7288576 C113.53876,19.7524031 113.01376,19.1014031 113.107305,18.2270394 C113.184942,17.5098576 113.642487,17.0854031 114.392124,17.0427667 C114.850942,17.0160394 115.327578,16.9180394 115.766669,17.0033122 C116.833851,17.2101303 120.033487,21.6462213 119.938669,22.8896758" id="Fill-246"></path>
        </g>
    </g>
</svg>