<?xml version="1.0" encoding="UTF-8"?>
<svg width="216px" height="140px" viewBox="0 0 216 140" version="1.1" xmlns="http://www.w3.org/2000/svg" xmlns:xlink="http://www.w3.org/1999/xlink">
    <title>img-sign-4</title>
    <g id="img-sign-4" stroke="none" stroke-width="1" fill="none" fill-rule="evenodd">
        <g id="Group-4" transform="translate(16.948872, 27.930554)" fill="#56D250">
            <path d="M141.807309,58.7667368 C141.807309,58.7667368 154.966037,58.3995549 161.5104,58.142464 C163.679764,58.0571913 164.304673,59.0219186 164.368946,60.5301004 C164.451673,62.468464 162.872855,62.447464 161.392037,62.440464 C157.003037,62.4188277 152.640764,61.7423731 148.216764,62.2871004 C145.635673,62.6046459 141.215491,62.8865549 141.215491,62.8865549 L141.215491,66.4081913 C141.215491,66.4081913 160.2504,63.8958277 165.308219,64.925464 C166.201037,65.1068277 164.6114,49.5598277 163.455128,49.357464 C157.438309,48.307464 149.969946,48.1210095 144.012309,50.0835549 C143.437673,50.2725549 142.842037,51.0921913 142.842037,51.0921913 L141.807309,58.7667368 Z M136.979219,72.4281913 C136.426855,64.792464 138.475309,51.5611913 138.463219,49.8150095 C138.435855,45.6512822 159.992673,45.3878277 163.625037,45.7009186 C164.785128,45.8001913 167.307037,45.8351913 167.532309,46.9481913 C168.593764,52.1886459 171.053309,75.859464 171.484128,79.1863731 C171.649582,80.4616459 171.5204,81.2997368 170.366673,81.8323731 C164.421128,84.5801913 156.8134,84.2575549 150.365128,83.5772822 C149.359673,83.4710095 138.358219,83.4436459 140.819037,79.9016459 C141.316673,79.1851004 141.789491,78.3171004 142.993491,78.5010095 C147.6294,79.2067368 152.359491,78.5792822 156.994128,79.5331913 C159.353764,80.0187368 161.768128,79.667464 164.164673,79.4301004 C166.776309,79.1698277 166.6274,76.1483731 166.462582,74.2011004 C166.239855,71.5729186 166.113855,69.8051004 163.243855,69.0898277 C159.534491,68.1645549 155.745582,68.7366459 152.022219,69.2393731 C150.099764,69.4990095 148.171582,69.7758277 146.227491,69.7949186 C144.979582,69.8063731 142.563946,68.9275549 141.456037,69.3170095 C140.6644,69.5970095 140.488128,73.7187368 140.8324,74.4543731 C141.368219,75.6011004 141.337673,77.6031004 139.546309,77.8131004 C137.947764,78.0001913 137.219128,75.740464 136.979219,72.4281913 L136.979219,72.4281913 Z" id="Fill-20"></path>
            <path d="M25.8276185,26.0078186 C24.9908003,26.0078186 24.1520731,26.0440913 23.317164,26.0014549 C19.1680731,25.7914549 20.412164,34.1838186 19.5638912,35.9045459 C18.9924367,37.0646368 25.3287094,36.1991822 27.4083458,36.0890913 C28.4672549,36.0337277 29.4434367,36.034364 29.5102549,37.5820004 C29.5700731,38.9571822 28.9559821,39.7952731 27.7405276,39.8888186 C25.9033458,40.0307277 24.080164,40.2324549 22.2499821,40.4297277 C20.2855276,40.6410004 19.2813458,41.1914549 19.4073458,43.4327277 C19.7210731,49.0270004 19.0904367,54.605364 19.8330731,60.254364 C20.4929821,65.2784549 19.7929821,67.1137277 18.3089821,67.3530004 C16.8504367,67.5884549 16.7155276,64.5695459 16.4527094,61.6747277 C16.0110731,56.8160913 16.5615276,43.5765459 15.9022549,42.5640913 C15.2372549,41.5427277 6.2066185,44.1721822 2.80080032,43.2068186 C1.73680032,42.9051822 0.663254869,42.1816368 1.2786185,40.8134549 C1.7616185,39.7392731 2.45016396,39.2454549 3.9736185,39.2187277 C6.41789123,39.1760913 8.42434578,39.1111822 10.5949821,38.631364 C12.2648003,38.2622731 15.4529821,38.218364 16.2637094,36.475364 C16.9859821,34.9207277 17.2360731,27.0520913 16.030164,26.2324549 C15.1227094,25.6158186 13.8512549,25.7310004 12.8248003,25.4681822 C11.4547094,25.1162731 9.96307305,25.4350913 8.5656185,25.2976368 C7.6155276,25.2040913 4.49480032,24.2839095 5.61480032,22.6662731 C6.2365276,21.7702731 8.73743669,21.4342731 9.66270941,21.7130004 C13.5954367,22.8966368 30.926164,22.5250004 32.2154367,21.901364 C33.6218003,21.2204549 34.4885276,22.0668186 34.8735276,23.0207277 C35.4169821,24.3647277 34.2409821,24.9190004 33.1623458,25.3625459 C30.7817094,26.3406368 28.2757094,25.8461822 25.8276185,26.0078186" id="Fill-22"></path>
            <path d="M133.4383,15.9427095 C133.244846,18.2959822 133.838573,18.5632549 136.150482,17.7919822 C137.927846,16.6045277 149.4473,16.2360731 147.351755,13.2636186 C146.296028,12.2263459 143.620755,-3.32574505 147.152573,0.648345854 C149.713937,1.75943676 147.370846,6.30561858 151.038209,5.99061858 C154.875482,5.66161858 157.919209,4.62752767 157.191209,7.49943676 C156.232846,10.2198913 149.862846,9.21952767 149.925846,10.4388004 C149.675755,14.7673459 152.520937,14.5159822 154.930209,14.0094368 C156.826573,13.6110731 163.458119,13.3247095 167.160482,14.0889822 C168.626028,14.3918913 169.642937,15.716164 169.566573,17.2103459 C169.385846,20.749164 170.403391,24.1594368 167.532119,26.9333459 C162.648664,29.9064368 168.863391,17.7118004 164.365573,17.6437095 C154.300209,16.1533459 144.311846,19.2982549 134.735209,22.1638004 C133.794664,22.3184368 133.802937,23.1679822 134.221028,23.9367095 C134.479391,25.0299822 134.665846,29.0008913 133.584028,28.7068913 C128.954482,26.2117095 130.545391,19.5388004 129.613755,15.2128004 C129.566664,13.5697095 131.650119,14.5605277 132.810846,14.9652549 C133.031028,15.3082549 133.218119,15.5997095 133.4383,15.9427095" id="Fill-24"></path>
            <path d="M93.1717549,63.5152186 C97.380664,62.7725822 110.562937,62.5950368 110.562937,62.5950368 C110.562937,62.5950368 111.154755,59.933764 110.872209,56.0780368 C110.417846,54.144764 111.079028,47.4400368 109.691119,47.067764 C108.580028,46.7705822 94.9198458,48.4104913 93.7915731,48.6663095 C92.3330276,49.0990368 92.0829367,63.4293095 93.1717549,63.5152186 M89.379664,64.8471277 C88.4728458,61.0824004 89.5928458,56.5724913 88.9163912,52.1236731 C88.8629367,51.7711277 86.7858458,45.814764 94.1485731,45.5175822 C98.3307549,45.3483095 102.235482,44.4593095 106.2783,44.4994004 C109.178209,44.5280368 110.556573,43.1051277 113.196846,44.2766731 C114.514119,44.8608549 115.518937,47.4432186 115.191209,48.4862186 C114.094119,51.9766731 113.630209,55.488764 113.704664,59.1809459 C113.749209,61.3725822 114.630573,66.1484913 112.780664,66.2916731 C110.102209,66.4978549 98.5331185,66.457764 96.6717549,66.5245822 C95.8203003,66.5551277 92.767664,66.0765822 92.4940276,67.2016731 C92.2884821,68.0454913 88.756664,67.2799459 89.379664,64.8471277" id="Fill-26"></path>
            <path d="M93.1832731,23.5153731 C93.1075458,24.0206459 93.048364,24.5182822 93.0330912,25.0012822 C92.9592731,27.3825549 92.6385458,29.8261913 93.3118185,32.1546459 C94.1104549,34.9151913 92.2280912,37.4587368 88.295364,36.9108277 C83.2400912,36.2063731 78.1899094,36.141464 73.1079094,36.6683731 C71.509364,36.8338277 70.1590003,36.1230095 71.7276367,34.2387368 C72.321364,33.5253731 72.3512731,33.0576459 72.1470003,32.1037368 C71.3152731,28.2219186 72.0470912,24.1981913 71.3222731,20.2718277 C71.2128185,19.6781004 70.8119094,18.3881913 72.2838185,18.480464 C73.3210912,18.5460095 74.3354549,18.8145549 74.3946367,20.1451913 C74.5295458,23.1851004 74.729364,26.2269186 74.7242731,29.267464 C74.7179094,32.8941004 74.7879094,32.7305549 78.3528185,32.9386459 C81.4245458,33.1187368 89.4191821,32.8750095 89.4191821,32.8750095 L89.5668185,17.7931913 C89.5668185,17.7931913 87.8206367,17.4508277 85.7772731,17.1797368 C82.1977276,16.7062822 78.6824549,17.4126459 75.1360003,17.3471004 C73.9071821,17.3241913 72.8037276,17.0359186 72.6840912,15.7918277 C72.5829094,14.742464 73.5680003,14.3517368 74.5931821,13.9361913 C78.0174549,12.5470095 81.7147276,13.9291913 85.3216367,13.7669186 C91.0781821,13.5091913 92.9268185,14.2130095 93.8546367,17.2020095 C94.3834549,18.9036459 93.4562731,21.700464 93.1832731,23.5153731" id="Fill-28"></path>
            <path d="M178.149528,43.4525186 C180.917073,44.0341549 183.778164,45.0701549 182.342528,47.8771549 C181.759619,49.0181549 180.893528,49.0646095 179.804709,48.6783368 C175.806437,47.2605186 171.846982,45.6995186 167.774255,44.5375186 C163.488982,43.3144277 158.987982,42.7945186 154.777164,41.3811549 C151.807891,40.3846095 148.581528,40.5761549 145.724891,38.8789731 C144.574346,38.1948822 143.231619,40.3305186 142.528437,41.2965186 C140.483164,44.1035186 137.871528,46.1061549 135.096346,48.0349731 C134.210528,48.6503368 133.196164,49.5132459 132.917437,50.462064 C132.536891,51.757064 131.841346,51.666064 130.889346,51.6991549 C130.038528,51.7277913 129.696164,51.2148822 129.519255,50.5988822 C129.251346,49.6659731 129.2628,48.4925186 130.1378,48.0661549 C132.252437,47.0365186 133.364164,44.9556095 135.117346,43.6504277 C139.097164,40.6881549 142.175255,36.8998822 145.435982,33.2637004 C145.745255,32.9194277 146.0138,32.4688822 146.403891,32.2798822 C147.535982,31.7313368 148.637528,30.2174277 149.863164,30.9696095 C151.401891,31.9133368 150.478528,33.2465186 149.726982,34.5198822 C149.0098,35.7353368 150.187709,35.9752459 151.077982,36.2151549 C155.009437,37.2747004 158.902073,38.5156095 162.879346,39.3587913 C166.873164,40.2051549 170.705982,41.6299731 174.6228,42.7582459 C175.411891,42.9854277 176.769255,43.1623368 178.149528,43.4525186" id="Fill-30"></path>
            <path d="M60.2930731,64.4991004 C60.1918912,63.3192822 70.6320731,63.532464 71.6782549,63.3472822 C72.9783458,63.1162822 75.2247094,63.1862822 75.2247094,63.1862822 L74.6322549,50.2897368 C74.6322549,50.2897368 70.8166185,49.5356459 68.4232549,49.4351004 C67.2472549,49.3861004 63.6384367,49.154464 62.5082549,49.4351004 C61.0427094,49.7991004 61.0802549,50.946464 61.1464367,52.7130095 C61.292164,56.5999186 59.9373458,60.3652822 60.2930731,64.4991004 M57.6706185,60.5708277 C58.4145276,57.8001004 58.2128003,53.9240095 58.1243458,50.9012822 C58.0129821,47.1206459 59.346164,45.9242822 63.2572549,46.1680095 C66.6948912,46.382464 76.2702549,46.403464 77.7790731,46.5911913 C79.2656185,46.7757368 79.1835276,47.5648277 79.0174367,48.3017368 C78.2353458,51.7775549 78.2429821,55.3049186 78.6483458,58.7686459 C78.8507094,60.4970095 79.5577094,64.3132822 78.477164,65.8475549 C77.5028912,67.2310095 74.1187094,66.6092822 72.5348003,66.7963731 C70.0008003,67.095464 67.4483458,66.3808277 64.9188003,66.801464 C62.9734367,67.1253731 60.998164,67.312464 59.0286185,67.4397368 C57.5592549,67.5351913 56.8999821,66.6875549 57.0654367,65.2417368 C57.2334367,63.7717368 57.4434367,62.3061913 57.6706185,60.5708277" id="Fill-32"></path>
            <path d="M135.962055,24.1637004 C136.950964,23.204064 139.053509,23.4668822 141.029419,22.9539731 C147.848055,21.1861549 155.345691,20.6401549 162.367328,21.4597913 C162.8376,22.1801549 163.365146,22.8833368 163.069237,23.8308822 C162.593873,25.703064 161.138509,25.4555186 159.738509,25.4135186 C159.319146,25.4014277 158.703146,25.4867004 158.505873,25.7609731 C157.564055,27.0693368 162.251509,29.2584277 163.0896,29.4518822 C163.468873,29.5397004 163.864691,29.6014277 164.196873,29.8057004 C165.1686,30.4032459 164.6226,32.0323368 163.813782,32.528064 C163.010691,33.0199731 161.996328,32.647064 161.182419,32.3766095 C158.986964,31.646064 153.477328,28.7124277 152.795782,26.319064 C152.670419,25.8799731 152.193782,25.2531549 151.557419,25.4179731 C148.362237,26.2452459 144.375419,25.4103368 141.728782,27.8005186 C138.881055,30.3727004 136.357237,34.8832459 134.652419,38.3017913 C134.506691,38.5945186 134.355237,38.9018822 134.089873,39.0927913 C133.748146,39.3384277 133.272146,39.3371549 132.8846,39.1736095 C132.070691,38.8306095 131.6526,37.8716095 131.692691,36.9889731 C131.732146,36.1063368 132.138146,35.2847913 132.572146,34.5154277 C133.183055,33.4329731 133.865237,32.3906095 134.614237,31.3985186 C135.316146,30.4687913 138.065237,26.7479731 138.065237,26.7479731 C138.065237,26.7479731 134.457691,25.6228822 135.962055,24.1637004" id="Fill-34"></path>
            <path d="M30.7163549,68.4903731 C26.1854458,68.6507368 21.6640821,69.0020095 17.138264,69.2552822 C12.6977185,69.5041004 7.97335487,69.0446459 3.59199123,69.7287368 C0.651991232,70.1881913 -1.83809968,67.3156459 1.84390032,66.1816459 C4.69990032,65.3015549 7.61444578,65.7221913 10.4106276,65.8157368 C16.5419912,66.0219186 22.5524458,64.7135549 28.6889003,64.9178277 C30.3383549,64.9725549 31.9101731,64.3928277 33.4858094,63.9925549 C34.5529912,63.721464 39.0463549,62.727464 39.4326276,64.1433731 C39.9875367,66.1797368 38.0638094,67.5689186 36.2985367,68.0888277 C35.2479003,68.3981004 34.1361731,68.404464 33.0416276,68.4261004 C32.2659003,68.4407368 31.4908094,68.4630095 30.7163549,68.4903731" id="Fill-36"></path>
        </g>
    </g>
</svg>