<?xml version="1.0" encoding="UTF-8"?>
<svg width="216px" height="140px" viewBox="0 0 216 140" version="1.1" xmlns="http://www.w3.org/2000/svg" xmlns:xlink="http://www.w3.org/1999/xlink">
    <title>img-sign-16</title>
    <defs>
        <polygon id="path-1" points="0 0 56.8353182 0 56.8353182 94.5232875 0 94.5232875"></polygon>
    </defs>
    <g id="img-sign-16" stroke="none" stroke-width="1" fill="none" fill-rule="evenodd">
        <g id="Group-17" transform="translate(7.410555, 28.999349)">
            <path d="M34.8747905,46.5305239 C32.5520632,46.553433 29.1475177,46.5432512 28.3717905,48.5789784 C28.0147905,49.5176148 28.6110632,50.0655239 29.1328814,50.7750693 C29.8666087,51.7728875 30.5780632,51.7989784 31.5720632,51.3707057 C32.534245,50.9557966 33.5085177,50.5065239 34.5260632,50.2888875 C35.6269723,50.0527966 37.3756996,49.9579784 38.0336996,48.8761603 C38.9634268,47.3482512 37.6983359,46.3669784 36.2054268,46.4891603 C35.8395177,46.5190693 35.383245,46.525433 34.8747905,46.5305239 M58.0250632,67.2708875 C57.776245,67.4668875 57.4879723,67.6406148 57.1576996,67.7888875 C56.1236087,68.253433 54.9176996,68.2082512 53.828245,67.8945239 C52.0247905,67.3765239 50.5191541,66.1699784 48.6915177,65.6977966 C43.7813359,64.4288875 39.3261541,61.8458875 34.7099723,59.7465239 C33.3436996,59.125433 32.0620632,58.9517057 30.5239723,59.4111603 C25.8829723,60.7990693 24.918245,59.9552512 24.4568814,55.3619784 C24.2691541,53.4923421 23.2719723,51.6990693 22.6126996,49.8822512 C21.2196996,46.0437057 21.9706087,43.5389784 26.1018814,42.2490693 C28.8617905,41.387433 31.8221541,41.4268875 34.6800632,41.3225239 C35.8299723,41.2805239 37.098245,41.1710693 37.0689723,39.9556148 C37.0015177,37.2593421 27.3784268,40.0103421 25.8116996,40.0561603 C25.5845177,40.0625239 25.3516087,40.0682512 25.1358814,39.994433 C23.3597905,39.3841603 24.5898814,36.011433 25.4623359,35.2089784 C26.668245,34.0991603 28.0644268,33.1929784 29.3956996,32.2231603 C30.5188814,31.4047966 31.3448814,30.1995239 30.7664268,28.9891603 C30.0097905,27.4052512 28.7256087,28.8351603 27.8684268,29.1520693 C25.9243359,29.8705239 24.022245,29.767433 22.0666996,29.5275239 C19.9030632,26.9356148 22.0393359,24.1693421 24.7126996,23.5857966 C27.2823359,23.0251603 30.3445177,22.844433 31.6916996,20.1659784 C31.9570632,19.6397057 32.1447905,19.0211603 32.6430632,18.7067966 C33.2724268,18.3103421 34.116245,18.5871603 34.7195177,19.022433 C35.3234268,19.4570693 35.8293359,20.0437966 36.5108814,20.3416148 C37.924245,20.9588875 39.5068814,20.1545239 40.9285177,19.5582512 C42.3507905,18.9613421 44.2916996,18.700433 45.1743359,19.9642512 C46.0156087,21.1682512 45.1711541,22.9099784 43.937245,23.7067057 C42.7033359,24.5027966 41.1887905,24.7127966 39.8384268,25.2893421 C37.126245,26.4475239 35.1719723,29.207433 34.9810632,32.1499784 C34.9536996,32.5725239 34.9651541,33.0192512 35.1764268,33.386433 C35.8776996,34.604433 37.8071541,33.9095239 39.0868814,34.4911603 C40.1941541,34.9951603 40.6014268,36.4409784 40.3150632,37.6233421 C40.0286996,38.8057057 39.2230632,39.7831603 38.4409723,40.7147966 C40.4168814,39.4446148 43.4879723,40.6982512 44.0104268,42.9885239 C44.1886087,43.7699784 44.1459723,44.6818875 44.7186996,45.2418875 C45.4606996,45.9679784 46.8129723,45.6663421 47.5676996,46.3790693 C48.5858814,47.3393421 47.6529723,49.0097966 46.7175177,50.0508875 C45.3588814,51.5635239 44.000245,53.0761603 42.6416087,54.5887966 C41.9785177,55.3269784 41.2696087,56.3235239 41.6908814,57.221433 C41.949245,57.7718875 42.5518814,58.0601603 43.1118814,58.2962512 C45.6426996,59.363433 48.2473359,60.2537057 50.9016087,60.9587966 C51.5659723,61.1357057 52.3130632,61.2909784 52.9074268,60.9460693 C53.8995177,60.3707966 53.7639723,58.9243421 53.5291541,57.8017966 C50.3116996,42.4297966 53.3261541,26.323433 50.5986996,10.8572512 C50.5376087,10.510433 50.4510632,10.1273421 50.1608814,9.92879662 C49.8783359,9.73534208 49.5016087,9.78306935 49.1649723,9.84479662 C45.5765177,10.5015239 42.1407905,11.7939784 38.6770632,12.939433 C33.3436996,14.703433 27.8913359,16.131433 22.3428814,17.006433 C21.1853359,17.1890693 19.7617905,17.5861603 19.5575177,18.7405239 C19.4938814,19.0987966 19.5727905,19.4659784 19.6510632,19.8223421 C20.4897905,23.6373421 21.0707905,26.1318875 19.9361541,29.9099784 C18.2313359,35.5882512 15.1048814,41.1958875 11.9981541,46.2269784 C9.47242684,50.3162512 6.30715411,54.0237057 4.58133593,58.607433 C4.03724502,60.0513421 2.45333593,61.5448875 1.29769957,60.8359784 C-0.427482253,59.7777057 -0.239118616,57.5135239 0.74024502,55.7686148 C2.32160866,52.951433 4.17469957,50.2882512 5.77642684,47.4818875 C9.22042684,41.4510693 14.8471541,34.8220693 15.8335177,27.7431603 C16.1434268,25.5165239 16.3317905,18.5286148 13.9320632,17.2247057 C12.6663359,16.5367966 12.5568814,15.2850693 13.046245,14.1701603 C13.6215177,12.8598875 14.8503359,12.0217966 16.2878814,12.0491603 C22.9646087,12.176433 29.3250632,10.5187057 35.5404268,8.42697844 C39.7416996,7.01298682 44.1205177,6.15388753 48.1976996,4.3116148 C49.124245,3.89288753 50.0609723,3.60588753 50.9327905,2.9886148 C52.470245,1.90043299 54.6516996,2.77734208 55.1066996,4.62534208 C55.4318814,5.94897844 55.7487905,7.33816026 55.6896087,8.68152389 C55.3510632,16.3948875 56.3870632,24.3895239 56.7338814,32.1137057 C56.9133359,36.1011603 57.0921541,40.0886148 57.2716087,44.075433 C57.4485177,48.0196148 57.1666087,52.3246148 57.8704268,56.2070693 C58.4380632,59.3341603 61.0344268,64.9080693 58.0250632,67.2708875" id="Fill-1" fill="#56D250"></path>
            <g id="Group-5" transform="translate(144.357967, 0.000000)">
                <mask id="mask-2" fill="white">
                    <use xlink:href="#path-1"></use>
                </mask>
                <g id="Clip-4"></g>
                <path d="M34.3782141,24.7436603 C36.3343959,24.3077512 38.2899414,23.8705693 40.2461232,23.435933 C41.0670323,23.2532966 41.1421232,22.6086603 41.0975777,21.9602057 C41.0632141,21.4600239 41.0212141,20.6874784 40.3224868,20.8312966 C37.9768505,21.3136603 35.4320323,21.167933 33.4249414,22.8014784 C32.9826687,23.1610239 32.9215777,23.7267512 33.0876687,24.2676603 C33.3046687,24.975933 33.8532141,24.8193875 34.3782141,24.7436603 M42.9264868,10.2472966 C43.5437596,7.98947844 42.1062141,7.34675117 39.948305,7.63884208 C37.1909414,8.01238753 34.4412141,8.47502389 31.7105777,9.01275117 C28.6038505,9.62493299 29.2344868,12.0711148 29.5004868,14.1202057 C29.8033959,16.4562966 31.5686687,15.238933 32.7567596,15.1593875 C34.7969414,15.0225693 36.8256687,14.5828421 38.8620323,14.5612057 C42.0985777,14.5268421 42.9818505,13.7765693 42.9264868,10.2472966 M42.3314868,49.6712966 C43.6379414,57.4132966 44.0872141,65.0063875 44.7184868,72.8272966 C44.9068505,75.3167512 45.5069414,77.8310239 45.4108505,80.3357512 C45.3134868,82.8621148 44.6847596,85.2834784 44.8953959,87.8410239 C45.0773959,90.0460239 45.0417596,93.1890239 42.5720323,94.2854784 C40.1665777,95.3532966 38.8365777,92.5972057 39.059305,90.5582966 C39.9031232,82.8182057 39.4888505,74.9928421 38.7544868,67.2622966 C38.387305,63.3938421 37.9259414,59.534933 37.4683959,55.6760239 C37.1069414,52.6252966 37.330305,50.6532057 33.7329414,50.6481148 C31.0882141,50.644933 29.1409414,51.4416603 28.7393959,54.3460239 C28.4352141,56.5452966 28.097305,58.750933 27.9897596,60.9648421 C27.901305,62.7772057 26.6922141,63.958933 25.3832141,63.9952057 C23.9062141,64.0365693 23.3831232,62.376933 23.4448505,60.9031148 C23.5326687,58.8457512 24.5393959,56.4727512 24.0124868,54.4230239 C23.8941232,53.962933 23.5460323,53.5282966 23.0757596,53.458933 C22.8065777,53.4188421 22.5354868,53.500933 22.2752141,53.5817512 C19.6323959,54.403933 17.0105777,55.1472057 14.3276687,55.8141148 C10.5794868,56.7457512 6.75557774,57.5163875 2.8731232,57.2726603 C0.836759561,57.1453875 -0.211331348,56.0502057 0.0355777426,54.291933 C0.296486834,52.4394784 1.7111232,50.6952057 3.68448683,51.1018421 C8.74930502,52.1467512 12.8290323,48.9534784 17.4821232,48.3552966 C19.1353959,48.1427512 18.8770323,47.6686603 17.6749414,46.6867512 C15.9408505,45.2702057 16.3939414,42.4453875 18.4137596,42.2118421 C20.4698505,41.9744784 21.1781232,40.7787512 22.2274868,39.4493875 C23.7954868,37.4620239 25.101305,35.3053875 26.5973959,33.2862057 C28.2220323,31.093933 28.8170323,29.1886603 26.8818505,26.837933 C25.1210323,24.6991148 24.5215777,21.8615693 24.4636687,19.2951148 C24.3643959,14.8526603 23.4117596,10.6685693 22.0499414,6.5341148 C21.6795777,5.41029662 21.7304868,4.34056935 21.7813959,3.26447844 C21.8940323,0.89847844 24.0220323,-0.31952156 25.1553959,1.38656935 C27.2585777,4.55247844 29.8320323,3.0831148 32.038305,2.67902389 C36.2624868,1.90456935 40.6533959,1.97902389 44.7140323,0.153296622 C46.3736687,-0.59252156 48.9611232,1.52466026 49.1488505,3.44647844 C49.2627596,4.6091148 49.2258505,5.79975117 49.1310323,6.96747844 C48.915305,9.62366026 48.2878505,12.1258421 50.8492141,14.4091148 C51.9711232,15.4088421 51.5899414,18.1133875 49.3874868,18.6708421 C46.8744868,19.3065693 46.4646687,20.2992966 47.3886687,22.623933 C48.9662141,26.5884784 47.5604868,27.7721148 43.3687596,28.5522966 C38.7322141,29.4145693 33.935305,30.3525693 31.6004868,35.8914784 C30.589305,38.289933 28.2201232,40.4675693 26.333305,42.6356603 C24.0277596,45.2854784 26.6502141,45.8480239 28.8367596,45.1372057 C30.8311232,44.4893875 34.0975777,44.8902966 34.964305,42.2182057 C35.4549414,40.7036603 34.0854868,39.409933 34.5913959,37.7642966 C34.9464868,36.6092966 35.9818505,34.6944784 37.3309414,34.5894784 C39.8146687,34.3960239 40.4064868,37.8177512 40.8143959,39.4964784 C41.2910323,41.4583875 42.3333959,41.6060239 44.2793959,40.914933 C46.4824868,40.1322057 48.8160323,39.6014784 51.0630323,38.9326603 C52.7945777,38.4172057 56.7101232,37.9157512 56.8310323,40.6400239 C56.9691232,43.8052966 53.7427596,45.5902966 51.1362141,46.4175693 C49.587305,46.9088421 43.0111232,46.4761148 42.4237596,47.4720239 C42.0794868,48.054933 42.1806687,48.7867512 42.2945777,49.4536603 C42.307305,49.5262057 42.3193959,49.5987512 42.3314868,49.6712966" id="Fill-3" fill="#56D250" mask="url(#mask-2)"></path>
            </g>
            <path d="M120.490263,34.6925693 C121.074445,34.5646603 122.15499,34.5506603 121.864172,33.8633875 C121.510354,33.0265693 120.58699,32.2890239 119.733627,31.8512057 C119.051445,31.499933 118.619354,32.269933 118.588172,32.9406603 C118.528354,34.2235693 119.554809,34.4208421 120.490263,34.6925693 M117.130263,47.4726603 C119.091536,46.1432966 118.849081,43.8950239 119.575809,42.1787512 C119.973536,41.2401148 119.110627,40.4408421 117.890718,40.4898421 C116.123536,40.5604784 112.810627,43.3286603 113.195627,44.6287512 C113.735263,46.4493875 115.776718,46.3902057 117.130263,47.4726603 M99.3515359,22.7276603 C98.1112632,22.6780239 97.6212632,21.8214784 97.2839905,20.8020239 C97.211445,20.3317512 97.1382632,19.8608421 97.0657177,19.3905693 C96.8028996,17.6908421 100.547263,14.7985693 101.417172,13.495933 C102.913263,11.2578421 104.392809,8.53420571 104.611718,5.80929662 C104.68999,4.84075117 104.6429,3.75829662 105.29199,3.03602389 C105.925172,2.33156935 106.985354,2.24438753 107.932263,2.26538753 C108.653263,2.28129662 109.463354,2.37547844 109.914536,2.93866026 C110.336445,3.46429662 110.293809,4.21456935 110.195172,4.88147844 C109.820354,7.40847844 108.936445,9.85847844 107.6109,12.0424784 C107.342354,12.4853875 107.047718,12.9378421 106.991081,13.4532966 C106.934445,13.9681148 107.207445,14.5631148 107.71399,14.671933 C107.903627,14.7126603 108.1009,14.6814784 108.292445,14.650933 C111.580536,14.1195693 116.499627,14.5701148 117.3829,10.5075693 C118.014172,7.60384208 119.708172,7.5491148 121.682172,8.8931148 C123.8369,10.3612057 125.590081,12.0978421 126.591718,14.7966603 C127.752445,17.9224784 130.502172,20.194933 131.3899,23.4531148 C132.302445,26.8022966 131.515263,30.5861148 129.368172,33.3021148 C128.127263,34.8707512 122.914172,33.6985693 124.474536,36.3006603 C127.1059,40.6902966 124.664809,44.3525693 122.966354,48.0441148 C121.930354,50.294933 121.502718,51.6904784 123.893536,53.6192966 C128.974263,57.7193875 133.554809,62.432933 138.503809,66.7067512 C141.140263,68.9842966 144.117809,70.8666603 146.938809,72.9316603 C148.422172,74.0172966 151.153445,75.6253875 151.3259,77.7101148 C151.469718,79.4480239 149.480445,82.0004784 147.769263,82.2435693 C145.066627,82.6272966 144.297263,79.5555693 142.566354,78.1924784 C135.170536,72.3691148 127.5189,66.8613875 120.628354,60.4137512 C118.060627,58.0114784 116.535263,59.7264784 114.640172,61.7908421 C112.883809,63.7050239 106.678627,71.2802966 103.81499,69.0173875 C102.5009,67.9782057 102.050354,66.2542966 103.541354,64.588933 C105.874263,61.9811148 108.431809,59.639933 111.233718,57.5622057 C113.485809,55.8930239 113.583809,54.5585693 111.428445,52.9415693 C110.592263,52.3141148 109.585536,51.904933 108.781172,51.2437512 C105.970354,48.9331148 105.809354,47.1035693 107.948809,44.2692057 C110.3689,41.0638421 111.752354,37.2354784 114.031809,33.9352966 C115.966354,31.1346603 113.135809,30.4098421 111.4049,28.5497512 C112.490536,29.7162057 107.332809,36.4591148 106.6029,37.463933 C105.002445,39.6670239 103.180536,44.5682966 100.449263,45.1225693 C99.668445,45.2810239 98.8589905,45.4388421 98.0819905,45.2638421 C95.370445,44.6510239 96.3822632,41.5722966 97.7988087,40.2588421 C102.169354,36.2083875 105.082627,31.4082966 105.880627,25.3978421 C106.16699,23.2386603 109.117809,21.9207512 111.033263,22.9548421 C111.573536,23.2462966 112.30599,24.0850239 112.5109,23.9583875 C116.8859,21.2684784 119.77499,25.6670239 123.44999,26.1996603 C124.7679,26.3905693 126.325081,28.3244784 127.1689,27.2057512 C128.329627,25.6670239 125.955354,24.9097512 125.140809,23.8444784 C121.44099,19.0055693 116.334172,17.5934784 110.762809,20.026933 C107.515445,21.4447512 104.145263,22.2478421 100.724172,22.9732966 C100.266627,22.8912057 99.8090814,22.8097512 99.3515359,22.7276603" id="Fill-6" fill="#56D250"></path>
            <path d="M86.6035177,30.4532421 C86.6003359,30.5251512 86.5971541,30.5970603 86.5939723,30.668333 C86.4616087,33.3416966 87.694245,60.5825148 85.7164268,60.5825148 C85.7170632,60.5825148 85.7590632,60.5487875 85.7590632,60.5487875 C84.6530632,61.2602421 83.4993359,62.7404239 82.2501541,62.0245148 C80.694245,61.1329693 80.0044268,59.3645148 80.1787905,57.3981512 C80.6827905,51.7160603 81.1180632,45.7386966 81.3019723,39.9261512 C81.3986996,36.8658784 81.4317905,33.8030603 81.380245,30.7415148 C81.3426996,28.5326966 82.2126087,25.0256966 80.4587905,23.4608784 C79.8065177,22.8792421 78.9448814,23.5614239 78.244245,24.1246057 C76.4617905,25.5589693 74.6920632,27.042333 72.7473359,28.2285148 C71.9066996,28.7414239 70.418245,29.8296057 69.6736996,28.5276057 C69.0958814,27.5176966 68.2794268,26.160333 69.5998814,24.5980603 C73.5911541,19.8768784 80.7661541,18.3769693 83.6876996,12.6096057 C84.6836087,10.6419693 84.7039723,3.19078753 88.3929723,4.32287844 C90.8003359,5.06233299 90.8506087,7.40987844 90.3135177,9.59260571 C90.1124268,10.4090603 89.9444268,11.3336966 89.4474268,11.9611512 C85.3619723,17.1214239 86.861245,24.3435148 86.6035177,30.4532421" id="Fill-8" fill="#56D250"></path>
        </g>
    </g>
</svg>