<?xml version="1.0" encoding="UTF-8"?>
<svg width="216px" height="140px" viewBox="0 0 216 140" version="1.1" xmlns="http://www.w3.org/2000/svg" xmlns:xlink="http://www.w3.org/1999/xlink">
    <title>img-sign-5</title>
    <g id="img-sign-5" stroke="none" stroke-width="1" fill="none" fill-rule="evenodd">
        <g id="Group-6" transform="translate(20.220103, 32.531968)" fill="#56D250">
            <path d="M66.3037789,30.3118049 C66.4081426,29.7308049 66.6798698,29.3375322 67.5491426,29.3699867 C68.5017789,29.4062594 68.5221426,29.9573503 68.4521426,30.6821685 C68.3140517,32.1088958 67.7718698,32.5925322 68.1740517,34.6008958 C71.7873244,32.756714 74.7165062,31.8422594 78.2381426,30.9354413 C82.2879608,29.8930776 88.6681426,28.5051685 88.6681426,28.5051685 C88.6681426,28.5051685 90.2902335,22.6563503 89.0849608,20.1675322 C88.8380517,19.6565322 88.7387789,18.6128958 89.9249608,18.5168049 C90.7649608,18.4480776 91.2371426,18.5486231 91.3249608,19.6482594 C91.5044153,21.8863503 91.9562335,24.1180776 91.3593244,26.3396231 C90.8693244,28.1615322 91.596688,28.3282594 91.596688,28.3282594 C91.596688,28.3282594 106.200597,26.6838958 115.951597,27.5289867 C117.408233,27.6549867 119.052597,28.0323503 120.436052,28.6833503 C121.766052,29.3095322 121.459324,30.4505322 120.513052,31.3738958 C117.789415,34.030714 104.760506,45.1148958 104.707052,45.1670776 C103.354143,46.4938958 106.948961,49.1309867 107.754597,49.801714 C108.646779,50.5449867 109.836779,51.1724413 108.074688,51.6350776 C107.195233,51.8654413 105.477688,51.5771685 104.94887,50.7384413 C103.615052,48.6206231 102.29587,47.5801685 102.29587,47.5801685 C102.29587,47.5801685 98.7914153,51.271714 97.7598698,52.2905322 C97.2991426,52.7461685 96.5940517,52.9319867 96.1110517,52.3624413 C95.6057789,51.7674413 95.9615062,51.4880776 96.5310517,50.9280776 C97.2813244,50.1905322 101.175233,45.8276231 101.175233,45.8276231 C100.592324,44.4161685 100.071779,42.9754413 99.5894153,41.527714 C99.198688,40.3555322 97.0051426,35.0240776 98.1187789,34.0816231 C98.3593244,33.8779867 98.6934153,33.8302594 99.0084153,33.8238958 C99.2915971,33.8181685 99.5951426,33.8474413 99.8134153,34.0268958 C100.18187,34.3304413 99.9330517,36.2350776 100.04887,36.8084413 C100.284324,37.9736231 100.729143,39.1044413 101.191143,40.1958049 C101.305052,40.4649867 103.17087,44.0279867 103.108506,44.0865322 C105.581415,41.7708049 108.361688,39.5155322 110.981597,37.2570776 C113.472961,35.1093503 118.742052,30.439714 118.742052,30.439714 C118.742052,30.439714 114.113143,29.8052594 112.626597,29.7244413 C105.568688,29.3426231 99.6931426,30.6643503 92.6301426,30.7661685 C91.414688,30.7839867 91.2040517,31.4088958 91.1455062,32.2813503 C90.7662335,37.929714 88.7833244,56.7215322 88.2074153,60.9406231 C88.0871426,61.8213503 87.4940517,61.8849867 86.7698698,61.7628049 C85.5149608,61.5515322 85.3189608,60.6561685 85.5754153,59.6863503 C86.0310517,57.9586231 86.6814153,52.8899867 86.6814153,52.8899867 C86.6814153,52.8899867 79.7469608,55.4965322 79.1220517,54.3644413 C78.6848698,53.5721685 77.7965062,52.818714 78.8910517,51.7311685 C79.3015062,51.3232594 79.6432335,51.4651685 79.9665062,51.3595322 C83.7280517,50.130714 87.3107789,48.6295322 87.3107789,48.6295322 C87.3107789,48.6295322 88.4543244,38.2905322 88.6197789,33.1423503 C88.6713244,31.5304413 88.2347789,30.7445322 86.7775062,31.0818049 C80.9191426,32.4398049 74.7604153,32.8038049 69.5734153,36.4609867 C68.5622335,37.173714 68.2141426,37.8145322 68.2625062,38.8365322 C68.4712335,43.2121685 69.1973244,47.5445322 69.1903244,51.9500776 C69.1871426,53.6198958 69.1165062,55.2566231 68.8632335,56.8869867 C68.8085062,57.2401685 68.2955971,57.7505322 67.9710517,57.7683503 C67.6541426,57.7855322 67.1418698,57.3260776 67.0082335,56.9665322 C66.2490517,54.9269867 66.5354153,53.0268049 66.5373244,50.8644413 C66.5392335,48.4806231 66.4819608,46.0961685 66.3655062,43.7155322 C66.2369608,41.086714 66.0352335,38.4598049 66.0218698,35.8271685 C66.0148698,34.429714 66.0562335,33.0316231 66.1917789,31.6405322 C66.2388698,31.1613503 66.2350517,30.6955322 66.3037789,30.3118049" id="Fill-262"></path>
            <path d="M169.703515,26.8419049 C171.620879,25.9879049 171.524152,24.7800867 171.260697,23.5799049 C171.151243,23.0816322 170.531424,22.8016322 170.157879,23.0790867 C169.317243,23.1891776 169.625879,24.540814 169.703515,26.8419049 M164.679424,35.8941825 C165.085424,35.8960867 167.946515,35.3392685 167.946515,35.3392685 C167.946515,35.3392685 168.41297,32.8020867 167.490879,32.478814 C166.671879,32.1911776 166.042515,33.0139958 165.622515,33.5854503 C165.543606,33.6917231 164.205333,35.8909958 164.679424,35.8941825 M158.378152,6.03981399 C158.534061,5.20745035 159.356879,4.61245035 160.172061,4.8389958 C160.729515,4.99363217 160.984697,5.4359049 160.374424,6.81617762 C159.858333,7.98454126 159.030424,10.1297231 160.328606,11.0435413 C163.015333,12.9322685 167.078515,2.74917762 169.016243,4.83135944 C169.792606,5.66563217 168.735606,5.95072308 168.313697,6.4929049 C167.061333,8.10481399 165.954697,9.8299958 164.621515,11.7549958 C166.70497,12.0012685 168.476606,12.3512685 170.252061,12.374814 C171.646333,12.3932685 172.649879,12.7941776 173.038061,14.110814 C173.414152,15.384814 172.594515,16.175814 171.589061,16.8089958 C170.969879,17.1990867 170.37297,17.6279958 169.790697,18.0715413 C168.677697,18.9185413 168.843788,21.0191776 170.150243,21.320814 C171.818152,21.7064503 173.64197,21.9126322 173.223243,24.1577231 C172.950879,25.6194503 172.539152,27.1893594 171.006788,28.1547231 C169.769697,28.9349049 169.223061,34.2542685 170.219606,35.0987231 C171.008697,35.7669049 172.051697,35.3195413 172.871333,35.089814 C173.722788,34.8511776 174.451424,34.1759958 175.444788,34.4916322 C175.342333,35.9756322 174.627697,36.9772685 173.053333,36.8315413 C169.727697,36.5241776 169.626515,38.7826322 169.648152,41.0372685 C169.745515,51.3126322 169.438788,61.5829049 170.446788,71.8550867 C171.258788,80.1367231 171.155697,88.4921776 170.775152,96.8145413 C170.668243,99.1512685 170.19097,101.484814 169.115515,103.562541 C168.359515,105.022996 168.040061,108.662359 165.030697,107.408723 C166.288152,104.899541 167.605424,102.424723 168.153333,99.5795413 C168.53197,97.6106322 168.59497,95.6506322 168.66497,93.7059049 C168.899788,87.1844503 167.477515,37.546814 167.477515,37.546814 C167.477515,37.546814 166.981152,37.609814 164.853152,38.2347231 C163.753515,38.5573594 162.75697,38.281814 162.287333,37.2044503 C161.837424,36.1729049 161.916333,34.6475413 162.666606,33.5370867 C164.547697,30.7555413 167.515697,30.1974503 167.515697,30.1974503 L167.362333,24.1570867 C167.362333,24.1570867 161.555515,24.281814 161.185152,23.5162685 C160.728243,22.5719049 167.207697,18.1224503 167.165061,17.9137231 C166.812515,16.1847231 167.737788,15.8894503 169.144152,15.8697231 C169.86897,15.8595413 170.37997,15.3275413 170.220879,14.5677231 C170.059243,13.7932685 169.325515,14.0465413 168.833606,14.1114503 C166.532515,14.411814 164.106697,15.3593594 162.50497,12.6166322 C162.444515,12.5129049 161.838697,12.6834503 161.506515,12.7884503 C158.674061,13.6825413 157.795243,13.1632685 157.836606,10.1717231 C157.851879,9.0479049 158.148424,7.2629049 158.378152,6.03981399" id="Fill-264"></path>
            <path d="M146.825606,19.7069322 C147.932879,19.5853867 148.093243,21.8037503 147.08397,22.2733867 C143.721424,23.8375685 135.728061,24.9709322 133.899788,22.6488413 C133.05597,21.5772049 133.539606,19.255114 134.159424,18.3527503 C134.71497,17.5420231 137.016061,11.5334776 137.016061,11.5334776 C137.016061,11.5334776 133.990152,11.8942958 133.456879,11.3724776 C133.001879,8.56675035 137.767606,8.69211399 137.767606,8.69211399 L139.133243,2.84202308 C139.133243,2.84202308 133.220152,4.04475035 133.092879,1.88938671 C132.959243,-0.362067832 135.871243,0.404113986 137.402333,0.449932168 C139.837061,0.522477623 142.31697,0.101841259 144.73197,0.831113986 C145.744424,1.13656853 146.465424,1.49738671 146.090606,2.74211399 C145.67697,4.11411399 145.043152,3.38675035 144.19297,3.16084126 C143.396879,2.94893217 141.657697,2.93938671 141.657697,2.93938671 L140.564424,8.15184126 C140.564424,8.15184126 145.662333,6.75056853 146.116697,7.50656853 C146.548152,8.22375035 144.976333,10.4962049 143.91997,10.5795685 C142.747152,10.6718413 139.574243,11.1892049 139.574243,11.1892049 C139.574243,11.1892049 136.767243,17.6145685 136.631061,18.1828413 C135.72997,21.9462958 140.570788,20.8040231 143.216788,20.6913867 C144.310061,20.6449322 145.647697,19.836114 146.825606,19.7069322" id="Fill-266"></path>
            <path d="M141.377061,49.1760413 C141.605515,49.0621322 141.797697,49.1334049 141.888697,49.4961322 C141.972697,49.8295867 141.88297,50.1808594 141.903333,50.5244958 C141.939606,51.1341322 142.357697,51.704314 142.927879,51.9225867 C143.498061,52.1408594 144.189788,51.9957685 144.623788,51.5668594 C145.156424,51.0405867 145.253152,50.2279503 145.311697,49.4814958 C145.773697,43.6046776 145.736788,37.6884049 145.201606,31.8179503 C145.183788,31.6225867 145.162152,31.4170413 145.049515,31.2560413 C144.73197,30.8035867 144.028152,31.0244049 143.54197,31.2884958 C142.476697,31.8675867 141.410788,32.4466776 140.345515,33.0257685 C140.050879,33.1861322 139.742879,33.3496776 139.407515,33.3630413 C139.072788,33.3757685 138.704333,33.1874049 138.62797,32.8615867 C138.547788,32.5217685 138.796606,32.1997685 139.037152,31.9477685 C140.227788,30.7030413 141.657697,29.6880413 143.225061,28.975314 C144.028788,28.6094049 144.985243,28.3281322 145.770515,28.7322231 C146.665243,29.1935867 146.938243,30.3231322 147.090333,31.3184049 C148.362424,39.6649503 147.838061,48.1960413 146.582515,56.5451322 C146.316515,58.3116776 146.01997,60.1297685 146.438061,61.8670413 C146.597152,62.5282231 146.78997,63.3828594 146.22297,63.758314 C145.835424,64.0147685 145.281152,63.8416776 144.973152,63.4942231 C144.665788,63.1461322 144.547424,62.673314 144.45897,62.2170413 C143.977879,59.7479503 144.058697,57.171314 144.693788,54.7372231 C144.781606,54.3999503 144.863061,53.9926776 144.619333,53.7432231 C144.371788,53.4905867 143.956879,53.5701322 143.611333,53.6439503 C142.257788,53.9334958 140.524333,53.6331322 140.040061,52.3362231 C139.71297,51.4586776 140.703788,49.5120413 141.377061,49.1760413" id="Fill-268"></path>
            <path d="M38.4063608,44.2564413 C38.4063608,44.2564413 43.8625426,44.313714 46.4538153,43.3248049 C47.582088,42.8939867 49.0259971,42.6553503 49.2493608,43.9808958 C49.5344517,45.6723503 47.6406335,45.1880776 46.7802698,45.2988049 C44.4473608,45.5998049 42.0546335,45.3649867 39.7427244,46.0058049 C38.8823608,46.2438049 37.7216335,46.1890776 37.7929062,47.4872594 C37.978088,50.8434413 42.5229971,52.272714 45.482088,52.3204413 C45.8021789,52.3261685 46.1419971,52.3140776 46.4188153,52.4744413 C47.6374517,53.1820776 45.8569062,54.421714 45.0697244,54.3650776 C41.247088,54.0895322 37.6611789,53.5658049 35.9862698,49.2633503 C35.1984517,47.2403503 35.3658153,46.4200776 35.3658153,46.4200776 C35.3658153,46.4200776 25.0853608,47.9505322 22.1428153,49.024714 C21.647088,49.2054413 20.7676335,49.3308049 20.5162698,48.4526231 C20.2426335,47.4974413 21.0189971,47.4694413 21.6343608,47.3014413 C23.9799971,46.6625322 33.1792698,44.8889867 35.3963608,44.4168049 C36.5628153,44.1679867 36.2777244,42.5554413 36.6016335,41.6798049 C36.9586335,40.7144413 36.6099062,39.3488049 38.2434517,39.9368049 C39.4429971,40.3688958 39.0764517,41.4201685 38.8556335,42.3225322 C38.769088,42.675714 38.4063608,44.2564413 38.4063608,44.2564413" id="Fill-270"></path>
            <path d="M16.0699335,47.6964958 C16.3919335,44.2085867 16.6458426,40.7136776 16.8800244,37.2079503 C16.9977517,35.3784049 16.4778426,25.3938594 18.8559335,25.510314 C20.5881153,25.5949503 19.9307517,27.036314 19.8340244,27.8171322 C19.434388,31.0409503 19.1550244,34.2711322 19.2854789,37.5089503 C19.4541153,41.7032231 18.8629335,45.8720413 18.2297517,50.0071322 C17.6162971,54.0098594 17.5692062,58.3212231 16.6006608,62.2367685 C16.445388,62.8629503 15.7816608,63.5814049 15.0657517,63.3707685 C14.0876608,63.0831322 14.3059335,61.6417685 14.4274789,60.9004049 C15.1478426,56.5056776 15.6632971,52.1071322 16.0699335,47.6964958" id="Fill-272"></path>
            <path d="M136.823052,31.7906503 C137.418052,37.5045594 137.100506,43.1134685 136.067052,48.8171958 C135.538233,51.7355594 135.535052,54.8486503 134.812779,57.8045594 C134.581779,58.7501958 134.098143,59.6818322 133.52987,60.4772867 C133.255597,60.8616503 132.666961,61.3974685 131.938324,60.9418322 C131.227506,60.497014 131.707324,60.042014 131.826961,59.5431049 C133.093324,54.2625594 134.100052,48.9113776 134.594506,43.4997413 C134.840779,40.8041049 134.960415,38.0957413 134.931143,35.388014 C134.91587,33.9886503 134.906961,32.5651049 134.763779,31.1721049 C134.671506,30.2761049 134.366052,29.2661958 135.623506,29.1923776 C136.836415,29.1211049 136.627052,29.9871958 136.710415,30.6821049 C136.754324,31.0511958 136.786143,31.4209231 136.823052,31.7906503" id="Fill-274"></path>
            <path d="M80.7274698,19.5802962 C79.4337426,19.3963867 78.4473789,19.5892049 78.2641062,18.2318413 C78.1743789,17.5700231 78.5320153,17.7399322 78.8075608,17.7125685 C79.1734698,17.6756594 79.5851971,17.813114 79.9103789,17.6934776 C85.4066517,15.6742958 91.2821971,15.4222958 96.9101971,14.0229322 C97.1781062,13.9567503 101.021106,13.0505685 101.066288,15.0684776 C101.114652,17.2422958 99.1158335,15.7939322 98.0467426,16.0007503 C93.8174698,16.8172049 89.5608335,17.5025685 85.3506517,18.4074776 C83.6687426,18.7689322 82.0835608,19.5809322 80.7274698,19.5802962" id="Fill-276"></path>
            <path d="M2.34617894,19.7681503 C1.54754257,19.6656958 0.824633483,19.4334231 0.328269846,18.9733322 C-0.00136651732,18.6678776 -0.16109379,18.0461503 0.227724392,17.8221503 C0.339088028,17.758514 0.470815301,17.744514 0.598724392,17.7324231 C6.03963348,17.2131503 22.2758153,15.0603322 27.7504517,14.6186958 C32.9584517,14.1993322 38.2008153,13.943514 43.3871789,13.3001503 C43.781088,13.2511503 44.1775426,13.2072413 44.5682698,13.138514 C44.8406335,13.0958776 45.1403608,13.0341503 45.3949062,13.1028776 C46.5772698,13.4197867 48.7485426,12.5301503 48.6161789,14.5448776 C48.4742698,16.7142413 46.6097244,15.0959685 45.5266335,15.2079685 C41.2419971,15.651514 36.9414517,15.9607867 32.6682698,16.4927867 C29.8167244,16.8478776 26.9549971,17.1342413 24.097088,17.4339685 C21.8042698,17.674514 19.5407244,18.1390594 17.2447244,18.3554231 C16.1889971,18.4546958 3.74236076,19.9469685 2.34617894,19.7681503" id="Fill-278"></path>
            <path d="M6.96878803,52.7951685 C6.88033348,51.6312594 6.3585153,50.7428958 4.88915166,51.1030776 C4.13569712,51.2876231 3.4395153,51.2392594 2.78533348,50.3909867 C2.40033348,49.892714 2.46460621,49.3295322 2.99533348,48.9521685 C4.39596985,47.9575322 6.20578803,47.9969867 7.42378803,48.6155322 C9.97115166,49.9086231 9.82987894,52.4502594 8.9275153,54.7882594 C8.2695153,56.4943503 7.43460621,58.1278958 6.79760621,59.8422594 C6.35915166,61.0195322 6.30506076,63.9391685 4.9865153,64.445714 C3.60815166,64.9751685 2.93106076,63.7558958 3.32624257,62.6110776 C4.0835153,60.4181685 5.59106076,58.4301685 6.41960621,56.2149867 C6.68815166,55.4958958 7.06042439,53.9985322 6.96878803,52.7951685" id="Fill-280"></path>
            <path d="M20.9656062,20.376514 C19.5974244,19.1826958 19.0049698,10.5326049 19.001788,9.94015035 C18.9884244,7.07842308 18.616788,4.20142308 18.6409698,1.33078671 C18.6460608,0.77715035 18.5041517,0.202513986 19.2824244,0.0376958044 C20.1046062,-0.136031468 20.3591517,0.308786713 20.6614244,1.00051399 C21.7305153,3.44796853 21.7158789,6.11496853 21.4753335,8.56624126 C21.1533335,11.8498776 21.514788,14.9960594 21.9602426,18.1797867 C22.0308789,18.6812413 22.0283335,20.2937867 21.4085153,20.4923322 C21.2526062,20.5419685 21.1049698,20.4980594 20.9656062,20.376514" id="Fill-282"></path>
            <path d="M30.3702335,21.1135503 C27.574688,21.6977322 28.7570517,19.7377322 30.8952335,12.4475503 C31.3763244,10.8070049 31.5977789,9.3700958 31.5640517,7.65445944 C31.5430517,6.56818671 31.2827789,4.40645944 32.0763244,3.51236853 C33.6615062,2.52855035 34.322688,4.0100049 34.0732335,6.9200958 C33.6475062,11.8977322 32.0705971,20.7584594 30.3702335,21.1135503" id="Fill-284"></path>
            <path d="M157.173897,11.0901867 C156.666079,11.2976413 156.26517,11.7023685 155.911352,12.1102776 C155.766897,12.2770049 153.894715,14.5895503 153.667533,14.2166413 C153.103715,13.2932776 152.863806,12.3667322 153.809443,11.6170958 C156.005533,9.87664126 157.747261,7.62073217 160.216988,6.17173217 C160.919533,5.7600049 161.588988,5.74791399 162.272443,5.5900958 C163.189443,5.37818671 164.166897,5.30564126 164.74917,6.2780049 C164.901261,6.53191399 164.914624,7.14155035 164.750443,7.26436853 C164.058079,7.78173217 163.233988,7.7690049 162.381261,7.65445944 C160.617261,7.41773217 157.291624,11.0418231 157.173897,11.0901867" id="Fill-286"></path>
            <path d="M17.4485517,32.7276322 C18.128188,32.4310867 18.9987335,33.0547231 18.9210971,33.703814 C18.8110062,34.6329049 16.798188,35.4799049 16.1242789,35.8095413 C12.5326426,37.5659049 5.94246076,38.869814 5.6039153,32.891814 C5.58036985,32.4730867 5.43527894,31.8780867 6.04364257,31.7527231 C6.33764257,31.6916322 6.90718803,31.8532685 6.99309712,32.0613594 C8.94736985,36.8137231 13.8740971,34.2867231 17.4485517,32.7276322" id="Fill-288"></path>
            <path d="M142.057461,47.2738867 C142.041552,47.2732503 142.025643,47.2719776 142.009733,47.2700685 C142.01737,46.4529776 141.89837,45.5919776 141.406461,44.9397049 C141.076188,44.5018867 140.556915,44.2072503 140.009643,44.1639776 C139.540643,44.1270685 138.945006,44.5540685 138.583552,44.0627958 C138.48237,43.9259776 138.463279,43.7439776 138.47537,43.5740685 C138.574643,42.1447958 140.236824,41.7820685 141.402643,41.9869776 C142.119824,42.1123413 142.802643,42.5107049 143.191461,43.1254322 C143.722824,43.9654322 143.638824,45.0733413 143.26337,45.9935231 C143.059733,46.4917958 142.714824,47.3082503 142.057461,47.2738867" id="Fill-290"></path>
            <path d="M77.9390517,43.2686776 C76.7318698,43.1426776 76.3265062,41.5657685 77.3313244,40.8848594 C77.7093244,40.6277685 78.0955971,40.427314 78.4182335,40.3210413 C79.920688,39.825314 81.572688,39.8800413 83.133688,39.8825867 C84.6991426,39.8851322 84.8187789,42.1932231 84.6113244,43.3660413 C84.2301426,45.5194958 83.0993244,43.4570413 82.307688,43.4182231 C80.9624153,43.3514049 79.4007789,43.4214049 77.9390517,43.2686776" id="Fill-292"></path>
        </g>
    </g>
</svg>