<?xml version="1.0" encoding="UTF-8"?>
<svg width="216px" height="140px" viewBox="0 0 216 140" version="1.1" xmlns="http://www.w3.org/2000/svg" xmlns:xlink="http://www.w3.org/1999/xlink">
    <title>img-sign-0</title>
    <g id="img-sign-0" stroke="none" stroke-width="1" fill="none" fill-rule="evenodd">
        <g id="未來" transform="translate(43.000000, 37.000000)" fill="#323237" fill-rule="nonzero">
            <path d="M25.7516882,7.10542736e-15 L25.7516882,9.70474138 L6.30029427,9.70474138 L6.30029427,15.4784483 L25.7516882,15.4784483 L25.7516882,24.8760776 L1.83503717,24.8760776 L1.83503717,30.6497845 L22.7544609,30.6497845 C17.3105173,38.143319 8.44117097,45.268319 0,48.9536638 C1.34569392,50.1206897 3.24189899,52.4547414 4.28175339,53.9288793 C11.9889095,49.875 19.9407372,43.1799569 25.7516882,35.625 L25.7516882,57 L31.8684788,57 L31.8684788,35.3793103 C37.7405977,43.0571121 45.6924255,49.9978448 53.4607495,53.9288793 C54.4394359,52.393319 56.2744731,50.1206897 57.6813349,48.9536638 C49.3013319,45.268319 40.3708177,38.143319 34.8657062,30.6497845 L56.1521373,30.6497845 L56.1521373,24.8760776 L31.8684788,24.8760776 L31.8684788,15.4784483 L51.809216,15.4784483 L51.809216,9.70474138 L31.8684788,9.70474138 L31.8684788,7.10542736e-15 L25.7516882,7.10542736e-15 Z" id="Path"></path>
            <path d="M115.275511,14.8028017 C113.990985,21.375 111.177261,27.1487069 106.895508,30.8340517 L105.182806,28.2543103 L105.182806,13.8814655 L128.977122,13.8814655 L128.977122,8.16918103 L105.182806,8.16918103 L105.182806,7.10542736e-15 L99.0660158,7.10542736e-15 L99.0660158,8.16918103 L76.0057154,8.16918103 L76.0057154,13.8814655 L99.0660158,13.8814655 L99.0660158,28.5614224 C93.5609043,37.2834052 83.6517035,45.4525862 73.6813349,49.4450431 C75.0270289,50.6734914 76.862066,52.9461207 77.7795846,54.4202586 C85.5479086,50.7963362 93.1938968,44.7155172 99.0660158,37.4676724 L99.0660158,57 L105.182806,57 L105.182806,37.2219828 C110.993757,44.5926724 118.700913,50.8577586 126.652741,54.481681 C127.631428,52.8846983 129.527633,50.4892241 130.995662,49.1993534 C121.759309,45.7596983 112.706459,38.8189655 107.079011,31.0797414 C108.485873,31.8168103 110.687918,33.2295259 111.727772,34.0280172 C113.501641,32.2467672 115.092007,30.0969828 116.498869,27.6400862 C119.863104,30.4655172 123.47201,33.6594828 125.429383,35.7478448 L129.466465,31.7553879 C127.019749,29.3599138 122.554491,25.7359914 118.823249,22.7877155 C119.6796,20.637931 120.352447,18.3038793 120.902958,15.8469828 L115.275511,14.8028017 Z M86.4042593,14.8028017 C84.63039,22.6034483 80.8379799,29.1756466 75.3328684,33.2909483 C76.6173944,34.1508621 78.8806069,35.9935345 79.7981255,37.0377155 C82.6730171,34.6422414 85.2420691,31.5711207 87.3217779,27.8857759 C89.2791509,29.7898707 91.1753559,31.7553879 92.3375461,33.1681034 L96.2522921,29.1142241 C94.7842624,27.455819 92.1540424,25.0603448 89.7073262,22.9719828 C90.6248448,20.6993534 91.4200276,18.3653017 92.0317066,15.9084052 L86.4042593,14.8028017 Z" id="Shape"></path>
        </g>
    </g>
</svg>