<?xml version="1.0" encoding="UTF-8"?>
<svg width="216px" height="140px" viewBox="0 0 216 140" version="1.1" xmlns="http://www.w3.org/2000/svg" xmlns:xlink="http://www.w3.org/1999/xlink">
    <title>img-sign-3</title>
    <g id="img-sign-3" stroke="none" stroke-width="1" fill="none" fill-rule="evenodd">
        <g id="Group-3" transform="translate(10.058313, 27.382541)" fill="#56D250">
            <path d="M114.44776,67.8955407 C115.668305,68.6241771 116.794032,67.7663589 117.856123,68.1908134 C118.328305,68.3798134 118.756578,69.4864498 119.376396,68.4294498 C119.672305,67.9235407 119.455305,67.3495407 119.184214,66.8398134 C118.848851,66.2104498 118.427578,65.8337225 117.628941,66.0519953 C116.47076,66.3689044 115.259123,66.5496316 114.44776,67.8955407 M109.463123,64.9593589 C111.782669,64.2224498 113.309305,62.6869044 115.423941,62.1224498 C122.222214,60.3081771 123.893941,64.2714498 123.228941,69.7320862 C122.880851,72.5906316 121.623396,75.3887225 119.861941,77.7585407 C118.363305,79.7751771 116.508305,80.8639953 113.61476,80.3841771 C111.227123,79.9877225 108.946396,81.6193589 106.743305,82.5936316 C105.329305,83.2185407 104.169851,83.504268 103.437396,82.1214498 C102.745669,80.8156316 102.144941,79.2049953 104.344214,78.3809044 C107.911669,77.0439044 111.436487,75.5929953 115.015396,74.2897225 C115.857941,73.9823589 116.668032,73.7284498 117.914032,72.7287225 C114.044305,72.2119953 110.751123,72.3825407 107.840396,73.9085407 C105.421578,75.1768134 103.810941,74.8350862 103.379487,72.1248134 C103.151669,70.6917225 103.07976,69.2350862 102.904123,67.7937225 C102.70176,66.1391771 103.069578,64.940268 105.070305,65.3189044 C106.900487,65.6657225 106.762396,64.4273589 106.785305,63.3423589 C106.850851,60.2579044 105.747396,57.2714498 106.099941,54.1290862 C106.213851,53.1134498 104.942396,53.3005407 104.471487,53.7695407 C101.450032,56.7750862 97.3047596,58.2966316 94.4303051,61.4911771 C91.7308505,64.4909953 87.8935778,65.8789044 84.7041233,68.1927225 C84.0505778,68.6668134 83.2551233,68.545268 82.8052142,67.7555407 C82.1071233,66.5305407 83.0470323,66.0354498 83.8456687,65.3876316 C89.9681233,60.4208134 96.0638505,55.420268 102.159578,50.4209953 C102.349214,50.2650862 102.452941,50.0041771 102.612032,49.7706316 C102.019578,49.6121771 101.552487,49.5326316 100.994396,49.8896316 C99.4384869,50.8849044 97.9093051,50.2179953 97.4791233,48.8039953 C97.0597596,47.4288134 98.1333051,46.2019044 99.6898505,45.7023589 C101.513032,45.116268 103.385851,44.7045407 105.213487,44.1216316 C106.960305,43.5641771 106.806305,42.1501771 107.085032,41.1593589 C107.342123,40.2455407 106.105032,39.9954498 105.099578,39.8866316 C104.017123,39.7701771 103.105214,38.8353589 103.437396,37.7904498 C103.701487,36.961268 103.982123,35.7108134 105.583851,35.7839953 C109.045669,35.9424498 112.518941,35.8094498 115.985214,35.8985407 C117.214032,35.9303589 118.192123,36.7614498 118.077578,37.990268 C117.980851,39.0211771 117.449487,40.1150862 115.964851,40.0979044 C114.266396,40.0781771 112.464214,39.8280862 111.187669,41.4113589 C111.524941,42.148268 112.116123,41.8326316 112.613123,41.8269044 C113.822851,41.8129044 114.620214,42.4721771 114.766578,43.5743589 C114.885578,44.4773589 114.544487,45.410268 113.477305,45.7443589 C112.699669,45.9874498 112.185487,46.6721771 111.302851,46.8210862 C110.245851,46.9999044 109.949941,47.7425407 110.266214,48.8644498 C110.581214,49.9838134 111.097305,50.611268 112.296214,50.4795407 C115.985214,50.0735407 119.249123,51.3659953 122.509851,52.8627225 C123.892032,53.4971771 125.454941,53.7561771 126.952941,54.1131771 C128.772305,54.5471771 129.028123,56.1279044 129.316396,57.506268 C129.594487,58.8330862 128.20276,59.0227225 127.352578,59.4777225 C127.066214,59.6317225 126.509396,59.6533589 126.273941,59.4745407 C122.182123,56.3709953 116.909851,57.4108134 112.514487,55.5201771 C110.375032,54.5999953 110.57676,55.7906316 110.579941,57.0754498 C110.586305,59.5769953 110.584396,62.0728134 109.463123,64.9593589" id="Fill-58"></path>
            <path d="M176.072832,39.7886953 C174.124923,39.1943316 172.688651,39.6232407 171.267651,40.4314225 C167.952196,42.3156953 164.187469,42.2304225 160.567196,42.7624225 C158.677196,43.0405134 157.809832,41.2930589 156.501469,40.4976044 C155.77156,40.0540589 155.852378,38.5846953 156.636378,37.7090589 C157.540014,36.6985134 158.675287,36.6622407 159.954378,36.9632407 C161.284378,37.2763316 162.231923,38.3702407 163.88456,38.1596044 C169.087469,37.4971498 173.854469,35.5320589 178.688923,33.7260589 C179.778378,33.3194225 180.853196,32.5634225 182.074378,33.3187862 C183.277105,34.0633316 184.305469,35.0248771 182.568196,36.1276953 C180.713832,37.3056044 180.170378,38.9913316 179.41056,40.9398771 C178.141651,44.192968 177.007651,47.5898771 174.842741,50.4783316 C174.044741,51.5423316 173.697923,52.949968 173.172287,54.2125134 C172.324014,56.2514225 174.414469,56.5263316 175.282469,57.2276044 C177.957105,59.3855134 179.926014,61.9755134 183.234469,63.2157862 C186.317014,64.3714225 190.283469,67.5055134 193.701378,66.4688771 C195.910196,65.7987862 196.169196,68.0273316 196.372832,69.4515134 C196.617196,71.156968 195.399196,72.2095134 193.796196,72.4233316 C192.96256,72.5346953 192.051923,72.4316044 191.133014,72.0192407 C186.035105,69.7315134 181.000832,67.2827862 175.963378,64.891968 C174.222923,64.0653316 172.33356,62.7003316 170.612196,61.4326953 C169.537378,60.6410589 168.411014,60.3706044 167.294196,61.7368771 C166.066014,63.2393316 164.456651,64.4293316 163.211287,65.9222407 C162.270741,67.0498771 160.289105,67.9121498 158.801923,67.5010589 C157.338923,67.0963316 156.749651,65.1140589 158.719832,64.7061498 C162.709832,63.8801498 163.206196,59.6877862 165.595105,57.2944225 C166.38356,56.5053316 164.657105,55.1988771 163.938014,54.2335134 C163.645287,53.8408771 162.96756,53.7524225 162.49856,53.4698771 C161.435196,52.8284225 159.685196,52.3276044 160.502287,50.7296953 C161.263378,49.2406044 162.868923,49.2278771 164.356741,50.0786953 C164.905923,50.3924225 165.556923,50.5413316 166.07556,50.8926044 C168.631196,52.620968 169.692014,52.2168771 171.007378,49.435968 C172.52956,46.2191498 174.30756,43.1232407 176.072832,39.7886953" id="Fill-60"></path>
            <path d="M94.3471323,35.1136498 C95.7961323,34.9303771 97.1407687,34.4098316 97.6199505,32.7540134 C97.8038596,32.1182862 97.293496,31.5016498 96.7144051,31.8503771 C95.340496,32.6757407 93.4676778,32.968468 92.7441323,34.4855589 C92.4240414,35.1569225 93.6624051,34.9768316 94.3471323,35.1136498 M102.224796,29.9902862 C101.83586,34.3837407 99.3807687,37.8226498 96.6851323,41.0261044 C95.5778596,42.341468 93.4944051,42.2733771 91.9728596,41.6427407 C90.4952233,41.0311953 89.7786778,39.5771044 90.0230414,37.784468 C90.0917687,37.2798316 90.4328596,36.3952862 89.5400414,36.1483771 C88.8737687,35.9638316 88.3163142,36.3583771 87.8053142,36.8089225 C86.8055869,37.6896498 86.0126778,38.7479225 85.9496778,40.0677407 C85.8249505,42.6736498 85.2923142,45.2356498 84.6190414,47.7492862 C83.6683142,51.3001953 83.3132233,54.9395589 82.208496,58.4510134 C81.1254051,61.892468 79.7502233,65.1843771 78.3597687,68.507468 C77.1945869,71.2915589 75.6571323,74.1577407 75.362496,77.2065589 C75.250496,78.3583771 74.585496,79.0125589 73.9236778,79.7838316 C72.8151323,81.0750134 72.1456778,80.4303771 71.5379505,79.3313771 C70.0590414,76.6580134 71.4953142,73.9795589 72.5720414,72.0138316 C74.3500414,68.7677407 74.8559505,65.0462862 76.1242233,61.6181953 C77.9811323,56.5972862 80.0416778,51.7138316 81.0751323,46.4638316 C81.3971323,44.8251953 82.0793142,43.3755589 82.5413142,41.7891044 C83.0453142,40.0607407 82.6609505,39.2430134 80.8606778,39.422468 C78.9770414,39.6108316 77.609496,38.9846498 77.6642233,37.0208316 C77.7234051,34.9036498 79.5465869,35.2880134 80.9726778,35.2281953 C82.656496,35.1569225 84.2715869,34.9532862 85.071496,33.0849225 C85.2732233,32.6133771 85.8103142,31.9611044 86.2099505,31.9483771 C90.7109505,31.8096498 93.5726778,28.1683771 97.4818596,26.7562862 C100.650314,25.611468 102.240587,26.5596498 102.224796,29.9902862" id="Fill-62"></path>
            <path d="M30.8102323,25.1594589 C27.8403233,25.574368 24.5223233,26.0109134 21.2164142,26.5231862 C20.5832323,26.6211862 20.239596,27.2530953 20.2739596,27.877368 C20.4031414,30.243368 21.9075051,31.9660044 23.5677778,33.2597316 C24.8182323,34.233368 25.7288687,32.4197316 26.7642323,31.8062771 C28.856596,30.5666407 29.9702323,28.3495498 31.7170505,26.7529134 C32.4876869,26.0490953 32.3979596,25.3529134 30.8102323,25.1594589 M21.7229596,36.6362771 C19.8775051,36.6960953 18.8154142,35.8770953 17.9913233,34.5082771 C16.9260505,32.7372771 16.1191414,30.8396407 14.8610505,29.1399134 C14.0974142,28.1090044 13.876596,27.5070044 12.4390505,27.9206407 C10.1844142,28.5697316 9.52895962,24.0394589 11.0129596,23.936368 C14.1413233,23.7206407 13.3452323,20.8430044 14.4722323,19.3119134 C15.0042323,18.5890044 14.7776869,17.2392771 16.2464142,17.4537316 C17.6540505,17.6599134 17.460596,18.8499134 17.4911414,19.7720044 C17.5706869,22.1252771 18.3661414,22.8685498 20.9249596,22.3327316 C24.8265051,21.5150044 28.8674142,21.3928225 32.8141414,20.7564589 C35.3258687,20.3510953 37.3386869,19.2705498 38.7889596,16.7499134 C40.4161414,13.9219134 42.9425051,11.6380044 45.4300505,9.44700435 C46.6461414,8.37600435 48.1441414,7.58627708 49.1801414,9.30254981 C50.1041414,10.832368 49.0318687,12.4576407 47.5847778,12.9030953 C45.1646869,13.6489134 44.1191414,15.6057316 42.6994142,17.2920953 C42.2915051,17.7770044 41.9765051,18.3700953 42.2386869,18.889368 C42.5613233,19.5270044 43.2333233,19.2342771 43.8098687,19.0898225 C46.6009596,18.3936407 49.5422323,18.7875498 52.3231414,17.7725498 C53.5825051,17.3130953 55.218596,17.9698225 55.2141505,19.4315498 C55.2084142,21.4965498 53.2452323,22.3117316 51.571596,22.6190953 C48.253596,23.2287316 44.8770505,23.684368 41.5100505,23.8135498 C38.8099596,23.9166407 36.9778687,25.3140953 35.5683233,27.1894589 C33.8456869,29.4816407 31.9308687,31.5154589 29.9314142,33.5594589 C27.4858687,36.0590953 24.8672323,37.0728225 21.7229596,36.6362771" id="Fill-64"></path>
            <path d="M32.1631414,55.0884044 C31.3562323,55.8590407 30.6740505,56.7219498 29.8754142,57.5638589 C29.2536869,58.2193134 28.6637778,59.4793134 27.2936869,58.5661316 C26.0400505,57.7305862 26.8342323,56.7671316 27.1785051,55.9926771 C29.0424142,51.7990407 37.0268687,47.4673134 41.5520505,48.1036771 C43.1257778,48.3251316 44.0446869,50.7363134 43.0977778,52.7198589 C41.2077778,56.6780407 39.8262323,61.4043134 36.3173233,63.8384044 C32.8300505,66.2578589 34.6716869,68.3559498 35.2075051,70.5972225 C35.9094142,73.5321316 38.2117778,74.3854953 41.1091414,74.736768 C43.3434142,75.0078589 45.4135051,74.5598589 47.5497778,74.4045862 C48.4037778,74.3428589 49.1082323,73.9063134 49.380596,72.8295862 C50.220596,69.5071316 51.6581414,66.3036771 51.1484142,62.7438589 C50.9944142,61.6722225 51.4831414,61.0594044 52.5554142,60.8812225 C53.4902323,60.7259498 54.3900505,60.2009498 55.1524142,61.4113134 C56.1623233,63.0136771 55.9733233,64.6574044 55.3904142,66.2005862 C54.3913233,68.842768 54.1985051,71.4486771 54.5854142,74.2474044 C54.9933233,77.2052225 53.6754142,78.6682225 50.6316869,78.9189498 C45.6330505,79.3300407 40.7387778,81.5445862 35.9030505,79.1512225 C28.674596,75.5729498 30.8350505,70.3732225 29.374596,64.1565862 C28.6892323,61.2369498 30.3145051,58.4891316 32.5895051,56.3744953 C33.8227778,55.2704044 35.0439596,54.4558589 35.9609596,56.6774044 C36.3491414,57.6173134 36.9237778,57.2393134 37.2196869,56.7690407 C37.8395051,55.7845862 38.5006869,54.7473134 38.7628687,53.6406771 C39.5443233,50.3366771 33.0025051,54.2865862 32.1631414,55.0884044" id="Fill-66"></path>
            <path d="M124.530178,27.5526316 C124.580451,26.594268 123.829541,26.6680862 123.226269,26.5993589 C120.848814,26.3276316 120.708814,28.2819044 120.159632,29.7697225 C119.951541,30.3335407 120.17936,30.8871771 120.860905,31.0316316 C121.640451,31.1964498 124.46336,28.498268 124.530178,27.5526316 M120.48736,35.0750862 C117.049087,34.9579953 115.070632,31.2715407 116.851178,27.6436316 C117.790451,25.7288134 118.230178,24.2448134 117.009632,22.352268 C116.584541,21.6929953 116.276541,20.4629044 116.998178,19.769268 C117.570269,19.2200862 118.542632,19.335268 119.357814,19.6820862 C121.259269,20.4915407 122.770632,19.0107225 124.475451,18.6950862 C128.330541,17.9823589 129.812632,18.8739044 129.990178,22.8658134 C130.069087,24.6501771 130.993087,26.0457225 132.064087,27.1701771 C133.145905,28.3054498 133.159905,29.1810862 132.351723,30.2508134 C131.38636,31.5279953 130.681905,30.8916316 129.751541,29.9975407 C128.774087,29.0576316 127.873632,29.226268 126.89236,30.5448134 C125.295723,32.6899953 123.684451,35.1075407 120.48736,35.0750862" id="Fill-68"></path>
            <path d="M87.300996,25.7232771 C85.3499051,26.0478225 84.8000869,24.5205498 84.3501778,23.3248225 C83.7787233,21.8039134 85.0762687,21.0625498 86.2433596,20.8480953 C89.3545414,20.2760044 90.4414505,18.574368 91.4316323,15.7947316 C91.472996,15.6789134 91.514996,15.5554589 91.4914505,15.4351862 C91.4469051,15.2080044 91.1974505,15.0870953 90.9721778,15.0342771 C89.1674505,14.6098225 86.5290869,18.2440953 85.2417233,15.7425498 C84.3393596,13.9887316 86.4266323,12.7382771 87.8928142,12.4067316 C91.4780869,11.5960044 91.8000869,8.18254981 93.5749051,5.94700435 C94.0610869,5.33482254 94.1406323,4.23964072 95.2759051,4.53300435 C96.2081778,4.77354981 96.372996,5.6784589 96.5359051,6.46691344 C96.8356323,7.91973163 97.1525414,8.08136799 98.4424505,7.7644589 C100.197541,7.33236799 103.164269,7.15736799 103.279451,9.39291344 C103.350087,10.7572771 102.154996,11.1091862 101.327723,11.3936407 C100.327996,11.7372771 99.179996,11.6182771 98.1401778,12.0872771 C96.2361778,12.9444589 94.545996,15.8978225 94.8972687,17.8546407 C95.0735414,18.8365498 95.7589051,18.9154589 96.5454505,18.9409134 C97.5006323,18.9714589 98.0797233,19.4200953 98.2197233,20.4325498 C98.3590869,21.4437316 97.6909051,22.2684589 97.0755414,22.4956407 C93.8593596,23.6850044 90.5668142,24.6681862 87.300996,25.7232771" id="Fill-70"></path>
            <path d="M131.744569,5.51064981 C131.519932,7.22119526 131.425114,8.75228617 133.966751,8.35201344 C134.91366,8.20310435 135.600932,8.83946799 135.545569,9.84683163 C135.442478,11.6992862 134.108023,12.6531953 132.55466,13.0617407 C131.146387,13.4327407 129.598114,14.0296498 128.422751,12.1721044 C127.51466,10.736468 127.396932,9.13283163 126.845205,7.63419526 C126.700751,7.24219526 126.931751,6.65101344 126.239387,6.63001344 C125.693387,6.61283163 125.221841,6.62110435 124.922114,7.31601344 C124.171205,9.05710435 123.137114,10.6677407 122.78966,12.5870134 C122.55166,13.9042862 122.039387,15.6390134 120.533114,15.2858316 C119.236841,14.9816498 118.450296,13.7922862 118.817478,11.7171044 C119.20566,9.52737708 120.288751,7.46364981 120.177387,5.12946799 C120.144932,4.45746799 121.219751,3.14846799 121.80966,3.13510435 C123.982841,3.08546799 125.207841,1.60274072 126.761841,0.545740718 C128.431023,-0.58953201 130.336932,0.116195263 131.166114,2.01637708 C131.654841,3.13701344 131.858478,4.30601344 131.744569,5.51064981" id="Fill-72"></path>
            <path d="M20.4410687,60.1219771 C21.1315233,62.038068 20.537796,63.102068 18.4511596,63.4221589 C13.8648869,64.1266134 9.30215962,64.9997044 4.70506871,65.6169771 C3.7199778,65.7493407 2.09025053,65.9065225 1.92415962,64.215068 C1.78988689,62.8456134 2.34606871,61.9916134 3.95225053,61.4901589 C7.29888689,60.4452498 10.7734323,60.1302498 14.1417051,59.2717953 C16.3638869,58.706068 18.4282505,59.4487044 20.4830687,60.1709771 L20.4410687,60.1219771 Z" id="Fill-74"></path>
            <path d="M15.8747142,51.5425862 C13.0435323,50.9043134 10.3358051,50.0954953 7.76998689,48.6318589 C6.08680507,47.6715862 5.63053235,46.4758589 6.00280507,44.8334044 C6.42662325,42.9631316 8.03471416,43.1063134 9.26416871,43.5250407 C12.6534414,44.6800407 16.0019869,45.9788589 19.2760778,47.4265862 C20.0995323,47.7912225 20.231896,49.0671316 20.0295323,50.0331316 C19.8036233,51.111768 18.9655323,51.7029498 17.9168051,51.8003134 C17.249896,51.8614044 16.5562596,51.6380407 15.8747142,51.5425862" id="Fill-76"></path>
            <path d="M16.4403142,75.2148044 C15.6728596,76.6358044 12.7869505,78.9216225 12.390496,79.2805316 C9.71522325,81.7012589 6.94513235,84.1289862 3.34649598,85.0008044 C1.62958689,85.4169862 0.459314164,84.9110771 0.110586891,83.4143498 C-0.234958564,81.9328953 0.163405073,80.8046225 2.25004144,80.373168 C6.39785962,79.5153498 10.0162233,77.2893498 13.3800414,74.7375316 C14.2601323,74.0693498 15.1427687,73.8809862 16.149496,74.1240771 C16.7177687,74.262168 16.7311323,74.6764407 16.4403142,75.2148044" id="Fill-78"></path>
            <path d="M166.317314,18.7420498 C166.511405,17.093868 167.392132,16.575868 169.065769,17.233868 C171.882314,18.3417771 174.063132,20.5353225 176.911496,21.6495953 C178.459769,22.2554134 178.498587,23.8946862 177.465769,25.1712316 C176.48386,26.3847771 175.346678,26.4605044 174.20886,25.1553225 C172.896678,23.6503225 170.780769,23.5975044 169.19686,22.5716862 C167.823587,21.6826862 166.265769,20.8885044 166.317314,18.7420498" id="Fill-80"></path>
        </g>
    </g>
</svg>