<?xml version="1.0" encoding="UTF-8"?>
<svg width="216px" height="140px" viewBox="0 0 216 140" version="1.1" xmlns="http://www.w3.org/2000/svg" xmlns:xlink="http://www.w3.org/1999/xlink">
    <title>img-sign-11</title>
    <defs>
        <polygon id="path-1" points="0 0 63.6968961 0 63.6968961 96.9894169 0 96.9894169"></polygon>
    </defs>
    <g id="img-sign-11" stroke="none" stroke-width="1" fill="none" fill-rule="evenodd">
        <g id="Group-12" transform="translate(4.454545, 14.452150)">
            <path d="M107.082564,63.453841 C109.492473,60.8282046 111.110745,58.0021137 113.492018,55.8321137 C113.868109,55.4891137 113.930473,54.997841 113.685473,54.5676592 C113.499018,54.2405683 113.150291,54.1750228 112.731564,54.2380228 C109.961473,54.6522955 106.217109,60.3375683 107.082564,63.453841 M111.451836,72.8274774 C114.984291,72.8032955 117.599745,70.8299319 120.156655,68.8241137 C121.181836,68.0197501 121.3142,66.9411137 120.777109,65.5786592 C119.863291,63.2603864 117.984745,61.7152955 116.640745,59.7552955 C115.570382,58.1949319 114.599291,58.2197501 113.453836,59.7304774 C111.212564,62.6844774 108.902564,65.5869319 106.585564,68.4823864 C106.2082,68.9532955 105.870291,69.8626592 106.112745,69.9065683 C108.255382,70.2915683 109.286927,72.6569319 111.451836,72.8274774 M114.2652,31.0603864 C112.838473,33.052841 111.4512,35.075841 109.959564,37.0186592 C109.519836,37.5920228 109.137382,38.218841 109.476564,38.7559319 C109.983745,39.5596592 110.909655,39.1422046 111.452473,38.7813864 C112.788836,37.8930228 114.214291,37.8612046 115.6792,38.0527501 C117.806564,38.3314774 118.519927,39.5431137 117.300655,41.2651137 C115.479382,43.8379319 115.600291,46.8402955 115.096291,49.6854774 C114.911745,50.7233864 114.983018,52.4040228 117.2192,51.4602955 C118.341745,50.9862046 119.289291,51.8376592 118.421927,53.1632046 C116.943018,55.4242046 118.261564,56.8687501 119.919291,58.7861137 C119.824473,55.5406592 121.537564,53.5800228 123.300291,51.6970228 C126.091382,48.7156592 128.9442,45.7909319 131.830109,42.901841 C132.365927,42.3653864 133.2002,42.1382046 133.860745,41.7131137 C134.589382,41.2453864 135.297655,41.1416592 135.781291,41.9371137 C136.318382,42.8197501 135.891382,43.4332046 135.080018,43.9925683 C131.110382,46.7314774 128.302745,50.6801137 124.840291,53.9529319 C123.222018,55.4827501 123.207382,57.0501137 124.914745,58.8904774 C127.443018,61.6141137 131.202655,61.6242955 134.0192,63.5696592 C136.180291,65.0632046 138.287291,66.638841 140.366291,68.2450228 C140.842291,68.612841 140.751291,69.4884774 140.449655,69.8015683 C139.841291,70.4322046 138.896927,70.4150228 138.109109,70.1057501 C136.499745,69.4744774 135.036109,68.3576592 133.813655,67.3235683 C130.787109,64.7622046 126.883655,65.1955683 123.013291,62.8620228 C124.294927,65.7173864 124.321655,67.7047501 123.046382,69.6870228 C121.474564,72.1293864 119.541291,74.3992955 116.807473,75.080841 C111.819655,76.3236592 108.362291,76.9924774 105.747473,71.9626592 C105.001655,72.1841137 105.083109,73.4002046 104.706382,73.3855683 C103.644927,73.3429319 102.643927,74.5672955 101.675382,73.7234774 C100.612018,72.7975683 100.745018,71.6673864 101.613655,70.5454774 C102.0922,69.9262955 102.196564,69.0996592 102.998382,68.6147501 C103.727655,68.1743864 103.912836,67.6162955 102.996473,66.8030228 C101.821745,65.7606592 101.765109,64.6584774 102.439018,62.8053864 C103.653836,59.4625683 105.566109,56.0013864 108.170109,53.5405683 C109.355018,52.4199319 110.9192,51.8777501 111.743291,50.4561137 C112.584564,49.0032955 112.385382,47.031841 112.7672,45.4402955 C113.060564,44.2191137 113.182109,42.9673864 113.879564,41.8671137 C112.107927,41.3013864 110.553927,42.1719319 108.9312,42.2813864 C107.478382,42.3787501 106.261655,41.9339319 105.643109,40.7693864 C105.100291,39.7473864 105.815564,38.8182955 106.513655,37.8230228 C108.891745,34.4331137 111.721018,31.274841 113.0332,26.8699319 C109.839927,27.1849319 107.456109,28.7930228 105.134018,30.3311137 C104.385655,30.826841 103.483927,31.9455683 104.476655,33.395841 C105.247291,34.5209319 105.589655,36.1659319 104.0452,37.0612955 C102.305382,38.0692955 101.488291,36.3943864 100.797836,35.3392955 C99.2591091,32.9860228 98.2791091,30.2922955 96.3547455,28.1515683 C95.7024727,27.4261137 95.9812,26.5441137 96.7912909,25.9917501 C98.0875636,25.1091137 99.5480182,25.7951137 99.8910182,26.7534774 C101.139564,30.2375683 102.648382,28.6619319 104.390745,27.3236592 C106.789836,25.4807501 109.405291,23.9299319 112.2492,22.9225683 C113.763109,22.3861137 113.918382,21.803841 112.820018,20.9021137 C111.436564,19.7662046 106.981382,12.7795683 109.823382,11.8307501 C110.951018,11.4546592 112.321109,11.2312955 112.496109,13.074841 C112.832745,16.6295683 115.591382,19.0254774 116.797291,22.1652955 C117.108473,22.9747501 117.982836,23.1516592 118.798018,23.4577501 C121.057109,24.3060228 122.011655,26.8336592 121.130291,29.0997501 C120.226655,31.421841 118.232927,32.1619319 115.587564,31.1577501 C115.690018,30.5404774 115.791836,29.9232046 115.894291,29.3059319 C116.804291,28.6682955 118.485564,29.027841 118.563836,27.3472046 C118.588655,26.8279319 118.327109,26.1712046 117.6392,26.1432046 C115.786745,26.066841 115.9732,27.7665683 115.405564,28.8070228 C115.025018,29.5579319 114.645109,30.308841 114.2652,31.0603864" id="Fill-132" fill="#56D250"></path>
            <path d="M161.399191,40.7498501 C168.103282,41.2366683 181.339009,38.0834864 183.393827,37.4604864 C184.458464,37.1384864 186.443918,37.422941 186.1321,38.9934864 C185.986373,39.7278501 185.394555,40.2770319 184.854918,40.7963046 C182.298645,43.253941 180.794918,46.5566683 177.975191,48.7145774 C175.289736,50.7693955 172.024555,51.7233046 168.663282,51.744941 C167.687736,51.7513046 166.667645,51.7952137 165.786282,52.7325774 C167.639373,54.8745774 170.121191,55.7037592 172.704827,56.2236683 C173.438555,56.3713046 174.123282,56.5711228 174.780645,56.8657592 C179.920555,59.1681228 180.614827,62.9194864 176.842464,67.3053046 C173.795555,70.8485774 169.804282,73.5225774 167.4771,77.7550319 C166.761827,79.0557592 165.2371,79.1085774 164.1521,78.0095774 C162.952555,76.7941228 163.954191,75.8300319 164.854009,74.9843046 C168.266191,71.7744864 171.734373,68.6213046 175.071464,65.3357592 C175.709736,64.7076683 176.456191,63.4680319 175.622555,62.6216683 C174.923191,61.9114864 174.234009,63.0257592 173.567736,63.4075774 C167.8131,66.7020319 163.270736,71.3303046 159.348191,76.5790319 C158.600464,77.5800319 158.094555,78.4652137 156.787464,77.8600319 C155.209918,77.1294864 156.212191,75.5697592 156.597191,75.1204864 C161.383918,69.5313046 166.2731,64.0140319 173.114009,60.7774864 L174.932736,60.7774864 C174.648918,59.7096683 173.856009,59.7058501 173.227918,59.4595774 C170.683736,58.5362137 168.559555,57.6682137 165.525373,59.3762137 C162.412282,61.1281228 160.0431,63.2185774 158.176645,66.0332137 C157.504009,67.0475774 156.533555,68.1694864 157.379918,69.7635774 C157.796736,70.5482137 157.392645,71.7191228 156.187373,71.8304864 C155.139918,71.9265774 154.368009,71.1336683 154.294827,70.2033046 C154.1771,68.6951228 154.086736,67.1913955 155.053373,65.7360319 C157.943736,61.3852137 159.756736,59.4398501 163.645555,56.9357592 C163.194373,56.3032137 162.677009,55.6095774 162.193373,54.8930319 C160.628555,52.5715774 161.341282,50.8222137 164.109464,50.1934864 C167.260736,49.4775774 170.517009,49.4152137 173.590009,48.0915774 C175.751736,47.1605774 177.667191,45.8407592 179.100282,43.9482137 C179.382827,43.5746683 179.654555,43.155941 179.667282,42.686941 C179.726464,40.5888501 167.381009,43.0973955 165.578191,43.3048501 C162.780736,43.6268501 159.963555,43.8203046 157.150191,43.9373955 C155.867918,43.9908501 153.220009,40.5920319 153.788918,39.3530319 C154.602191,37.5820319 155.008827,35.3127592 157.453736,34.7043955 C160.5541,33.9324864 162.740009,31.381941 163.037827,28.1523955 C163.234464,26.019941 164.000009,24.1471228 165.260009,22.3290319 C162.959555,21.8912137 161.375009,23.2084864 159.8821,24.4850319 C159.215191,25.0552137 158.696555,25.5713046 157.768736,25.4904864 C157.120918,25.4338501 156.4871,25.480941 156.051827,24.8280319 C155.465736,23.9492137 156.196282,23.3510319 156.593373,22.8801228 C157.9011,21.3305774 159.866191,20.7877592 161.635918,19.9916683 C165.213555,18.382941 168.845918,16.8970319 172.4331,15.309941 C173.2451,14.9510319 174.205373,14.6614864 174.605009,15.4493046 C175.143373,16.5088501 173.893555,16.8524864 173.248918,17.1413955 C169.089009,19.005941 167.374645,22.5097592 166.181464,27.0712137 C168.344464,26.0148501 169.990736,25.1290319 171.901736,24.8980319 C172.718827,24.7993955 173.523827,24.2374864 174.0571,25.2601228 C174.524191,26.1573955 173.934282,26.9248501 173.392736,27.4880319 C171.323282,29.6383046 168.824282,31.465941 167.137282,33.8707592 C165.133373,36.7280319 162.351191,36.3723046 159.626918,36.8387592 C158.661555,37.0035774 157.265373,37.4305774 157.545373,38.9355774 C157.7541,40.0568501 159.236827,40.5926683 161.399191,40.7498501" id="Fill-134" fill="#56D250"></path>
            <path d="M56.7442273,47.3791683 C59.5092273,45.7577137 61.3432273,43.8785319 62.7012273,41.4998046 C63.6156818,39.8980774 64.6020455,38.3338955 65.6285,36.8008955 C66.1522273,36.0200774 66.8980455,35.2526228 67.9321364,35.7897137 C68.9891364,36.3388955 69.5555,37.3341683 69.2799545,38.5795319 C69.1635,39.1058046 68.7944091,39.5703501 68.5977727,40.0851683 C68.3718636,40.6769864 67.4650455,41.4018046 68.6919545,41.8402592 C69.6000455,42.1648046 70.1670455,41.4278955 70.3267727,40.7285319 C71.0560455,37.5269864 72.4204091,34.6410774 74.2200455,31.9110774 C74.6413182,31.2715319 74.8634091,30.2679864 73.7166818,29.8422592 C72.9568636,29.5603501 66.1000455,31.7653501 65.5305,32.3947137 C63.3210455,34.8332592 62.0833182,38.1308955 58.9645,39.7816228 C58.6265909,39.960441 58.4223182,40.5388955 58.3096818,40.9722592 C57.7821364,43.0028955 57.3080455,45.0475319 56.7442273,47.3791683 M49.2516818,36.2848046 C48.8590455,34.5589864 50.8648636,30.7541683 52.4786818,30.1655319 C53.8284091,29.6723501 57.1158636,31.4528955 58.1639545,33.3276228 C58.5559545,34.0282592 58.7525909,34.8383501 59.0866818,35.7267137 C60.5095909,35.0566228 61.5105909,33.8621683 62.1463182,32.6091683 C63.8823182,29.1861683 66.9941364,28.1807137 70.4756818,27.3018955 C71.8311364,26.9601683 73.2966818,26.8048955 74.6031364,27.3012592 C76.4384091,27.997441 77.5991364,30.2883501 76.5281364,32.0758955 C74.4395909,35.5631683 73.6167727,39.5200774 71.7789545,43.0716228 C70.7983182,44.9679864 69.3855909,45.4847137 67.4345,44.9107137 C64.9985,44.1941683 61.6194091,45.7112592 60.5255,47.9608046 C60.0113182,49.018441 60.8207727,49.4448046 61.4488636,49.5160774 C64.5053182,49.8635319 67.7488636,52.3116228 70.7665,52.042441 C71.3716818,51.9889864 71.9736818,51.8139864 72.5763182,51.8865319 C74.1646818,52.077441 75.0295,53.792441 75.6162273,55.2808955 C75.8039545,55.7581683 75.9955,56.2678955 75.8949545,56.7706228 C75.4946818,58.7713501 72.9002273,58.4512592 71.6631364,57.7207137 C69.0508636,56.179441 66.6435,54.2582592 63.6023182,53.498441 C60.9448636,52.8347137 58.2479545,52.9498955 55.5567727,52.8671683 C54.8593182,52.8455319 54.3126818,53.1280774 53.8443182,53.6212592 C50.0503182,57.621441 45.7752273,61.191441 42.9014091,66.0163501 C42.3369545,66.9638955 41.4664091,67.7218046 40.1943182,66.9295319 C38.7707727,66.0430774 39.6725,65.1095319 40.1128636,64.1600774 C41.3626818,61.4650774 44.1537727,60.1815319 45.8433182,57.8708955 C46.6355909,56.7878046 47.7855,55.9668955 48.7565909,55.0422592 C47.8147727,54.0482592 46.2900455,55.4043501 46.0055909,53.953441 C45.7822273,52.8137137 47.0129545,52.2766228 47.6671364,51.5479864 C48.7063182,50.3898046 50.3277727,50.4158955 51.6469545,49.8088046 C52.1783182,49.564441 53.2015909,50.0315319 53.1958636,49.102441 C53.1914091,48.3801683 52.9865,47.4886228 51.9765909,47.2003501 C51.3675909,47.0266228 50.8171364,46.6530774 50.2335909,46.3832592 C48.7858636,45.7150774 48.1316818,44.8750774 48.6757727,43.0741683 C49.2109545,41.3031683 49.1886818,39.3641683 49.4107727,37.4983501 C52.1293182,36.5170774 52.3355,36.6672592 52.6269545,39.7733501 C52.6759545,40.2958046 52.4990455,40.9378955 53.0596818,41.2707137 C53.5490455,41.5608955 53.9385,41.1243501 54.2967727,40.8742592 C55.2576818,40.2048046 56.2555,35.7222592 55.6993182,34.7155319 C54.7396818,32.9782592 53.5095909,32.9305319 51.9823182,34.409441 C51.1970455,35.1705319 50.9106818,36.768441 49.2516818,36.2848046" id="Fill-136" fill="#56D250"></path>
            <g id="Group-140">
                <mask id="mask-2" fill="white">
                    <use xlink:href="#path-1"></use>
                </mask>
                <g id="Clip-139"></g>
                <path d="M45.5438455,24.7456228 C43.2993909,23.8858955 41.3661182,25.0243501 39.3832091,24.9823501 C38.3395727,24.9607137 36.9083909,25.3412592 36.5857545,23.8998955 C36.2338455,22.3293501 37.7751182,22.2408955 38.7436636,21.9271683 C41.5729364,21.0101683 46.6918455,21.1972592 48.6442091,18.8000774 C49.5338455,17.7087137 50.0747545,16.3761683 50.8784818,15.2198955 C51.8164818,13.8708046 53.0930273,12.7889864 54.0685727,11.4672592 C56.2468455,8.51707735 54.9365727,4.92989554 54.8544818,1.57435008 C54.8303,0.565713718 55.1535727,0.063622809 56.2538455,0.00444099077 C57.4966636,-0.0630135547 57.4833,0.6465319 57.5984818,1.54889554 C57.7658455,2.86235008 57.3089364,4.07335008 57.2255727,5.33716826 C57.0773,7.59307735 57.6315727,9.67971372 58.5103909,11.7612592 C59.2390273,13.486441 58.3099364,14.9793501 56.5688455,14.7585319 C54.1239364,14.4479864 53.4831182,15.9090774 52.4636636,17.5146228 C55.3833,18.4373501 57.6996636,17.1022592 59.9415727,16.0777137 C60.9654818,15.6093501 61.6667545,14.1781683 60.8025727,12.8125319 C60.1006636,11.7039864 60.5989364,11.0536228 61.5967545,10.6991683 C62.8039364,10.2702592 63.0928455,11.0911683 63.3963909,12.079441 C64.6086636,16.0261683 62.0212091,20.1001683 58.0063909,20.5309864 C52.4725727,21.1253501 48.5398455,23.4238955 46.1967545,29.0391683 C44.0044818,34.2936228 40.3963,38.9435319 37.5727545,43.950441 C34.3266636,49.7069864 30.9386636,55.3769864 27.1510273,60.7848046 C20.3094818,70.5510774 14.0253909,80.7131683 6.42339091,89.9448955 C5.10166364,91.5498046 4.12166364,93.4773501 3.21293636,95.3660774 C2.56193636,96.7202592 1.49984545,97.4215319 0.415481818,96.702441 C-0.484972727,96.1055319 0.282481818,94.9428955 0.799845455,93.9800774 C4.95466364,86.2501683 11.2616636,80.0755319 15.9930273,72.7516228 C21.1431182,64.7773501 26.9862091,57.2358046 31.8696636,49.1107137 C34.1860273,45.2562592 36.3553909,41.1981683 38.4808455,37.1846228 C40.6553,33.0788046 43.2192091,29.1288955 45.5438455,24.7456228" id="Fill-138" fill="#56D250" mask="url(#mask-2)"></path>
            </g>
            <path d="M40.4320636,125.666723 C41.1804273,123.095814 43.7812455,120.745723 45.4631545,118.699814 C52.9143364,109.634177 60.7727909,100.859996 66.0851545,90.2448137 C68.0992455,86.2198137 69.1040636,81.9052683 69.4954273,77.4589955 C69.7690636,74.3554501 68.3525182,73.5949955 65.4806091,74.5304501 C63.1833364,75.2788137 61.2335182,76.5178137 59.2391545,77.7326319 C58.1675182,78.3849046 57.0252455,78.4167228 55.8836091,78.6750864 C54.8826091,78.9016319 54.5237,78.3702683 54.0992455,77.8274501 C53.4533364,77.0008137 54.1285182,76.4643592 54.6586091,75.9539955 C57.5610636,73.1584501 59.9964273,69.9091774 63.0904273,67.1880864 C60.5901545,67.1963592 58.5601545,68.4410864 56.6854273,69.7959046 C55.0665182,70.9661774 53.2757909,71.4549046 51.4277909,71.8532683 C50.4108818,72.0728137 49.3017,71.8984501 48.8416091,70.7816319 C48.4177909,69.7532683 49.0993364,68.9959955 49.8865182,68.4410864 C53.9974273,65.5424501 57.4089727,61.8782683 60.9331545,58.3426319 C61.7152455,57.5573592 62.4432455,56.4628137 63.4779727,57.5974501 C64.3135182,58.512541 63.5295182,59.2418137 62.6729727,60.0226319 C60.7651545,61.7618137 59.4027,64.0221774 56.8349727,65.9000864 C58.3138818,66.0089046 58.8999727,65.785541 59.5217,65.3388137 C60.2433364,64.8201774 61.0750636,64.3912683 61.9220636,64.1227228 C63.9679727,63.4729955 66.4370636,62.9110864 67.7492455,64.8017228 C68.8380636,66.3716319 66.5127909,67.5641774 65.6689727,68.8642683 C64.9651545,69.9486319 63.7910636,70.727541 62.7703364,71.6941774 C64.1977,72.3999046 65.2928818,71.4816319 66.4147909,71.1577228 C70.0172455,70.1159955 71.9129727,71.371541 72.1847,75.0809046 C72.6664273,81.6634501 70.8648818,87.7076319 67.6932455,93.3534501 C61.5917909,104.211723 53.8892455,113.890177 45.4128818,122.973632 C44.1541545,124.322086 42.5556091,126.52645 40.4320636,125.666723" id="Fill-141" fill="#56D250"></path>
            <path d="M204.419727,77.2492501 C203.876273,77.1747955 203.365273,77.037341 202.993,76.9030683 C199.660364,75.7035228 196.551091,73.4075228 193.784182,71.2324319 C191.798727,69.6727046 189.641455,68.2097046 187.482273,66.8167046 C185.781909,65.7189774 184.490727,64.1637046 183.548909,62.4047955 C182.343636,60.1539774 183.002273,58.2124319 185.179909,57.0097046 C188.545636,55.1508864 191.559455,52.8256137 194.603818,50.5124319 C195.331818,49.9587955 196.472818,48.8737955 197.434364,50.2884319 C198.321455,51.5936137 197.591545,52.2414319 196.363364,52.9821592 C193.574182,54.6640683 191.003273,56.7067955 188.221727,58.4027046 C186.523909,59.4380683 186.806455,60.3786137 187.660455,61.7741592 C189.399636,64.612341 192.455455,65.9156137 194.877455,67.8927955 C197.464909,70.0048864 200.068909,72.3167955 203.344273,73.5678864 C204.335091,73.9465228 205.166182,74.7337046 206.337091,74.7572501 C207.765727,74.7858864 207.649909,75.9427955 207.047273,76.6536137 C206.487273,77.3147955 205.401,77.3841592 204.419727,77.2492501" id="Fill-143" fill="#56D250"></path>
            <path d="M164.030682,5.98804099 C166.6665,6.49331372 166.957955,8.86122281 167.563136,10.8396774 C168.077955,12.5241319 167.613409,14.1379501 165.869773,14.9474046 C164.418864,15.6213137 163.882409,14.0978592 164.2655,13.5092228 C165.816318,11.126041 163.461773,10.3286774 162.702591,8.88795008 C162.381864,8.28022281 161.611864,7.77431372 162.056682,6.9381319 C162.450591,6.19676826 163.162682,6.00585917 164.030682,5.98804099" id="Fill-145" fill="#56D250"></path>
        </g>
    </g>
</svg>