<?xml version="1.0" encoding="UTF-8"?>
<svg width="216px" height="140px" viewBox="0 0 216 140" version="1.1" xmlns="http://www.w3.org/2000/svg" xmlns:xlink="http://www.w3.org/1999/xlink">
    <title>img-sign-6</title>
    <g id="img-sign-6" stroke="none" stroke-width="1" fill="none" fill-rule="evenodd">
        <g id="Group-7" transform="translate(12.778118, 17.715773)" fill="#56D250">
            <path d="M24.8174182,63.8734902 C21.6152364,67.236672 17.4012364,69.1794902 13.7752364,72.2658539 C17.4107818,74.0234902 20.4933273,72.2168539 23.4466909,71.3914902 C29.6518727,69.6580357 35.0571455,66.0014902 40.8474182,63.2549448 C41.4742364,62.9571266 41.8096,62.7095811 41.8853273,61.9153993 C42.1010545,59.6518539 43.4705091,57.7682175 44.1794182,55.6561266 C44.3887818,55.0331266 44.8533273,54.4724902 45.6583273,54.7461266 C46.5848727,55.0604902 45.6239636,55.6185811 45.7773273,56.0818539 C46.2361455,57.4672175 45.0900545,58.7062175 45.2459636,60.4231266 C49.0406,58.6489448 52.6436909,56.9670357 55.9451455,54.7531266 C57.3820545,53.789672 58.9812364,53.3098539 60.4996,52.6009448 C61.1467818,52.298672 62.0650545,52.1313084 62.4176,53.0063084 C62.7733273,53.8902175 62.3889636,54.3394902 61.3510545,54.7722175 C55.8560545,57.0650357 50.8866909,60.381763 45.6169636,63.1225811 C44.4931455,63.706763 42.7183273,70.5253993 43.6639636,70.9263084 C45.4069636,71.6651266 47.0729636,72.3689448 48.5187818,73.6308539 C51.5994182,76.3182175 55.6447818,77.715672 58.3467818,80.9159448 C58.8666909,81.5319448 59.6163273,81.9220357 59.8174182,82.8663993 C59.9835091,83.6484902 61.5877818,84.2555811 60.5626,85.1318539 C59.4763273,86.0609448 57.6906909,85.1515811 57.4666909,84.3554902 C56.5598727,81.1265811 53.3125091,81.178763 51.2704182,79.6934902 C48.6110545,77.7595811 45.6596,76.2361266 43.3884182,73.4641266 C42.1723273,77.0245811 43.0727818,80.4405811 43.0231455,83.8050357 C42.9238727,90.4938539 42.7915091,97.1941266 43.0683273,103.873399 C43.2859636,109.141217 44.1775091,114.37849 44.1170545,119.676217 C44.1043273,120.787308 44.3098727,122.081036 42.6973273,122.17649 C41.1783273,122.265581 41.2559636,120.753581 40.8493273,119.877308 C40.5661455,119.267672 40.7163273,118.404127 40.8206909,117.67549 C41.4799636,113.053581 40.0252364,82.655763 40.1366,79.2900357 C40.1614182,78.5461266 40.6546,77.456672 39.7153273,77.0614902 C38.4298727,76.5205811 38.2599636,78.0013993 37.8698727,78.6161266 C35.7202364,82.0079448 32.6663273,84.6272175 30.2570545,87.7899448 C29.3680545,88.9570357 28.0896,89.7855811 27.3743273,91.1461266 C26.8906909,92.065672 26.0965091,92.4805811 25.0961455,91.664763 C24.2141455,90.945672 24.6150545,90.3869448 25.0649636,89.5558539 C25.8445091,88.1138539 27.3266,87.5023084 28.3206,86.353672 C31.7047818,82.4432175 34.8369636,78.2731266 38.5450545,74.6993084 C40.7844182,72.5413993 40.6915091,70.2581266 40.7589636,67.7031266 C40.7971455,66.261763 40.1716,66.0530357 39.1356,66.6843084 C38.2141455,67.2449448 37.2379636,67.7343084 36.3063273,68.2408539 C28.9028727,72.2652175 21.4828727,76.3404902 12.6208727,75.8695811 C12.1569636,75.844763 8.70278182,75.692672 8.38523636,74.1628539 C8.05814545,72.5865811 9.62169091,72.3040357 10.4216,71.9699448 C14.7787818,70.148672 18.2787818,67.026672 22.1822364,64.527672 C22.9770545,64.0185811 23.6999636,63.503763 24.8174182,63.8734902" id="Fill-114"></path>
            <path d="M48.6519091,47.551463 C45.8907273,47.735372 45.8302727,47.784372 45.1130909,50.4418266 C46.7027273,49.8862811 47.7928182,48.965463 48.6519091,47.551463 M37.716,46.81774 C41.5208182,46.8202811 42.5498182,45.6958266 42.3856364,42.2066448 C42.3239091,40.8950993 41.4673636,41.1375539 40.9315455,41.6148266 C39.5881818,42.812463 37.8006364,43.0810084 36.3503636,44.0260084 C35.7693636,44.4052811 34.7212727,44.3569175 34.7015455,45.2261902 C34.6767273,46.2901902 35.7884545,46.291463 36.5107273,46.5682811 C37.0096364,46.7591902 37.5696364,46.7897357 37.716,46.81774 M43.5151818,50.2980084 C41.1765455,48.0440084 38.1945455,49.814372 35.5867273,49.0717357 C34.7034545,48.820372 33.6941818,48.925372 33.2582727,47.9892811 C32.1179091,45.5392811 30.5212727,46.4511902 28.8762727,47.2701902 C22.0296364,50.6779175 14.7572727,53.116463 7.93863636,56.6495539 C5.70563636,57.8070993 3.09209091,59.4190084 0,59.1670084 C0.298454545,56.9842811 2.04272727,56.149372 3.339,55.6530084 C9.968,53.1145539 16.2571818,49.8029175 22.9027273,47.2841902 C25.466,46.3130993 28.0152727,45.0397357 30.5798182,43.925463 C32.1554545,43.2407357 33.3149091,42.1449175 33.3887273,40.4050993 C33.4695455,38.509372 35.0916364,37.4778266 35.6128182,35.8118266 C35.9831818,34.629463 37.4531818,34.9062811 38.2244545,35.4217357 C38.99,35.933372 38.4363636,36.6480084 37.7662727,37.1602811 C36.7016364,37.9735539 36.1524545,39.1266448 35.9959091,40.4509175 C39.3616364,41.167463 42.2609091,39.2615539 42.35,36.0135539 C42.3856364,34.6975539 43.3840909,33.9396448 43.6507273,32.7700084 C43.8047273,32.0922811 44.7280909,32.2526448 45.1207273,32.9252811 C45.2893636,33.2135539 45.1232727,33.6800084 45.2499091,34.0121902 C45.6005455,34.9291902 44.3278182,36.491463 45.9651818,36.757463 C47.2951818,36.9731902 47.9022727,35.5649175 48.3165455,34.4805539 C48.916,32.9106448 50.2300909,31.7021902 50.3866364,29.8739175 C50.4426364,29.2260993 51.2457273,28.5540993 52.178,28.3561902 C52.8525455,28.212372 53.4411818,28.0278266 53.9165455,28.6546448 C54.4555455,29.365463 53.9114545,29.883463 53.5048182,30.3645539 C52.7965455,31.2032811 52.2040909,32.088463 51.9508182,33.1448266 C52.4503636,33.6590084 53.1700909,33.6341902 53.5423636,33.4280084 C57.5616364,31.2032811 62.0231818,30.0240993 66.0901818,27.8000084 C69.44,25.9679175 73.3841818,24.8281902 77.3557273,24.6385539 C78.4394545,24.586372 80.2276364,24.4730993 80.2925455,26.2587357 C80.3650909,28.2410084 78.6551818,27.7420993 77.4282727,27.9310993 C72.5187273,28.6877357 67.6779091,29.500372 63.1196364,31.824372 C60.354,33.2351902 57.2523636,34.0522811 54.4822727,35.574463 C53.0173636,36.3788266 51.7179091,37.0972811 50.5425455,38.5685539 C49.3328182,40.0818266 47.4701818,41.440463 45.7443636,42.6260084 C44.7910909,43.281463 44.3920909,43.9159175 44.7128182,44.7890084 C45.0908182,45.8160993 45.9397273,45.1447357 46.5951818,44.9480993 C48.1421818,44.4848266 49.6592727,43.8490993 51.2387273,43.596463 C52.2034545,43.4418266 53.5016364,42.996372 54.1838182,44.3651902 C54.8558182,45.712372 53.6098182,46.0432811 52.9658182,46.7076448 C48.4374545,51.3830084 42.8081818,54.3331902 36.9606364,56.9441902 C36.5508182,57.1268266 36.1556364,57.3667357 35.7267273,57.4800084 C35.0133636,57.6696448 34.5545455,59.5526448 33.677,58.0711902 C33.0349091,56.9868266 34.5653636,56.567463 35.1909091,56.1697357 C37.9018182,54.4451902 41.0766364,53.5129175 43.5368182,51.3346448 C44.1114545,51.4065539 44.7688182,51.298372 44.7306364,50.6626448 C44.6841818,49.8869175 43.9689091,50.3018266 43.5151818,50.2980084" id="Fill-116"></path>
            <path d="M111.639882,54.6870084 C111.541882,56.371463 111.433064,58.5879175 111.266973,60.7999175 C111.232609,61.2536448 110.971064,61.768463 111.380245,62.0815539 C111.857518,62.4468266 112.441064,62.3418266 112.870609,61.9059175 C114.004609,60.755372 115.564336,60.5479175 116.986609,60.0757357 C117.584791,59.8771902 118.438791,60.0846448 118.6087,60.7757357 C118.6927,61.1180993 118.1397,61.7595539 117.724155,62.0510084 C116.990427,62.5651902 115.844336,62.715372 115.401427,63.3740084 C114.4577,64.778463 111.525336,63.462463 111.742336,66.0142811 C111.889336,67.7490084 111.403155,76.2508266 111.059518,78.778463 C110.717791,81.2870084 110.691064,83.7847357 110.794155,86.2792811 C110.8457,87.5386448 110.444155,88.3519175 109.341336,88.4747357 C108.015155,88.622372 107.636518,87.6175539 107.767609,86.4498266 C108.396336,80.8440993 108.550973,75.2199175 108.3747,69.5880993 C108.351155,68.826372 108.883791,67.706372 107.922882,67.3442811 C107.014155,67.0012811 102.064518,69.057372 100.9757,70.4471902 C100.589427,70.9397357 99.6896091,70.8646448 99.1977,70.3720993 C98.6256091,69.799372 98.9590636,69.1547357 99.4535182,68.670463 C100.560791,67.5860993 101.747609,66.7511902 103.259609,66.1160993 C108.365791,63.9696448 108.498791,63.8010084 108.438973,59.236372 C108.410973,57.0816448 108.896518,54.8950993 108.742518,52.6862811 C108.713882,52.2802811 109.112245,51.7845539 108.4727,51.6547357 C108.081973,51.5758266 107.635882,51.6299175 107.263609,52.0677357 C103.045791,57.031372 98.8146091,61.9841902 94.5337909,66.8930993 C93.5213364,68.0538266 94.3441545,69.8719175 92.8728818,70.8570084 C92.1041545,71.3718266 91.5505182,72.2067357 90.4827,71.5048266 C89.3563364,70.765372 90.2854273,70.0469175 90.5304273,69.3825539 C91.9857909,65.4300993 95.1256091,62.6638266 97.7257909,59.5570993 C100.858609,55.8140084 104.303882,52.3267357 107.705245,48.8171902 C108.648973,47.8435539 108.383609,46.8240993 108.411609,45.7530993 C108.445973,44.4485539 107.8917,44.2608266 106.703609,44.5650084 C103.737518,45.3235539 100.798155,46.3347357 98.2336091,47.8677357 C95.1765182,49.6966448 91.5543364,50.2642811 88.7250636,52.5647357 C87.9588818,53.1877357 87.1303364,53.6917357 86.4844273,54.4916448 C85.7799727,55.363463 84.8286091,55.314463 84.1177909,54.5170993 C83.2147909,53.5040084 83.9733364,53.0776448 84.8534273,52.4928266 C90.5278818,48.7185539 96.6197909,45.8141902 103.036245,43.5741902 C104.642427,43.0135539 105.910064,41.853463 107.591336,41.356463 C108.8437,40.9860993 108.449791,39.4620084 108.377245,38.3846448 C108.299609,37.2372811 108.732973,36.157372 109.774064,36.1191902 C111.346518,36.0612811 110.906155,37.1615539 110.660518,38.2567357 C110.330245,39.7311902 111.471245,39.7120993 112.410518,39.3697357 C115.333973,38.3031902 118.241518,37.186372 121.122336,36.0090993 C121.897427,35.6921902 122.637518,35.4770993 123.469882,35.481486 C124.329609,35.4860084 125.377064,35.560463 125.479518,36.4602811 C125.579427,37.3371902 124.688518,37.5611902 123.770882,37.800463 C120.025882,38.7766448 116.472427,40.3179175 112.899882,41.806372 C111.419064,42.4236448 111.030882,43.274463 111.133973,44.7400084 C111.353518,47.875372 111.461064,51.0190084 111.639882,54.6870084" id="Fill-118"></path>
            <path d="M171.962445,66.170063 C167.561991,68.585063 165.5969,72.9511539 163.281809,77.0308811 C162.880264,77.7385175 162.644173,78.5416084 162.2299,79.2403357 C161.238445,80.913972 159.685082,80.9986084 159.011809,79.2008811 C157.867627,76.1456993 155.707809,73.7128811 154.345991,70.805972 C153.704536,69.4377902 153.814627,68.1637902 154.069173,66.801972 C154.205991,66.0701539 154.191991,65.2848811 155.265536,65.274063 C156.351173,65.2626084 156.476536,66.3628811 156.488627,66.8108811 C156.575173,69.8851539 158.825991,72.1105175 159.5139,74.9308811 C159.626536,75.390972 159.956809,75.9738811 160.607173,76.0375175 C161.177991,76.0941539 161.397536,75.6321539 161.614536,75.2325175 C165.831082,67.4688811 172.469627,62.1775175 179.671355,57.434063 C181.366627,56.3172448 183.022445,55.2958811 185.129445,55.222063 C188.204991,55.1138811 189.8379,56.6411539 189.571264,59.7236993 C189.050082,65.7564266 187.402536,71.5027902 183.937536,76.4925175 C180.9269,80.8286993 175.217445,83.9691539 169.8949,81.990063 C166.328082,80.6638811 165.4359,78.0121539 168.429991,75.7206084 C171.706627,73.2126993 172.504627,70.153063 172.302264,66.4398811 C176.105173,65.6157902 174.387627,68.8243357 175.047536,70.6207902 C177.046991,69.2373357 178.8129,67.927063 180.674264,66.7695175 C181.441718,66.2928811 182.450991,65.0055175 183.280173,66.143972 C184.1749,67.3721539 182.611355,67.7425175 181.862355,68.2974266 C179.489991,70.056972 177.169173,71.897972 174.700718,73.513063 C173.336991,74.4046084 172.810082,75.761972 172.962809,76.999063 C173.125718,78.3131539 174.6689,78.0312448 175.762809,78.0554266 C176.212718,78.064972 177.009445,78.0923357 177.057809,78.2711539 C177.859627,81.2366084 179.1489,78.6357902 179.531991,78.2775175 C184.985627,73.1726084 186.654173,66.4277902 187.269536,59.3393357 C187.448355,57.2794266 186.105627,56.5762448 184.202264,57.3303357 C179.373536,59.2432448 175.447809,62.3996084 171.962445,66.170063" id="Fill-120"></path>
            <path d="M38.4691364,23.7834084 C35.5195909,24.5623175 35.2230455,22.8186811 35.1428636,20.8554993 C35.0232273,17.9390448 34.7966818,17.8913175 32.1812273,18.9374993 C26.2426818,21.3136811 20.0445,22.9974993 14.1791364,25.588772 C13.6312273,25.8305902 12.9191364,25.8229539 12.2363182,25.3132266 C12.6162273,24.3733175 13.1851364,23.7394993 14.2408636,23.3901357 C19.4845,21.6554084 24.2317727,18.6950448 29.8075909,17.6736811 C33.6429545,16.9711357 36.6294091,14.470863 38.1006818,10.6361357 C38.4710455,9.67013568 39.0883182,9.07640841 39.9130455,9.53649932 C40.9382273,10.1079539 39.8933182,10.8213175 39.7106818,11.5003175 C39.5121364,12.2391357 38.5448636,12.9544084 39.2957727,13.7606811 C40.0695909,14.5911357 40.9484091,13.6703175 41.5077727,13.3922266 C43.2870455,12.5070448 45.0917727,11.9521357 47.0473182,11.5849539 C49.7938636,11.0694993 49.8905909,8.21795386 50.7789545,6.30504477 C51.2918636,5.19968114 51.7538636,3.64440841 51.4274091,2.09040841 C51.2721364,1.35286295 51.3357727,-0.281955228 52.9177727,0.0419538631 C54.1879545,0.30222659 55.0534091,1.29686295 54.6703182,2.72804477 C54.0384091,5.0883175 53.2671364,7.4123175 52.4341364,10.1474084 C55.4950455,9.27559023 58.3892273,8.57177204 61.1892273,7.59622659 C62.3964091,7.17622659 63.5666818,7.17304477 64.7083182,7.30540841 C65.4783182,7.39449932 66.4468636,7.85204477 66.0007727,9.16422659 C65.6437727,10.2135902 65.0646818,10.8556811 63.9803182,10.501863 C59.1611364,8.93068114 54.9617727,11.147772 51.0621364,13.1981357 C49.3420455,14.1024084 48.5529545,17.032863 47.6588636,19.1761357 C46.9486818,20.8784084 45.8840455,21.2984084 44.0296818,21.1564993 C44.5979545,19.1576811 46.4523182,18.0873175 46.7450455,16.110772 C46.9588636,14.6713175 46.8634091,14.5173175 45.3348636,14.626772 C42.8956818,14.8011357 41.2315909,16.724863 38.7968636,16.9641357 C37.3504091,17.1060448 37.1556818,21.542772 38.4691364,23.7834084" id="Fill-122"></path>
            <path d="M177.391518,27.993463 C181.196336,25.3792811 184.236245,22.654372 186.530973,19.187463 C186.873336,18.6700993 187.6567,18.2539175 187.229064,17.5539175 C186.842155,16.9200993 186.047336,17.1421902 185.442155,17.2815539 C184.310064,17.542463 183.149336,17.7861902 182.0917,18.2469175 C174.370064,21.6100993 166.927155,25.4931902 160.324245,30.7775539 C156.823609,33.579463 153.503064,36.6085539 150.137973,39.5765539 C149.602791,40.0480993 149.318336,40.8989175 148.386064,40.4101902 C147.559427,39.9768266 147.891609,39.1209175 147.705791,38.4438266 C147.428973,37.4377357 148.123882,36.687463 148.326882,35.8417357 C149.262336,31.9382811 149.640973,27.904372 151.043518,24.1052811 C151.285336,23.450463 151.352155,22.7300993 152.199155,22.9280084 C152.948791,23.1030084 153.051882,23.5446448 153.009882,24.5106448 C152.874973,27.6619175 152.1037,30.7018266 151.704064,34.540372 C154.920245,32.2125539 157.879336,30.3066448 160.562882,28.070463 C164.154518,25.076372 168.250791,22.9337357 172.271973,20.6695539 C174.729609,19.2848266 177.467882,18.4002811 179.933791,17.0282811 C182.377427,15.6690084 184.908245,14.9499175 187.6637,15.043463 C189.976882,15.1217357 190.700427,16.1800084 189.593155,18.1832811 C187.346155,22.2477357 184.580518,25.8718266 180.280609,28.0666448 C179.423427,28.504463 178.755882,28.4732811 177.391518,27.993463" id="Fill-124"></path>
            <path d="M165.511245,38.0745448 C163.945155,37.3980902 163.475518,39.0354539 162.389882,39.1595448 C161.800609,39.226363 161.105064,39.8958175 160.687609,39.1391811 C160.352245,38.5327266 160.809155,37.8600902 161.334791,37.441363 C161.895427,36.995272 162.508882,36.594363 163.1497,36.2749084 C165.457791,35.1256357 167.844155,34.1201811 170.084791,32.8544539 C171.1997,32.2244539 171.754609,32.6234539 172.373791,33.381363 C173.151427,34.3327266 172.217882,34.606363 171.710064,35.082363 C170.290973,36.4149084 169.047518,37.9918175 167.466791,39.0838175 C162.530518,42.495363 161.1197,47.0975448 162.5617,52.9380902 C165.370609,49.6086357 168.283882,46.3949993 171.713245,43.685363 C172.798245,42.8288175 173.974245,41.7928175 175.091064,42.5895448 C176.415336,43.5339084 175.383155,45.059272 175.107609,46.3746357 C174.9097,47.3177266 171.261427,48.5134539 175.245064,49.4298175 C175.989609,49.6009993 175.119064,50.5899084 174.637973,50.8476357 C171.684609,52.428363 169.2537,55.2296357 165.379518,54.7027266 C164.196518,54.5417266 163.899973,55.5700902 163.838882,56.572363 C163.787336,57.4104539 163.785427,58.1600902 162.523518,58.0939084 C161.469064,58.0391811 160.1957,58.0111811 160.2657,56.8237266 C160.458518,53.5814539 159.007609,50.5561811 159.8247,47.1210902 C160.724518,43.3429993 163.305609,41.0279084 165.511245,38.0745448" id="Fill-126"></path>
            <path d="M128.3716,55.7844811 C128.464509,57.5764811 128.008873,58.5450266 127.166327,59.3264811 C126.448509,59.9921175 125.478055,60.5330266 124.704236,59.8037539 C124.058964,59.1960266 124.912327,58.5437539 125.327236,57.9500266 C126.557964,56.1860266 125.255964,54.0281175 122.630964,52.7789357 C119.920691,51.4890266 117.1156,50.5981175 114.211873,49.9420266 C113.728873,49.8332084 113.0696,50.0794811 112.960145,49.2382084 C112.861509,48.4758448 113.505509,48.2862084 113.919145,48.0564811 C115.005418,47.4551175 115.987964,46.925663 117.462418,47.5257539 C120.558327,48.7851175 123.628145,49.9547539 126.365782,51.9892084 C127.992327,53.1982993 127.974509,54.821663 128.3716,55.7844811" id="Fill-128"></path>
            <path d="M159.4684,6.10847204 C161.354582,5.94747204 162.777491,7.29719932 164.483582,7.82219932 C167.1614,8.64692659 169.791491,9.64092659 172.398036,10.672472 C173.114582,10.9569266 174.145491,11.5353811 173.8744,12.420563 C173.553673,13.470563 172.293036,13.4253811 171.484218,13.1479266 C167.289945,11.7097448 163.2064,9.93110841 158.869582,8.94219932 C157.785218,8.69465386 157.055945,8.30138114 157.237309,7.20047204 C157.430764,6.02256295 158.476309,6.03783568 159.4684,6.10847204" id="Fill-130"></path>
        </g>
    </g>
</svg>