<?xml version="1.0" encoding="UTF-8"?>
<svg width="160px" height="80px" viewBox="0 0 160 80" version="1.1" xmlns="http://www.w3.org/2000/svg" xmlns:xlink="http://www.w3.org/1999/xlink">
    <title>Group 45</title>
    <g id="Page-1" stroke="none" stroke-width="1" fill="none" fill-rule="evenodd">
        <g id="Group-45" transform="translate(-64.000000, -2.000000)">
            <polygon id="Fill-1" fill="#FA4674" points="60.702 0 -7.10542736e-15 84.657 5.167 84.657 65.869 0"></polygon>
            <polygon id="Fill-2" fill="#094EFF" points="66.0012 0 5.2992 84.657 10.4662 84.657 71.1682 0"></polygon>
            <polygon id="Fill-3" fill="#FA4674" points="71.0358 0 10.3338 84.657 15.5008 84.657 76.2028 0"></polygon>
            <polygon id="Fill-4" fill="#094EFF" points="76.335 0 15.633 84.657 20.8 84.657 81.502 0"></polygon>
            <polygon id="Fill-5" fill="#FA4674" points="81.3687 0 20.6667 84.657 25.8347 84.657 86.5357 0"></polygon>
            <polygon id="Fill-6" fill="#094EFF" points="86.6688 0 25.9668 84.657 31.1338 84.657 91.8358 0"></polygon>
            <polygon id="Fill-7" fill="#FA4674" points="91.7034 0 31.0014 84.657 36.1684 84.657 96.8704 0"></polygon>
            <polygon id="Fill-8" fill="#094EFF" points="97.0026 0 36.3006 84.657 41.4676 84.657 102.1696 0"></polygon>
            <polygon id="Fill-9" fill="#FA4674" points="102.0363 0 41.3343 84.657 46.5013 84.657 107.2033 0"></polygon>
            <polygon id="Fill-10" fill="#094EFF" points="107.3355 0 46.6335 84.657 51.8015 84.657 112.5025 0"></polygon>
            <polygon id="Fill-11" fill="#FA4674" points="112.3701 0 51.6691 84.657 56.8351 84.657 117.5371 0"></polygon>
            <polygon id="Fill-12" fill="#094EFF" points="117.6702 0 56.9682 84.657 62.1342 84.657 122.8362 0"></polygon>
            <polygon id="Fill-13" fill="#FA4674" points="122.7039 0 62.0019 84.657 67.1689 84.657 127.8709 0"></polygon>
            <polygon id="Fill-14" fill="#094EFF" points="128.0031 0 67.3011 84.657 72.4681 84.657 133.1701 0"></polygon>
            <polygon id="Fill-15" fill="#FA4674" points="133.0377 0 72.3357 84.657 77.5027 84.657 138.2047 0"></polygon>
            <polygon id="Fill-16" fill="#094EFF" points="138.3369 0 77.6349 84.657 82.8019 84.657 143.5039 0"></polygon>
            <polygon id="Fill-17" fill="#FA4674" points="143.3715 0 82.6695 84.657 87.8365 84.657 148.5375 0"></polygon>
            <polygon id="Fill-18" fill="#094EFF" points="148.6707 0 87.9687 84.657 93.1357 84.657 153.8377 0"></polygon>
            <polygon id="Fill-19" fill="#FA4674" points="153.7053 0 93.0033 84.657 98.1703 84.657 158.8723 0"></polygon>
            <polygon id="Fill-20" fill="#094EFF" points="159.0045 0 98.3025 84.657 103.4695 84.657 164.1715 0"></polygon>
            <polygon id="Fill-21" fill="#FA4674" points="164.0391 0 103.3371 84.657 108.5041 84.657 169.2051 0"></polygon>
            <polygon id="Fill-22" fill="#094EFF" points="169.3383 0 108.6363 84.657 113.8033 84.657 174.5043 0"></polygon>
            <polygon id="Fill-23" fill="#FA4674" points="174.6375 0 113.9355 84.657 119.1025 84.657 179.8045 0"></polygon>
            <polygon id="Fill-24" fill="#094EFF" points="179.9367 0 119.2347 84.657 124.4017 84.657 185.1037 0"></polygon>
            <polygon id="Fill-25" fill="#FA4674" points="184.9713 0 124.2693 84.657 129.4363 84.657 190.1383 0"></polygon>
            <polygon id="Fill-26" fill="#094EFF" points="190.2705 0 129.5685 84.657 134.7355 84.657 195.4375 0"></polygon>
            <polygon id="Fill-27" fill="#FA4674" points="195.3042 0 134.6032 84.657 139.7702 84.657 200.4712 0"></polygon>
            <polygon id="Fill-28" fill="#094EFF" points="200.6043 0 139.9023 84.657 145.0693 84.657 205.7713 0"></polygon>
            <polygon id="Fill-29" fill="#FA4674" points="205.6389 0 144.9369 84.657 150.1029 84.657 210.8049 0"></polygon>
            <polygon id="Fill-30" fill="#094EFF" points="210.9381 0 150.2361 84.657 155.4021 84.657 216.1041 0"></polygon>
            <polygon id="Fill-31" fill="#FA4674" points="215.9718 0 155.2698 84.657 160.4378 84.657 221.1388 0"></polygon>
            <polygon id="Fill-32" fill="#094EFF" points="221.271 0 160.57 84.657 165.737 84.657 226.438 0"></polygon>
            <polygon id="Fill-33" fill="#FA4674" points="226.3056 0 165.6036 84.657 170.7706 84.657 231.4726 0"></polygon>
            <polygon id="Fill-34" fill="#094EFF" points="231.6057 0 170.9027 84.657 176.0697 84.657 236.7717 0"></polygon>
            <polygon id="Fill-35" fill="#FA4674" points="236.6394 0 175.9374 84.657 181.1044 84.657 241.8064 0"></polygon>
            <polygon id="Fill-36" fill="#094EFF" points="241.9386 0 181.2366 84.657 186.4046 84.657 247.1056 0"></polygon>
            <polygon id="Fill-37" fill="#FA4674" points="246.9732 0 186.2712 84.657 191.4382 84.657 252.1402 0"></polygon>
            <polygon id="Fill-38" fill="#094EFF" points="252.2724 0 191.5704 84.657 196.7374 84.657 257.4394 0"></polygon>
            <polygon id="Fill-39" fill="#FA4674" points="257.307 0 196.605 84.657 201.772 84.657 262.474 0"></polygon>
            <polygon id="Fill-40" fill="#094EFF" points="262.6062 0 201.9042 84.657 207.0712 84.657 267.7732 0"></polygon>
            <polygon id="Fill-41" fill="#FA4674" points="267.6408 0 206.9388 84.657 212.1058 84.657 272.8078 0"></polygon>
            <polygon id="Fill-42" fill="#094EFF" points="272.94 0 212.238 84.657 217.405 84.657 278.107 0"></polygon>
            <polygon id="Fill-43" fill="#FA4674" points="277.9737 0 217.2717 84.657 222.4397 84.657 283.1407 0"></polygon>
            <polygon id="Fill-44" fill="#094EFF" points="283.2729 0 222.5719 84.657 227.7389 84.657 288.4409 0"></polygon>
        </g>
    </g>
</svg>