<?xml version="1.0" encoding="UTF-8"?>
<svg width="518px" height="145px" viewBox="0 0 518 145" version="1.1" xmlns="http://www.w3.org/2000/svg" xmlns:xlink="http://www.w3.org/1999/xlink">
    <title>Group 41</title>
    <defs>
        <polygon id="path-1" points="0 0 282.227502 0 282.227502 78.5882295 0 78.5882295"></polygon>
        <polygon id="path-3" points="0 0 141.0354 0 141.0354 117.503 0 117.503"></polygon>
        <polygon id="path-5" points="0 144.47 517.87 144.47 517.87 0 0 0"></polygon>
    </defs>
    <g id="Page-1" stroke="none" stroke-width="1" fill="none" fill-rule="evenodd">
        <g id="Group-41">
            <g id="Group-3" transform="translate(0.000000, 44.852471)">
                <mask id="mask-2" fill="white">
                    <use xlink:href="#path-1"></use>
                </mask>
                <g id="Clip-2"></g>
                <path d="M239.8535,6.87822916 C240.3435,6.56622916 240.3015,6.13922916 240.1385,5.81822916 L236.6565,0.343229163 C236.3645,-0.118770837 235.9475,-0.025770837 235.6595,0.114229163 C230.4685,3.31522916 217.6365,14.3852292 217.6385,33.5192292 L217.6385,56.0992292 C217.6755,56.4552292 217.8695,56.8382292 218.4245,56.8502292 L224.8125,56.8502292 C225.3585,56.8382292 225.5565,56.4692292 225.5975,56.1162292 L225.5975,33.5192292 C225.5975,17.0412292 237.2255,8.55022916 239.8535,6.87822916 L239.8535,6.87822916 Z M49.1495003,33.5192292 C49.1495003,34.1842292 49.0625,54.0132292 49.0625,54.0132292 C49.0665,60.7862292 46.3075,66.9532292 41.8665,71.3902292 C37.4315,75.8302292 31.2625,78.5892292 24.4895,78.5882295 C17.9525,78.5892292 11.9855,76.0162292 7.5915,71.8472292 C7.4065,71.5862292 7.3235,71.2352292 7.6225,70.8802292 L12.3045,66.1952292 C12.6605,65.9412292 13.0105,66.0622292 13.2615,66.2582292 C16.2285,68.9772292 20.1475,70.6282292 24.4895,70.6292292 C29.0905,70.6282292 33.2205,68.7752292 36.2385,65.7632292 C39.2505,62.7412292 41.1035,58.6132292 41.1065,54.0132292 L41.1065,51.7022292 C36.7485,55.6672292 30.9285,58.0962292 24.5755,58.0942292 C17.8025,58.0962292 11.6335,55.3352292 7.1975,50.8962292 C2.7595,46.4602292 -0.0005,40.2922292 -0.0005,33.5192292 C-0.0005,26.7442292 2.7595,20.5762292 7.1975,16.1412292 C11.6335,11.7012292 17.8025,8.94122916 24.5755,8.94222889 C31.3485,8.94122916 37.5185,11.6982292 41.9515,16.1412292 C46.3945,20.5762292 49.1505,26.7442292 49.1495003,33.5192292 L49.1495003,33.5192292 Z M41.1915,33.5192292 C41.1905,28.9172292 39.3395,24.7872292 36.3255,21.7672292 C33.3045,18.7562292 29.1765,16.9022292 24.5755,16.9012292 C19.9745,16.9022292 15.8455,18.7542292 12.8265,21.7672292 C9.8125,24.7872292 7.9625,28.9172292 7.9595,33.5192292 C7.9625,38.1182292 9.8125,42.2492292 12.8265,45.2682292 C15.8465,48.2802292 19.9755,50.1342292 24.5755,50.1362292 C29.1765,50.1342292 33.3045,48.2802292 36.3255,45.2682292 C38.9635,42.6242292 40.7125,39.1262292 41.1065,35.2092292 L41.1845,33.5192292 L41.1915,33.5192292 Z M150.0845,16.1412292 C145.6505,11.6982292 139.4825,8.94122916 132.7075,8.94222889 C125.9355,8.94122916 119.7665,11.7012292 115.3305,16.1412292 C110.8915,20.5762292 108.1325,26.7442292 108.1325,33.5192292 C108.1325,40.2922292 110.8915,46.4602292 115.3305,50.8962292 C119.7665,55.3352292 125.9345,58.0962292 132.7075,58.0942292 C139.0605,58.0962292 144.8805,55.6672292 149.2385,51.7022292 L149.2385,54.0132292 C149.2365,58.6132292 147.3855,62.7412292 144.3715,65.7632292 C141.3525,68.7752292 137.2215,70.6282292 132.6235,70.6292292 C128.2795,70.6282292 124.3625,68.9772292 121.3945,66.2582292 C121.1425,66.0622292 120.7915,65.9412292 120.4375,66.1952292 L115.7565,70.8802292 C115.4565,71.2352292 115.5405,71.5862292 115.7245,71.8472292 C120.1185,76.0162292 126.0845,78.5892292 132.6235,78.5882295 C139.3945,78.5892292 145.5635,75.8302292 149.9995,71.3902292 C154.4395,66.9532292 157.1985,60.7862292 157.1955,54.0132292 C157.1955,54.0132292 157.2825,34.1842292 157.2825,33.5192292 C157.2835,26.7442292 154.5265,20.5762292 150.0845,16.1412292 L150.0845,16.1412292 Z M149.3175,33.5192292 L149.2385,35.2092292 C148.8445,39.1262292 147.0975,42.6242292 144.4575,45.2682292 C141.4365,48.2802292 137.3085,50.1342292 132.7075,50.1362292 C128.1075,50.1342292 123.9785,48.2802292 120.9585,45.2682292 C117.9445,42.2492292 116.0935,38.1182292 116.0925,33.5192292 C116.0935,28.9172292 117.9445,24.7872292 120.9585,21.7672292 C123.9765,18.7542292 128.1065,16.9022292 132.7075,16.9012292 C137.3085,16.9022292 141.4365,18.7562292 144.4575,21.7672292 C147.4715,24.7872292 149.3225,28.9172292 149.3245,33.5192292 L149.3175,33.5192292 Z M211.5475,33.5192292 C211.5475,40.2902292 208.7905,46.4602292 204.3475,50.8962292 C199.9155,55.3352292 193.7465,58.0962292 186.9725,58.0942302 C180.1985,58.0962292 174.0295,55.3352292 169.5955,50.8962292 C165.1545,46.4602292 162.3955,40.2902292 162.397499,33.5192292 C162.3955,26.7442292 165.1545,20.5762292 169.5955,16.1412292 C174.0295,11.6982292 180.1985,8.94122916 186.9725,8.94222889 C193.7445,8.94122916 199.9155,11.6982292 204.3475,16.1412292 C208.7905,20.5762292 211.5475,26.7442292 211.5475,33.5192292 L211.5475,33.5192292 Z M203.5895,33.5192292 C203.5875,28.9172292 201.7345,24.7872292 198.7215,21.7672292 C195.7015,18.7562292 191.5735,16.9022292 186.9725,16.9012292 C182.3715,16.9022292 178.2415,18.7562292 175.2225,21.7672292 C172.2075,24.7872292 170.3585,28.9172292 170.3575,33.5192292 C170.3585,38.1182292 172.2075,42.2492292 175.2225,45.2682292 C178.2415,48.2802292 182.3715,50.1342292 186.9725,50.1362292 C191.5705,50.1342292 195.7015,48.2802292 198.7215,45.2682292 C201.7365,42.2492292 203.5875,38.1182292 203.5895,33.5192292 L203.5895,33.5192292 Z M95.9395,16.1412292 C91.5055,11.6982292 85.3365,8.94122916 78.5615,8.94222889 C71.7895,8.94122916 65.6215,11.6982292 61.1855,16.1412292 C56.7455,20.5762292 53.9875,26.7442292 53.9884997,33.5192292 C53.9875,40.2902292 56.7455,46.4602292 61.1855,50.8962292 C65.6215,55.3352292 71.7895,58.0962292 78.5615,58.0942302 C85.3365,58.0962292 91.5055,55.3352292 95.9395,50.8962292 C100.3795,46.4602292 103.1385,40.2922292 103.136501,33.5192292 C103.1385,26.7442292 100.3795,20.5762292 95.9395,16.1412292 L95.9395,16.1412292 Z M90.3115,45.2682292 C87.2925,48.2802292 83.1625,50.1342292 78.5615,50.1362292 C73.9615,50.1342292 69.8325,48.2802292 66.8135,45.2682292 C63.8005,42.2492292 61.9505,38.1182292 61.9475,33.5192292 C61.9505,28.9172292 63.8005,24.7872292 66.8135,21.7672292 C69.8325,18.7562292 73.9615,16.9022292 78.5615,16.9012292 C83.1625,16.9022292 87.2925,18.7562292 90.3115,21.7672292 C93.3275,24.7872292 95.1785,28.9172292 95.1795,33.5192292 C95.1785,38.1182292 93.3275,42.2482292 90.3115,45.2682292 L90.3115,45.2682292 Z M282.227502,33.5192292 C282.2305,40.2902292 279.4725,46.4602292 275.0315,50.8962292 C270.5975,55.3352292 264.4285,58.0962292 257.6535,58.0942302 C250.8785,58.0962292 244.7115,55.3352292 240.2735,50.8962292 C235.8355,46.4602292 233.0785,40.2922292 233.0785,33.5192292 C233.0785,26.7442292 235.8355,20.5762292 240.2735,16.1412292 C244.7115,11.6982292 250.8785,8.94122916 257.6535,8.94222889 C264.4265,8.94122916 270.5955,11.6982292 275.0315,16.1412292 C279.4725,20.5762292 282.2305,26.7442292 282.227502,33.5192292 L282.227502,33.5192292 Z M274.2705,33.5192292 C274.2695,28.9172292 272.4175,24.7872292 269.4045,21.7672292 C266.3835,18.7562292 262.2545,16.9022292 257.6535,16.9012292 C253.0545,16.9022292 248.9235,18.7562292 245.9035,21.7672292 C242.8915,24.7872292 241.0385,28.9172292 241.0375,33.5192292 C241.0385,38.1182292 242.8915,42.2492292 245.9035,45.2682292 C248.9235,48.2802292 253.0545,50.1342292 257.6535,50.1362292 C262.2545,50.1342292 266.3835,48.2802292 269.4045,45.2682292 C272.4175,42.2492292 274.2695,38.1182292 274.2705,33.5192292 L274.2705,33.5192292 Z" id="Fill-1" fill="#000000" mask="url(#mask-2)"></path>
            </g>
            <g id="Group-6" transform="translate(376.834600, 0.000200)">
                <mask id="mask-4" fill="white">
                    <use xlink:href="#path-3"></use>
                </mask>
                <g id="Clip-5"></g>
                <polygon id="Fill-4" fill="#0074FF" mask="url(#mask-4)" points="70.518 0 0 43.363 0 117.503 141.014 117.503 141.014 43.363 141.036 43.363"></polygon>
            </g>
            <path d="M385.0025,74.9875 L389.8685,74.9875 C389.9935,76.2615 390.5675,77.3095 392.6875,77.3095 C394.1595,77.3095 394.9845,76.5855 394.9845,75.5375 C394.9845,74.4395 394.3105,74.1395 392.1645,73.8145 C387.1245,73.2165 385.4275,71.7185 385.4275,68.1255 C385.4275,64.9075 388.0715,62.5615 392.3375,62.5615 C396.6305,62.5615 399.0505,64.3575 399.3755,68.1255 L394.6335,68.1255 C394.4595,66.8525 393.7365,66.2045 392.3375,66.2045 C390.9655,66.2045 390.2675,66.8285 390.2675,67.7265 C390.2675,68.7235 390.8165,69.1735 393.0365,69.4725 C397.5535,69.9715 399.8735,71.1455 399.8735,75.0135 C399.8735,78.2815 397.2795,80.9525 392.6875,80.9525 C387.6975,80.9525 385.1515,78.8555 385.0025,74.9875" id="Fill-7" fill="#FFFFFF"></path>
            <polygon id="Fill-9" fill="#FFFFFF" points="405.2085 66.7532 400.5935 66.7532 400.5935 62.8112 414.9655 62.8112 414.9655 66.7532 410.3485 66.7532 410.3485 80.6522 405.2085 80.6522"></polygon>
            <path d="M420.899,73.8147 L424.816,73.8147 L422.87,66.9537 L420.899,73.8147 Z M419.9,62.8107 L426.513,62.8107 L432.177,80.6527 L426.762,80.6527 L425.815,77.3347 L419.9,77.3347 L418.953,80.6527 L414.187,80.6527 L419.9,62.8107 Z" id="Fill-11" fill="#FFFFFF"></path>
            <polygon id="Fill-13" fill="#FFFFFF" points="436.3897 73.0159 430.5757 62.8109 436.1397 62.8109 439.1587 68.8249 442.1777 62.8109 447.0677 62.8109 441.5297 73.0159 441.5297 80.6529 436.3897 80.6529"></polygon>
            <path d="M385.2271,99.509 L385.2271,99.309 C385.2271,93.82 389.1201,90.201 394.3351,90.201 C398.9771,90.201 402.1951,92.348 402.6181,97.063 L397.3531,97.063 C397.1551,95.241 396.1561,94.244 394.3591,94.244 C392.0641,94.244 390.6161,96.039 390.6161,99.284 L390.6161,99.485 C390.6161,102.703 391.9891,104.525 394.4351,104.525 C396.2301,104.525 397.5041,103.575 397.7531,101.605 L402.8421,101.605 C402.4931,106.221 399.1501,108.616 394.5351,108.616 C388.2961,108.616 385.2271,104.974 385.2271,99.509" id="Fill-15" fill="#FFFFFF"></path>
            <path d="M411.8189,98.6106 C413.5409,98.6106 414.3899,97.8876 414.3899,96.4396 L414.3899,96.3396 C414.3899,94.8916 413.4909,94.3186 411.8439,94.3186 L410.1729,94.3186 L410.1729,98.6106 L411.8189,98.6106 Z M405.0819,90.4766 L412.0689,90.4766 C416.7349,90.4766 419.3299,92.3726 419.3299,96.1396 L419.3299,96.2396 C419.3299,98.7846 417.9819,100.2076 416.1109,100.9306 L420.3779,108.3166 L414.9879,108.3166 L411.3699,101.9286 L410.1729,101.9286 L410.1729,108.3166 L405.0819,108.3166 L405.0819,90.4766 Z" id="Fill-17" fill="#FFFFFF"></path>
            <polygon id="Fill-19" fill="#FFFFFF" points="422.4678 90.4768 434.7938 90.4768 434.7938 94.4178 427.5588 94.4178 427.5588 97.4878 433.3218 97.4878 433.3218 101.1298 427.5588 101.1298 427.5588 104.3728 435.1948 104.3728 435.1948 108.3168 422.4678 108.3168"></polygon>
            <path d="M443.0493,101.4797 L446.9663,101.4797 L445.0203,94.6187 L443.0493,101.4797 Z M442.0503,90.4767 L448.6633,90.4767 L454.3273,108.3167 L448.9123,108.3167 L447.9653,104.9987 L442.0503,104.9987 L441.1033,108.3167 L436.3373,108.3167 L442.0503,90.4767 Z" id="Fill-21" fill="#FFFFFF"></path>
            <polygon id="Fill-23" fill="#FFFFFF" points="458.1646 94.4182 453.5486 94.4182 453.5486 90.4772 467.9216 90.4772 467.9216 94.4182 463.3046 94.4182 463.3046 108.3162 458.1646 108.3162"></polygon>
            <mask id="mask-6" fill="white">
                <use xlink:href="#path-5"></use>
            </mask>
            <g id="Clip-26"></g>
            <polygon id="Fill-25" fill="#FFFFFF" mask="url(#mask-6)" points="470.261 108.317 475.426 108.317 475.426 90.477 470.261 90.477"></polygon>
            <polygon id="Fill-27" fill="#FFFFFF" mask="url(#mask-6)" points="477.5196 90.4768 483.0336 90.4768 486.6516 103.0008 490.2946 90.4768 495.0856 90.4768 489.2456 108.3168 483.4316 108.3168"></polygon>
            <polygon id="Fill-28" fill="#FFFFFF" mask="url(#mask-6)" points="497.0992 90.4768 509.4252 90.4768 509.4252 94.4178 502.1902 94.4178 502.1902 97.4878 507.9532 97.4878 507.9532 101.1298 502.1902 101.1298 502.1902 104.3728 509.8252 104.3728 509.8252 108.3168 497.0992 108.3168"></polygon>
            <path d="M384.522,134.1086 C384.522,133.7896 384.683,133.6296 385.001,133.6296 L385.847,133.6296 C386.177,133.6296 386.341,133.7896 386.341,134.1086 L386.341,136.0886 C386.341,136.3536 386.469,136.4876 386.726,136.4876 L389.359,136.4876 C389.689,136.4876 389.854,136.6466 389.854,136.9656 L389.854,137.7806 C389.854,138.1106 389.694,138.2746 389.376,138.2746 L386.74,138.2746 C386.475,138.2746 386.341,138.4036 386.341,138.6586 L386.341,141.7876 C386.341,142.0536 386.469,142.1866 386.726,142.1866 L389.999,142.1866 C390.328,142.1866 390.493,142.3466 390.493,142.6656 L390.493,143.4636 C390.493,143.7936 390.334,143.9586 390.013,143.9586 L380.993,143.9586 C380.664,143.9586 380.499,143.7986 380.499,143.4796 L380.499,142.6816 C380.499,142.3516 380.66,142.1866 380.978,142.1866 L384.123,142.1866 C384.39,142.1866 384.522,142.0596 384.522,141.8026 L384.522,138.6736 C384.522,138.4086 384.394,138.2746 384.139,138.2746 L381.567,138.2746 C381.238,138.2746 381.073,138.1156 381.073,137.7966 L381.073,136.9816 C381.073,136.6526 381.234,136.4876 381.553,136.4876 L384.123,136.4876 C384.39,136.4876 384.522,136.3596 384.522,136.1036 L384.522,134.1086 Z M380.642,130.1186 C380.748,129.7666 380.956,129.6286 381.266,129.7026 L382.047,129.8936 C382.452,129.9896 382.607,130.1976 382.51,130.5166 L382.351,130.9956 C382.256,131.2616 382.334,131.3946 382.589,131.3946 L389.903,131.3946 C390.233,131.3946 390.397,131.5546 390.397,131.8736 L390.397,132.6556 C390.397,132.9866 390.236,133.1506 389.918,133.1506 L381.888,133.1506 C381.633,133.1506 381.425,133.3096 381.266,133.6296 C380.733,134.7056 380.308,135.5036 379.988,136.0246 C379.902,136.1626 379.862,136.3596 379.862,136.6146 L379.862,143.9746 C379.862,144.3036 379.701,144.4696 379.382,144.4696 L378.503,144.4696 C378.174,144.4696 378.009,144.3096 378.009,143.9906 L378.009,139.2336 C378.009,138.9776 377.903,138.9516 377.689,139.1536 C377.446,139.4206 377.178,139.4036 376.891,139.1046 L376.492,138.6736 C376.172,138.3336 376.146,138.0146 376.413,137.7166 C377.475,136.4936 378.392,135.0986 379.159,133.5346 C379.287,133.2786 379.221,133.1506 378.967,133.1506 L376.97,133.1506 C376.64,133.1506 376.476,132.9906 376.476,132.6716 L376.476,131.8896 C376.476,131.5596 376.637,131.3946 376.955,131.3946 L379.781,131.3946 C380.036,131.3946 380.228,131.2356 380.356,130.9166 L380.642,130.1186 Z" id="Fill-29" fill="#18130D" mask="url(#mask-6)"></path>
            <path d="M399.9595,141.1164 C399.9705,140.8514 399.8165,140.8194 399.4965,141.0214 C398.9305,141.4044 398.3085,141.7504 397.6275,142.0594 C397.3735,142.1864 397.4045,142.2984 397.7245,142.3944 C398.4475,142.5644 399.0005,142.6064 399.3845,142.5214 C399.7475,142.2454 399.9375,141.7774 399.9595,141.1164 L399.9595,141.1164 Z M394.8815,133.7094 C394.8815,133.3904 395.0425,133.2304 395.3615,133.2304 L403.9665,133.2304 C404.2975,133.2304 404.4615,133.3904 404.4615,133.7094 L404.4615,134.4594 C404.4615,134.7904 404.3015,134.9544 403.9825,134.9544 L400.6145,134.9544 C400.3585,134.9544 400.1775,134.9974 400.0705,135.0834 C399.9335,135.1684 400.0015,135.3474 400.2775,135.6254 C400.5565,135.9444 400.8155,136.3274 401.0615,136.7744 C401.1675,137.0094 401.3965,137.0514 401.7475,136.9024 C402.5765,136.5404 403.3435,136.1194 404.0465,135.6404 C404.3655,135.4064 404.6745,135.4384 404.9715,135.7374 L405.4025,136.2164 C405.7655,136.6094 405.7695,136.9134 405.4195,137.1254 C404.5575,137.6784 403.6165,138.1744 402.5935,138.6104 C402.3385,138.7274 402.3755,138.9254 402.7055,139.2014 C403.8765,140.1164 405.1535,140.9304 406.5375,141.6434 C406.8785,141.8254 406.9515,142.0634 406.7615,142.3624 L406.3145,143.0014 C406.0895,143.3304 405.8185,143.4104 405.4985,143.2404 C404.2645,142.5484 403.2065,141.8414 402.3225,141.1164 C402.0015,140.8514 401.8265,140.8784 401.7955,141.1974 C401.7525,142.3244 401.4605,143.1774 400.9185,143.7514 C400.5125,144.1014 400.0875,144.3044 399.6415,144.3574 C399.0555,144.4424 398.3465,144.3844 397.5175,144.1824 C397.1975,144.0964 397.0125,143.8954 396.9575,143.5754 L396.8295,142.8734 C396.7785,142.5964 396.5915,142.5214 396.2715,142.6494 C395.4835,142.9904 394.6745,143.2714 393.8455,143.4954 C393.5255,143.5914 393.2805,143.4794 393.1095,143.1604 L392.7915,142.5214 C392.5905,142.1174 392.6575,141.8724 392.9985,141.7874 C395.2775,141.2024 397.4315,140.2764 399.4655,139.0104 C399.6995,138.8404 399.7895,138.6374 399.7355,138.4034 C399.6715,138.2124 399.4655,138.2174 399.1135,138.4194 C397.3785,139.4204 395.7125,140.1274 394.1165,140.5424 C393.7215,140.6374 393.4465,140.5204 393.2855,140.1914 C393.1575,139.9674 393.0475,139.7444 392.9505,139.5204 C392.7805,139.2014 392.8645,138.9994 393.2055,138.9144 C394.8785,138.4884 396.5955,137.7914 398.3635,136.8224 C398.6085,136.6414 398.6705,136.4934 398.5535,136.3764 C398.4365,136.2594 398.2205,136.2794 397.9005,136.4384 C396.6645,137.0134 395.4785,137.4674 394.3395,137.7964 C393.9775,137.8924 393.6905,137.7634 393.4785,137.4134 L393.1095,136.7744 C392.9305,136.4664 392.9985,136.2744 393.3185,136.2004 C394.3735,135.9754 395.5315,135.6314 396.7985,135.1624 C397.1185,135.0244 397.1115,134.9544 396.7815,134.9544 L395.3775,134.9544 C395.0465,134.9544 394.8815,134.7954 394.8815,134.4754 L394.8815,133.7094 Z M398.5705,130.1014 C398.5705,129.7614 398.7255,129.5914 399.0335,129.5914 L400.1675,129.5914 C400.4975,129.5914 400.6625,129.7504 400.6625,130.0694 L400.6625,130.2934 C400.6625,130.5584 400.7905,130.6924 401.0445,130.6924 L406.2335,130.6924 C406.5635,130.6924 406.7285,130.8514 406.7285,131.1714 L406.7285,133.2944 C406.7285,133.6244 406.5685,133.7894 406.2485,133.7894 L405.4025,133.7894 C405.0735,133.7894 404.9085,133.6294 404.9085,133.3094 L404.9085,132.7834 C404.9085,132.5174 404.7805,132.3854 404.5245,132.3854 L394.8035,132.3854 C394.5375,132.3854 394.4025,132.5124 394.4025,132.7674 L394.4025,133.3584 C394.4025,133.6874 394.2455,133.8524 393.9245,133.8524 L393.0795,133.8524 C392.7475,133.8524 392.5835,133.6934 392.5835,133.3744 L392.5835,131.1864 C392.5835,130.8574 392.7445,130.6924 393.0625,130.6924 L398.1705,130.6924 C398.4365,130.6924 398.5705,130.5644 398.5705,130.3084 L398.5705,130.1014 Z" id="Fill-30" fill="#18130D" mask="url(#mask-6)"></path>
            <path d="M433.2032,140.8459 C433.5652,140.6639 433.8472,140.7349 434.0482,141.0539 C434.3252,141.4679 434.6232,142.0539 434.9422,142.8089 C435.0812,143.1819 434.9742,143.4529 434.6232,143.6229 C434.2942,143.7729 433.9572,143.9379 433.6172,144.1179 C433.2982,144.2679 433.0802,144.1829 432.9632,143.8639 C432.7382,143.2029 432.4742,142.5709 432.1652,141.9629 C431.9842,141.6439 432.0572,141.4049 432.3882,141.2439 L433.2032,140.8459 Z M432.6762,137.5089 C432.6762,137.2429 432.5482,137.1099 432.2912,137.1099 L429.0842,137.1099 C428.8172,137.1099 428.6852,137.2389 428.6852,137.4929 L428.6852,138.1959 C428.6852,138.4619 428.8122,138.5939 429.0662,138.5939 L432.2772,138.5939 C432.5422,138.5939 432.6762,138.4669 432.6762,138.2119 L432.6762,137.5089 Z M429.3552,141.0369 C429.7272,140.8669 429.9922,140.9149 430.1532,141.1809 C430.4832,141.7449 430.7702,142.3299 431.0152,142.9369 C431.1312,143.2559 431.0322,143.4899 430.7122,143.6389 L429.7692,144.0549 C429.4512,144.2029 429.2382,144.1179 429.1322,143.7989 C428.9822,143.2449 428.7532,142.6559 428.4442,142.0279 C428.2862,141.7079 428.3652,141.4739 428.6852,141.3249 L429.3552,141.0369 Z M426.9282,135.9289 C426.9282,135.5879 427.0782,135.4179 427.3752,135.4179 L433.9682,135.4179 C434.2972,135.4179 434.4622,135.5769 434.4622,135.8969 L434.4622,139.8239 C434.4622,140.1539 434.3052,140.3189 433.9842,140.3189 L427.4222,140.3189 C427.0932,140.3189 426.9282,140.1589 426.9282,139.8399 L426.9282,135.9289 Z M426.9282,130.5649 C426.9282,130.2239 427.0782,130.0539 427.3752,130.0539 L434.2882,130.0539 C434.6072,130.0539 434.7662,130.2129 434.7662,130.5329 C434.7992,132.1179 434.6652,133.4069 434.3672,134.3969 C434.1212,134.8319 433.7302,135.0829 433.1862,135.1459 C432.5262,135.2209 431.9782,135.2099 431.5412,135.1139 C431.1602,135.0609 430.9262,134.8649 430.8402,134.5239 L430.6812,133.7739 C430.6052,133.4109 430.7502,133.2739 431.1112,133.3589 C431.7392,133.4969 432.2222,133.5289 432.5642,133.4529 C432.6702,133.3909 432.7562,133.1929 432.8182,132.8639 C432.8622,132.6189 432.8832,132.3739 432.8832,132.1279 C432.8832,131.8729 432.7562,131.7459 432.5002,131.7459 L430.8712,131.7459 C430.6152,131.7459 430.4662,131.9059 430.4242,132.2249 C430.3602,132.6399 430.2602,133.0129 430.1202,133.3419 C429.7072,134.1299 429.0372,134.6889 428.1112,135.0189 C427.7042,135.1779 427.3972,135.0929 427.1842,134.7639 L426.8642,134.2529 C426.6102,133.8799 426.6502,133.6289 426.9922,133.5019 C427.8002,133.2149 428.3172,132.7789 428.5412,132.1929 C428.6162,131.8949 428.5362,131.7459 428.3012,131.7459 L427.4222,131.7459 C427.0932,131.7459 426.9282,131.5859 426.9282,131.2679 L426.9282,130.5649 Z M424.8862,141.3719 L425.5882,141.0539 C425.9072,140.9149 426.1672,141.0159 426.3682,141.3569 C426.6792,141.8779 426.9282,142.4049 427.1192,142.9369 C427.2362,143.2559 427.1302,143.4899 426.8002,143.6389 L425.8742,144.0549 C425.5562,144.2029 425.3432,144.1079 425.2372,143.7669 C425.0982,143.2779 424.9002,142.7449 424.6442,142.1709 C424.4652,141.7869 424.5452,141.5219 424.8862,141.3719 L424.8862,141.3719 Z M424.4872,136.0729 C424.4872,135.7959 424.3622,135.6579 424.1192,135.6579 L423.0812,135.6579 C422.8132,135.6579 422.6822,135.7839 422.6822,136.0399 L422.6822,137.6999 C422.6822,137.9669 422.8102,138.0989 423.0662,138.0989 L424.0872,138.0989 C424.3512,138.0989 424.4872,137.9719 424.4872,137.7169 L424.4872,136.0729 Z M424.4872,132.0169 C424.4872,131.7509 424.3582,131.6179 424.1022,131.6179 L423.0812,131.6179 C422.8132,131.6179 422.6822,131.7459 422.6822,132.0009 L422.6822,133.6139 C422.6822,133.8799 422.8102,134.0129 423.0662,134.0129 L424.0872,134.0129 C424.3512,134.0129 424.4872,133.8849 424.4872,133.6289 L424.4872,132.0169 Z M420.9912,130.4999 C420.9912,130.1599 421.1392,129.9899 421.4372,129.9899 L425.7312,129.9899 C426.0602,129.9899 426.2252,130.1489 426.2252,130.4679 L426.2252,139.2489 C426.2252,139.5789 426.0662,139.7439 425.7462,139.7439 L423.0812,139.7439 C422.8132,139.7439 422.6822,139.8339 422.6822,140.0159 C422.6822,140.2179 422.5212,140.3189 422.2022,140.3189 L421.4852,140.3189 C421.1552,140.3189 420.9912,140.1589 420.9912,139.8399 L420.9912,130.4999 Z M421.2922,141.3409 C421.3902,141.0109 421.5912,140.8989 421.8982,141.0049 C422.1552,141.0799 422.4112,141.1709 422.6652,141.2769 C423.0592,141.4149 423.2202,141.6499 423.1452,141.9789 C422.9742,142.6389 422.7662,143.2409 422.5212,143.7829 C422.3412,144.1559 422.0812,144.2449 421.7412,144.0549 L421.0212,143.6709 C420.6702,143.4799 420.5532,143.2409 420.6702,142.9519 C420.9352,142.3889 421.1442,141.8519 421.2922,141.3409 L421.2922,141.3409 Z" id="Fill-31" fill="#18130D" mask="url(#mask-6)"></path>
            <path d="M445.0786,129.8137 C445.4516,129.6867 445.7116,129.7827 445.8616,130.1017 L446.0376,130.4847 C446.1436,130.7407 446.3256,130.8677 446.5796,130.8677 L446.9156,130.8677 C447.1706,130.8677 447.3936,130.7087 447.5856,130.3887 L447.6816,130.2297 C447.8626,129.8567 448.1236,129.7127 448.4646,129.7977 L449.2156,130.0217 C449.5666,130.1187 449.6726,130.2777 449.5336,130.5007 C449.3946,130.7457 449.4536,130.8677 449.7096,130.8677 L450.7466,130.8677 C451.0766,130.8677 451.2416,131.0277 451.2416,131.3467 L451.2416,131.8897 C451.2416,132.2187 451.0816,132.3847 450.7636,132.3847 L448.0966,132.3847 C447.8316,132.3847 447.6976,132.4597 447.6976,132.6087 C447.6976,132.7787 447.8246,132.8637 448.0796,132.8637 L450.2036,132.8637 C450.5336,132.8637 450.6976,133.0227 450.6976,133.3417 L450.6976,133.8217 C450.6976,134.1517 450.5406,134.3157 450.2206,134.3157 L448.0966,134.3157 C447.8316,134.3157 447.6976,134.3907 447.6976,134.5407 C447.6976,134.6997 447.8246,134.7787 448.0796,134.7787 L451.0816,134.7787 C451.4116,134.7787 451.5766,134.9387 451.5766,135.2577 L451.5766,135.8007 C451.5766,136.1307 451.4166,136.2947 451.0966,136.2947 L447.4576,136.2947 C447.2126,136.2947 447.2346,136.3437 447.5216,136.4387 L448.4956,136.6307 C448.8156,136.7267 448.9056,136.9337 448.7686,137.2537 L448.6406,137.5737 C448.5016,137.9137 448.3036,138.0457 448.0496,137.9717 C447.7726,137.9187 447.6336,138.0197 447.6336,138.2747 L447.6336,139.0747 C447.6336,139.3297 447.7036,139.5527 447.8426,139.7447 C447.9686,139.9047 448.2136,139.8237 448.5746,139.5047 C448.8946,139.1747 449.1716,138.8447 449.4056,138.5147 C449.6286,138.1857 449.8996,138.1047 450.2206,138.2747 L450.6826,138.4997 C451.0456,138.6907 451.1236,138.9607 450.9226,139.3127 C450.6136,139.8027 450.2256,140.2977 449.7566,140.7967 C449.4806,141.0957 449.5116,141.3567 449.8516,141.5797 C450.2786,141.8347 450.7046,142.0477 451.1296,142.2187 C451.5236,142.3567 451.6416,142.5907 451.4806,142.9207 L451.2246,143.4477 C451.0456,143.8637 450.7946,144.0167 450.4746,143.9107 C449.6026,143.5597 448.7936,143.0807 448.0496,142.4737 C447.7726,142.1977 447.6336,142.1807 447.6336,142.4257 C447.7066,142.9057 447.5896,143.3887 447.2826,143.8787 C446.8996,144.2837 446.4366,144.4597 445.8946,144.4057 L445.0966,144.3897 C444.7456,144.3577 444.5366,144.1927 444.4726,143.8957 L444.3466,143.2557 C444.2806,142.9167 444.4026,142.7827 444.7126,142.8577 C445.0966,142.9627 445.4576,142.9687 445.7976,142.8737 C445.8726,142.8087 445.9316,142.7027 445.9736,142.5537 L445.9736,139.6167 C445.9736,139.3507 445.8456,139.2177 445.5906,139.2177 L443.5156,139.2177 C443.1856,139.2177 443.0206,139.0577 443.0206,138.7387 L443.0206,138.2117 C443.0206,137.8807 443.1786,137.7167 443.4986,137.7167 L446.0996,137.7167 C446.3456,137.7167 446.3256,137.6737 446.0376,137.5887 C445.6016,137.5027 445.1646,137.4347 444.7266,137.3817 C444.3666,137.3277 444.2326,137.1417 444.3286,136.8227 C444.4246,136.4707 444.3466,136.2947 444.0896,136.2947 L442.3806,136.2947 C442.0506,136.2947 441.8866,136.1357 441.8866,135.8167 L441.8866,135.2737 C441.8866,134.9447 442.0476,134.7787 442.3656,134.7787 L445.3676,134.7787 C445.6336,134.7787 445.7666,134.7057 445.7666,134.5557 C445.7666,134.3967 445.6386,134.3157 445.3826,134.3157 L443.3876,134.3157 C443.0576,134.3157 442.8926,134.1567 442.8926,133.8367 L442.8926,133.3587 C442.8926,133.0287 443.0526,132.8637 443.3726,132.8637 L445.3676,132.8637 C445.6336,132.8637 445.7666,132.7897 445.7666,132.6397 C445.7666,132.4697 445.6386,132.3847 445.3826,132.3847 L442.7486,132.3847 C442.4186,132.3847 442.2546,132.2247 442.2546,131.9057 L442.2546,131.3627 C442.2546,131.0337 442.4136,130.8677 442.7316,130.8677 L443.7056,130.8677 C443.9616,130.8677 444.0896,130.8457 444.0896,130.8037 L443.9476,130.4847 C443.8496,130.3147 443.9616,130.1757 444.2806,130.0697 L445.0786,129.8137 Z M441.4396,140.1427 C441.4396,139.8027 441.5896,139.6317 441.8866,139.6317 L444.8406,139.6317 C445.1696,139.6317 445.3346,139.7927 445.3346,140.1107 C445.3876,140.5467 445.3406,140.8777 445.1916,141.1007 C444.4776,142.6127 443.4296,143.5757 442.0476,143.9907 C441.7046,144.0857 441.4616,143.9747 441.3116,143.6557 L441.0886,143.2097 C440.9076,142.8577 440.9936,142.6337 441.3446,142.5387 C441.9306,142.4107 442.5196,142.0537 443.1166,141.4677 C443.3176,141.2127 443.2916,141.0847 443.0356,141.0847 L441.9336,141.0847 C441.6046,141.0847 441.4396,140.9247 441.4396,140.6057 L441.4396,140.1427 Z M438.6296,130.1657 C438.6296,129.8257 438.7786,129.6547 439.0766,129.6547 L439.8276,129.6547 C440.1566,129.6547 440.3236,129.8137 440.3236,130.1327 L440.3236,131.8737 C440.3236,132.1397 440.4496,132.2727 440.7036,132.2727 L441.3286,132.2727 C441.6576,132.2727 441.8246,132.4327 441.8246,132.7517 L441.8246,133.4217 C441.8246,133.7517 441.6626,133.9177 441.3446,133.9177 L440.7226,133.9177 C440.4546,133.9177 440.3236,134.0777 440.3236,134.3967 C440.3236,134.7257 440.4496,135.0187 440.7036,135.2737 C441.0886,135.6467 441.4506,136.0357 441.7906,136.4387 C442.0566,136.7587 442.0726,137.0787 441.8386,137.3977 L441.3586,138.0367 C441.1356,138.3447 440.9376,138.3337 440.7696,138.0037 L440.6416,137.7957 C440.4716,137.5197 440.3746,137.4087 440.3536,137.4607 C440.3316,137.4937 440.3236,137.6367 440.3236,137.8927 L440.3236,143.9107 C440.3236,144.2407 440.1616,144.4057 439.8436,144.4057 L439.1256,144.4057 C438.7946,144.4057 438.6296,144.2457 438.6296,143.9257 L438.6296,139.0257 C438.6296,138.6527 438.5606,138.6527 438.4236,139.0257 L437.9916,140.0797 C437.8206,140.4297 437.5806,140.4257 437.2736,140.0637 L437.0176,139.7447 C436.7716,139.4467 436.7356,139.1267 436.9056,138.7867 C437.5336,137.5197 438.0606,136.0407 438.4856,134.3477 C438.5516,134.0607 438.4636,133.9177 438.2306,133.9177 L437.4496,133.9177 C437.1186,133.9177 436.9536,133.7577 436.9536,133.4387 L436.9536,132.7677 C436.9536,132.4377 437.1126,132.2727 437.4316,132.2727 L438.2306,132.2727 C438.4966,132.2727 438.6296,132.1447 438.6296,131.8897 L438.6296,130.1657 Z" id="Fill-32" fill="#18130D" mask="url(#mask-6)"></path>
            <path d="M465.835,130.2776 C465.835,129.9476 465.989,129.7826 466.296,129.7826 L467.094,129.7826 C467.424,129.7826 467.588,129.9426 467.588,130.2616 L467.588,142.4586 C467.559,142.9476 467.44,143.3736 467.239,143.7356 C466.673,144.2886 465.835,144.4796 464.717,144.3096 L464.365,144.2456 C464.045,144.1826 463.849,143.9906 463.774,143.6716 L463.615,142.8576 C463.551,142.4956 463.701,142.3566 464.062,142.4416 C464.616,142.5586 465.088,142.5906 465.484,142.5386 C465.707,142.4636 465.824,142.2456 465.835,141.8836 L465.835,130.2776 Z M462.961,132.0976 C462.961,131.7566 463.108,131.5866 463.408,131.5866 L464.237,131.5866 C464.568,131.5866 464.733,131.7466 464.733,132.0656 L464.733,140.3356 C464.733,140.6646 464.572,140.8296 464.253,140.8296 L463.456,140.8296 C463.126,140.8296 462.961,140.6706 462.961,140.3506 L462.961,132.0976 Z M458.411,131.7146 C458.091,131.5646 457.836,131.5866 457.644,131.7786 C457.43,131.9906 457.458,132.0976 457.723,132.0976 L458.521,132.0976 C459.096,132.1186 459.059,131.9906 458.411,131.7146 L458.411,131.7146 Z M460.278,141.6916 C460.278,141.4046 460.15,141.2596 459.894,141.2596 L457.547,141.2596 C457.282,141.2596 457.148,141.3936 457.148,141.6596 C457.148,141.9466 457.276,142.0906 457.532,142.0906 L459.879,142.0906 C460.146,142.0906 460.278,141.9586 460.278,141.6916 L460.278,141.6916 Z M460.069,137.4936 C460.069,137.3236 459.949,137.2386 459.703,137.2386 L456.127,137.2386 C455.861,137.2386 455.728,137.3126 455.728,137.4616 C455.728,137.6316 455.856,137.7166 456.112,137.7166 L459.67,137.7166 C459.938,137.7166 460.069,137.6426 460.069,137.4936 L460.069,137.4936 Z M460.069,135.6736 C460.06,135.4926 459.949,135.4016 459.736,135.4016 L456.127,135.4016 C455.861,135.4016 455.728,135.4706 455.728,135.6086 C455.728,135.7686 455.856,135.8486 456.112,135.8486 L459.67,135.8486 C459.927,135.8486 460.06,135.7906 460.069,135.6736 L460.069,135.6736 Z M456.846,130.1486 C457.207,129.7346 457.543,129.5696 457.851,129.6546 C458.107,129.7176 458.363,129.7986 458.618,129.8936 C458.938,129.9896 459.081,130.0696 459.048,130.1326 C458.986,130.2506 459.086,130.3676 459.352,130.4846 C460.331,130.9106 461.289,131.3846 462.226,131.9056 C462.566,132.1186 462.614,132.3746 462.368,132.6726 C462.231,132.8216 462.108,132.9696 462.002,133.1186 C461.746,133.4386 461.46,133.4976 461.14,133.2946 L460.677,132.9906 C460.41,132.8416 460.278,132.8956 460.278,133.1506 C460.278,133.4176 460.119,133.5496 459.798,133.5496 L456.877,133.5496 C456.548,133.5496 456.383,133.4386 456.383,133.2156 C456.383,132.9696 456.213,132.9656 455.872,133.1986 L455.233,133.5826 C454.893,133.7736 454.893,133.8696 455.233,133.8696 L461.237,133.8696 C461.566,133.8696 461.731,134.0286 461.731,134.3476 L461.731,138.7226 C461.731,139.0516 461.57,139.2176 461.252,139.2176 L456.112,139.2176 C455.845,139.2176 455.713,139.2866 455.713,139.4236 C455.713,139.6056 455.823,139.6966 456.048,139.6966 L461.444,139.6966 C461.773,139.6966 461.938,139.8556 461.938,140.1746 L461.938,143.9106 C461.938,144.2406 461.779,144.4056 461.46,144.4056 L460.773,144.4056 C460.443,144.4056 460.278,144.2946 460.278,144.0706 C460.278,143.8256 460.15,143.7036 459.894,143.7036 L457.547,143.7036 C457.282,143.7036 457.148,143.8146 457.148,144.0396 C457.148,144.2836 456.991,144.4056 456.67,144.4056 L455.984,144.4056 C455.654,144.4056 455.49,144.2456 455.49,143.9256 L455.49,142.0436 C455.49,141.8086 455.431,141.8406 455.314,142.1386 C455.197,142.6066 455.021,143.0756 454.787,143.5446 C454.606,143.8836 454.355,143.9686 454.037,143.7986 L453.542,143.5116 C453.191,143.2986 453.085,143.0106 453.222,142.6496 C453.766,141.3306 454.051,139.9666 454.084,138.5626 L454.084,134.3646 C454.084,134.0456 454.121,133.8806 454.196,133.8696 C454.271,133.8586 454.179,133.7256 453.923,133.4696 L453.652,133.1986 C453.345,132.8896 453.35,132.6506 453.668,132.4796 C454.893,131.8316 455.951,131.0536 456.846,130.1486 L456.846,130.1486 Z" id="Fill-33" fill="#18130D" mask="url(#mask-6)"></path>
            <path d="M481.1446,138.802 C481.1446,138.536 481.0166,138.404 480.7606,138.404 L477.1356,138.404 C476.8726,138.404 476.7366,138.531 476.7366,138.786 L476.7366,139.473 C476.7366,139.739 476.8656,139.872 477.1216,139.872 L480.7456,139.872 C481.0106,139.872 481.1446,139.744 481.1446,139.489 L481.1446,138.802 Z M474.8866,137.206 C474.8866,136.865 475.0346,136.695 475.3326,136.695 L482.5006,136.695 C482.8316,136.695 482.9966,136.855 482.9966,137.174 L482.9966,141.101 C482.9966,141.432 482.8356,141.596 482.5176,141.596 L475.3826,141.596 C475.0516,141.596 474.8866,141.436 474.8866,141.116 L474.8866,137.206 Z M478.2236,130.102 C478.2236,129.761 478.3766,129.591 478.6846,129.591 L479.5796,129.591 C479.9106,129.591 480.0756,129.75 480.0756,130.07 L480.0756,130.66 C480.0756,130.926 480.2036,131.06 480.4576,131.06 L482.5816,131.06 C482.9106,131.06 483.0756,131.219 483.0756,131.538 L483.0756,132.353 C483.0756,132.682 482.9166,132.847 482.5976,132.847 L480.4746,132.847 C480.2076,132.847 480.0756,132.975 480.0756,133.231 L480.0756,133.853 C480.0756,134.119 480.2036,134.253 480.4576,134.253 L483.4436,134.253 C483.7726,134.253 483.9376,134.412 483.9376,134.732 L483.9376,135.545 C483.9376,135.875 483.7786,136.04 483.4576,136.04 L474.5036,136.04 C474.1746,136.04 474.0076,135.881 474.0076,135.562 L474.0076,134.747 C474.0076,134.417 474.1666,134.253 474.4876,134.253 L477.8246,134.253 C478.0896,134.253 478.2236,134.124 478.2236,133.869 L478.2236,133.247 C478.2236,132.981 478.0956,132.847 477.8386,132.847 L476.6586,132.847 C476.4036,132.847 476.1736,133.007 475.9716,133.326 C475.9496,133.38 475.9136,133.433 475.8606,133.486 C475.5946,133.859 475.2906,133.922 474.9506,133.678 L474.4236,133.279 C474.1136,133.033 474.0776,132.746 474.3116,132.416 C474.6946,131.864 475.0616,131.16 475.4116,130.309 C475.5406,129.958 475.7486,129.825 476.0356,129.91 L476.8026,130.133 C477.1436,130.239 477.2716,130.421 477.1856,130.676 C477.0996,130.932 477.1856,131.06 477.4396,131.06 L477.8246,131.06 C478.0896,131.06 478.2236,130.932 478.2236,130.676 L478.2236,130.102 Z M471.5016,130.278 C471.7786,129.989 472.0766,129.937 472.3946,130.118 C472.7576,130.309 473.1206,130.543 473.4826,130.82 C473.7786,131.065 473.7956,131.353 473.5306,131.682 L473.0176,132.321 C472.7416,132.661 472.4536,132.698 472.1576,132.433 C471.7836,132.124 471.4106,131.837 471.0396,131.571 C470.7186,131.368 470.7076,131.108 471.0076,130.788 C471.1566,130.617 471.3206,130.448 471.5016,130.278 L471.5016,130.278 Z M470.4646,133.374 C470.8046,133.033 471.1246,132.948 471.4216,133.118 C471.7726,133.353 472.1396,133.624 472.5236,133.934 C472.8106,134.189 472.8106,134.491 472.5236,134.843 C472.3326,135.056 472.1576,135.269 471.9966,135.482 C471.7396,135.79 471.4376,135.769 471.0866,135.418 C470.7666,135.13 470.4476,134.864 470.1296,134.619 C469.7666,134.374 469.7446,134.093 470.0646,133.774 L470.4646,133.374 Z M469.6496,137.269 C469.6496,136.929 469.7996,136.759 470.0966,136.759 L472.5876,136.759 C472.9166,136.759 473.0836,136.919 473.0836,137.239 L473.0836,141.26 C473.0836,141.516 473.2406,141.719 473.5616,141.867 C474.2106,142.122 475.0086,142.272 475.9556,142.315 L478.7656,142.378 L481.1446,142.378 C482.1016,142.357 483.0006,142.278 483.8426,142.139 C484.2156,142.075 484.3146,142.219 484.1466,142.571 C483.9856,142.943 483.8426,143.33 483.7146,143.736 C483.6196,144.055 483.4106,144.214 483.0916,144.214 L477.6486,144.214 C475.5086,144.203 473.8636,143.852 472.7136,143.16 C472.4596,143.011 472.2056,143.066 471.9486,143.321 L471.2306,144.039 C470.9106,144.358 470.6486,144.358 470.4476,144.039 L469.9206,143.24 C469.6446,142.858 469.6826,142.607 470.0346,142.49 L470.8466,142.155 C471.1246,142.028 471.2626,141.841 471.2626,141.596 L471.2626,138.914 C471.2626,138.649 471.1346,138.515 470.8796,138.515 L470.1446,138.515 C469.8146,138.515 469.6496,138.356 469.6496,138.036 L469.6496,137.269 Z" id="Fill-34" fill="#18130D" mask="url(#mask-6)"></path>
            <path d="M498.6724,135.4973 C498.5554,135.2213 498.3864,135.2473 498.1614,135.5773 C497.9184,135.8863 497.8434,136.0143 497.9384,135.9603 C498.1724,135.9293 498.4234,135.9133 498.6894,135.9133 C498.7754,135.8923 498.7674,135.7533 498.6724,135.4973 L498.6724,135.4973 Z M495.9124,134.0603 C495.6234,133.8373 495.4804,133.8433 495.4804,134.0773 L495.4804,135.7373 C495.4804,135.9923 495.5224,136.1313 495.6084,136.1513 C495.6814,136.1513 495.8574,135.9873 496.1354,135.6573 L496.5014,135.1943 C496.6824,134.9383 496.6184,134.6733 496.3114,134.3963 L495.9124,134.0603 Z M493.8514,135.6733 C493.8514,135.3963 493.7304,135.2583 493.4854,135.2583 L492.9104,135.2583 C492.6434,135.2583 492.5114,135.3863 492.5114,135.6413 L492.5114,136.0243 C492.5114,136.2913 492.6394,136.4243 492.8934,136.4243 L493.4524,136.4243 C493.7194,136.4243 493.8514,136.2953 493.8514,136.0403 L493.8514,135.6733 Z M493.8514,132.8633 C493.8514,132.5873 493.7304,132.4483 493.4854,132.4483 L492.9104,132.4483 C492.6434,132.4483 492.5114,132.5763 492.5114,132.8313 L492.5114,133.3423 C492.5114,133.6083 492.6394,133.7413 492.8934,133.7413 L493.4524,133.7413 C493.7194,133.7413 493.8514,133.6133 493.8514,133.3583 L493.8514,132.8633 Z M490.8494,133.1983 C490.8494,132.8473 490.7324,132.8373 490.4974,133.1663 L489.6854,134.4593 C489.5144,134.7473 489.5734,134.8373 489.8604,134.7313 C490.0954,134.6033 490.2594,134.7103 490.3554,135.0513 L490.7874,136.5993 C490.8294,136.6203 490.8494,136.5143 490.8494,136.2793 L490.8494,133.1983 Z M489.2384,135.7053 C489.1634,135.4493 489.0184,135.4813 488.8064,135.8013 C488.6054,136.0893 488.6474,136.2003 488.9344,136.1363 C489.2004,136.0833 489.3004,135.9393 489.2384,135.7053 L489.2384,135.7053 Z M492.0464,138.6583 C492.0464,138.4143 492.1964,138.2913 492.4944,138.2913 L493.4684,138.2913 C493.7974,138.2913 493.9644,138.4033 493.9644,138.6263 C493.9644,138.8713 494.0904,138.9933 494.3454,138.9933 L499.6144,138.9933 C499.9444,138.9933 500.1104,139.1533 500.1104,139.4733 L500.1104,140.0163 C500.1104,140.3453 499.9494,140.5103 499.6314,140.5103 L496.1504,140.5103 C495.8094,140.5103 495.7984,140.5963 496.1184,140.7663 C497.2684,141.3513 498.5714,141.8093 500.0304,142.1393 C500.3714,142.2133 500.4404,142.4413 500.2374,142.8253 L499.7904,143.6393 C499.6094,143.9693 499.3604,144.0863 499.0404,143.9903 C497.3474,143.3943 495.8094,142.5703 494.4254,141.5163 C494.1184,141.2823 493.9644,141.2923 493.9644,141.5483 L493.9644,143.9103 C493.9644,144.2403 493.8034,144.4053 493.4854,144.4053 L492.5424,144.4053 C492.2134,144.4053 492.0464,144.2453 492.0464,143.9263 L492.0464,141.8193 C492.0464,141.5643 491.8884,141.5483 491.5684,141.7713 C490.3224,142.6433 488.8874,143.3523 487.2574,143.8953 C486.8844,144.0123 486.5914,143.8953 486.3794,143.5443 L486.0934,143.0653 C485.9014,142.7453 485.9804,142.5323 486.3314,142.4263 C487.5454,142.0963 488.8224,141.5593 490.1644,140.8133 C490.4944,140.6113 490.4884,140.5103 490.1484,140.5103 L486.7474,140.5103 C486.4164,140.5103 486.2514,140.3513 486.2514,140.0313 L486.2514,139.4883 C486.2514,139.1593 486.4124,138.9933 486.7314,138.9933 L491.6474,138.9933 C491.9144,138.9933 492.0464,138.8823 492.0464,138.6583 L492.0464,138.6583 Z M487.8494,130.1653 C488.0194,129.8253 488.2544,129.7183 488.5504,129.8463 L488.9984,130.0373 C489.4144,130.2083 489.5314,130.4533 489.3484,130.7723 L488.4554,132.2413 C488.2424,132.5503 488.2174,132.7833 488.3744,132.9433 C488.5134,133.0813 488.6784,132.9963 488.8704,132.6873 L489.1434,132.2093 C489.3444,131.7933 489.6044,131.6553 489.9224,131.7933 L490.4194,132.0173 C490.7064,132.1443 490.8494,132.0863 490.8494,131.8413 L490.8494,131.3623 C490.8494,131.0333 491.0104,130.8673 491.3284,130.8673 L491.6324,130.8673 C491.8884,130.8673 492.0794,130.7083 492.2074,130.3893 L492.2554,130.2293 C492.3394,129.8463 492.5534,129.6923 492.8934,129.7673 L493.5944,129.9263 C493.9264,130.0113 494.0484,130.1813 493.9644,130.4363 C493.8674,130.7243 493.9534,130.8673 494.2184,130.8673 L494.9854,130.8673 C495.3154,130.8673 495.4804,131.0273 495.4804,131.3473 L495.4804,131.9223 C495.4804,132.1873 495.5534,132.2293 495.7034,132.0493 C495.8314,131.9003 495.9264,131.8513 495.9904,131.9053 C496.0884,131.9903 496.2254,131.8903 496.4064,131.6023 C496.6824,131.1343 496.9334,130.6663 497.1564,130.1973 C497.3254,129.8363 497.5874,129.7283 497.9384,129.8783 L498.4654,130.0863 C498.7854,130.2243 498.8594,130.4583 498.6894,130.7883 C498.3574,131.3733 498.0074,131.9593 497.6364,132.5443 C497.4644,132.7993 497.4494,132.9903 497.5874,133.1183 C497.7244,133.2473 497.9074,133.1503 498.1304,132.8313 L498.6894,131.8733 C498.8804,131.5643 499.1354,131.4793 499.4554,131.6183 C499.6144,131.6723 499.7744,131.7403 499.9354,131.8253 C500.3494,132.0073 500.4514,132.2573 500.2374,132.5763 L499.0564,134.3483 C498.9064,134.6253 498.9764,134.6993 499.2634,134.5713 C499.5184,134.4433 499.7264,134.5403 499.8854,134.8583 C500.2264,135.6793 500.4874,136.4183 500.6674,137.0783 C500.7534,137.3973 500.6304,137.6323 500.3014,137.7803 L499.9834,137.9083 C499.6424,138.0683 499.4334,138.0193 499.3604,137.7643 C499.2944,137.4763 499.1084,137.3593 498.8004,137.4133 C497.8324,137.5733 496.8634,137.7063 495.8934,137.8113 C495.6194,137.8343 495.4804,137.8713 495.4804,137.9243 C495.4694,137.9773 495.3044,138.0043 494.9854,138.0043 L491.3454,138.0043 C491.0144,138.0043 490.8494,137.9243 490.8494,137.7643 C490.8494,137.5843 490.6844,137.5613 490.3554,137.7003 C489.9724,137.8603 489.7584,137.8713 489.7174,137.7323 C489.6744,137.5843 489.4764,137.5523 489.1254,137.6373 C488.2424,137.8933 487.4284,138.0843 486.6834,138.2123 C486.2694,138.2863 486.0274,138.1633 485.9654,137.8443 L485.8214,137.1253 C485.7564,136.7743 485.8414,136.5833 486.0754,136.5513 C486.3424,136.5293 486.5824,136.3703 486.7954,136.0723 L487.4194,135.1623 C487.5874,134.8953 487.5254,134.6143 487.2254,134.3153 L486.2694,133.3263 C485.9494,133.0073 485.9224,132.6873 486.1894,132.3683 C486.2624,132.2623 486.3534,132.1563 486.4604,132.0493 C486.7274,131.7293 486.8804,131.5643 486.9224,131.5553 C486.9764,131.5973 487.1084,131.4533 487.3224,131.1233 L487.8494,130.1653 Z" id="Fill-35" fill="#18130D" mask="url(#mask-6)"></path>
            <path d="M510.6944,138.1311 C510.6944,137.8441 510.5774,137.7001 510.3424,137.7001 L509.9274,137.7001 C509.6624,137.7001 509.5284,137.8281 509.5284,138.0841 L509.5284,138.8341 C509.5284,139.0891 509.6874,139.1951 510.0064,139.1531 L510.3104,139.1051 C510.5664,139.0421 510.6944,138.8821 510.6944,138.6261 L510.6944,138.1311 Z M510.6944,134.9541 C510.6944,134.6891 510.5664,134.5561 510.3104,134.5561 L509.9274,134.5561 C509.6624,134.5561 509.5284,134.6831 509.5284,134.9391 L509.5284,135.7211 C509.5284,135.9871 509.6544,136.1191 509.9104,136.1191 L510.2954,136.1191 C510.5604,136.1191 510.6944,135.9921 510.6944,135.7371 L510.6944,134.9541 Z M510.6944,131.9851 C510.6944,131.7081 510.5694,131.5701 510.3264,131.5701 L509.9274,131.5701 C509.6624,131.5701 509.5284,131.6981 509.5284,131.9531 L509.5284,132.5761 C509.5284,132.8421 509.6544,132.9751 509.9104,132.9751 L510.2954,132.9751 C510.5604,132.9751 510.6944,132.8471 510.6944,132.5921 L510.6944,131.9851 Z M507.5024,130.5001 C507.5024,130.1601 507.6484,129.9891 507.9484,129.9891 L512.8174,129.9891 C513.1474,129.9891 513.3114,130.1491 513.3114,130.4681 L513.3114,131.0751 C513.3114,131.4051 513.1474,131.5701 512.8174,131.5701 C512.4664,131.5701 512.2904,131.6981 512.2904,131.9531 L512.2904,139.7601 C512.2904,140.0161 512.4494,140.0051 512.7704,139.7291 C513.1944,139.2601 513.5574,138.7061 513.8534,138.0691 C513.9704,137.8121 513.9224,137.5261 513.7114,137.2061 L512.8014,135.8971 C512.5464,135.5351 512.5554,135.2361 512.8324,135.0021 L513.1214,134.7641 C513.4404,134.5181 513.7334,134.5451 513.9984,134.8431 L514.3494,135.3211 C514.5624,135.6201 514.7104,135.5991 514.7964,135.2581 L515.0364,134.0281 C515.0894,133.7521 514.9884,133.6131 514.7324,133.6131 L513.0884,133.6131 C512.7584,133.6131 512.5944,133.4531 512.5944,133.1341 L512.5944,132.5281 C512.5944,132.1981 512.7534,132.0331 513.0714,132.0331 L516.3284,132.0331 C516.6574,132.0331 516.8244,132.1931 516.8244,132.5121 C516.8664,133.0131 516.8074,133.5821 516.6484,134.2211 C516.4784,135.1461 516.2494,136.0991 515.9624,137.0781 C515.8664,137.3761 515.8874,137.6321 516.0264,137.8441 C516.3134,138.3231 516.5954,138.8181 516.8714,139.3291 C517.0424,139.6491 516.9684,139.9671 516.6484,140.2861 L516.3444,140.5901 C516.0264,140.9091 515.7864,140.9151 515.6254,140.6061 L515.2264,139.8401 C515.0784,139.5641 514.9134,139.5841 514.7324,139.9041 C514.4244,140.4361 514.0144,140.9521 513.5024,141.4521 C513.1214,141.7611 512.8394,141.7401 512.6564,141.3891 L512.5464,141.1811 C512.3744,140.8611 512.2904,140.8781 512.2904,141.2291 L512.2904,141.7401 C512.2904,142.0691 512.1294,142.2351 511.8114,142.2351 L511.1884,142.2351 C510.8594,142.2351 510.6944,142.0751 510.6944,141.7551 L510.6944,140.9571 C510.6944,140.7021 510.5334,140.6061 510.2154,140.6701 C509.5754,140.8401 508.7724,140.9951 507.8044,141.1331 C507.4844,141.1751 507.2934,141.0371 507.2294,140.7181 C507.1764,140.5271 507.1394,140.3291 507.1174,140.1271 C507.0644,139.8081 507.1814,139.6161 507.4694,139.5531 C507.7874,139.5111 507.9484,139.3711 507.9484,139.1371 L507.9484,131.9691 C507.9484,131.7031 507.8794,131.5701 507.7404,131.5701 C507.5804,131.5701 507.5024,131.4111 507.5024,131.0921 L507.5024,130.5001 Z M504.2294,130.1651 C504.2294,129.8251 504.3764,129.6541 504.6754,129.6541 L505.4084,129.6541 C505.7394,129.6541 505.9044,129.8141 505.9044,130.1331 L505.9044,130.7241 C505.9044,130.9901 506.0324,131.1231 506.2864,131.1231 L506.8614,131.1231 C507.1914,131.1231 507.3574,131.2831 507.3574,131.6031 L507.3574,132.2251 C507.3574,132.5551 507.1984,132.7201 506.8784,132.7201 L506.3034,132.7201 C506.0374,132.7201 505.9044,132.8471 505.9044,133.1041 L505.9044,133.8531 C505.9044,134.1191 506.0324,134.2531 506.2864,134.2531 L507.1654,134.2531 C507.4944,134.2531 507.6594,134.4121 507.6594,134.7321 L507.6594,135.3381 C507.6594,135.6671 507.5024,135.8321 507.1814,135.8321 L506.4794,135.8321 C506.2134,135.8321 506.0804,135.9601 506.0804,136.2161 L506.0804,136.9191 C506.0804,137.1841 506.2084,137.3181 506.4624,137.3181 L506.9894,137.3181 C507.3194,137.3181 507.4844,137.4771 507.4844,137.7961 L507.4844,138.4191 C507.4844,138.7491 507.3264,138.9141 507.0064,138.9141 L506.4794,138.9141 C506.2134,138.9141 506.0804,139.0421 506.0804,139.2971 L506.0804,141.3091 C506.0804,141.5651 506.2394,141.7671 506.5574,141.9151 C507.6114,142.2981 509.3914,142.4951 511.8914,142.5061 L514.6844,142.5061 C515.3324,142.4851 515.9844,142.4421 516.6314,142.3781 C516.9944,142.3361 517.1264,142.4901 517.0314,142.8411 L516.7454,143.7991 C516.6374,144.1181 516.4254,144.2771 516.1054,144.2771 L511.9714,144.2771 C509.4894,144.2451 507.6114,144.0431 506.3344,143.6711 C505.5164,143.4271 504.7824,143.0171 504.1324,142.4421 C503.8664,142.1971 503.7064,142.2391 503.6544,142.5701 C503.5674,143.0061 503.4604,143.4431 503.3344,143.8791 C503.2174,144.2311 502.9774,144.2991 502.6144,144.0861 L502.2964,143.8961 C501.8814,143.6391 501.7274,143.3531 501.8334,143.0331 C502.2914,141.3941 502.5144,139.5901 502.5054,137.6201 C502.5144,137.2061 502.6804,136.9981 502.9994,136.9981 L503.6214,136.9981 C503.9514,136.9981 504.1154,137.1571 504.1154,137.4771 L504.0354,139.5841 C504.0154,139.8401 504.0634,140.0421 504.1794,140.1921 C504.3394,140.3611 504.4204,140.3131 504.4204,140.0481 L504.4204,136.2331 C504.4204,135.9661 504.2914,135.8321 504.0354,135.8321 L502.7434,135.8321 C502.4134,135.8321 502.2494,135.6731 502.2494,135.3541 L502.2494,134.7471 C502.2494,134.4171 502.4084,134.2531 502.7284,134.2531 L503.8284,134.2531 C504.0934,134.2531 504.2294,134.1241 504.2294,133.8691 L504.2294,133.1181 C504.2294,132.8531 504.1014,132.7201 503.8444,132.7201 L503.2064,132.7201 C502.8764,132.7201 502.7104,132.5601 502.7104,132.2411 L502.7104,131.6181 C502.7104,131.2881 502.8714,131.1231 503.1894,131.1231 L503.8284,131.1231 C504.0934,131.1231 504.2294,130.9951 504.2294,130.7401 L504.2294,130.1651 Z" id="Fill-36" fill="#18130D" mask="url(#mask-6)"></path>
            <path d="M415.5811,138.301 C415.5811,139.503 414.6061,140.478 413.4041,140.478 C412.2021,140.478 411.2271,139.503 411.2271,138.301 C411.2271,137.098 412.2021,136.123 413.4041,136.123 C414.6061,136.123 415.5811,137.098 415.5811,138.301" id="Fill-37" fill="#000000" mask="url(#mask-6)"></path>
            <g id="Group-40" mask="url(#mask-6)">
                <g transform="translate(327.706600, 42.656500)">
                    <line x1="0.5" y1="0" x2="0.5" y2="74.847" id="Fill-38" stroke="none" fill="#323237" fill-rule="evenodd"></line>
                    <line x1="0.5" y1="0" x2="0.5" y2="74.847" id="Stroke-39" stroke="#323237" stroke-width="1.428" fill="none" stroke-linecap="round" stroke-linejoin="round"></line>
                </g>
            </g>
        </g>
    </g>
</svg>