<svg xmlns="http://www.w3.org/2000/svg" viewBox="0 0 223.9 57.77"><rect x="9.68" y="8.64" width="214.22" height="49.14" rx="24.57"/><rect x="1.42" y="1.42" width="214.22" height="49.14" rx="24.57" style="fill:#fd7ebd;stroke:#000;stroke-miterlimit:10;stroke-width:2.83464574813843px"/><text transform="translate(61.19 32.28)" style="font-size:18.892780303955078px;font-family:PingFangTC-Medium, PingFang TC">更好康的在這裡</text><path d="M41.89,20.43s.89-.88,2-1.92a2.22,2.22,0,0,0,.84-2.07c-.79-2.17-2.91-1-2.91-1L30.76,21.72H26.52V33.11l9.16,2.79h8.13a1.86,1.86,0,0,0,1.93-1.78h0a1.86,1.86,0,0,0-1.93-1.79H42.66" style="fill:none;stroke:#000;stroke-miterlimit:10;stroke-width:1.58548136891764px"/><path d="M39.2,20.43h14a2,2,0,0,1,2.09,1.94h0a2,2,0,0,1-2.09,1.94H44.34" style="fill:none;stroke:#000;stroke-miterlimit:10;stroke-width:1.58548136891764px"/><path d="M44.79,24.31h1.73a2.22,2.22,0,0,1,2.3,2.12h0a2.22,2.22,0,0,1-2.3,2.12H45.39a2,2,0,0,1,2.08,1.89h0a2,2,0,0,1-2,1.9H42.55" style="fill:none;stroke:#000;stroke-miterlimit:10;stroke-width:1.58548136891764px"/></svg>