<?xml version="1.0" encoding="UTF-8"?>
<svg width="38px" height="48px" viewBox="0 0 38 48" version="1.1" xmlns="http://www.w3.org/2000/svg" xmlns:xlink="http://www.w3.org/1999/xlink">
    <title>img-float-cta-ok</title>
    <g id="Page-1" stroke="none" stroke-width="1" fill="none" fill-rule="evenodd">
        <g id="img-float-cta-ok" fill="#E1FF32" fill-rule="nonzero">
            <path d="M36.4460012,48 C30.8179083,37.1629276 32.893517,30.357326 32.9933059,30.0380016 L33.2926726,28.5910628 L37.35408,9.2719356 C37.7784414,7.19697345 36.4403652,5.17087134 34.365403,4.74650989 C32.2904409,4.32214844 30.2643388,5.66022469 29.8399773,7.73518685 L27.8441997,17.793906 C27.8331209,17.8547409 27.8093173,17.9125496 27.7743475,17.9635471 L28.1136297,20.1189869 C28.1436394,20.333164 27.9976196,20.5322819 27.7843264,20.5680368 L27.7244531,20.5680368 C27.5323954,20.5661975 27.3688792,20.4278376 27.3352764,20.2387335 L24.6409767,3.27462391 C24.3323501,1.18037262 22.3844328,-0.267162262 20.2901815,0.0414642448 C18.1959302,0.350090751 16.7483953,2.29800807 17.0570218,4.39225936 L18.2245517,10.9982832 L18.7234961,13.6826041 L21.7171625,18.4924281 C24.5547193,20.4013387 26.6232314,23.2548246 27.554812,26.5453908 C27.6126794,26.7548159 27.4898177,26.9714994 27.2803925,27.0293668 C27.0709674,27.0872343 26.8542839,26.9643725 26.7964165,26.7549474 C25.9180475,23.6590787 23.9742103,20.973049 21.3080281,19.1709925 C21.2654335,19.1538086 21.2277319,19.1263893 21.1982603,19.0911614 C18.0016549,16.9813727 14.0657709,16.311512 10.351209,17.2450671 L10.1915468,17.2450671 C9.05435915,17.5937101 8.14586643,18.4544579 7.73639905,19.5711871 C7.32693167,20.6879163 7.46368219,21.93192 8.10595921,22.9330333 C8.2947292,23.129944 8.46508083,23.3437186 8.6148825,23.5716821 C8.74176056,23.701834 8.87854952,23.8219414 9.02401691,23.9309221 C9.83173473,24.5635552 10.8618168,24.8408849 11.8779789,24.6992965 L12.0276622,24.6992965 C15.2351299,23.7903226 18.5722517,25.6532139 19.4818916,28.8604928 C20.2112024,31.4180734 19.1839344,34.1519359 16.950838,35.5963712 C14.7177416,37.0408065 11.8030552,36.8567211 9.76943337,35.1428088 C7.73581155,33.4288966 7.06066432,30.5875131 8.10595921,28.1420128 L8.16583254,28.0122873 C8.82805359,26.7844948 8.77072,25.2938215 8.01614922,24.120521 C7.82701639,23.917755 7.65355051,23.7009227 7.49724704,23.4718933 C6.65489858,22.6431359 5.47655994,22.2506343 4.30549379,22.4087282 C3.13442764,22.5668221 2.10234929,23.2577301 1.50991423,24.2801832 L1.40014647,24.4697821 C-0.210189752,27.7541396 -0.441383583,31.5458003 0.757983784,35.0014775 C1.95735115,38.4571548 4.48783259,41.2903165 7.7866348,42.8708516 C9.32591244,43.7988746 10.7409549,44.9188371 11.9977255,46.2038002 C12.562135,46.7935505 13.0547472,47.3918101 13.4743344,47.9953869 L36.4460012,48 Z" id="Path"></path>
            <path d="M8.49513585,0.949542998 C6.98778482,0.64370032 5.44363151,1.26877166 4.57347343,2.53702706 C3.70331535,3.80528247 3.67579508,5.47092536 4.50358064,6.76723471 L10.3811457,16.4168194 C13.717264,15.6265589 17.225647,16.0474234 20.2802026,17.6043071 L18.0549106,14.0318652 L18.0549106,14.0318652 L10.8800901,2.6160173 C10.3351103,1.76858201 9.47829334,1.16988566 8.49513585,0.949542998 Z" id="Path"></path>
        </g>
    </g>
</svg>