<?xml version="1.0" encoding="UTF-8"?>
<svg width="114px" height="54px" viewBox="0 0 114 54" version="1.1" xmlns="http://www.w3.org/2000/svg" xmlns:xlink="http://www.w3.org/1999/xlink">
    <title>img-energy-loop</title>
    <g id="Page-1" stroke="none" stroke-width="1" fill="none" fill-rule="evenodd">
        <path d="M56.6996243,33.4160911 L57.7036474,34.424118 C68.406533,46.238193 76.2278724,54 87.2018442,54 C94.1149783,53.9624535 100.753853,51.2804526 105.76623,46.50028 C111.07538,41.4229138 114.055423,34.3663436 114,27.0050401 C114.021468,12.1363826 102.051518,0.0555670505 87.2420052,0 C78.2057978,0 70.9567515,5.47358596 63.0450499,13.7797275 L68.8181824,20.1605376 C75.8463437,12.7918611 81.1676658,8.55814822 87.2821661,8.55814822 C98.5774253,8.55814822 105.565426,18.1545641 105.565426,27.0453612 C105.589702,32.0586491 103.555983,36.860594 99.9428966,40.3210752 C96.5064763,43.6029039 91.9545474,45.4482363 87.2118845,45.4821729 C79.6716715,45.4821729 73.1555619,38.8191152 63.265935,27.8517827 L53.4265092,16.9953332 C44.5509456,7.28803435 36.7798073,0 26.3781286,0 C11.7281755,0.284209839 0,12.2888802 0,27 C0,41.7111198 11.7281755,53.7157902 26.3781286,54 C35.4143359,54 42.653342,48.4760127 50.6152447,40.089229 L44.8822732,33.74874 C37.8541119,41.1980586 32.4424277,45.4922531 26.3781286,45.4922531 C16.2084773,45.4922531 7.96434606,37.2152459 7.96434606,27.0050401 C7.96434606,16.7948343 16.2084773,8.51782714 26.3781286,8.51782714 C33.8781807,8.51782714 40.4344511,15.1708046 50.2839171,26.138137 L51.0570149,26.9949599 L50.976693,27.0856823 L56.6996243,33.4160911 Z" id="img-energy-loop" fill="#FFFFFF" fill-rule="nonzero"></path>
    </g>
</svg>