<svg xmlns="http://www.w3.org/2000/svg" viewBox="0 0 4.19 67.21"><defs><style>.cls-1{fill:#ffffff;}</style></defs><g id="Layer_2" data-name="Layer 2"><g id="Layer_1-2" data-name="Layer 1"><path class="cls-1" d="M0,33.3a21.92,21.92,0,0,1,.19,2.79,1.15,1.15,0,0,1,.25.71l-.26,0,.08.23c-.08.09-.05-.18-.14,0l.16.09c-.1,0-.06.57-.25.2v.87c0,.19.21.11.15.32-.07,0,0-.08-.14-.06-.19.64.49.74.38,1.33l0,0c.07.1.06.29.1.29.26-.07-.14-.1,0-.28.22,0,.12.22.28.21-.08.14,0,.22.06.34-.14.21,0,.51-.21.66.07.1.28.22.29.43-.17.16-.16,0-.22.18l.12,0c0,.18-.05.15-.11.14,0,.19.17.16.09.39L.67,42a1.49,1.49,0,0,1,0,.48c-.07,0-.07-.1,0-.17-.19.13.08.22.06.3s.08-.19.2-.11.17.25,0,.34L.8,42.71c.1.25.16.13.11.42,0,0,0,0-.07,0,.16.18,0,.42,0,.69l0,0c0,.1.16.16.15.22.07-.15.11-.11.23-.12-.21.2.24.3.11.63a.1.1,0,0,1-.08-.17C1,44.19.83,44.18.73,44c.05.12.08.27,0,.24l.2,0c0,.08,0,.13,0,.19s.2-.15.29,0-.21.11-.12.14c.08.27.21.11.15.37,0,0-.05-.07,0-.1-.08.19,0,.46-.21.52-.05,0-.12,0-.1-.11h0c-.18-.21,0,.17-.17.1.13,0,.1.25.07.37l.15,0c.44.4-.29,0-.23.37s0-.09.14.06-.16.23-.09.48c-.06.06-.14.2-.3.21.06.15-.08.46.08.54.14-.25-.17-.25,0-.55l.16.08c0,.21.08.47,0,.61,0,0,.07,0,.1,0,.06.29.22.38.17.66-.14,0-.12-.13-.13-.25-.12.19,0,.2-.06.48-.12,0,0-.19-.11-.22l0,.31h0c.21,0,0,.24,0,.44,0,.45.28.52.45.78-.06.07-.11.09-.16.06s0-.1,0-.14c0,.16-.21.34-.3.26.07.24.12-.09.18.06v.33c.11,0,.13-.15.22,0a1.86,1.86,0,0,1,0,.41c-.06,0-.17.06-.16-.08a.22.22,0,0,0,.06.29c.1-.21.09.34.26.19l-.1.21s-.07-.06-.05-.13c-.16.06.05.18.06.25s0,.26-.11.28a.2.2,0,0,1-.07.26c0,.1.11,0,.16,0v.33c-.1,0-.35,0-.39,0,.09.12.28,0,.27.23-.18-.11-.14.26-.35.1a.67.67,0,0,0-.08.59c.14.11.08-.18.22-.17.06.48.45.51.38.87l0-.09a.65.65,0,0,0,.19.32c-.18-.06-.48.26-.44.62.09,0,.17-.2.31-.14l0,.24s0,0-.07,0c.06.22-.23.4,0,.47L1,55.57l.12-.09c.08,0,.11.27.14.32a.38.38,0,0,1-.09.48c.08-.05.24-.15.27,0-.29,0-.11.41-.26.41,0,.08-.08.22,0,.23l-.18,0c.25,0,.24.31.28.53-.34,0,0,.24-.29.34.24,0,.1.39.29.43,0,.17-.2.15-.28.2l.09.08c-.11.08-.13.4-.2.59l.2.18-.09.06c.05,0,.08.18.16.09v.09c.22,0,.06.13.16.33a.08.08,0,0,1-.12,0c0,.09-.12,0-.2.1s.41.35.51.09c.09,0,.16.13.12.22l-.21.06.22.11c0,.15-.1.21-.13.33,0-.12-.38-.27-.38.05,0-.17-.14-.25-.18-.34,0,.07,0,.1-.11,0,.06.25.12.08.15.32-.18,0-.24.06-.31.27l.14-.16.05,0c0-.06,0-.07.11-.09s.23.28.12.32c.28-.24.21.43.38.27.06,0,.07.2,0,.22-.14-.2-.21.15-.33.12.05.07.13-.16.2-.06s-.1.21-.16.28l0-.05-.08.18c.09,0,.15-.18.2,0s0,.21-.07.21-.29,0-.32-.17c0,.12,0,.51.21.35v.15c.08-.09.21-.35.24-.06h0l.14.2-.1.09a.09.09,0,0,1,.09.1c-.05,0-.08.09-.15.09,0,.22.1.2.15.23s0,.16-.13.11c0,.16,0,.45-.09.57.08.22,0-.05.16.08-.32.2-.13.74-.09,1.1.28-.09,0,.1.29.17-.09-.08-.22.35-.3,0l0,.19c-.15.13-.11-.32-.32-.12,0,.22.31.36.21.62-.19-.09.06.2-.15.13S1,66.07,1,66L1,66c-.06.48.23.14.36.39s-.15.23-.24.25,0,.19,0,.26c-.12-.17.12-.32.24-.24-.22.12,0,.43.07.51.24-.42,0-.29.27-.68-.07,0-.27,0-.19-.28.1.15.11,0,.14,0s0-.16-.09-.24.26.15.31-.09l-.27-.05c0-.09.2,0,.13-.16.15.11.22,0,.27.24.23-.32-.13-.49-.23-.74,0,0,.06,0,.08.06s-.07-.15-.09-.23.13.13.2.09v-.27H2c0-.07-.06-.14,0-.16a1.17,1.17,0,0,0,.25.16l-.19-.28c.09,0,.15-.23.22,0l0-.41.18,0c0-.1-.07-.1-.09,0,0-.14-.32-.63,0-.55a3.28,3.28,0,0,1-.18-.83c.17.3.21-.35.29,0,.08-.19-.12-.23-.15-.37s.26-.08.33.07l-.09-.18h0L2.5,62c.1-.17.18,0,.21-.21l-.17,0,.1-.11c-.07,0-.11-.06-.12-.18h0l0-.15c.09.15,0-.13.15-.06a1.93,1.93,0,0,0,0-.36l-.11,0c-.09-.3.17,0,.18-.25H2.59c.21-.34-.12-.58,0-.84,0,.15.17.11.14.11,0-.22,0-.58-.17-.81a.44.44,0,0,0,.33-.34c0-.17,0-.19-.14-.25.07-.16,0-.47.1-.48-.11,0,0-.15-.07-.24l.06,0-.13,0c.28-.3-.16-.5.09-.79l0,0L2.8,57c.06,0,.09,0,.16,0l0-.58-.1.12c0-.12-.13-.21-.06-.34.19.23,0-.2.16-.23l0,.12C3,56,3,56,2.9,56c0-.21.24-.15.11-.35v.15c-.07,0-.18-.06-.18-.16s.08-.09.1,0c0-.17,0-.43,0-.51s.13-.06.17,0c-.11-.37,0-.17-.09-.54H3L3,54.43l.15-.18L3,54.32A.56.56,0,0,1,3,54l.1.06c-.06-.35.18-.4,0-.73,0,0,.06,0,.07.06-.16-.3.19-.23,0-.53,0,0,.08,0,.11,0l-.07-.13h.15l-.22-.12.15-.08-.07,0c.28-.15.07-.36.28-.56l-.18,0c-.38-.51.21-1.16,0-1.78h.14l-.17-.25c.11-.14.12.08.2,0-.08-.27-.22-.11-.26-.43.1-.16.11.06.16.13a2.08,2.08,0,0,1-.07-.94s0,0-.05,0a2.48,2.48,0,0,1,0-.67c.07,0,.08.06.09.11s.06-.18,0-.25l.12.08c0-.17-.08-.49.06-.52,0,0-.16,0-.16-.14.23-.08-.09-.39,0-.62.05,0,.06.2.07.15s0-.22-.12-.32l.09,0L3.36,46c.22-.08,0-.51.13-.47,0-.2-.1.16-.12-.08.09-.07-.05-.22.1-.21V45.1l.14.11A.33.33,0,0,0,3.33,45c.08-.14,0-.34.15-.4l0,.05c0-.39.39-.65.15-1,0,0,.06,0,0,0v-.25l.11.06-.16-.4h.07a7.27,7.27,0,0,0,0-1l0,.06c-.11-.37.07-.36,0-.63l0,0v-.25l.07.06c-.15-.18.2-.52.07-.41-.07-.1-.15-.27-.24-.3,0-.27.1-.07.16-.23s-.12-.23,0-.49h.07a2.61,2.61,0,0,1-.08-.37l0,0c-.15-.28.21-.34-.11-.56.06-.12,0-.34.16-.33-.09-.34-.13-.61-.19-.95.24-.06,0-.07.12-.28H3.65c0-.48.3-1,.25-1.57H4l-.14-.11C4,35.24,4,34.49,4,34a1.08,1.08,0,0,1-.18-.62l0,0a3.82,3.82,0,0,1,0-1.31s.09,0,.12,0c-.14-.11,0-.27,0-.37l-.09.12c-.13-.13,0-.32.08-.38l-.13-.21a.09.09,0,0,1,0,0l-.07,0,.17-.11c0-.05-.08-.32-.24-.4.06,0,.1-.21.13-.06l0-.74-.06.11c-.12,0-.2-.21-.15-.32.11.15.18,0,.28-.05-.07-.11-.11.08-.18,0a.59.59,0,0,1-.08-.46l.06.07c0-.17.17-.25.16-.42s0-.26-.23-.23c0-.22.15-.09.17-.16a.36.36,0,0,1,.08-.45c-.32-.12.11-.59-.16-.64l.16-.18c-.08,0-.24,0-.27-.19s.21-.1.28-.15l-.27-.09c.29-.79.1-1.85.34-2.72a5.64,5.64,0,0,1-.15-1.33l0,0L4,22.37l-.12.33c0-.1-.09-.17-.08-.27a4.13,4.13,0,0,0,.11-1.77c-.31-.4.27-.26.05-.64l.1.07a4.68,4.68,0,0,0-.34-1c.31.05,0-.26.16-.23l-.13,0c.08-.09.11-.31.2-.27l-.16-.18.13,0c0-.24-.1-.75.16-.88A7,7,0,0,1,4,15.17a.77.77,0,0,1-.13-.49L4,14.5c0-.17-.24-.36-.14-.52l0,0c0-.17,0-.34-.09-.5,0-.2.09-.38.23-.32-.25,0,0-.41,0-.41S4.67,2.91,3.29.5C3.17.42,3.09.2,2.94.29,2.89.11,3.11,0,3,0c-.08.23-.32-.07-.48.16l0-.15c-.09,0,.1.2-.06.16l.23,0a.32.32,0,0,1-.16.22c.09.11.41.19.27.45V.82C2.75,1,2.6,1,2.56,1V1l-.12.18C2.52,1,2.33.77,2.34.89S2.4.82,2.43,1s-.11.09-.19.09v.21c-.1,0,0-.14-.1-.05l.11.27c-.27.05.13.3-.12.42-.07-.19-.1,0-.19,0l0,.48c0,.05-.08-.12-.07,0s.07.15.06.2,0,.36-.17.35c-.13.32.23.13.12.44-.11,0,0-.24-.14-.11l0,.32c-.05,0-.18-.06-.15-.18-.15.85-.73,1.32-.58,2.1C1,5.6,1,5.41.9,5.33c.18.57-.28.8-.27,1.28H.74A8.14,8.14,0,0,0,.46,8.86l.08-.09a1.05,1.05,0,0,1,.16.4S.47,9.08.52,9.3c0,0,.08-.14.13-.11A17.31,17.31,0,0,0,.3,12.3c.08,1.45-.13,3-.06,4.45,0-.22.26-.13.19,0C0,17.23.51,17.56.2,18c.15.83-.25,1.57.1,2.35H.17c-.06.12,0,.15,0,.27h0c0,.29.08.64,0,.8H.34c0,.17-.11.09,0,.26H.24l.14.2c-.25,0,0,.48-.14.62a2.85,2.85,0,0,1,.11,1c-.13.06-.13.47-.2.73a12.78,12.78,0,0,1,0,1.88H.35v.17s-.06,0-.08,0c-.18.13.06.39-.05.52.14-.08,0-.12,0-.21s.24,0,.16.18h0l.09.13c-.13,0-.19.13-.32.15a8.32,8.32,0,0,1,.19,1.5c-.14-.05,0,.42-.21.3.1.35.2-.06.38.1,0,.1.06.2,0,.22s-.15.07-.17,0l0,.23s-.06,0-.07-.06c.14.47-.17.83,0,1.25.09,0,0-.16.11-.13.19.42-.16.37,0,.77l-.12-.09c.08.13.19.19.09.4-.15,0-.12-.18-.19-.28,0,.14,0,.51.17.4,0,.17-.09.23-.13.32s.1-.16.17-.06a3.58,3.58,0,0,0-.09.89s-.09,0-.11,0C.29,33,0,33,0,33.3Z"/></g></g></svg>