<?xml version="1.0" encoding="UTF-8"?>
<svg width="200px" height="56px" viewBox="0 0 200 56" version="1.1" xmlns="http://www.w3.org/2000/svg" xmlns:xlink="http://www.w3.org/1999/xlink">
    <title>hero-logo</title>
    <g id="Page-1" stroke="none" stroke-width="1" fill="none" fill-rule="evenodd">
        <path d="M17.4150075,6.37284814 C22.2158421,6.37184442 26.588316,8.3368883 29.7296275,11.501844 C32.8779286,14.6627833 34.832012,19.0587782 34.8300165,23.8845324 C34.8300165,23.8924481 34.8299996,23.9041564 34.8299663,23.9195284 L34.8292405,24.1533284 C34.8226712,26.0356065 34.7764513,36.7816267 34.769882,38.3071689 L34.7691059,38.4873087 C34.7711029,43.3150711 32.816021,47.710062 29.6697169,50.8710012 C26.5264084,54.0359569 22.154933,56.0020049 17.3550969,55.9999984 C12.7230105,56.0020049 8.49432193,54.1664913 5.38096872,51.1973371 C5.25016395,51.0105726 5.19025337,50.7605491 5.40293593,50.5075133 L5.40293593,50.5075133 L8.72098363,47.1698506 C8.97160956,46.9881066 9.22023848,47.0744601 9.39897171,47.2140315 C11.5008346,49.1519644 14.2786886,50.3277775 17.3550969,50.3287817 C20.6152311,50.3277775 23.541863,49.0083766 25.6806707,46.8615887 C27.8164829,44.7097803 29.1295232,41.766733 29.1305217,38.4873087 L29.1305217,38.4873087 L29.1305217,36.842576 C26.0421312,39.6681424 21.9172877,41.3982245 17.4150075,41.3972204 C12.6151714,41.3982245 8.24469451,39.4311724 5.10138601,36.2662167 C1.95608048,33.1062815 1.42108547e-14,28.7112907 1.42108547e-14,23.8845324 C1.42108547e-14,19.0587782 1.95608048,14.6627833 5.10138601,11.501844 C8.24469451,8.33789241 12.6171684,6.37184442 17.4150075,6.37284814 Z M94.0431374,6.37284814 C98.843972,6.37184442 103.215447,8.3368883 106.357757,11.501844 C109.50506,14.6627833 111.460142,19.0587782 111.458146,23.8845324 C111.458146,23.9003639 111.45808,23.9313652 111.457951,23.9765075 L111.457383,24.1533284 C111.450921,26.0356065 111.405459,36.7816267 111.398998,38.3071689 L111.398234,38.4873087 C111.399233,43.3150711 109.445149,47.710062 106.297847,50.8710012 C103.15354,54.0359569 98.7830629,56.0020049 93.9832268,55.9999984 C89.3511404,56.0020049 85.1224518,54.1664913 82.0090986,51.1973371 C81.8772953,51.0105726 81.8183832,50.7605491 82.0310658,50.5075133 L82.0310658,50.5075133 L85.3491135,47.1698506 C85.5997394,46.9881066 85.8483684,47.0744601 86.0271016,47.2140315 C88.1289645,49.1519644 90.9068184,50.3277775 93.9832268,50.3287817 C97.2433609,50.3277775 100.169993,49.0083766 102.308801,46.8615887 C104.444613,44.7097803 105.757653,41.766733 105.757653,38.4873087 L105.757653,38.4873087 L105.757653,36.842576 C102.670261,39.6681424 98.5454176,41.3982245 94.0431374,41.3972204 C89.2442998,41.3982245 84.8728244,39.4311724 81.7295159,36.2662167 C78.5842104,33.1062815 76.6291284,28.7112907 76.6291284,23.8845324 C76.6291284,19.0587782 78.5842104,14.6627833 81.7295159,11.501844 C84.8728244,8.33789241 89.2442998,6.37184442 94.0431374,6.37284814 Z M132.497443,6.37284814 C137.298278,6.37184442 141.669753,8.3368883 144.812063,11.501844 C147.960364,14.6627833 149.913449,19.0587782 149.913449,23.8845324 C149.913449,28.7102866 147.960364,33.1062815 144.812063,36.2662167 C141.669753,39.4311724 137.298278,41.3982245 132.497443,41.3962178 C127.699604,41.3982245 123.32713,39.4311724 120.183822,36.2662167 C117.037517,33.1062815 115.082436,28.7102866 115.084431,23.8845324 C115.082436,19.0587782 117.037517,14.6627833 120.183822,11.501844 C123.32713,8.3368883 127.699604,6.37184442 132.497443,6.37284814 Z M55.6734055,6.37284814 C60.4732416,6.37184442 64.8457155,8.3368883 67.9880255,11.501844 C71.1343296,14.6627833 73.0894115,19.0587782 73.0884134,23.8845324 C73.0894115,28.7112907 71.1343296,33.1062815 67.9880255,36.2662167 C64.8457155,39.4311724 60.4732416,41.3982245 55.6734055,41.3962178 C50.8735694,41.3982245 46.502094,39.4311724 43.359784,36.2662167 C40.21348,33.1062815 38.258398,28.7102866 38.2603935,23.8845324 C38.258398,19.0587782 40.21348,14.6627833 43.359784,11.501844 C46.5030925,8.3368883 50.8735694,6.37184442 55.6734055,6.37284814 Z M182.585485,6.37284814 C187.386319,6.37184442 191.757795,8.3368883 194.901103,11.501844 C198.048406,14.6627833 200.003488,19.0587782 200.000496,23.8845324 C200.003488,28.7102866 198.048406,33.1062815 194.901103,36.2662167 C191.758793,39.4311724 187.387318,41.3982245 182.585485,41.3962178 C177.785649,41.3982245 173.414173,39.4311724 170.270865,36.2662167 C167.124561,33.1062815 165.170477,28.7112907 165.170477,23.8845324 C165.170477,19.0587782 167.124561,14.6627833 170.270865,11.501844 C173.41617,8.3368883 177.785649,6.37184442 182.585485,6.37284814 Z M167.000945,0.0815953497 C167.203643,-0.0188156817 167.5002,-0.0840828522 167.706892,0.244261221 L167.706892,0.244261221 L170.175208,4.1462339 C170.290036,4.37517105 170.319992,4.67941648 169.973509,4.90132486 C168.111288,6.0932038 159.869589,12.1429684 159.869589,23.8850345 L159.869589,23.8850345 L159.869589,39.9879516 C159.839634,40.237975 159.700841,40.5030602 159.313419,40.5110931 L159.313419,40.5110931 L154.788173,40.5110931 C154.393762,40.5030602 154.255968,40.2289381 154.230006,39.973894 L154.230006,39.973894 L154.230006,23.8850345 C154.229008,10.2502205 163.321437,2.36192987 167.000945,0.0815953497 Z M17.4150075,12.0430595 C14.1548734,12.0440636 11.22924,13.3634645 9.09043222,15.5112565 C6.95461999,17.6630649 5.64257826,20.6051081 5.64157975,23.8845324 C5.64257826,27.1629526 6.95461999,30.1059999 9.09043222,32.2568042 C11.22924,34.4045962 14.1558719,35.7250012 17.4150075,35.7260053 C20.6761401,35.7250012 23.6027721,34.4045962 25.7425783,32.2568042 C27.612787,30.3730933 28.850939,27.8818956 29.1305217,25.0894648 L29.1305217,25.0894648 L29.1864382,23.8845324 C29.1904323,20.6051081 27.8783905,17.6630649 25.7425783,15.5112565 C23.6027721,13.3644686 20.6761401,12.0440636 17.4150075,12.0430595 Z M94.0431374,12.0430595 C90.7830032,12.0440636 87.8573699,13.3634645 85.7175636,15.5112565 C83.5827499,17.6630649 82.2697096,20.6051081 82.2687111,23.8845324 C82.2697096,27.1629526 83.5827499,30.1059999 85.7175636,32.2568042 C87.8583684,34.4045962 90.7830032,35.7250012 94.0431374,35.7260053 C97.30427,35.7250012 100.229903,34.4045962 102.370708,32.2568042 C104.240917,30.3730933 105.479069,27.8818956 105.758652,25.0894648 L105.758652,25.0894648 L105.814568,23.8845324 C105.817564,20.6051081 104.50652,17.6630649 102.370708,15.5112565 C100.229903,13.3644686 97.30427,12.0440636 94.0431374,12.0430595 Z M132.497443,12.0430595 C129.237309,12.0440636 126.311675,13.3644686 124.171869,15.5112565 C122.036057,17.6630649 120.725014,20.6051081 120.724015,23.8845324 C120.725014,27.1629526 122.036057,30.1059999 124.171869,32.2568042 C126.311675,34.4045962 129.237309,35.7250012 132.497443,35.7260053 C135.757577,35.7250012 138.684209,34.4045962 140.825014,32.2568042 C142.960826,30.1059999 144.272868,27.1629526 144.273866,23.8845324 C144.272868,20.6051081 142.959828,17.6630649 140.825014,15.5112565 C138.684209,13.3644686 135.759574,12.0440636 132.497443,12.0430595 Z M55.6734055,12.0430595 C52.4132714,12.0440636 49.487638,13.3644686 47.3488302,15.5112565 C45.213018,17.6630649 43.8999778,20.6051081 43.8989793,23.8845324 C43.8999778,27.1629526 45.213018,30.1059999 47.3488302,32.2568042 C49.487638,34.4045962 52.4132714,35.7250012 55.6734055,35.7260053 C58.9335397,35.7250012 61.8601716,34.4045962 64.0009763,32.2568042 C66.1357901,30.1049958 67.4488303,27.1629526 67.4488303,23.8845324 C67.4488303,20.6051081 66.1357901,17.6630649 64.0009763,15.5112565 C61.8601716,13.3644686 58.9335397,12.0440636 55.6734055,12.0430595 Z M182.585485,12.0430595 C179.327348,12.0440636 176.399717,13.3644686 174.259911,15.5112565 C172.125097,17.6630649 170.813056,20.6051081 170.812057,23.8845324 C170.813056,27.1629526 172.125097,30.1059999 174.259911,32.2568042 C176.399717,34.4045962 179.327348,35.7250012 182.585485,35.7260053 C185.846618,35.7250012 188.773249,34.4045962 190.914054,32.2568042 C193.048868,30.1059999 194.359911,27.1629526 194.36091,23.8845324 C194.359911,20.6051081 193.048868,17.6630649 190.914054,15.5112565 C188.773249,13.3644686 185.846618,12.0440636 182.585485,12.0430595 Z" id="hero-logo" fill="#FFFFFF"></path>
    </g>
</svg>