<?xml version="1.0" encoding="UTF-8"?>
<svg width="28px" height="28px" viewBox="0 0 28 28" version="1.1" xmlns="http://www.w3.org/2000/svg" xmlns:xlink="http://www.w3.org/1999/xlink">
    <title>img-play-btn</title>
    <g id="Page-1" stroke="none" stroke-width="1" fill="none" fill-rule="evenodd">
        <path d="M14,0 C21.7202323,0 28,6.28095287 28,14.000484 C28,21.7200152 21.7202323,28 14,28 C6.27976767,28 0,21.7200152 0,14.000484 C0,6.28095287 6.27976767,0 14,0 Z M14,0.968087681 C6.81413359,0.968087681 0.968054211,6.81436919 0.968054211,14.000484 C0.968054211,21.1865989 6.81413359,27.0319123 14,27.0319123 C21.1858664,27.0319123 27.0319458,21.1865989 27.0319458,14.000484 C27.0319458,6.81436919 21.1858664,0.968087681 14,0.968087681 Z M10.1570184,8.0721087 L19.5926428,13.9997096 L10.1570184,19.9282785 L10.1570184,8.0721087 Z" id="img-play-btn" fill="#323237"></path>
    </g>
</svg>