<?xml version="1.0" encoding="utf-8"?>
<!-- Generator: Adobe Illustrator 24.2.3, SVG Export Plug-In . SVG Version: 6.00 Build 0)  -->
<svg version="1.1" id="圖層_1" xmlns="http://www.w3.org/2000/svg" xmlns:xlink="http://www.w3.org/1999/xlink" x="0px" y="0px"
	 width="465px" height="261px" viewBox="0 0 465 261" style="enable-background:new 0 0 465 261;" xml:space="preserve">
<style type="text/css">
	.st0{fill:#FFFFFF;}
</style>
<g>
	<g>
		<path class="st0" d="M121,89.7V82h-0.5v0h-6v0h-1.3v7.7h2.7v0h2.5v0H121z M115.8,87v-2.4h2.5V87H115.8z"/>
		<path class="st0" d="M127.4,77.7H112v2.7h10.7v8.5c0,0.8-0.4,1.4-1.1,1.7c-0.7,0.3-1.5,0.3-1.5,0.3v2.7c2.1,0,5.3-1.3,5.3-4.7
			v-8.5h1.9V77.7z"/>
		<path class="st0" d="M108.4,80.9V79h3.1v-2.7h-3.1v-1.9h3.1v-2.7h-3.1v-1.9h3.1v-2.7h-10.7v16.3h8.5v5.3c0,0.8-0.4,1.4-1.1,1.7
			c-0.7,0.3-1.5,0.3-1.5,0.3v2.7c2.1,0,5.3-1.3,5.3-4.7v-8L108.4,80.9z M105.7,80.9h-2.3V79h2.3V80.9z M105.7,76.4h-2.3v-1.9h2.3
			V76.4z M105.7,71.8h-2.3v-1.9h2.3V71.8z"/>
		<rect x="99.3" y="85.3" class="st0" width="1.8" height="5.3"/>
		<rect x="101.7" y="85" class="st0" width="1.8" height="5.3"/>
		<rect x="104.2" y="84.6" class="st0" width="1.8" height="5.3"/>
		<rect x="106.6" y="84.3" class="st0" width="1.8" height="5.3"/>
		<path class="st0" d="M119.7,74.1c1.8,2.3,5.1,3,7.2,3v-2.7c0,0-1.6,0-3.1-0.6c-1.2-0.5-2-1.2-2.4-2.1h5.3V69H121v-2.4h-2.7V69
			h-5.5v2.7h5.2c-0.4,0.9-1.2,1.6-2.4,2c-1.5,0.6-3.1,0.6-3.1,0.6V77c0.1,0,2.1,0,4.1-0.8C117.9,75.7,118.9,75,119.7,74.1z"/>
	</g>
	<g>
		<g>
			<polygon class="st0" points="189.9,70.6 178.7,70.6 178.7,66.6 176.1,66.6 176.1,70.6 164.9,70.6 164.9,73.3 189.9,73.3 			"/>
		</g>
		<g>
			<path class="st0" d="M190.3,91c-0.1,0-5.7-0.9-10.8-4.7c1.6-1.5,3-3.4,4.2-5.6l-2.3-1.3c-1.1,2.1-2.5,3.7-4,5.2
				c-1.5-1.4-2.9-3.1-4-5.2l-2.3,1.3c1.2,2.2,2.7,4.1,4.2,5.6c-5.2,3.8-10.7,4.7-10.8,4.7l0.2,1.3l0.2,1.3c0.4-0.1,6.7-1,12.5-5.5
				c5.8,4.5,12.1,5.4,12.5,5.5L190.3,91z"/>
		</g>
		<g>
			<path class="st0" d="M180.5,75.4c2.5,4.2,7.9,6.3,8.1,6.4l1-2.5c0,0-4.7-1.9-6.8-5.2L180.5,75.4z"/>
		</g>
		<g>
			<path class="st0" d="M165.2,79.3l1,2.5c0.2-0.1,5.6-2.2,8.1-6.4L172,74C170,77.4,165.2,79.3,165.2,79.3z"/>
		</g>
	</g>
	<g>
		<g>
			
				<rect x="154.8" y="77.2" transform="matrix(0.8873 -0.4612 0.4612 0.8873 -20.5006 81.3317)" class="st0" width="2.7" height="10.7"/>
		</g>
		<g>
			
				<rect x="129.2" y="82.8" transform="matrix(0.2594 -0.9658 0.9658 0.2594 18.7854 192.7087)" class="st0" width="11.7" height="2.7"/>
		</g>
		<g>
			
				<rect x="144.7" y="66.4" transform="matrix(0.621 -0.7838 0.7838 0.621 0.2265 141.0743)" class="st0" width="2.7" height="7.8"/>
		</g>
		<g>
			<path class="st0" d="M149.4,93.4h-4.1c-0.1,0-5.4-0.1-5.4-6.5V73.4h2.7v13.5c0,3.7,2.4,3.8,2.7,3.8h4.1c0.5,0,2-0.6,2-3.1h2.7
				C154.1,91.8,151.2,93.4,149.4,93.4z"/>
		</g>
	</g>
	<g>
		<path class="st0" d="M320.7,86.1h9.9v0h0v-9.2h4.6v-2.7h-4.6v-6.6h-2.7v6.6h-4.6v-6.6h-2.7v6.6h-5.2v-6h-2.7v6h-4v2.7h4l0,15.8
			h20.4V90h-17.7V76.8h5.2V86.1z M323.4,76.8h4.6v6.6h-4.6V76.8z"/>
	</g>
	<g>
		<path class="st0" d="M365.7,84.1c-0.1,0-5.3-1.4-8.6-5.4l5.3,0V66.8H344v11.9l5.3,0c-3.3,4-8.5,5.4-8.6,5.4l0.7,2.6
			c0.2-0.1,3.9-1,7.3-3.7v5.7c0,1.9-2.2,2.1-2.7,2.1v2.7c2.2,0,5.4-1.3,5.4-4.7v-8.3c0.4-0.5,0.9-1.1,1.2-1.7h1.4
			c0.4,0.6,0.8,1.2,1.2,1.7v12.8h2.7V83c3.4,2.7,7.1,3.7,7.3,3.7L365.7,84.1z M354.5,76.1v-2h5.2v2H354.5z M359.8,69.5v2h-5.2v-2
			H359.8z M351.9,69.5v2h-5.2v-2H351.9z M346.6,74.1h5.2v2h-5.2V74.1z"/>
	</g>
	<g>
		<polygon class="st0" points="276.3,81.1 276.3,86.5 279,86.5 279,83.8 299.9,83.8 299.9,86.5 302.5,86.5 302.5,81.1 		"/>
		<path class="st0" d="M296.2,91.8c-0.9,0-2.4-0.3-2.4-3.8v-2.8h-2.7V88c0,5.1,2.6,6.5,5.1,6.5l6.3,0v-2.6H296.2z"/>
		<path class="st0" d="M301.2,68.2h-10c0.1-0.2,0.1-0.4,0.1-0.6c0-1.1-0.9-1.9-1.9-1.9c-1.1,0-1.9,0.9-1.9,1.9c0,0.2,0,0.4,0.1,0.6
			h-10v2.7h23.7V68.2z"/>
		<path class="st0" d="M298,79.8v-7.5h-17.2v7.5H298z M283.5,77.2v-2.2h11.9v2.2H283.5z"/>
		<path class="st0" d="M284.9,86.8c0,5.3-8.6,5.1-8.7,5.1l0.1,2.7c3.9-0.1,11.3-1.1,11.3-7.8v-1.7h-2.7V86.8z"/>
	</g>
	<g>
		<rect x="242.7" y="88.3" class="st0" width="2.4" height="5.4"/>
		<rect x="246.4" y="88.3" class="st0" width="2.4" height="5.4"/>
		<rect x="250.1" y="88.3" class="st0" width="2.4" height="5.4"/>
		<rect x="253.7" y="88.3" class="st0" width="2.4" height="5.4"/>
		<path class="st0" d="M269.7,73.8v-2.7h-4.8v-4.6h-2.7v13.8h-4.3v13v0l11.5,0v-13h-4.6v-6.6H269.7z M266.8,90.7h-6.2v-7.6h6.2V90.7
			z"/>
		<path class="st0" d="M242.7,78.3h5.7v1.8h-4.8v2.7h4.8v1.5h-5.6v2.7h13.9v-2.7h-5.6v-1.5h4.8v-2.7h-4.8v-1.8h5.7v-11h-14.2V78.3z
			 M245.4,75.6v-3.6l1,3l1.7-0.6l-1.4-3.9l-1.4,0.5v-1.1h3.1v5.7H245.4z M254.2,71l-1.4-0.5l-1.4,3.9l1.7,0.6l1-3v3.6h-3.1v-5.7h3.1
			V71z"/>
	</g>
	<g>
		<path class="st0" d="M202.1,66.6h-2.7v5.2h-3.2v2.7h3.2v5.8h-3.2v2.7h3.2v6c0,0.8-0.4,1.4-1.1,1.7c-0.7,0.3-1.5,0.3-1.5,0.3v2.7
			c2.1,0,5.3-1.3,5.3-4.7v-6h2.7v-2.7h-2.7v-5.8h2.7v-2.7h-2.7V66.6z"/>
		<path class="st0" d="M219.8,90.1c-2.4-0.9-3.3-1.6-3.9-3.6h7.9v-2.7h-1.5l0-10.4h-5.3l2.2-3.1v-2.3h-8.2v-1.5h-2.7v1.8
			c0,0.2,0,0.3-0.1,0.4c-0.5,0.5-1.8,0.7-2.5,0.6l-0.1,2.7c0,0,0.1,0,0.1,0c0.6,0,2.9-0.1,4.3-1.3h5.3l-1.8,2.7h-6.9l0,10.4h-1.4
			v2.7h7.9c-0.5,1.9-1.5,2.7-3.9,3.6c-2.2,0.8-4.4,0.8-4.4,0.8v2.7c0.1,0,2.7,0,5.3-1c2-0.7,3.5-1.8,4.4-3.1c1,1.4,2.4,2.4,4.4,3.1
			c2.6,1,5.2,1,5.3,1l0-2.7C224.3,91,222,90.9,219.8,90.1z M217.2,76.1h2.5v3.4c-1.3-0.2-3.8-0.8-3.8-3.2v-0.3H217.2z M211.9,76.1
			h1.4v0.3c0,2.5-2.7,3.1-3.9,3.2v-3.5H211.9z M213.2,82.7v1.2h-3.9v-1.2v-0.3v-0.2c1.7-0.1,3.9-0.7,5.3-2.3
			c1.4,1.5,3.5,2.1,5.1,2.3v0.2v0.3v1.2h-3.8v-1.2H213.2z"/>
	</g>
</g>
<g>
	<g>
		<path class="st0" d="M181.8,141v-15.6c0-7.4,5.5-11.5,12.4-11.5c6.9,0,12.4,4.1,12.4,11.4V141c0,6.6-5.9,11-12.3,11
			C187.7,152,181.8,148.1,181.8,141z M196.7,141.1v-16.5c0-1.3-0.8-2.4-2.5-2.4c-1.8,0-2.4,1.1-2.4,2.4v16.6c0,1.2,0.7,2.4,2.5,2.4
			C196.1,143.6,196.7,142.4,196.7,141.1z M226.6,175.3V160c0-7.4,5.5-11.8,12.4-11.8c6.9,0,12.4,4.1,12.4,11.4v15.5
			c0,6.6-6,11.2-12.3,11.2C232.5,186.3,226.6,182.4,226.6,175.3z M241.4,175.4V159c0-1.2-0.7-2.4-2.4-2.4s-2.4,1.2-2.4,2.4v16.6
			c0,1.3,0.6,2.5,2.4,2.5C240.9,178,241.4,176.7,241.4,175.4z"/>
	</g>
	<g>
		<path class="st0" d="M317.8,139.8v-7.6c0-12.5-10.7-18.1-21.3-18.1c-6,0-11.5,1.7-15.4,4.9c-4.3,3.5-6.5,8.4-6.5,14.4v32.8
			c0,6.3,2.2,11.5,6.4,15c3.9,3.2,9.3,4.9,15.6,4.9c13.2,0,21.1-7,21.1-18.6v-6.9v-0.9v-13.1h-21.3v14h4.2v6.2
			c0,2.8-1.3,4.1-3.9,4.1c-2.7,0-4.2-1.8-4.2-4.8v-32.4c0-2.9,1.5-4.4,4.3-4.4c2.3,0,4.8,1.3,4.8,4v6.6H317.8z"/>
	</g>
	<path class="st0" d="M409,115.1h-43.6v15.1h14.2v55h0h14.9h0v-55H409V115.1z M393.4,184h-12.6v-12.6h12.6V184z M393.4,170.2h-12.6
		v-12.6h12.6V170.2z M393.4,156.4h-12.6v-12.6h12.6V156.4z M393.4,142.6h-12.6v-12.5h12.6V142.6z"/>
	<g>
		<path class="st0" d="M63.1,131.1l-4.9,0.8l-2.2-12l13.7-5h8.9V185H63.1V131.1z"/>
	</g>
	<g>
		<path class="st0" d="M88.4,169.2v-38.3c0-11.5,9.1-16.9,19.2-16.9c9.9,0,19.2,5.4,19.2,17v38.2c0,11.5-8.9,16.9-19.1,16.9
			C97.4,186.1,88.4,180.9,88.4,169.2z M111.2,169.5v-38.9c0-1.9-1.5-3-3.5-3c-2.1,0-3.4,1.3-3.4,2.9v39.1c0,1.8,1.2,3.2,3.4,3.2
			C110.1,172.8,111.2,171.2,111.2,169.5z"/>
	</g>
	<g>
		<path class="st0" d="M133.7,169.2v-38.3c0-11.5,9.1-16.9,19.2-16.9c9.9,0,19.2,5.4,19.2,17v38.2c0,11.5-8.9,16.9-19.1,16.9
			C142.6,186.1,133.7,180.9,133.7,169.2z M156.5,169.5v-38.9c0-1.9-1.5-3-3.5-3c-2.1,0-3.4,1.3-3.4,2.9v39.1c0,1.8,1.2,3.2,3.4,3.2
			C155.4,172.8,156.5,171.2,156.5,169.5z"/>
	</g>
	<g>
		<path class="st0" d="M324,115.1h36.6v14.1h-19.9v13.1h15.8v14.2h-15.8v14.2h20V185H324V115.1z"/>
	</g>
	<path class="st0" d="M223.3,114l-29.5,72.2h16.6l29.2-71.5l0.3-0.7H223.3z M233.2,115.1l-28.7,70.2h-4l28.7-70.2H233.2z M224,115.1
		h4.1l-28.7,70.2h-4.1L224,115.1z M209.6,185.3h-4l28.7-70.2h4L209.6,185.3z"/>
</g>
</svg>
