<svg width="445" height="206" viewBox="0 0 445 206" fill="none" xmlns="http://www.w3.org/2000/svg">
<path opacity="0.5" d="M444.356 135.94H396.272L396.292 76.9195H366.671L366.651 135.94H67.0196V70.4298H37.3885V135.94H0V165.571H37.3885V205.274H67.0196V165.571H444.356V135.94Z" fill="white"/>
<path d="M389.932 116.276C387.376 117.014 384.424 118.256 382.768 119.444C383.128 119.678 383.596 120.182 383.848 120.506C385.27 119.408 387.97 118.13 390.31 117.482L389.932 116.276ZM390.274 112.91C387.646 112.37 385.162 111.362 383.56 109.958C383.362 110.3 382.93 110.858 382.696 111.11C384.442 112.514 387.142 113.612 390.004 114.296L390.274 112.91ZM380.878 110.516C381.364 110.156 383.344 108.608 383.974 108.05H385.54V110.372H386.782V108.05H390.634V106.772H386.782V104.09H385.54V106.61C383.074 106.034 380.266 104.846 378.754 103.676C378.448 103.892 377.908 104.216 377.548 104.36C378.736 105.26 380.698 106.124 382.714 106.772H374.218V108.05H382.408C381.526 108.662 380.41 109.382 379.816 109.688L380.878 110.516ZM379.834 116.33C378.88 116.96 377.764 117.608 376.702 118.166C376.594 116.42 376.486 114.692 376.414 113.144C378.394 114.026 381.112 115.016 383.308 115.718L383.704 114.224C381.454 113.684 378.358 112.676 376.342 111.794C376.306 111.128 376.27 110.498 376.252 109.958L374.902 110.192C375.046 112.424 375.262 115.628 375.496 118.742C375.01 118.958 374.56 119.156 374.164 119.282L374.812 120.506C376.288 119.984 378.628 118.67 380.392 117.464L379.834 116.33ZM387.844 124.448V138.128H389.032V131.306H390.616V129.938H389.032V123.188H383.488C380.914 123.188 377.386 123.08 374.884 121.712C374.74 122.018 374.362 122.576 374.128 122.792C376.792 124.25 380.752 124.448 383.488 124.448H387.844ZM379.348 133.268H380.698V135.446H379.348V133.268ZM379.348 130.046H380.698V132.08H379.348V130.046ZM382.876 130.046V132.08H381.634V130.046H382.876ZM384.982 130.046V132.08H383.812V130.046H384.982ZM382.876 135.446H381.634V133.268H382.876V135.446ZM380.68 136.652V138.326H381.706V136.652H383.812V133.268H384.982V137.966H386.008V133.898C386.422 134.222 386.926 134.6 387.466 134.96L387.772 133.682C387.322 133.43 386.62 132.998 386.134 132.638L386.008 133.142V128.948L386.17 129.56C386.602 129.38 387.25 128.966 387.7 128.606L387.43 127.4C386.998 127.742 386.44 128.066 386.008 128.246V125.294H384.982V128.84H383.812V125.96H382.876V128.84H381.634V125.06H380.698V128.84H379.348V125.816H378.412V128.408C377.17 127.4 376.018 125.834 375.424 124.376C375.208 124.646 374.776 125.024 374.488 125.222C375.1 126.482 376.162 127.814 377.35 128.84H374.326V130.046H378.412V132.08H374.326V133.268H377.53C376.27 134.294 375.1 135.716 374.452 136.994C374.776 137.192 375.244 137.588 375.478 137.876C376.054 136.418 377.206 134.834 378.412 133.844V136.652H380.68ZM380.68 148.928C381.256 149.882 381.976 150.8 382.804 151.628C382.03 152.402 381.274 153.284 380.68 154.292V148.928ZM376.054 149.36H379.51V153.86H376.054V149.36ZM381.796 146.714V144.5H384.388V146.57H384.928C384.712 146.894 384.334 147.308 384.136 147.506C384.73 148.082 385.414 148.64 386.206 149.144C385.396 149.594 384.55 150.134 383.74 150.8C382.498 149.576 381.544 148.154 380.932 146.714H381.796ZM388.708 141.944V145.328H385.558V141.944H388.708ZM387.628 153.428C386.512 152.978 385.504 152.33 384.586 151.574C385.468 150.836 386.404 150.242 387.286 149.792L387.628 149.972V153.428ZM388.852 154.238L388.798 154.004V150.53C389.284 150.728 389.806 150.926 390.328 151.106L390.634 149.828C388.474 149.162 386.458 147.992 385.108 146.57H389.878V140.756H384.388V143.276H377.116L376.792 141.89H382.696V140.756H376.558L376.36 139.838L375.064 140.09C375.532 141.98 376.144 144.536 376.738 146.984L377.944 146.858C377.746 146.066 377.566 145.274 377.386 144.5H380.608V146.39C380.356 146.642 379.978 146.912 379.708 147.038C379.87 147.398 380.032 147.758 380.23 148.118H374.218V149.36H374.866V153.86H374.272V155.138H380.212C380.122 155.336 380.032 155.534 379.942 155.714C380.284 155.894 380.788 156.272 381.04 156.542C381.652 154.922 382.606 153.554 383.686 152.438C385.018 153.554 386.602 154.49 388.474 155.066L388.852 154.238Z" fill="#454547"/>
<path d="M204.345 141.818C205.083 144.374 206.325 147.326 207.513 148.982C207.747 148.622 208.251 148.154 208.575 147.902C207.477 146.48 206.199 143.78 205.551 141.44L204.345 141.818ZM200.979 141.476C200.439 144.104 199.431 146.588 198.027 148.19C198.369 148.388 198.927 148.82 199.179 149.054C200.583 147.308 201.681 144.608 202.365 141.746L200.979 141.476ZM198.585 150.872C198.225 150.386 196.677 148.406 196.119 147.776V146.21H198.441V144.968H196.119V141.116H194.841V144.968H192.159V146.21H194.679C194.103 148.676 192.915 151.484 191.745 152.996C191.961 153.302 192.285 153.842 192.429 154.202C193.329 153.014 194.193 151.052 194.841 149.036V157.532H196.119V149.342C196.731 150.224 197.451 151.34 197.757 151.934L198.585 150.872ZM204.399 151.916C205.029 152.87 205.677 153.986 206.235 155.048C204.489 155.156 202.761 155.264 201.213 155.336C202.095 153.356 203.085 150.638 203.787 148.442L202.293 148.046C201.753 150.296 200.745 153.392 199.863 155.408C199.197 155.444 198.567 155.48 198.027 155.498L198.261 156.848C200.493 156.704 203.697 156.488 206.811 156.254C207.027 156.74 207.225 157.19 207.351 157.586L208.575 156.938C208.053 155.462 206.739 153.122 205.533 151.358L204.399 151.916ZM218.079 148.802C217.575 148.442 215.505 147.182 214.803 146.804C214.839 146.696 214.875 146.606 214.893 146.498H218.223V145.4H215.091C215.127 145.166 215.127 144.968 215.127 144.752V143.708H217.773V142.628H212.877C213.057 142.196 213.237 141.764 213.363 141.314L212.157 141.08C211.743 142.43 211.041 143.78 210.123 144.662C210.429 144.806 210.951 145.13 211.203 145.31C211.599 144.878 211.995 144.32 212.337 143.708H213.849V144.752C213.849 144.968 213.849 145.166 213.813 145.4H210.123V146.498H213.579C213.201 147.596 212.247 148.784 209.961 149.684C210.267 149.882 210.645 150.314 210.807 150.602C212.697 149.738 213.777 148.73 214.389 147.704C215.289 148.316 216.621 149.27 217.143 149.72L218.079 148.802ZM222.363 151.286V152.978H214.047V151.286H222.363ZM214.047 155.804V154.022H222.363V155.804H214.047ZM212.733 157.568H214.047V156.902H222.363V157.532H223.713V150.188H212.733V157.568ZM223.929 147.596H220.221V143.78H223.929V147.596ZM218.961 142.574V148.82H225.243V142.574H218.961ZM236.997 151.07C237.951 150.494 238.869 149.774 239.697 148.946C240.471 149.72 241.353 150.476 242.361 151.07H236.997ZM237.429 155.696V152.24H241.929V155.696H237.429ZM234.783 149.954H232.569V147.362H234.639V146.822C234.963 147.038 235.377 147.416 235.575 147.614C236.151 147.02 236.709 146.336 237.213 145.544C237.663 146.354 238.203 147.2 238.869 148.01C237.645 149.252 236.223 150.206 234.783 150.818V149.954ZM230.013 143.042H233.397V146.192H230.013V143.042ZM241.497 144.122C241.047 145.238 240.399 146.246 239.643 147.164C238.905 146.282 238.311 145.346 237.861 144.464L238.041 144.122H241.497ZM242.307 142.898L242.073 142.952H238.599C238.797 142.466 238.995 141.944 239.175 141.422L237.897 141.116C237.231 143.276 236.061 145.292 234.639 146.642V141.872H228.825V147.362H231.345V154.634L229.959 154.958V149.054H228.825V155.192L227.907 155.39L228.159 156.686C230.049 156.218 232.605 155.606 235.053 155.012L234.927 153.806C234.135 154.004 233.343 154.184 232.569 154.364V151.142H234.459C234.711 151.394 234.981 151.772 235.107 152.042C235.467 151.88 235.827 151.718 236.187 151.52V157.532H237.429V156.884H241.929V157.478H243.207V151.538C243.405 151.628 243.603 151.718 243.783 151.808C243.963 151.466 244.341 150.962 244.611 150.71C242.991 150.098 241.623 149.144 240.507 148.064C241.623 146.732 242.559 145.148 243.135 143.276L242.307 142.898Z" fill="#454547"/>
<path opacity="0.5" d="M358.633 176.57H440.533C442.172 176.57 443.501 177.899 443.501 179.537V200.596C443.501 202.235 442.172 203.563 440.533 203.563H358.633C356.994 203.563 355.666 202.235 355.666 200.596V179.537C355.666 177.899 356.994 176.57 358.633 176.57Z" stroke="white" stroke-width="3"/>
<path d="M378.517 192.115V196.399H369.895V192.115H378.517ZM368.545 198.469H369.895V197.677H378.517V198.433H379.939V190.855H368.545V198.469ZM376.429 184.861C377.203 185.509 378.013 186.265 378.769 187.039C375.979 187.165 373.153 187.291 370.687 187.381C371.695 185.923 372.775 184.087 373.603 182.485L372.127 181.981C371.425 183.637 370.201 185.851 369.139 187.453C368.149 187.489 367.231 187.525 366.439 187.543L366.529 188.875C369.823 188.731 375.007 188.551 379.903 188.281C380.425 188.911 380.875 189.505 381.181 190.009L382.333 189.127C381.415 187.651 379.291 185.545 377.473 184.105L376.429 184.861ZM389.065 186.589H384.457V187.903H389.065V192.943C387.139 193.681 385.213 194.437 383.899 194.851L384.529 196.201C385.825 195.661 387.445 194.977 389.065 194.275V198.307H390.415V182.377H389.065V186.589ZM395.707 196.759C394.933 196.759 394.771 196.579 394.771 195.643V189.721C396.661 188.659 398.713 187.453 400.207 186.265L399.217 185.113C398.137 186.139 396.445 187.327 394.771 188.335V182.395H393.421V195.625C393.421 197.533 393.889 198.073 395.563 198.073H398.443C400.189 198.073 400.549 196.903 400.711 193.645C400.333 193.555 399.757 193.285 399.433 193.015C399.307 195.985 399.181 196.759 398.353 196.759H395.707ZM409.172 197.101H410.738V184.231H409.28L406.292 186.391V187.849L409.172 185.779V197.101ZM419.08 195.967C416.938 195.967 415.57 194.275 415.57 191.017V190.297C415.57 187.129 416.866 185.329 419.044 185.329C421.222 185.329 422.482 187.273 422.482 190.261V190.981C422.482 194.239 421.33 195.967 419.08 195.967ZM419.08 197.263C422.248 197.263 424.066 194.743 424.066 190.999V190.279C424.066 186.607 422.212 184.069 419.044 184.069C415.894 184.069 413.968 186.517 413.968 190.315V191.035C413.968 194.779 416.002 197.263 419.08 197.263ZM428.614 197.101H430.18V184.231H428.722L425.734 186.391V187.849L428.614 185.779V197.101Z" fill="#454547"/>
<path d="M217.399 129.511C215.594 129.511 213.83 128.976 212.329 127.973C210.828 126.97 209.659 125.545 208.968 123.877C208.277 122.21 208.097 120.375 208.449 118.605C208.801 116.834 209.67 115.208 210.946 113.932C212.223 112.656 213.849 111.787 215.619 111.435C217.389 111.082 219.224 111.263 220.892 111.954C222.559 112.645 223.984 113.814 224.987 115.315C225.99 116.816 226.525 118.58 226.525 120.385C226.522 122.805 225.56 125.124 223.849 126.835C222.138 128.546 219.819 129.508 217.399 129.511ZM217.399 113.412C216.006 113.412 214.645 113.825 213.486 114.599C212.328 115.373 211.425 116.473 210.892 117.76C210.359 119.047 210.22 120.463 210.491 121.829C210.763 123.196 211.434 124.451 212.419 125.436C213.404 126.421 214.659 127.091 216.025 127.363C217.391 127.635 218.808 127.495 220.094 126.962C221.381 126.429 222.481 125.527 223.255 124.368C224.029 123.21 224.442 121.848 224.442 120.455C224.446 119.528 224.267 118.609 223.915 117.751C223.563 116.893 223.045 116.113 222.39 115.456C221.736 114.799 220.958 114.277 220.101 113.921C219.245 113.565 218.327 113.382 217.399 113.382V113.412Z" fill="white"/>
<path d="M217.399 124.549C219.699 124.549 221.564 122.684 221.564 120.384C221.564 118.083 219.699 116.219 217.399 116.219C215.098 116.219 213.233 118.083 213.233 120.384C213.233 122.684 215.098 124.549 217.399 124.549Z" fill="white"/>
<path d="M61.0029 144.227C58.4469 144.965 55.4949 146.207 53.8389 147.395C54.1989 147.629 54.6669 148.133 54.9189 148.457C56.3409 147.359 59.0409 146.081 61.3809 145.433L61.0029 144.227ZM61.3449 140.861C58.7169 140.321 56.2329 139.313 54.6309 137.909C54.4329 138.251 54.0009 138.809 53.7669 139.061C55.5129 140.465 58.2129 141.563 61.0749 142.247L61.3449 140.861ZM51.9489 138.467C52.4349 138.107 54.4149 136.559 55.0449 136.001H56.6109V138.323H57.8529V136.001H61.7049V134.723H57.8529V132.041H56.6109V134.561C54.1449 133.985 51.3369 132.797 49.8249 131.627C49.5189 131.843 48.9789 132.167 48.6189 132.311C49.8069 133.211 51.7689 134.075 53.7849 134.723H45.2889V136.001H53.4789C52.5969 136.613 51.4809 137.333 50.8869 137.639L51.9489 138.467ZM50.9049 144.281C49.9509 144.911 48.8349 145.559 47.7729 146.117C47.6649 144.371 47.5569 142.643 47.4849 141.095C49.4649 141.977 52.1829 142.967 54.3789 143.669L54.7749 142.175C52.5249 141.635 49.4289 140.627 47.4129 139.745C47.3769 139.079 47.3409 138.449 47.3229 137.909L45.9729 138.143C46.1169 140.375 46.3329 143.579 46.5669 146.693C46.0809 146.909 45.6309 147.107 45.2349 147.233L45.8829 148.457C47.3589 147.935 49.6989 146.621 51.4629 145.415L50.9049 144.281ZM58.7529 157.349V151.787H57.8529V164.315H58.7529V158.663H59.7069V165.683H60.6429V158.663H61.7049V157.349H60.6429V150.491H59.7069V157.349H58.7529ZM54.1809 165.197C54.8649 165.467 55.9269 165.791 56.8809 166.061L57.0609 165.179L57.0249 164.945V150.221H56.0349V164.549C55.4409 164.387 54.8469 164.243 54.4149 164.099L54.1809 165.197ZM53.5329 151.427H52.7049V164.657H53.5329V158.645H54.4509V163.127H55.2429V152.831H54.4509V157.367H53.5329V151.427ZM49.1049 155.459H47.2329V152.489H49.1049V155.459ZM50.0409 156.665V151.301H45.6309V152.489H46.2969V156.665H50.0409ZM48.0789 158.033C47.5389 158.645 46.7649 159.347 46.2429 159.671L46.9449 160.589C47.4489 160.247 48.1869 159.527 48.6909 158.915L48.0789 158.033ZM50.9049 166.277H51.9309V149.843H50.9049V162.605H49.8249V157.367H48.8529V162.605H46.4949C46.3149 162.605 46.2609 162.551 46.2609 162.371C46.2429 162.173 46.2429 161.579 46.2609 160.913C45.9729 161.057 45.5769 161.219 45.2529 161.273C45.2529 162.227 45.2529 162.893 45.4149 163.307C45.5949 163.757 45.8649 163.865 46.4589 163.865H48.8529V165.647H49.8249V163.865H50.9049V166.277ZM51.7509 176.879C52.3269 177.833 53.0469 178.751 53.8749 179.579C53.1009 180.353 52.3449 181.235 51.7509 182.243V176.879ZM47.1249 177.311H50.5809V181.811H47.1249V177.311ZM52.8669 174.665V172.451H55.4589V174.521H55.9989C55.7829 174.845 55.4049 175.259 55.2069 175.457C55.8009 176.033 56.4849 176.591 57.2769 177.095C56.4669 177.545 55.6209 178.085 54.8109 178.751C53.5689 177.527 52.6149 176.105 52.0029 174.665H52.8669ZM59.7789 169.895V173.279H56.6289V169.895H59.7789ZM58.6989 181.379C57.5829 180.929 56.5749 180.281 55.6569 179.525C56.5389 178.787 57.4749 178.193 58.3569 177.743L58.6989 177.923V181.379ZM59.9229 182.189L59.8689 181.955V178.481C60.3549 178.679 60.8769 178.877 61.3989 179.057L61.7049 177.779C59.5449 177.113 57.5289 175.943 56.1789 174.521H60.9489V168.707H55.4589V171.227H48.1869L47.8629 169.841H53.7669V168.707H47.6289L47.4309 167.789L46.1349 168.041C46.6029 169.931 47.2149 172.487 47.8089 174.935L49.0149 174.809C48.8169 174.017 48.6369 173.225 48.4569 172.451H51.6789V174.341C51.4269 174.593 51.0489 174.863 50.7789 174.989C50.9409 175.349 51.1029 175.709 51.3009 176.069H45.2889V177.311H45.9369V181.811H45.3429V183.089H51.2829C51.1929 183.287 51.1029 183.485 51.0129 183.665C51.3549 183.845 51.8589 184.223 52.1109 184.493C52.7229 182.873 53.6769 181.505 54.7569 180.389C56.0889 181.505 57.6729 182.441 59.5449 183.017L59.9229 182.189Z" fill="#454547"/>
<path fill-rule="evenodd" clip-rule="evenodd" d="M60.3057 0C54.7828 0 50.3057 4.47716 50.3057 10V83.5718C50.3057 89.0947 54.7828 93.5718 60.3057 93.5718H208.96L218.332 104.64L227.705 93.5718H375.353C380.876 93.5718 385.353 89.0947 385.353 83.5718V10C385.353 4.47715 380.876 0 375.353 0H60.3057Z" fill="url(#paint0_linear_299_1718)"/>
<path d="M81.6746 39.7372H74.5261L72.9207 44.1903H70.6003L77.116 27.1278H79.0847L85.6121 44.1903H83.3035L81.6746 39.7372ZM75.2058 37.8856H81.0066L78.1003 29.9052L75.2058 37.8856ZM98.1746 28.9794H92.6902V44.1903H90.4519V28.9794H84.9792V27.1278H98.1746V28.9794ZM112.682 28.9794H107.198V44.1903H104.96V28.9794H99.4871V27.1278H112.682V28.9794ZM129.288 38.4598H131.655V40.2294H129.288V44.1903H127.108V40.2294H119.339V38.952L126.979 27.1278H129.288V38.4598ZM121.8 38.4598H127.108V30.0927L126.85 30.5614L121.8 38.4598ZM149.538 36.6552H142.378V44.1903H140.128V27.1278H150.698V28.9794H142.378V34.8153H149.538V36.6552ZM165.405 27.1278V38.7294C165.397 40.3387 164.889 41.6552 163.882 42.6786C162.882 43.702 161.522 44.2762 159.803 44.4012L159.206 44.4247C157.339 44.4247 155.85 43.9208 154.741 42.913C153.632 41.9052 153.069 40.5184 153.053 38.7528V27.1278H155.28V38.6825C155.28 39.9169 155.62 40.8778 156.3 41.5653C156.979 42.245 157.948 42.5848 159.206 42.5848C160.479 42.5848 161.452 42.245 162.124 41.5653C162.803 40.8856 163.143 39.9286 163.143 38.6942V27.1278H165.405ZM182.069 44.1903H179.807L171.218 31.0419V44.1903H168.956V27.1278H171.218L179.831 40.3348V27.1278H182.069V44.1903ZM210.774 25.2543H199.782V26.7183H210.774V25.2543ZM196.734 24.1743C195.342 27.7983 193.014 31.3503 190.59 33.6303C190.902 34.0383 191.43 34.9743 191.598 35.3583C192.51 34.4463 193.398 33.3903 194.262 32.1903V45.9423H195.942V29.6223C196.878 28.0623 197.718 26.3583 198.39 24.6783L196.734 24.1743ZM209.646 39.8943V43.4223H200.958V39.8943H209.646ZM199.23 46.0143H200.958V44.8863H209.646V45.9423H211.422V38.4543H199.23V46.0143ZM199.494 36.6063H211.158V35.1663H199.494V36.6063ZM211.206 31.8543H199.494V33.3183H211.206V31.8543ZM197.526 28.5423V30.0303H213.03V28.5423H197.526ZM236.646 32.3823H226.902V30.8463H234.366V29.5023H226.902V28.0383H235.638V26.6463H230.694C231.126 26.0463 231.654 25.2783 232.134 24.5583L230.238 24.0543C229.926 24.7983 229.326 25.9023 228.87 26.6463H223.134L223.302 26.5743C223.014 25.8543 222.318 24.8463 221.622 24.1263L220.086 24.6543C220.566 25.2543 221.07 25.9983 221.406 26.6463H216.486V28.0383H225.102V29.5023H217.758V30.8463H225.102V32.3823H215.454V33.7983H236.646V32.3823ZM235.35 36.2463C234.51 35.5263 232.83 34.6383 231.462 34.1343L230.502 35.1903C231.87 35.7663 233.526 36.7023 234.318 37.4223L235.35 36.2463ZM233.31 39.3663C232.662 40.2063 231.774 40.9743 230.766 41.6463C230.31 40.9023 229.902 40.0383 229.566 39.0543H236.718V37.6623H229.182C228.942 36.5823 228.774 35.4063 228.726 34.1583H226.998C227.07 35.3823 227.214 36.5583 227.454 37.6623H222.222V35.8143C223.662 35.6463 225.006 35.4063 226.11 35.1423L225.03 34.0143C222.894 34.5663 218.982 34.9983 215.718 35.1903C215.886 35.5023 216.078 36.0063 216.126 36.3663C217.518 36.2943 219.03 36.1743 220.518 36.0303V37.6623H215.43V39.0543H220.518V40.8063C218.55 40.9503 216.75 41.0703 215.334 41.1663L215.502 42.6063L220.518 42.1503V44.2143C220.518 44.5503 220.398 44.6223 220.038 44.6223C219.678 44.6463 218.43 44.6463 217.134 44.5983C217.326 45.0063 217.59 45.6063 217.686 46.0143C219.486 46.0143 220.614 46.0143 221.31 45.7743C221.982 45.5823 222.222 45.1743 222.222 44.2623V42.0063C223.638 41.8623 225.078 41.7423 226.518 41.5983V40.3263L222.222 40.6623V39.0543H227.814C228.198 40.3503 228.702 41.5023 229.302 42.4863C227.646 43.3503 225.75 44.0463 223.878 44.5263C224.166 44.8623 224.622 45.6063 224.814 45.9423C226.638 45.3663 228.486 44.6223 230.166 43.7103C231.414 45.1743 232.926 46.0143 234.63 46.0143C236.142 45.9903 236.766 45.3423 237.03 42.7983C236.574 42.6783 236.022 42.3903 235.662 42.1023C235.542 43.8063 235.35 44.3583 234.702 44.3823C233.622 44.4063 232.566 43.8303 231.63 42.8223C232.902 41.9823 234.006 40.9983 234.846 39.8943L233.31 39.3663ZM257.07 43.4943H246.702V38.8863H257.07V43.4943ZM252.438 29.4063H250.638V37.3023H244.95V46.0383H246.702V45.1023H257.07V45.9903H258.87V37.3023H252.438V33.8703H260.478V32.2623H252.438V29.4063ZM251.646 27.1983V24.1263H249.822V27.1983H241.014V33.3903C241.014 36.7983 240.822 41.5983 238.878 45.0303C239.31 45.2223 240.078 45.7263 240.39 46.0383C242.43 42.4143 242.766 37.0383 242.766 33.3903V28.9023H260.814V27.1983H251.646Z" fill="white"/>
<path d="M76.6791 70.139H75.0443V59.3021L71.766 60.5062V59.0297L76.4242 57.2806H76.6791V70.139ZM86.7865 70.139H85.1517V59.3021L81.8734 60.5062V59.0297L86.5316 57.2806H86.7865V70.139ZM99.5746 64.681C99.5746 66.5853 99.2494 68.0004 98.599 68.9261C97.9486 69.8519 96.932 70.3148 95.5492 70.3148C94.184 70.3148 93.1732 69.8636 92.517 68.9613C91.8607 68.0531 91.5209 66.6996 91.4974 64.9008V62.7299C91.4974 60.849 91.8226 59.4515 92.473 58.5375C93.1234 57.6234 94.1429 57.1664 95.5316 57.1664C96.9086 57.1664 97.9222 57.6088 98.5726 58.4935C99.223 59.3724 99.557 60.7318 99.5746 62.5717V64.681ZM97.9486 62.4574C97.9486 61.0804 97.7552 60.0785 97.3685 59.4515C96.9818 58.8187 96.3695 58.5023 95.5316 58.5023C94.6996 58.5023 94.0931 58.8158 93.7123 59.4427C93.3314 60.0697 93.1351 61.0336 93.1234 62.3344V64.9359C93.1234 66.3187 93.3226 67.3412 93.7211 68.0033C94.1254 68.6595 94.7347 68.9877 95.5492 68.9877C96.3519 68.9877 96.9467 68.6771 97.3334 68.056C97.726 67.4349 97.931 66.4564 97.9486 65.1205V62.4574ZM113.878 65.153V69.437H105.256V65.153H113.878ZM103.906 71.507H105.256V70.715H113.878V71.471H115.3V63.893H103.906V71.507ZM111.79 57.899C112.564 58.547 113.374 59.303 114.13 60.077C111.34 60.203 108.514 60.329 106.048 60.419C107.056 58.961 108.136 57.125 108.964 55.523L107.488 55.019C106.786 56.675 105.562 58.889 104.5 60.491C103.51 60.527 102.592 60.563 101.8 60.581L101.89 61.913C105.184 61.769 110.368 61.589 115.264 61.319C115.786 61.949 116.236 62.543 116.542 63.047L117.694 62.165C116.776 60.689 114.652 58.583 112.834 57.143L111.79 57.899ZM124.426 59.627H119.818V60.941H124.426V65.981C122.5 66.719 120.574 67.475 119.26 67.889L119.89 69.239C121.186 68.699 122.806 68.015 124.426 67.313V71.345H125.776V55.415H124.426V59.627ZM131.068 69.797C130.294 69.797 130.132 69.617 130.132 68.681V62.759C132.022 61.697 134.074 60.491 135.568 59.303L134.578 58.151C133.498 59.177 131.806 60.365 130.132 61.373V55.433H128.782V68.663C128.782 70.571 129.25 71.111 130.924 71.111H133.804C135.55 71.111 135.91 69.941 136.072 66.683C135.694 66.593 135.118 66.323 134.794 66.053C134.668 69.023 134.542 69.797 133.714 69.797H131.068ZM153.658 58.871V57.557H146.242V55.001H144.838V57.557H137.566V58.871H144.856V61.301H139.402V69.293H140.734V62.579H144.856V71.561H146.224V62.579H150.616V67.601C150.616 67.835 150.526 67.907 150.22 67.943C149.896 67.943 148.816 67.943 147.61 67.907C147.79 68.285 148.006 68.825 148.078 69.221C149.59 69.221 150.598 69.221 151.228 68.987C151.822 68.771 152.002 68.375 152.002 67.601V61.301H146.224V58.871H153.658ZM170.146 55.937H161.902V57.035H170.146V55.937ZM159.616 55.127C158.572 57.845 156.826 60.509 155.008 62.219C155.242 62.525 155.638 63.227 155.764 63.515C156.448 62.831 157.114 62.039 157.762 61.139V71.453H159.022V59.213C159.724 58.043 160.354 56.765 160.858 55.505L159.616 55.127ZM169.3 66.917V69.563H162.784V66.917H169.3ZM161.488 71.507H162.784V70.661H169.3V71.453H170.632V65.837H161.488V71.507ZM161.686 64.451H170.434V63.371H161.686V64.451ZM170.47 60.887H161.686V61.985H170.47V60.887ZM160.21 58.403V59.519H171.838V58.403H160.21ZM189.55 61.283H182.242V60.131H187.84V59.123H182.242V58.025H188.794V56.981H185.086C185.41 56.531 185.806 55.955 186.166 55.415L184.744 55.037C184.51 55.595 184.06 56.423 183.718 56.981H179.416L179.542 56.927C179.326 56.387 178.804 55.631 178.282 55.091L177.13 55.487C177.49 55.937 177.868 56.495 178.12 56.981H174.43V58.025H180.892V59.123H175.384V60.131H180.892V61.283H173.656V62.345H189.55V61.283ZM188.578 64.181C187.948 63.641 186.688 62.975 185.662 62.597L184.942 63.389C185.968 63.821 187.21 64.523 187.804 65.063L188.578 64.181ZM187.048 66.521C186.562 67.151 185.896 67.727 185.14 68.231C184.798 67.673 184.492 67.025 184.24 66.287H189.604V65.243H183.952C183.772 64.433 183.646 63.551 183.61 62.615H182.314C182.368 63.533 182.476 64.415 182.656 65.243H178.732V63.857C179.812 63.731 180.82 63.551 181.648 63.353L180.838 62.507C179.236 62.921 176.302 63.245 173.854 63.389C173.98 63.623 174.124 64.001 174.16 64.271C175.204 64.217 176.338 64.127 177.454 64.019V65.243H173.638V66.287H177.454V67.601C175.978 67.709 174.628 67.799 173.566 67.871L173.692 68.951L177.454 68.609V70.157C177.454 70.409 177.364 70.463 177.094 70.463C176.824 70.481 175.888 70.481 174.916 70.445C175.06 70.751 175.258 71.201 175.33 71.507C176.68 71.507 177.526 71.507 178.048 71.327C178.552 71.183 178.732 70.877 178.732 70.193V68.501C179.794 68.393 180.874 68.303 181.954 68.195V67.241L178.732 67.493V66.287H182.926C183.214 67.259 183.592 68.123 184.042 68.861C182.8 69.509 181.378 70.031 179.974 70.391C180.19 70.643 180.532 71.201 180.676 71.453C182.044 71.021 183.43 70.463 184.69 69.779C185.626 70.877 186.76 71.507 188.038 71.507C189.172 71.489 189.64 71.003 189.838 69.095C189.496 69.005 189.082 68.789 188.812 68.573C188.722 69.851 188.578 70.265 188.092 70.283C187.282 70.301 186.49 69.869 185.788 69.113C186.742 68.483 187.57 67.745 188.2 66.917L187.048 66.521ZM207.73 69.419H193.636V57.053H207.262V55.847H192.322V71.507H193.636V70.643H207.73V69.419ZM202.492 61.283H198.37V59.213H202.492V61.283ZM203.806 58.259H197.128V62.255H203.806V58.259ZM196.3 64.433H198.694V67.097H196.3V64.433ZM195.184 68.069H199.864V63.461H195.184V68.069ZM204.724 67.097H202.222V64.433H204.724V67.097ZM205.912 63.461H201.07V68.069H205.912V63.461ZM221.77 55.775C222.508 58.331 223.75 61.283 224.938 62.939C225.172 62.579 225.676 62.111 226 61.859C224.902 60.437 223.624 57.737 222.976 55.397L221.77 55.775ZM218.404 55.433C217.864 58.061 216.856 60.545 215.452 62.147C215.794 62.345 216.352 62.777 216.604 63.011C218.008 61.265 219.106 58.565 219.79 55.703L218.404 55.433ZM216.01 64.829C215.65 64.343 214.102 62.363 213.544 61.733V60.167H215.866V58.925H213.544V55.073H212.266V58.925H209.584V60.167H212.104C211.528 62.633 210.34 65.441 209.17 66.953C209.386 67.259 209.71 67.799 209.854 68.159C210.754 66.971 211.618 65.009 212.266 62.993V71.489H213.544V63.299C214.156 64.181 214.876 65.297 215.182 65.891L216.01 64.829ZM221.824 65.873C222.454 66.827 223.102 67.943 223.66 69.005C221.914 69.113 220.186 69.221 218.638 69.293C219.52 67.313 220.51 64.595 221.212 62.399L219.718 62.003C219.178 64.253 218.17 67.349 217.288 69.365C216.622 69.401 215.992 69.437 215.452 69.455L215.686 70.805C217.918 70.661 221.122 70.445 224.236 70.211C224.452 70.697 224.65 71.147 224.776 71.543L226 70.895C225.478 69.419 224.164 67.079 222.958 65.315L221.824 65.873ZM234.892 58.025H229.33V58.925H241.858V58.025H236.206V57.071H243.226V56.135H236.206V55.073H234.892V56.135H228.034V57.071H234.892V58.025ZM242.74 62.597C243.01 61.913 243.334 60.851 243.604 59.897L242.722 59.717L242.488 59.753H227.764V60.743H242.092C241.93 61.337 241.786 61.931 241.642 62.363L242.74 62.597ZM228.97 63.245V64.073H242.2V63.245H236.188V62.327H240.67V61.535H230.374V62.327H234.91V63.245H228.97ZM233.002 67.673V69.545H230.032V67.673H233.002ZM234.208 66.737H228.844V71.147H230.032V70.481H234.208V66.737ZM235.576 68.699C236.188 69.239 236.89 70.013 237.214 70.535L238.132 69.833C237.79 69.329 237.07 68.591 236.458 68.087L235.576 68.699ZM243.82 65.873V64.847H227.386V65.873H240.148V66.953H234.91V67.925H240.148V70.283C240.148 70.463 240.094 70.517 239.914 70.517C239.716 70.535 239.122 70.535 238.456 70.517C238.6 70.805 238.762 71.201 238.816 71.525C239.77 71.525 240.436 71.525 240.85 71.363C241.3 71.183 241.408 70.913 241.408 70.319V67.925H243.19V66.953H241.408V65.873H243.82ZM254.422 65.027C255.376 64.451 256.294 63.731 257.122 62.903C257.896 63.677 258.778 64.433 259.786 65.027H254.422ZM254.854 69.653V66.197H259.354V69.653H254.854ZM252.208 63.911H249.994V61.319H252.064V60.779C252.388 60.995 252.802 61.373 253 61.571C253.576 60.977 254.134 60.293 254.638 59.501C255.088 60.311 255.628 61.157 256.294 61.967C255.07 63.209 253.648 64.163 252.208 64.775V63.911ZM247.438 56.999H250.822V60.149H247.438V56.999ZM258.922 58.079C258.472 59.195 257.824 60.203 257.068 61.121C256.33 60.239 255.736 59.303 255.286 58.421L255.466 58.079H258.922ZM259.732 56.855L259.498 56.909H256.024C256.222 56.423 256.42 55.901 256.6 55.379L255.322 55.073C254.656 57.233 253.486 59.249 252.064 60.599V55.829H246.25V61.319H248.77V68.591L247.384 68.915V63.011H246.25V69.149L245.332 69.347L245.584 70.643C247.474 70.175 250.03 69.563 252.478 68.969L252.352 67.763C251.56 67.961 250.768 68.141 249.994 68.321V65.099H251.884C252.136 65.351 252.406 65.729 252.532 65.999C252.892 65.837 253.252 65.675 253.612 65.477V71.489H254.854V70.841H259.354V71.435H260.632V65.495C260.83 65.585 261.028 65.675 261.208 65.765C261.388 65.423 261.766 64.919 262.036 64.667C260.416 64.055 259.048 63.101 257.932 62.021C259.048 60.689 259.984 59.105 260.56 57.233L259.732 56.855ZM269.001 70.139H267.367V59.3021L264.088 60.5062V59.0297L268.746 57.2806H269.001V70.139ZM282.15 70.139H273.765V68.9701L278.195 64.0482C278.851 63.3041 279.302 62.7006 279.548 62.2377C279.8 61.7689 279.926 61.2855 279.926 60.7875C279.926 60.1195 279.724 59.5717 279.32 59.1439C278.915 58.7162 278.376 58.5023 277.703 58.5023C276.894 58.5023 276.264 58.7338 275.813 59.1967C275.368 59.6537 275.145 60.2924 275.145 61.1127H273.519C273.519 59.9349 273.897 58.9828 274.653 58.2562C275.414 57.5297 276.431 57.1664 277.703 57.1664C278.892 57.1664 279.832 57.4799 280.524 58.1068C281.215 58.7279 281.561 59.557 281.561 60.5941C281.561 61.8539 280.758 63.3539 279.153 65.0941L275.725 68.8119H282.15V70.139ZM288.317 59.609H285.617V56.873H288.317V59.609ZM289.559 55.757H284.429V60.725H289.559V55.757ZM286.013 64.757C286.139 64.235 286.265 63.695 286.373 63.173H290.333V61.985H283.601V63.173H285.149C284.897 64.415 284.537 65.837 284.249 66.809L285.437 67.025C285.527 66.701 285.635 66.305 285.743 65.891H288.191C287.975 68.753 287.741 69.905 287.399 70.229C287.255 70.391 287.075 70.427 286.823 70.409C286.535 70.409 285.851 70.409 285.095 70.337C285.275 70.643 285.419 71.165 285.437 71.489C286.193 71.543 286.931 71.543 287.309 71.507C287.795 71.471 288.119 71.363 288.407 71.039C288.893 70.499 289.163 69.041 289.451 65.297C289.469 65.135 289.487 64.757 289.487 64.757H286.013ZM292.043 59.735H298.757C298.649 60.455 298.505 61.193 298.397 61.715L299.405 61.967C299.639 61.157 299.927 59.861 300.143 58.781L299.297 58.565L299.099 58.619H295.625V57.413H299.243V56.333H295.625V55.073H294.347V58.619H290.819V63.209C290.819 65.513 290.657 68.627 289.109 70.877C289.397 71.003 289.901 71.363 290.117 71.615C291.773 69.221 292.043 65.693 292.043 63.209V59.735ZM293.483 65.243C293.357 67.871 292.979 69.617 291.017 70.607C291.305 70.823 291.647 71.273 291.791 71.579C294.005 70.373 294.509 68.303 294.653 65.243H293.483ZM296.165 63.479C295.679 63.479 295.607 63.407 295.607 63.047V62.219L297.875 61.985L297.749 61.049L295.607 61.265V59.843H294.401V61.391L292.439 61.589L292.565 62.525L294.401 62.345V63.065C294.401 64.199 294.725 64.469 296.021 64.469H297.983C298.955 64.469 299.279 64.127 299.387 62.741C299.063 62.651 298.595 62.507 298.361 62.345C298.325 63.353 298.235 63.479 297.821 63.479H296.165ZM297.803 70.031C297.623 70.031 297.497 69.995 297.389 69.941C297.299 69.887 297.263 69.761 297.263 69.635V65.243H296.093V69.617C296.093 70.427 296.165 70.697 296.471 70.949C296.723 71.165 297.155 71.237 297.533 71.237H298.541C298.883 71.237 299.297 71.165 299.495 71.057C299.765 70.895 299.963 70.697 300.071 70.373C300.161 70.049 300.233 69.167 300.251 68.321C299.927 68.213 299.477 67.979 299.261 67.781C299.261 68.591 299.243 69.275 299.189 69.563C299.153 69.743 299.045 69.887 298.937 69.941C298.847 69.995 298.631 70.031 298.433 70.031H297.803Z" fill="white"/>
<defs>
<linearGradient id="paint0_linear_299_1718" x1="-4.02639" y1="120.236" x2="403.968" y2="0.00176003" gradientUnits="userSpaceOnUse">
<stop stop-color="#40EBD4"/>
<stop offset="1" stop-color="#1478FB"/>
</linearGradient>
</defs>
</svg>
