<svg width="16" height="21" viewBox="0 0 16 21" fill="none" xmlns="http://www.w3.org/2000/svg">
<path d="M8.00105 0C5.87904 0 3.84394 0.794096 2.34345 2.20759C0.842966 3.62109 0 5.53821 0 7.5372C0 7.58651 0 7.63583 0 7.68514C0.013788 8.37222 0.127214 9.05431 0.337129 9.71245C1.86258 14.9837 8.00105 21 8.00105 21C8.00105 21 14.3678 14.8392 15.7419 9.44813C15.9012 8.87373 15.9878 8.28362 16 7.69007C16 7.64076 16 7.58799 16 7.5372C16 5.53855 15.1573 3.62173 13.6573 2.20829C12.1573 0.794849 10.1227 0.000523069 8.00105 0ZM8.00105 10.9024C7.29451 10.9024 6.60384 10.705 6.01638 10.3353C5.42892 9.96549 4.97105 9.43992 4.70067 8.82501C4.43029 8.2101 4.35954 7.53346 4.49738 6.88068C4.63522 6.22789 4.97545 5.62827 5.47504 5.15764C5.97464 4.687 6.61116 4.3665 7.30412 4.23665C7.99708 4.1068 8.71536 4.17345 9.36811 4.42815C10.0209 4.68286 10.5788 5.11418 10.9713 5.66759C11.3638 6.22099 11.5734 6.87162 11.5734 7.5372C11.5734 8.42971 11.197 9.28566 10.5271 9.91676C9.85711 10.5479 8.94848 10.9024 8.00105 10.9024Z" fill="#0074FF"/>
</svg>
