<?xml version="1.0" encoding="UTF-8"?>
<svg width="455px" height="111px" viewBox="0 0 455 111" version="1.1" xmlns="http://www.w3.org/2000/svg" xmlns:xlink="http://www.w3.org/1999/xlink">
    <title>img-slider-bg-text</title>
    <defs>
        <path d="M48.9360256,108.16652 L48.9360256,92.0534384 L18.6494,92.0534384 L18.6494,1.7903424 L-2.84217094e-14,1.7903424 L-2.84217094e-14,108.16652 L48.9360256,108.16652 Z M108.46491,108.16652 L108.46491,92.0534384 L78.1782848,92.0534384 L78.1782848,61.3192272 L102.198712,61.3192272 L102.198712,45.2061456 L78.1782848,45.2061456 L78.1782848,17.7542288 L108.315715,17.7542288 L108.315715,1.7903424 L59.5288848,1.7903424 L59.5288848,108.16652 L108.46491,108.16652 Z M155.312203,108.16652 L155.312203,17.7542288 L175.30436,17.7542288 L175.30436,1.7903424 L116.223061,1.7903424 L116.223061,17.7542288 L136.364413,17.7542288 L136.364413,108.16652 L155.312203,108.16652 Z" id="path-1"></path>
        <polygon id="path-2" points="194.102955 40.5810944 200.518349 21.3349136 200.518349 1.7903424 183.957681 1.7903424 183.957681 22.37928 189.477904 22.37928 185.748024 40.5810944"></polygon>
        <path d="M236.201871,109.658472 C253.359319,109.658472 263.504592,97.722856 263.504592,82.3557504 C263.504592,70.5693296 257.98437,61.4684224 248.137487,51.7707344 L238.290603,41.774656 L237.38353,40.8678979 L237.38353,40.8678979 L236.777329,40.2600819 C236.575354,40.0570352 236.373587,39.8535471 236.172376,39.6496176 L235.570759,39.0365047 C231.276112,34.6330393 227.399354,30.025534 227.399354,25.2139888 C227.399354,19.395376 230.383258,15.2179104 235.90348,15.2179104 C242.617264,15.2179104 244.855192,21.0365232 245.750363,29.3914544 L262.311031,28.7946736 C261.415859,6.8629792 249.778634,0 236.798651,0 C218.895227,0 209.943515,12.2340064 209.943515,26.5567456 C209.943515,37.7463856 215.612933,46.3997072 224.71384,55.202224 L235.306699,66.2426688 C241.423703,72.2104768 245.153583,77.2831136 245.153583,83.2509216 C245.153583,88.6219488 243.06485,94.4405616 236.351066,94.4405616 C228.742111,94.4405616 226.653378,86.8316064 225.907402,79.5210416 L208.302368,80.1178224 C209.346735,98.468832 219.342813,109.658472 236.201871,109.658472 Z M324.973015,109.658472 C342.279658,109.658472 353.170907,100.259174 353.170907,84.295288 L353.170907,51.9199296 L323.331867,51.9199296 L323.331867,66.2426688 L334.969093,66.2426688 L334.969093,83.4001168 C334.969093,89.2187296 332.283579,93.3961952 324.973015,93.3961952 C318.110035,93.3961952 314.380155,89.0695344 314.380155,82.2065552 L314.380155,27.4519168 C314.380155,20.887328 317.811645,16.1130816 324.973015,16.1130816 C331.239213,16.1130816 335.715069,19.8429616 335.715069,25.9599648 L335.715069,35.806848 L353.021712,35.806848 L353.021712,24.4680128 C353.021712,8.951712 340.34012,0.1491952 324.674624,0.1491952 C307.964762,0.1491952 295.28317,9.9960784 295.28317,26.855136 L295.28317,82.6541408 C295.28317,100.557565 307.815567,109.658472 324.973015,109.658472 Z M394.199587,109.658472 C410.760255,109.658472 423.889432,100.40837 423.889432,81.1621888 L423.889432,27.601112 C423.889432,8.8025168 410.760255,0.1491952 394.348783,0.1491952 C377.489725,0.1491952 364.658938,9.8468832 364.658938,28.1978928 L364.658938,81.6097744 C364.658938,100.70676 376.594554,109.658472 394.199587,109.658472 Z M394.348783,93.0978048 C387.336608,93.0978048 383.755923,88.3235584 383.755923,81.9081648 L383.755923,27.4519168 C383.755923,21.0365232 387.187413,16.5606672 394.199587,16.5606672 C400.764176,16.5606672 404.792447,20.5889376 404.792447,27.1535264 L404.792447,81.9081648 C404.792447,88.1743632 401.360957,93.0978048 394.348783,93.0978048 Z M451.341349,77.581504 L454.026863,41.02868 L454.026863,1.6411472 L436.720219,1.6411472 L436.720219,41.02868 L439.554928,77.581504 L451.341349,77.581504 Z M453.728472,108.16652 L453.728472,86.3840208 L437.01861,86.3840208 L437.01861,108.16652 L453.728472,108.16652 Z" id="path-3"></path>
    </defs>
    <g id="Page-1" stroke="none" stroke-width="1" fill="none" fill-rule="evenodd">
        <g id="img-slider-bg-text" transform="translate(0.012174, 0.583277)" fill-rule="nonzero">
            <g id="LET">
                <use fill="#000000" xlink:href="#path-1"></use>
                <use fill="#0286FE" xlink:href="#path-1"></use>
            </g>
            <g id="’">
                <use fill="#000000" xlink:href="#path-2"></use>
                <use fill="#0286FE" xlink:href="#path-2"></use>
            </g>
            <g id="SGO!">
                <use fill="#000000" xlink:href="#path-3"></use>
                <use fill="#0286FE" xlink:href="#path-3"></use>
            </g>
        </g>
    </g>
</svg>