<svg xmlns="http://www.w3.org/2000/svg" viewBox="0 0 293.47 100.35"><line x1="143.76" y1="1.12" x2="143.76" y2="32.76" style="fill:none;stroke:#fff;stroke-linecap:round;stroke-linejoin:round;stroke-width:2.2449848651886px"/><line x1="179.05" y1="3.55" x2="164.78" y2="31.78" style="fill:none;stroke:#fff;stroke-linecap:round;stroke-linejoin:round;stroke-width:2.2449848651886px"/><line x1="108.29" y1="3.55" x2="122.56" y2="31.78" style="fill:none;stroke:#fff;stroke-linecap:round;stroke-linejoin:round;stroke-width:2.2449848651886px"/><path d="M13.49,56.45c.33-1.07,1-1.49,1.91-1.27l2.39.59c1.24.29,1.71.93,1.42,1.9l-.49,1.47c-.29.81,0,1.22.73,1.22H41.81a1.32,1.32,0,0,1,1.52,1.47v2.39a1.32,1.32,0,0,1-1.47,1.51H17.3a2.18,2.18,0,0,0-1.9,1.47c-1.63,3.28-2.93,5.73-3.91,7.32a3.48,3.48,0,0,0-.39,1.81V98.84a1.31,1.31,0,0,1-1.46,1.51H7a1.31,1.31,0,0,1-1.51-1.46V84.34c0-.79-.33-.87-1-.25-.75.82-1.56.77-2.44-.15L.8,82.63c-1-1-1.06-2-.25-2.93A58.55,58.55,0,0,0,9,66.9c.39-.78.2-1.17-.58-1.17H2.26A1.31,1.31,0,0,1,.75,64.27v-2.4a1.32,1.32,0,0,1,1.47-1.51h8.64c.78,0,1.36-.49,1.76-1.46ZM25.36,68.66a1.29,1.29,0,0,1,1.46-1.46h2.59c1,0,1.52.48,1.52,1.46v6.06c0,.81.39,1.22,1.17,1.22h8c1,0,1.52.48,1.52,1.46v2.49a1.32,1.32,0,0,1-1.47,1.52H32.15c-.82,0-1.22.39-1.22,1.17v9.57c0,.81.39,1.22,1.17,1.22h10a1.31,1.31,0,0,1,1.51,1.46v2.44c0,1-.49,1.52-1.46,1.52H14.57a1.32,1.32,0,0,1-1.52-1.47V94.88a1.32,1.32,0,0,1,1.47-1.51h9.62c.81,0,1.22-.39,1.22-1.17V82.63c0-.82-.39-1.22-1.17-1.22H16.33a1.32,1.32,0,0,1-1.52-1.47V77.45a1.32,1.32,0,0,1,1.47-1.51h7.86a1.06,1.06,0,0,0,1.22-1.18Z" style="fill:#ff3755"/><path d="M68.33,56.41c0-1,.47-1.57,1.41-1.57h3.47a1.32,1.32,0,0,1,1.51,1.47V57a1.06,1.06,0,0,0,1.18,1.22H91.77a1.32,1.32,0,0,1,1.51,1.47v6.49a1.32,1.32,0,0,1-1.47,1.51H89.23c-1,0-1.52-.48-1.52-1.46V64.61c0-.81-.39-1.22-1.17-1.22H56.8c-.81,0-1.22.39-1.22,1.17v1.81c0,1-.48,1.51-1.46,1.51H51.53A1.31,1.31,0,0,1,50,66.42V59.73c0-1,.49-1.52,1.46-1.52H67.11c.81,0,1.22-.39,1.22-1.17Zm-11.28,11A1.29,1.29,0,0,1,58.51,66H84.83c1,0,1.52.48,1.52,1.46v2.3a1.32,1.32,0,0,1-1.47,1.51H74.58a2.7,2.7,0,0,0-1.66.39c-.43.26-.21.81.63,1.66A20,20,0,0,1,76,76.82q.48,1.07,2.1.39a43.86,43.86,0,0,0,7-3.86,2,2,0,0,1,2.83.29l1.32,1.47q1.65,1.8,0,2.78a58.29,58.29,0,0,1-8.65,4.54c-.78.36-.66,1,.34,1.81a74.43,74.43,0,0,0,11.72,7.47c1,.55,1.27,1.28.69,2.2l-1.37,2a1.74,1.74,0,0,1-2.49.73A67.43,67.43,0,0,1,79.8,90.1c-1-.82-1.51-.74-1.61.24-.13,3.45-1,6.06-2.68,7.81A7.2,7.2,0,0,1,71.6,100a17.34,17.34,0,0,1-6.49-.54,2.15,2.15,0,0,1-1.71-1.85L63,95.47q-.25-1.27-1.71-.69a53,53,0,0,1-7.42,2.59,1.76,1.76,0,0,1-2.25-1l-1-2c-.62-1.23-.4-2,.64-2.24a70.19,70.19,0,0,0,19.77-8.5,1.7,1.7,0,0,0,.83-1.85c-.19-.59-.83-.57-1.9,0a61.89,61.89,0,0,1-15.28,6.5,2,2,0,0,1-2.54-1.08,18.71,18.71,0,0,1-1-2.05c-.52-1-.26-1.59.78-1.85A67.72,67.72,0,0,0,67.69,77c.75-.55,1-1,.59-1.37s-1-.29-2,.2a76.23,76.23,0,0,1-10.89,4.15,2.21,2.21,0,0,1-2.64-1.17l-1.12-2c-.55-.95-.34-1.53.63-1.76a77.16,77.16,0,0,0,10.65-3.18c1-.42,1-.63,0-.63h-4.3a1.32,1.32,0,0,1-1.51-1.47ZM72.58,90.1c0-.82-.44-.91-1.42-.3A38.41,38.41,0,0,1,65.45,93c-.78.39-.69.73.29,1a12.21,12.21,0,0,0,5.08.39C71.93,93.55,72.51,92.12,72.58,90.1Z" style="fill:#ff3755"/><path d="M131.66,56.31a2,2,0,0,1,2.64-.78l2.88,1.66c1,.65,1,1.46.14,2.44a1.35,1.35,0,0,1-.39.44c-.75.81-.75,1.22,0,1.22h4.69a1.31,1.31,0,0,1,1.51,1.46v2.69A1.31,1.31,0,0,1,141.67,67H125.6c-.81,0-1.22.39-1.22,1.17v1.81c-.22.78.2,1.82,1.27,3.13A17.81,17.81,0,0,0,127,75c.75,1,1.55,1,2.39.1a46.83,46.83,0,0,0,3.42-4.89c.68-1.23,1.53-1.59,2.54-1.07l3,1.56A1.48,1.48,0,0,1,139,73a37.46,37.46,0,0,1-5.47,7.42c-.71.78-.63,1.61.25,2.49a38.72,38.72,0,0,0,9.27,6.45,1.44,1.44,0,0,1,.69,2.19c-.46.82-.86,1.63-1.22,2.44a1.65,1.65,0,0,1-2.49.88,47.34,47.34,0,0,1-14.75-13.08c-.62-.85-.93-.88-.93-.1v12.4a9.62,9.62,0,0,1-.92,3.91,3.4,3.4,0,0,1-1.76,1.46q-2.94,1.27-8.4.44a2.06,2.06,0,0,1-2-1.8l-.39-2.64q-.34-1.86,1.17-1.56a17.54,17.54,0,0,0,5.52.39c.65-.39,1-1.22,1-2.49v-6.2c0-.82-.5-.87-1.51-.15a97.07,97.07,0,0,1-14,8.15c-1,.49-1.66.2-2-.88l-1.12-3.36a1.49,1.49,0,0,1,1-2.06A129.62,129.62,0,0,0,117.11,79a2.69,2.69,0,0,0,1.46-2.15V68.17c0-.81-.39-1.22-1.17-1.22H102.51c-1,0-1.52-.49-1.52-1.46V62.8a1.32,1.32,0,0,1,1.47-1.51h14.89c.82,0,1.22-.39,1.22-1.17V56.5A1.3,1.3,0,0,1,120,55h2.83a1.31,1.31,0,0,1,1.51,1.46v3.57c0,.81.39,1.22,1.17,1.22h4.69c1,0,1.11-.34.2-1-.85-.52-.87-1.3-.05-2.34ZM106.9,69.69c1.27-.88,2.31-.85,3.13.09,1.23,1.57,2.41,3.18,3.51,4.84A1.85,1.85,0,0,1,113,77.3l-2,1.62c-1,.84-1.88.81-2.49-.1q-2.06-3.18-3.71-5.32A1.52,1.52,0,0,1,105,71,22.33,22.33,0,0,1,106.9,69.69Z" style="fill:#ff3755"/><path d="M170.13,56.6c0-1,.46-1.56,1.37-1.56h3.22c1,0,1.52.49,1.52,1.46v4.79c0,.81.39,1.22,1.17,1.22h13.13c1,0,1.52.49,1.52,1.46v2.84a1.32,1.32,0,0,1-1.47,1.51H177.46c-.82,0-1.22.39-1.22,1.17v6.79c0,.81.39,1.22,1.17,1.22h11.18c1,0,1.52.49,1.52,1.46V82a1.32,1.32,0,0,1-1.47,1.51H177.46c-.82,0-1.22.39-1.22,1.18v7.61c0,.82.39,1.22,1.17,1.22h15.43A1.32,1.32,0,0,1,194.35,95v2.78c0,1-.49,1.52-1.46,1.52H152a1.32,1.32,0,0,1-1.51-1.47V95.08c0-1,.49-1.52,1.46-1.52h17c.82,0,1.22-.39,1.22-1.17V84.77c0-.81-.39-1.22-1.17-1.22h-12.3c-1,0-1.52-.48-1.52-1.46V79a1.32,1.32,0,0,1,1.47-1.51h12.3c.82,0,1.22-.39,1.22-1.17V69.54c0-.81-.39-1.22-1.17-1.22h-9.08A2.08,2.08,0,0,0,158,69.78c-.82,1.6-1.7,3.24-2.64,4.94a1.49,1.49,0,0,1-2.44.48l-2-1.41c-1-.75-1.25-1.6-.63-2.54a60.75,60.75,0,0,0,5.91-13.67,1.38,1.38,0,0,1,1.9-1.08l2.39.78q1.71.54,1.32,2.1l-.58,2c-.23.78,0,1.17.83,1.17h6.78c.82,0,1.22-.39,1.22-1.17Z" style="fill:#ff3755"/><path d="M205,56.6c0-1,.45-1.56,1.36-1.56h2.79a1.31,1.31,0,0,1,1.51,1.46v5c0,.82.39,1.22,1.17,1.22h2.54a1.32,1.32,0,0,1,1.52,1.47v2.39a1.32,1.32,0,0,1-1.47,1.52h-2.54c-.81,0-1.22.39-1.22,1.17v5.08q0,1.17,1.47.78l1.36-.44c1-.3,1.55,0,1.71,1a14.71,14.71,0,0,0,.34,1.71,2,2,0,0,1-1.31,2.39c-.78.3-1.58.64-2.4,1a1.79,1.79,0,0,0-1.17,1.71V93.71a12.08,12.08,0,0,1-.78,3.91c-1.3,2-3.52,2.86-6.64,2.54l-1.46-.15A2,2,0,0,1,200,98.3l-.39-2.44c-.26-1.3.11-1.82,1.12-1.56a11,11,0,0,0,3.37.14c.55-.26.84-1,.88-2.34V84.43c0-.78-.49-1-1.47-.73a5.91,5.91,0,0,0-1.12.34,1.68,1.68,0,0,1-2.25-1.17l-.88-2.59c-.35-1.07.05-1.76,1.23-2l2.93-.68c1-.29,1.56-.83,1.56-1.61V69.3c0-.82-.39-1.22-1.17-1.22h-3a1.32,1.32,0,0,1-1.52-1.47V64.22a1.32,1.32,0,0,1,1.47-1.52h3c.81,0,1.22-.39,1.22-1.17Zm12.11,20.61a1.3,1.3,0,0,1,1.46-1.47h22.37a1.32,1.32,0,0,1,1.51,1.47V98.64a1.32,1.32,0,0,1-1.47,1.52H238.3c-1,0-1.52-.25-1.52-.74s-.39-.83-1.17-.83H223.89c-.81,0-1.22.25-1.22.74s-.48.83-1.46.83h-2.59a1.32,1.32,0,0,1-1.51-1.47Zm.58-20.61c0-1,.46-1.56,1.37-1.56h2.78c1,0,1.52.49,1.52,1.46v2.4c0,.78.49,1.07,1.46.87A123.3,123.3,0,0,0,238,56.41a2.4,2.4,0,0,1,2.88,1L242,59c.81,1.11.67,1.81-.44,2.1A161.24,161.24,0,0,1,224.63,65c-.85.16-1.27.31-1.27.44a1.55,1.55,0,0,0,.39,1.07,6.26,6.26,0,0,0,3.71,1.08,33.06,33.06,0,0,0,6.2,0,8.31,8.31,0,0,0,3.56-.44,3.13,3.13,0,0,0,1.23-2c.22-1.07.91-1.35,2.05-.83.81.33,1.62.7,2.44,1.13a1.8,1.8,0,0,1,1.17,2.14A10.71,10.71,0,0,1,242,72q-2.73,1.56-7.76,1.37h-6.74a29.11,29.11,0,0,1-6-.83,4.79,4.79,0,0,1-3.81-4.69Zm19.09,26.12c0-1-.37-1.51-1.12-1.51H223.89c-.81,0-1.22.47-1.22,1.42s.39,1.51,1.18,1.51h11.71C236.38,84.14,236.78,83.67,236.78,82.72Zm0,8.11c0-.81-.39-1.22-1.17-1.22H223.89c-.81,0-1.22.39-1.22,1.17v1.07c0,.82.39,1.23,1.18,1.23h11.71a1.06,1.06,0,0,0,1.22-1.18Z" style="fill:#ff3755"/><path d="M268,56.6c0-1,.46-1.56,1.37-1.56h3a1.31,1.31,0,0,1,1.51,1.46v.88c0,.82.39,1.22,1.18,1.22H292a1.32,1.32,0,0,1,1.51,1.47V62.7c0,1-.48,1.52-1.46,1.52h-16.9c-.81,0-1.22.5-1.22,1.51s.39,1.61,1.18,1.61H291a1.32,1.32,0,0,1,1.52,1.47v25A6.49,6.49,0,0,1,289.57,99a12.24,12.24,0,0,1-7.57.74c-1.27-.26-2-.88-2.15-1.86l-.49-2.59c-.23-1.27.15-1.77,1.13-1.51a12.07,12.07,0,0,0,4.93.49,2.15,2.15,0,0,0,1.17-1.81V74.23c0-.82-.39-1.22-1.17-1.22h-6.35c-.72,0-.65.18.2.53l.39.1q1.84.49,1.17,2l-.69,1.47c-.42.81-.24,1.22.54,1.22h2.2a1.32,1.32,0,0,1,1.51,1.47v2.09c0,1-.49,1.52-1.46,1.52h-7.67c-.81,0-1.22.36-1.22,1.07a1,1,0,0,0,1.17,1.13h8.89c1,0,1.51.48,1.51,1.46v2c0,1-.49,1.52-1.46,1.52h-8.89c-.81,0-1.22.39-1.22,1.17V96.3a1.31,1.31,0,0,1-1.46,1.51h-2.4a1.31,1.31,0,0,1-1.51-1.46V91.76c0-.82-.39-1.22-1.17-1.22h-8.3a1.32,1.32,0,0,1-1.52-1.47v-2a1.32,1.32,0,0,1,1.47-1.51h8.3c.81,0,1.22-.36,1.22-1.08s-.39-1.12-1.17-1.12h-7.28a1.32,1.32,0,0,1-1.51-1.47v-2.1a1.32,1.32,0,0,1,1.46-1.51h3.18c.81,0,.91-.5.29-1.51a5.07,5.07,0,0,0-.68-.93c-.75-1-.82-1.66-.2-2s.52-.78-.49-.78h-4.34c-.82,0-1.22.39-1.22,1.17V98.45a1.32,1.32,0,0,1-1.47,1.51h-2.88a1.31,1.31,0,0,1-1.51-1.46V68.86c0-1,.49-1.52,1.46-1.52h14.5c.82,0,1.22-.5,1.22-1.51s-.39-1.61-1.17-1.61H250.8a1.32,1.32,0,0,1-1.52-1.47V60.12a1.32,1.32,0,0,1,1.47-1.52h16.06c.82,0,1.22-.39,1.22-1.17Zm7.28,17.63c.29-.82.05-1.22-.73-1.22h-5.91c-.85,0-.9.5-.15,1.51l.3.44c.61,1.21.53,2-.25,2.44-.84.59-.76.88.25.88h3.51a2.19,2.19,0,0,0,1.91-1.46A19.91,19.91,0,0,0,275.31,74.23Z" style="fill:#ff3755"/></svg>