<?xml version="1.0" encoding="UTF-8"?>
<svg width="170px" height="82px" viewBox="0 0 170 82" version="1.1" xmlns="http://www.w3.org/2000/svg" xmlns:xlink="http://www.w3.org/1999/xlink">
    <title>img-nav-button-bg-3</title>
    <g id="Page-1" stroke="none" stroke-width="1" fill="none" fill-rule="evenodd">
        <path d="M48.608,15.5454 C50.578,12.1334 55.5,12.1234 57.483,15.5284 L57.503,15.5624 C59.486,18.9674 64.408,18.9574 66.378,15.5454 C68.348,12.1334 73.27,12.1234 75.254,15.5284 L75.274,15.5624 C77.257,18.9674 82.179,18.9574 84.149,15.5454 C86.119,12.1334 91.04,12.1234 93.024,15.5284 L93.044,15.5624 C95.027,18.9674 99.949,18.9574 101.919,15.5454 C103.889,12.1334 108.811,12.1234 110.794,15.5284 L110.814,15.5624 C112.797,18.9674 117.719,18.9574 119.689,15.5454 C121.659,12.1334 126.581,12.1234 128.564,15.5284 L128.585,15.5624 C130.568,18.9674 135.489,18.9574 137.46,15.5454 C139.43,12.1334 144.351,12.1234 146.335,15.5284 L146.355,15.5624 C148.338,18.9674 153.26,18.9574 155.23,15.5454 L155.286,15.4474 C157.248,12.0494 162.146,12.0214 164.143,15.3994" id="Stroke-19" stroke="#FFFFFF"></path>
    </g>
</svg>