<?xml version="1.0" encoding="UTF-8"?>
<svg width="170px" height="82px" viewBox="0 0 170 82" version="1.1" xmlns="http://www.w3.org/2000/svg" xmlns:xlink="http://www.w3.org/1999/xlink">
    <title>img-nav-button-bg-1</title>
    <g id="Page-1" stroke="none" stroke-width="1" fill="none" fill-rule="evenodd">
        <path d="M165.5172,14.0957 C165.5162,14.0787 165.5172,14.0617 165.5152,14.0447 C158.8202,13.8797 153.3592,8.7477 152.6992,2.1877 C152.6602,1.7957 152.6432,1.3977 152.6392,0.9967 C152.6352,1.3957 152.6182,1.7917 152.5792,2.1817 C151.9122,8.8527 146.2822,14.0607 139.4352,14.0607 C139.3652,14.0607 139.2972,14.0517 139.2272,14.0507 C139.2262,14.0647 139.2262,14.0787 139.2252,14.0917 C139.2962,14.0907 139.3652,14.0817 139.4352,14.0817 C146.5442,14.0817 152.3252,19.6997 152.6192,26.7367 C152.9082,19.7947 158.5402,14.2447 165.5172,14.0957 Z" id="Stroke-7" stroke="#FFFFFF" stroke-linecap="round" stroke-linejoin="round"></path>
        <path d="M169.2008,35.5354 C169.2008,35.5264 169.2008,35.5164 169.1998,35.5064 C165.4728,35.4154 162.4328,32.5584 162.0658,28.9064 C162.0438,28.6884 162.0338,28.4674 162.0318,28.2434 C162.0298,28.4654 162.0208,28.6864 161.9988,28.9034 C161.6268,32.6164 158.4928,35.5164 154.6818,35.5164 C154.6428,35.5164 154.6048,35.5114 154.5658,35.5104 C154.5658,35.5174 154.5658,35.5254 154.5648,35.5334 C154.6048,35.5324 154.6428,35.5274 154.6818,35.5274 C158.6388,35.5274 161.8568,38.6554 162.0208,42.5724 C162.1818,38.7084 165.3168,35.6184 169.2008,35.5354" id="Fill-9" fill="#FFFFFF"></path>
    </g>
</svg>