<?xml version="1.0" encoding="UTF-8"?>
<svg width="491px" height="257px" viewBox="0 0 491 257" version="1.1" xmlns="http://www.w3.org/2000/svg" xmlns:xlink="http://www.w3.org/1999/xlink">
    <title>img-slider-bg-text</title>
    <g id="Page-1" stroke="none" stroke-width="1" fill="none" fill-rule="evenodd">
        <g id="img-slider-bg-text" transform="translate(0.327904, 0.842424)" fill="#000000" fill-rule="nonzero">
            <path d="M28.904216,113.60748 C46.679536,113.60748 57.19016,101.24204 57.19016,85.321536 C57.19016,73.110664 51.471144,63.682016 41.269656,53.635096 L31.068168,43.27904 C30.2515823,42.4624543 29.4244317,41.6388254 28.6085105,40.808153 L27.9990157,40.1838282 C23.65094,35.7000356 19.784704,31.0127568 19.784704,26.121992 C19.784704,20.09384 22.876064,15.765936 28.59508,15.765936 C35.55064,15.765936 37.86916,21.794088 38.796568,30.449896 L55.953616,29.831624 C55.026208,7.110128 42.969904,0 29.522488,0 C10.974328,0 1.700248,12.674576 1.700248,27.513104 C1.700248,39.105704 7.573832,48.070648 17.00248,57.19016 L27.976808,68.628192 C34.314096,74.810912 38.178296,80.066224 38.178296,86.248944 C38.178296,91.813392 36.014344,97.841544 29.058784,97.841544 C21.175816,97.841544 19.011864,89.958576 18.239024,82.384744 L0,83.003016 C1.081976,102.01488 11.438032,113.60748 28.904216,113.60748 Z M106.960592,112.0618 L106.960592,18.393592 L127.672704,18.393592 L127.672704,1.854816 L66.4637757,1.854816 L66.4637757,18.393592 L87.3304557,18.393592 L87.3304557,112.0618 L106.960592,112.0618 Z M145.249456,112.0618 L150.195632,85.321536 L172.917128,85.321536 L178.017872,112.0618 L197.648008,112.0618 L176.163056,1.700248 L149.57736,1.700248 L127.165,112.0618 L145.249456,112.0618 Z M169.825768,69.5556 L153.286992,69.5556 L161.479096,23.803472 L161.9428,23.803472 L169.825768,69.5556 Z M238.247734,112.0618 L238.247734,67.855352 L260.814662,1.854816 L242.266502,1.854816 L229.746494,44.670152 L216.762782,1.854816 L196.05067,1.854816 L218.772166,67.855352 L218.772166,112.0618 L238.247734,112.0618 Z" id="STAY"></path>
            <path d="M32.150144,255.81004 C48.68892,255.81004 60.590656,245.917688 60.590656,229.378912 L60.590656,217.94088 L42.969904,217.94088 L42.969904,228.296936 C42.969904,234.479656 38.951136,238.652992 32.45928,238.652992 C25.50372,238.652992 21.484952,234.634224 21.484952,227.060392 L21.484952,170.488504 C21.484952,163.84208 24.73088,159.20504 32.304712,159.20504 C38.951136,159.20504 42.969904,163.378376 42.969904,169.870232 L42.969904,180.226288 L60.590656,180.226288 L60.590656,168.015416 C60.590656,151.940344 48.534352,142.357128 32.304712,142.357128 C14.993096,142.357128 1.700248,152.404048 1.700248,170.0248 L1.700248,228.142368 C1.700248,246.690528 14.374824,255.81004 32.150144,255.81004 Z M92.586232,254.26436 L92.586232,209.43964 L100.778336,209.43964 L112.83464,254.26436 L133.083048,254.26436 L118.399088,205.111736 C126.591192,201.247536 131.846504,191.973456 131.846504,176.20752 C131.846504,154.413432 121.181312,144.057376 102.942288,144.057376 L73.110664,144.057376 L73.110664,254.26436 L92.586232,254.26436 Z M101.396608,194.910248 L92.586232,194.910248 L92.586232,160.441584 L101.24204,160.441584 C108.97044,160.441584 112.216368,166.93344 112.216368,177.598632 C112.216368,189.654936 108.352168,194.910248 101.396608,194.910248 Z M195.683088,254.26436 L195.683088,237.571016 L164.305784,237.571016 L164.305784,205.730008 L189.191232,205.730008 L189.191232,189.036664 L164.305784,189.036664 L164.305784,160.596152 L195.52852,160.596152 L195.52852,144.057376 L144.984784,144.057376 L144.984784,254.26436 L195.683088,254.26436 Z M222.268784,254.26436 L227.21496,227.524096 L249.936456,227.524096 L255.0372,254.26436 L274.667336,254.26436 L253.182384,143.902808 L226.596688,143.902808 L204.184328,254.26436 L222.268784,254.26436 Z M246.845096,211.75816 L230.30632,211.75816 L238.498424,166.006032 L238.962128,166.006032 L246.845096,211.75816 Z M308.067919,254.26436 L308.067919,160.596152 L328.780031,160.596152 L328.780031,144.057376 L267.571103,144.057376 L267.571103,160.596152 L288.437783,160.596152 L288.437783,254.26436 L308.067919,254.26436 Z M358.457087,254.26436 L358.457087,144.057376 L338.981519,144.057376 L338.981519,254.26436 L358.457087,254.26436 Z M409.155391,254.882632 L430.331207,144.057376 L412.710455,144.057376 L399.881311,218.868288 L399.263039,218.868288 L386.588463,144.057376 L367.112895,144.057376 L388.597847,254.882632 L409.155391,254.882632 Z M489.685319,254.26436 L489.685319,237.571016 L458.308015,237.571016 L458.308015,205.730008 L483.193463,205.730008 L483.193463,189.036664 L458.308015,189.036664 L458.308015,160.596152 L489.530751,160.596152 L489.530751,144.057376 L438.987015,144.057376 L438.987015,254.26436 L489.685319,254.26436 Z" id="CREATIVE"></path>
        </g>
    </g>
</svg>