<?xml version="1.0" encoding="UTF-8"?>
<svg width="139px" height="139px" viewBox="0 0 139 139" version="1.1" xmlns="http://www.w3.org/2000/svg" xmlns:xlink="http://www.w3.org/1999/xlink">
    <title>Group 9</title>
    <g id="Page-1" stroke="none" stroke-width="1" fill="none" fill-rule="evenodd">
        <g id="Group-9" transform="translate(2.000000, 2.000000)">
            <path d="M134.752,67.376 C134.752,104.587 104.586,134.752 67.376,134.752 C30.165,134.752 0,104.587 0,67.376 C0,30.166 30.165,0 67.376,0 C104.586,0 134.752,30.166 134.752,67.376" id="Fill-1" fill="#FA4674"></path>
            <path d="M134.752,67.376 C134.752,104.587 104.586,134.752 67.376,134.752 C30.165,134.752 0,104.587 0,67.376 C0,30.166 30.165,0 67.376,0 C104.586,0 134.752,30.166 134.752,67.376 Z" id="Stroke-3" stroke="#000000" stroke-width="2.835" stroke-linecap="round" stroke-linejoin="round"></path>
            <path d="M99.0821,67.376 C99.0821,84.887 84.8871,99.083 67.3761,99.083 C49.8651,99.083 35.6691,84.887 35.6691,67.376 C35.6691,49.865 49.8651,35.67 67.3761,35.67 C84.8871,35.67 99.0821,49.865 99.0821,67.376" id="Fill-5" fill="#88FFFC"></path>
            <path d="M99.0821,67.376 C99.0821,84.887 84.8871,99.083 67.3761,99.083 C49.8651,99.083 35.6691,84.887 35.6691,67.376 C35.6691,49.865 49.8651,35.67 67.3761,35.67 C84.8871,35.67 99.0821,49.865 99.0821,67.376 Z" id="Stroke-7" stroke="#000000" stroke-width="2.835" stroke-linecap="round" stroke-linejoin="round"></path>
        </g>
    </g>
</svg>