<?xml version="1.0" encoding="UTF-8"?>
<svg width="1px" height="415px" viewBox="0 0 1 415" version="1.1" xmlns="http://www.w3.org/2000/svg" xmlns:xlink="http://www.w3.org/1999/xlink">
    <title>Group 82</title>
    <defs>
        <polygon id="path-1" points="0 0.0599 1 0.0599 1 0.9401 0 0.9401"></polygon>
        <polygon id="path-3" points="0 0 1 0 1 1 0 1"></polygon>
        <polygon id="path-5" points="0 0 1 0 1 1 0 1"></polygon>
        <polygon id="path-7" points="0 0 1 0 1 1 0 1"></polygon>
        <polygon id="path-9" points="0 0 1 0 1 1 0 1"></polygon>
        <polygon id="path-11" points="0 0 1 0 1 1 0 1"></polygon>
        <polygon id="path-13" points="0 0 1 0 1 1 0 1"></polygon>
        <polygon id="path-15" points="0 0 1 0 1 1 0 1"></polygon>
        <polygon id="path-17" points="0 0 1 0 1 1 0 1"></polygon>
        <polygon id="path-19" points="0 0 1 0 1 1 0 1"></polygon>
        <polygon id="path-21" points="0 0 1 0 1 1 0 1"></polygon>
        <polygon id="path-23" points="0 0 1 0 1 1 0 1"></polygon>
        <polygon id="path-25" points="0 0 1 0 1 1 0 1"></polygon>
        <polygon id="path-27" points="0 0 1 0 1 1 0 1"></polygon>
        <polygon id="path-29" points="0 0 1 0 1 1 0 1"></polygon>
        <polygon id="path-31" points="0 0 1 0 1 1 0 1"></polygon>
        <polygon id="path-33" points="0 0 1 0 1 1 0 1"></polygon>
        <polygon id="path-35" points="0 0 1 0 1 1 0 1"></polygon>
        <polygon id="path-37" points="0 0 1 0 1 1 0 1"></polygon>
        <polygon id="path-39" points="0 0 1 0 1 1 0 1"></polygon>
        <polygon id="path-41" points="0 0 1 0 1 1 0 1"></polygon>
        <polygon id="path-43" points="0 0 1 0 1 1 0 1"></polygon>
        <polygon id="path-45" points="0 0 1 0 1 1 0 1"></polygon>
        <polygon id="path-47" points="0 0 1 0 1 1 0 1"></polygon>
        <polygon id="path-49" points="0 0 1 0 1 1 0 1"></polygon>
        <polygon id="path-51" points="0 0 1 0 1 1 0 1"></polygon>
        <polygon id="path-53" points="0 0.05975 1 0.05975 1 0.94025 0 0.94025"></polygon>
    </defs>
    <g id="Page-1" stroke="none" stroke-width="1" fill="none" fill-rule="evenodd">
        <g id="Group-82">
            <g id="Group-3">
                <mask id="mask-2" fill="white">
                    <use xlink:href="#path-1"></use>
                </mask>
                <g id="Clip-2"></g>
                <line x1="-1.04368674e-07" y1="0.4401" x2="1" y2="0.4401" id="Stroke-1" stroke="#FFFFFF" stroke-width="0.761" mask="url(#mask-2)"></line>
            </g>
            <g id="Group-6" transform="translate(0.000000, 16.000000)">
                <mask id="mask-4" fill="white">
                    <use xlink:href="#path-3"></use>
                </mask>
                <g id="Clip-5"></g>
                <line x1="-1.04368674e-07" y1="0.5" x2="1" y2="0.5" id="Stroke-4" stroke="#FFFFFF" stroke-width="0.761" mask="url(#mask-4)"></line>
            </g>
            <g id="Group-9" transform="translate(0.000000, 32.000000)">
                <mask id="mask-6" fill="white">
                    <use xlink:href="#path-5"></use>
                </mask>
                <g id="Clip-8"></g>
                <line x1="-1.04368674e-07" y1="0.5" x2="1" y2="0.5" id="Stroke-7" stroke="#FFFFFF" stroke-width="0.761" mask="url(#mask-6)"></line>
            </g>
            <g id="Group-12" transform="translate(0.000000, 48.000000)">
                <mask id="mask-8" fill="white">
                    <use xlink:href="#path-7"></use>
                </mask>
                <g id="Clip-11"></g>
                <line x1="-1.04368674e-07" y1="0.5" x2="1" y2="0.5" id="Stroke-10" stroke="#FFFFFF" stroke-width="0.761" mask="url(#mask-8)"></line>
            </g>
            <g id="Group-15" transform="translate(0.000000, 64.000000)">
                <mask id="mask-10" fill="white">
                    <use xlink:href="#path-9"></use>
                </mask>
                <g id="Clip-14"></g>
                <line x1="-1.04368674e-07" y1="0.5" x2="1" y2="0.5" id="Stroke-13" stroke="#FFFFFF" stroke-width="0.761" mask="url(#mask-10)"></line>
            </g>
            <g id="Group-18" transform="translate(0.000000, 80.000000)">
                <mask id="mask-12" fill="white">
                    <use xlink:href="#path-11"></use>
                </mask>
                <g id="Clip-17"></g>
                <line x1="-1.04368674e-07" y1="0.5" x2="1" y2="0.5" id="Stroke-16" stroke="#FFFFFF" stroke-width="0.761" mask="url(#mask-12)"></line>
            </g>
            <g id="Group-21" transform="translate(0.000000, 95.000000)">
                <mask id="mask-14" fill="white">
                    <use xlink:href="#path-13"></use>
                </mask>
                <g id="Clip-20"></g>
                <line x1="-1.04368674e-07" y1="0.5" x2="1" y2="0.5" id="Stroke-19" stroke="#FFFFFF" stroke-width="0.761" mask="url(#mask-14)"></line>
            </g>
            <g id="Group-24" transform="translate(0.000000, 111.000000)">
                <mask id="mask-16" fill="white">
                    <use xlink:href="#path-15"></use>
                </mask>
                <g id="Clip-23"></g>
                <line x1="-1.04368674e-07" y1="0.5" x2="1" y2="0.5" id="Stroke-22" stroke="#FFFFFF" stroke-width="0.761" mask="url(#mask-16)"></line>
            </g>
            <g id="Group-27" transform="translate(0.000000, 127.000000)">
                <mask id="mask-18" fill="white">
                    <use xlink:href="#path-17"></use>
                </mask>
                <g id="Clip-26"></g>
                <line x1="-1.04368674e-07" y1="0.5" x2="1" y2="0.5" id="Stroke-25" stroke="#FFFFFF" stroke-width="0.761" mask="url(#mask-18)"></line>
            </g>
            <g id="Group-30" transform="translate(0.000000, 143.000000)">
                <mask id="mask-20" fill="white">
                    <use xlink:href="#path-19"></use>
                </mask>
                <g id="Clip-29"></g>
                <line x1="-1.04368674e-07" y1="0.5" x2="1" y2="0.5" id="Stroke-28" stroke="#FFFFFF" stroke-width="0.761" mask="url(#mask-20)"></line>
            </g>
            <g id="Group-33" transform="translate(0.000000, 159.000000)">
                <mask id="mask-22" fill="white">
                    <use xlink:href="#path-21"></use>
                </mask>
                <g id="Clip-32"></g>
                <line x1="-1.04368674e-07" y1="0.5" x2="1" y2="0.5" id="Stroke-31" stroke="#FFFFFF" stroke-width="0.761" mask="url(#mask-22)"></line>
            </g>
            <g id="Group-36" transform="translate(0.000000, 175.000000)">
                <mask id="mask-24" fill="white">
                    <use xlink:href="#path-23"></use>
                </mask>
                <g id="Clip-35"></g>
                <line x1="-1.04368674e-07" y1="0.5" x2="1" y2="0.5" id="Stroke-34" stroke="#FFFFFF" stroke-width="0.761" mask="url(#mask-24)"></line>
            </g>
            <g id="Group-39" transform="translate(0.000000, 191.000000)">
                <mask id="mask-26" fill="white">
                    <use xlink:href="#path-25"></use>
                </mask>
                <g id="Clip-38"></g>
                <line x1="-1.04368674e-07" y1="0.5" x2="1" y2="0.5" id="Stroke-37" stroke="#FFFFFF" stroke-width="0.761" mask="url(#mask-26)"></line>
            </g>
            <g id="Group-42" transform="translate(0.000000, 207.000000)">
                <mask id="mask-28" fill="white">
                    <use xlink:href="#path-27"></use>
                </mask>
                <g id="Clip-41"></g>
                <line x1="-1.04368674e-07" y1="0.5" x2="1" y2="0.5" id="Stroke-40" stroke="#FFFFFF" stroke-width="0.761" mask="url(#mask-28)"></line>
            </g>
            <g id="Group-45" transform="translate(0.000000, 223.000000)">
                <mask id="mask-30" fill="white">
                    <use xlink:href="#path-29"></use>
                </mask>
                <g id="Clip-44"></g>
                <line x1="-1.04368674e-07" y1="0.5" x2="1" y2="0.5" id="Stroke-43" stroke="#FFFFFF" stroke-width="0.761" mask="url(#mask-30)"></line>
            </g>
            <g id="Group-48" transform="translate(0.000000, 239.000000)">
                <mask id="mask-32" fill="white">
                    <use xlink:href="#path-31"></use>
                </mask>
                <g id="Clip-47"></g>
                <line x1="-1.04368674e-07" y1="0.5" x2="1" y2="0.5" id="Stroke-46" stroke="#FFFFFF" stroke-width="0.761" mask="url(#mask-32)"></line>
            </g>
            <g id="Group-51" transform="translate(0.000000, 255.000000)">
                <mask id="mask-34" fill="white">
                    <use xlink:href="#path-33"></use>
                </mask>
                <g id="Clip-50"></g>
                <line x1="-1.04368674e-07" y1="0.5" x2="1" y2="0.5" id="Stroke-49" stroke="#FFFFFF" stroke-width="0.761" mask="url(#mask-34)"></line>
            </g>
            <g id="Group-54" transform="translate(0.000000, 271.000000)">
                <mask id="mask-36" fill="white">
                    <use xlink:href="#path-35"></use>
                </mask>
                <g id="Clip-53"></g>
                <line x1="-1.04368674e-07" y1="0.5" x2="1" y2="0.5" id="Stroke-52" stroke="#FFFFFF" stroke-width="0.761" mask="url(#mask-36)"></line>
            </g>
            <g id="Group-57" transform="translate(0.000000, 286.000000)">
                <mask id="mask-38" fill="white">
                    <use xlink:href="#path-37"></use>
                </mask>
                <g id="Clip-56"></g>
                <line x1="-1.04368674e-07" y1="0.5" x2="1" y2="0.5" id="Stroke-55" stroke="#FFFFFF" stroke-width="0.761" mask="url(#mask-38)"></line>
            </g>
            <g id="Group-60" transform="translate(0.000000, 302.000000)">
                <mask id="mask-40" fill="white">
                    <use xlink:href="#path-39"></use>
                </mask>
                <g id="Clip-59"></g>
                <line x1="-1.04368674e-07" y1="0.5" x2="1" y2="0.5" id="Stroke-58" stroke="#FFFFFF" stroke-width="0.761" mask="url(#mask-40)"></line>
            </g>
            <g id="Group-63" transform="translate(0.000000, 318.000000)">
                <mask id="mask-42" fill="white">
                    <use xlink:href="#path-41"></use>
                </mask>
                <g id="Clip-62"></g>
                <line x1="-1.04368674e-07" y1="0.5" x2="1" y2="0.5" id="Stroke-61" stroke="#FFFFFF" stroke-width="0.761" mask="url(#mask-42)"></line>
            </g>
            <g id="Group-66" transform="translate(0.000000, 334.000000)">
                <mask id="mask-44" fill="white">
                    <use xlink:href="#path-43"></use>
                </mask>
                <g id="Clip-65"></g>
                <line x1="-1.04368674e-07" y1="0.5" x2="1" y2="0.5" id="Stroke-64" stroke="#FFFFFF" stroke-width="0.761" mask="url(#mask-44)"></line>
            </g>
            <g id="Group-69" transform="translate(0.000000, 350.000000)">
                <mask id="mask-46" fill="white">
                    <use xlink:href="#path-45"></use>
                </mask>
                <g id="Clip-68"></g>
                <line x1="-1.04368674e-07" y1="0.5" x2="1" y2="0.5" id="Stroke-67" stroke="#FFFFFF" stroke-width="0.761" mask="url(#mask-46)"></line>
            </g>
            <g id="Group-72" transform="translate(0.000000, 366.000000)">
                <mask id="mask-48" fill="white">
                    <use xlink:href="#path-47"></use>
                </mask>
                <g id="Clip-71"></g>
                <line x1="-1.04368674e-07" y1="0.5" x2="1" y2="0.5" id="Stroke-70" stroke="#FFFFFF" stroke-width="0.761" mask="url(#mask-48)"></line>
            </g>
            <g id="Group-75" transform="translate(0.000000, 382.000000)">
                <mask id="mask-50" fill="white">
                    <use xlink:href="#path-49"></use>
                </mask>
                <g id="Clip-74"></g>
                <line x1="-1.04368674e-07" y1="0.5" x2="1" y2="0.5" id="Stroke-73" stroke="#FFFFFF" stroke-width="0.761" mask="url(#mask-50)"></line>
            </g>
            <g id="Group-78" transform="translate(0.000000, 398.000000)">
                <mask id="mask-52" fill="white">
                    <use xlink:href="#path-51"></use>
                </mask>
                <g id="Clip-77"></g>
                <line x1="-1.04368674e-07" y1="0.5" x2="1" y2="0.5" id="Stroke-76" stroke="#FFFFFF" stroke-width="0.761" mask="url(#mask-52)"></line>
            </g>
            <g id="Group-81" transform="translate(0.000000, 414.000000)">
                <mask id="mask-54" fill="white">
                    <use xlink:href="#path-53"></use>
                </mask>
                <g id="Clip-80"></g>
                <line x1="-1.04368674e-07" y1="0.55975" x2="1" y2="0.55975" id="Stroke-79" stroke="#FFFFFF" stroke-width="0.761" mask="url(#mask-54)"></line>
            </g>
        </g>
    </g>
</svg>