<svg xmlns="http://www.w3.org/2000/svg" viewBox="0 0 344.14 45.34"><path d="M0,2.1C0,1.09.47.59,1.42.59H41.06c1,0,1.52.48,1.52,1.46V43.6a1.32,1.32,0,0,1-1.47,1.52H38.62c-1,0-1.51-.21-1.51-.64s-.39-.73-1.17-.73H6.59c-.81,0-1.22.21-1.22.63s-.49.74-1.46.74H1.51A1.32,1.32,0,0,1,0,43.65Zm29.3,5c.84-.85.88-1.27.09-1.27H6.59c-.81,0-1.22.39-1.22,1.17V37.3q0,1.23,1.17,1.23h14.9c1.49.39,1.44-.27-.15-2-.81-1.2-1.08-1.92-.78-2.15L21,34c0-.13-.54-.13-1.52,0L9.23,35.5a1.62,1.62,0,0,1-2-1.42l-.3-1.66c-.19-1.14.25-1.76,1.32-1.85,4.14-.43,8.27-.91,12.4-1.47a1.3,1.3,0,0,1,1.66,1.27l.1.88c.1.94.54,1,1.32.24l.68-.78a2.63,2.63,0,0,0,.44-2.63,58.57,58.57,0,0,1-2.19-11.72,1.2,1.2,0,0,0-1.32-1.17H8a1.32,1.32,0,0,1-1.51-1.47V11.87c0-1,.48-1.52,1.46-1.52h13c.78,0,1.17-.49,1.17-1.46V8.11a1.3,1.3,0,0,1,1.47-1.47h1.9A1.32,1.32,0,0,1,27,8.11a3.17,3.17,0,0,1,.05,1c.07.85.59,1.27,1.56,1.27s1.31-.36.59-1.07S28.52,7.91,29.3,7.13Zm-21.73,11c0-1,.45-1.56,1.37-1.56H20.26a1.32,1.32,0,0,1,1.52,1.47v8.35a1.32,1.32,0,0,1-1.47,1.51H9.08a1.32,1.32,0,0,1-1.51-1.47ZM17,22.27Q17,21,15.82,21H13.67a1.07,1.07,0,0,0-1.22,1.18c0,.81.39,1.22,1.17,1.22h2.15C16.58,23.44,17,23.05,17,22.27ZM37.11,35.16c0-1.11-.21-1.08-.64.09a3.66,3.66,0,0,1-3.66,2.64Q31.06,38,28.91,36c-.72-.92-1.53-.88-2.45.09L25.29,37.3c-.88.82-.92,1.23-.14,1.23H35.89a1.07,1.07,0,0,0,1.22-1.18Zm0-28c0-.85-.38-1.27-1.12-1.27H34.42c-1,0-1.05.39-.14,1.17s1.12,1.47.63,2.15-.55,1.17.2,1.17,1.32.49,1.32,1.47v1.85A1.32,1.32,0,0,1,35,15.19h-6.4c-.78,0-1.15.48-1.12,1.46a42.78,42.78,0,0,0,.78,6.06c.2.87.52.78,1-.3l1.42-4.15c.29-1.07,1-1.41,2.09-1l1.47.53a1.61,1.61,0,0,1,1.12,2.05,55.17,55.17,0,0,1-3.61,9.23,2.4,2.4,0,0,0-.2,2.35c.59.81,1,1.23,1.13,1.27.19-.13.32-.72.39-1.76v-1c0-1,.49-1.33,1.46-1.07l1.47.39c.78.19,1.17-.1,1.17-.88Z" style="fill:#ff0"/><path d="M68.21,1.56c0-1,.47-1.56,1.42-1.56H73.1a1.32,1.32,0,0,1,1.51,1.46v.69c0,.81.39,1.22,1.17,1.22H91.65a1.31,1.31,0,0,1,1.51,1.46v6.5c0,1-.48,1.51-1.46,1.51H89.11a1.31,1.31,0,0,1-1.51-1.46V9.77q0-1.23-1.17-1.23H56.69a1.07,1.07,0,0,0-1.22,1.18v1.8A1.32,1.32,0,0,1,54,13H51.42a1.32,1.32,0,0,1-1.52-1.47V4.88a1.32,1.32,0,0,1,1.47-1.51H67c.82,0,1.22-.39,1.22-1.17Zm-11.28,11a1.3,1.3,0,0,1,1.47-1.47H84.72a1.32,1.32,0,0,1,1.51,1.47v2.29c0,1-.49,1.52-1.46,1.52H74.46a2.72,2.72,0,0,0-1.66.39c-.42.26-.21.81.64,1.66A20.46,20.46,0,0,1,75.83,22q.49,1.08,2.1.39a42.65,42.65,0,0,0,7-3.85,2,2,0,0,1,2.83.29l1.32,1.46c1.11,1.21,1.12,2.14,0,2.79a59.64,59.64,0,0,1-8.64,4.54c-.78.36-.67,1,.34,1.8a74.74,74.74,0,0,0,11.72,7.48c1,.55,1.27,1.28.68,2.19l-1.37,2a1.74,1.74,0,0,1-2.49.73,67,67,0,0,1-9.71-6.5c-1-.81-1.52-.73-1.61.25q-.19,5.18-2.69,7.81a7.34,7.34,0,0,1-3.91,1.86A17.35,17.35,0,0,1,65,44.63a2.15,2.15,0,0,1-1.71-1.86l-.39-2.15c-.16-.84-.73-1.07-1.71-.68a53.86,53.86,0,0,1-7.42,2.59,1.77,1.77,0,0,1-2.25-1l-1-2c-.62-1.24-.41-2,.63-2.25A70.39,70.39,0,0,0,71,28.81,1.74,1.74,0,0,0,71.78,27c-.2-.58-.83-.57-1.91.05a62.12,62.12,0,0,1-15.28,6.5,2,2,0,0,1-2.54-1.08,19.53,19.53,0,0,1-1-2.05c-.53-1-.27-1.59.78-1.85a68.34,68.34,0,0,0,15.77-6.4c.75-.55.94-1,.58-1.37s-1-.29-2,.2A75.34,75.34,0,0,1,55.27,25.1a2.2,2.2,0,0,1-2.63-1.17l-1.13-2c-.55-.94-.34-1.53.64-1.76A76.91,76.91,0,0,0,62.79,17c1-.42,1-.63,0-.63H58.45a1.32,1.32,0,0,1-1.52-1.47ZM72.46,35.25c0-.81-.44-.91-1.42-.29a37.4,37.4,0,0,1-5.71,3.17c-.78.4-.68.74.29,1a12.22,12.22,0,0,0,5.08.39Q72.37,38.28,72.46,35.25Z" style="fill:#ff0"/><path d="M126,1.76c0-1,.45-1.56,1.36-1.56h3c1,0,1.52.48,1.52,1.46V7.57c0,.81.39,1.22,1.17,1.22h8.4a1.31,1.31,0,0,1,1.51,1.46q0,11.78-.88,23a36.4,36.4,0,0,1-1,7.81q-2.1,4.59-7.67,3.52l-1.95-.34a2.18,2.18,0,0,1-1.81-1.86L129.2,39c-.16-1.07.21-1.44,1.12-1.12a15.47,15.47,0,0,0,4.1.83,2.94,2.94,0,0,0,1.42-.19,7.26,7.26,0,0,0,.68-3.67q.54-9.42.54-18.84c0-1-.34-1.52-1.12-1.52H133c-.78,0-1.21.49-1.27,1.47a65.56,65.56,0,0,1-2.1,15.53,29,29,0,0,1-5.91,11.71c-1.11,1.18-2.15,1.27-3.12.3l-1.13-1.13c-1-1-1.23-1.74-.78-2.29s.25-.83-.73-.44-1.45.18-1.61-.64a1.46,1.46,0,0,0-1.86-1.12q-5.37,1.08-12.89,2.15c-1.07.1-1.69-.31-1.85-1.22l-.59-2.93c-.23-1.07.11-1.66,1-1.76a8,8,0,0,1,1.61-.14,2.9,2.9,0,0,0,2.1-1.62l3.66-6.54c.39-.75.08-1.56-.93-2.44l-6.44-5.47q-1.32-1.17,0-2.73a8,8,0,0,0,.83-1c1.07-1.2,1.82-1.64,2.24-1.32s.86.18,1.22-.63q2.06-4.44,3.76-9.09a1.49,1.49,0,0,1,2.2-1L113,3.17a1.64,1.64,0,0,1,.92,2.4q-2,5-4.44,9.76a1.84,1.84,0,0,0,.34,2.49c.78.65,1.42.46,1.91-.58l1.9-4.35a1.45,1.45,0,0,1,2.2-.78c.85.33,1.69.7,2.54,1.12a1.43,1.43,0,0,1,.83,2.15q-5,10.54-8.45,16.6c-.36.69,0,1,1.12.83l1.32-.19c.78-.1,1-.67.59-1.71a1.73,1.73,0,0,1,.78-2.49l2.2-1.08c1-.48,1.72-.19,2.24.88a57.06,57.06,0,0,1,2.15,6.3c.26.78.64.69,1.12-.29q3.33-7.66,3.57-18.61a1,1,0,0,0-1.17-1.17h-2.25A1.31,1.31,0,0,1,121,13V10.3a1.31,1.31,0,0,1,1.46-1.51h2.35c.81,0,1.22-.39,1.22-1.17Z" style="fill:#ff0"/><path d="M159.52,1.76c0-1,.46-1.56,1.37-1.56h2.78c1,0,1.52.48,1.52,1.46V3.27c0,.82.39,1.22,1.17,1.22h9.18c.81,0,1.22-.39,1.22-1.17V1.71A1.31,1.31,0,0,1,178.22.2h2.59c1,0,1.51.48,1.51,1.46V3.27c0,.82.39,1.22,1.18,1.22h8.35A1.32,1.32,0,0,1,193.36,6V8.45A1.32,1.32,0,0,1,191.89,10h-8.35c-.81,0-1.22.39-1.22,1.17v1.22c0,1-.48,1.52-1.46,1.52h-2.59a1.32,1.32,0,0,1-1.51-1.47V11.18c0-.81-.39-1.22-1.17-1.22h-9.18c-.82,0-1.22.39-1.22,1.17v1.22a1.32,1.32,0,0,1-1.47,1.52H161a1.32,1.32,0,0,1-1.52-1.47V11.18c0-.81-.39-1.22-1.17-1.22h-7.86c-1,0-1.52-.49-1.52-1.46V6a1.32,1.32,0,0,1,1.47-1.52h7.86c.81,0,1.22-.39,1.22-1.17Zm-7.37,14.65c0-1,.45-1.57,1.37-1.57h35A1.32,1.32,0,0,1,190,16.31V43.6a1.32,1.32,0,0,1-1.47,1.52h-2.68c-1,0-1.51-.31-1.51-.93s-.39-1-1.18-1H159c-.81,0-1.22.31-1.22.93s-.49,1-1.46,1h-2.69a1.32,1.32,0,0,1-1.51-1.47Zm15.77,5.12c0-.81-.39-1.22-1.17-1.22H159c-.81,0-1.22.39-1.22,1.17V25c0,.81.39,1.22,1.17,1.22h7.72c.81,0,1.22-.39,1.22-1.17Zm0,11.28c0-.81-.39-1.22-1.17-1.22H159c-.81,0-1.22.39-1.22,1.17v3.71q0,1.23,1.17,1.23h7.72a1.07,1.07,0,0,0,1.22-1.18Zm16.41-11.28a1.06,1.06,0,0,0-1.18-1.22h-8.3c-.81,0-1.22.39-1.22,1.17V25c0,.81.39,1.22,1.17,1.22h8.3q1.23,0,1.23-1.17Zm0,11.28a1.06,1.06,0,0,0-1.18-1.22h-8.3c-.81,0-1.22.39-1.22,1.17v3.71q0,1.23,1.17,1.23h8.3c.82,0,1.23-.4,1.23-1.18Z" style="fill:#ff0"/><path d="M199,21.63a1.29,1.29,0,0,1,1.47-1.46h8A1.31,1.31,0,0,1,210,21.63v12.6a3,3,0,0,0,1.46,2.29,13.44,13.44,0,0,0,3.42,1.66,56,56,0,0,0,11.62,1.08h8.79a61.58,61.58,0,0,0,7.52-.73c1-.17,1.24.24.78,1.22a21.38,21.38,0,0,0-1.32,3.41,1.92,1.92,0,0,1-1.95,1.57H224.51a53.78,53.78,0,0,1-8-.83,16,16,0,0,1-7.66-3.57,1.48,1.48,0,0,0-2.35.34l-2.34,2.93q-1.22,1.51-2.1,0c-.59-1-1.25-2-2-3s-.57-1.75.44-2.24l2.34-1.22c1-.55,1.52-1.22,1.52-2v-8.4a1.06,1.06,0,0,0-1.18-1.22h-2.63A1.32,1.32,0,0,1,199,24.07Zm2.64-10.69q1.51-1.51,2.88-.54,1.17.88,2.34,1.95c1,1,1.13,2,.35,3l-1.52,1.91a1.47,1.47,0,0,1-2.49.14,26.39,26.39,0,0,0-2.88-2.68c-.85-.72-.8-1.57.15-2.54Zm1.61-9c1.11-1.13,2.1-1.46,3-1,1.11.68,2.21,1.43,3.32,2.24a1.7,1.7,0,0,1,.1,2.69L208.1,7.81c-.87,1-1.75,1.08-2.63.2s-1.95-1.65-2.93-2.39q-1.75-1.18-.2-2.74ZM211.72,8c0-1,.47-1.51,1.41-1.51h28c1,0,1.52.48,1.52,1.46V10a1.32,1.32,0,0,1-1.47,1.51H213.23c-1,0-1.51-.48-1.51-1.46Zm2.15,18.6c0-1,.48-1.51,1.46-1.51h23.19c1,0,1.52.49,1.52,1.46V35.4a1.32,1.32,0,0,1-1.47,1.51H215.33a1.29,1.29,0,0,1-1.46-1.46Zm1.22-12.3c0-1,.45-1.56,1.36-1.56H237.3c1,0,1.52.48,1.52,1.46v1.9a1.32,1.32,0,0,1-1.47,1.52H216.6a1.32,1.32,0,0,1-1.51-1.47Zm0,6.15A1.29,1.29,0,0,1,216.55,19H237.3c1,0,1.52.48,1.52,1.46v1.9a1.32,1.32,0,0,1-1.47,1.52H216.6a1.32,1.32,0,0,1-1.51-1.47Zm.73-18.55A1.3,1.3,0,0,1,217.28.39h20a1.32,1.32,0,0,1,1.52,1.47v1.9a1.32,1.32,0,0,1-1.47,1.51h-20c-1,0-1.51-.48-1.51-1.46ZM234.37,31a1,1,0,0,0-1.17-1.13H220.75c-.81,0-1.22.35-1.22,1S219.92,32,220.7,32h12.45C234,32,234.37,31.64,234.37,31Z" style="fill:#ff0"/><path d="M254.74,1.76c0-1,.45-1.56,1.36-1.56h2.3c1,0,1.51.48,1.51,1.46V7c0,.82.39,1.22,1.17,1.22H263a1.32,1.32,0,0,1,1.51,1.47v2.05A1.31,1.31,0,0,1,263,13.23h-1.91c-.81,0-1.22.49-1.22,1.47a3.68,3.68,0,0,0,1.17,2.68A46.46,46.46,0,0,1,264.4,21a2.15,2.15,0,0,1,.15,2.93l-1.46,1.95c-.69.94-1.29.91-1.81-.1l-.39-.63c-.52-.85-.82-1.19-.88-1a4.15,4.15,0,0,0-.1,1.32V43.8a1.31,1.31,0,0,1-1.46,1.51h-2.2a1.31,1.31,0,0,1-1.51-1.46v-15c0-1.14-.22-1.14-.64,0l-1.32,3.22c-.52,1.07-1.25,1.06-2.19,0l-.79-1a2.53,2.53,0,0,1-.34-2.93,68.19,68.19,0,0,0,4.84-13.57q.28-1.32-.78-1.32h-2.4a1.31,1.31,0,0,1-1.51-1.46v-2c0-1,.49-1.52,1.46-1.52h2.45c.81,0,1.22-.39,1.22-1.17Zm8.59,30.52c0-1.05.45-1.57,1.37-1.57h9a1.32,1.32,0,0,1,1.51,1.47,4.43,4.43,0,0,1-.44,3q-3.27,6.93-9.61,8.83a1.71,1.71,0,0,1-2.25-1l-.68-1.37c-.56-1.07-.3-1.76.78-2a11.47,11.47,0,0,0,5.42-3.27c.61-.78.53-1.17-.25-1.17h-3.37a1.32,1.32,0,0,1-1.51-1.47ZM274.46.68a1.71,1.71,0,0,1,2.39.88l.54,1.17a1.7,1.7,0,0,0,1.66,1.18h1a2.48,2.48,0,0,0,2.05-1.47l.29-.49A2,2,0,0,1,284.81.63l2.3.69c1.07.29,1.4.78,1,1.46s-.25,1.13.53,1.13h3.18c1,0,1.51.48,1.51,1.46V7a1.31,1.31,0,0,1-1.46,1.51h-8.16c-.81,0-1.22.23-1.22.69s.39.78,1.17.78h6.5a1.31,1.31,0,0,1,1.51,1.46v1.47a1.31,1.31,0,0,1-1.46,1.51h-6.5c-.81,0-1.22.23-1.22.69s.39.73,1.17.73h9.18c1,0,1.52.49,1.52,1.46V19a1.32,1.32,0,0,1-1.47,1.52H281.74c-.75,0-.69.14.19.44l3,.58c1,.3,1.25.93.83,1.91l-.39,1c-.42,1.05-1,1.45-1.81,1.22s-1.27.15-1.27.93V29a3.4,3.4,0,0,0,.64,2.05c.39.49,1.14.25,2.25-.73a26,26,0,0,0,2.53-3,1.75,1.75,0,0,1,2.5-.73l1.41.69a1.58,1.58,0,0,1,.73,2.49,30.75,30.75,0,0,1-3.56,4.54,1.37,1.37,0,0,0,.29,2.39A27.38,27.38,0,0,0,293,38.62c1.2.43,1.56,1.14,1.07,2.15l-.78,1.61c-.55,1.27-1.32,1.74-2.29,1.42a28.74,28.74,0,0,1-7.43-4.4c-.84-.84-1.27-.89-1.27-.14a6.36,6.36,0,0,1-1.07,4.44A4.92,4.92,0,0,1,277,45.31l-2.44-.05a1.87,1.87,0,0,1-1.9-1.51l-.39-2c-.2-1,.18-1.45,1.12-1.22a6.05,6.05,0,0,0,3.32,0,1.93,1.93,0,0,0,.54-1v-9A1.06,1.06,0,0,0,276,29.44h-6.34c-1,0-1.52-.48-1.52-1.46V26.37a1.32,1.32,0,0,1,1.47-1.52h8c.75,0,.68-.13-.2-.39-1.33-.26-2.67-.47-4-.63-1.11-.16-1.52-.73-1.22-1.71s.05-1.61-.73-1.61h-5.23A1.32,1.32,0,0,1,264.7,19V17.38a1.31,1.31,0,0,1,1.46-1.51h9.18c.81,0,1.22-.23,1.22-.68s-.39-.74-1.17-.74h-6.1c-1,0-1.52-.49-1.52-1.46V11.52A1.32,1.32,0,0,1,269.24,10h6.1c.81,0,1.22-.23,1.22-.68s-.39-.79-1.17-.79h-8.06c-1,0-1.51-.48-1.51-1.46V5.42a1.31,1.31,0,0,1,1.46-1.51h3c.78,0,1.18-.07,1.18-.2l-.44-1c-.3-.52,0-.94,1-1.27Z" style="fill:#ff0"/><path d="M308,1.56Q308,0,309.37,0h2.54c1,0,1.52.49,1.52,1.46v.69c0,.81.39,1.22,1.17,1.22h2.15a1.31,1.31,0,0,1,1.51,1.46c0,1,.41,1,1.22-.09s1.65-1.32,2.59-.83l1.37.73c1.23.68,1.53,1.51.88,2.49l-1.86,2.49q-1,1.32.39,1.32c1,0,1.51.42,1.51,1.27,0,1.17.25,1.2.74.09A87,87,0,0,0,328.81,2,1.54,1.54,0,0,1,330.86.63l2.24.69a1.55,1.55,0,0,1,1.18,2.15,36.36,36.36,0,0,1-1,3.56c-.23.78.05,1.17.83,1.17h8.55a1.32,1.32,0,0,1,1.51,1.47v2.68c0,1-.39,1.52-1.17,1.52s-1.3.49-1.47,1.46a60.9,60.9,0,0,1-4.39,14.94,2.48,2.48,0,0,0,.44,2.64,30.72,30.72,0,0,0,5.66,5.81,1.78,1.78,0,0,1,.54,2.59l-1.66,2.54c-.62,1-1.43,1-2.44.19A43.15,43.15,0,0,1,334,38.33c-.62-.81-1.3-.75-2,.2a23.67,23.67,0,0,1-6,5.56,1.61,1.61,0,0,1-2.4-.68l-1.22-1.95a1.58,1.58,0,0,1,.64-2.4A24.16,24.16,0,0,0,329,33a2.51,2.51,0,0,0,.25-2.64,50.25,50.25,0,0,1-2.35-6.3c-.26-.84-.52-1.07-.78-.68s-.84.24-1.76-.44l-1-.73c-.78-.56-1.17-.62-1.17-.2s-.44,1.12-1.32,2.1a26.79,26.79,0,0,1-4.84,4.35c-.94.68-1.41,1.14-1.41,1.36s.34.49,1,.39l5.52-.83c1.24-.16,1.94.27,2.1,1.27l.29,2.05a1.41,1.41,0,0,1-1.27,1.76L316,35.6c-.92.16-1.37.58-1.37,1.27a18.54,18.54,0,0,1-.34,5.51,3.76,3.76,0,0,1-3.23,2.69,14.31,14.31,0,0,1-4.73.14,1.82,1.82,0,0,1-1.76-1.61,22.05,22.05,0,0,1-.44-2.58c-.2-1,.2-1.39,1.17-1.13a10.75,10.75,0,0,0,3.47.2,3.23,3.23,0,0,0,.39-2.2q0-1.17-1.47-1l-5.86.63a1.5,1.5,0,0,1-1.75-1.37l-.44-2.44c-.2-1.17.24-1.79,1.32-1.85l7-.64a1.2,1.2,0,0,0,1.17-1.32v-3a1.25,1.25,0,0,1,1.46-1.41c.65.29,1.76-.2,3.32-1.47.88-.68.92-1,.1-1h-3.27a4.38,4.38,0,0,0-2.64,1.22q-2.38,1.86-4.83,3.51a1.5,1.5,0,0,1-2.39-.53l-1-1.52c-.78-1.2-.63-2.13.44-2.78a58.15,58.15,0,0,0,7.42-5.52c.91-.91,1-1.36.2-1.36h-7.13a1.32,1.32,0,0,1-1.52-1.47v-2.1a1.32,1.32,0,0,1,1.47-1.51h5.91A1.1,1.1,0,0,0,308,9.67q0-1.32-1.17-1.32H303a1.32,1.32,0,0,1-1.52-1.47v-2A1.32,1.32,0,0,1,303,3.37h3.76c.81,0,1.22-.39,1.22-1.17Zm7.62,8.11q1.07-1.32-.54-1.32c-1.08,0-1.61.42-1.61,1.27s.14,1.32.44,1.32S314.76,10.51,315.58,9.67Zm7.12,7.62c.46-.85.33-1.27-.39-1.27h-4A3.37,3.37,0,0,0,316,17.19c-.72.81-.69,1.22.09,1.22h4.84A2,2,0,0,0,322.7,17.29Zm13.14-2.15c.13-.85-.18-1.27-.93-1.27H332a2.08,2.08,0,0,0-1.85,1.46,2.46,2.46,0,0,0,0,1.47c.79,2.7,1.58,5.08,2.4,7.13.32.78.7.68,1.12-.3A48.35,48.35,0,0,0,335.84,15.14Z" style="fill:#ff0"/></svg>