<?xml version="1.0" encoding="UTF-8"?>
<svg width="1142px" height="155px" viewBox="0 0 1142 155" version="1.1" xmlns="http://www.w3.org/2000/svg" xmlns:xlink="http://www.w3.org/1999/xlink">
    <title>Group 8</title>
    <defs>
        <polygon id="path-1" points="-1.42108547e-14 0 53.563 0 53.563 52.4369 -1.42108547e-14 52.4369"></polygon>
    </defs>
    <g id="Page-1" stroke="none" stroke-width="1" fill="none" fill-rule="evenodd">
        <g id="Group-8" transform="translate(2.000000, 2.000000)">
            <path d="M96.219,47.937 C96.213,47.875 96.216,47.811 96.209,47.75 C71.711,47.146 51.723,28.365 49.309,4.358 C49.165,2.925 49.105,1.467 49.089,0 C49.073,1.46 49.013,2.91 48.87,4.336 C46.426,28.749 25.825,47.81 0.769,47.81 C0.511,47.81 0.263,47.776 0.007,47.771 C0.002,47.821 0.005,47.874 -1.42108547e-14,47.923 C0.259,47.919 0.509,47.885 0.769,47.885 C26.783,47.885 47.939,68.446 49.013,94.197 C50.073,68.794 70.685,48.481 96.219,47.937 Z" id="Stroke-1" stroke="#FFFFFF" stroke-width="3.66" stroke-linecap="round" stroke-linejoin="round"></path>
            <path d="M1138.5622,70.4434 C1138.5592,70.4094 1138.5602,70.3754 1138.5572,70.3414 C1125.2592,70.0144 1114.4112,59.8204 1113.1012,46.7904 C1113.0222,46.0124 1112.9902,45.2204 1112.9812,44.4244 C1112.9722,45.2164 1112.9402,46.0044 1112.8632,46.7774 C1111.5362,60.0284 1100.3542,70.3744 1086.7542,70.3744 C1086.6152,70.3744 1086.4802,70.3554 1086.3412,70.3534 C1086.3382,70.3804 1086.3392,70.4084 1086.3372,70.4364 C1086.4772,70.4334 1086.6142,70.4154 1086.7542,70.4154 C1100.8742,70.4154 1112.3572,81.5754 1112.9402,95.5514 C1113.5152,81.7634 1124.7042,70.7384 1138.5622,70.4434 Z" id="Stroke-3" stroke="#FFFFFF" stroke-width="1.986" stroke-linecap="round" stroke-linejoin="round"></path>
            <g id="Group-7" transform="translate(67.115500, 99.713900)">
                <mask id="mask-2" fill="white">
                    <use xlink:href="#path-1"></use>
                </mask>
                <g id="Clip-6"></g>
                <path d="M53.563,26.685 C53.56,26.651 53.561,26.615 53.558,26.581 C39.92,26.245 28.793,15.79 27.449,2.426 C27.369,1.628 27.336,0.817 27.327,0 C27.318,0.812 27.285,1.62 27.205,2.414 C25.845,16.003 14.376,26.614 0.428,26.614 C0.285,26.614 0.147,26.595 0.004,26.593 C0.002,26.621 0.003,26.65 -1.42108547e-14,26.678 C0.144,26.675 0.284,26.656 0.428,26.656 C14.91,26.656 26.687,38.102 27.285,52.437 C27.875,38.295 39.349,26.988 53.563,26.685" id="Fill-5" fill="#FFFFFF" mask="url(#mask-2)"></path>
            </g>
        </g>
    </g>
</svg>