<svg xmlns="http://www.w3.org/2000/svg" viewBox="0 0 387.06 84.75"><path d="M387.06,15V14.9A15.08,15.08,0,0,1,372.42,1.36c-.05-.45-.06-.9-.07-1.36a12,12,0,0,1-.07,1.35,15.09,15.09,0,0,1-15,13.57H357V15l.24,0A15.08,15.08,0,0,1,372.33,29.4,15.07,15.07,0,0,1,387.06,15Z" style="fill:#7c8c8f;opacity:0.4"/><path d="M15,77.52v0A7.55,7.55,0,0,1,7.71,70.7c0-.22,0-.45,0-.68,0,.23,0,.46,0,.68A7.56,7.56,0,0,1,.12,77.5H0v0H.12a7.55,7.55,0,0,1,7.54,7.24A7.55,7.55,0,0,1,15,77.52Z" style="fill:#7c8c8f;opacity:0.4"/><path d="M43.25,27.18a1.57,1.57,0,0,1,2.38.31l1.12,1.79a2,2,0,0,0,1.74,1.08H54A2,2,0,0,0,55.7,29l.5-1.34a1.39,1.39,0,0,1,1.88-1l2.6.72c1,.33,1.34.92.89,1.79s-.18,1.21.54,1.21h7c.93,0,1.39.45,1.39,1.34V34a1.21,1.21,0,0,1-1.35,1.39H54.9c-.75,0-1.12.36-1.12,1.08s.36,1.12,1.07,1.12H67.8a1.2,1.2,0,0,1,1.38,1.34v2.24c0,.93-.44,1.39-1.34,1.39H54.9c-.75,0-1.12.36-1.12,1.07s.36,1.12,1.07,1.12H70.21a1.21,1.21,0,0,1,1.39,1.35v2.19c0,.93-.44,1.39-1.34,1.39H50.33q-1,0,.27.36l.89.18c1,.21,1.38.64,1.26,1.3s.18,1.12.89,1.12h15.5c.93,0,1.39.44,1.39,1.34v2.19a1.21,1.21,0,0,1-1.35,1.39H58.48c-.95,0-1,.29-.22.85a33.89,33.89,0,0,0,12.18,4c1.1.18,1.45.75,1,1.7l-.94,2.33a1.65,1.65,0,0,1-2,1.12,35.8,35.8,0,0,1-14.29-6,24.15,24.15,0,0,1-2.69-2.33c-.71-.75-1.27-.81-1.65-.18a18.76,18.76,0,0,1-2.82,3.22,29.84,29.84,0,0,1-12.46,5.47,1.79,1.79,0,0,1-2.06-1.17l-1-2.23c-.44-.9-.22-1.44.68-1.62a25.19,25.19,0,0,0,10.7-4.12c.66-.68.63-1-.09-1H33.22a1.21,1.21,0,0,1-1.39-1.34V54a1.21,1.21,0,0,1,1.35-1.38H45.76c.72,0,1.21-.45,1.48-1.35l.09-.4c.15-.81-.11-1.21-.76-1.21H32.1a1.21,1.21,0,0,1-1.39-1.34v-2.2a1.21,1.21,0,0,1,1.35-1.39H47.37c.75,0,1.12-.35,1.12-1.07s-.35-1.12-1.07-1.12H34.25a1.21,1.21,0,0,1-1.39-1.34V39a1.21,1.21,0,0,1,1.35-1.39H47.37c.75,0,1.12-.36,1.12-1.08s-.35-1.12-1.07-1.12h-14c-.93,0-1.39-.44-1.39-1.34V31.75a1.21,1.21,0,0,1,1.35-1.39h6.76c.74,0,1-.21.67-.63s.09-.92,1.08-1.61Z" style="fill:#7c8c8f"/><path d="M85.93,47.33a1.21,1.21,0,0,1,1.35-1.39h2.6a1.21,1.21,0,0,1,1.38,1.35V48.9c0,.75.36,1.12,1.08,1.12h5.24A1.21,1.21,0,0,1,99,51.36v2.46a1.21,1.21,0,0,1-1.35,1.39H92.38a1,1,0,0,0-1.12,1.08v3.13q0,1.08,1.35,1l5.46-.67c1-.09,1.55.27,1.7,1.07l.36,1.84c.18,1-.1,1.61-.85,1.79q-9.68,1.83-18.76,2.82a1.53,1.53,0,0,1-1.89-1.12l-1-2.73c-.36-1,0-1.52,1-1.61l6.14-.59a1.05,1.05,0,0,0,1.11-1.16V56.33c0-.74-.35-1.12-1.07-1.12H79.93c-.92,0-1.39-.44-1.39-1.34V51.41A1.21,1.21,0,0,1,79.89,50h4.93a1,1,0,0,0,1.11-1.08ZM77.87,29.24a1.19,1.19,0,0,1,1.35-1.35H99.06a1.21,1.21,0,0,1,1.39,1.35v2.19a1.21,1.21,0,0,1-1.35,1.39H90.55c-.72,0-1.27.45-1.66,1.34l-1.84,4.66c-.26.72.06,1,1,1l4.3-.36c.72-.12.81-.66.27-1.61A1.4,1.4,0,0,1,93,35.6l1.79-1.08a1.54,1.54,0,0,1,2.33.36,47,47,0,0,1,3.85,7.17c.48,1.16.27,2-.63,2.5l-2,1.26c-1,.57-1.63.37-2-.58a1.72,1.72,0,0,0-2-1.26Q87,45.05,79.93,45.76c-1.16.09-1.82-.32-2-1.25l-.4-2.33c-.18-1,.22-1.58,1.21-1.7L80,40.39c.71-.06,1.24-.57,1.57-1.52L83.43,34c.29-.77.1-1.16-.59-1.16H79.26a1.21,1.21,0,0,1-1.39-1.34Zm24.9,4c0-.92.44-1.38,1.3-1.38h2.69c.93,0,1.39.44,1.39,1.34V56.56A1.21,1.21,0,0,1,106.81,58h-2.65a1.21,1.21,0,0,1-1.39-1.35Zm8.92-5.37c0-1,.43-1.43,1.3-1.43h2.64c.92,0,1.39.44,1.39,1.34v34.8a7,7,0,0,1-1.21,4,3.51,3.51,0,0,1-2.24,1.12,28,28,0,0,1-6-.23,1.91,1.91,0,0,1-1.61-1.65l-.36-2.15c-.21-1.2.15-1.69,1.08-1.48a12.35,12.35,0,0,0,4.83.31l.23-1.7Z" style="fill:#7c8c8f"/><path d="M133,54.05c.75-1.08,1.56-1.31,2.42-.72l2.2,1.39A1.43,1.43,0,0,1,138,57a39.31,39.31,0,0,1-9.36,9.81,2,2,0,0,1-2.87-.49c-.56-.6-1.09-1.2-1.56-1.8-.69-.77-.53-1.55.49-2.32A38.92,38.92,0,0,0,133,54.05Zm-5.28-24.14a1.18,1.18,0,0,1,1.34-1.34h28.76a1.2,1.2,0,0,1,1.38,1.34V50.65A1.2,1.2,0,0,1,157.86,52H129.11c-.93,0-1.39-.44-1.39-1.34Zm25.93,5c0-.78-.34-1.17-1-1.17H134.39a1,1,0,0,0-1.12,1.08V45.76c0,.75.36,1.12,1.08,1.12h18.18c.75,0,1.12-.36,1.12-1.07Zm-3.13,19.25a1.75,1.75,0,0,1,2.64,0,43.71,43.71,0,0,0,9.22,7.21c1.08.57,1.36,1.32.86,2.24l-1.62,2.82a1.41,1.41,0,0,1-2.15.54A55.32,55.32,0,0,1,149,58a1.61,1.61,0,0,1,.13-2.56Z" style="fill:#7c8c8f"/><path d="M176.76,28c0-1,.42-1.43,1.25-1.43h2.42c.93,0,1.39.44,1.39,1.34V30c0,.75.36,1.12,1.08,1.12h3.58a1.21,1.21,0,0,1,1.39,1.34v2.2a1.21,1.21,0,0,1-1.35,1.39h-3.58c-.75,0-1.12.16-1.12.49s.45.82,1.34,1.48c1.05.77,2.09,1.59,3.14,2.46s1.39,2,.76,2.87l-1,1.43c-.57.83-1.29.78-2.15-.18l-.81-.9c-.87-.83-1.3-.89-1.3-.18v7.66c0,.93-.45,1.39-1.34,1.39h-2.33c-.93,0-1.39-.45-1.39-1.34V45.85c0-.77-.37-.65-1.12.36a28,28,0,0,1-2.28,2.64c-.9.9-1.74.92-2.51,0l-1.12-1.34a1.65,1.65,0,0,1,.09-2.6,36.63,36.63,0,0,0,6.27-7.84c.36-.72.18-1.07-.54-1.07H171a1.21,1.21,0,0,1-1.39-1.35V32.51c0-.93.45-1.39,1.34-1.39h4.66c.75,0,1.12-.36,1.12-1.08Zm-3.94,28.21c.63-1.1,1.36-1.37,2.19-.8a21,21,0,0,1,1.8,1.21,1.63,1.63,0,0,1,.76,2.24,28.06,28.06,0,0,1-3.76,5.59,1.53,1.53,0,0,1-2.51,0c-.57-.59-1.09-1.19-1.57-1.79-.81-.89-.7-1.85.31-2.86A22.42,22.42,0,0,0,172.82,56.24Zm6.49-1.34c0-1,.44-1.43,1.3-1.43h2.69c.92,0,1.39.44,1.39,1.34v5.33c-.3,1.16.19,1.93,1.48,2.28a43.74,43.74,0,0,0,8.42.09,2.2,2.2,0,0,0,2.15-2.37c.09-1,.56-1.18,1.43-.67l2.15,1.3c1.13.65,1.64,1.44,1.52,2.37a4.25,4.25,0,0,1-2.51,3.67,38.62,38.62,0,0,1-5.33.63h-6.22l-3.58-.27A4.7,4.7,0,0,1,179.31,63ZM188.81,29c0-1,.42-1.43,1.25-1.43h16.66c.93,0,1.39.44,1.39,1.34V50.06c0,.93-.45,1.39-1.34,1.39H192.35c-.72,0-.68.48.13,1.43s1.48,2,2.11,3a1.51,1.51,0,0,1-.68,2.24l-1.79,1.07a1.42,1.42,0,0,1-2.15-.62,25.62,25.62,0,0,0-2.33-3.14c-.77-.89-.71-1.64.18-2.24l1-.67c.84-.54,1.2-.85,1.08-.94a1.4,1.4,0,0,0-.58-.09c-.36,0-.54-.42-.54-1.25Zm14.29,4.16c0-.68-.36-1-1.08-1h-7.17c-.74,0-1.12.33-1.12,1s.36,1,1.08,1H202C202.72,34.12,203.1,33.79,203.1,33.13Zm0,6.27c0-.68-.36-1-1.08-1h-7.17c-.74,0-1.12.33-1.12,1s.36,1,1.08,1H202C202.72,40.39,203.1,40.06,203.1,39.4Zm0,6.45c0-.77-.33-1.16-1-1.16h-7.26c-.74,0-1.12.36-1.12,1.07s.36,1.12,1.08,1.12H202C202.72,46.88,203.1,46.54,203.1,45.85Zm.58,9.36a1.74,1.74,0,0,1,2.42.41,30.74,30.74,0,0,1,3.22,4.83,1.49,1.49,0,0,1-.58,2.24,16,16,0,0,0-1.7,1c-1.17.69-2,.6-2.42-.27a29.51,29.51,0,0,0-3.18-5c-.66-.84-.51-1.55.45-2.15Z" style="fill:#7c8c8f"/><path d="M222.31,39.4c.51-1,1.16-1.28,2-.8l2,1.16a1.67,1.67,0,0,1,.63,2.47c-.63,1.19-1.33,2.38-2.1,3.58a3.85,3.85,0,0,0-.72,2V66.41c0,.93-.45,1.39-1.34,1.39h-2.24a1.21,1.21,0,0,1-1.39-1.35V54c0-.72-.27-.88-.81-.49s-1.18.27-1.92-.72l-1.12-1.48a1.93,1.93,0,0,1,.22-2.91A39.14,39.14,0,0,0,222.31,39.4ZM221,28.34c.66-1.16,1.41-1.51,2.24-1L225,28.39a1.74,1.74,0,0,1,.76,2.46,34.45,34.45,0,0,1-6.72,8.42,1.54,1.54,0,0,1-2.41-.27,21.68,21.68,0,0,1-1.39-1.79,1.45,1.45,0,0,1,.13-2.28A32.44,32.44,0,0,0,221,28.34Zm18.23-.49c0-1,.43-1.43,1.3-1.43H243c.93,0,1.39.44,1.39,1.34V29.6a1,1,0,0,0,1.08,1.12h7.07c.93,0,1.39.44,1.39,1.34v2.1c0,.93-.45,1.39-1.34,1.39h-7.08a1,1,0,0,0-1.12,1.08v2.28c0,.75.36,1.12,1.08,1.12h8.87a1.2,1.2,0,0,1,1.38,1.34v2.11c0,.93-.44,1.39-1.34,1.39H252.4c-.74,0-1.12.36-1.12,1.07v1c0,.75.36,1.12,1.08,1.12h1.93a1.21,1.21,0,0,1,1.38,1.35v2.28c0,.93-.44,1.39-1.34,1.39H252.4c-.74,0-1.12.36-1.12,1.07v8.2a9.91,9.91,0,0,1-.58,3,4,4,0,0,1-2.91,2.24,10.44,10.44,0,0,1-5.73-.13,2.39,2.39,0,0,1-1.7-2.11l-.45-2.73c-.12-.89.27-1.15,1.16-.76a16.72,16.72,0,0,0,3.14.72c1.25.33,1.91-.29,2-1.84V54.23c0-.75-.36-1.12-1.08-1.12H237c-.77,0-.73.43.14,1.3l2,2.28c.74,1,.7,1.78-.14,2.46l-2.19,1.75c-.81.66-1.55.49-2.24-.49a32.64,32.64,0,0,0-2.6-3.58c-.66-.84-.51-1.6.45-2.29a5.06,5.06,0,0,0,.9-.58c.92-.57,1-.85.17-.85h-4.07c-.93,0-1.39-.45-1.39-1.34V49.48a1.21,1.21,0,0,1,1.34-1.39h15.68c.75,0,1.12-.36,1.12-1.07V46c0-.75-.36-1.12-1.08-1.12H229.43A1.21,1.21,0,0,1,228,43.52v-2.1c0-.93.45-1.39,1.34-1.39h8.69c.75,0,1.12-.36,1.12-1.07V36.67c0-.74-.36-1.12-1.07-1.12H231.4c-.93,0-1.39-.45-1.39-1.34V32.1a1.2,1.2,0,0,1,1.34-1.38h6.72c.75,0,1.12-.36,1.12-1.08Z" style="fill:#7c8c8f"/><path d="M273.23,27.89c.3-1,.88-1.37,1.75-1.16l2.19.54c1.14.27,1.57.85,1.3,1.74L278,30.36c-.27.74,0,1.12.67,1.12h20.52a1.2,1.2,0,0,1,1.38,1.34V35a1.2,1.2,0,0,1-1.34,1.38H276.72q-1.07,0-1.74,1.35c-1.5,3-2.69,5.25-3.59,6.71a3.2,3.2,0,0,0-.35,1.66V66.77a1.21,1.21,0,0,1-1.35,1.39h-2.46a1.21,1.21,0,0,1-1.39-1.35V53.47c0-.72-.3-.79-.9-.23-.68.75-1.43.7-2.23-.13l-1.12-1.21c-.9-1-1-1.85-.23-2.69a53.25,53.25,0,0,0,7.7-11.73c.36-.72.18-1.08-.53-1.08h-5.6c-.93,0-1.39-.44-1.39-1.34v-2.2a1.2,1.2,0,0,1,1.34-1.38h7.93c.72,0,1.26-.45,1.61-1.35Zm10.88,11.2a1.19,1.19,0,0,1,1.35-1.34h2.37c.93,0,1.39.44,1.39,1.34v5.55c0,.75.36,1.12,1.07,1.12h7.39a1.21,1.21,0,0,1,1.39,1.35v2.28c0,.93-.45,1.39-1.34,1.39h-7.39c-.75,0-1.12.36-1.12,1.08v8.77c0,.75.36,1.12,1.07,1.12h9.18a1.21,1.21,0,0,1,1.39,1.35v2.24a1.2,1.2,0,0,1-1.34,1.38h-25.3c-.93,0-1.39-.44-1.39-1.34V63.14c0-.93.44-1.39,1.34-1.39H283c.75,0,1.12-.36,1.12-1.07V51.9c0-.75-.35-1.12-1.07-1.12h-7.21c-.93,0-1.39-.45-1.39-1.34V47.15a1.21,1.21,0,0,1,1.34-1.39H283c.75,0,1.12-.35,1.12-1.07Z" style="fill:#7c8c8f"/><path d="M323.53,27.85c0-1,.43-1.43,1.29-1.43H328c.93,0,1.39.44,1.39,1.34v.63a1,1,0,0,0,1.08,1.12H345c.93,0,1.39.44,1.39,1.34v6a1.2,1.2,0,0,1-1.34,1.38h-2.38a1.2,1.2,0,0,1-1.38-1.34V35.37a1,1,0,0,0-1.08-1.12H313c-.75,0-1.12.36-1.12,1.08V37a1.21,1.21,0,0,1-1.35,1.38h-2.37c-.93,0-1.39-.44-1.39-1.34V30.9c0-.93.45-1.39,1.34-1.39h14.34a1,1,0,0,0,1.12-1.08ZM313.18,38a1.18,1.18,0,0,1,1.34-1.34h24.14c.93,0,1.39.44,1.39,1.34v2.11a1.2,1.2,0,0,1-1.34,1.38h-9.45a2.44,2.44,0,0,0-1.52.36c-.39.24-.2.75.58,1.53a18.82,18.82,0,0,1,2.19,3.22c.3.66.94.78,1.93.36a39.84,39.84,0,0,0,6.45-3.54,1.79,1.79,0,0,1,2.59.27L342.69,45c1,1.11,1,2,.05,2.56a53.4,53.4,0,0,1-7.93,4.16c-.71.33-.61.88.32,1.66a67.48,67.48,0,0,0,10.74,6.85q1.44.77.63,2L345.25,64a1.6,1.6,0,0,1-2.29.67,61.75,61.75,0,0,1-8.91-6c-.9-.74-1.39-.67-1.48.23q-.18,4.74-2.46,7.16a6.63,6.63,0,0,1-3.58,1.7,15.87,15.87,0,0,1-6-.49,2,2,0,0,1-1.57-1.7l-.36-2q-.22-1.17-1.56-.63a48.14,48.14,0,0,1-6.81,2.37,1.61,1.61,0,0,1-2.06-.94l-.9-1.79c-.56-1.13-.37-1.82.58-2.06A64.46,64.46,0,0,0,326,52.84a1.57,1.57,0,0,0,.76-1.7c-.17-.54-.76-.52-1.74,0a56.76,56.76,0,0,1-14,6,1.83,1.83,0,0,1-2.33-1,17.35,17.35,0,0,1-.94-1.88c-.48-.89-.24-1.46.72-1.7a61.84,61.84,0,0,0,14.46-5.87c.69-.5.87-.92.54-1.25s-.94-.27-1.84.18a70.59,70.59,0,0,1-10,3.81,2,2,0,0,1-2.42-1.08l-1-1.79c-.51-.87-.32-1.4.58-1.61a71.44,71.44,0,0,0,9.76-2.91c.9-.39.88-.59,0-.59h-3.94c-.93,0-1.39-.44-1.39-1.34Zm14.24,20.78c0-.74-.4-.83-1.3-.27a34,34,0,0,1-5.24,2.91c-.71.36-.62.68.27.94a11.13,11.13,0,0,0,4.66.36A4.88,4.88,0,0,0,327.42,58.75Z" style="fill:#7c8c8f"/></svg>