<?xml version="1.0" encoding="UTF-8"?>
<svg width="961px" height="16px" viewBox="0 0 961 16" version="1.1" xmlns="http://www.w3.org/2000/svg" xmlns:xlink="http://www.w3.org/1999/xlink">
    <title>Group 72</title>
    <defs>
        <polygon id="path-1" points="0 0 15.4372 0 15.4372 15.438 0 15.438"></polygon>
    </defs>
    <g id="Page-1" stroke="none" stroke-width="1" fill="none" fill-rule="evenodd">
        <g id="Group-72" transform="translate(13.000000, 0.000000)">
            <path d="M15.438,7.719 C15.438,11.982 11.982,15.438 7.719,15.438 C3.456,15.438 -7.10542736e-15,11.982 -7.10542736e-15,7.719 C-7.10542736e-15,3.456 3.456,0 7.719,0 C11.982,0 15.438,3.456 15.438,7.719" id="Fill-1" fill="#F5FB6B"></path>
            <path d="M42.4551,7.719 C42.4551,11.982 38.9991,15.438 34.7361,15.438 C30.4731,15.438 27.0171,11.982 27.0171,7.719 C27.0171,3.456 30.4731,0 34.7361,0 C38.9991,0 42.4551,3.456 42.4551,7.719" id="Fill-3" fill="#F5FB6B"></path>
            <path d="M69.4722,7.719 C69.4722,11.982 66.0162,15.438 61.7532,15.438 C57.4902,15.438 54.0342,11.982 54.0342,7.719 C54.0342,3.456 57.4902,0 61.7532,0 C66.0162,0 69.4722,3.456 69.4722,7.719" id="Fill-5" fill="#F5FB6B"></path>
            <path d="M96.4893,7.719 C96.4893,11.982 93.0333,15.438 88.7703,15.438 C84.5073,15.438 81.0513,11.982 81.0513,7.719 C81.0513,3.456 84.5073,0 88.7703,0 C93.0333,0 96.4893,3.456 96.4893,7.719" id="Fill-7" fill="#F5FB6B"></path>
            <path d="M123.5059,7.719 C123.5059,11.982 120.0499,15.438 115.7869,15.438 C111.5239,15.438 108.0679,11.982 108.0679,7.719 C108.0679,3.456 111.5239,0 115.7869,0 C120.0499,0 123.5059,3.456 123.5059,7.719" id="Fill-9" fill="#F5FB6B"></path>
            <path d="M150.523,7.719 C150.523,11.982 147.067,15.438 142.804,15.438 C138.541,15.438 135.085,11.982 135.085,7.719 C135.085,3.456 138.541,0 142.804,0 C147.067,0 150.523,3.456 150.523,7.719" id="Fill-11" fill="#F5FB6B"></path>
            <path d="M177.5401,7.719 C177.5401,11.982 174.0841,15.438 169.8211,15.438 C165.5581,15.438 162.1021,11.982 162.1021,7.719 C162.1021,3.456 165.5581,0 169.8211,0 C174.0841,0 177.5401,3.456 177.5401,7.719" id="Fill-13" fill="#F5FB6B"></path>
            <path d="M204.5572,7.719 C204.5572,11.982 201.1012,15.438 196.8382,15.438 C192.5752,15.438 189.1192,11.982 189.1192,7.719 C189.1192,3.456 192.5752,0 196.8382,0 C201.1012,0 204.5572,3.456 204.5572,7.719" id="Fill-15" fill="#F5FB6B"></path>
            <path d="M231.5743,7.719 C231.5743,11.982 228.1183,15.438 223.8553,15.438 C219.5923,15.438 216.1363,11.982 216.1363,7.719 C216.1363,3.456 219.5923,0 223.8553,0 C228.1183,0 231.5743,3.456 231.5743,7.719" id="Fill-17" fill="#F5FB6B"></path>
            <path d="M258.5914,7.719 C258.5914,11.982 255.1354,15.438 250.8724,15.438 C246.6094,15.438 243.1534,11.982 243.1534,7.719 C243.1534,3.456 246.6094,0 250.8724,0 C255.1354,0 258.5914,3.456 258.5914,7.719" id="Fill-19" fill="#F5FB6B"></path>
            <path d="M285.608,7.719 C285.608,11.982 282.152,15.438 277.889,15.438 C273.626,15.438 270.17,11.982 270.17,7.719 C270.17,3.456 273.626,0 277.889,0 C282.152,0 285.608,3.456 285.608,7.719" id="Fill-21" fill="#F5FB6B"></path>
            <path d="M312.625,7.719 C312.625,11.982 309.169,15.438 304.906,15.438 C300.643,15.438 297.187,11.982 297.187,7.719 C297.187,3.456 300.643,0 304.906,0 C309.169,0 312.625,3.456 312.625,7.719" id="Fill-23" fill="#F5FB6B"></path>
            <path d="M339.6421,7.719 C339.6421,11.982 336.1861,15.438 331.9231,15.438 C327.6601,15.438 324.2041,11.982 324.2041,7.719 C324.2041,3.456 327.6601,0 331.9231,0 C336.1861,0 339.6421,3.456 339.6421,7.719" id="Fill-25" fill="#F5FB6B"></path>
            <path d="M366.6592,7.719 C366.6592,11.982 363.2032,15.438 358.9402,15.438 C354.6772,15.438 351.2212,11.982 351.2212,7.719 C351.2212,3.456 354.6772,0 358.9402,0 C363.2032,0 366.6592,3.456 366.6592,7.719" id="Fill-27" fill="#F5FB6B"></path>
            <path d="M393.6763,7.719 C393.6763,11.982 390.2203,15.438 385.9573,15.438 C381.6943,15.438 378.2383,11.982 378.2383,7.719 C378.2383,3.456 381.6943,0 385.9573,0 C390.2203,0 393.6763,3.456 393.6763,7.719" id="Fill-29" fill="#F5FB6B"></path>
            <path d="M420.6934,7.719 C420.6934,11.982 417.2374,15.438 412.9744,15.438 C408.7114,15.438 405.2554,11.982 405.2554,7.719 C405.2554,3.456 408.7114,0 412.9744,0 C417.2374,0 420.6934,3.456 420.6934,7.719" id="Fill-31" fill="#F5FB6B"></path>
            <path d="M447.71,7.719 C447.71,11.982 444.254,15.438 439.991,15.438 C435.728,15.438 432.272,11.982 432.272,7.719 C432.272,3.456 435.728,0 439.991,0 C444.254,0 447.71,3.456 447.71,7.719" id="Fill-33" fill="#F5FB6B"></path>
            <path d="M474.7271,7.719 C474.7271,11.982 471.2711,15.438 467.0081,15.438 C462.7451,15.438 459.2891,11.982 459.2891,7.719 C459.2891,3.456 462.7451,0 467.0081,0 C471.2711,0 474.7271,3.456 474.7271,7.719" id="Fill-35" fill="#F5FB6B"></path>
            <path d="M501.7442,7.719 C501.7442,11.982 498.2882,15.438 494.0252,15.438 C489.7622,15.438 486.3062,11.982 486.3062,7.719 C486.3062,3.456 489.7622,0 494.0252,0 C498.2882,0 501.7442,3.456 501.7442,7.719" id="Fill-37" fill="#F5FB6B"></path>
            <path d="M528.7613,7.719 C528.7613,11.982 525.3053,15.438 521.0423,15.438 C516.7793,15.438 513.3233,11.982 513.3233,7.719 C513.3233,3.456 516.7793,0 521.0423,0 C525.3053,0 528.7613,3.456 528.7613,7.719" id="Fill-39" fill="#F5FB6B"></path>
            <path d="M555.7784,7.719 C555.7784,11.982 552.3224,15.438 548.0594,15.438 C543.7964,15.438 540.3404,11.982 540.3404,7.719 C540.3404,3.456 543.7964,0 548.0594,0 C552.3224,0 555.7784,3.456 555.7784,7.719" id="Fill-41" fill="#F5FB6B"></path>
            <path d="M582.795,7.719 C582.795,11.982 579.339,15.438 575.076,15.438 C570.813,15.438 567.357,11.982 567.357,7.719 C567.357,3.456 570.813,0 575.076,0 C579.339,0 582.795,3.456 582.795,7.719" id="Fill-43" fill="#F5FB6B"></path>
            <path d="M609.8121,7.719 C609.8121,11.982 606.3561,15.438 602.0931,15.438 C597.8301,15.438 594.3741,11.982 594.3741,7.719 C594.3741,3.456 597.8301,0 602.0931,0 C606.3561,0 609.8121,3.456 609.8121,7.719" id="Fill-45" fill="#F5FB6B"></path>
            <path d="M636.8291,7.719 C636.8291,11.982 633.3731,15.438 629.1101,15.438 C624.8471,15.438 621.3911,11.982 621.3911,7.719 C621.3911,3.456 624.8471,0 629.1101,0 C633.3731,0 636.8291,3.456 636.8291,7.719" id="Fill-47" fill="#F5FB6B"></path>
            <path d="M663.8462,7.719 C663.8462,11.982 660.3902,15.438 656.1272,15.438 C651.8642,15.438 648.4082,11.982 648.4082,7.719 C648.4082,3.456 651.8642,0 656.1272,0 C660.3902,0 663.8462,3.456 663.8462,7.719" id="Fill-49" fill="#F5FB6B"></path>
            <path d="M690.8633,7.719 C690.8633,11.982 687.4073,15.438 683.1443,15.438 C678.8813,15.438 675.4253,11.982 675.4253,7.719 C675.4253,3.456 678.8813,0 683.1443,0 C687.4073,0 690.8633,3.456 690.8633,7.719" id="Fill-51" fill="#F5FB6B"></path>
            <path d="M717.8804,7.719 C717.8804,11.982 714.4244,15.438 710.1614,15.438 C705.8984,15.438 702.4424,11.982 702.4424,7.719 C702.4424,3.456 705.8984,0 710.1614,0 C714.4244,0 717.8804,3.456 717.8804,7.719" id="Fill-53" fill="#F5FB6B"></path>
            <path d="M744.897,7.719 C744.897,11.982 741.441,15.438 737.178,15.438 C732.915,15.438 729.459,11.982 729.459,7.719 C729.459,3.456 732.915,0 737.178,0 C741.441,0 744.897,3.456 744.897,7.719" id="Fill-55" fill="#F5FB6B"></path>
            <path d="M771.9141,7.719 C771.9141,11.982 768.4581,15.438 764.1951,15.438 C759.9321,15.438 756.4761,11.982 756.4761,7.719 C756.4761,3.456 759.9321,0 764.1951,0 C768.4581,0 771.9141,3.456 771.9141,7.719" id="Fill-57" fill="#F5FB6B"></path>
            <path d="M798.9312,7.719 C798.9312,11.982 795.4752,15.438 791.2122,15.438 C786.9492,15.438 783.4932,11.982 783.4932,7.719 C783.4932,3.456 786.9492,0 791.2122,0 C795.4752,0 798.9312,3.456 798.9312,7.719" id="Fill-59" fill="#F5FB6B"></path>
            <path d="M825.9483,7.719 C825.9483,11.982 822.4923,15.438 818.2293,15.438 C813.9663,15.438 810.5103,11.982 810.5103,7.719 C810.5103,3.456 813.9663,0 818.2293,0 C822.4923,0 825.9483,3.456 825.9483,7.719" id="Fill-61" fill="#F5FB6B"></path>
            <path d="M852.9649,7.719 C852.9649,11.982 849.5089,15.438 845.2459,15.438 C840.9829,15.438 837.5269,11.982 837.5269,7.719 C837.5269,3.456 840.9829,0 845.2459,0 C849.5089,0 852.9649,3.456 852.9649,7.719" id="Fill-63" fill="#F5FB6B"></path>
            <path d="M879.9825,7.719 C879.9825,11.982 876.5265,15.438 872.2625,15.438 C868.0005,15.438 864.5445,11.982 864.5445,7.719 C864.5445,3.456 868.0005,0 872.2625,0 C876.5265,0 879.9825,3.456 879.9825,7.719" id="Fill-65" fill="#F5FB6B"></path>
            <path d="M906.9991,7.719 C906.9991,11.982 903.5431,15.438 899.2801,15.438 C895.0171,15.438 891.5611,11.982 891.5611,7.719 C891.5611,3.456 895.0171,0 899.2801,0 C903.5431,0 906.9991,3.456 906.9991,7.719" id="Fill-67" fill="#F5FB6B"></path>
            <g id="Group-71" transform="translate(918.578600, 0.000000)">
                <mask id="mask-2" fill="white">
                    <use xlink:href="#path-1"></use>
                </mask>
                <g id="Clip-70"></g>
                <path d="M15.438,7.719 C15.438,11.982 11.982,15.438 7.718,15.438 C3.456,15.438 0,11.982 0,7.719 C0,3.456 3.456,0 7.718,0 C11.982,0 15.438,3.456 15.438,7.719" id="Fill-69" fill="#F5FB6B" mask="url(#mask-2)"></path>
            </g>
        </g>
    </g>
</svg>