<?xml version="1.0" encoding="UTF-8"?>
<svg width="2037px" height="230px" viewBox="0 0 2037 230" version="1.1" xmlns="http://www.w3.org/2000/svg" xmlns:xlink="http://www.w3.org/1999/xlink">
    <title>Group 14</title>
    <defs>
        <polygon id="path-1" points="0 229.732 2036.006 229.732 2036.006 0 0 0"></polygon>
    </defs>
    <g id="Page-1" stroke="none" stroke-width="1" fill="none" fill-rule="evenodd">
        <g id="Group-14">
            <path d="M496.9521,114.8665 C496.9521,178.3045 445.5251,229.7315 382.0861,229.7315 C318.6481,229.7315 267.2211,178.3045 267.2211,114.8665 C267.2211,51.4285 318.6481,0.0005 382.0861,0.0005 C445.5251,0.0005 496.9521,51.4285 496.9521,114.8665" id="Fill-1" fill="#002742"></path>
            <mask id="mask-2" fill="white">
                <use xlink:href="#path-1"></use>
            </mask>
            <g id="Clip-4"></g>
            <path d="M363.812,185.915 L389.908,185.915 L389.908,156.703 L363.812,156.703 L363.812,185.915 Z M364.981,138.397 C365.371,125.543 370.434,117.753 377.64,109.769 C385.235,101.395 394.193,93.799 394.193,81.92 C394.193,72.183 388.351,66.146 378.419,66.146 C370.434,66.146 363.423,71.209 363.423,81.531 L363.423,84.841 L341.222,84.841 L341.222,81.531 C341.222,57.966 358.555,45.113 380.366,45.113 C405.294,45.113 419.706,58.745 419.706,81.335 C419.9,97.695 411.526,108.016 402.762,116.001 C396.725,122.038 388.351,127.88 387.961,137.813 L387.961,144.044 L364.981,144.044 L364.981,138.397 Z" id="Fill-3" fill="#173E6F" mask="url(#mask-2)"></path>
            <g id="Group-7" opacity="0.200000003" mask="url(#mask-2)">
                <g transform="translate(0.000400, 0.000500)">
                    <path d="M229.731,114.866 C229.731,178.304 178.304,229.731 114.865,229.731 C51.427,229.731 0,178.304 0,114.866 C0,51.428 51.427,0 114.865,0 C178.304,0 229.731,51.428 229.731,114.866" id="Fill-5" fill="#002742"></path>
                    <path d="M96.5916,185.9145 L122.6876,185.9145 L122.6876,156.7025 L96.5916,156.7025 L96.5916,185.9145 Z M97.7596,138.3965 C98.1496,125.5425 103.2126,117.7525 110.4186,109.7685 C118.0136,101.3945 126.9726,93.7985 126.9726,81.9195 C126.9726,72.1825 121.1296,66.1455 111.1976,66.1455 C103.2126,66.1455 96.2026,71.2085 96.2026,81.5305 L96.2026,84.8405 L74.0006,84.8405 L74.0006,81.5305 C74.0006,57.9655 91.3336,45.1125 113.1446,45.1125 C138.0726,45.1125 152.4846,58.7445 152.4846,81.3345 C152.6786,97.6945 144.3046,108.0155 135.5406,116.0005 C129.5036,122.0375 121.1296,127.8795 120.7406,137.8125 L120.7406,144.0435 L97.7596,144.0435 L97.7596,138.3965 Z" id="Fill-6" fill="#173E6F"></path>
                </g>
            </g>
            <g id="Group-10" opacity="0.5" mask="url(#mask-2)">
                <g transform="translate(1543.376300, 0.000500)">
                    <path d="M229.731,114.866 C229.731,178.304 178.303,229.731 114.865,229.731 C51.426,229.731 -2.27373675e-13,178.304 -2.27373675e-13,114.866 C-2.27373675e-13,51.428 51.426,0 114.865,0 C178.303,0 229.731,51.428 229.731,114.866" id="Fill-8" fill="#002742"></path>
                    <path d="M96.5917,185.9145 L122.6877,185.9145 L122.6877,156.7025 L96.5917,156.7025 L96.5917,185.9145 Z M97.7597,138.3965 C98.1497,125.5425 103.2127,117.7525 110.4187,109.7685 C118.0137,101.3945 126.9727,93.7985 126.9727,81.9195 C126.9727,72.1825 121.1307,66.1455 111.1977,66.1455 C103.2127,66.1455 96.2027,71.2085 96.2027,81.5305 L96.2027,84.8405 L74.0007,84.8405 L74.0007,81.5305 C74.0007,57.9655 91.3337,45.1125 113.1447,45.1125 C138.0727,45.1125 152.4837,58.7445 152.4837,81.3345 C152.6797,97.6945 144.3047,108.0155 135.5407,116.0005 C129.5037,122.0375 121.1307,127.8795 120.7397,137.8125 L120.7397,144.0435 L97.7597,144.0435 L97.7597,138.3965 Z" id="Fill-9" fill="#173E6F"></path>
                </g>
            </g>
            <g id="Group-13" opacity="0.200000003" mask="url(#mask-2)">
                <g transform="translate(1806.274700, 0.000500)">
                    <path d="M229.731,114.866 C229.731,178.304 178.303,229.731 114.865,229.731 C51.426,229.731 -2.27373675e-13,178.304 -2.27373675e-13,114.866 C-2.27373675e-13,51.428 51.426,0 114.865,0 C178.303,0 229.731,51.428 229.731,114.866" id="Fill-11" fill="#002742"></path>
                    <path d="M96.5913,185.9145 L122.6883,185.9145 L122.6883,156.7025 L96.5913,156.7025 L96.5913,185.9145 Z M97.7603,138.3965 C98.1503,125.5425 103.2133,117.7525 110.4183,109.7685 C118.0143,101.3945 126.9723,93.7985 126.9723,81.9195 C126.9723,72.1825 121.1303,66.1455 111.1983,66.1455 C103.2133,66.1455 96.2023,71.2085 96.2023,81.5305 L96.2023,84.8405 L74.0003,84.8405 L74.0003,81.5305 C74.0003,57.9655 91.3333,45.1125 113.1453,45.1125 C138.0733,45.1125 152.4853,58.7445 152.4853,81.3345 C152.6793,97.6945 144.3053,108.0155 135.5413,116.0005 C129.5043,122.0375 121.1303,127.8795 120.7413,137.8125 L120.7413,144.0435 L97.7603,144.0435 L97.7603,138.3965 Z" id="Fill-12" fill="#173E6F"></path>
                </g>
            </g>
        </g>
    </g>
</svg>