<svg xmlns="http://www.w3.org/2000/svg" viewBox="0 0 393.11 42.47"><path d="M5.54,2.08C5.72,1,6.22.48,7,.6L9.19.91c1.08.18,1.55.75,1.4,1.71L10,6.41c-.09.72.23,1.08.95,1.08h5.72A1.2,1.2,0,0,1,18,8.84a73.78,73.78,0,0,1-3.16,18.39,2.15,2.15,0,0,0,.81,2.34l2.8,2.62a1.77,1.77,0,0,1,.18,2.7,16.53,16.53,0,0,0-1.22,1.35q-1.17,1.26-2.52-.18a23.82,23.82,0,0,0-1.72-1.8c-.66-.69-1.33-.56-2,.41A30.85,30.85,0,0,1,5.5,40.93c-1,.75-1.8.72-2.44-.09l-.94-1.35A1.63,1.63,0,0,1,2.48,37a26.21,26.21,0,0,0,5.27-6.13,1.35,1.35,0,0,0-.36-2,1.11,1.11,0,0,0-.4-.32c-.85-.69-1.39-.67-1.63.05s-.73,1-1.66.81l-2-.41C.68,28.82.3,28.3.54,27.46q2-7.17,3.25-14.11c.06-.72-.27-1.08-1-1.08H1.4A1.22,1.22,0,0,1,0,10.92v-2a1.22,1.22,0,0,1,1.35-1.4H3.7C4.42,7.49,4.85,7,5,6.14,5.24,4.79,5.42,3.44,5.54,2.08Zm7.35,11.31c.06-.75-.27-1.12-1-1.12H10.18c-.72,0-1.18.45-1.39,1.35L7.21,21.46c-.15.72.26,1.44,1.22,2.17a5.82,5.82,0,0,0,.9.67c.78.63,1.31.59,1.58-.13A46.5,46.5,0,0,0,12.89,13.39Zm6.4-10.31a1.2,1.2,0,0,1,1.35-1.36H39.12a1.21,1.21,0,0,1,1.39,1.36V5A4.35,4.35,0,0,1,40,7.27a37.06,37.06,0,0,1-6.13,7.52,3.28,3.28,0,0,0-1.08,2.44q0,1.44,1.08,1.44h6.4A1.22,1.22,0,0,1,41.64,20v2.21a1.22,1.22,0,0,1-1.35,1.4h-6.4c-.75,0-1.13.36-1.13,1.08V37.14q-.45,4.2-4.46,4.42a24.16,24.16,0,0,1-5.27,0,1.91,1.91,0,0,1-1.62-1.62L21,37.19c-.12-1,.27-1.28,1.17-.95a14.77,14.77,0,0,0,2.84.45c1.65.18,2.53-.34,2.61-1.57V24.75c0-.75-.36-1.12-1.08-1.12h-7.3a1.22,1.22,0,0,1-1.39-1.36V20.06a1.21,1.21,0,0,1,1.35-1.39h7.3c.75,0,1.12-.36,1.12-1.08V13c0-.9.32-1.35.95-1.35a3.22,3.22,0,0,0,2.35-1A36.46,36.46,0,0,0,33.39,7.9c.63-.81.6-1.22-.09-1.22H20.69c-.94,0-1.4-.45-1.4-1.35Z" style="fill:#01ffda"/><path d="M46.91,4.79q0-1.44,1.26-1.44H61.74a1.22,1.22,0,0,1,1.4,1.35V7.09a1.21,1.21,0,0,1-1.36,1.39H58.86c-.76,0-1.13.36-1.13,1.08V15c0,.75.36,1.13,1.08,1.13h2.25a1.22,1.22,0,0,1,1.4,1.35v2.48a1.22,1.22,0,0,1-1.35,1.4H58.86c-.76,0-1.13.36-1.13,1.08V29c0,.72.45,1,1.35.86l2.7-.54a1.17,1.17,0,0,1,1.54,1.12,19,19,0,0,0,.22,2.26,1.45,1.45,0,0,1-1.21,1.71Q56.51,36,48.72,37.37a1.31,1.31,0,0,1-1.67-1.13l-.54-2.61c-.21-1.08.16-1.7,1.12-1.85l3.61-.54a1.21,1.21,0,0,0,1.08-1.31V22.45c0-.75-.36-1.12-1.08-1.12H49.08A1.22,1.22,0,0,1,47.68,20V17.5c0-.94.45-1.4,1.35-1.4h2.16c.75,0,1.13-.36,1.13-1.08V9.61c0-.75-.36-1.13-1.08-1.13H48.31a1.22,1.22,0,0,1-1.4-1.35ZM63.5,15.2q0-1.44,1.26-1.44H85.85a1.22,1.22,0,0,1,1.4,1.35v2.3a1.21,1.21,0,0,1-1.36,1.39H82.24c-.75,0-1.12.36-1.12,1.08V34.35C81,35.43,81.37,36,82.24,36a1.31,1.31,0,0,0,1.45-1.08A12.52,12.52,0,0,0,84,32.55c.06-1,.53-1.19,1.4-.68L87.25,33a2.31,2.31,0,0,1,1.26,2.44,9.81,9.81,0,0,1-1.89,5,12.49,12.49,0,0,1-7.35.41A3.28,3.28,0,0,1,77,39.44a8.23,8.23,0,0,1-.86-3.33V19.93c0-.75-.42-1.13-1.26-1.13a1.24,1.24,0,0,0-1.4,1.35q.09,9.24-3.2,14.74A21.87,21.87,0,0,1,65,40.75a1.85,1.85,0,0,1-2.61-.45L61.15,39a1.19,1.19,0,0,1,.14-2,15.59,15.59,0,0,0,5.32-6.36,31.07,31.07,0,0,0,1.75-10.63c0-.75-.36-1.13-1.08-1.13H64.89a1.21,1.21,0,0,1-1.39-1.35ZM65.16,3.08a1.2,1.2,0,0,1,1.36-1.36h17.8a1.21,1.21,0,0,1,1.39,1.36v2.2c0,.94-.45,1.4-1.35,1.4H66.56a1.22,1.22,0,0,1-1.4-1.35Z" style="fill:#01ffda"/><path d="M92.84,4.79q0-1.44,1.26-1.44h10.14a1.21,1.21,0,0,1,1.39,1.35V32.37a1.21,1.21,0,0,1-1.35,1.39H99a1,1,0,0,0-1.13,1.09v1.3a1.22,1.22,0,0,1-1.35,1.4h-2.3a1.21,1.21,0,0,1-1.39-1.35Zm7.79,4.5c0-.78-.43-1.17-1.31-1.17s-1.44.36-1.44,1.08V27.82c0,.75.45,1.12,1.35,1.12s1.4-.36,1.4-1.08Zm6.45,21.05a1.14,1.14,0,0,1,1.53-1.08,17.84,17.84,0,0,1,1.85.4,1.51,1.51,0,0,1,1.35,1.67,31.25,31.25,0,0,1-1.49,6.36c-.36,1-1,1.23-1.85.81a16.35,16.35,0,0,0-1.8-.86c-1-.51-1.34-1.17-1-2A31.08,31.08,0,0,0,107.08,30.34ZM108,2.58a1.22,1.22,0,0,1,1.35-1.4h21.23A1.21,1.21,0,0,1,132,2.53v2A1.22,1.22,0,0,1,130.6,6h-6.22a1,1,0,0,0-1.13,1.17c0,.81.36,1.22,1.09,1.22h5.72a1.22,1.22,0,0,1,1.4,1.35v1.94A1.21,1.21,0,0,1,130.1,13h-5.72c-.75,0-1.13.36-1.13,1.09a1,1,0,0,0,1.09,1.12h5.72a1.22,1.22,0,0,1,1.4,1.36v1.84a1.22,1.22,0,0,1-1.36,1.4h-5.72c-.75,0-1.13.45-1.13,1.35s.36,1.44,1.09,1.44h8.2a1.22,1.22,0,0,1,1.4,1.36,67.25,67.25,0,0,1-1,14.78c-.18,1.2-1.13,2.16-2.84,2.88a14.13,14.13,0,0,1-4.28.18l-1.49-.13a2,2,0,0,1-1.85-1.76L122,37.69c-.15-.91.22-1.28,1.12-1.13l3.11.31c1.63.39,2.48-.24,2.57-1.89q.09-1.17-1.26-.72l-.41.18q-1.39.54-1.8-.81a26.34,26.34,0,0,0-1-2.66,1.38,1.38,0,0,1,.81-2l1-.5c1-.45,1.68-.31,2.07.41.45.93.71,1.32.77,1.17l0-1.4q0-1.26-1.08-1.26H109.33A1.19,1.19,0,0,1,108,26.06Zm5.63,26.81,1.8-.27a1.53,1.53,0,0,1,1.81,1.17,20.9,20.9,0,0,1,.85,5.41c0,1-.4,1.62-1.3,1.72l-1.9.18c-1,.12-1.48-.26-1.48-1.13a22.42,22.42,0,0,0-.68-5.45C112.47,30.06,112.77,29.51,113.61,29.39ZM118.3,7.18c0-.82-.36-1.22-1.08-1.22H114a1,1,0,0,0-1.13,1.17c0,.81.37,1.22,1.09,1.22h3.24A1,1,0,0,0,118.3,7.18Zm0,7c0-.78-.35-1.18-1-1.18H114c-.75,0-1.13.36-1.13,1.09a1,1,0,0,0,1.09,1.12h3.24C117.92,15.24,118.3,14.9,118.3,14.21Zm0,7.07c0-1-.35-1.44-1-1.44H114c-.75,0-1.13.45-1.13,1.35s.37,1.44,1.09,1.44h3.24C117.92,22.63,118.3,22.18,118.3,21.28Zm.76,7.84,1.85-.45a1.64,1.64,0,0,1,1.94,1.17,22.27,22.27,0,0,1,1,3.29c.24,1.15-.11,1.84-1,2.08l-2,.54c-1,.24-1.55-.06-1.67-.9a24,24,0,0,0-.94-4C117.88,29.92,118.16,29.33,119.06,29.12Z" style="fill:#01ffda"/><path d="M155.12,3.08A12.7,12.7,0,0,1,164,4.88q4.15,3.64,3.47,8.2c-.12,2.22-1.26,4.63-3.42,7.21-3.07,2.94-4.61,5.18-4.64,6.72v4.64A1.21,1.21,0,0,1,158,33h-2.56c-.94,0-1.4-.45-1.4-1.35V26a8.43,8.43,0,0,1,1.4-3.6,43.45,43.45,0,0,1,3-3.61q4-4.14,3.42-7.21a3,3,0,0,0-1.67-2.48,8.55,8.55,0,0,0-4.19-.72,22,22,0,0,0-3.6.77c-1,.27-1.54-.05-1.54-.95V5.37a1.7,1.7,0,0,1,1.36-1.75A20.42,20.42,0,0,1,155.12,3.08Zm-1.58,34.38c0-1,.43-1.44,1.31-1.44h3.56a1.21,1.21,0,0,1,1.39,1.35v3.47a1.22,1.22,0,0,1-1.35,1.4h-3.56a1.19,1.19,0,0,1-1.35-1.35Z" style="fill:#01ffda"/><path d="M203.52,1.86q0-1.44,1.26-1.44h2.48a1.21,1.21,0,0,1,1.39,1.35V3.08c0,.75.36,1.12,1.08,1.12h13.62a1.21,1.21,0,0,1,1.39,1.35v2.3a1.22,1.22,0,0,1-1.35,1.4H209.78c-.75,0-1.13.36-1.13,1.08v9.06a3.1,3.1,0,0,0,.72,2q7.57,9,16.27,12.21c1,.39,1.2,1.1.63,2.12L225,38.05c-.54,1-1.21,1.3-2,.94a40.32,40.32,0,0,1-13.33-9.69c-.67-.66-1-.63-1,.09V40.48a1.22,1.22,0,0,1-1.35,1.4h-2.39a1.21,1.21,0,0,1-1.39-1.36V29.21c0-.72-.4-.69-1.18.09a48.18,48.18,0,0,1-13.56,10.14,1.51,1.51,0,0,1-2.16-.76l-1.13-1.94c-.54-.93-.35-1.59.59-2q8.14-3.53,16.49-12.8a3.5,3.5,0,0,0,1-2.08v-9.5c0-.75-.36-1.13-1.09-1.13H188.28a1.21,1.21,0,0,1-1.39-1.35V5.6a1.22,1.22,0,0,1,1.35-1.4h14.15c.75,0,1.13-.36,1.13-1.08ZM192.2,11.68c.3-1,.91-1.38,1.81-1.08l2.16.77c1.17.39,1.58,1,1.22,1.94a8.2,8.2,0,0,0-.5,1.35,1.79,1.79,0,0,0,.77,2.16c.78.66,1.56,1.37,2.34,2.12a1.72,1.72,0,0,1,.09,2.7L198.83,23q-1.44,1.55-2.43.36L195,21.87c-.63-.66-1.21-.5-1.75.49l-1.9,2.93a1.47,1.47,0,0,1-2.34.45l-1.26-.9c-1-.81-1.25-1.7-.59-2.66A41.6,41.6,0,0,0,192.2,11.68Zm23.44-.31a1.27,1.27,0,0,1,1.8-.95l2.21.72a1.37,1.37,0,0,1,.9,2l-.49,1.26q-.47,1,1,2.07a37.9,37.9,0,0,1,3.24,2.66c.78.72.69,1.61-.27,2.66l-.86.9c-1,1.09-1.93,1.18-2.83.27a25.29,25.29,0,0,0-2-1.89c-.72-.63-1.37-.49-1.94.41l-.68,1c-.81,1-1.63,1.19-2.47.58l-1.27-.94c-1.08-.78-1.27-1.65-.58-2.62A32.41,32.41,0,0,0,215.64,11.37Z" style="fill:#01ffda"/><path d="M239.48,22q13.7-.18,27.44-1.08A2.17,2.17,0,0,1,269,22.23l.63,1.12c.51.91.27,1.4-.72,1.49q-6.9.45-13.83.72c-.72.06-1.09.29-1.09.68s.37.67,1.09.67h13.29a1.22,1.22,0,0,1,1.4,1.36v1.21c0,.94-.45,1.4-1.35,1.4h-13.3c-.75,0-1.13.18-1.13.54s.37.59,1.09.59h16.4a1.22,1.22,0,0,1,1.4,1.35v1.53a1.22,1.22,0,0,1-1.36,1.4h-16.4q-1.12,0-1.17,1.35c.09,2.58-1.31,4.09-4.19,4.51a25,25,0,0,1-5.41-.09,1.69,1.69,0,0,1-1.58-1.54l-.27-1.8q-.22-1.53,1.26-1.17a13.35,13.35,0,0,0,4.51.32,1.64,1.64,0,0,0,.59-1.13c0-.3-.41-.45-1.13-.45H232.31a1.21,1.21,0,0,1-1.39-1.35V33.4A1.21,1.21,0,0,1,232.27,32h15.54c.76,0,1.13-.18,1.13-.54s-.36-.59-1.08-.59H234.3c-.94,0-1.4-.45-1.4-1.35V28.31a1.22,1.22,0,0,1,1.35-1.4h13.56c.76,0,1.13-.19,1.13-.58s-.45-.62-1.35-.59L235.42,26a1.78,1.78,0,0,1-1.85-1.31,6.81,6.81,0,0,1-.4-1.26c-.27-.9,0-1.37,1-1.4ZM251.2.28a2.76,2.76,0,0,1,3,.41l.41.31c.87.69,1.22,1.1,1,1.22s.18.4,1.08.76A110.92,110.92,0,0,0,272,7.4c.9.18,1.11.74.63,1.67l-.95,1.67a1.86,1.86,0,0,1-2.25,1,78.1,78.1,0,0,1-7.66-2.39c-.73-.24-1.09-.12-1.09.36s-.45.77-1.35.77H243.53c-.93,0-1.39-.23-1.39-.68s-.45-.53-1.35-.23l-6.31,2.12a1.75,1.75,0,0,1-2.17-.94L231.37,9c-.54-.9-.33-1.46.63-1.67A93.71,93.71,0,0,0,251.2.28ZM235.83,13a1.19,1.19,0,0,1,1.35-1.35h28.39A1.22,1.22,0,0,1,267,13v5.86a1.22,1.22,0,0,1-1.35,1.4H237.23a1.22,1.22,0,0,1-1.4-1.36Zm26.27,3c0-.51-.4-.76-1.13-.76H241.78c-.76,0-1.13.24-1.13.72s.36.76,1.08.76H261C261.73,16.68,262.1,16.44,262.1,16ZM252.19,5.37c-.6-.69-1.67-.48-3.2.63l-.41.18c-.84.52-.81.77.09.77H254q2.43.09-.36-.9A10.4,10.4,0,0,0,252.19,5.37Z" style="fill:#01ffda"/><path d="M302.71,1.86q.59-1.44,1.8-1.17l1.26.27q1.58.36,1.26,1.35c-.18.57.09.86.81.86h9.51a1.22,1.22,0,0,1,1.4,1.35V5.69c0,.93-.36,1.4-1.08,1.4a2.11,2.11,0,0,0-1.81,1.35,19.31,19.31,0,0,1-1.48,2.25c-.81.93-.78,1.64.09,2.12A28.71,28.71,0,0,0,318,14.3c1.14.39,1.33,1,.58,2l-.81,1a2,2,0,0,1-2.43.81,35.48,35.48,0,0,1-4.78-2.43,2.31,2.31,0,0,0-2.43.13,20.39,20.39,0,0,1-5.55,2.35c-.93.24-1.74-.21-2.43-1.36l-.36-.58c-.63-1-.42-1.64.63-1.85a23.4,23.4,0,0,0,4.24-1.53c.78-.39.73-1-.14-1.8l-.45-.45c-.63-.72-1.25-.74-1.85-.05s-1.45.54-2.38-.45c-.81-.78-1.22-.81-1.22-.09a32.73,32.73,0,0,1-.41,5.72,5.21,5.21,0,0,1-1.08,2.62q-.9.72.45.72h16.95A1.21,1.21,0,0,1,316,20.38v1.17A1.22,1.22,0,0,1,314.6,23H302.71c-.73,0-1.1.15-1.13.45s.4.45,1.13.45h10c.94,0,1.4.45,1.4,1.35v.32a1.21,1.21,0,0,1-1.35,1.39H302.71c-.73,0-1.1.16-1.13.46s.4.45,1.13.45h10c.94,0,1.4.45,1.4,1.35v.31c0,.94-.45,1.4-1.35,1.4H302.71c-.73,0-1.1.15-1.13.45s.36.5,1.08.5h14.06a1.19,1.19,0,0,1,1.35,1.35A24.89,24.89,0,0,1,317,39.94q-1.58,3.29-6.4,2.3-1.44-.45-1.71-1.08c-.18-.43-.69-.5-1.53-.23s-1.39-.13-1.72-1.13l-.94-2.07c-.6-1-.57-1.55.09-1.76s.72-.45-.18-.45h-19c-.9,0-1.23.14-1,.41s.09.72-.27,1.62a20.9,20.9,0,0,1-2,3.7,1.52,1.52,0,0,1-2.48.13l-1.26-1.08a1.44,1.44,0,0,1-.09-2.25,18.5,18.5,0,0,0,1.71-2.66q.68-1.39,1.62-.9c.73.33,1.09.16,1.09-.5V20.43c0-.94.45-1.4,1.35-1.4h5.95c.72,0,1.06-.17,1-.5s-.46-.67-1.12-.67h-7.8a1.22,1.22,0,0,1-1.4-1.36V14.07c0-.72-.15-1-.45-.76s-.9,0-1.8-.82l-.41-.36c-.72-.72-.67-1.53.14-2.43a12.94,12.94,0,0,0,1.85-2.84,1.68,1.68,0,0,1,2.07-1l.9.27q1.35.36,1.35.54c0,.18.32.27,1,.27h11.67c.9,0,1.37.15,1.4.45s.42.09,1.26-.81A23.63,23.63,0,0,0,302.71,1.86ZM284,1.05q0-.63,1.26-.63H287c.93,0,1.4.18,1.4.54s.36.58,1.08.58h1.08c.75,0,1.13-.18,1.13-.54s.45-.58,1.35-.58h1.71c.93,0,1.4.18,1.4.54s.36.58,1.08.58h1.31A1.22,1.22,0,0,1,300,2.89v.82A1.21,1.21,0,0,1,298.6,5.1h-1.3c-.75,0-1.13.2-1.13.59s-.45.63-1.35.63h-1.71c-.94,0-1.4-.2-1.4-.59s-.36-.63-1.08-.63h-1.08c-.73,0-1.1.14-1.13.41s-.5.45-1.4.45h-1.67c-.9,0-1.36-.14-1.39-.41s-.41-.45-1.13-.45h-2.52a1.22,1.22,0,0,1-1.4-1.35V2.94a1.22,1.22,0,0,1,1.35-1.4h2.57C283.55,1.54,283.93,1.38,284,1.05Zm10.59,10.23c0-.78-.35-1.17-1-1.17h-9.46c-.72,0-1.19.15-1.4.45s.05.54.77.54h7.21A1.21,1.21,0,0,1,292,12.45v2c0,.72.46,1.14,1.36,1.26.54.12.85-.17.94-.86A29,29,0,0,0,294.55,11.28Zm-6.09,3.29c0-.45-.37-.68-1-.68h-1.85c-.75,0-1.13.18-1.13.54s.36.63,1.08.63h1.81C288.06,15.06,288.43,14.9,288.46,14.57Zm8.43,8.87c0-.33-.34-.49-1-.49H288.6c-.72,0-1.1.15-1.13.45s.41.45,1.13.45h7.17C296.49,23.85,296.86,23.72,296.89,23.44Zm0,4c0-.33-.36-.5-1.08-.5H288.6c-.72,0-1.1.16-1.13.46s.41.45,1.13.45h7.17C296.49,27.82,296.86,27.68,296.89,27.41Zm0,4c0-.36-.35-.54-1-.54H288.6c-.72,0-1.1.15-1.13.45s.36.5,1.08.5h7.22C296.49,31.83,296.85,31.69,296.85,31.42Zm-6.67,4.73a1.72,1.72,0,0,1,2.21,1,10.82,10.82,0,0,1,.72,2A1.43,1.43,0,0,1,292,41.16a11.75,11.75,0,0,0-1.71.4,1.22,1.22,0,0,1-1.62-1.08l-.59-1.89c-.54-1.15-.33-1.84.63-2.08Zm8.74.14a1.6,1.6,0,0,1,2,1,11.74,11.74,0,0,1,.72,2.12,1.44,1.44,0,0,1-1.17,1.8,14,14,0,0,0-1.81.5,1.18,1.18,0,0,1-1.66-1,17.47,17.47,0,0,0-.63-2.29c-.36-1-.09-1.54.81-1.72A11.75,11.75,0,0,1,298.92,36.29Zm12-28.08c.51-.75.39-1.12-.36-1.12h-2.84c-1.53-.37-1.39.19.45,1.66a1.57,1.57,0,0,0,2.39,0Zm2.21,28.48c.11-.78-.16-1.17-.82-1.17h-2.7c-.75,0-.87.44-.36,1.31a2.61,2.61,0,0,0,2.07,1.44C312.33,38.57,312.94,38.05,313.12,36.69Z" style="fill:#01ffda"/><path d="M327,14.52q0-1.44,1.26-1.44h31.23a1.22,1.22,0,0,1,1.4,1.35v7.3a1.22,1.22,0,0,1-1.36,1.4h-3.15a2,2,0,0,0-1.76,1.08c-.45.72-.31,1.08.41,1.08H363a1.21,1.21,0,0,1,1.39,1.35v1.54A1.21,1.21,0,0,1,363,29.57H324.79a1.22,1.22,0,0,1-1.4-1.35V26.69a1.22,1.22,0,0,1,1.35-1.4h6.76c.72,0,1-.36.86-1.08a1.56,1.56,0,0,0-1.53-1.08h-2.44A1.21,1.21,0,0,1,327,21.78ZM341.28,1.36c0-.63.42-.94,1.26-.94H345c.93,0,1.4.28,1.4.85s.36,1,1.08,1h15a1.21,1.21,0,0,1,1.39,1.35V5.28c0,.94-.45,1.4-1.35,1.4h-15c-.76,0-1.13.18-1.13.54s.36.59,1.08.59h12.84a1.22,1.22,0,0,1,1.4,1.35v1.35a1.22,1.22,0,0,1-1.35,1.4H327.72a1.22,1.22,0,0,1-1.4-1.35V9.2a1.21,1.21,0,0,1,1.35-1.39h12.48c.76,0,1.13-.18,1.13-.54s-.36-.59-1.08-.59H325.55a1.21,1.21,0,0,1-1.39-1.35V3.62c0-.94.45-1.4,1.35-1.4h14.64C340.91,2.22,341.28,1.93,341.28,1.36ZM326.64,32.1A1.22,1.22,0,0,1,328,30.7h32.08a1.22,1.22,0,0,1,1.4,1.35v8.61a1.22,1.22,0,0,1-1.35,1.4h-2.3c-.93,0-1.4-.18-1.4-.54s-.36-.59-1.08-.59H332.85c-.75,0-1.12.18-1.12.54s-.45.59-1.35.59H328a1.2,1.2,0,0,1-1.35-1.36Zm29.78,3.78q0-.9-1.08-.9H332.85c-.75,0-1.12.27-1.12.81s.36.9,1.08.9H355.3C356.05,36.69,356.42,36.42,356.42,35.88Zm-.58-17.71q0-.81-1.08-.81H333.17c-.75,0-1.13.24-1.13.72s.36.77,1.08.77h21.59C355.46,18.85,355.84,18.62,355.84,18.17ZM349,24.3q.68-1.17-.36-1.17h-9.78c-.72,0-1,.36-.76,1.08a1.56,1.56,0,0,0,1.53,1.08h7.61A2,2,0,0,0,349,24.3Z" style="fill:#01ffda"/><path d="M386.71,4.38c0-.93.39-1.4,1.26-1.4h3.78a1.2,1.2,0,0,1,1.36,1.36q-.5,13.61-.86,27.35A1.29,1.29,0,0,1,390.81,33h-1.76a1.29,1.29,0,0,1-1.44-1.35Zm0,33.08c0-1,.44-1.44,1.31-1.44h3.65a1.22,1.22,0,0,1,1.4,1.35v3.47a1.22,1.22,0,0,1-1.36,1.4H388.1a1.19,1.19,0,0,1-1.35-1.35Z" style="fill:#01ffda"/></svg>