<svg xmlns="http://www.w3.org/2000/svg" viewBox="0 0 381.4 246.68"><rect x="10.17" y="10.25" width="371.23" height="232.02" style="fill:#597de9"/><rect x="1.42" y="1.42" width="371.23" height="232.02" style="fill:none;stroke:#1c1c1b;stroke-miterlimit:10;stroke-width:2.83464574813843px"/><circle cx="22.73" cy="22.59" r="1.58"/><circle cx="22.73" cy="30.27" r="1.58"/><circle cx="22.73" cy="37.94" r="1.58"/><circle cx="22.73" cy="45.61" r="1.58"/><circle cx="22.73" cy="53.28" r="1.58"/><circle cx="22.73" cy="60.96" r="1.58"/><circle cx="22.73" cy="68.63" r="1.58"/><circle cx="22.73" cy="76.3" r="1.58"/><circle cx="22.73" cy="83.97" r="1.58"/><circle cx="22.73" cy="91.65" r="1.58"/><circle cx="22.73" cy="99.32" r="1.58"/><circle cx="22.73" cy="106.99" r="1.58"/><circle cx="22.73" cy="114.66" r="1.58"/><circle cx="22.73" cy="122.34" r="1.58"/><circle cx="22.73" cy="130.01" r="1.58"/><circle cx="22.73" cy="137.68" r="1.58"/><circle cx="22.73" cy="145.35" r="1.58"/><circle cx="22.73" cy="153.03" r="1.58"/><circle cx="22.73" cy="160.7" r="1.58"/><circle cx="22.73" cy="168.37" r="1.58"/><circle cx="22.73" cy="176.04" r="1.58"/><circle cx="22.73" cy="183.72" r="1.58"/><circle cx="22.73" cy="191.39" r="1.58"/><circle cx="22.73" cy="199.06" r="1.58"/><circle cx="22.73" cy="206.73" r="1.58"/><circle cx="22.73" cy="214.41" r="1.58"/><circle cx="22.73" cy="222.08" r="1.58"/><circle cx="22.73" cy="229.75" r="1.58"/><circle cx="22.73" cy="237.42" r="1.58"/><circle cx="22.73" cy="245.1" r="1.58"/><circle cx="31.31" cy="22.59" r="1.58"/><circle cx="31.31" cy="30.27" r="1.58"/><circle cx="31.31" cy="37.94" r="1.58"/><circle cx="31.31" cy="45.61" r="1.58"/><circle cx="31.31" cy="53.28" r="1.58"/><circle cx="31.31" cy="60.96" r="1.58"/><circle cx="31.31" cy="68.63" r="1.58"/><circle cx="31.31" cy="76.3" r="1.58"/><circle cx="31.31" cy="83.97" r="1.58"/><circle cx="31.31" cy="91.65" r="1.58"/><circle cx="31.31" cy="99.32" r="1.58"/><circle cx="31.31" cy="106.99" r="1.58"/><circle cx="31.31" cy="114.66" r="1.58"/><circle cx="31.31" cy="122.34" r="1.58"/><circle cx="31.31" cy="130.01" r="1.58"/><circle cx="31.31" cy="137.68" r="1.58"/><circle cx="31.31" cy="145.35" r="1.58"/><circle cx="31.31" cy="153.03" r="1.58"/><circle cx="31.31" cy="160.7" r="1.58"/><circle cx="31.31" cy="168.37" r="1.58"/><circle cx="31.31" cy="176.04" r="1.58"/><circle cx="31.31" cy="183.72" r="1.58"/><circle cx="31.31" cy="191.39" r="1.58"/><circle cx="31.31" cy="199.06" r="1.58"/><circle cx="31.31" cy="206.73" r="1.58"/><circle cx="31.31" cy="214.41" r="1.58"/><circle cx="31.31" cy="222.08" r="1.58"/><circle cx="31.31" cy="229.75" r="1.58"/><circle cx="31.31" cy="237.42" r="1.58"/><circle cx="31.31" cy="245.1" r="1.58"/><circle cx="39.88" cy="22.59" r="1.58"/><circle cx="39.88" cy="30.27" r="1.58"/><circle cx="39.88" cy="37.94" r="1.58"/><circle cx="39.88" cy="45.61" r="1.58"/><circle cx="39.88" cy="53.28" r="1.58"/><circle cx="39.88" cy="60.96" r="1.58"/><circle cx="39.88" cy="68.63" r="1.58"/><circle cx="39.88" cy="76.3" r="1.58"/><circle cx="39.88" cy="83.97" r="1.58"/><circle cx="39.88" cy="91.65" r="1.58"/><circle cx="39.88" cy="99.32" r="1.58"/><circle cx="39.88" cy="106.99" r="1.58"/><circle cx="39.88" cy="114.66" r="1.58"/><circle cx="39.88" cy="122.34" r="1.58"/><circle cx="39.88" cy="130.01" r="1.58"/><circle cx="39.88" cy="137.68" r="1.58"/><circle cx="39.88" cy="145.35" r="1.58"/><circle cx="39.88" cy="153.03" r="1.58"/><circle cx="39.88" cy="160.7" r="1.58"/><circle cx="39.88" cy="168.37" r="1.58"/><circle cx="39.88" cy="176.04" r="1.58"/><circle cx="39.88" cy="183.72" r="1.58"/><circle cx="39.88" cy="191.39" r="1.58"/><circle cx="39.88" cy="199.06" r="1.58"/><circle cx="39.88" cy="206.73" r="1.58"/><circle cx="39.88" cy="214.41" r="1.58"/><circle cx="39.88" cy="222.08" r="1.58"/><circle cx="39.88" cy="229.75" r="1.58"/><circle cx="39.88" cy="237.42" r="1.58"/><circle cx="39.88" cy="245.1" r="1.58"/><circle cx="48.46" cy="22.59" r="1.58"/><circle cx="48.46" cy="30.27" r="1.58"/><circle cx="48.46" cy="37.94" r="1.58"/><circle cx="48.46" cy="45.61" r="1.58"/><circle cx="48.46" cy="53.28" r="1.58"/><circle cx="48.46" cy="60.96" r="1.58"/><circle cx="48.46" cy="68.63" r="1.58"/><circle cx="48.46" cy="76.3" r="1.58"/><circle cx="48.46" cy="83.97" r="1.58"/><circle cx="48.46" cy="91.65" r="1.58"/><circle cx="48.46" cy="99.32" r="1.58"/><circle cx="48.46" cy="106.99" r="1.58"/><circle cx="48.46" cy="114.66" r="1.58"/><circle cx="48.46" cy="122.34" r="1.58"/><circle cx="48.46" cy="130.01" r="1.58"/><circle cx="48.46" cy="137.68" r="1.58"/><circle cx="48.46" cy="145.35" r="1.58"/><circle cx="48.46" cy="153.03" r="1.58"/><circle cx="48.46" cy="160.7" r="1.58"/><circle cx="48.46" cy="168.37" r="1.58"/><circle cx="48.46" cy="176.04" r="1.58"/><circle cx="48.46" cy="183.72" r="1.58"/><circle cx="48.46" cy="191.39" r="1.58"/><circle cx="48.46" cy="199.06" r="1.58"/><circle cx="48.46" cy="206.73" r="1.58"/><circle cx="48.46" cy="214.41" r="1.58"/><circle cx="48.46" cy="222.08" r="1.58"/><circle cx="48.46" cy="229.75" r="1.58"/><circle cx="48.46" cy="237.42" r="1.58"/><circle cx="48.46" cy="245.1" r="1.58"/><circle cx="57.03" cy="22.59" r="1.58"/><circle cx="57.03" cy="30.27" r="1.58"/><circle cx="57.03" cy="37.94" r="1.58"/><circle cx="57.03" cy="45.61" r="1.58"/><circle cx="57.03" cy="53.28" r="1.58"/><circle cx="57.03" cy="60.96" r="1.58"/><circle cx="57.03" cy="68.63" r="1.58"/><circle cx="57.03" cy="76.3" r="1.58"/><circle cx="57.03" cy="83.97" r="1.58"/><circle cx="57.03" cy="91.65" r="1.58"/><circle cx="57.03" cy="99.32" r="1.58"/><circle cx="57.03" cy="106.99" r="1.58"/><circle cx="57.03" cy="114.66" r="1.58"/><circle cx="57.03" cy="122.34" r="1.58"/><circle cx="57.03" cy="130.01" r="1.58"/><circle cx="57.03" cy="137.68" r="1.58"/><circle cx="57.03" cy="145.35" r="1.58"/><circle cx="57.03" cy="153.03" r="1.58"/><circle cx="57.03" cy="160.7" r="1.58"/><circle cx="57.03" cy="168.37" r="1.58"/><circle cx="57.03" cy="176.04" r="1.58"/><circle cx="57.03" cy="183.72" r="1.58"/><circle cx="57.03" cy="191.39" r="1.58"/><circle cx="57.03" cy="199.06" r="1.58"/><circle cx="57.03" cy="206.73" r="1.58"/><circle cx="57.03" cy="214.41" r="1.58"/><circle cx="57.03" cy="222.08" r="1.58"/><circle cx="57.03" cy="229.75" r="1.58"/><circle cx="57.03" cy="237.42" r="1.58"/><circle cx="57.03" cy="245.1" r="1.58"/><circle cx="65.61" cy="22.59" r="1.58"/><circle cx="65.61" cy="30.27" r="1.58"/><circle cx="65.61" cy="37.94" r="1.58"/><circle cx="65.61" cy="45.61" r="1.58"/><circle cx="65.61" cy="53.28" r="1.58"/><circle cx="65.61" cy="60.96" r="1.58"/><circle cx="65.61" cy="68.63" r="1.58"/><circle cx="65.61" cy="76.3" r="1.58"/><circle cx="65.61" cy="83.97" r="1.58"/><circle cx="65.61" cy="91.65" r="1.58"/><circle cx="65.61" cy="99.32" r="1.58"/><circle cx="65.61" cy="106.99" r="1.58"/><circle cx="65.61" cy="114.66" r="1.58"/><circle cx="65.61" cy="122.34" r="1.58"/><circle cx="65.61" cy="130.01" r="1.58"/><circle cx="65.61" cy="137.68" r="1.58"/><circle cx="65.61" cy="145.35" r="1.58"/><circle cx="65.61" cy="153.03" r="1.58"/><circle cx="65.61" cy="160.7" r="1.58"/><circle cx="65.61" cy="168.37" r="1.58"/><circle cx="65.61" cy="176.04" r="1.58"/><circle cx="65.61" cy="183.72" r="1.58"/><circle cx="65.61" cy="191.39" r="1.58"/><circle cx="65.61" cy="199.06" r="1.58"/><circle cx="65.61" cy="206.73" r="1.58"/><circle cx="65.61" cy="214.41" r="1.58"/><circle cx="65.61" cy="222.08" r="1.58"/><circle cx="65.61" cy="229.75" r="1.58"/><circle cx="65.61" cy="237.42" r="1.58"/><circle cx="65.61" cy="245.1" r="1.58"/><circle cx="74.18" cy="22.59" r="1.58"/><circle cx="74.18" cy="30.27" r="1.58"/><circle cx="74.18" cy="37.94" r="1.58"/><circle cx="74.18" cy="45.61" r="1.58"/><circle cx="74.18" cy="53.28" r="1.58"/><circle cx="74.18" cy="60.96" r="1.58"/><circle cx="74.18" cy="68.63" r="1.58"/><circle cx="74.18" cy="76.3" r="1.58"/><circle cx="74.18" cy="83.97" r="1.58"/><circle cx="74.18" cy="91.65" r="1.58"/><circle cx="74.18" cy="99.32" r="1.58"/><circle cx="74.18" cy="106.99" r="1.58"/><circle cx="74.18" cy="114.66" r="1.58"/><circle cx="74.18" cy="122.34" r="1.58"/><circle cx="74.18" cy="130.01" r="1.58"/><circle cx="74.18" cy="137.68" r="1.58"/><circle cx="74.18" cy="145.35" r="1.58"/><circle cx="74.18" cy="153.03" r="1.58"/><circle cx="74.18" cy="160.7" r="1.58"/><circle cx="74.18" cy="168.37" r="1.58"/><circle cx="74.18" cy="176.04" r="1.58"/><circle cx="74.18" cy="183.72" r="1.58"/><circle cx="74.18" cy="191.39" r="1.58"/><circle cx="74.18" cy="199.06" r="1.58"/><circle cx="74.18" cy="206.73" r="1.58"/><circle cx="74.18" cy="214.41" r="1.58"/><circle cx="74.18" cy="222.08" r="1.58"/><circle cx="74.18" cy="229.75" r="1.58"/><circle cx="74.18" cy="237.42" r="1.58"/><circle cx="74.18" cy="245.1" r="1.58"/><circle cx="82.76" cy="22.59" r="1.58"/><circle cx="82.76" cy="30.27" r="1.58"/><circle cx="82.76" cy="37.94" r="1.58"/><circle cx="82.76" cy="45.61" r="1.58"/><circle cx="82.76" cy="53.28" r="1.58"/><circle cx="82.76" cy="60.96" r="1.58"/><circle cx="82.76" cy="68.63" r="1.58"/><circle cx="82.76" cy="76.3" r="1.58"/><circle cx="82.76" cy="83.97" r="1.58"/><circle cx="82.76" cy="91.65" r="1.58"/><circle cx="82.76" cy="99.32" r="1.58"/><circle cx="82.76" cy="106.99" r="1.58"/><circle cx="82.76" cy="114.66" r="1.58"/><circle cx="82.76" cy="122.34" r="1.58"/><circle cx="82.76" cy="130.01" r="1.58"/><circle cx="82.76" cy="137.68" r="1.58"/><circle cx="82.76" cy="145.35" r="1.58"/><circle cx="82.76" cy="153.03" r="1.58"/><circle cx="82.76" cy="160.7" r="1.58"/><circle cx="82.76" cy="168.37" r="1.58"/><circle cx="82.76" cy="176.04" r="1.58"/><circle cx="82.76" cy="183.72" r="1.58"/><circle cx="82.76" cy="191.39" r="1.58"/><circle cx="82.76" cy="199.06" r="1.58"/><circle cx="82.76" cy="206.73" r="1.58"/><circle cx="82.76" cy="214.41" r="1.58"/><circle cx="82.76" cy="222.08" r="1.58"/><circle cx="82.76" cy="229.75" r="1.58"/><circle cx="82.76" cy="237.42" r="1.58"/><circle cx="82.76" cy="245.1" r="1.58"/><circle cx="91.33" cy="22.59" r="1.58"/><circle cx="91.33" cy="30.27" r="1.58"/><circle cx="91.33" cy="37.94" r="1.58"/><circle cx="91.33" cy="45.61" r="1.58"/><circle cx="91.33" cy="53.28" r="1.58"/><circle cx="91.33" cy="60.96" r="1.58"/><circle cx="91.33" cy="68.63" r="1.58"/><circle cx="91.33" cy="76.3" r="1.58"/><circle cx="91.33" cy="83.97" r="1.58"/><circle cx="91.33" cy="91.65" r="1.58"/><circle cx="91.33" cy="99.32" r="1.58"/><circle cx="91.33" cy="106.99" r="1.58"/><circle cx="91.33" cy="114.66" r="1.58"/><circle cx="91.33" cy="122.34" r="1.58"/><circle cx="91.33" cy="130.01" r="1.58"/><circle cx="91.33" cy="137.68" r="1.58"/><circle cx="91.33" cy="145.35" r="1.58"/><circle cx="91.33" cy="153.03" r="1.58"/><circle cx="91.33" cy="160.7" r="1.58"/><circle cx="91.33" cy="168.37" r="1.58"/><circle cx="91.33" cy="176.04" r="1.58"/><circle cx="91.33" cy="183.72" r="1.58"/><circle cx="91.33" cy="191.39" r="1.58"/><circle cx="91.33" cy="199.06" r="1.58"/><circle cx="91.33" cy="206.73" r="1.58"/><circle cx="91.33" cy="214.41" r="1.58"/><circle cx="91.33" cy="222.08" r="1.58"/><circle cx="91.33" cy="229.75" r="1.58"/><circle cx="91.33" cy="237.42" r="1.58"/><circle cx="91.33" cy="245.1" r="1.58"/><circle cx="99.91" cy="22.59" r="1.58"/><circle cx="99.91" cy="30.27" r="1.58"/><circle cx="99.91" cy="37.94" r="1.58"/><circle cx="99.91" cy="45.61" r="1.58"/><circle cx="99.91" cy="53.28" r="1.58"/><circle cx="99.91" cy="60.96" r="1.58"/><circle cx="99.91" cy="68.63" r="1.58"/><circle cx="99.91" cy="76.3" r="1.58"/><circle cx="99.91" cy="83.97" r="1.58"/><circle cx="99.91" cy="91.65" r="1.58"/><circle cx="99.91" cy="99.32" r="1.58"/><circle cx="99.91" cy="106.99" r="1.58"/><circle cx="99.91" cy="114.66" r="1.58"/><circle cx="99.91" cy="122.34" r="1.58"/><circle cx="99.91" cy="130.01" r="1.58"/><circle cx="99.91" cy="137.68" r="1.58"/><circle cx="99.91" cy="145.35" r="1.58"/><circle cx="99.91" cy="153.03" r="1.58"/><circle cx="99.91" cy="160.7" r="1.58"/><circle cx="99.91" cy="168.37" r="1.58"/><circle cx="99.91" cy="176.04" r="1.58"/><circle cx="99.91" cy="183.72" r="1.58"/><circle cx="99.91" cy="191.39" r="1.58"/><circle cx="99.91" cy="199.06" r="1.58"/><circle cx="99.91" cy="206.73" r="1.58"/><circle cx="99.91" cy="214.41" r="1.58"/><circle cx="99.91" cy="222.08" r="1.58"/><circle cx="99.91" cy="229.75" r="1.58"/><circle cx="99.91" cy="237.42" r="1.58"/><circle cx="99.91" cy="245.1" r="1.58"/><circle cx="107.51" cy="22.37" r="0.6"/><circle cx="107.51" cy="30.32" r="0.6"/><circle cx="107.51" cy="38.27" r="0.6"/><circle cx="107.51" cy="46.22" r="0.6"/><circle cx="107.51" cy="54.18" r="0.6"/><circle cx="107.51" cy="62.13" r="0.6"/><circle cx="107.51" cy="70.08" r="0.6"/><circle cx="107.51" cy="78.03" r="0.6"/><circle cx="107.51" cy="85.98" r="0.6"/><circle cx="107.51" cy="93.94" r="0.6"/><circle cx="107.51" cy="101.89" r="0.6"/><circle cx="107.51" cy="109.84" r="0.6"/><circle cx="107.51" cy="117.79" r="0.6"/><circle cx="107.51" cy="125.74" r="0.6"/><circle cx="107.51" cy="133.7" r="0.6"/><circle cx="107.51" cy="141.65" r="0.6"/><circle cx="107.51" cy="149.6" r="0.6"/><circle cx="107.51" cy="157.55" r="0.6"/><circle cx="107.51" cy="165.5" r="0.6"/><circle cx="107.51" cy="173.45" r="0.6"/><circle cx="107.51" cy="181.41" r="0.6"/><circle cx="107.51" cy="189.36" r="0.6"/><circle cx="107.51" cy="197.31" r="0.6"/><circle cx="107.51" cy="205.26" r="0.6"/><circle cx="107.51" cy="213.21" r="0.6"/><circle cx="107.51" cy="221.17" r="0.6"/><circle cx="107.51" cy="229.12" r="0.6"/><circle cx="107.51" cy="237.07" r="0.6"/><circle cx="107.51" cy="245.02" r="0.6"/><circle cx="116.16" cy="22.37" r="0.6"/><circle cx="116.16" cy="30.32" r="0.6"/><circle cx="116.16" cy="38.27" r="0.6"/><circle cx="116.16" cy="46.22" r="0.6"/><circle cx="116.16" cy="54.18" r="0.6"/><circle cx="116.16" cy="62.13" r="0.6"/><circle cx="116.16" cy="70.08" r="0.6"/><circle cx="116.16" cy="78.03" r="0.6"/><circle cx="116.16" cy="85.98" r="0.6"/><circle cx="116.16" cy="93.94" r="0.6"/><circle cx="116.16" cy="101.89" r="0.6"/><circle cx="116.16" cy="109.84" r="0.6"/><circle cx="116.16" cy="117.79" r="0.6"/><circle cx="116.16" cy="125.74" r="0.6"/><circle cx="116.16" cy="133.7" r="0.6"/><circle cx="116.16" cy="141.65" r="0.6"/><circle cx="116.16" cy="149.6" r="0.6"/><circle cx="116.16" cy="157.55" r="0.6"/><circle cx="116.16" cy="165.5" r="0.6"/><circle cx="116.16" cy="173.45" r="0.6"/><circle cx="116.16" cy="181.41" r="0.6"/><circle cx="116.16" cy="189.36" r="0.6"/><circle cx="116.16" cy="197.31" r="0.6"/><circle cx="116.16" cy="205.26" r="0.6"/><circle cx="116.16" cy="213.21" r="0.6"/><circle cx="116.16" cy="221.17" r="0.6"/><circle cx="116.16" cy="229.12" r="0.6"/><circle cx="116.16" cy="237.07" r="0.6"/><circle cx="116.16" cy="245.02" r="0.6"/><circle cx="124.81" cy="22.37" r="0.6"/><circle cx="124.81" cy="30.32" r="0.6"/><circle cx="124.81" cy="38.27" r="0.6"/><circle cx="124.81" cy="46.22" r="0.6"/><circle cx="124.81" cy="54.18" r="0.6"/><circle cx="124.81" cy="62.13" r="0.6"/><circle cx="124.81" cy="70.08" r="0.6"/><circle cx="124.81" cy="78.03" r="0.6"/><circle cx="124.81" cy="85.98" r="0.6"/><circle cx="124.81" cy="93.94" r="0.6"/><circle cx="124.81" cy="101.89" r="0.6"/><circle cx="124.81" cy="109.84" r="0.6"/><circle cx="124.81" cy="117.79" r="0.6"/><circle cx="124.81" cy="125.74" r="0.6"/><circle cx="124.81" cy="133.7" r="0.6"/><circle cx="124.81" cy="141.65" r="0.6"/><circle cx="124.81" cy="149.6" r="0.6"/><circle cx="124.81" cy="157.55" r="0.6"/><circle cx="124.81" cy="165.5" r="0.6"/><circle cx="124.81" cy="173.45" r="0.6"/><circle cx="124.81" cy="181.41" r="0.6"/><circle cx="124.81" cy="189.36" r="0.6"/><circle cx="124.81" cy="197.31" r="0.6"/><circle cx="124.81" cy="205.26" r="0.6"/><circle cx="124.81" cy="213.21" r="0.6"/><circle cx="124.81" cy="221.17" r="0.6"/><circle cx="124.81" cy="229.12" r="0.6"/><circle cx="124.81" cy="237.07" r="0.6"/><circle cx="124.81" cy="245.02" r="0.6"/><circle cx="133.46" cy="22.37" r="0.6"/><circle cx="133.46" cy="30.32" r="0.6"/><circle cx="133.46" cy="38.27" r="0.6"/><circle cx="133.46" cy="46.22" r="0.6"/><circle cx="133.46" cy="54.18" r="0.6"/><circle cx="133.46" cy="62.13" r="0.6"/><circle cx="133.46" cy="70.08" r="0.6"/><circle cx="133.46" cy="78.03" r="0.6"/><circle cx="133.46" cy="85.98" r="0.6"/><circle cx="133.46" cy="93.94" r="0.6"/><circle cx="133.46" cy="101.89" r="0.6"/><circle cx="133.46" cy="109.84" r="0.6"/><circle cx="133.46" cy="117.79" r="0.6"/><circle cx="133.46" cy="125.74" r="0.6"/><circle cx="133.46" cy="133.7" r="0.6"/><circle cx="133.46" cy="141.65" r="0.6"/><circle cx="133.46" cy="149.6" r="0.6"/><circle cx="133.46" cy="157.55" r="0.6"/><circle cx="133.46" cy="165.5" r="0.6"/><circle cx="133.46" cy="173.45" r="0.6"/><circle cx="133.46" cy="181.41" r="0.6"/><circle cx="133.46" cy="189.36" r="0.6"/><circle cx="133.46" cy="197.31" r="0.6"/><circle cx="133.46" cy="205.26" r="0.6"/><circle cx="133.46" cy="213.21" r="0.6"/><circle cx="133.46" cy="221.17" r="0.6"/><circle cx="133.46" cy="229.12" r="0.6"/><circle cx="133.46" cy="237.07" r="0.6"/><circle cx="133.46" cy="245.02" r="0.6"/><circle cx="142.11" cy="22.37" r="0.6"/><circle cx="142.11" cy="30.32" r="0.6"/><circle cx="142.11" cy="38.27" r="0.6"/><circle cx="142.11" cy="46.22" r="0.6"/><circle cx="142.11" cy="54.18" r="0.6"/><circle cx="142.11" cy="62.13" r="0.6"/><circle cx="142.11" cy="70.08" r="0.6"/><circle cx="142.11" cy="78.03" r="0.6"/><circle cx="142.11" cy="85.98" r="0.6"/><circle cx="142.11" cy="93.94" r="0.6"/><circle cx="142.11" cy="101.89" r="0.6"/><circle cx="142.11" cy="109.84" r="0.6"/><circle cx="142.11" cy="117.79" r="0.6"/><circle cx="142.11" cy="125.74" r="0.6"/><circle cx="142.11" cy="133.7" r="0.6"/><circle cx="142.11" cy="141.65" r="0.6"/><circle cx="142.11" cy="149.6" r="0.6"/><circle cx="142.11" cy="157.55" r="0.6"/><circle cx="142.11" cy="165.5" r="0.6"/><circle cx="142.11" cy="173.45" r="0.6"/><circle cx="142.11" cy="181.41" r="0.6"/><circle cx="142.11" cy="189.36" r="0.6"/><circle cx="142.11" cy="197.31" r="0.6"/><circle cx="142.11" cy="205.26" r="0.6"/><circle cx="142.11" cy="213.21" r="0.6"/><circle cx="142.11" cy="221.17" r="0.6"/><circle cx="142.11" cy="229.12" r="0.6"/><circle cx="142.11" cy="237.07" r="0.6"/><circle cx="142.11" cy="245.02" r="0.6"/><circle cx="150.76" cy="22.37" r="0.6"/><circle cx="150.76" cy="30.32" r="0.6"/><circle cx="150.76" cy="38.27" r="0.6"/><circle cx="150.76" cy="46.22" r="0.6"/><circle cx="150.76" cy="54.18" r="0.6"/><circle cx="150.76" cy="62.13" r="0.6"/><circle cx="150.76" cy="70.08" r="0.6"/><circle cx="150.76" cy="78.03" r="0.6"/><circle cx="150.76" cy="85.98" r="0.6"/><circle cx="150.76" cy="93.94" r="0.6"/><circle cx="150.76" cy="101.89" r="0.6"/><circle cx="150.76" cy="109.84" r="0.6"/><circle cx="150.76" cy="117.79" r="0.6"/><circle cx="150.76" cy="125.74" r="0.6"/><circle cx="150.76" cy="133.7" r="0.6"/><circle cx="150.76" cy="141.65" r="0.6"/><circle cx="150.76" cy="149.6" r="0.6"/><circle cx="150.76" cy="157.55" r="0.6"/><circle cx="150.76" cy="165.5" r="0.6"/><circle cx="150.76" cy="173.45" r="0.6"/><circle cx="150.76" cy="181.41" r="0.6"/><circle cx="150.76" cy="189.36" r="0.6"/><circle cx="150.76" cy="197.31" r="0.6"/><circle cx="150.76" cy="205.26" r="0.6"/><circle cx="150.76" cy="213.21" r="0.6"/><circle cx="150.76" cy="221.17" r="0.6"/><circle cx="150.76" cy="229.12" r="0.6"/><circle cx="150.76" cy="237.07" r="0.6"/><circle cx="150.76" cy="245.02" r="0.6"/><circle cx="159.41" cy="22.37" r="0.6"/><circle cx="159.41" cy="30.32" r="0.6"/><circle cx="159.41" cy="38.27" r="0.6"/><circle cx="159.41" cy="46.22" r="0.6"/><circle cx="159.41" cy="54.18" r="0.6"/><circle cx="159.41" cy="62.13" r="0.6"/><circle cx="159.41" cy="70.08" r="0.6"/><circle cx="159.41" cy="78.03" r="0.6"/><circle cx="159.41" cy="85.98" r="0.6"/><circle cx="159.41" cy="93.94" r="0.6"/><circle cx="159.41" cy="101.89" r="0.6"/><circle cx="159.41" cy="109.84" r="0.6"/><circle cx="159.41" cy="117.79" r="0.6"/><circle cx="159.41" cy="125.74" r="0.6"/><circle cx="159.41" cy="133.7" r="0.6"/><circle cx="159.41" cy="141.65" r="0.6"/><circle cx="159.41" cy="149.6" r="0.6"/><circle cx="159.41" cy="157.55" r="0.6"/><circle cx="159.41" cy="165.5" r="0.6"/><circle cx="159.41" cy="173.45" r="0.6"/><circle cx="159.41" cy="181.41" r="0.6"/><circle cx="159.41" cy="189.36" r="0.6"/><circle cx="159.41" cy="197.31" r="0.6"/><circle cx="159.41" cy="205.26" r="0.6"/><circle cx="159.41" cy="213.21" r="0.6"/><circle cx="159.41" cy="221.17" r="0.6"/><circle cx="159.41" cy="229.12" r="0.6"/><circle cx="159.41" cy="237.07" r="0.6"/><circle cx="159.41" cy="245.02" r="0.6"/><circle cx="168.06" cy="22.37" r="0.6"/><circle cx="168.06" cy="30.32" r="0.6"/><circle cx="168.06" cy="38.27" r="0.6"/><circle cx="168.06" cy="46.22" r="0.6"/><circle cx="168.06" cy="54.18" r="0.6"/><circle cx="168.06" cy="62.13" r="0.6"/><circle cx="168.06" cy="70.08" r="0.6"/><circle cx="168.06" cy="78.03" r="0.6"/><circle cx="168.06" cy="85.98" r="0.6"/><circle cx="168.06" cy="93.94" r="0.6"/><circle cx="168.06" cy="101.89" r="0.6"/><circle cx="168.06" cy="109.84" r="0.6"/><circle cx="168.06" cy="117.79" r="0.6"/><circle cx="168.06" cy="125.74" r="0.6"/><circle cx="168.06" cy="133.7" r="0.6"/><circle cx="168.06" cy="141.65" r="0.6"/><circle cx="168.06" cy="149.6" r="0.6"/><circle cx="168.06" cy="157.55" r="0.6"/><circle cx="168.06" cy="165.5" r="0.6"/><circle cx="168.06" cy="173.45" r="0.6"/><circle cx="168.06" cy="181.41" r="0.6"/><circle cx="168.06" cy="189.36" r="0.6"/><circle cx="168.06" cy="197.31" r="0.6"/><circle cx="168.06" cy="205.26" r="0.6"/><circle cx="168.06" cy="213.21" r="0.6"/><circle cx="168.06" cy="221.17" r="0.6"/><circle cx="168.06" cy="229.12" r="0.6"/><circle cx="168.06" cy="237.07" r="0.6"/><circle cx="168.06" cy="245.02" r="0.6"/><circle cx="176.71" cy="22.37" r="0.6"/><circle cx="176.71" cy="30.32" r="0.6"/><circle cx="176.71" cy="38.27" r="0.6"/><circle cx="176.71" cy="46.22" r="0.6"/><circle cx="176.71" cy="54.18" r="0.6"/><circle cx="176.71" cy="62.13" r="0.6"/><circle cx="176.71" cy="70.08" r="0.6"/><circle cx="176.71" cy="78.03" r="0.6"/><circle cx="176.71" cy="85.98" r="0.6"/><circle cx="176.71" cy="93.94" r="0.6"/><circle cx="176.71" cy="101.89" r="0.6"/><circle cx="176.71" cy="109.84" r="0.6"/><circle cx="176.71" cy="117.79" r="0.6"/><circle cx="176.71" cy="125.74" r="0.6"/><circle cx="176.71" cy="133.7" r="0.6"/><circle cx="176.71" cy="141.65" r="0.6"/><circle cx="176.71" cy="149.6" r="0.6"/><circle cx="176.71" cy="157.55" r="0.6"/><circle cx="176.71" cy="165.5" r="0.6"/><circle cx="176.71" cy="173.45" r="0.6"/><circle cx="176.71" cy="181.41" r="0.6"/><circle cx="176.71" cy="189.36" r="0.6"/><circle cx="176.71" cy="197.31" r="0.6"/><circle cx="176.71" cy="205.26" r="0.6"/><circle cx="176.71" cy="213.21" r="0.6"/><circle cx="176.71" cy="221.17" r="0.6"/><circle cx="176.71" cy="229.12" r="0.6"/><circle cx="176.71" cy="237.07" r="0.6"/><circle cx="176.71" cy="245.02" r="0.6"/><circle cx="185.36" cy="22.37" r="0.6"/><circle cx="185.36" cy="30.32" r="0.6"/><circle cx="185.36" cy="38.27" r="0.6"/><circle cx="185.36" cy="46.22" r="0.6"/><circle cx="185.36" cy="54.18" r="0.6"/><circle cx="185.36" cy="62.13" r="0.6"/><circle cx="185.36" cy="70.08" r="0.6"/><circle cx="185.36" cy="78.03" r="0.6"/><circle cx="185.36" cy="85.98" r="0.6"/><circle cx="185.36" cy="93.94" r="0.6"/><circle cx="185.36" cy="101.89" r="0.6"/><circle cx="185.36" cy="109.84" r="0.6"/><circle cx="185.36" cy="117.79" r="0.6"/><circle cx="185.36" cy="125.74" r="0.6"/><circle cx="185.36" cy="133.7" r="0.6"/><circle cx="185.36" cy="141.65" r="0.6"/><circle cx="185.36" cy="149.6" r="0.6"/><circle cx="185.36" cy="157.55" r="0.6"/><circle cx="185.36" cy="165.5" r="0.6"/><circle cx="185.36" cy="173.45" r="0.6"/><circle cx="185.36" cy="181.41" r="0.6"/><circle cx="185.36" cy="189.36" r="0.6"/><circle cx="185.36" cy="197.31" r="0.6"/><circle cx="185.36" cy="205.26" r="0.6"/><circle cx="185.36" cy="213.21" r="0.6"/><circle cx="185.36" cy="221.17" r="0.6"/><circle cx="185.36" cy="229.12" r="0.6"/><circle cx="185.36" cy="237.07" r="0.6"/><circle cx="185.36" cy="245.02" r="0.6"/><circle cx="194.01" cy="22.37" r="0.6"/><circle cx="194.01" cy="30.32" r="0.6"/><circle cx="194.01" cy="38.27" r="0.6"/><circle cx="194.01" cy="46.22" r="0.6"/><circle cx="194.01" cy="54.18" r="0.6"/><circle cx="194.01" cy="62.13" r="0.6"/><circle cx="194.01" cy="70.08" r="0.6"/><circle cx="194.01" cy="78.03" r="0.6"/><circle cx="194.01" cy="85.98" r="0.6"/><circle cx="194.01" cy="93.94" r="0.6"/><circle cx="194.01" cy="101.89" r="0.6"/><circle cx="194.01" cy="109.84" r="0.6"/><circle cx="194.01" cy="117.79" r="0.6"/><circle cx="194.01" cy="125.74" r="0.6"/><circle cx="194.01" cy="133.7" r="0.6"/><circle cx="194.01" cy="141.65" r="0.6"/><circle cx="194.01" cy="149.6" r="0.6"/><circle cx="194.01" cy="157.55" r="0.6"/><circle cx="194.01" cy="165.5" r="0.6"/><circle cx="194.01" cy="173.45" r="0.6"/><circle cx="194.01" cy="181.41" r="0.6"/><circle cx="194.01" cy="189.36" r="0.6"/><circle cx="194.01" cy="197.31" r="0.6"/><circle cx="194.01" cy="205.26" r="0.6"/><circle cx="194.01" cy="213.21" r="0.6"/><circle cx="194.01" cy="221.17" r="0.6"/><circle cx="194.01" cy="229.12" r="0.6"/><circle cx="194.01" cy="237.07" r="0.6"/><circle cx="194.01" cy="245.02" r="0.6"/><circle cx="202.66" cy="22.37" r="0.6"/><circle cx="202.66" cy="30.32" r="0.6"/><circle cx="202.66" cy="38.27" r="0.6"/><circle cx="202.66" cy="46.22" r="0.6"/><circle cx="202.66" cy="54.18" r="0.6"/><circle cx="202.66" cy="62.13" r="0.6"/><circle cx="202.66" cy="70.08" r="0.6"/><circle cx="202.66" cy="78.03" r="0.6"/><circle cx="202.66" cy="85.98" r="0.6"/><circle cx="202.66" cy="93.94" r="0.6"/><circle cx="202.66" cy="101.89" r="0.6"/><circle cx="202.66" cy="109.84" r="0.6"/><circle cx="202.66" cy="117.79" r="0.6"/><circle cx="202.66" cy="125.74" r="0.6"/><circle cx="202.66" cy="133.7" r="0.6"/><circle cx="202.66" cy="141.65" r="0.6"/><circle cx="202.66" cy="149.6" r="0.6"/><circle cx="202.66" cy="157.55" r="0.6"/><circle cx="202.66" cy="165.5" r="0.6"/><circle cx="202.66" cy="173.45" r="0.6"/><circle cx="202.66" cy="181.41" r="0.6"/><circle cx="202.66" cy="189.36" r="0.6"/><circle cx="202.66" cy="197.31" r="0.6"/><circle cx="202.66" cy="205.26" r="0.6"/><circle cx="202.66" cy="213.21" r="0.6"/><circle cx="202.66" cy="221.17" r="0.6"/><circle cx="202.66" cy="229.12" r="0.6"/><circle cx="202.66" cy="237.07" r="0.6"/><circle cx="202.66" cy="245.02" r="0.6"/><line x1="210.48" y1="21.92" x2="359.77" y2="21.92" style="fill:none;stroke:#000;stroke-miterlimit:10;stroke-width:0.193678867233105px"/><line x1="210.48" y1="30.49" x2="359.77" y2="30.49" style="fill:none;stroke:#000;stroke-miterlimit:10;stroke-width:0.193678867233105px"/><line x1="210.48" y1="39.07" x2="359.77" y2="39.07" style="fill:none;stroke:#000;stroke-miterlimit:10;stroke-width:0.193678867233105px"/><line x1="210.48" y1="47.64" x2="359.77" y2="47.64" style="fill:none;stroke:#000;stroke-miterlimit:10;stroke-width:0.193678867233105px"/><line x1="210.48" y1="56.22" x2="359.77" y2="56.22" style="fill:none;stroke:#000;stroke-miterlimit:10;stroke-width:0.193678867233105px"/><line x1="210.48" y1="64.79" x2="359.77" y2="64.79" style="fill:none;stroke:#000;stroke-miterlimit:10;stroke-width:0.193678867233105px"/><line x1="210.48" y1="73.37" x2="359.77" y2="73.37" style="fill:none;stroke:#000;stroke-miterlimit:10;stroke-width:0.193678867233105px"/><line x1="210.48" y1="81.94" x2="359.77" y2="81.94" style="fill:none;stroke:#000;stroke-miterlimit:10;stroke-width:0.193678867233105px"/><line x1="210.48" y1="90.52" x2="359.77" y2="90.52" style="fill:none;stroke:#000;stroke-miterlimit:10;stroke-width:0.193678867233105px"/><line x1="210.48" y1="99.09" x2="359.77" y2="99.09" style="fill:none;stroke:#000;stroke-miterlimit:10;stroke-width:0.193678867233105px"/><line x1="210.48" y1="107.67" x2="359.77" y2="107.67" style="fill:none;stroke:#000;stroke-miterlimit:10;stroke-width:0.193678867233105px"/><line x1="210.48" y1="116.24" x2="359.77" y2="116.24" style="fill:none;stroke:#000;stroke-miterlimit:10;stroke-width:0.193678867233105px"/><line x1="210.48" y1="124.82" x2="359.77" y2="124.82" style="fill:none;stroke:#000;stroke-miterlimit:10;stroke-width:0.193678867233105px"/><line x1="210.48" y1="133.39" x2="359.77" y2="133.39" style="fill:none;stroke:#000;stroke-miterlimit:10;stroke-width:0.193678867233105px"/><line x1="210.48" y1="141.97" x2="359.77" y2="141.97" style="fill:none;stroke:#000;stroke-miterlimit:10;stroke-width:0.193678867233105px"/><line x1="210.48" y1="150.54" x2="359.77" y2="150.54" style="fill:none;stroke:#000;stroke-miterlimit:10;stroke-width:0.193678867233105px"/><line x1="210.48" y1="159.12" x2="359.77" y2="159.12" style="fill:none;stroke:#000;stroke-miterlimit:10;stroke-width:0.193678867233105px"/><line x1="210.48" y1="167.69" x2="359.77" y2="167.69" style="fill:none;stroke:#000;stroke-miterlimit:10;stroke-width:0.193678867233105px"/><line x1="210.48" y1="176.27" x2="359.77" y2="176.27" style="fill:none;stroke:#000;stroke-miterlimit:10;stroke-width:0.193678867233105px"/><line x1="210.48" y1="184.85" x2="359.77" y2="184.85" style="fill:none;stroke:#000;stroke-miterlimit:10;stroke-width:0.193678867233105px"/><line x1="210.48" y1="193.42" x2="359.77" y2="193.42" style="fill:none;stroke:#000;stroke-miterlimit:10;stroke-width:0.193678867233105px"/><line x1="210.48" y1="202" x2="359.77" y2="202" style="fill:none;stroke:#000;stroke-miterlimit:10;stroke-width:0.193678867233105px"/><line x1="210.48" y1="210.57" x2="359.77" y2="210.57" style="fill:none;stroke:#000;stroke-miterlimit:10;stroke-width:0.193678867233105px"/><line x1="210.48" y1="219.15" x2="359.77" y2="219.15" style="fill:none;stroke:#000;stroke-miterlimit:10;stroke-width:0.193678867233105px"/><line x1="210.48" y1="227.72" x2="359.77" y2="227.72" style="fill:none;stroke:#000;stroke-miterlimit:10;stroke-width:0.193678867233105px"/><line x1="210.48" y1="236.3" x2="359.77" y2="236.3" style="fill:none;stroke:#000;stroke-miterlimit:10;stroke-width:0.193678867233105px"/><line x1="210.48" y1="244.87" x2="359.77" y2="244.87" style="fill:none;stroke:#000;stroke-miterlimit:10;stroke-width:0.193678867233105px"/><path d="M143.09,171.73c4.33,4.54,11.1,7.64,20.44,9.23,8.69,1.48,19.29,1.54,26.93,1.53H197c7.64,0,18.24-.05,26.92-1.53,9.34-1.59,16.11-4.69,20.44-9.23,4.54-4.33,7.65-11.1,9.23-20.44,1.48-8.69,1.54-19.29,1.53-26.93v-6.52c0-7.64,0-18.24-1.53-26.92-1.58-9.34-4.69-16.11-9.23-20.45h0c-4.33-4.53-11.1-7.64-20.44-9.23-8.69-1.47-19.29-1.53-26.93-1.53h-6.52c-7.64,0-18.24.06-26.92,1.53-9.34,1.59-16,4.82-20.45,9.23-4.62,4.59-7.79,11.54-9.22,20.45-1.41,8.7-1.54,19.28-1.53,26.92v6.53c0,7.64.05,18.24,1.53,26.92,1.58,9.34,4.69,16.11,9.22,20.44" style="fill:#fff;stroke:#18130d;stroke-miterlimit:10;stroke-width:2.38824008956669px"/><path d="M198.37,184.22h-7.91c-6.27,0-17.94,0-27.22-1.55-9.55-1.62-16.74-4.89-21.37-9.7h0c-4.84-4.63-8.11-11.83-9.74-21.41-1.58-9.3-1.56-20.95-1.56-27.21v-6.53c0-6.26,0-17.91,1.56-27.21,1.63-9.58,4.9-16.78,9.74-21.41,4.57-4.78,11.77-8.06,21.35-9.68C172.5,58,184.17,58,190.43,58H197c6.28,0,17.93,0,27.22,1.56,9.49,1.61,16.65,4.84,21.28,9.6l.09.09c4.84,4.63,8.11,11.83,9.74,21.41,1.58,9.29,1.56,21,1.56,27.21v6.52c0,6.26,0,17.92-1.56,27.22-1.63,9.58-4.9,16.78-9.74,21.4-4.56,4.78-11.76,8.06-21.35,9.69-8.62,1.46-19.32,1.55-25.82,1.55m-54-13.69c4.1,4.29,10.65,7.22,19.48,8.72,9,1.53,20.47,1.52,26.63,1.51H197c6.18,0,17.65,0,26.63-1.51,8.83-1.5,15.39-4.43,19.48-8.72,4.34-4.15,7.28-10.7,8.78-19.53,1.52-9,1.51-20.48,1.5-26.63v-6.53c0-6.16,0-17.63-1.5-26.63-1.48-8.68-4.34-15.16-8.5-19.27h0l-.27-.27c-4.1-4.29-10.65-7.22-19.48-8.72-9-1.52-20.47-1.51-26.63-1.5h-6.53c-6.18,0-17.64,0-26.63,1.5-8.83,1.5-15.38,4.43-19.48,8.72-4.34,4.16-7.27,10.71-8.78,19.54-1.52,9-1.51,20.47-1.5,26.63v6.53c0,6.16,0,17.62,1.5,26.63,1.51,8.83,4.44,15.38,8.72,19.48l-1.56,1.63Z" style="fill:none"/><path d="M193.52,68.87c4.16,0,7.21,0,17.72.5s20.61,2.21,27.31,10,5.85,19.84,5.85,19.84.59,7.8-13.74,9.24-32.3,1-37.14,1-22.8.42-37.13-1-13.74-9.24-13.74-9.24-.85-12,5.85-19.84,16.79-9.5,27.3-10,13.57-.5,17.72-.5" style="fill:#597de9"/><path d="M193.52,174c4.16,0,7.21,0,17.72-.51s20.61-2.2,27.31-10,5.85-19.84,5.85-19.84.59-7.8-13.74-9.24-32.3-1-37.14-1-22.8-.43-37.13,1-13.74,9.24-13.74,9.24-.85,12,5.85,19.84,16.79,9.49,27.3,10,13.57.51,17.72.51" style="fill:#597de9"/></svg>