<svg xmlns="http://www.w3.org/2000/svg" viewBox="0 0 272.02 381.25"><polygon points="254.68 2.59 270.61 17.08 270.55 379.83 17.82 379.3 2.02 365.49 254.68 2.59" style="fill:#c8ff6a;stroke:#000;stroke-miterlimit:10;stroke-width:2.83464566929134px"/><line x1="253.05" y1="364.18" x2="270.26" y2="378.02" style="fill:#fff;stroke:#000;stroke-miterlimit:10;stroke-width:2.83464566929134px"/><line x1="252.18" y1="16.51" x2="270.61" y2="16.51" style="fill:#f794ff;stroke:#000;stroke-miterlimit:10;stroke-width:2.83464566929134px"/><polygon points="254.42 4.35 266.12 14.89 254.39 14.98 254.42 4.35" style="fill:#fff"/><line x1="19.66" y1="379.3" x2="19.66" y2="363.73" style="fill:#f794ff;stroke:#000;stroke-miterlimit:10;stroke-width:2.83464566929134px"/><path d="M18.06,365.78s.12,11.73,0,11.73S4.67,365.8,4.67,365.8Z" style="fill:#fff"/><rect x="1.57" y="1.57" width="251.43" height="362.37" style="fill:#fff;stroke:#000;stroke-miterlimit:10;stroke-width:2.83464574813843px"/><rect x="1.57" y="1.57" width="251.43" height="362.37" style="fill:none;stroke:#000;stroke-miterlimit:10;stroke-width:3.14152334235014px"/><rect x="1.57" y="1.57" width="251.43" height="362.37" style="fill:none;stroke:#000;stroke-miterlimit:10;stroke-width:3.14152334235014px"/><rect x="1.57" y="1.57" width="251.43" height="362.37" style="fill:none;stroke:#000;stroke-miterlimit:10;stroke-width:2.83464566929134px"/><rect x="61.58" y="54.69" width="127.56" height="127.56" style="fill:#e1ff32"/><path d="M163.63,118.84v-.3c0-.1,0-.2,0-.3l0-.3c0-.09,0-.19,0-.29l0-.3a13.85,13.85,0,0,0-.44-2.31,14.66,14.66,0,0,0-.79-2.22c-.08-.18-.16-.36-.25-.54l-.27-.52q-.15-.27-.3-.51c-.11-.17-.23-.33-.34-.49l-.37-.47c-.13-.15-.27-.29-.41-.43l-.44-.4-.47-.37a18.07,18.07,0,0,0-2-1.31,20.17,20.17,0,0,0-2.09-1,12.33,12.33,0,0,0-2.24-.68,10,10,0,0,0-2.38-.11l-.59,0c-.2,0-.39,0-.59.06l-.59.07c-.2,0-.39.07-.59.11a9.41,9.41,0,0,0-2.23.85,16.71,16.71,0,0,0-2,1.29l-.12.09-.12.09-.23.18-.12.09-.11.09-.23.18-.12.1-.11.09-.24.19-.11.09-.12.1-.22.2a6.15,6.15,0,0,0-.78.91l-.08.12a.54.54,0,0,0-.07.13,2.15,2.15,0,0,0-.14.26,2.27,2.27,0,0,0-.2.57h0a.35.35,0,0,0,.09.3l.07,0v0l-.05-.05a.27.27,0,0,0-.37.06h0a5,5,0,0,0-.84,2.2,2.93,2.93,0,0,1-.05.29l0,.14,0,.14-.06.28,0,.14,0,.14c0,.1,0,.19-.07.29l0,.14a.57.57,0,0,0,0,.14l-.06.28a1.5,1.5,0,0,0-.06.29l-.06.29-.06.28c0,.1,0,.2,0,.29a1.5,1.5,0,0,0,0,.29c0,.1,0,.2,0,.3v.29c0,.1,0,.2,0,.3v.15s0,.1,0,.15q.07.58.21,1.17a2.46,2.46,0,0,1,.07.29l0,.14,0,.14c0,.19.08.39.14.57a15,15,0,0,0,.8,2.22,10.12,10.12,0,0,0,1.26,2,12.48,12.48,0,0,0,1.66,1.67,17.06,17.06,0,0,0,1.91,1.37,9.34,9.34,0,0,0,2.17,1l.57.17.57.13.59.11.57.12c.2,0,.39.08.58.1l.59,0,.59,0,.59-.06.59-.07.57-.11.58-.14.56-.15a17.08,17.08,0,0,0,2.21-.79,10.06,10.06,0,0,0,2.09-1.12,7.66,7.66,0,0,0,1.74-1.67,2.2,2.2,0,0,1,.17-.25,2.07,2.07,0,0,0,.15-.25l.15-.25.07-.13,0-.06,0-.06c.1-.17.19-.34.28-.52s.17-.34.27-.51c.37-.68.75-1.35,1.1-2.06a6.81,6.81,0,0,0,.68-2.29c0-.1,0-.2,0-.3l0-.3c0-.1,0-.2,0-.3" style="fill:#d6de26"/><path d="M138.77,104.49v-.3c0-.1,0-.2,0-.3v-.3l0-.29,0-.3a13.85,13.85,0,0,0-.44-2.31,13.65,13.65,0,0,0-.79-2.22c-.08-.18-.16-.36-.25-.54L137,97.4l-.3-.51-.34-.49c-.12-.15-.24-.31-.37-.46s-.27-.29-.41-.44l-.44-.39-.46-.38a20.93,20.93,0,0,0-2-1.3,17.55,17.55,0,0,0-2.09-1,11.59,11.59,0,0,0-2.24-.68,10,10,0,0,0-2.38-.11l-.59,0-.59.06c-.19,0-.39,0-.59.07a5.4,5.4,0,0,0-.58.11,9.46,9.46,0,0,0-2.24.84,18.14,18.14,0,0,0-2,1.3l-.12.08-.11.1a1.88,1.88,0,0,0-.24.18l-.11.08-.12.1-.23.18-.12.09-.11.1-.23.19-.12.09-.11.1-.23.2a5.92,5.92,0,0,0-.77.9l-.09.13-.07.12c0,.09-.1.18-.14.27a2.75,2.75,0,0,0-.2.57h0a.3.3,0,0,0,.09.3.18.18,0,0,0,.07,0v0l0,0a.27.27,0,0,0-.37,0h0a5.1,5.1,0,0,0-.84,2.2,2.74,2.74,0,0,1,0,.28l0,.15,0,.14L115,101l0,.14,0,.14a2.29,2.29,0,0,1-.07.28l0,.15,0,.14-.07.28c0,.1,0,.19-.06.29l-.06.28-.06.29c0,.1,0,.19,0,.29a1.5,1.5,0,0,0,0,.29c0,.1,0,.2,0,.3a1.41,1.41,0,0,0,0,.29c0,.1,0,.2,0,.3v.15a.77.77,0,0,1,0,.15c.06.39.13.78.22,1.17l.06.28,0,.15,0,.14c.05.19.09.38.14.57a13.53,13.53,0,0,0,.81,2.21,9.53,9.53,0,0,0,1.25,2,11.53,11.53,0,0,0,1.67,1.68,15.68,15.68,0,0,0,1.9,1.36,9.33,9.33,0,0,0,2.17,1l.57.16.58.14.58.11.58.12.58.1.59,0,.59,0,.58-.06.59-.08.58-.1.57-.14.57-.15a16.94,16.94,0,0,0,2.2-.79,9.81,9.81,0,0,0,2.09-1.12,7.3,7.3,0,0,0,1.74-1.68l.17-.24c.05-.08.11-.16.16-.25l.14-.25.08-.13,0-.06,0-.06.27-.52.27-.51c.37-.69.75-1.35,1.11-2.06a7,7,0,0,0,.67-2.3l0-.3v-.3a2.71,2.71,0,0,0,0-.29" style="fill:#bbd530"/><path d="M138.66,132.21a2.83,2.83,0,0,0,0-.29l0-.3c0-.09,0-.19,0-.29a9.39,9.39,0,0,0-.6-2.27,17.19,17.19,0,0,0-1-2.13l-.29-.52c-.1-.17-.21-.34-.32-.51s-.24-.32-.36-.47a4.22,4.22,0,0,0-.41-.43,16.94,16.94,0,0,0-1.75-1.51,14.05,14.05,0,0,0-2-1.23,12.53,12.53,0,0,0-2.18-.83l-.56-.16-.57-.14L128,121l-.58-.08-.59-.06-.59,0-.59,0a4,4,0,0,0-.58.13l-.57.16-.56.14-.56.16-.55.16a13.82,13.82,0,0,0-2.15.87,10.26,10.26,0,0,0-2,1.3c-.15.12-.29.26-.44.39l-.11.09-.06,0,0,0-.21.21-.1.1-.11.11-.2.21-.1.11-.1.11-.19.22a8.91,8.91,0,0,0-1.27,2,12.87,12.87,0,0,0-.69,2.24l0,.14a.7.7,0,0,0,0,.14c0,.1,0,.19-.07.28l0,.14,0,.15c0,.09,0,.18-.07.28-.08.38-.17.75-.23,1.14a5.64,5.64,0,0,0-.12,1.16v.15a.76.76,0,0,0,0,.15l0,.3c0,.05,0,.1,0,.15l0,.14c0,.1,0,.2,0,.29l0,.15,0,.14.07.29,0,.14,0,.14.08.28a.83.83,0,0,0,0,.15l0,.14c0,.09,0,.18.07.28a.74.74,0,0,0,0,.14l0,.14c0,.1,0,.19.07.29a6.56,6.56,0,0,0,.94,2.11.25.25,0,0,0,.26.1h0a.32.32,0,0,0-.18.37,2.37,2.37,0,0,0,.21.58,3.78,3.78,0,0,0,.3.51,5.23,5.23,0,0,0,.81.88c.3.27.62.5.92.75a1.88,1.88,0,0,1,.24.18l.11.09.11.09.24.18.11.09.13.08c.32.23.65.44,1,.64s.7.35,1,.51a12.33,12.33,0,0,0,2.18.8,5.23,5.23,0,0,0,.57.12l.57.09c.2,0,.39.07.58.08a5.9,5.9,0,0,0,.59.06,13.81,13.81,0,0,0,2.32,0,7.74,7.74,0,0,0,2.31-.52,8.61,8.61,0,0,0,2.06-1.14c.62-.48,1.23-.92,1.85-1.38l.46-.36.45-.38.41-.42.38-.45a10.28,10.28,0,0,0,1.17-2,16.5,16.5,0,0,0,.84-2.19,11.32,11.32,0,0,0,.42-2.31l0-.3a1.41,1.41,0,0,0,0-.29v-.89Z" style="fill:#bbd530"/><path d="M113.91,90.13v-.3c0-.09,0-.19,0-.29v-.3c0-.1,0-.2,0-.29l0-.3a14.93,14.93,0,0,0-.43-2.31,15.84,15.84,0,0,0-.79-2.22l-.25-.54-.28-.53-.3-.51c-.11-.16-.22-.33-.34-.49s-.24-.31-.37-.46-.26-.3-.4-.44l-.45-.39-.46-.38a20.79,20.79,0,0,0-2-1.3,16.27,16.27,0,0,0-2.1-1,11.59,11.59,0,0,0-2.24-.68,10,10,0,0,0-2.38-.11l-.59,0-.58.06c-.2,0-.4,0-.6.07a4,4,0,0,0-.58.11,9.46,9.46,0,0,0-2.24.84,16.77,16.77,0,0,0-2,1.3l-.12.08-.11.09-.23.18-.12.09-.12.1-.23.18-.12.09-.11.1-.23.19-.12.09-.11.1-.22.2a6,6,0,0,0-.78.9l-.08.13a.83.83,0,0,0-.08.12c0,.09-.1.18-.14.27a2.56,2.56,0,0,0-.2.57h0a.33.33,0,0,0,.09.3.2.2,0,0,0,.07.06h0l0,0a.25.25,0,0,0-.36,0h0a5,5,0,0,0-.83,2.21,2.74,2.74,0,0,0,0,.28l0,.14,0,.15-.06.28,0,.14a.74.74,0,0,0,0,.14,2.29,2.29,0,0,1-.07.28l0,.14,0,.14-.07.29L89.8,88l-.06.29a2.93,2.93,0,0,0,0,.29c0,.1,0,.19,0,.29a2.85,2.85,0,0,0,0,.29c0,.1,0,.2,0,.3a2.8,2.8,0,0,0,0,.29c0,.1,0,.2,0,.3l0,.15a.77.77,0,0,0,0,.15,11.27,11.27,0,0,0,.21,1.16l.06.29L90,92l0,.14c.05.19.09.38.15.57a13.25,13.25,0,0,0,.8,2.21,9.42,9.42,0,0,0,1.26,2,11.46,11.46,0,0,0,1.66,1.68,16.11,16.11,0,0,0,1.91,1.36,9.07,9.07,0,0,0,2.16,1l.57.16.58.14c.19,0,.39.06.58.11l.58.12.58.1.59,0,.59,0,.59-.06.58-.08.58-.1.57-.14.57-.15a16.94,16.94,0,0,0,2.2-.79,9.93,9.93,0,0,0,2.1-1.13,7.41,7.41,0,0,0,1.73-1.67l.17-.24c.06-.08.11-.17.16-.25l.15-.25.07-.13,0-.06,0-.07.27-.51c.09-.17.18-.34.28-.51.36-.69.74-1.35,1.1-2.06a6.91,6.91,0,0,0,.67-2.3l0-.3v-.3c0-.1,0-.2,0-.3" style="fill:#45b653"/><path d="M113.8,146.56c0-.09,0-.19,0-.29l0-.29,0-.3a9.64,9.64,0,0,0-.59-2.26,18.19,18.19,0,0,0-1-2.14l-.29-.52c-.1-.17-.21-.34-.32-.51a5.32,5.32,0,0,0-.36-.47c-.13-.15-.27-.29-.4-.43a17.76,17.76,0,0,0-1.75-1.5,13.33,13.33,0,0,0-2-1.24,11.73,11.73,0,0,0-2.18-.82l-.56-.17-.57-.14-.57-.12-.59-.08-.58-.06-.59,0-.6,0a4,4,0,0,0-.58.13l-.57.16a5.09,5.09,0,0,1-.56.14l-.55.16L98,136a15.35,15.35,0,0,0-2.15.87,9.89,9.89,0,0,0-2,1.3c-.16.12-.3.26-.45.39l-.11.09,0,.05-.06.05L93,139l-.1.1-.11.11-.2.21-.1.11-.1.11-.19.22a8.53,8.53,0,0,0-1.26,2,11.56,11.56,0,0,0-.69,2.24l0,.14,0,.14c0,.1,0,.19-.07.29l0,.14,0,.14-.06.28c-.09.38-.18.76-.24,1.14a7.48,7.48,0,0,0-.12,1.17v.14c0,.05,0,.1,0,.15l0,.3,0,.15,0,.14c0,.1,0,.2,0,.29l0,.15,0,.14.07.29,0,.14,0,.14.08.29a1,1,0,0,0,0,.14l0,.14c0,.09,0,.19.07.28s0,.1,0,.14l0,.14c0,.1,0,.19.07.29a6.69,6.69,0,0,0,.94,2.11.26.26,0,0,0,.26.1h0a.34.34,0,0,0-.18.37,2.86,2.86,0,0,0,.21.58,3.25,3.25,0,0,0,.3.51,6.25,6.25,0,0,0,.81.89c.3.26.62.49.92.74l.24.18.11.09.12.09.23.18.12.09.12.08a11.35,11.35,0,0,0,1,.64c.34.19.69.35,1,.52a13.83,13.83,0,0,0,2.18.79,3.86,3.86,0,0,0,.57.12l.57.1.58.08a5.87,5.87,0,0,0,.59,0,12.94,12.94,0,0,0,2.33,0,7.68,7.68,0,0,0,2.3-.52,8.87,8.87,0,0,0,2.07-1.14c.61-.48,1.22-.92,1.85-1.38l.46-.36.44-.38L111,155l.38-.45a9.56,9.56,0,0,0,1.17-2,16.5,16.5,0,0,0,.84-2.19,11.21,11.21,0,0,0,.43-2.31v-.3a2.64,2.64,0,0,0,0-.29v-.89Z" style="fill:#45b653"/><path d="M139.06,112.47a.8.8,0,0,1,.05-.72c.06-.11.13-.22.2-.33l.1-.17.09-.16a3.11,3.11,0,0,0,.14-.43,1.32,1.32,0,0,1,.18-.4.89.89,0,0,1,.21-.16,1.28,1.28,0,0,0,.25-.15,2.39,2.39,0,0,0,.22-.23,1.52,1.52,0,0,1,.22-.22l.23-.15.25-.12.25-.11a1.67,1.67,0,0,0,.23-.12l.37-.25.36-.27.19-.14.19-.13.19-.13.2-.11a7.81,7.81,0,0,1,1.41-.64l.45-.12.43-.11.43-.1.44-.11a10,10,0,0,1,1.78-.33c.3,0,.6,0,.9-.06h.46a1.76,1.76,0,0,1,.23,0h.23a14.52,14.52,0,0,1,1.9.24,16.92,16.92,0,0,1,2.06.57l.21.07.2.08.42.16a7.33,7.33,0,0,1,.8.38l.28.17.27.2.26.2.25.22.13.11.06,0,.06.06.25.22.12.11.12.11.26.22c.09.06.16.14.25.21l.24.23c.08.07.15.16.23.24l.23.24.21.26c.07.08.15.16.22.25l.21.26.1.13.11.14a7.36,7.36,0,0,1,1,1.77,10.17,10.17,0,0,1,.6,2.17c.06.42,0,.85,0,1.26,0,.1,0,.19,0,.29l0,.29a2.71,2.71,0,0,1,0,.29l0,.29a2.62,2.62,0,0,1,0,.28v.29l0,.29a2.7,2.7,0,0,1,0,.28,15.44,15.44,0,0,1-.61,2.26,23,23,0,0,1-.9,2.22,3.54,3.54,0,0,0-.16.34s0,.11-.08.17l-.08.16-.16.34-.09.16-.09.17a6.21,6.21,0,0,1-.89,1.25c-.13.14-.27.19-.39.33s-.11.26-.2.37a10.13,10.13,0,0,1-1.91,1.64,24.78,24.78,0,0,1-2.21,1.32,17.38,17.38,0,0,1-4.56.31,15,15,0,0,1-4.57-1,14.64,14.64,0,0,1-2.53-1.35,9.4,9.4,0,0,1-2.19-2.08l-.22-.3-.11-.15-.1-.16-.21-.32c-.07-.1-.13-.21-.2-.32s-.25-.44-.37-.65l-.05-.09,0-.08-.09-.17-.09-.17a1.19,1.19,0,0,0-.08-.16,10.42,10.42,0,0,1-.75-2,10,10,0,0,1-.31-2.12,9,9,0,0,1,.2-2.18,8,8,0,0,1,.76-2.12,5.68,5.68,0,0,1,1.68-2.06.54.54,0,0,1-.06.64,1.71,1.71,0,0,1-.22.25.57.57,0,0,0-.11.11l-.1.11a8.29,8.29,0,0,0-1,1.85,9.74,9.74,0,0,0-.56,2.17,7.22,7.22,0,0,0,.2,2.92,2.3,2.3,0,0,0,.1.35,3.58,3.58,0,0,0,.11.35l.13.35a1.22,1.22,0,0,0,.07.17l.07.17.15.33.17.33.08.16.09.16.18.32c.3.49.58,1,.89,1.47a8.35,8.35,0,0,0,1.06,1.37,2.84,2.84,0,0,0,.26.24l.13.12.14.11.28.21.29.2c.39.27.8.48,1.2.71a16.4,16.4,0,0,0,1.64.78,14.51,14.51,0,0,0,1.73.55l.23.05.22.05.45.09.46.06H148l.23,0a10.86,10.86,0,0,0,1.89,0h1.07l.15,0,.31-.07.29-.1.14,0,.14-.05.29-.08.62-.14.08,0,.09,0,.16,0,.17,0,.17-.06a5.8,5.8,0,0,0,.69-.27l.17-.07.16-.09.31-.18.1-.06.1-.07.18-.14.18-.15.17-.16.34-.33.16-.17a1.29,1.29,0,0,0,.17-.16l.36-.35.35-.36.33-.38c.06-.06.11-.13.16-.19l.15-.2a7.54,7.54,0,0,0,1-1.67c.26-.64.58-1.33.87-2.07a12.92,12.92,0,0,0,.7-2.34l0-.17s0-.11,0-.17,0-.22,0-.34,0-.23,0-.34,0-.23,0-.34,0-.44,0-.66,0-.22,0-.33,0-.23,0-.34v-.17c0-.06,0-.11,0-.17s0-.23,0-.34,0-.12,0-.18l0-.17a1.1,1.1,0,0,1,0-.18l0-.17q-.06-.36-.15-.72a1.21,1.21,0,0,1,0-.18,1.27,1.27,0,0,0-.06-.18l-.12-.37,0-.09,0-.09a1.42,1.42,0,0,1-.08-.18c-.06-.12-.11-.24-.18-.36s-.13-.24-.2-.36-.15-.24-.23-.36a17.64,17.64,0,0,0-1.43-1.73,1.36,1.36,0,0,0-.12-.12l-.12-.11-.27-.21-.13-.1L157,110l-.26-.2-.32-.29-.08-.08-.08-.07-.16-.15-.16-.15-.16-.14a2.88,2.88,0,0,0-.34-.27,4.14,4.14,0,0,0-.72-.38l-.19-.08-.19-.07L154,108l-.31-.11-.31-.13-.32-.11a2,2,0,0,0-.31-.12,5.45,5.45,0,0,0-.65-.21l-.33-.09-.33,0a17.79,17.79,0,0,0-2.39-.14h-.81a7,7,0,0,0-.89.14c-.17,0-.31.11-.47.16a5.43,5.43,0,0,1-.58.13l-.29,0-.29,0a6.37,6.37,0,0,0-1.15.25l-.37.14-.32.17-.16.08-.15.09-.28.18a3.15,3.15,0,0,0-.27.19l-.27.18a2.48,2.48,0,0,1-.26.19l-.13.09-.13.09-.23.15-.23.15-.22.14-.12.08,0,0-.06,0-.44.32-.41.37-.39.45c-.11.16-.23.31-.34.48l-.33.49c-.11.18-.21.35-.33.52" style="fill:#211d1e;fill-rule:evenodd"/><path d="M114.2,98.12a.79.79,0,0,1,0-.72,3.62,3.62,0,0,1,.2-.33l.1-.17.09-.16a2.41,2.41,0,0,0,.14-.43,1.34,1.34,0,0,1,.19-.4.67.67,0,0,1,.2-.16,1,1,0,0,0,.25-.15,2.39,2.39,0,0,0,.22-.23,1.58,1.58,0,0,1,.23-.22,1.07,1.07,0,0,1,.22-.15l.26-.12.25-.11.22-.12c.13-.08.25-.17.37-.26a4.22,4.22,0,0,0,.36-.27l.19-.13.19-.13.19-.13.2-.11a7.9,7.9,0,0,1,1.42-.64l.44-.13.43-.1.44-.1.43-.12a11.1,11.1,0,0,1,1.78-.32c.3,0,.6,0,.9-.06h.92a14.66,14.66,0,0,1,1.91.24,15.58,15.58,0,0,1,2,.57l.21.07.2.08.42.16a7.33,7.33,0,0,1,.8.38l.28.17.27.2.26.2.25.22.13.11.06.05.06.06.25.22.12.11.13.11a2.52,2.52,0,0,0,.25.21l.25.22.24.23c.08.07.15.16.23.24l.23.24.21.25.22.26.21.26.11.13.1.14a7.21,7.21,0,0,1,1,1.77,10.18,10.18,0,0,1,.59,2.17c.07.42,0,.85,0,1.26,0,.1,0,.19,0,.29a2.83,2.83,0,0,0,0,.29c0,.09,0,.19,0,.29v.28a1.4,1.4,0,0,1,0,.29v.29a2.85,2.85,0,0,1,0,.29,2.7,2.7,0,0,1,0,.28,16.76,16.76,0,0,1-.6,2.26,23.06,23.06,0,0,1-.91,2.22,3.54,3.54,0,0,0-.16.34l-.08.17-.08.16c-.05.11-.11.22-.16.34l-.09.16-.09.16a5.9,5.9,0,0,1-.89,1.26c-.13.14-.27.19-.39.33s-.1.26-.2.37a10.13,10.13,0,0,1-1.91,1.64c-.71.49-1.46.91-2.2,1.32a17.86,17.86,0,0,1-4.57.31,15,15,0,0,1-4.57-1,14.64,14.64,0,0,1-2.53-1.35,9.17,9.17,0,0,1-2.18-2.08l-.23-.3-.11-.16-.1-.15-.21-.32-.2-.32c-.13-.22-.25-.44-.37-.66l0-.08,0-.08-.09-.17-.08-.17-.09-.17a10.26,10.26,0,0,1-1.06-4.1,9,9,0,0,1,.2-2.18,8.42,8.42,0,0,1,.76-2.12,5.6,5.6,0,0,1,1.69-2.06.54.54,0,0,1-.07.64,1.26,1.26,0,0,1-.22.24l-.11.12a.52.52,0,0,0-.1.11,8.29,8.29,0,0,0-1,1.85,10.16,10.16,0,0,0-.56,2.17,7.35,7.35,0,0,0,.2,2.91,2.12,2.12,0,0,0,.1.36c0,.12.07.24.11.35l.13.35a.87.87,0,0,1,.07.17l.08.17.14.33.17.33.08.16.09.16.18.31c.3.5.58,1,.89,1.48a8.72,8.72,0,0,0,1.07,1.37l.25.24.13.12.14.11.28.21.29.2c.39.26.8.48,1.2.71a17.52,17.52,0,0,0,1.64.78,14.66,14.66,0,0,0,1.74.55l.22.05.22,0,.46.08.45.07h.23l.24,0a9.84,9.84,0,0,0,1.88,0h.61c.1,0,.21,0,.31,0h.15l.15,0,.31-.07.29-.1.15,0,.14,0c.09,0,.19-.06.28-.09s.4-.09.62-.14h.09l.08,0,.16,0,.18,0,.17,0a6.4,6.4,0,0,0,.68-.27l.17-.08L130,114l.32-.18.09-.06.1-.07.18-.14.18-.15.17-.17c.12-.1.23-.21.34-.32a1.37,1.37,0,0,1,.17-.17l.16-.16.36-.35.35-.36.33-.38c.06-.06.11-.13.16-.19l.16-.2a7.5,7.5,0,0,0,1-1.67c.27-.64.59-1.33.87-2.07a12.79,12.79,0,0,0,.7-2.35l0-.16a1,1,0,0,0,0-.17c0-.11,0-.22,0-.34s0-.23,0-.34v-.34c0-.22,0-.44,0-.66v-.33c0-.12,0-.23,0-.34v-.17c0-.06,0-.11,0-.17s0-.23,0-.35a1.11,1.11,0,0,0,0-.17l0-.17c0-.06,0-.12,0-.18l0-.18a6.44,6.44,0,0,0-.15-.71l-.05-.18c0-.06,0-.13,0-.18s-.09-.25-.13-.37l0-.09,0-.09-.08-.18c-.06-.12-.11-.25-.17-.36l-.2-.36-.23-.36A19.38,19.38,0,0,0,133,96.32l-.11-.12-.13-.12-.26-.21-.14-.09-.13-.1-.26-.21a3,3,0,0,1-.33-.28l-.08-.08-.08-.07-.16-.15-.16-.15-.16-.15-.33-.26a3.4,3.4,0,0,0-.73-.38l-.18-.08-.2-.07-.39-.14-.31-.11-.31-.13-.32-.12-.31-.12c-.22-.07-.43-.15-.65-.2l-.33-.09-.33,0a17.73,17.73,0,0,0-2.39-.15h-.81a7,7,0,0,0-.89.14c-.16,0-.31.11-.47.15s-.38.1-.57.14l-.3,0-.29,0a7.37,7.37,0,0,0-1.15.26l-.36.14-.33.16-.16.09-.15.09-.28.18a2.61,2.61,0,0,0-.27.19l-.27.18a2.48,2.48,0,0,1-.26.19l-.13.09-.13.09-.23.15-.23.15-.22.14-.12.07,0,0-.06,0-.43.32-.42.37-.38.45c-.12.15-.24.31-.35.47l-.33.5c-.1.17-.21.35-.33.52" style="fill:#211d1e;fill-rule:evenodd"/><path d="M89.34,83.76a.83.83,0,0,1,0-.72c.06-.11.13-.22.2-.33l.1-.16a1.29,1.29,0,0,0,.09-.16,2.71,2.71,0,0,0,.14-.43,1.24,1.24,0,0,1,.19-.4.67.67,0,0,1,.2-.16,1.5,1.5,0,0,0,.25-.15,2.5,2.5,0,0,0,.22-.24c.08-.07.15-.15.23-.21a.91.91,0,0,1,.23-.15l.25-.12.25-.11L92,80.3l.36-.26.37-.27a1.18,1.18,0,0,1,.18-.13l.19-.13.19-.13.2-.11a7.26,7.26,0,0,1,1.42-.64l.44-.13.44-.1.43-.11.43-.11a10,10,0,0,1,1.79-.32,8.68,8.68,0,0,1,.9-.06h.91a14.66,14.66,0,0,1,1.91.24,15.16,15.16,0,0,1,2.05.57l.21.07.21.08.41.16a7.33,7.33,0,0,1,.8.38,2.61,2.61,0,0,1,.28.17,1.89,1.89,0,0,1,.27.2l.27.2.25.22.12.11.06,0,.07.06.24.22.13.11.12.11.25.21.25.22.24.22.23.24.23.25.22.25.21.26.21.26.11.13.1.13a7,7,0,0,1,1,1.78,9.63,9.63,0,0,1,.59,2.17c.07.42,0,.84,0,1.26,0,.1,0,.19,0,.29s0,.19,0,.29,0,.19,0,.28v.29a2.81,2.81,0,0,1,0,.29c0,.1,0,.19,0,.29a1.33,1.33,0,0,1,0,.28,2.54,2.54,0,0,1,0,.29,16.24,16.24,0,0,1-.6,2.25,22.21,22.21,0,0,1-.91,2.23l-.16.33c0,.06,0,.12-.07.17l-.09.17-.16.33-.09.17-.09.16a5.79,5.79,0,0,1-.89,1.26c-.13.13-.27.19-.39.33s-.1.26-.2.37a10.13,10.13,0,0,1-1.91,1.64c-.71.48-1.46.91-2.2,1.32a17.81,17.81,0,0,1-4.56.31,14.26,14.26,0,0,1-7.11-2.37A9.36,9.36,0,0,1,89.72,97l-.22-.31-.12-.15-.1-.16-.21-.31c-.07-.11-.13-.22-.2-.32s-.25-.44-.37-.66l0-.08,0-.08-.08-.17-.09-.17-.09-.17a10.55,10.55,0,0,1-.74-2,9.27,9.27,0,0,1-.31-2.11,8.47,8.47,0,0,1,.19-2.18,9.05,9.05,0,0,1,.76-2.13A5.77,5.77,0,0,1,89.74,84a.54.54,0,0,1-.07.65,1.65,1.65,0,0,1-.22.24l-.11.12a.31.31,0,0,0-.09.11,8.24,8.24,0,0,0-1,1.84,10.48,10.48,0,0,0-.56,2.17,7.39,7.39,0,0,0,.2,2.92c0,.12.07.24.1.36s.07.23.12.35l.13.34.06.18.08.16.15.34.16.33.09.16.09.16.18.31c.29.49.57,1,.88,1.48A9.36,9.36,0,0,0,91,97.58l.25.24.14.12.13.11.28.21.29.2c.39.26.8.48,1.2.71a14.53,14.53,0,0,0,1.65.77,12.93,12.93,0,0,0,1.73.56l.22,0,.23,0,.45.08.46.07h.23l.23,0a11.93,11.93,0,0,0,1.89,0l.3,0h.92l.3-.07.29-.1.15,0,.14-.05a1.52,1.52,0,0,1,.28-.09c.2,0,.4-.09.62-.14l.09,0,.08,0,.17,0,.17,0,.17-.05a5.66,5.66,0,0,0,.68-.27l.17-.08a.8.8,0,0,0,.16-.08l.32-.18.1-.06.09-.07.19-.15A1.22,1.22,0,0,0,106,99l.18-.16.33-.33.17-.16.17-.16.36-.35.34-.36.34-.38.15-.19.16-.2a7.56,7.56,0,0,0,1-1.68c.27-.64.59-1.32.88-2.06a13.62,13.62,0,0,0,.7-2.35.88.88,0,0,0,0-.16,1,1,0,0,0,0-.17c0-.11,0-.23,0-.34s0-.23,0-.34V89.3c0-.22,0-.44,0-.66V87.8a.91.91,0,0,0,0-.17c0-.12,0-.23,0-.35a1,1,0,0,0,0-.17l0-.18a1.11,1.11,0,0,0,0-.17,1.13,1.13,0,0,0,0-.18,6,6,0,0,0-.15-.71c0-.06,0-.12-.05-.19a1.21,1.21,0,0,0,0-.18l-.13-.36,0-.09,0-.09-.08-.18c0-.12-.11-.25-.17-.37s-.13-.24-.2-.36l-.23-.35A21.05,21.05,0,0,0,108.1,82l-.12-.13-.13-.11-.26-.21-.14-.1-.13-.09-.26-.21-.33-.29-.08-.07-.08-.08-.16-.15-.15-.15-.17-.14-.33-.26a3.18,3.18,0,0,0-.73-.38l-.18-.08-.19-.07-.39-.14L104,79.2l-.31-.13-.31-.12-.32-.12c-.21-.07-.43-.15-.65-.21l-.32-.08-.34-.06a19.5,19.5,0,0,0-2.39-.14H98.5a7,7,0,0,0-.89.14c-.16,0-.31.11-.46.15s-.39.1-.58.14l-.29,0-.3,0a7.37,7.37,0,0,0-1.15.26l-.36.14-.33.16a.8.8,0,0,1-.16.08,1.1,1.1,0,0,1-.14.09l-.29.19-.27.18-.26.19-.26.19-.14.09-.13.09-.23.15-.22.14-.23.15-.11.07-.06,0,0,0-.44.32a4.72,4.72,0,0,0-.41.37,4.19,4.19,0,0,0-.39.45c-.12.15-.23.31-.35.47s-.21.33-.33.5-.21.34-.33.51" style="fill:#211d1e;fill-rule:evenodd"/><path d="M114.27,139a.83.83,0,0,1,.61.36,2.09,2.09,0,0,1,.22.28,1.71,1.71,0,0,0,.11.14.8.8,0,0,0,.13.13,2.22,2.22,0,0,0,.34.22,1.23,1.23,0,0,1,.34.21.6.6,0,0,1,.11.21,1,1,0,0,0,.11.24,1.34,1.34,0,0,0,.2.21,2,2,0,0,1,.21.2,1.91,1.91,0,0,1,.14.21c0,.07.09.14.13.22s.09.15.13.22a1,1,0,0,0,.16.19,2.06,2.06,0,0,0,.31.28l.36.25.18.11.19.12.19.11.18.11c.42.26.86.48,1.3.72l.39.21.4.19.4.16.42.12a13.45,13.45,0,0,0,1.76.29c.29,0,.58,0,.88,0h.9a10.24,10.24,0,0,0,1.85-.28,9.31,9.31,0,0,0,1.93-.72l.19-.09a1.18,1.18,0,0,0,.19-.11l.36-.22.7-.46a2.26,2.26,0,0,1,.26-.16l.27-.17c.08-.06.18-.11.26-.16l.27-.18.13-.08.06,0,.07,0,.24-.2.13-.1.11-.1.22-.23.21-.24c.06-.08.13-.15.2-.23l.2-.24.2-.25.18-.25a2.4,2.4,0,0,0,.18-.26,2.33,2.33,0,0,0,.17-.26l.08-.13.08-.14c.31-.59.58-1.12.85-1.7a14.73,14.73,0,0,0,.78-1.94,10.08,10.08,0,0,0,.41-1.13c0-.1,0-.19,0-.28l0-.28a2.64,2.64,0,0,0,0-.28v-.28c0-.1,0-.19,0-.28V133c0-.1,0-.19,0-.29a2.72,2.72,0,0,1,0-.28,8.84,8.84,0,0,0-.17-2.33,8,8,0,0,0-.85-2.3l-.2-.33-.11-.16-.11-.15-.22-.3-.12-.15-.12-.14c-.32-.39-.67-.76-1-1.17-.12-.13-.17-.28-.3-.41s-.26-.1-.38-.19a14.28,14.28,0,0,0-2-1.38,7.55,7.55,0,0,0-2.28-.79,8.5,8.5,0,0,0-4.22-1,8.7,8.7,0,0,0-2.26.33,9.6,9.6,0,0,0-2.13.86,9.88,9.88,0,0,0-2.18,1.6,18.91,18.91,0,0,0-1.84,2.07l-.2.28-.1.14-.09.15-.18.29c-.06.1-.11.2-.17.29s-.21.41-.31.62l0,.07,0,.08-.07.16-.06.16-.06.16a14.84,14.84,0,0,0-.49,1.82c-.12.62-.21,1.24-.27,1.88s-.08,1.28-.07,2,.06,1.36.15,2.08.27,1.74.38,2.66a.6.6,0,0,1-.53-.45c0-.12,0-.24-.07-.36a.88.88,0,0,0,0-.17l0-.16a16.36,16.36,0,0,1-.38-2.17,14,14,0,0,1-.06-2.24c0-1,.13-1.9.27-2.86,0-.12,0-.23.06-.35l.06-.36.07-.36a.85.85,0,0,0,0-.17l0-.18.09-.35.1-.36.06-.17.06-.18.12-.34a7,7,0,0,1,.86-1.53c.35-.48.74-.92,1.12-1.37a3,3,0,0,0,.24-.26l.12-.14.12-.13.24-.27.25-.26a9.1,9.1,0,0,1,1.07-1,10.39,10.39,0,0,1,3.51-1.72l.24-.07.24-.06.49-.1.5-.08.13,0H123l.25,0a11.9,11.9,0,0,1,2.07,0l.33,0,.16,0,.16,0,.32.09.08,0,.08,0,.16,0c.11,0,.22,0,.33.06l.33,0,.16,0a.76.76,0,0,1,.16,0,1.58,1.58,0,0,1,.31.09c.2.07.41.17.63.27l.08,0,.09,0,.16.09.17.08.17.09c.22.13.45.25.67.39l.17.09a1,1,0,0,1,.17.1l.33.19.11.06.1.06.22.11.22.11.22.12c.15.08.3.16.44.25l.21.14a1.37,1.37,0,0,1,.21.15l.42.34.41.37.38.39c.07.06.13.14.19.2l.18.21a21.11,21.11,0,0,1,1.32,1.71,6.93,6.93,0,0,1,1,2.3,11.12,11.12,0,0,1,.32,2.69v.18c0,.06,0,.12,0,.18l0,.37c0,.13,0,.25,0,.37a2.26,2.26,0,0,1,0,.37c0,.24-.06.47-.11.71s0,.23-.07.35l-.09.34c0,.06,0,.12,0,.17s0,.12-.05.18-.08.23-.11.34l-.06.17L136,136l-.07.18-.06.17c-.1.23-.18.46-.29.69l-.07.18c0,.06-.05.12-.08.17l-.16.36,0,.09,0,.09-.09.18-.17.36-.19.38-.19.38a8.88,8.88,0,0,1-1.26,1.94l-.11.13a1.34,1.34,0,0,0-.11.14,3,3,0,0,0-.22.28l-.1.13-.12.14a3,3,0,0,1-.24.26c-.11.1-.23.19-.36.29l-.09.06-.1.06-.2.13-.19.11-.2.11-.38.22c-.26.15-.48.32-.72.47l-.17.12-.18.12-.37.23-.32.16-.33.14-.34.12-.34.11c-.23.06-.46.13-.7.18L127,145l-.35.09a8.81,8.81,0,0,1-2.54.28l-.44,0-.21,0-.21,0c-.29,0-.59-.06-1-.1-.18,0-.36,0-.53,0a4.34,4.34,0,0,1-.62-.16l-.3-.12-.29-.14c-.37-.19-.73-.41-1.08-.61l-.36-.19-.33-.18-.16-.08-.16-.09-.31-.16-.3-.17c-.09-.06-.19-.11-.28-.18l-.27-.19-.14-.1-.12-.11-.21-.19-.19-.21-.18-.2-.09-.11,0-.05,0-.06c-.11-.14-.22-.29-.34-.43a4.34,4.34,0,0,0-.34-.44l-.37-.45-.36-.46-.34-.48c-.11-.17-.21-.35-.31-.53" style="fill:#211d1e;fill-rule:evenodd"/><path d="M89.41,153.38a.81.81,0,0,1,.61.36c.08.09.15.19.22.28l.11.14a.8.8,0,0,0,.13.13,1.92,1.92,0,0,0,.35.22,1.12,1.12,0,0,1,.33.22.6.6,0,0,1,.11.21,1.63,1.63,0,0,0,.11.23,1.45,1.45,0,0,0,.21.22,1.8,1.8,0,0,1,.2.19l.14.21.13.22c0,.08.09.15.13.22a.77.77,0,0,0,.16.19,2.7,2.7,0,0,0,.31.28L93,157l.18.11.19.12a1.18,1.18,0,0,1,.19.11l.19.11c.41.27.86.48,1.29.73l.39.2.4.19.4.16a3,3,0,0,0,.43.12,13,13,0,0,0,1.75.29c.29,0,.59,0,.88,0H100l.23,0a10.24,10.24,0,0,0,1.85-.28,9.39,9.39,0,0,0,1.94-.72l.18-.09a1.18,1.18,0,0,0,.19-.11l.36-.21.7-.47.26-.16.27-.17.27-.16.26-.17.13-.09.07,0,.06,0,.25-.19.12-.1.11-.11.22-.23.21-.24c.07-.07.13-.15.2-.23l.2-.24.2-.24.19-.26.18-.25.16-.27.08-.13.08-.14c.31-.59.59-1.12.86-1.7a16.33,16.33,0,0,0,.77-1.94A10.08,10.08,0,0,0,111,149a5077368999156.14,5077368999156.14,0,0,0,.08-.56,2.62,2.62,0,0,0,0-.28v-.28a2.62,2.62,0,0,0,0-.28v-.28a2.72,2.72,0,0,0,0-.28,2.81,2.81,0,0,1,0-.29,9.27,9.27,0,0,0-.16-2.33,8.34,8.34,0,0,0-.86-2.3l-.2-.33a.86.86,0,0,1-.1-.16l-.12-.15-.22-.3-.12-.15-.12-.14c-.32-.39-.66-.76-1-1.17-.12-.13-.17-.28-.29-.41s-.27-.09-.39-.19a13.42,13.42,0,0,0-2-1.37,7.22,7.22,0,0,0-2.28-.8,8.35,8.35,0,0,0-2-.76A9.53,9.53,0,0,0,99,136a9.64,9.64,0,0,0-2.26.33,9.17,9.17,0,0,0-2.13.87,9.84,9.84,0,0,0-2.18,1.59,18.91,18.91,0,0,0-1.84,2.07l-.2.28-.1.14-.09.15-.18.29-.17.3a5.76,5.76,0,0,0-.3.61l0,.07,0,.08-.07.16-.06.16a.75.75,0,0,0-.05.16,13,13,0,0,0-.5,1.83,16.19,16.19,0,0,0-.26,1.87,15.61,15.61,0,0,0-.07,2,19,19,0,0,0,.14,2.08c.1.87.28,1.75.39,2.66a.62.62,0,0,1-.54-.45,2.25,2.25,0,0,1-.06-.36l0-.17,0-.16a16.49,16.49,0,0,1-.38-2.16,14.13,14.13,0,0,1-.06-2.25c0-1,.13-1.9.27-2.86,0-.12,0-.23.06-.35l.06-.36.08-.35,0-.18,0-.18.09-.35.11-.35,0-.18.06-.17.12-.35a7.69,7.69,0,0,1,.86-1.53c.35-.47.74-.92,1.13-1.36l.23-.27.12-.14.12-.13.24-.27.25-.26a8.46,8.46,0,0,1,1.08-1,11.09,11.09,0,0,1,1.65-1,10.84,10.84,0,0,1,1.85-.7l.24-.06a2.1,2.1,0,0,1,.24-.06l.5-.11.5-.08.12,0h.13l.25,0a11.9,11.9,0,0,1,2.07,0,1.88,1.88,0,0,1,.33.05l.16,0,.16.05.32.09.08,0,.08,0,.16,0,.33.06.33.05.16,0,.16,0a1.58,1.58,0,0,1,.31.09,6.79,6.79,0,0,1,.63.28l.09,0a.2.2,0,0,0,.08,0l.16.09.17.09a.91.91,0,0,1,.17.09c.22.12.45.24.68.38l.16.09a1,1,0,0,1,.17.1l.33.19.11.06.11.06.21.11.22.12.22.11c.15.08.3.16.44.25l.21.14a1.13,1.13,0,0,1,.21.15l.43.34.4.37.39.39.18.2.18.21c.48.55.91,1.13,1.33,1.71a6.92,6.92,0,0,1,1,2.3,11.12,11.12,0,0,1,.32,2.69v.18a1.09,1.09,0,0,1,0,.18l0,.37c0,.13,0,.25,0,.38a1.54,1.54,0,0,1,0,.37c0,.23-.06.47-.11.7s0,.23-.07.35l-.09.34c0,.06,0,.12,0,.18a1.54,1.54,0,0,1,0,.17c0,.11-.07.23-.11.34l-.06.17-.06.18-.06.17c0,.06,0,.11-.07.17-.09.23-.18.46-.29.69l-.07.18a1.42,1.42,0,0,1-.08.18c0,.11-.11.23-.16.35a.36.36,0,0,1,0,.09l0,.09-.09.18c-.06.12-.11.24-.17.37l-.18.37-.2.38a8.65,8.65,0,0,1-1.26,1.94l-.11.13-.11.14-.21.28a1.34,1.34,0,0,0-.11.14l-.12.13a2,2,0,0,1-.24.26c-.11.1-.23.19-.36.29l-.09.06-.1.07-.19.12-.2.11-.2.11-.38.23c-.26.14-.48.31-.72.46l-.17.12-.18.12-.37.23-.32.16-.32.14-.34.12-.35.11c-.23.06-.46.13-.7.18l-.34.09-.35.08a8.91,8.91,0,0,1-2.55.28l-.44,0h-.21l-.21,0c-.29,0-.59-.06-1-.1-.18,0-.35,0-.53,0a4.34,4.34,0,0,1-.62-.16l-.3-.12-.29-.14c-.37-.19-.73-.41-1.08-.61l-.35-.19-.34-.17L93.8,158l-.16-.08-.31-.17-.29-.17-.29-.17-.27-.2-.13-.1a.69.69,0,0,1-.13-.11l-.2-.19-.2-.2-.18-.21-.08-.11,0-.05,0,0-.33-.44c-.11-.15-.22-.29-.34-.43s-.25-.31-.37-.46-.25-.3-.37-.46-.23-.31-.34-.48-.21-.34-.31-.53" style="fill:#211d1e;fill-rule:evenodd"/><rect x="62.02" y="181.94" width="127.56" height="127.56" style="fill:#00b946"/><path d="M112.66,245.12c0-.05,0-.1,0-.15l0-.3s0-.1,0-.15l0-.14c0-.1,0-.2,0-.3l0-.14,0-.15-.07-.28,0-.15,0-.14-.08-.28a.57.57,0,0,0,0-.14l0-.14c0-.1,0-.19-.07-.29a.57.57,0,0,1,0-.14l0-.14a2.86,2.86,0,0,1-.07-.28,6.74,6.74,0,0,0-.94-2.12.25.25,0,0,0-.27-.1h0a.35.35,0,0,0,.17-.38,2.75,2.75,0,0,0-.2-.57,3.4,3.4,0,0,0-.31-.52,4.84,4.84,0,0,0-.81-.88c-.3-.27-.61-.5-.92-.75l-.24-.18-.11-.09-.12-.09-.23-.18-.12-.09-.12-.09c-.32-.22-.66-.44-1-.63s-.69-.36-1-.52a12.93,12.93,0,0,0-2.18-.8l-.57-.12c-.19,0-.38-.07-.58-.09l-.58-.08a5.61,5.61,0,0,0-.59-.06,15.09,15.09,0,0,0-2.33,0,7.74,7.74,0,0,0-2.31.52,8.37,8.37,0,0,0-2.07,1.15c-.61.47-1.22.92-1.85,1.38l-.46.36-.45.38-.41.42-.38.45a10.12,10.12,0,0,0-1.18,2,16.5,16.5,0,0,0-.84,2.19,11.41,11.41,0,0,0-.42,2.32l0,.3a1.41,1.41,0,0,0,0,.29v.89c0,.1,0,.2,0,.3l0,.29a2.83,2.83,0,0,0,0,.29,9.15,9.15,0,0,0,.6,2.27,18.27,18.27,0,0,0,1,2.15c.1.17.2.34.29.52s.21.34.32.5.24.33.37.48.27.29.4.43a18.18,18.18,0,0,0,1.76,1.51,14.57,14.57,0,0,0,2,1.24,12.29,12.29,0,0,0,2.19.82l.56.17.56.14.58.12.58.08.59.06.6,0,.59,0a3.75,3.75,0,0,0,.58-.13l.57-.16c.19-.06.38-.1.57-.14l.55-.16.56-.16a13.86,13.86,0,0,0,2.15-.88,9.53,9.53,0,0,0,2-1.3c.16-.12.3-.25.45-.38l.11-.1.06,0,0-.05.21-.21.1-.1.11-.11.2-.21.1-.11a.52.52,0,0,0,.1-.11l.19-.22a8.75,8.75,0,0,0,1.27-2,11.35,11.35,0,0,0,.69-2.24l0-.14,0-.14c0-.1,0-.19.07-.29l0-.14,0-.14.06-.28c.09-.38.18-.76.24-1.15a6.45,6.45,0,0,0,.12-1.17v-.14" style="fill:#3a79bd"/><path d="M113.36,231.8c0,.1,0,.2,0,.3l0,.29c0,.1,0,.2,0,.3A9.39,9.39,0,0,0,114,235a16.66,16.66,0,0,0,1,2.14l.29.52c.1.17.21.34.32.51s.24.32.37.48.27.29.4.43a18.08,18.08,0,0,0,1.76,1.5,13.65,13.65,0,0,0,2,1.24,12.53,12.53,0,0,0,2.18.83l.56.16.57.15.58.11.58.09.59,0c.2,0,.4,0,.6,0s.39,0,.59,0A5.41,5.41,0,0,0,127,243l.57-.17.57-.14.55-.16.56-.16a13.82,13.82,0,0,0,2.15-.87,9.58,9.58,0,0,0,2-1.31c.16-.12.3-.25.45-.38l.11-.1.05-.05.06-.05.21-.21.1-.1.11-.1.2-.22.1-.11a.52.52,0,0,0,.1-.11l.19-.22a8.91,8.91,0,0,0,1.27-2,11.65,11.65,0,0,0,.69-2.25l0-.14,0-.14a2.29,2.29,0,0,1,.07-.28l0-.14,0-.15.06-.28q.14-.57.24-1.14a7.48,7.48,0,0,0,.12-1.17v-.15s0-.1,0-.15l0-.3,0-.14,0-.15c0-.1,0-.2-.05-.29l0-.15,0-.14-.07-.29,0-.14,0-.14-.08-.29s0-.09,0-.14l0-.14A2.86,2.86,0,0,1,137,228a1,1,0,0,1,0-.14l0-.15a2.86,2.86,0,0,1-.07-.28,6.74,6.74,0,0,0-.94-2.12.27.27,0,0,0-.27-.1h0a.34.34,0,0,0,.17-.37,2.84,2.84,0,0,0-.2-.58,3.4,3.4,0,0,0-.31-.52,6.13,6.13,0,0,0-.81-.88c-.3-.26-.62-.5-.92-.74l-.24-.18-.11-.1-.12-.09-.23-.18-.12-.09-.12-.08c-.32-.23-.66-.44-1-.64s-.7-.36-1-.52a13.86,13.86,0,0,0-2.18-.8l-.57-.12-.58-.09-.58-.08c-.2,0-.39,0-.59-.06a15.09,15.09,0,0,0-2.33,0,8.06,8.06,0,0,0-2.31.52,8.71,8.71,0,0,0-2.07,1.15c-.61.48-1.23.92-1.86,1.38l-.46.36-.44.39-.41.41c-.13.15-.26.3-.38.46a9.85,9.85,0,0,0-1.18,2,17,17,0,0,0-.84,2.19,11.43,11.43,0,0,0-.43,2.32v.3c0,.1,0,.2,0,.3v.88Z" style="fill:#58c9eb"/><path d="M137.62,260c0-.1,0-.2,0-.3v-.15a.77.77,0,0,0,0-.15q-.07-.59-.21-1.17l-.06-.28a.83.83,0,0,0,0-.15l0-.14c0-.19-.09-.39-.15-.58a13.25,13.25,0,0,0-.8-2.21,9.91,9.91,0,0,0-1.26-2,12.05,12.05,0,0,0-1.67-1.68,15,15,0,0,0-1.91-1.36,9.8,9.8,0,0,0-2.17-1l-.57-.16-.58-.13-.58-.11a5.43,5.43,0,0,1-.58-.13c-.2,0-.39-.07-.59-.09a5.68,5.68,0,0,0-.59,0l-.59,0-.59,0-.58.08-.58.11-.58.13-.57.16a17.63,17.63,0,0,0-2.21.79,10.06,10.06,0,0,0-2.09,1.12,7.5,7.5,0,0,0-1.74,1.68l-.17.25a2.13,2.13,0,0,0-.16.25l-.15.25-.07.13,0,.06,0,.06c-.09.17-.19.34-.28.52s-.17.34-.27.51c-.37.69-.75,1.35-1.11,2.06a7.14,7.14,0,0,0-.67,2.31l0,.3v.3c0,.1,0,.2,0,.3v.3a2.71,2.71,0,0,0,0,.29v.3c0,.1,0,.2,0,.3l0,.29a14.68,14.68,0,0,0,1.23,4.55c.08.18.16.36.25.54l.27.53c.1.17.2.34.31.51l.33.49c.12.16.25.31.37.46s.27.3.41.44l.45.4.46.37a19.23,19.23,0,0,0,2,1.31,16.27,16.27,0,0,0,2.1,1,11.47,11.47,0,0,0,2.25.68,9.06,9.06,0,0,0,2.38.11c.2,0,.39,0,.59,0s.39-.05.59-.06l.59-.08a3.84,3.84,0,0,0,.59-.11,9.46,9.46,0,0,0,2.24-.84,17.78,17.78,0,0,0,2-1.3l.12-.09.11-.09.23-.18.12-.09.11-.09.24-.19.12-.09.11-.09.23-.19.12-.1.11-.1.23-.2a5.6,5.6,0,0,0,.78-.9l.08-.12.07-.13c0-.09.1-.18.14-.27a2.58,2.58,0,0,0,.21-.57h0a.35.35,0,0,0-.09-.3l-.07-.05h0v0l0,.05a.26.26,0,0,0,.37-.06h0a5.07,5.07,0,0,0,.84-2.2c0-.1,0-.2.05-.29l0-.14,0-.15.06-.28,0-.14c0-.05,0-.1,0-.14a2.29,2.29,0,0,1,.07-.28l0-.15,0-.14.07-.28.06-.29.06-.29a2.74,2.74,0,0,0,.05-.28c0-.1,0-.2.05-.3a2.58,2.58,0,0,0,0-.29c0-.1,0-.19,0-.29s0-.2,0-.3" style="fill:#58c9eb"/><path d="M138.34,218.77c0,.2.09.39.14.58l.19.57.21.56a22,22,0,0,0,1.05,2.12,19.26,19.26,0,0,0,1.31,1.93,11.75,11.75,0,0,0,1.6,1.71,10,10,0,0,0,2,1.29l.54.25c.17.09.36.16.54.25l.55.23a5.31,5.31,0,0,0,.56.2,9.46,9.46,0,0,0,2.37.38,16.58,16.58,0,0,0,2.35-.13l.15,0,.15,0,.29,0,.14,0,.15,0,.3,0,.14,0,.15,0,.3-.05.14,0,.15,0,.3-.06a5.53,5.53,0,0,0,1.12-.4l.14-.06.13-.07.25-.16a2.49,2.49,0,0,0,.46-.4h0a.31.31,0,0,0,.08-.31.2.2,0,0,0,0-.08h0a.14.14,0,0,0,0,.06.25.25,0,0,0,.34.14h0a5.22,5.22,0,0,0,1.84-1.49l.18-.23.1-.1.09-.11.2-.22.1-.11.1-.1.2-.21.1-.1.11-.11.2-.21c.06-.07.13-.14.19-.22l.19-.22a2.09,2.09,0,0,0,.2-.22l.18-.23a1.37,1.37,0,0,0,.18-.24l.15-.25a1.28,1.28,0,0,0,.15-.25l.14-.27.06-.13.06-.14a11.5,11.5,0,0,0,.4-1.12l.09-.29s0-.09,0-.14l0-.14a5.32,5.32,0,0,0,.16-.57,13.14,13.14,0,0,0,.42-2.32,9.83,9.83,0,0,0-.1-2.36,12.06,12.06,0,0,0-.6-2.29,16.49,16.49,0,0,0-1-2.14,9.78,9.78,0,0,0-1.4-1.91l-.42-.43-.43-.41c-.15-.12-.31-.25-.45-.38l-.44-.4c-.15-.13-.3-.26-.46-.38l-.49-.32-.53-.27-.53-.25-.55-.23-.56-.19-.56-.17c-.19-.05-.38-.11-.57-.15a16.46,16.46,0,0,0-2.31-.42,9.94,9.94,0,0,0-2.38-.08,7.58,7.58,0,0,0-2.34.58l-.28.13-.26.14-.25.14-.13.08-.06,0-.06,0-.5.31-.49.31c-.66.41-1.32.8-2,1.23a6.83,6.83,0,0,0-1.73,1.66,2.27,2.27,0,0,0-.18.25l-.16.25c-.06.08-.11.17-.16.25l-.15.27c-.05.08-.09.17-.14.26l-.14.26c0,.09-.08.18-.13.27l-.12.27a15,15,0,0,0-.78,2.22,15.18,15.18,0,0,0-.43,2.33c0,.2,0,.39-.05.59l0,.59c0,.2,0,.4,0,.6s0,.39,0,.59.05.39.08.59" style="fill:#60c1a0"/><path d="M162.55,274.09c0-.2,0-.4-.05-.59s0-.39-.06-.59,0-.4-.07-.6-.07-.39-.11-.58a8.92,8.92,0,0,0-.85-2.24,16,16,0,0,0-1.29-2l-.09-.12-.09-.11-.18-.24-.09-.11-.1-.12-.18-.23-.09-.12-.1-.11-.18-.24-.1-.11-.1-.12-.2-.22a6.62,6.62,0,0,0-.9-.78l-.13-.08-.13-.08-.26-.14a2.75,2.75,0,0,0-.57-.2h0a.34.34,0,0,0-.3.09l-.06.07h0l0,0a.26.26,0,0,0,0-.37h0a5.19,5.19,0,0,0-2.21-.84l-.28,0-.15,0-.14,0-.28-.06-.14,0-.15,0-.28-.07-.14,0-.14,0-.29-.06-.28-.06-.29-.06-.29-.06-.29,0a1.43,1.43,0,0,0-.29,0h-1l-.15,0c-.39.06-.78.13-1.17.22l-.29.06-.14,0-.15,0c-.19.05-.38.08-.57.14a14.36,14.36,0,0,0-2.22.81,9.42,9.42,0,0,0-2,1.26,12.55,12.55,0,0,0-1.68,1.66,16,16,0,0,0-1.37,1.92,9.37,9.37,0,0,0-1,2.17c-.05.19-.11.38-.16.57s-.09.38-.14.58-.06.39-.11.58-.08.39-.12.58-.07.39-.1.58l0,.59c0,.2,0,.4,0,.59l.06.59c0,.2.05.4.08.59s.07.39.1.58.09.38.14.57.1.38.16.57a18.05,18.05,0,0,0,.78,2.21,10.4,10.4,0,0,0,1.13,2.1,7.7,7.7,0,0,0,1.68,1.74l.24.17.25.16.26.15.12.07.06,0,.07,0,.51.27c.18.09.35.18.51.28.7.36,1.36.75,2.07,1.1a6.93,6.93,0,0,0,2.3.68l.3,0,.3,0h.9l.3,0,.29,0,.3,0a14,14,0,0,0,2.32-.44,15.17,15.17,0,0,0,2.23-.79l.54-.25.52-.28.51-.3.49-.34c.16-.12.32-.24.47-.37l.44-.4.4-.45.37-.47a19.66,19.66,0,0,0,1.31-2,20.33,20.33,0,0,0,1-2.1,11.47,11.47,0,0,0,.68-2.25,10,10,0,0,0,.11-2.38" style="fill:#60c1a0"/><path d="M108.43,239.84a.8.8,0,0,1-.61-.35c-.08-.09-.15-.19-.23-.29l-.11-.14-.12-.12a2.07,2.07,0,0,0-.35-.22,1.42,1.42,0,0,1-.34-.22.82.82,0,0,1-.11-.21,1,1,0,0,0-.11-.24,1.34,1.34,0,0,0-.2-.21,2,2,0,0,1-.21-.2,1.91,1.91,0,0,1-.14-.21l-.13-.22c0-.08-.09-.15-.13-.22a1,1,0,0,0-.16-.19,2.06,2.06,0,0,0-.31-.28l-.36-.25-.19-.12-.18-.11-.19-.11-.19-.11c-.41-.27-.86-.48-1.3-.73l-.39-.21-.4-.18a2,2,0,0,0-.4-.16,3.38,3.38,0,0,0-.42-.13,13.73,13.73,0,0,0-1.76-.29c-.29,0-.59,0-.89-.05h-.89a11.16,11.16,0,0,0-1.86.28,10.43,10.43,0,0,0-1.94.72l-.19.1-.19.1-.36.22-.7.46-.26.17-.27.17-.27.16-.26.17-.13.09-.07,0-.06,0-.25.19-.12.11-.12.1-.22.23-.2.24-.21.23-.2.25-.2.24-.18.25c-.06.09-.13.17-.18.26l-.17.26a1,1,0,0,0-.08.14l-.08.14c-.31.59-.59,1.12-.86,1.7a15.31,15.31,0,0,0-.78,1.94,11,11,0,0,0-.4,1.14,1.37,1.37,0,0,0,0,.28l0,.28c0,.09,0,.19,0,.28v.56c0,.1,0,.19,0,.29v.28c0,.09,0,.19,0,.28a9.22,9.22,0,0,0,.17,2.33,7.7,7.7,0,0,0,.86,2.31,3.62,3.62,0,0,0,.2.33c0,.06.07.11.1.16a.91.91,0,0,1,.11.16l.23.3.12.14.12.15c.32.39.67.76,1,1.17.12.13.17.28.3.41s.27.1.38.19a13.08,13.08,0,0,0,2,1.38,7.28,7.28,0,0,0,2.29.8,7.79,7.79,0,0,0,2,.75,9.05,9.05,0,0,0,2.22.24,9.47,9.47,0,0,0,4.39-1.2,9.94,9.94,0,0,0,2.19-1.6,17,17,0,0,0,1.84-2.07l.2-.28.1-.15.1-.14.18-.29.17-.3c.11-.2.21-.41.3-.61l0-.08,0-.08.06-.16.07-.16a.75.75,0,0,0,0-.16,13,13,0,0,0,.5-1.83,16.82,16.82,0,0,0,.26-1.87,15.84,15.84,0,0,0,.07-2,19.3,19.3,0,0,0-.14-2.09c-.1-.86-.28-1.75-.39-2.67a.62.62,0,0,1,.54.46c0,.12,0,.24.07.36a.88.88,0,0,0,0,.17l0,.16a16.36,16.36,0,0,1,.38,2.17,14.13,14.13,0,0,1,.06,2.25c0,1-.13,1.91-.27,2.86,0,.12,0,.24-.06.36l-.06.36-.07.35a1.16,1.16,0,0,0,0,.18l0,.18-.09.36-.11.35,0,.17-.06.18-.12.35a7.69,7.69,0,0,1-.86,1.53c-.35.47-.74.92-1.13,1.37l-.24.26-.12.14-.12.13-.24.27-.25.27a9.18,9.18,0,0,1-1.08,1,10.17,10.17,0,0,1-3.51,1.73l-.24.07-.24.06-.5.1-.5.08-.12,0h-.13l-.25,0a12,12,0,0,1-2.08,0l-.33,0-.16,0-.16-.05-.32-.09-.08,0-.08,0-.16,0c-.11,0-.22,0-.33-.06l-.33,0-.17,0-.16,0a1.81,1.81,0,0,1-.31-.09c-.2-.07-.41-.18-.63-.28l-.08,0-.08-.05-.17-.08-.17-.09-.17-.09c-.22-.12-.45-.24-.68-.38l-.16-.1-.17-.09L92.1,256,92,256l-.11-.06-.22-.12-.22-.11-.22-.12-.44-.25-.21-.13-.21-.15-.42-.35-.41-.37-.38-.39c-.07-.06-.13-.14-.19-.2l-.18-.21c-.48-.55-.91-1.14-1.33-1.71a7,7,0,0,1-1-2.31,10.67,10.67,0,0,1-.32-2.7c0-.06,0-.12,0-.18a1.09,1.09,0,0,0,0-.18c0-.12,0-.25,0-.37s0-.25,0-.37,0-.25,0-.37.06-.48.11-.71,0-.23.07-.35a3.58,3.58,0,0,0,.09-.35.84.84,0,0,0,.05-.17l.06-.17c0-.12.07-.23.11-.35a.58.58,0,0,1,.06-.17l.06-.17.06-.17a1.34,1.34,0,0,1,.07-.18c.09-.23.18-.46.28-.69l.08-.18c0-.06,0-.12.07-.17l.17-.36a829950867203.82,829950867203.82,0,0,0,.08-.18l.09-.18c0-.12.11-.25.17-.37l.18-.37.2-.39a8.6,8.6,0,0,1,1.26-1.93,1.71,1.71,0,0,1,.11-.14.76.76,0,0,0,.11-.14,3,3,0,0,0,.22-.28l.11-.13.11-.14a3,3,0,0,1,.24-.26l.36-.29.1-.07.09-.06.2-.12.2-.12.2-.11c.13-.07.26-.14.38-.22s.48-.31.72-.47l.17-.12.18-.12.37-.23.32-.16.33-.14.34-.12.34-.11.7-.18.35-.08.35-.08a8.58,8.58,0,0,1,2.55-.29l.44,0,.21,0,.22,0c.28,0,.59.06,1,.11l.53,0a4.85,4.85,0,0,1,.63.16l.29.12.29.14c.38.19.73.41,1.09.61l.35.19.34.18.16.08.16.09.31.16.29.18.29.17.27.2.14.1.12.11.21.19.19.2.18.21.09.11,0,.05,0,.06.34.43.34.44.37.45c.12.15.24.31.37.46s.23.32.34.49.21.34.31.52" style="fill:#211d1e;fill-rule:evenodd"/><path d="M133.35,225.46a.83.83,0,0,1-.62-.36c-.07-.09-.14-.19-.22-.28l-.11-.15-.12-.12a3,3,0,0,0-.35-.22,1.05,1.05,0,0,1-.34-.22.82.82,0,0,1-.11-.21.82.82,0,0,0-.11-.23,1.42,1.42,0,0,0-.2-.22,1.34,1.34,0,0,1-.21-.2c-.05-.06-.09-.13-.14-.2l-.13-.23-.13-.22a1.46,1.46,0,0,0-.16-.19l-.31-.28-.36-.25a1.18,1.18,0,0,0-.19-.11l-.18-.12a1.18,1.18,0,0,1-.19-.11l-.19-.11c-.41-.27-.86-.48-1.3-.73l-.39-.2-.4-.19-.4-.16a2.11,2.11,0,0,0-.43-.12,10.65,10.65,0,0,0-1.75-.29c-.3,0-.59,0-.89-.06h-.9a10.52,10.52,0,0,0-1.86.29,9.31,9.31,0,0,0-1.93.72l-.19.09a1.18,1.18,0,0,0-.19.11l-.36.22-.7.46-.27.16-.26.17-.27.16-.26.18-.13.08-.07,0-.06,0-.25.2-.12.1-.12.11-.22.22-.2.24-.21.24c-.07.07-.13.16-.2.24l-.2.24-.18.26a2.35,2.35,0,0,0-.19.25l-.16.27-.09.13-.07.14c-.31.59-.59,1.12-.86,1.7a15.49,15.49,0,0,0-.78,1.95,10,10,0,0,0-.4,1.13,1.51,1.51,0,0,0,0,.28l0,.28c0,.1,0,.19,0,.28V231a2.81,2.81,0,0,0,0,.29c0,.09,0,.18,0,.28v.28c0,.09,0,.19,0,.28a9.33,9.33,0,0,0,.17,2.34,7.8,7.8,0,0,0,.86,2.31,3.45,3.45,0,0,0,.2.32c0,.06.07.11.1.16l.11.16.23.3.12.15.12.14c.32.39.67.76,1,1.17.12.14.17.28.3.42s.27.09.38.18a13.08,13.08,0,0,0,2,1.38,7.31,7.31,0,0,0,2.28.8,8.43,8.43,0,0,0,2,.76,8.59,8.59,0,0,0,2.22.23,8.76,8.76,0,0,0,2.26-.33,9.6,9.6,0,0,0,2.13-.86,10.27,10.27,0,0,0,2.19-1.6,20,20,0,0,0,1.84-2.08l.2-.28.1-.14.09-.15.19-.29.17-.3c.11-.2.2-.4.3-.61l0-.08,0-.08.06-.15.07-.16a1.42,1.42,0,0,0,.05-.16,13.56,13.56,0,0,0,.5-1.84,16.5,16.5,0,0,0,.26-1.87,15.84,15.84,0,0,0,.07-2,19.3,19.3,0,0,0-.14-2.09c-.1-.86-.28-1.74-.39-2.66a.62.62,0,0,1,.54.45,2.25,2.25,0,0,1,.06.36l0,.17,0,.16a16.65,16.65,0,0,1,.38,2.17,14.23,14.23,0,0,1,.06,2.26c-.05.95-.13,1.9-.27,2.86,0,.12,0,.23-.06.35l-.06.36-.08.36,0,.18-.05.17-.09.36-.11.35L134,236l-.06.17-.12.35A7.69,7.69,0,0,1,133,238c-.35.48-.74.92-1.13,1.37l-.24.27-.12.13-.12.14a3.27,3.27,0,0,0-.24.27l-.25.26a8.46,8.46,0,0,1-1.08,1,11.19,11.19,0,0,1-1.66,1,10.84,10.84,0,0,1-1.85.7l-.24.07-.24.06-.5.1-.5.08-.12,0-.13,0-.26,0a14.26,14.26,0,0,1-2.07,0l-.33-.05-.16,0-.17,0a3,3,0,0,0-.32-.09l-.08,0-.08,0-.15,0-.33-.05-.34-.05-.16,0a.45.45,0,0,1-.16,0,1.58,1.58,0,0,1-.31-.09c-.2-.07-.41-.17-.63-.27l-.08,0-.09,0-.16-.09-.17-.08-.17-.09-.68-.39-.17-.09-.16-.1-.34-.19-.1-.06-.11-.06-.22-.11-.22-.12-.22-.12a3.75,3.75,0,0,1-.44-.24l-.21-.14-.21-.15-.42-.34-.41-.37-.39-.4-.18-.2-.18-.2c-.48-.56-.91-1.14-1.33-1.72a6.92,6.92,0,0,1-1-2.3,10.78,10.78,0,0,1-.32-2.7c0-.06,0-.12,0-.18a1.15,1.15,0,0,0,0-.19l0-.37c0-.12,0-.25,0-.37a2.26,2.26,0,0,1,0-.37c0-.24.06-.47.11-.71s0-.23.07-.34l.09-.35a1.21,1.21,0,0,0,.05-.18.84.84,0,0,0,0-.17c0-.11.08-.23.11-.34l.06-.18a.87.87,0,0,0,.07-.17l.06-.17.06-.17c.1-.23.19-.47.29-.7,0-.06.05-.12.08-.17a1.34,1.34,0,0,1,.07-.18c.06-.12.11-.24.16-.36l0-.09a.36.36,0,0,1,0-.09,1.42,1.42,0,0,0,.08-.18l.18-.36.18-.38.19-.38a8.49,8.49,0,0,1,1.27-1.94l.11-.14.11-.13c.08-.09.15-.19.22-.28a.76.76,0,0,1,.11-.14l.11-.14a2.83,2.83,0,0,1,.24-.25,3.26,3.26,0,0,1,.36-.29l.09-.07.1-.06.2-.13.2-.11.19-.11.39-.22c.26-.15.48-.32.71-.47l.18-.12.18-.12c.12-.08.24-.16.37-.23l.32-.16.33-.15.34-.11.34-.11.7-.18.35-.09.35-.08a8.92,8.92,0,0,1,2.55-.29l.44,0,.21,0,.22,0,1,.11.53,0a4.37,4.37,0,0,1,.62.17l.3.12.29.13c.38.2.73.42,1.09.61a3,3,0,0,0,.35.19l.33.18.17.09.16.08.31.17.29.17.29.17.27.2.13.1a.69.69,0,0,1,.13.11l.21.2.19.2.18.21.09.1,0,0,0,.06c.11.14.22.29.34.43s.22.3.34.44.24.31.37.45l.36.46c.12.16.24.32.35.49s.21.34.31.53" style="fill:#211d1e;fill-rule:evenodd"/><path d="M158.26,211.07a.85.85,0,0,1-.61-.35l-.22-.29a.76.76,0,0,0-.11-.14l-.12-.13a3,3,0,0,0-.35-.22,1.05,1.05,0,0,1-.34-.22.6.6,0,0,1-.11-.21,1,1,0,0,0-.11-.23,2.09,2.09,0,0,0-.2-.22,1.29,1.29,0,0,1-.21-.19l-.14-.21-.13-.22-.13-.23a1.46,1.46,0,0,0-.16-.19l-.31-.28-.36-.24a1.22,1.22,0,0,0-.19-.12l-.19-.11-.18-.12a1.18,1.18,0,0,1-.19-.11c-.41-.26-.86-.48-1.3-.72l-.39-.21-.4-.19-.4-.16a3,3,0,0,0-.43-.12,13.3,13.3,0,0,0-1.75-.29c-.3,0-.59,0-.89,0h-.67l-.23,0a10.48,10.48,0,0,0-1.86.28,9.31,9.31,0,0,0-1.93.72l-.19.09-.19.11-.36.22-.7.46-.27.17-.26.16-.27.17-.26.17L141,208l-.06,0-.06.05-.25.19-.13.1-.11.11a2.39,2.39,0,0,0-.22.23l-.21.23-.2.24-.2.24-.2.24-.19.26-.18.26-.16.26-.09.13-.07.14c-.31.59-.59,1.13-.86,1.7a15.49,15.49,0,0,0-.78,2c-.12.37-.32.74-.41,1.14a2.51,2.51,0,0,0,0,.27l0,.29c0,.09,0,.18,0,.28v.28a7.85,7.85,0,0,1,0,.56c0,.1,0,.19,0,.28a2.81,2.81,0,0,1,0,.29,8.84,8.84,0,0,0,.17,2.33,7.7,7.7,0,0,0,.86,2.31c.06.11.13.22.2.33s.07.1.1.16l.11.15.23.3.12.15.12.15c.32.39.66.75,1,1.16.12.14.17.29.3.42s.26.09.38.19a13.82,13.82,0,0,0,2,1.38,7.28,7.28,0,0,0,2.28.79,8.51,8.51,0,0,0,2,.76,8.71,8.71,0,0,0,2.23.23,9.2,9.2,0,0,0,2.26-.32,9.63,9.63,0,0,0,2.13-.87,9.94,9.94,0,0,0,2.19-1.6,19,19,0,0,0,1.84-2.08l.2-.28.1-.14.09-.15.19-.29.16-.3a5.81,5.81,0,0,0,.31-.61l0-.07,0-.08.06-.16.06-.16a.76.76,0,0,0,.06-.16,13.38,13.38,0,0,0,.49-1.83,14.67,14.67,0,0,0,.27-1.88,15.61,15.61,0,0,0,.07-2,19.47,19.47,0,0,0-.14-2.1c-.11-.86-.28-1.74-.39-2.66a.62.62,0,0,1,.54.46,2.14,2.14,0,0,1,.06.35l0,.18,0,.15a18.69,18.69,0,0,1,.38,2.18,14.07,14.07,0,0,1,.06,2.25c0,1-.13,1.91-.27,2.86,0,.12,0,.24-.06.36l-.06.35-.08.36a1.16,1.16,0,0,1,0,.18l0,.18-.09.35-.11.35,0,.18-.06.17-.13.35a6.4,6.4,0,0,1-.86,1.53c-.34.48-.73.92-1.12,1.37l-.24.27-.12.14-.12.13-.24.27-.25.26a8.46,8.46,0,0,1-1.08,1,10.41,10.41,0,0,1-1.66,1,11.78,11.78,0,0,1-1.85.71l-.24.06a1.83,1.83,0,0,1-.25.06l-.49.11-.5.08-.13,0h-.12l-.26,0a11.9,11.9,0,0,1-2.07,0l-.33-.05-.16,0-.17-.05-.32-.09-.08,0-.08,0-.15,0-.34,0-.33-.05-.16,0-.16,0-.31-.09-.63-.28a.2.2,0,0,1-.08,0l-.09,0-.16-.08-.17-.09-.17-.09-.68-.38-.17-.1-.16-.1-.34-.19-.1-.05-.11-.06-.22-.12-.22-.11-.22-.12c-.15-.08-.3-.16-.44-.25l-.21-.14-.21-.15-.43-.34-.4-.37-.39-.39-.18-.21-.18-.2c-.48-.56-.91-1.14-1.33-1.72a6.93,6.93,0,0,1-1-2.3,11.14,11.14,0,0,1-.32-2.7v-.18c0-.06,0-.12,0-.18l0-.37c0-.13,0-.25,0-.38a2.29,2.29,0,0,1,0-.37c0-.23.06-.47.11-.7s.05-.24.07-.35l.09-.35.05-.17c0-.06,0-.12,0-.17s.08-.23.11-.35l.06-.17a.87.87,0,0,1,.07-.17l.06-.18.06-.17c.1-.23.18-.46.29-.7,0-.05.05-.11.08-.17a1.34,1.34,0,0,1,.07-.18c.06-.12.11-.23.16-.35a.36.36,0,0,0,0-.09l.05-.09.08-.18c.06-.12.11-.25.18-.37l.18-.38.19-.38a9,9,0,0,1,1.27-1.94l.11-.13.11-.14c.07-.09.14-.19.22-.28l.1-.14.12-.13a3,3,0,0,1,.24-.26,3.51,3.51,0,0,1,.36-.29l.09-.07.1-.06.2-.12.19-.12.2-.11.39-.22a7.28,7.28,0,0,0,.71-.47l.18-.12.18-.12.37-.23.32-.16a2.52,2.52,0,0,1,.33-.14l.34-.12.34-.11c.23-.06.46-.13.7-.18l.35-.09.35-.08a9.29,9.29,0,0,1,2.55-.29l.44,0H149l.21,0,1,.1c.18,0,.35,0,.53,0a4.34,4.34,0,0,1,.62.16l.3.12.29.14c.37.19.73.41,1.09.61a3.9,3.9,0,0,0,.35.19l.33.18.17.08.15.09.31.16c.11.05.2.12.3.17l.29.18.27.19.13.1.13.11.21.2.19.2.18.21.08.1,0,.06,0,.05.34.44c.1.14.22.29.34.43s.24.31.37.46l.36.46.35.48c.1.17.21.35.3.53" style="fill:#211d1e;fill-rule:evenodd"/><path d="M133.42,266.47a.82.82,0,0,1,0,.72,3.79,3.79,0,0,1-.2.34,1.4,1.4,0,0,0-.1.16.89.89,0,0,0-.09.16,2.72,2.72,0,0,0-.15.43,1.22,1.22,0,0,1-.18.4.58.58,0,0,1-.21.16c-.08.05-.17.09-.25.15a2.5,2.5,0,0,0-.22.24,1.52,1.52,0,0,1-.22.22l-.23.15-.26.11-.25.12a2.53,2.53,0,0,0-.23.12l-.36.25-.36.28-.19.13-.19.13-.19.13-.2.11a8.23,8.23,0,0,1-1.42.64l-.45.13-.44.1-.43.11-.43.11a9.35,9.35,0,0,1-1.79.32c-.3,0-.6.05-.9.06h-.92a13.12,13.12,0,0,1-1.91-.24,13.94,13.94,0,0,1-2.06-.57l-.21-.07-.21-.08-.41-.16a7.33,7.33,0,0,1-.8-.38l-.29-.17-.27-.2-.26-.2-.25-.22-.13-.11-.06,0-.06-.06-.25-.22-.12-.11-.12-.11-.26-.22-.25-.22-.24-.22-.23-.24a2.73,2.73,0,0,1-.23-.25l-.22-.25c-.07-.09-.15-.17-.21-.26l-.21-.26-.11-.13-.1-.13a7.14,7.14,0,0,1-1-1.78,10.26,10.26,0,0,1-.6-2.18c-.06-.42,0-.85,0-1.26,0-.1,0-.2,0-.29l0-.29c0-.1,0-.19,0-.29v-.29a2.8,2.8,0,0,1,0-.29v-.29l0-.28a2.89,2.89,0,0,1,0-.29,15.44,15.44,0,0,1,.61-2.26,20.9,20.9,0,0,1,.91-2.23l.16-.34c0-.05,0-.11.07-.17l.08-.16c.06-.11.11-.23.17-.34a1.29,1.29,0,0,1,.09-.16l.09-.17a5.79,5.79,0,0,1,.89-1.26c.13-.13.27-.19.39-.32s.1-.27.2-.38a10.19,10.19,0,0,1,1.92-1.64c.71-.49,1.46-.91,2.2-1.32a17.11,17.11,0,0,1,4.58-.31,15,15,0,0,1,4.58,1,14.73,14.73,0,0,1,2.54,1.35,9.4,9.4,0,0,1,2.19,2.08l.22.31.11.15.11.16.21.32.19.32c.14.22.26.44.38.66l.05.08,0,.08.08.17.09.17.09.17a9.91,9.91,0,0,1,.74,2,10.06,10.06,0,0,1,.32,2.12,9,9,0,0,1-.2,2.19,8.63,8.63,0,0,1-.76,2.13,5.7,5.7,0,0,1-1.69,2.06.54.54,0,0,1,.06-.64c.07-.09.15-.17.22-.25l.12-.11.09-.11a8.54,8.54,0,0,0,1-1.85,10.57,10.57,0,0,0,.56-2.18,7.45,7.45,0,0,0-.2-2.93c0-.12-.06-.23-.1-.35s-.07-.24-.11-.35l-.13-.35c0-.06,0-.12-.07-.17l-.08-.17-.15-.34-.16-.32L134,256l-.09-.15-.18-.32c-.3-.49-.58-1-.89-1.48a8.36,8.36,0,0,0-1.07-1.38l-.25-.24-.13-.12-.14-.11-.28-.21-.29-.2c-.39-.26-.8-.48-1.2-.71a17.69,17.69,0,0,0-1.65-.78,14.66,14.66,0,0,0-1.74-.55l-.22,0-.23-.05-.45-.09-.46-.06-.11,0h-.12l-.23,0a11,11,0,0,0-1.9,0h-1.07l-.15,0-.3.07-.3.1-.14,0-.14.05-.29.08-.62.14-.08,0-.09,0L119,250l-.18,0-.17.06a6.4,6.4,0,0,0-.68.27l-.17.08-.16.08-.32.18-.1.06-.09.07-.19.15-.18.15-.17.16c-.11.11-.23.21-.33.33l-.17.16-.17.16-.36.36-.35.36-.33.37-.16.2-.16.19a7.62,7.62,0,0,0-1,1.69c-.27.64-.59,1.32-.88,2.06a13.13,13.13,0,0,0-.7,2.36l0,.16c0,.06,0,.11,0,.17v.34c0,.12,0,.23,0,.35s0,.23,0,.34,0,.44,0,.66,0,.22,0,.33,0,.23,0,.34v.17c0,.06,0,.11,0,.17s0,.23,0,.35,0,.11,0,.17a1.1,1.1,0,0,1,0,.18l0,.17a1.1,1.1,0,0,0,0,.18c0,.23.09.48.16.72,0,.06,0,.12,0,.18l.06.18c0,.12.08.24.13.36l0,.1a.36.36,0,0,0,0,.09,1.42,1.42,0,0,0,.08.18,2.92,2.92,0,0,0,.17.36c.06.12.13.24.2.36s.15.24.23.36a16.69,16.69,0,0,0,1.44,1.73.69.69,0,0,0,.11.13l.13.11.26.21.14.1.14.1.26.2.32.29.08.08.08.07.16.15.16.15.16.14a2.88,2.88,0,0,0,.34.27,3.63,3.63,0,0,0,.73.38l.18.08.19.07.4.14.31.11.31.13.32.12.31.12c.22.07.43.15.65.21l.33.08.34.06a19.5,19.5,0,0,0,2.39.14H124l.2,0a5.68,5.68,0,0,0,.9-.14c.16,0,.31-.11.46-.15s.39-.1.58-.14l.29-.05.3,0a7.77,7.77,0,0,0,1.16-.26l.36-.14.32-.16.16-.09.15-.09.29-.18.27-.19.26-.18.26-.19.14-.09.13-.09.23-.15.23-.15.22-.15.12-.07.05,0,.06,0,.44-.32.41-.38.39-.44.35-.48c.1-.17.21-.33.32-.5s.22-.35.34-.52" style="fill:#211d1e;fill-rule:evenodd"/><path d="M158.34,280.86a.83.83,0,0,1-.05.72c-.06.11-.14.22-.2.33l-.1.17a1.4,1.4,0,0,0-.1.16,3.62,3.62,0,0,0-.14.43,1.22,1.22,0,0,1-.18.4.89.89,0,0,1-.21.16,1.5,1.5,0,0,0-.25.15,2.5,2.5,0,0,0-.22.24l-.22.22-.23.14-.26.12-.25.12a1,1,0,0,0-.23.12,3.9,3.9,0,0,0-.36.25l-.37.27-.18.14-.19.13-.2.13-.2.11a7.6,7.6,0,0,1-1.42.64l-.44.12-.44.11-.43.1-.43.12a11.21,11.21,0,0,1-1.79.32c-.3,0-.6.05-.9.06h-.92a14.66,14.66,0,0,1-1.91-.24,15.28,15.28,0,0,1-2.06-.57l-.21-.07-.21-.08-.41-.16a7.33,7.33,0,0,1-.8-.38l-.29-.17-.27-.2a2.65,2.65,0,0,1-.26-.21l-.25-.21-.13-.11-.06-.06-.06-.05-.25-.23-.12-.11-.13-.11-.25-.21-.25-.22-.24-.23L139,283l-.23-.25-.22-.25c-.07-.09-.15-.17-.21-.26l-.21-.26-.11-.13-.11-.14a7.23,7.23,0,0,1-1-1.78,10.17,10.17,0,0,1-.6-2.17c-.07-.42,0-.85,0-1.26,0-.1,0-.2,0-.29a2.64,2.64,0,0,0,0-.29c0-.1,0-.2,0-.29v-.29a2.81,2.81,0,0,1,0-.29v-.29c0-.09,0-.19,0-.29a2.7,2.7,0,0,1,0-.28,15.44,15.44,0,0,1,.61-2.26,22.12,22.12,0,0,1,.9-2.23,3.54,3.54,0,0,0,.16-.34.89.89,0,0,0,.08-.17l.08-.16c.06-.12.11-.23.17-.34a.8.8,0,0,1,.08-.16l.09-.17a6.22,6.22,0,0,1,.9-1.26c.13-.13.27-.19.39-.33s.1-.26.2-.37a10.55,10.55,0,0,1,1.91-1.65c.71-.48,1.47-.9,2.21-1.32a18,18,0,0,1,4.58-.31,15,15,0,0,1,4.58,1,14.73,14.73,0,0,1,2.54,1.35,9.4,9.4,0,0,1,2.19,2.08l.22.31.11.15.11.16.21.32.19.32c.14.21.25.44.38.65l0,.09.05.08.08.17.09.17a.89.89,0,0,1,.08.17,9.36,9.36,0,0,1,.75,2,10.06,10.06,0,0,1,.32,2.12,9,9,0,0,1-.2,2.18,8.75,8.75,0,0,1-.76,2.13,5.82,5.82,0,0,1-1.69,2.07A.56.56,0,0,1,158,280l.22-.24.12-.11a.94.94,0,0,0,.09-.12,8.51,8.51,0,0,0,1-1.85,10.32,10.32,0,0,0,.56-2.17,7.44,7.44,0,0,0-.2-2.93c0-.12-.07-.24-.1-.35s-.07-.24-.12-.36l-.13-.34-.06-.17-.08-.17-.15-.34-.16-.33-.09-.16-.09-.16-.18-.31c-.3-.5-.58-1-.89-1.49a8.72,8.72,0,0,0-1.07-1.37l-.25-.24-.13-.12-.14-.11-.28-.21-.29-.2c-.39-.26-.81-.48-1.2-.71a17.69,17.69,0,0,0-1.65-.78,13.5,13.5,0,0,0-1.74-.55l-.22,0-.23-.05-.45-.09-.46-.06-.11,0h-.12l-.23,0a12.05,12.05,0,0,0-1.9,0,1.51,1.51,0,0,1-.3,0h-.77l-.15,0-.31.06-.29.11-.14.05-.14.05-.29.08-.62.14-.09,0-.08,0-.17.05-.17,0-.17.06c-.23.08-.46.16-.68.26l-.17.08-.17.09-.31.18-.1.06-.09.07-.19.14-.18.15-.17.16-.34.33-.16.17-.17.16-.36.35-.35.37-.33.37a1.56,1.56,0,0,0-.16.2l-.16.19a7.79,7.79,0,0,0-1,1.68c-.27.64-.59,1.33-.88,2.07a13,13,0,0,0-.7,2.35l0,.17c0,.05,0,.11,0,.17s0,.22,0,.34,0,.23,0,.34,0,.23,0,.34,0,.44,0,.66,0,.23,0,.34,0,.22,0,.34v.17c0,.05,0,.11,0,.17s0,.23,0,.34,0,.12,0,.18,0,.11,0,.17a1.1,1.1,0,0,1,0,.18l0,.18c0,.23.09.47.15.71a1.21,1.21,0,0,1,0,.18l.06.19.12.36a.36.36,0,0,1,0,.09.36.36,0,0,0,0,.09,1.42,1.42,0,0,0,.08.18,2.48,2.48,0,0,0,.17.37c.06.12.13.24.2.36s.15.24.23.35a16.76,16.76,0,0,0,1.44,1.74l.11.12.13.12.26.21.14.1.13.09.27.21.32.29.08.07.08.08.16.15.16.15.16.14c.11.09.22.19.34.27a4.53,4.53,0,0,0,.72.38l.19.08.19.07.39.14.32.11.31.13.32.11.31.12a5.45,5.45,0,0,0,.65.21l.33.09.33,0a18,18,0,0,0,2.4.15h.81a7.42,7.42,0,0,0,.9-.14c.16,0,.3-.11.46-.15a4.07,4.07,0,0,1,.58-.14l.29,0,.3-.05a6.39,6.39,0,0,0,1.15-.26l.37-.13.32-.17.16-.08.15-.09.29-.18.27-.19a2.48,2.48,0,0,0,.26-.19l.26-.19.14-.08.13-.1.23-.15.22-.14.23-.15.11-.07.06,0,.06,0c.14-.1.29-.2.43-.32s.28-.24.42-.37l.39-.45.34-.47.33-.51c.11-.17.22-.34.34-.51" style="fill:#211d1e;fill-rule:evenodd"/></svg>