<svg xmlns="http://www.w3.org/2000/svg" viewBox="0 0 214.28 299.96"><polygon points="200.35 2.22 212.86 13.6 212.81 298.54 14.3 298.11 1.89 287.27 200.35 2.22" style="fill:#c8ff6a;stroke:#000;stroke-miterlimit:10;stroke-width:2.83464566929134px"/><line x1="198.86" y1="286.56" x2="212.23" y2="297.31" style="fill:#fff;stroke:#000;stroke-miterlimit:10;stroke-width:2.83464566929134px"/><line x1="198.39" y1="13.15" x2="212.86" y2="13.15" style="fill:#f794ff;stroke:#000;stroke-miterlimit:10;stroke-width:2.83464566929134px"/><polygon points="200.14 3.6 209.33 11.88 200.12 11.95 200.14 3.6" style="fill:#fff"/><line x1="15.74" y1="298.11" x2="15.74" y2="285.89" style="fill:#f794ff;stroke:#000;stroke-miterlimit:10;stroke-width:2.46761865160079px"/><path d="M14.49,287.5s.09,9.22,0,9.22S4,287.51,4,287.51Z" style="fill:#fff"/><rect x="1.54" y="1.42" width="197.49" height="284.64" style="fill:#fd7ebd;stroke:#000;stroke-miterlimit:10;stroke-width:2.83464574813843px"/><rect x="1.54" y="1.42" width="197.49" height="284.64" style="fill:none;stroke:#000;stroke-miterlimit:10;stroke-width:2.46761865160079px"/><rect x="1.54" y="1.42" width="197.49" height="284.64" style="fill:none;stroke:#000;stroke-miterlimit:10;stroke-width:2.46761865160079px"/><rect x="1.54" y="1.42" width="197.49" height="284.64" style="fill:none;stroke:#000;stroke-miterlimit:10;stroke-width:2.46761865160079px"/><path d="M24.3,23.59h8.82l7.56,23.82H33.46L32.19,43H24.3L23,47.41H16.67Zm1.33,14.69h5.23l-2.6-9.16Z" style="fill:#fff"/><path d="M49.78,39.85h6.5c.16,1.69.93,3.09,3.76,3.09,2,0,3.06-1,3.06-2.36s-.9-1.87-3.76-2.3c-6.73-.8-9-2.8-9-7.59,0-4.3,3.53-7.43,9.22-7.43s9,2.4,9.4,7.43H62.64a2.71,2.71,0,0,0-3.07-2.57c-1.83,0-2.76.83-2.76,2s.73,1.94,3.7,2.34c6,.66,9.12,2.23,9.12,7.39,0,4.36-3.46,7.93-9.59,7.93C53.38,47.81,50,45,49.78,39.85Z" style="fill:#fff"/><path d="M73,30h6v2.66a6.09,6.09,0,0,1,5.46-3.13,4.74,4.74,0,0,1,4.73,2.9,6.91,6.91,0,0,1,5.76-2.9c3.3,0,5.7,2.13,5.7,6.5V47.41h-6V37c0-1.76-.87-2.63-2.23-2.63-1.6,0-2.67,1-2.67,2.93v10.1H83.86V37c0-1.76-.87-2.63-2.24-2.63-1.59,0-2.66,1-2.66,2.93v10.1H73Z" style="fill:#fff"/><path d="M103.68,42.58c0-4.1,3.46-5.7,9.26-5.7h1.66v-.4c0-1.66-.4-2.76-2.3-2.76a2.13,2.13,0,0,0-2.36,2.06h-5.6c.27-4.19,3.57-6.26,8.33-6.26s7.86,2,7.86,6.6V47.41h-5.8v-2c-.83,1.27-2.36,2.44-5.16,2.44C106.44,47.81,103.68,46.27,103.68,42.58Zm10.92-1.27V40.25H113c-2.4,0-3.47.46-3.47,1.89,0,1,.67,1.64,2.07,1.64C113.34,43.78,114.6,42.81,114.6,41.31Z" style="fill:#fff"/><path d="M124.6,30h6v3.46a5.49,5.49,0,0,1,5.63-3.7v5.57c-3.63-.1-5.63,1-5.63,3.83v8.26h-6Z" style="fill:#fff"/><path d="M140.65,41.81V34.05h-2.1V30h2.1V26.36h6V30H150v4.06h-3.43v7.19a1.6,1.6,0,0,0,1.77,1.84,4.6,4.6,0,0,0,1.7-.3v4.53a12.54,12.54,0,0,1-3.3.5C142.85,47.81,140.65,45.91,140.65,41.81Z" style="fill:#fff"/><path d="M152.54,38.91v-.26c0-5.6,4.17-9.13,9.43-9.13,4.76,0,8.86,2.73,8.86,9v1.57H158.57c.17,2.3,1.5,3.63,3.63,3.63,2,0,2.8-.9,3-2.07h5.6c-.54,3.93-3.57,6.17-8.83,6.17C156.54,47.81,152.54,44.61,152.54,38.91ZM165,36.71c-.1-2.09-1.13-3.26-3.06-3.26s-3,1.17-3.33,3.26Z" style="fill:#fff"/><path d="M174.06,30h6v3.46a5.49,5.49,0,0,1,5.63-3.7v5.57c-3.63-.1-5.63,1-5.63,3.83v8.26h-6Z" style="fill:#fff"/><path d="M16.7,56.9h6.9l3.06,14.86,3.2-14.86h6.06l3.47,15,3.23-15h6.32L43.38,80.72H36.25L32.59,65.6l-3.7,15.12H22.23Z" style="fill:#fff"/><path d="M49.35,75.89c0-4.1,3.46-5.7,9.26-5.7h1.66v-.4c0-1.66-.4-2.76-2.3-2.76a2.13,2.13,0,0,0-2.36,2.06H50c.27-4.19,3.57-6.26,8.33-6.26s7.86,2,7.86,6.6V80.72H60.41v-2a5.74,5.74,0,0,1-5.17,2.44C52.11,81.12,49.35,79.58,49.35,75.89Zm10.92-1.27V73.56H58.71c-2.4,0-3.47.46-3.47,1.89,0,1,.67,1.64,2.07,1.64C59,77.09,60.27,76.12,60.27,74.62Z" style="fill:#fff"/><path d="M75.06,79l-7-15.65h6.46l3.6,9.29,3.33-9.29h5.7L77.86,86.54H72.17Z" style="fill:#fff"/><path d="M23.1,95.47H16.94V90.21H36.12v5.26H30V114H23.1Z" style="fill:#fff"/><path d="M35.82,105.53v-.26c0-5.6,4.17-9.13,9.56-9.13s9.5,3.43,9.5,9v.27c0,5.66-4.17,9.06-9.53,9.06S35.82,111.16,35.82,105.53Zm13-.1v-.26c0-2.93-1.16-4.57-3.43-4.57s-3.46,1.57-3.46,4.5v.27c0,3,1.17,4.63,3.46,4.63S48.81,108.33,48.81,105.43Z" style="fill:#fff"/><path d="M64.64,102.27V102c0-7.26,5.33-12.15,12.49-12.15,5.63,0,10.62,2.56,11.09,8.76H81.46c-.34-2.24-1.77-3.4-4.3-3.4-3.36,0-5.4,2.6-5.4,6.89v.27c0,3.86,1.44,6.86,5.57,6.86,3.33,0,4.59-1.7,4.73-3.6H77.59v-4.76H88.78v2.93c0,6.06-4,10.63-11.65,10.63C69,114.43,64.64,109.4,64.64,102.27Z" style="fill:#fff"/><path d="M91.32,105.53v-.26c0-5.6,4.16-9.13,9.56-9.13s9.49,3.43,9.49,9v.27c0,5.66-4.16,9.06-9.53,9.06S91.32,111.16,91.32,105.53Zm13-.1v-.26c0-2.93-1.17-4.57-3.43-4.57s-3.47,1.57-3.47,4.5v.27c0,3,1.17,4.63,3.47,4.63S104.31,108.33,104.31,105.43Z" style="fill:#fff"/><path d="M112.74,111a3.31,3.31,0,0,1,3.39-3.36,3.36,3.36,0,1,1,0,6.72A3.32,3.32,0,0,1,112.74,111Z" style="fill:#fff"/><rect x="17.08" y="190.17" width="161.97" height="22.26"/><rect x="17.08" y="218.93" width="73.29" height="22.26"/><rect x="17.08" y="247.68" width="112.02" height="22.26"/></svg>