<svg xmlns="http://www.w3.org/2000/svg" viewBox="0 0 239.72 299.27"><path d="M8.91,35.94,37.06,9H237.69l.61,288.85H9.78C8.91,297.85,8.91,35.94,8.91,35.94Z" style="fill:#ff0;stroke:#000;stroke-miterlimit:10;stroke-width:2.83464574813843px"/><polygon points="29.57 29.28 1.71 29.28 29.57 1.42 29.57 29.28" style="fill:#fff"/><path d="M1.42,28.36,29.57,1.42H230.2l.61,288.85H2.29C1.42,290.27,1.42,28.36,1.42,28.36Z" style="fill:#fff;stroke:#000;stroke-miterlimit:10;stroke-width:2.83464566929134px"/><polyline points="29.57 1.42 29.57 28.41 1.71 28.41" style="fill:none;stroke:#000;stroke-miterlimit:10;stroke-width:2.83464566929134px"/><path d="M166.16,191.85a170.35,170.35,0,0,0-94.49,0c-7.25,2.08-12.78-4.59-12.58-10.9s5.32-13.43,13.19-15.72a168.43,168.43,0,0,1,93.27,0c8.06,2.35,13,9.46,13.2,15.72s-5.33,13-12.59,10.9" style="fill:#ee4722"/><path d="M168.83,192.27a9.66,9.66,0,0,1-2.68-.39,170.59,170.59,0,0,0-94.47,0,9.06,9.06,0,0,1-8.27-1.57A11.73,11.73,0,0,1,59.05,181a16.1,16.1,0,0,1,3.73-9.38,19.13,19.13,0,0,1,9.49-6.38,168.38,168.38,0,0,1,93.29,0,18.92,18.92,0,0,1,9.57,6.41,16.15,16.15,0,0,1,3.65,9.35,11.73,11.73,0,0,1-4.36,9.36,9,9,0,0,1-5.59,2m-2.66-.46a9,9,0,0,0,8.21-1.56,11.65,11.65,0,0,0,4.33-9.29,16.07,16.07,0,0,0-3.64-9.32,18.81,18.81,0,0,0-9.53-6.37,168.23,168.23,0,0,0-93.25,0,19,19,0,0,0-9.45,6.35A16,16,0,0,0,59.12,181a11.73,11.73,0,0,0,4.34,9.3,9,9,0,0,0,8.2,1.55,170.48,170.48,0,0,1,94.51,0" style="fill:#ea3924"/><path d="M118.92,158.64a168.36,168.36,0,0,1,46.63,6.59c8.06,2.35,13,9.46,13.2,15.72.17,5.51-4,11.28-9.91,11.28a9.9,9.9,0,0,1-2.68-.38,170.41,170.41,0,0,0-94.49,0,9.85,9.85,0,0,1-2.68.38c-5.89,0-10.07-5.77-9.9-11.28.19-6.27,5.32-13.43,13.19-15.72a168.48,168.48,0,0,1,46.64-6.59m0-2.79a170.82,170.82,0,0,0-47.41,6.7h0a21.22,21.22,0,0,0-6.16,2.91,22.11,22.11,0,0,0-4.72,4.39,18.87,18.87,0,0,0-4.34,11,14.62,14.62,0,0,0,4.05,10.39A12,12,0,0,0,69,195a12.52,12.52,0,0,0,3.45-.5h0a167.66,167.66,0,0,1,92.95,0h0a12.52,12.52,0,0,0,3.45.5,12,12,0,0,0,8.65-3.77,14.58,14.58,0,0,0,4-10.39,18.9,18.9,0,0,0-4.26-11,21.41,21.41,0,0,0-4.72-4.39,21.85,21.85,0,0,0-6.23-2.94h0a170.81,170.81,0,0,0-47.4-6.7" style="fill:#323031"/><path d="M74.44,180.47a2.69,2.69,0,0,1-.69-5.29,173.55,173.55,0,0,1,90.33,0,2.69,2.69,0,1,1-1.38,5.2,167.89,167.89,0,0,0-87.57,0,2.72,2.72,0,0,1-.69.09" style="fill:#cd2927"/><polygon points="63.74 152.11 58.64 157.21 48.13 141.6 43.87 145.87 31.28 119.66 44.1 139.29 51.06 132.34 63.74 152.11" style="fill:#323031"/><path d="M58.64,157.64h0a.42.42,0,0,1-.32-.19L48.07,142.28l-3.9,3.89a.42.42,0,0,1-.37.12.42.42,0,0,1-.32-.24L30.9,119.84a.43.43,0,0,1,.17-.56.43.43,0,0,1,.57.14l12.54,19.19L50.75,132a.43.43,0,0,1,.35-.12.42.42,0,0,1,.32.19L64.1,151.88a.43.43,0,0,1-.06.54l-5.1,5.1a.42.42,0,0,1-.3.12M48.13,141.17h0a.44.44,0,0,1,.32.18L58.7,156.54l4.49-4.49L51,133l-6.58,6.57a.45.45,0,0,1-.35.13.44.44,0,0,1-.31-.2l-9.24-14.14L44,145.13l3.84-3.83a.43.43,0,0,1,.3-.13" style="fill:#323031"/><polygon points="125.24 135.86 118.12 137.01 118.72 118.21 112.77 119.18 117.87 90.55 116.8 113.98 126.51 112.4 125.24 135.86" style="fill:#323031"/><path d="M118.12,137.45a.43.43,0,0,1-.28-.11.45.45,0,0,1-.15-.34l.58-18.28-5.43.88a.43.43,0,0,1-.5-.5l5.11-28.62a.43.43,0,0,1,.47-.36.44.44,0,0,1,.38.45l-1,22.9,9.19-1.5a.41.41,0,0,1,.35.11.45.45,0,0,1,.15.34l-1.27,23.46a.43.43,0,0,1-.36.4l-7.12,1.16h-.07m.6-19.67a.43.43,0,0,1,.28.11.41.41,0,0,1,.15.33l-.58,18.29,6.26-1,1.22-22.58-9.18,1.49a.4.4,0,0,1-.35-.1.45.45,0,0,1-.15-.34l.77-16.87-3.84,21.56,5.35-.87h.07m6.52,18.08Z" style="fill:#323031"/><polygon points="171.97 155.8 166.69 150.88 181.91 139.83 177.5 135.72 203.24 122.21 184.08 135.72 191.28 142.42 171.97 155.8" style="fill:#323031"/><path d="M172,156.23a.48.48,0,0,1-.3-.11l-5.28-4.92a.44.44,0,0,1,0-.66l14.8-10.75-4-3.75a.45.45,0,0,1-.13-.38.41.41,0,0,1,.23-.32L203,121.82a.44.44,0,0,1,.57.16.43.43,0,0,1-.12.58l-18.73,13.21,6.81,6.34a.48.48,0,0,1,.14.34.42.42,0,0,1-.19.32l-19.31,13.38a.37.37,0,0,1-.24.08m-4.61-5.3,4.65,4.32,18.58-12.88-6.8-6.33a.43.43,0,0,1-.14-.35.41.41,0,0,1,.18-.32l13.8-9.73-19.4,10.18,4,3.69a.41.41,0,0,1,.14.34.44.44,0,0,1-.18.33Z" style="fill:#323031"/></svg>