<svg xmlns="http://www.w3.org/2000/svg" xmlns:xlink="http://www.w3.org/1999/xlink" viewBox="0 0 205.12 210.29"><defs><clipPath id="a" transform="translate(3.39 1.37)"><path d="M87.45,42.31a34.65,34.65,0,1,0,.13,69.3h17.58a18.92,18.92,0,1,1,.06,37.84H62.54l-2.79,4.43h45.49A23.37,23.37,0,0,0,121.8,147a23.29,23.29,0,0,0-.12-33,23.41,23.41,0,0,0-16.55-6.77H87.57A30.3,30.3,0,0,1,57.22,77.09,30.32,30.32,0,0,1,87.47,46.75h50.14l2.8-4.44Z" style="fill:none"/></clipPath><linearGradient id="b" x1="-953.66" y1="6082.61" x2="-952.33" y2="6082.61" gradientTransform="matrix(-72.61, 72.61, 72.61, 72.61, -510740.1, -372353.51)" gradientUnits="userSpaceOnUse"><stop offset="0" stop-color="#ee3f4b"/><stop offset="0.01" stop-color="#ee3f4b"/><stop offset="0.65" stop-color="#b52d6e"/><stop offset="1" stop-color="#9b247e"/></linearGradient><clipPath id="c" transform="translate(3.39 1.37)"><path d="M87.93,53.61A23.36,23.36,0,1,0,88,100.32H105.6A30.3,30.3,0,0,1,136,130.4a30.32,30.32,0,0,1-30.24,30.34H55.42l-2.79,4.44h53.09a34.66,34.66,0,1,0-.12-69.31H88A18.91,18.91,0,1,1,88,58.05h42.53l2.81-4.45Z" style="fill:none"/></clipPath><linearGradient id="d" x1="-953.63" y1="6082.6" x2="-952.3" y2="6082.6" gradientTransform="matrix(-72.61, 72.61, 72.61, 72.61, -510741.06, -372340.51)" xlink:href="#b"/></defs><rect x="10.19" y="0.52" width="191.01" height="190.95" transform="translate(214.79 193.37) rotate(-180)" style="fill:#fff;stroke:#000;stroke-miterlimit:10;stroke-width:1.04254874010392px"/><rect x="7.28" y="3.11" width="191.01" height="190.95" transform="translate(208.96 198.55) rotate(-180)" style="fill:#fff;stroke:#000;stroke-miterlimit:10;stroke-width:1.04254874010392px"/><rect x="4.69" y="5.7" width="191.01" height="190.95" transform="translate(203.77 203.73) rotate(-180)" style="fill:#fff;stroke:#000;stroke-miterlimit:10;stroke-width:1.04254874010392px"/><rect x="1.42" y="8.86" width="191.01" height="190.95" transform="translate(197.24 210.05) rotate(-180)" style="fill:#fff;stroke:#000;stroke-miterlimit:10;stroke-width:2.83464566929134px"/><rect x="5.87" y="11.46" width="188.09" height="187.3" style="fill:#fff"/><g style="clip-path:url(#a)"><polygon points="199.83 99.46 99.94 198.93 0.06 99.46 99.94 0 199.83 99.46" style="fill:url(#b)"/></g><g style="clip-path:url(#c)"><polygon points="199.9 110.76 99.95 210.29 0 110.76 99.95 11.22 199.9 110.76" style="fill:url(#d)"/></g></svg>