<svg xmlns="http://www.w3.org/2000/svg" viewBox="0 0 381.4 242.27"><rect x="10.17" y="10.25" width="371.23" height="232.02" style="fill:#597de9"/><rect x="1.42" y="1.42" width="371.23" height="232.02" style="fill:none;stroke:#1c1c1b;stroke-miterlimit:10;stroke-width:2.83464566929134px"/><path d="M296.56,63.67H89c-6.75,0-12.23,6.35-12.23,14.16v80.78c0,7.82,5.48,14.18,12.23,14.18H296.56c6.74,0,12.23-6.36,12.23-14.18V77.83c0-7.81-5.49-14.16-12.23-14.16M248.7,75.27h14a2.9,2.9,0,0,1,0,5.8h-14a2.9,2.9,0,1,1,0-5.8m-125.8,0h14a2.9,2.9,0,0,1,0,5.8h-14a2.9,2.9,0,0,1,0-5.8" style="fill:#fff"/><g style="opacity:0.1"><path d="M102.67,100.15h8.48v41.06h13.78v7.33H102.67Z"/><path d="M129.75,100.15h22.19v7.26H138.23V119.9h10.93v7.33H138.23v14H152v7.33H129.75Z"/><path d="M164.7,107.41h-9.16v-7.26h26.88v7.26h-9.1v41.13H164.7Z"/><path d="M184.73,135.78l8-.27c.33,3.32,1.29,6.78,4.75,6.78,3,0,4-2.64,4-5.09,0-2.71-1.7-5-4.48-7.73l-4.82-5c-4.14-4-6.72-7.94-6.72-13,0-6.51,4.08-12.08,12.22-12.08,5.9,0,11.2,3.12,11.61,13.1l-7.54.27c-.4-3.8-1.42-6.45-4.48-6.45-2.51,0-3.87,1.9-3.87,4.55s2.58,5.16,5,7.53l4.48,4.55c4.48,4.41,7,8.55,7,13.92,0,7-4.62,12.42-12.42,12.42S185.2,144.13,184.73,135.78Z"/><path d="M224.3,136.93V111.55c0-7.67,5.77-12.15,13.37-12.15,7.12,0,12.89,4,12.89,11.06v5.16h-7.87v-4.48c0-2.78-2-4.48-4.89-4.48-3.25,0-4.82,2.17-4.82,5.16v24.91c0,3.12,1.7,5.09,4.82,5.09,3.33,0,4.55-1.9,4.55-4.55v-7.8h-5.29V123h13.57v14.73c0,7.26-4.95,11.54-12.83,11.54S224.3,145.08,224.3,136.93Z"/><path d="M255.86,136.46v-24.3c0-8.35,5.84-12.76,13.5-12.76,7.47,0,13.44,3.94,13.44,12.49v24.36c0,8.76-6,13-13.5,13C261.29,149.22,255.86,145.14,255.86,136.46Zm18.26.13V111.68a4.47,4.47,0,0,0-4.82-4.82c-3.19,0-4.75,2-4.75,5v24.77c0,2.92,1.62,5.09,4.81,5.09S274.12,139.44,274.12,136.59Z"/></g></svg>