<svg xmlns="http://www.w3.org/2000/svg" viewBox="0 0 201.72 201.23"><rect x="10.19" y="0.52" width="191.01" height="190.95" transform="translate(211.39 191.99) rotate(-180)" style="fill:#fff;stroke:#000;stroke-miterlimit:10;stroke-width:1.04254874010392px"/><rect x="7.28" y="3.11" width="191.01" height="190.95" transform="translate(205.56 197.18) rotate(-180)" style="fill:#fff;stroke:#000;stroke-miterlimit:10;stroke-width:1.04254874010392px"/><rect x="4.69" y="5.7" width="191.01" height="190.95" transform="translate(200.38 202.36) rotate(-180)" style="fill:#fff;stroke:#000;stroke-miterlimit:10;stroke-width:1.04254874010392px"/><rect x="1.42" y="8.86" width="191.01" height="190.95" transform="translate(193.84 208.68) rotate(-180)" style="fill:#fff;stroke:#000;stroke-miterlimit:10;stroke-width:2.83464574813843px"/><rect x="2.98" y="10.12" width="188.02" height="188.02" style="fill:#e1ff32"/><path d="M144.6,111.63c-.25-.43-.74-.47-1.19-.71a1.82,1.82,0,0,1-.78-.64c-.19-.53-1.6-6,0-6.16A100.73,100.73,0,0,0,126.44,80.8c3,7.44,9.81,21,11.61,28.72,1.5,0,3.25-.25,3.64,0s.36.82.36.82c-1,.14-2.67.33-3.75.36h0c1.4,7.37,2.14,13.29-1.1,20.17-4.48,9.53-16.67,10.56-20.74,10.7a103.74,103.74,0,0,1-35.68-4.78c-17-5.31-20.31-12-17.92-21.37,0-.2.11-.4.16-.61s.07-.26.11-.39l.07-.25c0-.15.09-.3.13-.45l.06-.21c0-.18.11-.35.16-.53s0-.1,0-.15.12-.37.17-.56a.57.57,0,0,0,0-.14c.07-.19.13-.38.19-.58l0-.11.21-.62a.19.19,0,0,1,0-.07l.21-.65a0,0,0,0,0,0,0,44.57,44.57,0,0,1,1.65-4.32h0l-2.59-1,.11.06s-.8,1.66-3.49.88c-4.64-1.33-15.93-6.72-20.9-8.85a10.74,10.74,0,0,0-1.68.37,6.48,6.48,0,0,0-.9.61,60.63,60.63,0,0,0,6.24,2.61c1.35.36,1.8,1.45,1.19,3a2.21,2.21,0,0,1-3.41,1.13c-.44-.32-4-2.33-6.41-4a13.26,13.26,0,0,0-2,4.69,8.69,8.69,0,0,0,1.08,6.18c.13.23.26.46.4.69a24.74,24.74,0,0,0,4.35,4.67c.74.66,1.56,1.37,2.45,2.1a126.55,126.55,0,0,0,18.31,12.51q2.18,1.21,4.32,2.32l1.5.75c2.16,1.06,4.34,2.06,6.6,3,8.41,3.47,18,6.22,32.08,9.37.41.09,1.38.25,2.33.36a14.87,14.87,0,0,0,1.69.14c2.71,0,7.47,0,9.27,0a38.3,38.3,0,0,0,7.55-1.07c3.09-.69,6.47-2.85,9.93-7.63a45.85,45.85,0,0,0,2.62-4.13,76.19,76.19,0,0,0,4.56-9.85q.94-2.44,1.89-5.24c.33-1,.67-2,1-3.06.62-2,.8-4,.37-4.67" style="fill:#3068ac"/><path d="M43.54,146a3.14,3.14,0,0,1-.62-2.85c.31-.94,1.49-1.23,2.94-1.29,0-.15,0-.3,0-.45a5.69,5.69,0,0,0-3.52-5.25,3.14,3.14,0,0,1-2.24,1.53c-.83.08-1.45-.59-2-1.58a5.69,5.69,0,0,0-3.63,5.3c0,.14,0,.28,0,.42a2.63,2.63,0,0,1,2.33,1,2.76,2.76,0,0,1-.07,3.15,5.68,5.68,0,0,0,6.73.05" style="fill:#3068ac"/><path d="M148,141.77c0,.22,0,.44,0,.65,1.6,0,2.94.29,3.28,1.3a3.15,3.15,0,0,1-.63,2.87,5.65,5.65,0,0,0,6.67-.5,2.75,2.75,0,0,1,.24-2.84,2.54,2.54,0,0,1,1.73-1c0-.16,0-.32,0-.49a5.66,5.66,0,0,0-3.12-5.06c-.53,1-1.17,1.61-2,1.53a3.47,3.47,0,0,1-2.52-1.79,5.68,5.68,0,0,0-3.7,5.32" style="fill:#3068ac"/><path d="M59.64,133.51a40.33,40.33,0,0,1-9.75-5.58c-3.51-2.54-7.48-5.73-9.1-7.16a19.86,19.86,0,1,0,18.85,12.74m-19,22.34A14.83,14.83,0,1,1,55.47,141a14.83,14.83,0,0,1-14.83,14.82" style="fill:#ee463a"/><path d="M63.52,104.72l2.59,1h0c5.24,2.06,21.36,8.18,24.81,8.28,0,0,.71.07.86-.25a21,21,0,0,0,.64-3.46c.49-2.92,1.1-7.77-.86-11.37-1.56-2.88-4.18-5.18-8.83-6.13-3-.63-7-.61-13-.93-9.26-.49-20.45-1.29-23.74-1-2.85.28-6,2.79-6,3.45,0,.43,1,1,1.73,1.28l.27.12c3.46,1.43,10.88,4.69,21.55,8.94" style="fill:#ee463a"/><path d="M123.59,94.42c-.8-5.46-1.4-9.74.53-13.74a2.88,2.88,0,0,1-.31-.89c-.58-4.63,3.68-7.25,3.68-10.44,0-2-1.45-4.36-6.79-2.77,0,0-.29-6.08,1-7.71,1.73-2.25,2-3.06,2-5.71A5,5,0,0,0,122.42,50a3.78,3.78,0,0,0-3-1.41c-.16,0-1.4-.14-2.3,4.56-1.2,6.32,1.68,5,2,5.69,0,0-.14,7.43-.28,8.42-2.31,1.25-3.33,1.91-4.26,3.73a2.21,2.21,0,0,0-.18.51c.3-.08.9-.24,1.67-.5a2.21,2.21,0,0,1,2.19-1.8,2.43,2.43,0,0,1,2.29,2.67,2.65,2.65,0,0,1-2.19,2.39,2.41,2.41,0,0,1-1.85-.76,10.31,10.31,0,0,1-2.09.28c.8,4.58,5,13.74,9.54,32.65.73-1,.45-6.28-.38-12M122.45,73.6c-1.07-.16-1.26-.16-1.56-.8-.22-.48,0-2.3.82-1.82,1.35.8,2,1.13,2,1.82s-.48.92-1.25.8" style="fill:#bbd530"/><path d="M63.44,139.36a3.11,3.11,0,1,0,3.11-3.11,3.11,3.11,0,0,0-3.11,3.11" style="fill:#e3e442"/><path d="M158.44,122.65a38.42,38.42,0,0,1-6.61,4.57,15.06,15.06,0,0,1,1.91-.13,14.66,14.66,0,1,1-11,5,39.25,39.25,0,0,1-6,2.41h0a45.85,45.85,0,0,1-2.62,4.13,19.28,19.28,0,0,0,19.09,21.91,19.28,19.28,0,0,0,5.19-37.84" style="fill:#ee463a"/><path d="M44.09,103.37c.61-1.52.16-2.61-1.19-3a60.63,60.63,0,0,1-6.24-2.61c-1-.45-1.79-.83-2.13-1-1.22-.6-2.8,1.31-2.18,2.14a9.35,9.35,0,0,0,1.92,1.59c2.37,1.65,6,3.66,6.41,4a2.21,2.21,0,0,0,3.41-1.13m-3.17-1.12a1.46,1.46,0,0,1,1.77-1.06c.69.2,1,.87.72,1.74a1.53,1.53,0,0,1-1.77,1.14c-.69-.2-1-.95-.72-1.82" style="fill:#bbd530"/><path d="M52.31,144.59a.46.46,0,0,0-.05-.14c-.56-.72-1.27-.66-3.55-.67-1.05,0-1.93.16-2.29.78s.22,1.34,1.09,2.27l.38.41,3.12-.09a12.09,12.09,0,0,0,1.3-2.56" style="fill:#aad7de"/><path d="M38.16,136.08a12.3,12.3,0,0,1-.55-1.25,6.7,6.7,0,0,0-3.42,5.84,7.11,7.11,0,0,0,.1,1.14h.26c0-.14,0-.28,0-.42a5.68,5.68,0,0,1,3.63-5.3" style="fill:#aad7de"/><path d="M40.46,134c-.17,0-.33,0-.49.06a1.21,1.21,0,0,0,.87.2c.57-.08.91-.42,1.46-1.56a6.28,6.28,0,0,0-1.84,1.3" style="fill:#aad7de"/><path d="M45.89,141.38c0,.15,0,.3,0,.45,2.71-.11,6.36.59,7.13-.64,0-.21,0-.42,0-.63a11.89,11.89,0,0,0-5.44-10c-1,.33-2,.67-2.88,1-.8,1.39-1.41,3.24-2.32,4.53a5.69,5.69,0,0,1,3.52,5.25" style="fill:#aad7de"/><path d="M40.56,147.39H41c.83,0,2.14,0,3.68-.07A12.16,12.16,0,0,1,43.54,146a5.68,5.68,0,0,1-6.73-.05s0,0,0,.05a6.63,6.63,0,0,0,3.47,1.39l.3,0" style="fill:#aad7de"/><path d="M116.52,73.48a12.29,12.29,0,0,1,1.7-.3,1.39,1.39,0,0,0,1.26-1.37,1.37,1.37,0,0,0-1.69-1.47c-.62.26-1.2.47-1.71.64-.77.26-1.37.42-1.67.5l-.23.06c-.84.28-.94,2.06,0,2.2l.21,0a10.31,10.31,0,0,0,2.09-.28" style="fill:#aad7de"/><path d="M103.39,146.8c-14.1-3.15-23.67-5.9-32.08-9.37h0a5.15,5.15,0,0,1,.32,1.72,5.09,5.09,0,0,1-10.17,0,4.93,4.93,0,0,1,3.24-4.72h0l-1.49-.75h0l-.31.38s-.92.27-3.26-.55a19.8,19.8,0,0,1,.3,13.38c2.31.06,8.66.42,9.19.4a2.6,2.6,0,0,0,2.66,1.94c2.31,0,4.58-3.93,8.24-2.74s8,2.15,25.69.67c-1-.11-1.92-.27-2.33-.36" style="fill:#aad7de"/><path d="M33.78,112.08c-.14-.23-.27-.46-.4-.69-1.22.1-1.37.75-1.33,1.79-.86.33-5.24,2-5.89,2.39s-.56,1.42.14,1.53a94.33,94.33,0,0,0,11.8-.35h0a24.94,24.94,0,0,1-4.34-4.67" style="fill:#aad7de"/><path d="M146.58,147.53a.43.43,0,0,0,.09-.1c.87-.93,1.52-1.55,1.1-2.27s-1.25-.77-2.29-.77h-1.39a8.88,8.88,0,0,0,2.49,3.14" style="fill:#aad7de"/><path d="M151.25,131.83c1,2.31,1.38,2.87,2.17,3a1.26,1.26,0,0,0,1.2-.47,6.39,6.39,0,0,0,.91-1.85,8.84,8.84,0,0,0-3.46-.7c-.27,0-.55,0-.82,0" style="fill:#aad7de"/><path d="M146.1,131.93a11.52,11.52,0,0,0-4.7,9.29c0,.28,0,.55,0,.82,1.06.83,4.11.34,6.56.38a4.63,4.63,0,0,1,0-.65,5.68,5.68,0,0,1,3.7-5.32c-.84-1.26-1.45-2.95-2.22-4.25a9.45,9.45,0,0,0-1.94.88Z" style="fill:#aad7de"/><path d="M150.64,146.59a20,20,0,0,1-1.9,2.2,8.6,8.6,0,0,0,3.33.66,8.78,8.78,0,0,0,5.81-2.19,7.89,7.89,0,0,1-.57-1.17,5.65,5.65,0,0,1-6.67.5" style="fill:#aad7de"/><path d="M159.3,141.77c0,.17,0,.33,0,.49a6.52,6.52,0,0,1,1.47,0,8.53,8.53,0,0,0,.16-1.61,8.79,8.79,0,0,0-3.46-7,22.66,22.66,0,0,1-1.27,3.08,5.66,5.66,0,0,1,3.12,5.06" style="fill:#aad7de"/><path d="M141.34,124.59c.61-.33,2.81-1.61,3.46-3.16a.07.07,0,0,0,0-.05c.07-.43-1.23-1.07-1.58-2-.63,1.86-1.26,3.61-1.89,5.23" style="fill:#aad7de"/><path d="M41.64,104.07a1.52,1.52,0,0,0,1.77-1.14c.25-.87,0-1.54-.72-1.74a1.46,1.46,0,0,0-1.77,1.06c-.25.87,0,1.62.72,1.82" style="fill:#fff"/><path d="M59.64,133.51c2.34.82,3.26.55,3.26.55l.31-.38h0q-2.15-1.11-4.32-2.32a127.37,127.37,0,0,1-18.31-12.5h0s-1.64-.28-.51,1.22a6.75,6.75,0,0,0,.73.69c1.62,1.43,5.58,4.62,9.09,7.16a40.33,40.33,0,0,0,9.75,5.58" style="fill:#59387a"/><path d="M63.63,104.78l-.11-.06C52.85,100.47,45.43,97.21,42,95.78l-.27-.12a5.19,5.19,0,0,1-2.46,1.15c5,2.13,16.26,7.52,20.91,8.85,2.68.78,3.48-.88,3.48-.88" style="fill:#59387a"/><path d="M119.48,71.81a1.39,1.39,0,0,1-1.25,1.37,12.13,12.13,0,0,0-1.71.3,2.41,2.41,0,0,0,1.85.76,2.65,2.65,0,0,0,2.19-2.39,2.43,2.43,0,0,0-2.29-2.67,2.21,2.21,0,0,0-2.19,1.8c.51-.17,1.09-.38,1.71-.64a1.37,1.37,0,0,1,1.69,1.47" style="fill:#59387a"/><path d="M141.34,124.59a75.75,75.75,0,0,1-4.56,9.86h0a39.25,39.25,0,0,0,6-2.41c2.9-1.38,6.2-3.14,9.07-4.83a38.42,38.42,0,0,0,6.61-4.57l.19-.19a.2.2,0,0,0,0-.31,16,16,0,0,0-13.77-.77h0a.07.07,0,0,1,0,.05c-.65,1.55-2.85,2.83-3.46,3.16" style="fill:#59387a"/><path d="M138.3,110.7h0c1.08,0,2.76-.22,3.75-.36,0,0-.09-.64-.36-.82s-2.14,0-3.64,0c.07.3.13.58.18.85a3.2,3.2,0,0,0,.07.33" style="fill:#59387a"/><path d="M64.46,110.1l-.21.65a.19.19,0,0,0,0,.07l-.21.62,0,.11-.18.58-.05.14c0,.19-.11.37-.17.56s0,.1,0,.15-.11.35-.16.53l-.06.21c0,.15-.09.3-.13.45l-.07.25c0,.13-.07.26-.11.39s-.11.41-.16.61c-2.39,9.32,1,16.06,17.92,21.37a103.3,103.3,0,0,0,35.68,4.77c4.07-.13,16.26-1.16,20.74-10.69,3.24-6.88,2.5-12.8,1.1-20.17a3.2,3.2,0,0,1-.07-.33c0-.27-.11-.55-.18-.85-1.8-7.76-8.61-21.28-11.61-28.72-.36-.89-.67-1.71-.9-2.41a13.83,13.83,0,0,0-1.42,2.29c-1.93,4-1.33,8.28-.53,13.74.83,5.71,1.11,11,.38,12,2,8.78,3.55,19.26-.57,25-3.25,4.52-10.55,4.45-18.35,3.89-9.55-.69-14.37-.79-15.2-7.64-.52-4.22.83-7.2,1.55-12.14a1.05,1.05,0,0,0,0-.32c-.09-.43-.56-.54-.45-1.15-3.45-.1-19.57-6.22-24.81-8.28a44.57,44.57,0,0,0-1.65,4.32,0,0,0,0,1,0,0" style="fill:#fff"/><path d="M55.47,141a14.83,14.83,0,1,0-14.83,14.82A14.83,14.83,0,0,0,55.47,141M38.86,129a1,1,0,0,1,.49-.22h0a11.14,11.14,0,0,1,1.74-.13h.54l.9.11c1,.2,1.22.52.65,1.86-.37.87-.65,1.52-.89,2-.55,1.14-.89,1.48-1.46,1.56A1.21,1.21,0,0,1,40,134a1,1,0,0,1-.28-.27A8.14,8.14,0,0,1,38.42,130a1.13,1.13,0,0,1,.44-1m-6.32,19.44c-.67,0-2.95-3.7-2.47-4.24a4.42,4.42,0,0,1,2.14-.37c1.11,0,2.24.1,2.56.88S34.67,146,34,147s-1.11,1.5-1.48,1.5m8.56,4a11.88,11.88,0,0,1-6.82-2.15c-.14-1,1.58-2.65,2.51-4.35l0-.05a2.76,2.76,0,0,0,.07-3.15,2.6,2.6,0,0,0-2.33-1h-.26c-1.79.11-3.84.9-5-.12,0-.37-.05-.75-.05-1.13A11.91,11.91,0,0,1,35.64,130c.75,1,1.29,3.11,2,4.84a13.37,13.37,0,0,0,.55,1.25c.52,1,1.14,1.66,2,1.58a3.14,3.14,0,0,0,2.24-1.53c.91-1.29,1.52-3.14,2.32-4.53a4,4,0,0,1,1.63-1.74,12.92,12.92,0,0,1,1.25.71,11.89,11.89,0,0,1,5.44,10c0,.21,0,.42,0,.63-.77,1.23-4.42.53-7.13.64-1.45.06-2.63.35-2.94,1.29a3.14,3.14,0,0,0,.62,2.85,12.16,12.16,0,0,0,1.09,1.35,15.61,15.61,0,0,1,2.74,3.37,11.85,11.85,0,0,1-6.27,1.78M50,148.29c-.62.4-1.19-.11-2.08-1l-.37-.41c-.87-.93-1.52-1.55-1.09-2.27s1.24-.78,2.29-.77c2.28,0,3-.06,3.55.66a.46.46,0,0,1,.05.14,11.85,11.85,0,0,1-1.3,2.56c-.1.15-.19.3-.3.45a4.1,4.1,0,0,1-.75.69" style="fill:#59387a"/><path d="M123.69,72.8c0-.69-.63-1-2-1.82-.81-.48-1,1.34-.82,1.82.3.64.49.64,1.55.8.78.12,1.25-.12,1.25-.8" style="fill:#59387a"/><path d="M61.46,139.15a5.09,5.09,0,0,0,10.17,0,5.15,5.15,0,0,0-.32-1.72h0c-2.26-.94-4.44-1.94-6.6-3h0a4.93,4.93,0,0,0-3.24,4.72m5.09-2.9a3.11,3.11,0,1,1-3.11,3.11,3.11,3.11,0,0,1,3.11-3.11" style="fill:#59387a"/><path d="M139.09,141.74a14.65,14.65,0,1,0,14.65-14.65,15.06,15.06,0,0,0-1.91.13c-2.87,1.69-6.17,3.45-9.07,4.83a14.58,14.58,0,0,0-3.67,9.69M144.4,149a11.48,11.48,0,0,1-2.38-4c.41-.46.93-.54,2.07-.56h1.39c1,0,1.92.16,2.29.78s-.23,1.34-1.09,2.27l-.1.1c-1,1-1.56,1.68-2.18,1.45m17.19-.16a5.88,5.88,0,0,1-1.18-1.39c-.65-.91-1-1.5-.75-2.23s1.45-.91,2.56-.88a7.55,7.55,0,0,1,1.76.19,11.34,11.34,0,0,1-2.39,4.31M150.7,129.9a11.41,11.41,0,0,1,5.15.16,1.12,1.12,0,0,1,.09.5,8.15,8.15,0,0,1-.41,1.93,6.39,6.39,0,0,1-.91,1.85,1.26,1.26,0,0,1-1.2.47c-.79-.11-1.14-.67-2.17-3-.09-.19-.18-.39-.27-.61a2,2,0,0,1-.28-1.32m-1.27,2.3c.77,1.3,1.38,3,2.22,4.25a3.47,3.47,0,0,0,2.52,1.79c.84.08,1.48-.57,2-1.53a22.66,22.66,0,0,0,1.27-3.08,18.15,18.15,0,0,1,1-2.52,11.52,11.52,0,0,1,6,10.11c0,.34,0,.67,0,1a9.4,9.4,0,0,1-3.67,0,6.52,6.52,0,0,0-1.47,0,2.54,2.54,0,0,0-1.73,1,2.75,2.75,0,0,0-.24,2.84,7.89,7.89,0,0,0,.57,1.17c.86,1.49,2,2.81,1.35,3.61a11.42,11.42,0,0,1-6.3,1.88,11.6,11.6,0,0,1-6-1.68,11.39,11.39,0,0,1,1.82-2.27,21.09,21.09,0,0,0,1.9-2.21,3.15,3.15,0,0,0,.63-2.87c-.34-1-1.68-1.27-3.28-1.3-2.45,0-5.5.45-6.56-.38,0-.27,0-.54,0-.82a11.5,11.5,0,0,1,4.7-9.29,10.8,10.8,0,0,1,2.08-1.22,4.77,4.77,0,0,1,1.25,1.49" style="fill:#59387a"/><path d="M142.64,110.28a2.89,2.89,0,0,0,2-.41c.45-.32-.73-3.29-1.94-5.68l-.05-.07c-1.57.16-.16,5.63,0,6.16" style="fill:#59387a"/></svg>