<svg xmlns="http://www.w3.org/2000/svg" viewBox="0 0 383.78 480.55"><path d="M188.59,0,383.78,116.86s0,351.8,0,358.74C383.8,481,0,482.63,0,477.25V119.56Z" style="fill:#dcdce1"/><path d="M308.56,426.05a14.72,14.72,0,1,0-4.31,10.4,14.72,14.72,0,0,0,4.31-10.4m7,0a21.75,21.75,0,1,1-6.37-15.4,21.67,21.67,0,0,1,6.37,15.4m-170,10.4a14.71,14.71,0,1,1,4.31-10.4,14.67,14.67,0,0,1-4.31,10.4m5-25.8a21.78,21.78,0,1,0,6.37,15.4,21.73,21.73,0,0,0-6.37-15.4M246,426.05a14.72,14.72,0,1,0-4.31,10.4,14.63,14.63,0,0,0,4.31-10.4m7.05,0a21.75,21.75,0,1,1-6.37-15.4,21.71,21.71,0,0,1,6.37,15.4m-55.11,0-.07,1.49a14.85,14.85,0,1,1,.07-1.49Zm.68-15.4a21.77,21.77,0,1,0-.75,31.5v2.05A14.71,14.71,0,0,1,173.16,455a.67.67,0,0,0-.85-.05l-4.15,4.14a.67.67,0,0,0,0,.86,21.76,21.76,0,0,0,36.73-15.79s.08-17.57.08-18.15a21.74,21.74,0,0,0-6.37-15.4m-96.45,15.4a14.55,14.55,0,1,0-.07,1.49l.06-1.49Zm7,0c0,.58-.08,18.15-.08,18.15A21.76,21.76,0,0,1,72.36,460a.65.65,0,0,1,0-.86L76.54,455a.66.66,0,0,1,.84.05,14.73,14.73,0,0,0,24.67-10.84v-2.05a21.77,21.77,0,1,1,7.12-16.1m168.9-23.6a.67.67,0,0,0,.26-.94l-3.09-4.85a.61.61,0,0,0-.88-.2,35.44,35.44,0,0,0-16,29.59v20a.67.67,0,0,0,.69.67h5.66a.68.68,0,0,0,.7-.65v-20a28.29,28.29,0,0,1,12.62-23.6" style="fill:#323237"/><polygon points="192.43 29.36 29.81 129.36 29.81 300.33 354.99 300.33 354.99 129.36 355.05 129.36 192.43 29.36" style="fill:#094eff"/><path d="M48.64,202.29H59.86c.28,2.94,1.61,5.35,6.5,5.35,3.39,0,5.28-1.67,5.28-4.08s-1.55-3.22-6.49-4c-11.62-1.38-15.53-4.83-15.53-13.11,0-7.42,6.1-12.82,15.93-12.82S81,177.8,81.77,186.48H70.84c-.4-2.93-2.07-4.43-5.29-4.43s-4.77,1.44-4.77,3.51c0,2.3,1.26,3.34,6.38,4,10.41,1.15,15.75,3.85,15.75,12.76,0,7.53-6,13.69-16.55,13.69C54.86,216,49,211.21,48.64,202.29Z" style="fill:#fff"/><path d="M95.23,183.32H84.6v-9.09h33.12v9.09H107.08v32H95.23Z" style="fill:#fff"/><path d="M129.11,174.23h15.24l13.05,41.12H144.93l-2.19-7.65H129.11l-2.18,7.65H116Zm2.3,25.36h9L136,183.78Z" style="fill:#fff"/><path d="M167.13,197.75l-13.39-23.52h12.82l7,13.86,7-13.86h11.27L179,197.75v17.6H167.13Z" style="fill:#fff"/><path d="M49.16,258.84v-.46c0-12.64,9-21,21-21,10.7,0,18.11,4.94,19.09,15.81H77.11c-.46-4.2-2.76-6.5-6.9-6.5-5.29,0-8.63,4.14-8.63,11.62v.46c0,7.41,3.16,11.61,8.8,11.61,4.14,0,7.07-2.18,7.65-6.72H89.76c-.81,10.63-8.51,16.15-19.15,16.15C56.23,279.83,49.16,271.44,49.16,258.84Z" style="fill:#fff"/><path d="M95,238h16.1c10.75,0,16.73,4.37,16.73,13.05v.23c0,5.87-3.1,9.15-7.42,10.81l9.84,17H117.78l-8.34-14.72h-2.76v14.72H95Zm15.52,18.75c4,0,5.93-1.67,5.93-5v-.23c0-3.33-2.08-4.66-5.87-4.66h-3.85v9.9Z" style="fill:#fff"/><path d="M135,238h28.4v9.09H146.77v7.07h13.28v8.39H146.77v7.48h17.6v9.08H135Z" style="fill:#fff"/><path d="M180.19,238h15.24l13,41.11H196l-2.18-7.64H180.19L178,279.14H167Zm2.3,25.36h9L187,247.58Z" style="fill:#fff"/><path d="M217.35,247.12H206.71V238h33.12v9.09H229.19v32H217.35Z" style="fill:#fff"/><path d="M245.25,238h11.9v41.11h-11.9Z" style="fill:#fff"/><path d="M262,238H274.7L283,266.89l8.4-28.86h11L289,279.14h-13.4Z" style="fill:#fff"/><path d="M307.14,238h28.41v9.09H318.87v7.07h13.29v8.39H318.87v7.48h17.6v9.08H307.14Z" style="fill:#fff"/><path d="M38.59,329.42q.36-1.21,1.44-1l1.8.44c.93.22,1.29.7,1.07,1.44l-.37,1.1c-.22.61,0,.92.55.92H60a1,1,0,0,1,1.14,1.1v1.81A1,1,0,0,1,60,336.41H41.46a1.65,1.65,0,0,0-1.43,1.1q-1.85,3.72-3,5.53a2.57,2.57,0,0,0-.29,1.36v17a1,1,0,0,1-1.11,1.14h-2a1,1,0,0,1-1.14-1.1v-11c0-.59-.25-.65-.74-.19-.56.62-1.18.58-1.84-.11l-.92-1c-.74-.79-.8-1.52-.18-2.21a44.49,44.49,0,0,0,6.33-9.65c.3-.59.14-.88-.44-.88H30.12a1,1,0,0,1-1.14-1.1V333.5a1,1,0,0,1,1.11-1.14H36.6c.59,0,1-.37,1.33-1.1Zm8.95,9.2a1,1,0,0,1,1.1-1.11h2a1,1,0,0,1,1.14,1.11v4.57a.8.8,0,0,0,.89.92h6.07c.76,0,1.14.36,1.14,1.1v1.88c0,.76-.36,1.14-1.1,1.14H52.65c-.61,0-.92.29-.92.88v7.22a.8.8,0,0,0,.89.92h7.55a1,1,0,0,1,1.14,1.1v1.84a1,1,0,0,1-1.11,1.14H39.4c-.76,0-1.14-.36-1.14-1.1v-1.84a1,1,0,0,1,1.11-1.14h7.25a.8.8,0,0,0,.92-.89v-7.21a.8.8,0,0,0-.89-.92H40.72a1,1,0,0,1-1.14-1.11v-1.87a1,1,0,0,1,1.11-1.14h5.93a.8.8,0,0,0,.92-.89Z" style="fill:#1c1c1b"/><path d="M79.93,329.38c0-.79.36-1.18,1.07-1.18h2.62a1,1,0,0,1,1.14,1.1v.52c0,.61.29.92.88.92h12a1,1,0,0,1,1.14,1.11v4.89a1,1,0,0,1-1.11,1.14h-2a1,1,0,0,1-1.14-1.1v-1.22a.8.8,0,0,0-.89-.92H71.25c-.62,0-.93.3-.93.89v1.36c0,.76-.36,1.14-1.1,1.14h-2a1,1,0,0,1-1.14-1.1v-5.05a1,1,0,0,1,1.1-1.14H79c.61,0,.92-.29.92-.88Zm-8.5,8.32a1,1,0,0,1,1.1-1.11H92.38a1,1,0,0,1,1.14,1.11v1.73a1,1,0,0,1-1.11,1.14H84.65a2,2,0,0,0-1.26.3c-.31.19-.16.61.48,1.25a15.13,15.13,0,0,1,1.81,2.65c.24.54.77.64,1.58.29a31.72,31.72,0,0,0,5.3-2.91,1.48,1.48,0,0,1,2.13.22l1,1.11c.84.91.84,1.61,0,2.1A44,44,0,0,1,89.21,349c-.59.27-.5.73.26,1.36A56.38,56.38,0,0,0,98.31,356q1.17.62.51,1.65l-1,1.48a1.31,1.31,0,0,1-1.88.55,50.24,50.24,0,0,1-7.32-4.9c-.74-.61-1.15-.55-1.22.19a8.82,8.82,0,0,1-2,5.89,5.54,5.54,0,0,1-2.95,1.39,13.11,13.11,0,0,1-4.89-.4,1.65,1.65,0,0,1-1.3-1.4l-.29-1.62q-.18-1-1.29-.51A42,42,0,0,1,69,360.27a1.34,1.34,0,0,1-1.7-.78L66.61,358c-.47-.93-.31-1.5.47-1.69A53,53,0,0,0,82,349.92a1.3,1.3,0,0,0,.62-1.4c-.15-.44-.62-.43-1.43,0a46.49,46.49,0,0,1-11.53,4.89,1.48,1.48,0,0,1-1.91-.8A17.3,17.3,0,0,1,67,351.1c-.39-.74-.19-1.2.59-1.4a51.19,51.19,0,0,0,11.9-4.82c.56-.42.71-.76.43-1s-.76-.22-1.5.14a57.11,57.11,0,0,1-8.21,3.13,1.65,1.65,0,0,1-2-.88l-.85-1.47c-.41-.72-.26-1.16.48-1.33a57.45,57.45,0,0,0,8-2.39c.74-.32.72-.48,0-.48H72.57a1,1,0,0,1-1.14-1.1Zm11.71,17.08c0-.61-.33-.69-1.07-.22A29.5,29.5,0,0,1,77.76,357c-.59.3-.52.55.22.78a9.15,9.15,0,0,0,3.83.29A4,4,0,0,0,83.14,354.78Z" style="fill:#1c1c1b"/><path d="M132.33,355.3c.23-.76.69-1,1.4-.78a17.85,17.85,0,0,1,1.77.63c.91.32,1.28.86,1.1,1.62a25,25,0,0,1-1.44,4.16c-.41.86-1,1.07-1.79.62l-1.66-.88c-.81-.44-1.08-1-.81-1.66A25.24,25.24,0,0,0,132.33,355.3Zm-.69-25c0-.79.34-1.18,1-1.18h9.9a1,1,0,0,1,1.14,1.1v20.25a1,1,0,0,1-1.11,1.14h-6.14c-.62,0-.92.21-.92.63s-.38.7-1.11.7h-1.65a1,1,0,0,1-1.14-1.1Zm8.06,3.5c0-.62-.3-.92-.89-.92h-2.35c-.62,0-.92.29-.92.88v3.72c0,.61.29.92.88.92h2.36a.8.8,0,0,0,.92-.89Zm0,9.35c0-.64-.29-1-.85-1h-2.39c-.62,0-.92.29-.92.88v3.83c0,.62.29.92.88.92h2.36c.61,0,.92-.29.92-.88Zm.92,12.22,1.62-.74a1.33,1.33,0,0,1,1.8.7,21.57,21.57,0,0,1,1.73,3.65,1.17,1.17,0,0,1-.74,1.62l-2.13.95a.93.93,0,0,1-1.47-.66,28,28,0,0,0-1.37-3.68C139.65,356.33,139.83,355.71,140.62,355.37Zm4.71-24.92c0-.79.34-1.18,1-1.18H162.3a1,1,0,0,1,1.1,1.1,29.29,29.29,0,0,1-.92,8.91,3.34,3.34,0,0,1-2.72,1.73,11.94,11.94,0,0,1-3.79-.07,1.76,1.76,0,0,1-1.62-1.36l-.37-1.73q-.25-1.26,1-1a8.32,8.32,0,0,0,3.35.22c.25-.15.45-.6.59-1.36a9.76,9.76,0,0,0,.15-1.7.78.78,0,0,0-.88-.88h-3.76c-.59,0-.93.37-1,1.1a11,11,0,0,1-.7,2.58,8,8,0,0,1-4.63,3.87,1.58,1.58,0,0,1-2.14-.59l-.74-1.18c-.59-.86-.49-1.44.3-1.73a5.46,5.46,0,0,0,3.57-3c.17-.68,0-1-.56-1h-2a1,1,0,0,1-1.14-1.1Zm0,12.37c0-.79.34-1.18,1-1.18h15.2a1,1,0,0,1,1.14,1.1v9.06c0,.76-.36,1.14-1.1,1.14H146.47a1,1,0,0,1-1.14-1.1Zm5.6,11.78c.85-.4,1.46-.28,1.84.33a30.34,30.34,0,0,1,2,4.05,1.16,1.16,0,0,1-.7,1.62l-2.17.95c-.74.35-1.22.15-1.47-.58a22.66,22.66,0,0,0-1.59-4.09,1.06,1.06,0,0,1,.56-1.62Zm7.65-8.14c0-.61-.29-.92-.88-.92h-7.4c-.62,0-.92.3-.92.88V348c0,.62.29.92.88.92h7.4c.61,0,.92-.29.92-.88Zm1.22,7.7a1.34,1.34,0,0,1,1.95.47,25.68,25.68,0,0,1,2.06,4.05,1.34,1.34,0,0,1-.74,1.88c-.76.34-1.53.72-2.32,1.14a1,1,0,0,1-1.51-.59,31.38,31.38,0,0,0-1.84-4.38,1,1,0,0,1,.52-1.65Z" style="fill:#1c1c1b"/><path d="M172.31,329.53c0-.79.34-1.18,1-1.18h1.73c.76,0,1.15.37,1.15,1.1v4c0,.62.29.92.88.92h1.43a1,1,0,0,1,1.15,1.11V337a1,1,0,0,1-1.11,1.14h-1.43c-.62,0-.92.37-.92,1.1a2.79,2.79,0,0,0,.88,2c.88.86,1.72,1.75,2.5,2.68a1.64,1.64,0,0,1,.11,2.21l-1.1,1.48c-.52.71-1,.68-1.36-.08l-.3-.48c-.39-.63-.61-.89-.66-.77a3.33,3.33,0,0,0-.07,1v13.87a1,1,0,0,1-1.11,1.15h-1.65c-.77,0-1.15-.37-1.15-1.11V350c0-.86-.16-.86-.47,0l-1,2.43c-.39.81-1,.8-1.65,0l-.6-.74a1.87,1.87,0,0,1-.25-2.2A51.69,51.69,0,0,0,172,339.17c.15-.66,0-1-.59-1h-1.8a1,1,0,0,1-1.14-1.11v-1.54c0-.76.36-1.15,1.1-1.15h1.84c.61,0,.92-.29.92-.88Zm6.48,23c0-.78.35-1.17,1-1.17h6.81a1,1,0,0,1,1.14,1.1,3.34,3.34,0,0,1-.32,2.28,11.68,11.68,0,0,1-7.26,6.67,1.29,1.29,0,0,1-1.69-.78l-.52-1c-.42-.81-.22-1.32.59-1.54a8.71,8.71,0,0,0,4.09-2.47c.46-.59.4-.88-.19-.88h-2.54a1,1,0,0,1-1.14-1.11Zm8.39-23.81a1.29,1.29,0,0,1,1.81.66l.41.88a1.27,1.27,0,0,0,1.24.89h.78A1.88,1.88,0,0,0,193,330l.22-.37a1.48,1.48,0,0,1,1.8-1l1.73.51c.81.23,1.06.59.74,1.11s-.19.85.4.85h2.4c.76,0,1.14.36,1.14,1.1v1.25a1,1,0,0,1-1.11,1.14h-6.15c-.61,0-.92.18-.92.52s.29.59.89.59H199a1,1,0,0,1,1.14,1.1V338c0,.76-.36,1.14-1.1,1.14h-4.9c-.61,0-.92.17-.92.51s.29.56.89.56H201c.76,0,1.14.36,1.14,1.1v1.25a1,1,0,0,1-1.11,1.14h-8.39q-.84,0,.15.33l2.24.45c.74.22.95.7.63,1.43l-.29.74c-.32.78-.78,1.09-1.37.92s-.95.11-.95.7v1.84a2.54,2.54,0,0,0,.48,1.54c.29.37.85.19,1.69-.55a20.25,20.25,0,0,0,1.91-2.28,1.31,1.31,0,0,1,1.88-.55l1.07.51a1.2,1.2,0,0,1,.55,1.88A22.68,22.68,0,0,1,198,354a1,1,0,0,0,.22,1.81,20.77,20.77,0,0,0,2.95,1.47q1.37.48.81,1.62l-.59,1.22c-.42.95-1,1.31-1.73,1.06a21.64,21.64,0,0,1-5.6-3.31c-.63-.64-.95-.68-.95-.11a4.92,4.92,0,0,1-.81,3.35,3.73,3.73,0,0,1-3.2,1.22l-1.84,0a1.43,1.43,0,0,1-1.44-1.14l-.29-1.48c-.16-.78.13-1.09.84-.92a4.53,4.53,0,0,0,2.5,0,1.44,1.44,0,0,0,.41-.74v-6.77a.8.8,0,0,0-.88-.92h-4.79a1,1,0,0,1-1.14-1.1v-1.22c0-.76.36-1.14,1.1-1.14h6c.56,0,.52-.1-.14-.3-1-.19-2-.35-3-.47-.83-.13-1.14-.56-.92-1.29s.05-1.22-.55-1.22H181c-.76,0-1.14-.36-1.14-1.1v-1.25a1,1,0,0,1,1.11-1.14h6.92c.61,0,.92-.18.92-.52s-.29-.55-.89-.55h-4.6a1,1,0,0,1-1.14-1.11v-1.1a1,1,0,0,1,1.11-1.14h4.6c.61,0,.92-.17.92-.52s-.29-.59-.89-.59h-6.07a1,1,0,0,1-1.14-1.1v-1.25a1,1,0,0,1,1.1-1.14H184c.59,0,.88,0,.88-.15l-.33-.74c-.22-.39,0-.71.77-1Z" style="fill:#1c1c1b"/><path d="M214.32,329.49c.83-1,1.61-1.34,2.32-1.14a15,15,0,0,1,1.77.55c.73.22,1.06.4,1,.55s.09.54.7.81c2.26,1,4.46,2.08,6.63,3.28a1,1,0,0,1,.32,1.77,11.16,11.16,0,0,0-.84,1,1.36,1.36,0,0,1-2,.4l-1.07-.7c-.61-.34-.92-.22-.92.37s-.36.92-1.1.92h-6.74c-.76,0-1.14-.26-1.14-.77s-.39-.58-1.18,0l-1.47.88c-.78.45-.78.67,0,.67h13.85c.76,0,1.14.36,1.14,1.1v10.09a1,1,0,0,1-1.11,1.14H212.63c-.62,0-.92.16-.92.48s.25.62.77.62h12.44a1,1,0,0,1,1.14,1.11v8.61c0,.76-.36,1.15-1.1,1.15h-1.59q-1.14,0-1.14-.78a.77.77,0,0,0-.88-.85h-5.41c-.62,0-.92.26-.92.78s-.37.85-1.11.85h-1.58a1,1,0,0,1-1.14-1.11v-4.34c0-.54-.13-.47-.4.22a15.85,15.85,0,0,1-1.22,3.24,1.15,1.15,0,0,1-1.73.59l-1.14-.67a1.49,1.49,0,0,1-.74-2,26.16,26.16,0,0,0,2-9.43v-9.68c0-.74.08-1.12.26-1.14s0-.33-.63-.92l-.63-.63c-.7-.71-.69-1.26,0-1.66A29.47,29.47,0,0,0,214.32,329.49Zm7.43,12.74c0-.42-.28-.63-.77-.63h-8.32c-.61,0-.92.16-.92.48s.3.55.89.55h8.2C221.42,342.63,221.73,342.5,221.75,342.23Zm0,4.19c0-.39-.28-.58-.84-.58h-8.25c-.61,0-.92.17-.92.51s.3.59.89.59h8.2C221.45,346.94,221.75,346.77,221.75,346.42Zm.48,9.69c0-.67-.29-1-.88-1h-5.41a.81.81,0,0,0-.92.92c0,.66.29,1,.88,1h5.41A.81.81,0,0,0,222.23,356.11Zm-4.3-23a1.44,1.44,0,0,0-1.77.14c-.49.49-.43.74.18.74h1.84C219.51,334,219.42,333.73,217.93,333.1Zm10.49.88c0-.78.34-1.18,1-1.18h1.91c.77,0,1.15.37,1.15,1.11V353a1,1,0,0,1-1.11,1.14h-1.84a1,1,0,0,1-1.14-1.11Zm6.63-4.2c0-.76.35-1.14,1.06-1.14H238a1,1,0,0,1,1.14,1.11v28.12a6.82,6.82,0,0,1-.8,2.95c-1.31,1.28-3.24,1.72-5.82,1.32l-.81-.14a1.62,1.62,0,0,1-1.36-1.33l-.37-1.88c-.15-.83.2-1.15,1-1a9.88,9.88,0,0,0,3.28.22c.51-.18.78-.68.81-1.51Z" style="fill:#1c1c1b"/><path d="M243.85,345.91c0-.79.34-1.18,1-1.18h5.74a1,1,0,0,1,1.14,1.11v9.27a1.57,1.57,0,0,0,1.11,1.4,17.23,17.23,0,0,0,5.52,1l6.48.15h5.48a44.42,44.42,0,0,0,6.22-.55c.87-.15,1.09.18.71,1a25.26,25.26,0,0,0-1,2.69,1.39,1.39,0,0,1-1.44,1.1H262.29q-7.4,0-11.38-2.43a1.35,1.35,0,0,0-1.76.37l-1.66,1.66q-1.11,1.1-1.8,0l-1.22-1.84c-.64-.89-.55-1.46.26-1.73l1.88-.78a1.38,1.38,0,0,0,.95-1.28V349.7c0-.61-.29-.92-.88-.92H245a1,1,0,0,1-1.14-1.1Zm1.87-9c.79-.79,1.53-1,2.21-.59s1.66,1.16,2.54,1.88c.67.58.67,1.28,0,2.09-.44.49-.84,1-1.21,1.48q-.88,1.06-2.1-.15c-.74-.66-1.47-1.28-2.21-1.84s-.88-1.22-.15-1.95Zm2.4-7.15a1.55,1.55,0,0,1,2.06-.36,17.64,17.64,0,0,1,2.5,1.62,1.24,1.24,0,0,1,.11,2l-1.18,1.48c-.64.78-1.3.87-2,.25q-1.29-1.06-2.58-2c-.74-.47-.76-1.07-.07-1.81C247.32,330.57,247.7,330.18,248.12,329.78Zm15.5-.4c0-.79.35-1.18,1.06-1.18h2.06c.77,0,1.15.37,1.15,1.1v1.37c0,.61.29.92.88.92h4.9a1,1,0,0,1,1.14,1.1v1.88a1,1,0,0,1-1.11,1.14h-4.89c-.62,0-.92.3-.92.88V338c0,.61.29.92.88.92h6.88a1,1,0,0,1,1.14,1.11v1.87c0,.76-.36,1.14-1.1,1.14H255c-.76,0-1.14-.36-1.14-1.1v-1.88c0-.76.36-1.14,1.1-1.14h7.7c.61,0,.92-.29.92-.88v-1.44a.8.8,0,0,0-.89-.92H260a2,2,0,0,0-1.59,1.11,1.12,1.12,0,0,1-.25.36,1.35,1.35,0,0,1-2.1.45l-1.22-.93a1.29,1.29,0,0,1-.25-2,25.91,25.91,0,0,0,2.53-4.86c.3-.81.78-1.12,1.44-.92l1.77.51c.79.25,1.08.67.88,1.25s0,.89.59.89h.89a.8.8,0,0,0,.92-.89Zm-7.7,16.38c0-.78.34-1.18,1-1.18h16.53a1,1,0,0,1,1.14,1.11v9.05c0,.77-.37,1.15-1.1,1.15H257.07c-.77,0-1.15-.37-1.15-1.11Zm14.43,3.68c0-.61-.29-.92-.88-.92h-8.36a.8.8,0,0,0-.92.89V351c0,.61.29.92.89.92h8.35c.62,0,.92-.3.92-.88Z" style="fill:#1c1c1b"/><path d="M285.81,329.53c.4-.79.94-1,1.62-.74l1,.44c.95.4,1.22,1,.8,1.7l-2.06,3.38q-.73,1.06-.18,1.62c.32.32.7.12,1.14-.59l.63-1.1q.69-1.44,1.8-1l1.14.52c.66.29,1,.16,1-.41v-1.1a1,1,0,0,1,1.11-1.14h.7q.88,0,1.32-1.11l.11-.37c.2-.88.69-1.23,1.48-1.06l1.61.36c.77.2,1.05.59.86,1.18s0,1,.58,1h1.77c.76,0,1.14.36,1.14,1.1v1.33c0,.61.17.71.52.29s.51-.45.66-.33.54,0,1-.7c.63-1.08,1.21-2.16,1.73-3.24a1.25,1.25,0,0,1,1.8-.74l1.22.48q1.09.48.51,1.62-1.14,2-2.43,4.05c-.39.59-.43,1-.11,1.33s.74.07,1.25-.67l1.29-2.21a1.28,1.28,0,0,1,1.77-.58,8,8,0,0,1,1.11.47c.95.42,1.19,1,.69,1.74l-2.72,4.08c-.35.64-.19.81.48.52s1.06-.08,1.43.66a41.51,41.51,0,0,1,1.8,5.12,1.27,1.27,0,0,1-.84,1.62l-.73.29q-1.19.56-1.44-.33a1,1,0,0,0-1.29-.81c-2.23.37-4.47.67-6.7.92-.64,0-1,.14-1,.26s-.4.18-1.14.18h-8.39c-.77,0-1.15-.18-1.15-.55s-.38-.47-1.14-.15-1.37.4-1.47.08-.55-.42-1.36-.22a51.33,51.33,0,0,1-5.63,1.32c-1,.17-1.52-.11-1.66-.85l-.33-1.65c-.15-.81,0-1.26.58-1.33a2.28,2.28,0,0,0,1.66-1.1l1.44-2.1c.39-.61.25-1.26-.44-1.95l-2.21-2.28a1.46,1.46,0,0,1-.18-2.21,5.79,5.79,0,0,1,.62-.74,5.92,5.92,0,0,1,1.07-1.14c.12.1.43-.23.92-1Zm9.68,19.58c0-.56.35-.84,1-.84h2.24c.76,0,1.15.25,1.15.77a.76.76,0,0,0,.87.84H313a1,1,0,0,1,1.14,1.11v1.25a1,1,0,0,1-1.11,1.14h-8c-.79,0-.81.2-.08.59a38.65,38.65,0,0,0,9,3.17c.78.17.94.7.47,1.58l-1,1.88a1.38,1.38,0,0,1-1.73.81A38.78,38.78,0,0,1,301,355.7c-.71-.54-1.06-.51-1.06.07v5.45a1,1,0,0,1-1.11,1.15h-2.17a1,1,0,0,1-1.15-1.11V356.4c0-.59-.36-.63-1.1-.11a38.24,38.24,0,0,1-9.94,4.9,1.59,1.59,0,0,1-2-.81l-.66-1.11c-.45-.73-.26-1.22.55-1.47a39.88,39.88,0,0,0,8.83-3.72c.76-.46.75-.7,0-.7h-7.85a1,1,0,0,1-1.14-1.1V351a1,1,0,0,1,1.11-1.15h11.33C295.19,349.88,295.49,349.63,295.49,349.11ZM289,342.3c-.17-.59-.51-.51-1,.22s-.37.92.3.78S289.16,342.84,289,342.3Zm3.71-5.78c0-.81-.27-.83-.81-.07l-1.87,3c-.39.66-.26.87.4.63s.92-.05,1.14.73l1,3.57c.1.05.14-.19.14-.73Zm6.93-.77c0-.64-.28-1-.85-1h-1.32c-.62,0-.92.3-.92.88v1.18c0,.62.29.92.88.92h1.28c.62,0,.93-.29.93-.88Zm0,6.48c0-.64-.28-1-.85-1h-1.32c-.62,0-.92.29-.92.88V343c0,.61.29.92.88.92h1.28c.62,0,.93-.3.93-.89Zm4.75-3.72c-.67-.52-1-.5-1,0v3.82q0,.88.3,1c.17,0,.57-.38,1.21-1.14l.85-1.07c.41-.59.27-1.2-.44-1.84Zm6.36,3.31c-.27-.64-.66-.57-1.17.19s-.74,1-.52.88a13.48,13.48,0,0,1,1.73-.11C311,342.73,311,342.41,310.77,341.82Z" style="fill:#1c1c1b"/><path d="M323.59,329.53c0-.79.34-1.18,1-1.18h1.69a1,1,0,0,1,1.14,1.1v1.36c0,.62.3.93.88.93h1.33c.76,0,1.14.36,1.14,1.1v1.43c0,.77-.37,1.15-1.1,1.15h-1.33c-.61,0-.92.29-.92.88V338a.8.8,0,0,0,.88.92h2a1,1,0,0,1,1.14,1.11v1.39c0,.76-.36,1.14-1.1,1.14h-1.62c-.62,0-.92.3-.92.89v1.62c0,.61.29.92.88.92H330a1,1,0,0,1,1.14,1.1v1.44c0,.76-.36,1.14-1.1,1.14h-1.21c-.62,0-.92.3-.92.88v4.64a1.56,1.56,0,0,0,1.1,1.4q3.65,1.32,12.3,1.36h6.44c1.49,0,3-.14,4.49-.29.84-.1,1.14.26.92,1.07l-.66,2.21a1.46,1.46,0,0,1-1.48,1.1h-9.53q-8.58-.1-13-1.4a13.44,13.44,0,0,1-5.08-2.83c-.61-.57-1-.47-1.1.29-.2,1-.44,2-.74,3q-.4,1.22-1.65.48l-.74-.44c-1-.59-1.31-1.25-1.07-2a45.39,45.39,0,0,0,1.55-12.48c0-1,.41-1.44,1.14-1.44h1.44a1,1,0,0,1,1.14,1.11l-.19,4.86a1.94,1.94,0,0,0,.33,1.4c.37.39.56.28.56-.33v-8.8c0-.62-.3-.93-.89-.93h-3c-.76,0-1.14-.36-1.14-1.1v-1.4a1,1,0,0,1,1.11-1.14h2.53c.62,0,.93-.29.93-.88v-1.73c0-.62-.3-.92-.89-.92h-1.47a1,1,0,0,1-1.15-1.11v-1.43a1,1,0,0,1,1.11-1.14h1.47c.62,0,.93-.3.93-.89Zm7.55.77c0-.79.33-1.18,1-1.18h11.22a1,1,0,0,1,1.14,1.1v1.4a1,1,0,0,1-1.14,1.15c-.81,0-1.21.29-1.21.88v18c0,.59.36.57,1.1-.07a15.09,15.09,0,0,0,2.5-3.83,2,2,0,0,0-.33-2l-2.1-3c-.58-.83-.56-1.52.08-2.06l.66-.55a1.34,1.34,0,0,1,2,.18l.81,1.11c.49.68.83.64,1-.15l.55-2.84c.12-.63-.11-.95-.7-.95H344a1,1,0,0,1-1.14-1.11V335c0-.77.37-1.15,1.1-1.15h7.51a1,1,0,0,1,1.14,1.11,12.34,12.34,0,0,1-.4,3.94,66,66,0,0,1-1.59,6.59,2,2,0,0,0,.15,1.76c.66,1.11,1.31,2.25,1.95,3.43a1.76,1.76,0,0,1-.51,2.21l-.7.7c-.74.73-1.29.75-1.66,0l-.92-1.76c-.34-.64-.72-.59-1.14.14a16.67,16.67,0,0,1-2.84,3.57c-.88.72-1.53.67-2-.14l-.25-.48c-.4-.74-.59-.7-.59.11v1.18a1,1,0,0,1-1.11,1.14h-1.43a1,1,0,0,1-1.14-1.11v-1.84q0-.89-1.11-.66a49.89,49.89,0,0,1-5.56,1.07,1.05,1.05,0,0,1-1.32-1,7.6,7.6,0,0,1-.26-1.36,1,1,0,0,1,.81-1.33c.73-.09,1.11-.41,1.11-.95V333.69c0-.62-.17-.92-.49-.92s-.54-.37-.54-1.11Zm7.36,3.42c0-.64-.29-1-.85-1h-.92c-.61,0-.92.29-.92.88v1.44c0,.61.29.92.88.92h.89a.8.8,0,0,0,.92-.89Zm0,6.85a.8.8,0,0,0-.89-.92h-.88c-.61,0-.92.29-.92.88v1.81c0,.61.29.92.88.92h.89a.8.8,0,0,0,.92-.89Zm0,7.33c0-.67-.27-1-.81-1h-1a.8.8,0,0,0-.92.89v1.73c0,.59.36.83,1.1.73l.7-.11a1,1,0,0,0,.89-1.1Z" style="fill:#1c1c1b"/><circle cx="114.14" cy="348.29" r="5.02" style="fill:#1c1c1b"/></svg>