<svg xmlns="http://www.w3.org/2000/svg" xmlns:xlink="http://www.w3.org/1999/xlink" viewBox="0 0 297.11 296.39"><defs><clipPath id="a"><path d="M99.62,255.42h0Zm-31.18,0c-.29.36-.58.73-.86,1.1a1,1,0,0,0,.33,1.57,31.8,31.8,0,0,0,4.57,2.16,32.28,32.28,0,0,0,5.66,1.57,32.94,32.94,0,0,0,11.77,0,31.77,31.77,0,0,0,10.23-3.73,1.06,1.06,0,0,0,.34-1.57l-.86-1.11h0l0,0,0,0a1.24,1.24,0,0,0-1.55-.29,28.08,28.08,0,0,1-8.88,3.22A28.71,28.71,0,0,1,73.89,257,27.89,27.89,0,0,1,70,255.12a1.3,1.3,0,0,0-.6-.15,1.16,1.16,0,0,0-.94.45M56.71,237.77l-1.44.19a1.1,1.1,0,0,0-1,1.19c0,.26.06.52.1.78a21.21,21.21,0,0,0,1.5,5.17,25,25,0,0,0,2.82,4.83,28.72,28.72,0,0,0,3.84,4.26l.55.49a1.21,1.21,0,0,0,1.73-.16l.86-1.11a1,1,0,0,0-.15-1.44l-.36-.32a25.81,25.81,0,0,1-3.36-3.73,21.38,21.38,0,0,1-2.42-4.15,17.5,17.5,0,0,1-1.27-4.34l-.09-.7a1.14,1.14,0,0,0-1.16-1l-.16,0m53.32,1c0,.24-.06.47-.1.7a17.47,17.47,0,0,1-1.26,4.34,21.9,21.9,0,0,1-2.42,4.15,25.88,25.88,0,0,1-3.37,3.73l-.36.32a1,1,0,0,0-.14,1.44l.86,1.11a1.21,1.21,0,0,0,1.73.16l.55-.49a29.28,29.28,0,0,0,3.84-4.26,25.12,25.12,0,0,0,2.81-4.83,20.36,20.36,0,0,0,1.5-5.17c0-.26.08-.52.11-.78a1.1,1.1,0,0,0-1-1.19l-1.44-.19-.16,0a1.14,1.14,0,0,0-1.15,1m2.63-26.09-1.45.19a1.1,1.1,0,0,0-1,1.08v19.45a1.1,1.1,0,0,0,1,1.08l1.45.2a1.15,1.15,0,0,0,1.33-1.08V213.71a1.13,1.13,0,0,0-1.16-1.09l-.17,0m-58.59,1.07v19.85a1.14,1.14,0,0,0,1.32,1.08l1.46-.2a1.11,1.11,0,0,0,1-1.08V213.91a1.11,1.11,0,0,0-1-1.08l-1.46-.2h-.16a1.13,1.13,0,0,0-1.16,1.09" style="fill:none"/></clipPath><linearGradient id="b" x1="-1130.52" y1="6530.71" x2="-1130.13" y2="6530.71" gradientTransform="matrix(0, -127.66, -127.66, 0, 833787.31, -144058.18)" gradientUnits="userSpaceOnUse"><stop offset="0" stop-color="#336ab3"/><stop offset="0.12" stop-color="#387cbe"/><stop offset="0.37" stop-color="#46abdb"/><stop offset="0.5" stop-color="#4ec7ec"/><stop offset="0.83" stop-color="#5ac2b1"/><stop offset="1" stop-color="#5fc098"/></linearGradient><clipPath id="c"><path d="M99.62,191.86l0,0,0,0Z" style="fill:none"/></clipPath><linearGradient id="d" x1="94446.38" y1="20931.18" x2="94446.77" y2="20931.18" gradientTransform="matrix(0, -0.06, -0.06, 0, 1342.74, 5801.17)" gradientUnits="userSpaceOnUse"><stop offset="0" stop-color="#336ab3"/><stop offset="0.06" stop-color="#387cbe"/><stop offset="0.18" stop-color="#46abdb"/><stop offset="0.25" stop-color="#4ec7ec"/><stop offset="0.55" stop-color="#5ac2b1"/><stop offset="0.7" stop-color="#5fc098"/><stop offset="0.74" stop-color="#7ac268"/><stop offset="0.75" stop-color="#80c35e"/><stop offset="0.9" stop-color="#80c35e"/><stop offset="0.92" stop-color="#aad03f"/><stop offset="0.93" stop-color="#bdd630"/><stop offset="1" stop-color="#bdd630"/></linearGradient><clipPath id="e"><path d="M54.33,109.19h0Zm47.34,0h0ZM45.19,98v3.51a8.7,8.7,0,0,0,.08,1.24,5.93,5.93,0,0,0,.24.92,3.93,3.93,0,0,0,.3.62,2.86,2.86,0,0,0,.35.43,3,3,0,0,0,.46.33,3.27,3.27,0,0,0,.67.28,5.55,5.55,0,0,0,1,.22,9.76,9.76,0,0,0,1.32.09H72.27a9.76,9.76,0,0,0,1.32-.09,5.36,5.36,0,0,0,1-.22,3.27,3.27,0,0,0,.67-.28,3,3,0,0,0,.46-.33,2.86,2.86,0,0,0,.35-.43,2.72,2.72,0,0,0,.3-.62,5,5,0,0,0,.24-.92,8.73,8.73,0,0,0,.09-1.24V98Zm47.33,0v3.51a8.73,8.73,0,0,0,.09,1.24,4.3,4.3,0,0,0,.24.92,2.72,2.72,0,0,0,.3.62,2.86,2.86,0,0,0,.35.43A3,3,0,0,0,94,105a3.27,3.27,0,0,0,.67.28,5.55,5.55,0,0,0,1,.22,9.76,9.76,0,0,0,1.32.09h22.68a9.76,9.76,0,0,0,1.32-.09,5.55,5.55,0,0,0,1-.22,3.27,3.27,0,0,0,.67-.28,3,3,0,0,0,.46-.33,2.86,2.86,0,0,0,.35-.43,2.72,2.72,0,0,0,.3-.62,5.93,5.93,0,0,0,.24-.92,8.73,8.73,0,0,0,.09-1.24V98ZM45.18,96.06h31.5V88.42H45.18Zm47.34,0H124V88.42H92.52ZM45.18,86.53h31.5V78.89H45.18Zm47.34,0H124V78.89H92.52ZM45.18,77h31.5V69.37H45.18Zm47.34,0H124V69.37H92.52ZM60.19,57.55l-.47,0a.52.52,0,0,0-.39.18l-.47.46-.43.37a6.22,6.22,0,0,1-.65.45l-.26.14-.21.1-.24.11-.25.1-.45.14-.57.11q-.4.06-.84.09l-1,0H45.59c-.29,0-.41.11-.41.38v7.25h31.5V60.22c0-.27-.12-.38-.41-.38H67.88l-1,0c-.29,0-.56,0-.84-.09l-.57-.11a5.78,5.78,0,0,1-.7-.24l-.24-.11-.21-.1L64.08,59a7.49,7.49,0,0,1-.65-.45L63,58.21l-.47-.46a.51.51,0,0,0-.38-.18l-.47,0-.75,0-.74,0m47.34,0-.47,0a.52.52,0,0,0-.39.18l-.47.46-.43.37a6.22,6.22,0,0,1-.65.45l-.26.14-.21.1-.24.11-.25.1-.46.14-.56.11c-.28,0-.55.07-.84.09l-1,0H92.93c-.29,0-.41.11-.41.38v7.25H124V60.22c0-.27-.12-.38-.41-.38h-8.4l-1,0c-.29,0-.56,0-.84-.09l-.57-.11a5.78,5.78,0,0,1-.7-.24l-.24-.11-.21-.1-.27-.14a7.33,7.33,0,0,1-.64-.45l-.43-.37-.47-.46a.51.51,0,0,0-.38-.18l-.47,0-.75,0-.74,0M48,107.38a8.54,8.54,0,0,1-1.33-.3,6,6,0,0,1-1.07-.46,4.55,4.55,0,0,1-.83-.61,4.08,4.08,0,0,1-.65-.79,4.35,4.35,0,0,1-.49-1,6.21,6.21,0,0,1-.32-1.25,9.83,9.83,0,0,1-.12-1.52V59.84a1.76,1.76,0,0,1,2-1.9h9.47a4.58,4.58,0,0,0,.53,0l.39,0,.22-.05a2.91,2.91,0,0,0,.39-.12l.14-.06.1,0,.22-.12a2.26,2.26,0,0,0,.26-.16,3,3,0,0,0,.35-.27c.2-.18.4-.36.58-.55a2.67,2.67,0,0,1,.48-.41,2.16,2.16,0,0,1,.48-.24,2,2,0,0,1,.54-.13l.31,0,.3,0,.76,0h.46l.76,0,.31,0,.3,0a2,2,0,0,1,.54.13,2,2,0,0,1,.48.24,2.37,2.37,0,0,1,.48.41l.58.55a4.11,4.11,0,0,0,.35.27l.26.16.22.12.1,0,.15.06a2.52,2.52,0,0,0,.39.12l.22.05.38,0,.53,0h9.47c1.32,0,2,.66,2,1.9v41.62a9.81,9.81,0,0,1-.11,1.52,7,7,0,0,1-.32,1.25,5.36,5.36,0,0,1-.49,1,4.13,4.13,0,0,1-.66.79,4.55,4.55,0,0,1-.83.61,5.57,5.57,0,0,1-1.06.46,8.66,8.66,0,0,1-1.34.3,12.58,12.58,0,0,1-1.62.1H49.59a12.58,12.58,0,0,1-1.62-.1m13-53.45h-.67l-.73,0-.19,0-.25,0a4,4,0,0,0-1,.23,4,4,0,0,0-.87.44,4.82,4.82,0,0,0-.77.65c-.11.11-.21.22-.32.32l-.22.19-.2.14-.14.07-.09,0,0,0a.19.19,0,0,1-.1,0l-.18,0-.44,0c-.25,0-.5,0-.75,0H45.18a4.48,4.48,0,0,0-.73,0,4.52,4.52,0,0,0-.73.16,3.64,3.64,0,0,0-.7.31,3.18,3.18,0,0,0-.63.46,2.7,2.7,0,0,0-.48.59,3.36,3.36,0,0,0-.34.65,3.48,3.48,0,0,0-.17.69,4,4,0,0,0-.06.69v41.62a10.56,10.56,0,0,0,.14,1.77,8.38,8.38,0,0,0,.39,1.55,6.86,6.86,0,0,0,.66,1.33,6,6,0,0,0,.92,1.1,6.78,6.78,0,0,0,1.18.87,7.5,7.5,0,0,0,1.42.61,10.36,10.36,0,0,0,1.65.37,13.34,13.34,0,0,0,1.89.13H72.27a13.34,13.34,0,0,0,1.89-.13,10.12,10.12,0,0,0,1.65-.37,7.89,7.89,0,0,0,1.43-.61,6.71,6.71,0,0,0,1.17-.87,6,6,0,0,0,.92-1.1,6.86,6.86,0,0,0,.66-1.33,8.41,8.41,0,0,0,.4-1.55,11.71,11.71,0,0,0,.13-1.77V59.84a5.34,5.34,0,0,0,0-.69,4.39,4.39,0,0,0-.18-.69,4,4,0,0,0-.33-.65,3.07,3.07,0,0,0-.49-.59,3.43,3.43,0,0,0-.62-.46,3.47,3.47,0,0,0-.71-.31,4.52,4.52,0,0,0-.73-.16,4.48,4.48,0,0,0-.73,0H67.46l-.34,0-.43,0-.18,0a.23.23,0,0,1-.11,0l-.05,0-.08,0L66.13,56a1.1,1.1,0,0,1-.21-.14c-.07-.07-.15-.12-.21-.19l-.33-.32A3.68,3.68,0,0,0,65,55a4.63,4.63,0,0,0-.42-.32,4,4,0,0,0-.87-.44,4,4,0,0,0-1-.23l-.24,0-.2,0-.73,0h-.67Zm34.38,53.45a8.54,8.54,0,0,1-1.33-.3,5.66,5.66,0,0,1-1.07-.46,4.28,4.28,0,0,1-1.49-1.4,5.36,5.36,0,0,1-.49-1,7,7,0,0,1-.32-1.25,11.22,11.22,0,0,1-.11-1.52V59.84c0-1.24.7-1.9,2-1.9H102a4.71,4.71,0,0,0,.53,0l.39,0,.21-.05a2.22,2.22,0,0,0,.39-.12l.15-.06.1,0,.22-.12a2.26,2.26,0,0,0,.26-.16,3,3,0,0,0,.35-.27l.58-.55a2.37,2.37,0,0,1,.48-.41,2.16,2.16,0,0,1,.48-.24,1.94,1.94,0,0,1,.54-.13l.3,0,.31,0,.76,0h.46l.76,0,.31,0,.3,0a2,2,0,0,1,.54.13,2.16,2.16,0,0,1,.48.24,2.37,2.37,0,0,1,.48.41L112,57a3,3,0,0,0,.35.27l.26.16.22.12.1,0,.15.06a2.22,2.22,0,0,0,.39.12l.21.05.39,0,.53,0H124c1.32,0,2,.66,2,1.9v41.62a8.71,8.71,0,0,1-.11,1.52,6.92,6.92,0,0,1-.31,1.25,5.36,5.36,0,0,1-.49,1,4.28,4.28,0,0,1-1.49,1.4,5.57,5.57,0,0,1-1.06.46,8.93,8.93,0,0,1-1.34.3,12.58,12.58,0,0,1-1.62.1H96.93a12.58,12.58,0,0,1-1.62-.1m13-53.45h-.67l-.73,0-.19,0-.25,0a4,4,0,0,0-1,.23,4,4,0,0,0-.87.44,4.82,4.82,0,0,0-.77.65l-.32.32-.22.19-.2.14-.14.07-.09,0,0,0a.19.19,0,0,1-.1,0l-.19,0-.43,0c-.25,0-.5,0-.75,0H92.52a4.48,4.48,0,0,0-.73,0,4.52,4.52,0,0,0-.73.16,3.39,3.39,0,0,0-.7.31,3.18,3.18,0,0,0-.63.46,3.07,3.07,0,0,0-.49.59,4,4,0,0,0-.33.65,3.48,3.48,0,0,0-.17.69,4,4,0,0,0-.06.69v41.62a10.56,10.56,0,0,0,.14,1.77,8.38,8.38,0,0,0,.39,1.55,6.86,6.86,0,0,0,.66,1.33,6,6,0,0,0,.92,1.1,6.42,6.42,0,0,0,1.18.87,7.5,7.5,0,0,0,1.42.61,10.36,10.36,0,0,0,1.65.37,13.34,13.34,0,0,0,1.89.13h22.68a13.34,13.34,0,0,0,1.89-.13,10.12,10.12,0,0,0,1.65-.37,7.5,7.5,0,0,0,1.42-.61,6.42,6.42,0,0,0,1.18-.87,6,6,0,0,0,.92-1.1,6.86,6.86,0,0,0,.66-1.33,7.65,7.65,0,0,0,.39-1.55,11.73,11.73,0,0,0,.14-1.77V59.84a5.34,5.34,0,0,0,0-.69,5.84,5.84,0,0,0-.18-.69,4,4,0,0,0-.33-.65,3.49,3.49,0,0,0-.49-.59,3.18,3.18,0,0,0-.63-.46,3.39,3.39,0,0,0-.7-.31,4.52,4.52,0,0,0-.73-.16,4.48,4.48,0,0,0-.73,0H114.8l-.34,0-.43,0-.18,0a.23.23,0,0,1-.11,0l0,0a.2.2,0,0,1-.08,0l-.15-.07-.2-.14-.22-.19-.32-.32c-.11-.11-.23-.23-.35-.33a4.63,4.63,0,0,0-.42-.32,4,4,0,0,0-.87-.44,4,4,0,0,0-1-.23l-.24,0-.2,0-.73,0h-.67Z" style="fill:none;stroke:#fff;stroke-miterlimit:10;stroke-width:2.80737702302107px"/></clipPath><linearGradient id="f" x1="-1087.26" y1="6526.76" x2="-1086.32" y2="6526.76" gradientTransform="matrix(0, -61.99, -61.99, 0, 404694.81, -67291.35)" gradientUnits="userSpaceOnUse"><stop offset="0" stop-color="#50c7eb"/><stop offset="0.72" stop-color="#96cf69"/><stop offset="1" stop-color="#b2d235"/></linearGradient></defs><rect x="0.77" y="0.77" width="281.97" height="281.89" style="fill:#fff;stroke:#000;stroke-miterlimit:10;stroke-width:1.53901986360762px"/><rect x="5.07" y="4.59" width="281.97" height="281.89" style="fill:#fff;stroke:#000;stroke-miterlimit:10;stroke-width:1.53901986360762px"/><rect x="8.9" y="8.42" width="281.97" height="281.89" style="fill:#fff;stroke:#000;stroke-miterlimit:10;stroke-width:1.53901986360762px"/><rect x="13.72" y="13.08" width="281.97" height="281.89" style="fill:#fff;stroke:#000;stroke-miterlimit:10;stroke-width:2.83464566929134px"/><rect x="15.24" y="14.57" width="139.49" height="139.64" style="fill:#597de9"/><rect x="154.75" y="14.57" width="139.49" height="139.64" style="fill:#fd7ebd"/><rect x="15.24" y="154.04" width="139.49" height="139.64" style="fill:#d5d5d5"/><rect x="154.75" y="154.04" width="139.49" height="139.64" style="fill:#ff0"/><path d="M120.47,214.61c0-19.63-16.32-35.54-36.44-35.54S47.59,195,47.59,214.61v18c0,19.62,16.31,35.54,36.44,35.54s36.44-15.92,36.44-35.54Z" style="fill:#1d2329"/><g style="clip-path:url(#a)"><rect x="54.07" y="212.62" width="59.92" height="49.73" style="fill:url(#b)"/></g><g style="clip-path:url(#c)"><rect x="99.6" y="191.85" width="0.02" height="0.02" style="fill:url(#d)"/></g><path d="M68.44,191.85a1.21,1.21,0,0,0,1.54.3,26.81,26.81,0,0,1,3.91-1.84,27.54,27.54,0,0,1,5-1.38,28.62,28.62,0,0,1,10.33,0,27.31,27.31,0,0,1,5,1.38,26.81,26.81,0,0,1,3.91,1.84,1.24,1.24,0,0,0,1.55-.29l.86-1.11a1,1,0,0,0-.34-1.57A31.68,31.68,0,0,0,95.58,187a32.63,32.63,0,0,0-5.67-1.57,32.94,32.94,0,0,0-11.77,0A32.28,32.28,0,0,0,72.48,187a31.8,31.8,0,0,0-4.57,2.16,1,1,0,0,0-.33,1.57c.28.37.57.74.86,1.1" style="fill:#bcd531"/><path d="M102.52,195.3l.36.32a26.48,26.48,0,0,1,3.37,3.73,21.9,21.9,0,0,1,2.42,4.15,17.47,17.47,0,0,1,1.26,4.34c0,.23.07.46.1.7a1.14,1.14,0,0,0,1.31,1l1.44-.19a1.1,1.1,0,0,0,1-1.19c0-.27-.07-.53-.11-.78a20.55,20.55,0,0,0-1.5-5.18,25.35,25.35,0,0,0-2.81-4.82,29.28,29.28,0,0,0-3.84-4.26l-.55-.49a1.21,1.21,0,0,0-1.73.16l-.86,1.11a1,1,0,0,0,.14,1.44m-47.25,14,1.44.19a1.15,1.15,0,0,0,1.32-1l.09-.7a17.5,17.5,0,0,1,1.27-4.34,21.38,21.38,0,0,1,2.42-4.15,25.81,25.81,0,0,1,3.36-3.73l.36-.32a1,1,0,0,0,.15-1.44l-.86-1.11a1.21,1.21,0,0,0-1.73-.16l-.55.49a28.72,28.72,0,0,0-3.84,4.26,24.89,24.89,0,0,0-2.82,4.82,21,21,0,0,0-1.5,5.18c0,.25-.07.51-.11.78a1.11,1.11,0,0,0,1,1.19" style="fill:#80c35e"/><path d="M83.86,237l4.67-1.6h9.68c.42,1.17.84,2.35,1.25,3.53a6.65,6.65,0,0,1-1.61.19H87.52c-2,0-3.24-.73-3.66-2.12" style="fill:#fff"/><path d="M69.56,212.12l-3.67-1.38a5.8,5.8,0,0,0-.3,1.32c-.34,3-.69,6.07-1,9.11L66.3,223l2.23-1.91,1-9" style="fill:#fff"/><path d="M80,211.85c.68-1.18,1.36-2.36,2-3.54a6,6,0,0,0-1.54-.18H70.24a4.28,4.28,0,0,0-4.14,2.14l4.22,1.58H80" style="fill:#fff"/><path d="M78.81,225.57q-.51,4.62-1,9.24l1.41,4a4,4,0,0,0,2.51-3.57c.35-3.22.7-6.43,1.06-9.65L81,223.72l-2.2,1.85" style="fill:#fff"/><path d="M101,212.57c-.32,2.87-.63,5.75-1,8.63l1.74,1.79,2.24-1.88c.34-3,.67-6,1-9.05.2-1.8-.39-3-1.71-3.57L101,212.57" style="fill:#fff"/><path d="M83.75,235.21a5.55,5.55,0,0,0,0,1.29l4-1.36,1.09-9.54L87,223.73l-2.22,1.9c-.36,3.2-.71,6.39-1.07,9.58" style="fill:#fff"/><path d="M89.31,221.09l1-9-3.66-1.38a5.32,5.32,0,0,0-.3,1.32q-.53,4.55-1,9.11L87.08,223l2.23-1.91" style="fill:#fff"/><path d="M101.31,208.13H91c-2,0-3.42.74-4.14,2.14l4.22,1.58h9.72l2-3.54a6,6,0,0,0-1.54-.18" style="fill:#fff"/><path d="M103.56,225.56c-.6-.61-1.19-1.22-1.78-1.84l-2.19,1.85-1,9.24,1.42,4a4,4,0,0,0,2.5-3.57c.36-3.22.71-6.43,1.07-9.65" style="fill:#fff"/><path d="M64,225.63q-.53,4.8-1.07,9.58a5,5,0,0,0,0,1.29l4-1.36,1.09-9.54-1.79-1.87L64,225.63" style="fill:#fff"/><path d="M78.69,239l-1.26-3.53H67.75L63.09,237c.41,1.39,1.65,2.12,3.66,2.12H77.08a6.71,6.71,0,0,0,1.61-.19" style="fill:#fff"/><g style="clip-path:url(#e)"><rect x="39.94" y="52.53" width="89.32" height="58.06" style="fill:url(#f)"/><path d="M127.86,53.93v55.26H41.34V53.93h86.52m2.81-2.81H38.54V112h92.13V51.12Z" style="fill:#fff"/></g><path d="M54.33,109.19h0Zm47.34,0h0ZM45.19,98v3.51a8.7,8.7,0,0,0,.08,1.24,5.93,5.93,0,0,0,.24.92,3.93,3.93,0,0,0,.3.62,2.86,2.86,0,0,0,.35.43,3,3,0,0,0,.46.33,3.27,3.27,0,0,0,.67.28,5.55,5.55,0,0,0,1,.22,9.76,9.76,0,0,0,1.32.09H72.27a9.76,9.76,0,0,0,1.32-.09,5.36,5.36,0,0,0,1-.22,3.27,3.27,0,0,0,.67-.28,3,3,0,0,0,.46-.33,2.86,2.86,0,0,0,.35-.43,2.72,2.72,0,0,0,.3-.62,5,5,0,0,0,.24-.92,8.73,8.73,0,0,0,.09-1.24V98Zm47.33,0v3.51a8.73,8.73,0,0,0,.09,1.24,4.3,4.3,0,0,0,.24.92,2.72,2.72,0,0,0,.3.62,2.86,2.86,0,0,0,.35.43A3,3,0,0,0,94,105a3.27,3.27,0,0,0,.67.28,5.55,5.55,0,0,0,1,.22,9.76,9.76,0,0,0,1.32.09h22.68a9.76,9.76,0,0,0,1.32-.09,5.55,5.55,0,0,0,1-.22,3.27,3.27,0,0,0,.67-.28,3,3,0,0,0,.46-.33,2.86,2.86,0,0,0,.35-.43,2.72,2.72,0,0,0,.3-.62,5.93,5.93,0,0,0,.24-.92,8.73,8.73,0,0,0,.09-1.24V98ZM45.18,96.06h31.5V88.42H45.18Zm47.34,0H124V88.42H92.52ZM45.18,86.53h31.5V78.89H45.18Zm47.34,0H124V78.89H92.52ZM45.18,77h31.5V69.37H45.18Zm47.34,0H124V69.37H92.52ZM60.19,57.55l-.47,0a.52.52,0,0,0-.39.18l-.47.46-.43.37a6.22,6.22,0,0,1-.65.45l-.26.14-.21.1-.24.11-.25.1-.45.14-.57.11q-.4.06-.84.09l-1,0H45.59c-.29,0-.41.11-.41.38v7.25h31.5V60.22c0-.27-.12-.38-.41-.38H67.88l-1,0c-.29,0-.56,0-.84-.09l-.57-.11a5.78,5.78,0,0,1-.7-.24l-.24-.11-.21-.1L64.08,59a7.49,7.49,0,0,1-.65-.45L63,58.21l-.47-.46a.51.51,0,0,0-.38-.18l-.47,0-.75,0-.74,0m47.34,0-.47,0a.52.52,0,0,0-.39.18l-.47.46-.43.37a6.22,6.22,0,0,1-.65.45l-.26.14-.21.1-.24.11-.25.1-.46.14-.56.11c-.28,0-.55.07-.84.09l-1,0H92.93c-.29,0-.41.11-.41.38v7.25H124V60.22c0-.27-.12-.38-.41-.38h-8.4l-1,0c-.29,0-.56,0-.84-.09l-.57-.11a5.78,5.78,0,0,1-.7-.24l-.24-.11-.21-.1-.27-.14a7.33,7.33,0,0,1-.64-.45l-.43-.37-.47-.46a.51.51,0,0,0-.38-.18l-.47,0-.75,0-.74,0M48,107.38a8.54,8.54,0,0,1-1.33-.3,6,6,0,0,1-1.07-.46,4.55,4.55,0,0,1-.83-.61,4.08,4.08,0,0,1-.65-.79,4.35,4.35,0,0,1-.49-1,6.21,6.21,0,0,1-.32-1.25,9.83,9.83,0,0,1-.12-1.52V59.84a1.76,1.76,0,0,1,2-1.9h9.47a4.58,4.58,0,0,0,.53,0l.39,0,.22-.05a2.91,2.91,0,0,0,.39-.12l.14-.06.1,0,.22-.12a2.26,2.26,0,0,0,.26-.16,3,3,0,0,0,.35-.27c.2-.18.4-.36.58-.55a2.67,2.67,0,0,1,.48-.41,2.16,2.16,0,0,1,.48-.24,2,2,0,0,1,.54-.13l.31,0,.3,0,.76,0h.46l.76,0,.31,0,.3,0a2,2,0,0,1,.54.13,2,2,0,0,1,.48.24,2.37,2.37,0,0,1,.48.41l.58.55a4.11,4.11,0,0,0,.35.27l.26.16.22.12.1,0,.15.06a2.52,2.52,0,0,0,.39.12l.22.05.38,0,.53,0h9.47c1.32,0,2,.66,2,1.9v41.62a9.81,9.81,0,0,1-.11,1.52,7,7,0,0,1-.32,1.25,5.36,5.36,0,0,1-.49,1,4.13,4.13,0,0,1-.66.79,4.55,4.55,0,0,1-.83.61,5.57,5.57,0,0,1-1.06.46,8.66,8.66,0,0,1-1.34.3,12.58,12.58,0,0,1-1.62.1H49.59a12.58,12.58,0,0,1-1.62-.1m13-53.45h-.67l-.73,0-.19,0-.25,0a4,4,0,0,0-1,.23,4,4,0,0,0-.87.44,4.82,4.82,0,0,0-.77.65c-.11.11-.21.22-.32.32l-.22.19-.2.14-.14.07-.09,0,0,0a.19.19,0,0,1-.1,0l-.18,0-.44,0c-.25,0-.5,0-.75,0H45.18a4.48,4.48,0,0,0-.73,0,4.52,4.52,0,0,0-.73.16,3.64,3.64,0,0,0-.7.31,3.18,3.18,0,0,0-.63.46,2.7,2.7,0,0,0-.48.59,3.36,3.36,0,0,0-.34.65,3.48,3.48,0,0,0-.17.69,4,4,0,0,0-.06.69v41.62a10.56,10.56,0,0,0,.14,1.77,8.38,8.38,0,0,0,.39,1.55,6.86,6.86,0,0,0,.66,1.33,6,6,0,0,0,.92,1.1,6.78,6.78,0,0,0,1.18.87,7.5,7.5,0,0,0,1.42.61,10.36,10.36,0,0,0,1.65.37,13.34,13.34,0,0,0,1.89.13H72.27a13.34,13.34,0,0,0,1.89-.13,10.12,10.12,0,0,0,1.65-.37,7.89,7.89,0,0,0,1.43-.61,6.71,6.71,0,0,0,1.17-.87,6,6,0,0,0,.92-1.1,6.86,6.86,0,0,0,.66-1.33,8.41,8.41,0,0,0,.4-1.55,11.71,11.71,0,0,0,.13-1.77V59.84a5.34,5.34,0,0,0,0-.69,4.39,4.39,0,0,0-.18-.69,4,4,0,0,0-.33-.65,3.07,3.07,0,0,0-.49-.59,3.43,3.43,0,0,0-.62-.46,3.47,3.47,0,0,0-.71-.31,4.52,4.52,0,0,0-.73-.16,4.48,4.48,0,0,0-.73,0H67.46l-.34,0-.43,0-.18,0a.23.23,0,0,1-.11,0l-.05,0-.08,0L66.13,56a1.1,1.1,0,0,1-.21-.14c-.07-.07-.15-.12-.21-.19l-.33-.32A3.68,3.68,0,0,0,65,55a4.63,4.63,0,0,0-.42-.32,4,4,0,0,0-.87-.44,4,4,0,0,0-1-.23l-.24,0-.2,0-.73,0h-.67Zm34.38,53.45a8.54,8.54,0,0,1-1.33-.3,5.66,5.66,0,0,1-1.07-.46,4.28,4.28,0,0,1-1.49-1.4,5.36,5.36,0,0,1-.49-1,7,7,0,0,1-.32-1.25,11.22,11.22,0,0,1-.11-1.52V59.84c0-1.24.7-1.9,2-1.9H102a4.71,4.71,0,0,0,.53,0l.39,0,.21-.05a2.22,2.22,0,0,0,.39-.12l.15-.06.1,0,.22-.12a2.26,2.26,0,0,0,.26-.16,3,3,0,0,0,.35-.27l.58-.55a2.37,2.37,0,0,1,.48-.41,2.16,2.16,0,0,1,.48-.24,1.94,1.94,0,0,1,.54-.13l.3,0,.31,0,.76,0h.46l.76,0,.31,0,.3,0a2,2,0,0,1,.54.13,2.16,2.16,0,0,1,.48.24,2.37,2.37,0,0,1,.48.41L112,57a3,3,0,0,0,.35.27l.26.16.22.12.1,0,.15.06a2.22,2.22,0,0,0,.39.12l.21.05.39,0,.53,0H124c1.32,0,2,.66,2,1.9v41.62a8.71,8.71,0,0,1-.11,1.52,6.92,6.92,0,0,1-.31,1.25,5.36,5.36,0,0,1-.49,1,4.28,4.28,0,0,1-1.49,1.4,5.57,5.57,0,0,1-1.06.46,8.93,8.93,0,0,1-1.34.3,12.58,12.58,0,0,1-1.62.1H96.93a12.58,12.58,0,0,1-1.62-.1m13-53.45h-.67l-.73,0-.19,0-.25,0a4,4,0,0,0-1,.23,4,4,0,0,0-.87.44,4.82,4.82,0,0,0-.77.65l-.32.32-.22.19-.2.14-.14.07-.09,0,0,0a.19.19,0,0,1-.1,0l-.19,0-.43,0c-.25,0-.5,0-.75,0H92.52a4.48,4.48,0,0,0-.73,0,4.52,4.52,0,0,0-.73.16,3.39,3.39,0,0,0-.7.31,3.18,3.18,0,0,0-.63.46,3.07,3.07,0,0,0-.49.59,4,4,0,0,0-.33.65,3.48,3.48,0,0,0-.17.69,4,4,0,0,0-.06.69v41.62a10.56,10.56,0,0,0,.14,1.77,8.38,8.38,0,0,0,.39,1.55,6.86,6.86,0,0,0,.66,1.33,6,6,0,0,0,.92,1.1,6.42,6.42,0,0,0,1.18.87,7.5,7.5,0,0,0,1.42.61,10.36,10.36,0,0,0,1.65.37,13.34,13.34,0,0,0,1.89.13h22.68a13.34,13.34,0,0,0,1.89-.13,10.12,10.12,0,0,0,1.65-.37,7.5,7.5,0,0,0,1.42-.61,6.42,6.42,0,0,0,1.18-.87,6,6,0,0,0,.92-1.1,6.86,6.86,0,0,0,.66-1.33,7.65,7.65,0,0,0,.39-1.55,11.73,11.73,0,0,0,.14-1.77V59.84a5.34,5.34,0,0,0,0-.69,5.84,5.84,0,0,0-.18-.69,4,4,0,0,0-.33-.65,3.49,3.49,0,0,0-.49-.59,3.18,3.18,0,0,0-.63-.46,3.39,3.39,0,0,0-.7-.31,4.52,4.52,0,0,0-.73-.16,4.48,4.48,0,0,0-.73,0H114.8l-.34,0-.43,0-.18,0a.23.23,0,0,1-.11,0l0,0a.2.2,0,0,1-.08,0l-.15-.07-.2-.14-.22-.19-.32-.32c-.11-.11-.23-.23-.35-.33a4.63,4.63,0,0,0-.42-.32,4,4,0,0,0-.87-.44,4,4,0,0,0-1-.23l-.24,0-.2,0-.73,0h-.67Z" style="fill:none;stroke:#fff;stroke-miterlimit:10;stroke-width:2.80737702302107px"/><rect x="189.72" y="47.36" width="70.7" height="9.22" style="fill:#0080cb"/><rect x="189.72" y="63.93" width="70.7" height="9.22" style="fill:#28c3ff"/><rect x="189.72" y="80.5" width="70.7" height="9.22" style="fill:#28e1a5"/><rect x="189.72" y="97.08" width="70.7" height="9.22" style="fill:#c0df16"/><rect x="189.72" y="113.65" width="70.7" height="9.22" style="fill:#e1ff32"/><circle cx="224.49" cy="223.86" r="40.27" style="fill:#fa4674;stroke:#000;stroke-linecap:round;stroke-linejoin:round;stroke-width:1.69411438973474px"/><circle cx="224.49" cy="223.86" r="18.95" style="fill:#88fffc;stroke:#000;stroke-linecap:round;stroke-linejoin:round;stroke-width:1.69411438973474px"/></svg>